G04 #@! TF.GenerationSoftware,KiCad,Pcbnew,(5.1.0)-1*
G04 #@! TF.CreationDate,2020-10-21T08:33:28+02:00*
G04 #@! TF.ProjectId,phyphox_CO2_Monitor,70687970-686f-4785-9f43-4f325f4d6f6e,rev?*
G04 #@! TF.SameCoordinates,Original*
G04 #@! TF.FileFunction,Soldermask,Bot*
G04 #@! TF.FilePolarity,Negative*
%FSLAX46Y46*%
G04 Gerber Fmt 4.6, Leading zero omitted, Abs format (unit mm)*
G04 Created by KiCad (PCBNEW (5.1.0)-1) date 2020-10-21 08:33:28*
%MOMM*%
%LPD*%
G04 APERTURE LIST*
%ADD10C,0.100000*%
G04 APERTURE END LIST*
D10*
G36*
X18828898Y-15530233D02*
G01*
X19293150Y-15722532D01*
X19293152Y-15722533D01*
X19710968Y-16001709D01*
X20066291Y-16357032D01*
X20345467Y-16774848D01*
X20345468Y-16774850D01*
X20537767Y-17239102D01*
X20635800Y-17731947D01*
X20635800Y-18234453D01*
X20537767Y-18727298D01*
X20345468Y-19191550D01*
X20345467Y-19191552D01*
X20066291Y-19609368D01*
X19710968Y-19964691D01*
X19293152Y-20243867D01*
X19293151Y-20243868D01*
X19293150Y-20243868D01*
X18828898Y-20436167D01*
X18336053Y-20534200D01*
X17833547Y-20534200D01*
X17340702Y-20436167D01*
X16876450Y-20243868D01*
X16876449Y-20243868D01*
X16876448Y-20243867D01*
X16458632Y-19964691D01*
X16103309Y-19609368D01*
X15824133Y-19191552D01*
X15824132Y-19191550D01*
X15631833Y-18727298D01*
X15533800Y-18234453D01*
X15533800Y-17731947D01*
X15631833Y-17239102D01*
X15824132Y-16774850D01*
X15824133Y-16774848D01*
X16103309Y-16357032D01*
X16458632Y-16001709D01*
X16876448Y-15722533D01*
X16876450Y-15722532D01*
X17340702Y-15530233D01*
X17833547Y-15432200D01*
X18336053Y-15432200D01*
X18828898Y-15530233D01*
X18828898Y-15530233D01*
G37*
G36*
X-21811102Y-15530233D02*
G01*
X-21346850Y-15722532D01*
X-21346848Y-15722533D01*
X-20929032Y-16001709D01*
X-20573709Y-16357032D01*
X-20294533Y-16774848D01*
X-20294532Y-16774850D01*
X-20102233Y-17239102D01*
X-20004200Y-17731947D01*
X-20004200Y-18234453D01*
X-20102233Y-18727298D01*
X-20294532Y-19191550D01*
X-20294533Y-19191552D01*
X-20573709Y-19609368D01*
X-20929032Y-19964691D01*
X-21346848Y-20243867D01*
X-21346849Y-20243868D01*
X-21346850Y-20243868D01*
X-21811102Y-20436167D01*
X-22303947Y-20534200D01*
X-22806453Y-20534200D01*
X-23299298Y-20436167D01*
X-23763550Y-20243868D01*
X-23763551Y-20243868D01*
X-23763552Y-20243867D01*
X-24181368Y-19964691D01*
X-24536691Y-19609368D01*
X-24815867Y-19191552D01*
X-24815868Y-19191550D01*
X-25008167Y-18727298D01*
X-25106200Y-18234453D01*
X-25106200Y-17731947D01*
X-25008167Y-17239102D01*
X-24815868Y-16774850D01*
X-24815867Y-16774848D01*
X-24536691Y-16357032D01*
X-24181368Y-16001709D01*
X-23763552Y-15722533D01*
X-23763550Y-15722532D01*
X-23299298Y-15530233D01*
X-22806453Y-15432200D01*
X-22303947Y-15432200D01*
X-21811102Y-15530233D01*
X-21811102Y-15530233D01*
G37*
G36*
X44300800Y-17179200D02*
G01*
X42548800Y-17179200D01*
X42548800Y-15427200D01*
X44300800Y-15427200D01*
X44300800Y-17179200D01*
X44300800Y-17179200D01*
G37*
G36*
X43680320Y-12920864D02*
G01*
X43839742Y-12986899D01*
X43983218Y-13082766D01*
X44105234Y-13204782D01*
X44201101Y-13348258D01*
X44267136Y-13507680D01*
X44300800Y-13676921D01*
X44300800Y-13849479D01*
X44267136Y-14018720D01*
X44201101Y-14178142D01*
X44105234Y-14321618D01*
X43983218Y-14443634D01*
X43839742Y-14539501D01*
X43680320Y-14605536D01*
X43595699Y-14622368D01*
X43511080Y-14639200D01*
X43338520Y-14639200D01*
X43253901Y-14622368D01*
X43169280Y-14605536D01*
X43009858Y-14539501D01*
X42866382Y-14443634D01*
X42744366Y-14321618D01*
X42648499Y-14178142D01*
X42582464Y-14018720D01*
X42548800Y-13849479D01*
X42548800Y-13676921D01*
X42582464Y-13507680D01*
X42648499Y-13348258D01*
X42744366Y-13204782D01*
X42866382Y-13082766D01*
X43009858Y-12986899D01*
X43169280Y-12920864D01*
X43338520Y-12887200D01*
X43511080Y-12887200D01*
X43680320Y-12920864D01*
X43680320Y-12920864D01*
G37*
G36*
X-5397606Y-11900934D02*
G01*
X-5246376Y-11963576D01*
X-5246374Y-11963577D01*
X-5110268Y-12054520D01*
X-4994520Y-12170268D01*
X-4903577Y-12306374D01*
X-4903576Y-12306376D01*
X-4840934Y-12457606D01*
X-4809000Y-12618152D01*
X-4809000Y-12781848D01*
X-4840934Y-12942394D01*
X-4903576Y-13093624D01*
X-4903577Y-13093626D01*
X-4994520Y-13229732D01*
X-5110268Y-13345480D01*
X-5246374Y-13436423D01*
X-5246375Y-13436424D01*
X-5246376Y-13436424D01*
X-5397606Y-13499066D01*
X-5558152Y-13531000D01*
X-5721848Y-13531000D01*
X-5882394Y-13499066D01*
X-6033624Y-13436424D01*
X-6033625Y-13436424D01*
X-6033626Y-13436423D01*
X-6169732Y-13345480D01*
X-6285480Y-13229732D01*
X-6376423Y-13093626D01*
X-6376424Y-13093624D01*
X-6439066Y-12942394D01*
X-6471000Y-12781848D01*
X-6471000Y-12618152D01*
X-6439066Y-12457606D01*
X-6376424Y-12306376D01*
X-6376423Y-12306374D01*
X-6285480Y-12170268D01*
X-6169732Y-12054520D01*
X-6033626Y-11963577D01*
X-6033624Y-11963576D01*
X-5882394Y-11900934D01*
X-5721848Y-11869000D01*
X-5558152Y-11869000D01*
X-5397606Y-11900934D01*
X-5397606Y-11900934D01*
G37*
G36*
X4762394Y-11900934D02*
G01*
X4913624Y-11963576D01*
X4913626Y-11963577D01*
X5049732Y-12054520D01*
X5165480Y-12170268D01*
X5256423Y-12306374D01*
X5256424Y-12306376D01*
X5319066Y-12457606D01*
X5351000Y-12618152D01*
X5351000Y-12781848D01*
X5319066Y-12942394D01*
X5256424Y-13093624D01*
X5256423Y-13093626D01*
X5165480Y-13229732D01*
X5049732Y-13345480D01*
X4913626Y-13436423D01*
X4913625Y-13436424D01*
X4913624Y-13436424D01*
X4762394Y-13499066D01*
X4601848Y-13531000D01*
X4438152Y-13531000D01*
X4277606Y-13499066D01*
X4126376Y-13436424D01*
X4126375Y-13436424D01*
X4126374Y-13436423D01*
X3990268Y-13345480D01*
X3874520Y-13229732D01*
X3783577Y-13093626D01*
X3783576Y-13093624D01*
X3720934Y-12942394D01*
X3689000Y-12781848D01*
X3689000Y-12618152D01*
X3720934Y-12457606D01*
X3783576Y-12306376D01*
X3783577Y-12306374D01*
X3874520Y-12170268D01*
X3990268Y-12054520D01*
X4126374Y-11963577D01*
X4126376Y-11963576D01*
X4277606Y-11900934D01*
X4438152Y-11869000D01*
X4601848Y-11869000D01*
X4762394Y-11900934D01*
X4762394Y-11900934D01*
G37*
G36*
X2222394Y-11900934D02*
G01*
X2373624Y-11963576D01*
X2373626Y-11963577D01*
X2509732Y-12054520D01*
X2625480Y-12170268D01*
X2716423Y-12306374D01*
X2716424Y-12306376D01*
X2779066Y-12457606D01*
X2811000Y-12618152D01*
X2811000Y-12781848D01*
X2779066Y-12942394D01*
X2716424Y-13093624D01*
X2716423Y-13093626D01*
X2625480Y-13229732D01*
X2509732Y-13345480D01*
X2373626Y-13436423D01*
X2373625Y-13436424D01*
X2373624Y-13436424D01*
X2222394Y-13499066D01*
X2061848Y-13531000D01*
X1898152Y-13531000D01*
X1737606Y-13499066D01*
X1586376Y-13436424D01*
X1586375Y-13436424D01*
X1586374Y-13436423D01*
X1450268Y-13345480D01*
X1334520Y-13229732D01*
X1243577Y-13093626D01*
X1243576Y-13093624D01*
X1180934Y-12942394D01*
X1149000Y-12781848D01*
X1149000Y-12618152D01*
X1180934Y-12457606D01*
X1243576Y-12306376D01*
X1243577Y-12306374D01*
X1334520Y-12170268D01*
X1450268Y-12054520D01*
X1586374Y-11963577D01*
X1586376Y-11963576D01*
X1737606Y-11900934D01*
X1898152Y-11869000D01*
X2061848Y-11869000D01*
X2222394Y-11900934D01*
X2222394Y-11900934D01*
G37*
G36*
X-317606Y-11900934D02*
G01*
X-166376Y-11963576D01*
X-166374Y-11963577D01*
X-30268Y-12054520D01*
X85480Y-12170268D01*
X176423Y-12306374D01*
X176424Y-12306376D01*
X239066Y-12457606D01*
X271000Y-12618152D01*
X271000Y-12781848D01*
X239066Y-12942394D01*
X176424Y-13093624D01*
X176423Y-13093626D01*
X85480Y-13229732D01*
X-30268Y-13345480D01*
X-166374Y-13436423D01*
X-166375Y-13436424D01*
X-166376Y-13436424D01*
X-317606Y-13499066D01*
X-478152Y-13531000D01*
X-641848Y-13531000D01*
X-802394Y-13499066D01*
X-953624Y-13436424D01*
X-953625Y-13436424D01*
X-953626Y-13436423D01*
X-1089732Y-13345480D01*
X-1205480Y-13229732D01*
X-1296423Y-13093626D01*
X-1296424Y-13093624D01*
X-1359066Y-12942394D01*
X-1391000Y-12781848D01*
X-1391000Y-12618152D01*
X-1359066Y-12457606D01*
X-1296424Y-12306376D01*
X-1296423Y-12306374D01*
X-1205480Y-12170268D01*
X-1089732Y-12054520D01*
X-953626Y-11963577D01*
X-953624Y-11963576D01*
X-802394Y-11900934D01*
X-641848Y-11869000D01*
X-478152Y-11869000D01*
X-317606Y-11900934D01*
X-317606Y-11900934D01*
G37*
G36*
X-2857606Y-11900934D02*
G01*
X-2706376Y-11963576D01*
X-2706374Y-11963577D01*
X-2570268Y-12054520D01*
X-2454520Y-12170268D01*
X-2363577Y-12306374D01*
X-2363576Y-12306376D01*
X-2300934Y-12457606D01*
X-2269000Y-12618152D01*
X-2269000Y-12781848D01*
X-2300934Y-12942394D01*
X-2363576Y-13093624D01*
X-2363577Y-13093626D01*
X-2454520Y-13229732D01*
X-2570268Y-13345480D01*
X-2706374Y-13436423D01*
X-2706375Y-13436424D01*
X-2706376Y-13436424D01*
X-2857606Y-13499066D01*
X-3018152Y-13531000D01*
X-3181848Y-13531000D01*
X-3342394Y-13499066D01*
X-3493624Y-13436424D01*
X-3493625Y-13436424D01*
X-3493626Y-13436423D01*
X-3629732Y-13345480D01*
X-3745480Y-13229732D01*
X-3836423Y-13093626D01*
X-3836424Y-13093624D01*
X-3899066Y-12942394D01*
X-3931000Y-12781848D01*
X-3931000Y-12618152D01*
X-3899066Y-12457606D01*
X-3836424Y-12306376D01*
X-3836423Y-12306374D01*
X-3745480Y-12170268D01*
X-3629732Y-12054520D01*
X-3493626Y-11963577D01*
X-3493624Y-11963576D01*
X-3342394Y-11900934D01*
X-3181848Y-11869000D01*
X-3018152Y-11869000D01*
X-2857606Y-11900934D01*
X-2857606Y-11900934D01*
G37*
G36*
X-7937606Y-11900934D02*
G01*
X-7786376Y-11963576D01*
X-7786374Y-11963577D01*
X-7650268Y-12054520D01*
X-7534520Y-12170268D01*
X-7443577Y-12306374D01*
X-7443576Y-12306376D01*
X-7380934Y-12457606D01*
X-7349000Y-12618152D01*
X-7349000Y-12781848D01*
X-7380934Y-12942394D01*
X-7443576Y-13093624D01*
X-7443577Y-13093626D01*
X-7534520Y-13229732D01*
X-7650268Y-13345480D01*
X-7786374Y-13436423D01*
X-7786375Y-13436424D01*
X-7786376Y-13436424D01*
X-7937606Y-13499066D01*
X-8098152Y-13531000D01*
X-8261848Y-13531000D01*
X-8422394Y-13499066D01*
X-8573624Y-13436424D01*
X-8573625Y-13436424D01*
X-8573626Y-13436423D01*
X-8709732Y-13345480D01*
X-8825480Y-13229732D01*
X-8916423Y-13093626D01*
X-8916424Y-13093624D01*
X-8979066Y-12942394D01*
X-9011000Y-12781848D01*
X-9011000Y-12618152D01*
X-8979066Y-12457606D01*
X-8916424Y-12306376D01*
X-8916423Y-12306374D01*
X-8825480Y-12170268D01*
X-8709732Y-12054520D01*
X-8573626Y-11963577D01*
X-8573624Y-11963576D01*
X-8422394Y-11900934D01*
X-8261848Y-11869000D01*
X-8098152Y-11869000D01*
X-7937606Y-11900934D01*
X-7937606Y-11900934D01*
G37*
G36*
X-10477606Y-11900934D02*
G01*
X-10326376Y-11963576D01*
X-10326374Y-11963577D01*
X-10190268Y-12054520D01*
X-10074520Y-12170268D01*
X-9983577Y-12306374D01*
X-9983576Y-12306376D01*
X-9920934Y-12457606D01*
X-9889000Y-12618152D01*
X-9889000Y-12781848D01*
X-9920934Y-12942394D01*
X-9983576Y-13093624D01*
X-9983577Y-13093626D01*
X-10074520Y-13229732D01*
X-10190268Y-13345480D01*
X-10326374Y-13436423D01*
X-10326375Y-13436424D01*
X-10326376Y-13436424D01*
X-10477606Y-13499066D01*
X-10638152Y-13531000D01*
X-10801848Y-13531000D01*
X-10962394Y-13499066D01*
X-11113624Y-13436424D01*
X-11113625Y-13436424D01*
X-11113626Y-13436423D01*
X-11249732Y-13345480D01*
X-11365480Y-13229732D01*
X-11456423Y-13093626D01*
X-11456424Y-13093624D01*
X-11519066Y-12942394D01*
X-11551000Y-12781848D01*
X-11551000Y-12618152D01*
X-11519066Y-12457606D01*
X-11456424Y-12306376D01*
X-11456423Y-12306374D01*
X-11365480Y-12170268D01*
X-11249732Y-12054520D01*
X-11113626Y-11963577D01*
X-11113624Y-11963576D01*
X-10962394Y-11900934D01*
X-10801848Y-11869000D01*
X-10638152Y-11869000D01*
X-10477606Y-11900934D01*
X-10477606Y-11900934D01*
G37*
G36*
X-13017606Y-11900934D02*
G01*
X-12866376Y-11963576D01*
X-12866374Y-11963577D01*
X-12730268Y-12054520D01*
X-12614520Y-12170268D01*
X-12523577Y-12306374D01*
X-12523576Y-12306376D01*
X-12460934Y-12457606D01*
X-12429000Y-12618152D01*
X-12429000Y-12781848D01*
X-12460934Y-12942394D01*
X-12523576Y-13093624D01*
X-12523577Y-13093626D01*
X-12614520Y-13229732D01*
X-12730268Y-13345480D01*
X-12866374Y-13436423D01*
X-12866375Y-13436424D01*
X-12866376Y-13436424D01*
X-13017606Y-13499066D01*
X-13178152Y-13531000D01*
X-13341848Y-13531000D01*
X-13502394Y-13499066D01*
X-13653624Y-13436424D01*
X-13653625Y-13436424D01*
X-13653626Y-13436423D01*
X-13789732Y-13345480D01*
X-13905480Y-13229732D01*
X-13996423Y-13093626D01*
X-13996424Y-13093624D01*
X-14059066Y-12942394D01*
X-14091000Y-12781848D01*
X-14091000Y-12618152D01*
X-14059066Y-12457606D01*
X-13996424Y-12306376D01*
X-13996423Y-12306374D01*
X-13905480Y-12170268D01*
X-13789732Y-12054520D01*
X-13653626Y-11963577D01*
X-13653624Y-11963576D01*
X-13502394Y-11900934D01*
X-13341848Y-11869000D01*
X-13178152Y-11869000D01*
X-13017606Y-11900934D01*
X-13017606Y-11900934D01*
G37*
G36*
X-15557606Y-11900934D02*
G01*
X-15406376Y-11963576D01*
X-15406374Y-11963577D01*
X-15270268Y-12054520D01*
X-15154520Y-12170268D01*
X-15063577Y-12306374D01*
X-15063576Y-12306376D01*
X-15000934Y-12457606D01*
X-14969000Y-12618152D01*
X-14969000Y-12781848D01*
X-15000934Y-12942394D01*
X-15063576Y-13093624D01*
X-15063577Y-13093626D01*
X-15154520Y-13229732D01*
X-15270268Y-13345480D01*
X-15406374Y-13436423D01*
X-15406375Y-13436424D01*
X-15406376Y-13436424D01*
X-15557606Y-13499066D01*
X-15718152Y-13531000D01*
X-15881848Y-13531000D01*
X-16042394Y-13499066D01*
X-16193624Y-13436424D01*
X-16193625Y-13436424D01*
X-16193626Y-13436423D01*
X-16329732Y-13345480D01*
X-16445480Y-13229732D01*
X-16536423Y-13093626D01*
X-16536424Y-13093624D01*
X-16599066Y-12942394D01*
X-16631000Y-12781848D01*
X-16631000Y-12618152D01*
X-16599066Y-12457606D01*
X-16536424Y-12306376D01*
X-16536423Y-12306374D01*
X-16445480Y-12170268D01*
X-16329732Y-12054520D01*
X-16193626Y-11963577D01*
X-16193624Y-11963576D01*
X-16042394Y-11900934D01*
X-15881848Y-11869000D01*
X-15718152Y-11869000D01*
X-15557606Y-11900934D01*
X-15557606Y-11900934D01*
G37*
G36*
X7302394Y-11900934D02*
G01*
X7453624Y-11963576D01*
X7453626Y-11963577D01*
X7589732Y-12054520D01*
X7705480Y-12170268D01*
X7796423Y-12306374D01*
X7796424Y-12306376D01*
X7859066Y-12457606D01*
X7891000Y-12618152D01*
X7891000Y-12781848D01*
X7859066Y-12942394D01*
X7796424Y-13093624D01*
X7796423Y-13093626D01*
X7705480Y-13229732D01*
X7589732Y-13345480D01*
X7453626Y-13436423D01*
X7453625Y-13436424D01*
X7453624Y-13436424D01*
X7302394Y-13499066D01*
X7141848Y-13531000D01*
X6978152Y-13531000D01*
X6817606Y-13499066D01*
X6666376Y-13436424D01*
X6666375Y-13436424D01*
X6666374Y-13436423D01*
X6530268Y-13345480D01*
X6414520Y-13229732D01*
X6323577Y-13093626D01*
X6323576Y-13093624D01*
X6260934Y-12942394D01*
X6229000Y-12781848D01*
X6229000Y-12618152D01*
X6260934Y-12457606D01*
X6323576Y-12306376D01*
X6323577Y-12306374D01*
X6414520Y-12170268D01*
X6530268Y-12054520D01*
X6666374Y-11963577D01*
X6666376Y-11963576D01*
X6817606Y-11900934D01*
X6978152Y-11869000D01*
X7141848Y-11869000D01*
X7302394Y-11900934D01*
X7302394Y-11900934D01*
G37*
G36*
X-23177606Y-11900934D02*
G01*
X-23026376Y-11963576D01*
X-23026374Y-11963577D01*
X-22890268Y-12054520D01*
X-22774520Y-12170268D01*
X-22683577Y-12306374D01*
X-22683576Y-12306376D01*
X-22620934Y-12457606D01*
X-22589000Y-12618152D01*
X-22589000Y-12781848D01*
X-22620934Y-12942394D01*
X-22683576Y-13093624D01*
X-22683577Y-13093626D01*
X-22774520Y-13229732D01*
X-22890268Y-13345480D01*
X-23026374Y-13436423D01*
X-23026375Y-13436424D01*
X-23026376Y-13436424D01*
X-23177606Y-13499066D01*
X-23338152Y-13531000D01*
X-23501848Y-13531000D01*
X-23662394Y-13499066D01*
X-23813624Y-13436424D01*
X-23813625Y-13436424D01*
X-23813626Y-13436423D01*
X-23949732Y-13345480D01*
X-24065480Y-13229732D01*
X-24156423Y-13093626D01*
X-24156424Y-13093624D01*
X-24219066Y-12942394D01*
X-24251000Y-12781848D01*
X-24251000Y-12618152D01*
X-24219066Y-12457606D01*
X-24156424Y-12306376D01*
X-24156423Y-12306374D01*
X-24065480Y-12170268D01*
X-23949732Y-12054520D01*
X-23813626Y-11963577D01*
X-23813624Y-11963576D01*
X-23662394Y-11900934D01*
X-23501848Y-11869000D01*
X-23338152Y-11869000D01*
X-23177606Y-11900934D01*
X-23177606Y-11900934D01*
G37*
G36*
X-25717606Y-11900934D02*
G01*
X-25566376Y-11963576D01*
X-25566374Y-11963577D01*
X-25430268Y-12054520D01*
X-25314520Y-12170268D01*
X-25223577Y-12306374D01*
X-25223576Y-12306376D01*
X-25160934Y-12457606D01*
X-25129000Y-12618152D01*
X-25129000Y-12781848D01*
X-25160934Y-12942394D01*
X-25223576Y-13093624D01*
X-25223577Y-13093626D01*
X-25314520Y-13229732D01*
X-25430268Y-13345480D01*
X-25566374Y-13436423D01*
X-25566375Y-13436424D01*
X-25566376Y-13436424D01*
X-25717606Y-13499066D01*
X-25878152Y-13531000D01*
X-26041848Y-13531000D01*
X-26202394Y-13499066D01*
X-26353624Y-13436424D01*
X-26353625Y-13436424D01*
X-26353626Y-13436423D01*
X-26489732Y-13345480D01*
X-26605480Y-13229732D01*
X-26696423Y-13093626D01*
X-26696424Y-13093624D01*
X-26759066Y-12942394D01*
X-26791000Y-12781848D01*
X-26791000Y-12618152D01*
X-26759066Y-12457606D01*
X-26696424Y-12306376D01*
X-26696423Y-12306374D01*
X-26605480Y-12170268D01*
X-26489732Y-12054520D01*
X-26353626Y-11963577D01*
X-26353624Y-11963576D01*
X-26202394Y-11900934D01*
X-26041848Y-11869000D01*
X-25878152Y-11869000D01*
X-25717606Y-11900934D01*
X-25717606Y-11900934D01*
G37*
G36*
X12382394Y-11900934D02*
G01*
X12533624Y-11963576D01*
X12533626Y-11963577D01*
X12669732Y-12054520D01*
X12785480Y-12170268D01*
X12876423Y-12306374D01*
X12876424Y-12306376D01*
X12939066Y-12457606D01*
X12971000Y-12618152D01*
X12971000Y-12781848D01*
X12939066Y-12942394D01*
X12876424Y-13093624D01*
X12876423Y-13093626D01*
X12785480Y-13229732D01*
X12669732Y-13345480D01*
X12533626Y-13436423D01*
X12533625Y-13436424D01*
X12533624Y-13436424D01*
X12382394Y-13499066D01*
X12221848Y-13531000D01*
X12058152Y-13531000D01*
X11897606Y-13499066D01*
X11746376Y-13436424D01*
X11746375Y-13436424D01*
X11746374Y-13436423D01*
X11610268Y-13345480D01*
X11494520Y-13229732D01*
X11403577Y-13093626D01*
X11403576Y-13093624D01*
X11340934Y-12942394D01*
X11309000Y-12781848D01*
X11309000Y-12618152D01*
X11340934Y-12457606D01*
X11403576Y-12306376D01*
X11403577Y-12306374D01*
X11494520Y-12170268D01*
X11610268Y-12054520D01*
X11746374Y-11963577D01*
X11746376Y-11963576D01*
X11897606Y-11900934D01*
X12058152Y-11869000D01*
X12221848Y-11869000D01*
X12382394Y-11900934D01*
X12382394Y-11900934D01*
G37*
G36*
X14922394Y-11900934D02*
G01*
X15073624Y-11963576D01*
X15073626Y-11963577D01*
X15209732Y-12054520D01*
X15325480Y-12170268D01*
X15416423Y-12306374D01*
X15416424Y-12306376D01*
X15479066Y-12457606D01*
X15511000Y-12618152D01*
X15511000Y-12781848D01*
X15479066Y-12942394D01*
X15416424Y-13093624D01*
X15416423Y-13093626D01*
X15325480Y-13229732D01*
X15209732Y-13345480D01*
X15073626Y-13436423D01*
X15073625Y-13436424D01*
X15073624Y-13436424D01*
X14922394Y-13499066D01*
X14761848Y-13531000D01*
X14598152Y-13531000D01*
X14437606Y-13499066D01*
X14286376Y-13436424D01*
X14286375Y-13436424D01*
X14286374Y-13436423D01*
X14150268Y-13345480D01*
X14034520Y-13229732D01*
X13943577Y-13093626D01*
X13943576Y-13093624D01*
X13880934Y-12942394D01*
X13849000Y-12781848D01*
X13849000Y-12618152D01*
X13880934Y-12457606D01*
X13943576Y-12306376D01*
X13943577Y-12306374D01*
X14034520Y-12170268D01*
X14150268Y-12054520D01*
X14286374Y-11963577D01*
X14286376Y-11963576D01*
X14437606Y-11900934D01*
X14598152Y-11869000D01*
X14761848Y-11869000D01*
X14922394Y-11900934D01*
X14922394Y-11900934D01*
G37*
G36*
X17462394Y-11900934D02*
G01*
X17613624Y-11963576D01*
X17613626Y-11963577D01*
X17749732Y-12054520D01*
X17865480Y-12170268D01*
X17956423Y-12306374D01*
X17956424Y-12306376D01*
X18019066Y-12457606D01*
X18051000Y-12618152D01*
X18051000Y-12781848D01*
X18019066Y-12942394D01*
X17956424Y-13093624D01*
X17956423Y-13093626D01*
X17865480Y-13229732D01*
X17749732Y-13345480D01*
X17613626Y-13436423D01*
X17613625Y-13436424D01*
X17613624Y-13436424D01*
X17462394Y-13499066D01*
X17301848Y-13531000D01*
X17138152Y-13531000D01*
X16977606Y-13499066D01*
X16826376Y-13436424D01*
X16826375Y-13436424D01*
X16826374Y-13436423D01*
X16690268Y-13345480D01*
X16574520Y-13229732D01*
X16483577Y-13093626D01*
X16483576Y-13093624D01*
X16420934Y-12942394D01*
X16389000Y-12781848D01*
X16389000Y-12618152D01*
X16420934Y-12457606D01*
X16483576Y-12306376D01*
X16483577Y-12306374D01*
X16574520Y-12170268D01*
X16690268Y-12054520D01*
X16826374Y-11963577D01*
X16826376Y-11963576D01*
X16977606Y-11900934D01*
X17138152Y-11869000D01*
X17301848Y-11869000D01*
X17462394Y-11900934D01*
X17462394Y-11900934D01*
G37*
G36*
X20002394Y-11900934D02*
G01*
X20153624Y-11963576D01*
X20153626Y-11963577D01*
X20289732Y-12054520D01*
X20405480Y-12170268D01*
X20496423Y-12306374D01*
X20496424Y-12306376D01*
X20559066Y-12457606D01*
X20591000Y-12618152D01*
X20591000Y-12781848D01*
X20559066Y-12942394D01*
X20496424Y-13093624D01*
X20496423Y-13093626D01*
X20405480Y-13229732D01*
X20289732Y-13345480D01*
X20153626Y-13436423D01*
X20153625Y-13436424D01*
X20153624Y-13436424D01*
X20002394Y-13499066D01*
X19841848Y-13531000D01*
X19678152Y-13531000D01*
X19517606Y-13499066D01*
X19366376Y-13436424D01*
X19366375Y-13436424D01*
X19366374Y-13436423D01*
X19230268Y-13345480D01*
X19114520Y-13229732D01*
X19023577Y-13093626D01*
X19023576Y-13093624D01*
X18960934Y-12942394D01*
X18929000Y-12781848D01*
X18929000Y-12618152D01*
X18960934Y-12457606D01*
X19023576Y-12306376D01*
X19023577Y-12306374D01*
X19114520Y-12170268D01*
X19230268Y-12054520D01*
X19366374Y-11963577D01*
X19366376Y-11963576D01*
X19517606Y-11900934D01*
X19678152Y-11869000D01*
X19841848Y-11869000D01*
X20002394Y-11900934D01*
X20002394Y-11900934D01*
G37*
G36*
X9842394Y-11900934D02*
G01*
X9993624Y-11963576D01*
X9993626Y-11963577D01*
X10129732Y-12054520D01*
X10245480Y-12170268D01*
X10336423Y-12306374D01*
X10336424Y-12306376D01*
X10399066Y-12457606D01*
X10431000Y-12618152D01*
X10431000Y-12781848D01*
X10399066Y-12942394D01*
X10336424Y-13093624D01*
X10336423Y-13093626D01*
X10245480Y-13229732D01*
X10129732Y-13345480D01*
X9993626Y-13436423D01*
X9993625Y-13436424D01*
X9993624Y-13436424D01*
X9842394Y-13499066D01*
X9681848Y-13531000D01*
X9518152Y-13531000D01*
X9357606Y-13499066D01*
X9206376Y-13436424D01*
X9206375Y-13436424D01*
X9206374Y-13436423D01*
X9070268Y-13345480D01*
X8954520Y-13229732D01*
X8863577Y-13093626D01*
X8863576Y-13093624D01*
X8800934Y-12942394D01*
X8769000Y-12781848D01*
X8769000Y-12618152D01*
X8800934Y-12457606D01*
X8863576Y-12306376D01*
X8863577Y-12306374D01*
X8954520Y-12170268D01*
X9070268Y-12054520D01*
X9206374Y-11963577D01*
X9206376Y-11963576D01*
X9357606Y-11900934D01*
X9518152Y-11869000D01*
X9681848Y-11869000D01*
X9842394Y-11900934D01*
X9842394Y-11900934D01*
G37*
G36*
X-20637606Y-11900934D02*
G01*
X-20486376Y-11963576D01*
X-20486374Y-11963577D01*
X-20350268Y-12054520D01*
X-20234520Y-12170268D01*
X-20143577Y-12306374D01*
X-20143576Y-12306376D01*
X-20080934Y-12457606D01*
X-20049000Y-12618152D01*
X-20049000Y-12781848D01*
X-20080934Y-12942394D01*
X-20143576Y-13093624D01*
X-20143577Y-13093626D01*
X-20234520Y-13229732D01*
X-20350268Y-13345480D01*
X-20486374Y-13436423D01*
X-20486375Y-13436424D01*
X-20486376Y-13436424D01*
X-20637606Y-13499066D01*
X-20798152Y-13531000D01*
X-20961848Y-13531000D01*
X-21122394Y-13499066D01*
X-21273624Y-13436424D01*
X-21273625Y-13436424D01*
X-21273626Y-13436423D01*
X-21409732Y-13345480D01*
X-21525480Y-13229732D01*
X-21616423Y-13093626D01*
X-21616424Y-13093624D01*
X-21679066Y-12942394D01*
X-21711000Y-12781848D01*
X-21711000Y-12618152D01*
X-21679066Y-12457606D01*
X-21616424Y-12306376D01*
X-21616423Y-12306374D01*
X-21525480Y-12170268D01*
X-21409732Y-12054520D01*
X-21273626Y-11963577D01*
X-21273624Y-11963576D01*
X-21122394Y-11900934D01*
X-20961848Y-11869000D01*
X-20798152Y-11869000D01*
X-20637606Y-11900934D01*
X-20637606Y-11900934D01*
G37*
G36*
X-18097606Y-11900934D02*
G01*
X-17946376Y-11963576D01*
X-17946374Y-11963577D01*
X-17810268Y-12054520D01*
X-17694520Y-12170268D01*
X-17603577Y-12306374D01*
X-17603576Y-12306376D01*
X-17540934Y-12457606D01*
X-17509000Y-12618152D01*
X-17509000Y-12781848D01*
X-17540934Y-12942394D01*
X-17603576Y-13093624D01*
X-17603577Y-13093626D01*
X-17694520Y-13229732D01*
X-17810268Y-13345480D01*
X-17946374Y-13436423D01*
X-17946375Y-13436424D01*
X-17946376Y-13436424D01*
X-18097606Y-13499066D01*
X-18258152Y-13531000D01*
X-18421848Y-13531000D01*
X-18582394Y-13499066D01*
X-18733624Y-13436424D01*
X-18733625Y-13436424D01*
X-18733626Y-13436423D01*
X-18869732Y-13345480D01*
X-18985480Y-13229732D01*
X-19076423Y-13093626D01*
X-19076424Y-13093624D01*
X-19139066Y-12942394D01*
X-19171000Y-12781848D01*
X-19171000Y-12618152D01*
X-19139066Y-12457606D01*
X-19076424Y-12306376D01*
X-19076423Y-12306374D01*
X-18985480Y-12170268D01*
X-18869732Y-12054520D01*
X-18733626Y-11963577D01*
X-18733624Y-11963576D01*
X-18582394Y-11900934D01*
X-18421848Y-11869000D01*
X-18258152Y-11869000D01*
X-18097606Y-11900934D01*
X-18097606Y-11900934D01*
G37*
G36*
X43680320Y-10380864D02*
G01*
X43839742Y-10446899D01*
X43983218Y-10542766D01*
X44105234Y-10664782D01*
X44201101Y-10808258D01*
X44267136Y-10967680D01*
X44300800Y-11136921D01*
X44300800Y-11309479D01*
X44267136Y-11478720D01*
X44201101Y-11638142D01*
X44105234Y-11781618D01*
X43983218Y-11903634D01*
X43839742Y-11999501D01*
X43680320Y-12065536D01*
X43595699Y-12082368D01*
X43511080Y-12099200D01*
X43338520Y-12099200D01*
X43253901Y-12082368D01*
X43169280Y-12065536D01*
X43009858Y-11999501D01*
X42866382Y-11903634D01*
X42744366Y-11781618D01*
X42648499Y-11638142D01*
X42582464Y-11478720D01*
X42548800Y-11309479D01*
X42548800Y-11136921D01*
X42582464Y-10967680D01*
X42648499Y-10808258D01*
X42744366Y-10664782D01*
X42866382Y-10542766D01*
X43009858Y-10446899D01*
X43169280Y-10380864D01*
X43338520Y-10347200D01*
X43511080Y-10347200D01*
X43680320Y-10380864D01*
X43680320Y-10380864D01*
G37*
G36*
X43680320Y-7840864D02*
G01*
X43839742Y-7906899D01*
X43983218Y-8002766D01*
X44105234Y-8124782D01*
X44201101Y-8268258D01*
X44267136Y-8427680D01*
X44300800Y-8596921D01*
X44300800Y-8769479D01*
X44267136Y-8938720D01*
X44201101Y-9098142D01*
X44105234Y-9241618D01*
X43983218Y-9363634D01*
X43839742Y-9459501D01*
X43680320Y-9525536D01*
X43595699Y-9542368D01*
X43511080Y-9559200D01*
X43338520Y-9559200D01*
X43253901Y-9542368D01*
X43169280Y-9525536D01*
X43009858Y-9459501D01*
X42866382Y-9363634D01*
X42744366Y-9241618D01*
X42648499Y-9098142D01*
X42582464Y-8938720D01*
X42548800Y-8769479D01*
X42548800Y-8596921D01*
X42582464Y-8427680D01*
X42648499Y-8268258D01*
X42744366Y-8124782D01*
X42866382Y-8002766D01*
X43009858Y-7906899D01*
X43169280Y-7840864D01*
X43338520Y-7807200D01*
X43511080Y-7807200D01*
X43680320Y-7840864D01*
X43680320Y-7840864D01*
G37*
G36*
X7964623Y-6478713D02*
G01*
X8125042Y-6527376D01*
X8211923Y-6573815D01*
X8272878Y-6606396D01*
X8402459Y-6712741D01*
X8508804Y-6842322D01*
X8508805Y-6842324D01*
X8587824Y-6990158D01*
X8636487Y-7150577D01*
X8652917Y-7317400D01*
X8636487Y-7484223D01*
X8587824Y-7644642D01*
X8516914Y-7777306D01*
X8508804Y-7792478D01*
X8402459Y-7922059D01*
X8272878Y-8028404D01*
X8272876Y-8028405D01*
X8125042Y-8107424D01*
X7964623Y-8156087D01*
X7839604Y-8168400D01*
X7755996Y-8168400D01*
X7630977Y-8156087D01*
X7470558Y-8107424D01*
X7322724Y-8028405D01*
X7322722Y-8028404D01*
X7193141Y-7922059D01*
X7086796Y-7792478D01*
X7078686Y-7777306D01*
X7007776Y-7644642D01*
X6959113Y-7484223D01*
X6942683Y-7317400D01*
X6959113Y-7150577D01*
X7007776Y-6990158D01*
X7086795Y-6842324D01*
X7086796Y-6842322D01*
X7193141Y-6712741D01*
X7322722Y-6606396D01*
X7383677Y-6573815D01*
X7470558Y-6527376D01*
X7630977Y-6478713D01*
X7755996Y-6466400D01*
X7839604Y-6466400D01*
X7964623Y-6478713D01*
X7964623Y-6478713D01*
G37*
G36*
X14441623Y-6349513D02*
G01*
X14602042Y-6398176D01*
X14729680Y-6466400D01*
X14749878Y-6477196D01*
X14879459Y-6583541D01*
X14985804Y-6713122D01*
X14985805Y-6713124D01*
X15064824Y-6860958D01*
X15113487Y-7021377D01*
X15129917Y-7188200D01*
X15113487Y-7355023D01*
X15064824Y-7515442D01*
X14995767Y-7644639D01*
X14985804Y-7663278D01*
X14879459Y-7792859D01*
X14749878Y-7899204D01*
X14749876Y-7899205D01*
X14602042Y-7978224D01*
X14441623Y-8026887D01*
X14316604Y-8039200D01*
X14232996Y-8039200D01*
X14107977Y-8026887D01*
X13947558Y-7978224D01*
X13799724Y-7899205D01*
X13799722Y-7899204D01*
X13670141Y-7792859D01*
X13563796Y-7663278D01*
X13553833Y-7644639D01*
X13484776Y-7515442D01*
X13436113Y-7355023D01*
X13419683Y-7188200D01*
X13436113Y-7021377D01*
X13484776Y-6860958D01*
X13563795Y-6713124D01*
X13563796Y-6713122D01*
X13670141Y-6583541D01*
X13799722Y-6477196D01*
X13819920Y-6466400D01*
X13947558Y-6398176D01*
X14107977Y-6349513D01*
X14232996Y-6337200D01*
X14316604Y-6337200D01*
X14441623Y-6349513D01*
X14441623Y-6349513D01*
G37*
G36*
X-5951772Y-5671703D02*
G01*
X-5796900Y-5735853D01*
X-5657519Y-5828985D01*
X-5538985Y-5947519D01*
X-5445853Y-6086900D01*
X-5381703Y-6241772D01*
X-5349000Y-6406184D01*
X-5349000Y-6573816D01*
X-5381703Y-6738228D01*
X-5445853Y-6893100D01*
X-5538985Y-7032481D01*
X-5657519Y-7151015D01*
X-5796900Y-7244147D01*
X-5951772Y-7308297D01*
X-6116184Y-7341000D01*
X-6283816Y-7341000D01*
X-6448228Y-7308297D01*
X-6603100Y-7244147D01*
X-6742481Y-7151015D01*
X-6861015Y-7032481D01*
X-6954147Y-6893100D01*
X-7018297Y-6738228D01*
X-7051000Y-6573816D01*
X-7051000Y-6406184D01*
X-7018297Y-6241772D01*
X-6954147Y-6086900D01*
X-6861015Y-5947519D01*
X-6742481Y-5828985D01*
X-6603100Y-5735853D01*
X-6448228Y-5671703D01*
X-6283816Y-5639000D01*
X-6116184Y-5639000D01*
X-5951772Y-5671703D01*
X-5951772Y-5671703D01*
G37*
G36*
X-21273177Y-5651313D02*
G01*
X-21112758Y-5699976D01*
X-21045639Y-5735852D01*
X-20964922Y-5778996D01*
X-20835341Y-5885341D01*
X-20728996Y-6014922D01*
X-20728995Y-6014924D01*
X-20649976Y-6162758D01*
X-20601313Y-6323177D01*
X-20584883Y-6490000D01*
X-20601313Y-6656823D01*
X-20649976Y-6817242D01*
X-20690523Y-6893100D01*
X-20728996Y-6965078D01*
X-20835341Y-7094659D01*
X-20964922Y-7201004D01*
X-20964924Y-7201005D01*
X-21112758Y-7280024D01*
X-21273177Y-7328687D01*
X-21398196Y-7341000D01*
X-21481804Y-7341000D01*
X-21606823Y-7328687D01*
X-21767242Y-7280024D01*
X-21915076Y-7201005D01*
X-21915078Y-7201004D01*
X-22044659Y-7094659D01*
X-22151004Y-6965078D01*
X-22189477Y-6893100D01*
X-22230024Y-6817242D01*
X-22278687Y-6656823D01*
X-22295117Y-6490000D01*
X-22278687Y-6323177D01*
X-22230024Y-6162758D01*
X-22151005Y-6014924D01*
X-22151004Y-6014922D01*
X-22044659Y-5885341D01*
X-21915078Y-5778996D01*
X-21834361Y-5735852D01*
X-21767242Y-5699976D01*
X-21606823Y-5651313D01*
X-21481804Y-5639000D01*
X-21398196Y-5639000D01*
X-21273177Y-5651313D01*
X-21273177Y-5651313D01*
G37*
G36*
X43680320Y-5300864D02*
G01*
X43839742Y-5366899D01*
X43983218Y-5462766D01*
X44105234Y-5584782D01*
X44201101Y-5728258D01*
X44267136Y-5887680D01*
X44300800Y-6056921D01*
X44300800Y-6229479D01*
X44267136Y-6398720D01*
X44201101Y-6558142D01*
X44105234Y-6701618D01*
X43983218Y-6823634D01*
X43839742Y-6919501D01*
X43680320Y-6985536D01*
X43657068Y-6990161D01*
X43511080Y-7019200D01*
X43338520Y-7019200D01*
X43192532Y-6990161D01*
X43169280Y-6985536D01*
X43009858Y-6919501D01*
X42866382Y-6823634D01*
X42744366Y-6701618D01*
X42648499Y-6558142D01*
X42582464Y-6398720D01*
X42548800Y-6229479D01*
X42548800Y-6056921D01*
X42582464Y-5887680D01*
X42648499Y-5728258D01*
X42744366Y-5584782D01*
X42866382Y-5462766D01*
X43009858Y-5366899D01*
X43169280Y-5300864D01*
X43338520Y-5267200D01*
X43511080Y-5267200D01*
X43680320Y-5300864D01*
X43680320Y-5300864D01*
G37*
G36*
X43595699Y-2744032D02*
G01*
X43680320Y-2760864D01*
X43839742Y-2826899D01*
X43983218Y-2922766D01*
X44105234Y-3044782D01*
X44201101Y-3188258D01*
X44267136Y-3347680D01*
X44300800Y-3516921D01*
X44300800Y-3689479D01*
X44267136Y-3858720D01*
X44201101Y-4018142D01*
X44105234Y-4161618D01*
X43983218Y-4283634D01*
X43839742Y-4379501D01*
X43680320Y-4445536D01*
X43595699Y-4462368D01*
X43511080Y-4479200D01*
X43338520Y-4479200D01*
X43253901Y-4462368D01*
X43169280Y-4445536D01*
X43009858Y-4379501D01*
X42866382Y-4283634D01*
X42744366Y-4161618D01*
X42648499Y-4018142D01*
X42582464Y-3858720D01*
X42548800Y-3689479D01*
X42548800Y-3516921D01*
X42582464Y-3347680D01*
X42648499Y-3188258D01*
X42744366Y-3044782D01*
X42866382Y-2922766D01*
X43009858Y-2826899D01*
X43169280Y-2760864D01*
X43253901Y-2744032D01*
X43338520Y-2727200D01*
X43511080Y-2727200D01*
X43595699Y-2744032D01*
X43595699Y-2744032D01*
G37*
G36*
X-21273177Y-651313D02*
G01*
X-21112758Y-699976D01*
X-21045639Y-735852D01*
X-20964922Y-778996D01*
X-20835341Y-885341D01*
X-20728996Y-1014922D01*
X-20728995Y-1014924D01*
X-20649976Y-1162758D01*
X-20601313Y-1323177D01*
X-20584883Y-1490000D01*
X-20601313Y-1656823D01*
X-20649976Y-1817242D01*
X-20690523Y-1893100D01*
X-20728996Y-1965078D01*
X-20835341Y-2094659D01*
X-20964922Y-2201004D01*
X-20964924Y-2201005D01*
X-21112758Y-2280024D01*
X-21273177Y-2328687D01*
X-21398196Y-2341000D01*
X-21481804Y-2341000D01*
X-21606823Y-2328687D01*
X-21767242Y-2280024D01*
X-21915076Y-2201005D01*
X-21915078Y-2201004D01*
X-22044659Y-2094659D01*
X-22151004Y-1965078D01*
X-22189477Y-1893100D01*
X-22230024Y-1817242D01*
X-22278687Y-1656823D01*
X-22295117Y-1490000D01*
X-22278687Y-1323177D01*
X-22230024Y-1162758D01*
X-22151005Y-1014924D01*
X-22151004Y-1014922D01*
X-22044659Y-885341D01*
X-21915078Y-778996D01*
X-21834361Y-735852D01*
X-21767242Y-699976D01*
X-21606823Y-651313D01*
X-21481804Y-639000D01*
X-21398196Y-639000D01*
X-21273177Y-651313D01*
X-21273177Y-651313D01*
G37*
G36*
X-5951772Y-671703D02*
G01*
X-5796900Y-735853D01*
X-5657519Y-828985D01*
X-5538985Y-947519D01*
X-5445853Y-1086900D01*
X-5381703Y-1241772D01*
X-5349000Y-1406184D01*
X-5349000Y-1573816D01*
X-5381703Y-1738228D01*
X-5445853Y-1893100D01*
X-5538985Y-2032481D01*
X-5657519Y-2151015D01*
X-5796900Y-2244147D01*
X-5951772Y-2308297D01*
X-6116184Y-2341000D01*
X-6283816Y-2341000D01*
X-6448228Y-2308297D01*
X-6603100Y-2244147D01*
X-6742481Y-2151015D01*
X-6861015Y-2032481D01*
X-6954147Y-1893100D01*
X-7018297Y-1738228D01*
X-7051000Y-1573816D01*
X-7051000Y-1406184D01*
X-7018297Y-1241772D01*
X-6954147Y-1086900D01*
X-6861015Y-947519D01*
X-6742481Y-828985D01*
X-6603100Y-735853D01*
X-6448228Y-671703D01*
X-6283816Y-639000D01*
X-6116184Y-639000D01*
X-5951772Y-671703D01*
X-5951772Y-671703D01*
G37*
G36*
X43680320Y-220864D02*
G01*
X43839742Y-286899D01*
X43983218Y-382766D01*
X44105234Y-504782D01*
X44201101Y-648258D01*
X44267136Y-807680D01*
X44300800Y-976921D01*
X44300800Y-1149479D01*
X44267136Y-1318720D01*
X44201101Y-1478142D01*
X44105234Y-1621618D01*
X43983218Y-1743634D01*
X43839742Y-1839501D01*
X43680320Y-1905536D01*
X43511080Y-1939200D01*
X43338520Y-1939200D01*
X43169280Y-1905536D01*
X43009858Y-1839501D01*
X42866382Y-1743634D01*
X42744366Y-1621618D01*
X42648499Y-1478142D01*
X42582464Y-1318720D01*
X42548800Y-1149479D01*
X42548800Y-976921D01*
X42582464Y-807680D01*
X42648499Y-648258D01*
X42744366Y-504782D01*
X42866382Y-382766D01*
X43009858Y-286899D01*
X43169280Y-220864D01*
X43338520Y-187200D01*
X43511080Y-187200D01*
X43680320Y-220864D01*
X43680320Y-220864D01*
G37*
G36*
X-5951772Y4828297D02*
G01*
X-5796900Y4764147D01*
X-5657519Y4671015D01*
X-5538985Y4552481D01*
X-5445853Y4413100D01*
X-5381703Y4258228D01*
X-5349000Y4093816D01*
X-5349000Y3926184D01*
X-5381703Y3761772D01*
X-5445853Y3606900D01*
X-5538985Y3467519D01*
X-5657519Y3348985D01*
X-5796900Y3255853D01*
X-5951772Y3191703D01*
X-6116184Y3159000D01*
X-6283816Y3159000D01*
X-6448228Y3191703D01*
X-6603100Y3255853D01*
X-6742481Y3348985D01*
X-6861015Y3467519D01*
X-6954147Y3606900D01*
X-7018297Y3761772D01*
X-7051000Y3926184D01*
X-7051000Y4093816D01*
X-7018297Y4258228D01*
X-6954147Y4413100D01*
X-6861015Y4552481D01*
X-6742481Y4671015D01*
X-6603100Y4764147D01*
X-6448228Y4828297D01*
X-6283816Y4861000D01*
X-6116184Y4861000D01*
X-5951772Y4828297D01*
X-5951772Y4828297D01*
G37*
G36*
X-21273177Y4848687D02*
G01*
X-21112758Y4800024D01*
X-21045639Y4764148D01*
X-20964922Y4721004D01*
X-20835341Y4614659D01*
X-20728996Y4485078D01*
X-20728995Y4485076D01*
X-20649976Y4337242D01*
X-20601313Y4176823D01*
X-20584883Y4010000D01*
X-20601313Y3843177D01*
X-20649976Y3682758D01*
X-20690523Y3606900D01*
X-20728996Y3534922D01*
X-20835341Y3405341D01*
X-20964922Y3298996D01*
X-20964924Y3298995D01*
X-21112758Y3219976D01*
X-21273177Y3171313D01*
X-21398196Y3159000D01*
X-21481804Y3159000D01*
X-21606823Y3171313D01*
X-21767242Y3219976D01*
X-21915076Y3298995D01*
X-21915078Y3298996D01*
X-22044659Y3405341D01*
X-22151004Y3534922D01*
X-22189477Y3606900D01*
X-22230024Y3682758D01*
X-22278687Y3843177D01*
X-22295117Y4010000D01*
X-22278687Y4176823D01*
X-22230024Y4337242D01*
X-22151005Y4485076D01*
X-22151004Y4485078D01*
X-22044659Y4614659D01*
X-21915078Y4721004D01*
X-21834361Y4764148D01*
X-21767242Y4800024D01*
X-21606823Y4848687D01*
X-21481804Y4861000D01*
X-21398196Y4861000D01*
X-21273177Y4848687D01*
X-21273177Y4848687D01*
G37*
G36*
X-193599Y7367403D02*
G01*
X-154895Y7359704D01*
X-122860Y7346435D01*
X-45520Y7314400D01*
X52915Y7248627D01*
X136628Y7164914D01*
X200867Y7068774D01*
X216413Y7049832D01*
X235355Y7034287D01*
X256965Y7022736D01*
X280414Y7015623D01*
X304800Y7013221D01*
X329186Y7015623D01*
X352635Y7022736D01*
X374246Y7034287D01*
X393188Y7049833D01*
X408733Y7068774D01*
X472972Y7164914D01*
X556685Y7248627D01*
X655120Y7314400D01*
X732460Y7346435D01*
X764495Y7359704D01*
X803199Y7367403D01*
X880605Y7382800D01*
X998995Y7382800D01*
X1076401Y7367403D01*
X1115105Y7359704D01*
X1147140Y7346435D01*
X1224480Y7314400D01*
X1322915Y7248627D01*
X1406628Y7164914D01*
X1470867Y7068774D01*
X1486413Y7049832D01*
X1505355Y7034287D01*
X1526965Y7022736D01*
X1550414Y7015623D01*
X1574800Y7013221D01*
X1599186Y7015623D01*
X1622635Y7022736D01*
X1644246Y7034287D01*
X1663188Y7049833D01*
X1678733Y7068774D01*
X1742972Y7164914D01*
X1826685Y7248627D01*
X1925120Y7314400D01*
X2002460Y7346435D01*
X2034495Y7359704D01*
X2073199Y7367403D01*
X2150605Y7382800D01*
X2268995Y7382800D01*
X2346401Y7367403D01*
X2385105Y7359704D01*
X2417140Y7346435D01*
X2494480Y7314400D01*
X2592915Y7248627D01*
X2676628Y7164914D01*
X2740867Y7068774D01*
X2756413Y7049832D01*
X2775355Y7034287D01*
X2796965Y7022736D01*
X2820414Y7015623D01*
X2844800Y7013221D01*
X2869186Y7015623D01*
X2892635Y7022736D01*
X2914246Y7034287D01*
X2933188Y7049833D01*
X2948733Y7068774D01*
X3012972Y7164914D01*
X3096685Y7248627D01*
X3195120Y7314400D01*
X3272460Y7346435D01*
X3304495Y7359704D01*
X3343199Y7367403D01*
X3420605Y7382800D01*
X3538995Y7382800D01*
X3616401Y7367403D01*
X3655105Y7359704D01*
X3687140Y7346435D01*
X3764480Y7314400D01*
X3862915Y7248627D01*
X3946627Y7164915D01*
X4012400Y7066480D01*
X4057704Y6957104D01*
X4080800Y6840995D01*
X4080800Y6722605D01*
X4057704Y6606496D01*
X4012400Y6497120D01*
X3946627Y6398685D01*
X3862915Y6314973D01*
X3764480Y6249200D01*
X3687140Y6217165D01*
X3655105Y6203896D01*
X3616401Y6196197D01*
X3538995Y6180800D01*
X3420605Y6180800D01*
X3343199Y6196197D01*
X3304495Y6203896D01*
X3272460Y6217165D01*
X3195120Y6249200D01*
X3096685Y6314973D01*
X3012972Y6398686D01*
X2948733Y6494826D01*
X2933187Y6513768D01*
X2914245Y6529313D01*
X2892635Y6540864D01*
X2869186Y6547977D01*
X2844800Y6550379D01*
X2820414Y6547977D01*
X2796965Y6540864D01*
X2775354Y6529313D01*
X2756412Y6513767D01*
X2740867Y6494826D01*
X2676628Y6398686D01*
X2592915Y6314973D01*
X2494480Y6249200D01*
X2417140Y6217165D01*
X2385105Y6203896D01*
X2346401Y6196197D01*
X2268995Y6180800D01*
X2150605Y6180800D01*
X2073199Y6196197D01*
X2034495Y6203896D01*
X2002460Y6217165D01*
X1925120Y6249200D01*
X1826685Y6314973D01*
X1742972Y6398686D01*
X1678733Y6494826D01*
X1663187Y6513768D01*
X1644245Y6529313D01*
X1622635Y6540864D01*
X1599186Y6547977D01*
X1574800Y6550379D01*
X1550414Y6547977D01*
X1526965Y6540864D01*
X1505354Y6529313D01*
X1486412Y6513767D01*
X1470867Y6494826D01*
X1406628Y6398686D01*
X1322915Y6314973D01*
X1224480Y6249200D01*
X1147140Y6217165D01*
X1115105Y6203896D01*
X1076401Y6196197D01*
X998995Y6180800D01*
X880605Y6180800D01*
X803199Y6196197D01*
X764495Y6203896D01*
X732460Y6217165D01*
X655120Y6249200D01*
X556685Y6314973D01*
X472972Y6398686D01*
X408733Y6494826D01*
X393187Y6513768D01*
X374245Y6529313D01*
X352635Y6540864D01*
X329186Y6547977D01*
X304800Y6550379D01*
X280414Y6547977D01*
X256965Y6540864D01*
X235354Y6529313D01*
X216412Y6513767D01*
X200867Y6494826D01*
X136628Y6398686D01*
X52915Y6314973D01*
X-45520Y6249200D01*
X-122860Y6217165D01*
X-154895Y6203896D01*
X-193599Y6196197D01*
X-271005Y6180800D01*
X-389395Y6180800D01*
X-466801Y6196197D01*
X-505505Y6203896D01*
X-537540Y6217165D01*
X-614880Y6249200D01*
X-713315Y6314973D01*
X-797027Y6398685D01*
X-862800Y6497120D01*
X-908104Y6606496D01*
X-931200Y6722605D01*
X-931200Y6840995D01*
X-908104Y6957104D01*
X-862800Y7066480D01*
X-797027Y7164915D01*
X-713315Y7248627D01*
X-614880Y7314400D01*
X-537540Y7346435D01*
X-505505Y7359704D01*
X-466801Y7367403D01*
X-389395Y7382800D01*
X-271005Y7382800D01*
X-193599Y7367403D01*
X-193599Y7367403D01*
G37*
G36*
X8046028Y8740897D02*
G01*
X8200900Y8676747D01*
X8340281Y8583615D01*
X8458815Y8465081D01*
X8551947Y8325700D01*
X8616097Y8170828D01*
X8648800Y8006416D01*
X8648800Y7838784D01*
X8616097Y7674372D01*
X8551947Y7519500D01*
X8458815Y7380119D01*
X8340281Y7261585D01*
X8200900Y7168453D01*
X8046028Y7104303D01*
X7881616Y7071600D01*
X7713984Y7071600D01*
X7549572Y7104303D01*
X7394700Y7168453D01*
X7255319Y7261585D01*
X7136785Y7380119D01*
X7043653Y7519500D01*
X6979503Y7674372D01*
X6946800Y7838784D01*
X6946800Y8006416D01*
X6979503Y8170828D01*
X7043653Y8325700D01*
X7136785Y8465081D01*
X7255319Y8583615D01*
X7394700Y8676747D01*
X7549572Y8740897D01*
X7713984Y8773600D01*
X7881616Y8773600D01*
X8046028Y8740897D01*
X8046028Y8740897D01*
G37*
G36*
X14523028Y8870097D02*
G01*
X14677900Y8805947D01*
X14817281Y8712815D01*
X14935815Y8594281D01*
X15028947Y8454900D01*
X15093097Y8300028D01*
X15125800Y8135616D01*
X15125800Y7967984D01*
X15093097Y7803572D01*
X15028947Y7648700D01*
X14935815Y7509319D01*
X14817281Y7390785D01*
X14677900Y7297653D01*
X14523028Y7233503D01*
X14358616Y7200800D01*
X14190984Y7200800D01*
X14026572Y7233503D01*
X13871700Y7297653D01*
X13732319Y7390785D01*
X13613785Y7509319D01*
X13520653Y7648700D01*
X13456503Y7803572D01*
X13423800Y7967984D01*
X13423800Y8135616D01*
X13456503Y8300028D01*
X13520653Y8454900D01*
X13613785Y8594281D01*
X13732319Y8712815D01*
X13871700Y8805947D01*
X14026572Y8870097D01*
X14190984Y8902800D01*
X14358616Y8902800D01*
X14523028Y8870097D01*
X14523028Y8870097D01*
G37*
G36*
X-25717606Y13499066D02*
G01*
X-25566376Y13436424D01*
X-25566374Y13436423D01*
X-25430268Y13345480D01*
X-25314520Y13229732D01*
X-25223577Y13093626D01*
X-25223576Y13093624D01*
X-25160934Y12942394D01*
X-25129000Y12781848D01*
X-25129000Y12618152D01*
X-25160934Y12457606D01*
X-25223576Y12306376D01*
X-25223577Y12306374D01*
X-25314520Y12170268D01*
X-25430268Y12054520D01*
X-25566374Y11963577D01*
X-25566375Y11963576D01*
X-25566376Y11963576D01*
X-25717606Y11900934D01*
X-25878152Y11869000D01*
X-26041848Y11869000D01*
X-26202394Y11900934D01*
X-26353624Y11963576D01*
X-26353625Y11963576D01*
X-26353626Y11963577D01*
X-26489732Y12054520D01*
X-26605480Y12170268D01*
X-26696423Y12306374D01*
X-26696424Y12306376D01*
X-26759066Y12457606D01*
X-26791000Y12618152D01*
X-26791000Y12781848D01*
X-26759066Y12942394D01*
X-26696424Y13093624D01*
X-26696423Y13093626D01*
X-26605480Y13229732D01*
X-26489732Y13345480D01*
X-26353626Y13436423D01*
X-26353624Y13436424D01*
X-26202394Y13499066D01*
X-26041848Y13531000D01*
X-25878152Y13531000D01*
X-25717606Y13499066D01*
X-25717606Y13499066D01*
G37*
G36*
X14922394Y13499066D02*
G01*
X15073624Y13436424D01*
X15073626Y13436423D01*
X15209732Y13345480D01*
X15325480Y13229732D01*
X15416423Y13093626D01*
X15416424Y13093624D01*
X15479066Y12942394D01*
X15511000Y12781848D01*
X15511000Y12618152D01*
X15479066Y12457606D01*
X15416424Y12306376D01*
X15416423Y12306374D01*
X15325480Y12170268D01*
X15209732Y12054520D01*
X15073626Y11963577D01*
X15073625Y11963576D01*
X15073624Y11963576D01*
X14922394Y11900934D01*
X14761848Y11869000D01*
X14598152Y11869000D01*
X14437606Y11900934D01*
X14286376Y11963576D01*
X14286375Y11963576D01*
X14286374Y11963577D01*
X14150268Y12054520D01*
X14034520Y12170268D01*
X13943577Y12306374D01*
X13943576Y12306376D01*
X13880934Y12457606D01*
X13849000Y12618152D01*
X13849000Y12781848D01*
X13880934Y12942394D01*
X13943576Y13093624D01*
X13943577Y13093626D01*
X14034520Y13229732D01*
X14150268Y13345480D01*
X14286374Y13436423D01*
X14286376Y13436424D01*
X14437606Y13499066D01*
X14598152Y13531000D01*
X14761848Y13531000D01*
X14922394Y13499066D01*
X14922394Y13499066D01*
G37*
G36*
X12382394Y13499066D02*
G01*
X12533624Y13436424D01*
X12533626Y13436423D01*
X12669732Y13345480D01*
X12785480Y13229732D01*
X12876423Y13093626D01*
X12876424Y13093624D01*
X12939066Y12942394D01*
X12971000Y12781848D01*
X12971000Y12618152D01*
X12939066Y12457606D01*
X12876424Y12306376D01*
X12876423Y12306374D01*
X12785480Y12170268D01*
X12669732Y12054520D01*
X12533626Y11963577D01*
X12533625Y11963576D01*
X12533624Y11963576D01*
X12382394Y11900934D01*
X12221848Y11869000D01*
X12058152Y11869000D01*
X11897606Y11900934D01*
X11746376Y11963576D01*
X11746375Y11963576D01*
X11746374Y11963577D01*
X11610268Y12054520D01*
X11494520Y12170268D01*
X11403577Y12306374D01*
X11403576Y12306376D01*
X11340934Y12457606D01*
X11309000Y12618152D01*
X11309000Y12781848D01*
X11340934Y12942394D01*
X11403576Y13093624D01*
X11403577Y13093626D01*
X11494520Y13229732D01*
X11610268Y13345480D01*
X11746374Y13436423D01*
X11746376Y13436424D01*
X11897606Y13499066D01*
X12058152Y13531000D01*
X12221848Y13531000D01*
X12382394Y13499066D01*
X12382394Y13499066D01*
G37*
G36*
X9842394Y13499066D02*
G01*
X9993624Y13436424D01*
X9993626Y13436423D01*
X10129732Y13345480D01*
X10245480Y13229732D01*
X10336423Y13093626D01*
X10336424Y13093624D01*
X10399066Y12942394D01*
X10431000Y12781848D01*
X10431000Y12618152D01*
X10399066Y12457606D01*
X10336424Y12306376D01*
X10336423Y12306374D01*
X10245480Y12170268D01*
X10129732Y12054520D01*
X9993626Y11963577D01*
X9993625Y11963576D01*
X9993624Y11963576D01*
X9842394Y11900934D01*
X9681848Y11869000D01*
X9518152Y11869000D01*
X9357606Y11900934D01*
X9206376Y11963576D01*
X9206375Y11963576D01*
X9206374Y11963577D01*
X9070268Y12054520D01*
X8954520Y12170268D01*
X8863577Y12306374D01*
X8863576Y12306376D01*
X8800934Y12457606D01*
X8769000Y12618152D01*
X8769000Y12781848D01*
X8800934Y12942394D01*
X8863576Y13093624D01*
X8863577Y13093626D01*
X8954520Y13229732D01*
X9070268Y13345480D01*
X9206374Y13436423D01*
X9206376Y13436424D01*
X9357606Y13499066D01*
X9518152Y13531000D01*
X9681848Y13531000D01*
X9842394Y13499066D01*
X9842394Y13499066D01*
G37*
G36*
X7302394Y13499066D02*
G01*
X7453624Y13436424D01*
X7453626Y13436423D01*
X7589732Y13345480D01*
X7705480Y13229732D01*
X7796423Y13093626D01*
X7796424Y13093624D01*
X7859066Y12942394D01*
X7891000Y12781848D01*
X7891000Y12618152D01*
X7859066Y12457606D01*
X7796424Y12306376D01*
X7796423Y12306374D01*
X7705480Y12170268D01*
X7589732Y12054520D01*
X7453626Y11963577D01*
X7453625Y11963576D01*
X7453624Y11963576D01*
X7302394Y11900934D01*
X7141848Y11869000D01*
X6978152Y11869000D01*
X6817606Y11900934D01*
X6666376Y11963576D01*
X6666375Y11963576D01*
X6666374Y11963577D01*
X6530268Y12054520D01*
X6414520Y12170268D01*
X6323577Y12306374D01*
X6323576Y12306376D01*
X6260934Y12457606D01*
X6229000Y12618152D01*
X6229000Y12781848D01*
X6260934Y12942394D01*
X6323576Y13093624D01*
X6323577Y13093626D01*
X6414520Y13229732D01*
X6530268Y13345480D01*
X6666374Y13436423D01*
X6666376Y13436424D01*
X6817606Y13499066D01*
X6978152Y13531000D01*
X7141848Y13531000D01*
X7302394Y13499066D01*
X7302394Y13499066D01*
G37*
G36*
X-15557606Y13499066D02*
G01*
X-15406376Y13436424D01*
X-15406374Y13436423D01*
X-15270268Y13345480D01*
X-15154520Y13229732D01*
X-15063577Y13093626D01*
X-15063576Y13093624D01*
X-15000934Y12942394D01*
X-14969000Y12781848D01*
X-14969000Y12618152D01*
X-15000934Y12457606D01*
X-15063576Y12306376D01*
X-15063577Y12306374D01*
X-15154520Y12170268D01*
X-15270268Y12054520D01*
X-15406374Y11963577D01*
X-15406375Y11963576D01*
X-15406376Y11963576D01*
X-15557606Y11900934D01*
X-15718152Y11869000D01*
X-15881848Y11869000D01*
X-16042394Y11900934D01*
X-16193624Y11963576D01*
X-16193625Y11963576D01*
X-16193626Y11963577D01*
X-16329732Y12054520D01*
X-16445480Y12170268D01*
X-16536423Y12306374D01*
X-16536424Y12306376D01*
X-16599066Y12457606D01*
X-16631000Y12618152D01*
X-16631000Y12781848D01*
X-16599066Y12942394D01*
X-16536424Y13093624D01*
X-16536423Y13093626D01*
X-16445480Y13229732D01*
X-16329732Y13345480D01*
X-16193626Y13436423D01*
X-16193624Y13436424D01*
X-16042394Y13499066D01*
X-15881848Y13531000D01*
X-15718152Y13531000D01*
X-15557606Y13499066D01*
X-15557606Y13499066D01*
G37*
G36*
X4762394Y13499066D02*
G01*
X4913624Y13436424D01*
X4913626Y13436423D01*
X5049732Y13345480D01*
X5165480Y13229732D01*
X5256423Y13093626D01*
X5256424Y13093624D01*
X5319066Y12942394D01*
X5351000Y12781848D01*
X5351000Y12618152D01*
X5319066Y12457606D01*
X5256424Y12306376D01*
X5256423Y12306374D01*
X5165480Y12170268D01*
X5049732Y12054520D01*
X4913626Y11963577D01*
X4913625Y11963576D01*
X4913624Y11963576D01*
X4762394Y11900934D01*
X4601848Y11869000D01*
X4438152Y11869000D01*
X4277606Y11900934D01*
X4126376Y11963576D01*
X4126375Y11963576D01*
X4126374Y11963577D01*
X3990268Y12054520D01*
X3874520Y12170268D01*
X3783577Y12306374D01*
X3783576Y12306376D01*
X3720934Y12457606D01*
X3689000Y12618152D01*
X3689000Y12781848D01*
X3720934Y12942394D01*
X3783576Y13093624D01*
X3783577Y13093626D01*
X3874520Y13229732D01*
X3990268Y13345480D01*
X4126374Y13436423D01*
X4126376Y13436424D01*
X4277606Y13499066D01*
X4438152Y13531000D01*
X4601848Y13531000D01*
X4762394Y13499066D01*
X4762394Y13499066D01*
G37*
G36*
X2222394Y13499066D02*
G01*
X2373624Y13436424D01*
X2373626Y13436423D01*
X2509732Y13345480D01*
X2625480Y13229732D01*
X2716423Y13093626D01*
X2716424Y13093624D01*
X2779066Y12942394D01*
X2811000Y12781848D01*
X2811000Y12618152D01*
X2779066Y12457606D01*
X2716424Y12306376D01*
X2716423Y12306374D01*
X2625480Y12170268D01*
X2509732Y12054520D01*
X2373626Y11963577D01*
X2373625Y11963576D01*
X2373624Y11963576D01*
X2222394Y11900934D01*
X2061848Y11869000D01*
X1898152Y11869000D01*
X1737606Y11900934D01*
X1586376Y11963576D01*
X1586375Y11963576D01*
X1586374Y11963577D01*
X1450268Y12054520D01*
X1334520Y12170268D01*
X1243577Y12306374D01*
X1243576Y12306376D01*
X1180934Y12457606D01*
X1149000Y12618152D01*
X1149000Y12781848D01*
X1180934Y12942394D01*
X1243576Y13093624D01*
X1243577Y13093626D01*
X1334520Y13229732D01*
X1450268Y13345480D01*
X1586374Y13436423D01*
X1586376Y13436424D01*
X1737606Y13499066D01*
X1898152Y13531000D01*
X2061848Y13531000D01*
X2222394Y13499066D01*
X2222394Y13499066D01*
G37*
G36*
X17462394Y13499066D02*
G01*
X17613624Y13436424D01*
X17613626Y13436423D01*
X17749732Y13345480D01*
X17865480Y13229732D01*
X17956423Y13093626D01*
X17956424Y13093624D01*
X18019066Y12942394D01*
X18051000Y12781848D01*
X18051000Y12618152D01*
X18019066Y12457606D01*
X17956424Y12306376D01*
X17956423Y12306374D01*
X17865480Y12170268D01*
X17749732Y12054520D01*
X17613626Y11963577D01*
X17613625Y11963576D01*
X17613624Y11963576D01*
X17462394Y11900934D01*
X17301848Y11869000D01*
X17138152Y11869000D01*
X16977606Y11900934D01*
X16826376Y11963576D01*
X16826375Y11963576D01*
X16826374Y11963577D01*
X16690268Y12054520D01*
X16574520Y12170268D01*
X16483577Y12306374D01*
X16483576Y12306376D01*
X16420934Y12457606D01*
X16389000Y12618152D01*
X16389000Y12781848D01*
X16420934Y12942394D01*
X16483576Y13093624D01*
X16483577Y13093626D01*
X16574520Y13229732D01*
X16690268Y13345480D01*
X16826374Y13436423D01*
X16826376Y13436424D01*
X16977606Y13499066D01*
X17138152Y13531000D01*
X17301848Y13531000D01*
X17462394Y13499066D01*
X17462394Y13499066D01*
G37*
G36*
X-2857606Y13499066D02*
G01*
X-2706376Y13436424D01*
X-2706374Y13436423D01*
X-2570268Y13345480D01*
X-2454520Y13229732D01*
X-2363577Y13093626D01*
X-2363576Y13093624D01*
X-2300934Y12942394D01*
X-2269000Y12781848D01*
X-2269000Y12618152D01*
X-2300934Y12457606D01*
X-2363576Y12306376D01*
X-2363577Y12306374D01*
X-2454520Y12170268D01*
X-2570268Y12054520D01*
X-2706374Y11963577D01*
X-2706375Y11963576D01*
X-2706376Y11963576D01*
X-2857606Y11900934D01*
X-3018152Y11869000D01*
X-3181848Y11869000D01*
X-3342394Y11900934D01*
X-3493624Y11963576D01*
X-3493625Y11963576D01*
X-3493626Y11963577D01*
X-3629732Y12054520D01*
X-3745480Y12170268D01*
X-3836423Y12306374D01*
X-3836424Y12306376D01*
X-3899066Y12457606D01*
X-3931000Y12618152D01*
X-3931000Y12781848D01*
X-3899066Y12942394D01*
X-3836424Y13093624D01*
X-3836423Y13093626D01*
X-3745480Y13229732D01*
X-3629732Y13345480D01*
X-3493626Y13436423D01*
X-3493624Y13436424D01*
X-3342394Y13499066D01*
X-3181848Y13531000D01*
X-3018152Y13531000D01*
X-2857606Y13499066D01*
X-2857606Y13499066D01*
G37*
G36*
X-5397606Y13499066D02*
G01*
X-5246376Y13436424D01*
X-5246374Y13436423D01*
X-5110268Y13345480D01*
X-4994520Y13229732D01*
X-4903577Y13093626D01*
X-4903576Y13093624D01*
X-4840934Y12942394D01*
X-4809000Y12781848D01*
X-4809000Y12618152D01*
X-4840934Y12457606D01*
X-4903576Y12306376D01*
X-4903577Y12306374D01*
X-4994520Y12170268D01*
X-5110268Y12054520D01*
X-5246374Y11963577D01*
X-5246375Y11963576D01*
X-5246376Y11963576D01*
X-5397606Y11900934D01*
X-5558152Y11869000D01*
X-5721848Y11869000D01*
X-5882394Y11900934D01*
X-6033624Y11963576D01*
X-6033625Y11963576D01*
X-6033626Y11963577D01*
X-6169732Y12054520D01*
X-6285480Y12170268D01*
X-6376423Y12306374D01*
X-6376424Y12306376D01*
X-6439066Y12457606D01*
X-6471000Y12618152D01*
X-6471000Y12781848D01*
X-6439066Y12942394D01*
X-6376424Y13093624D01*
X-6376423Y13093626D01*
X-6285480Y13229732D01*
X-6169732Y13345480D01*
X-6033626Y13436423D01*
X-6033624Y13436424D01*
X-5882394Y13499066D01*
X-5721848Y13531000D01*
X-5558152Y13531000D01*
X-5397606Y13499066D01*
X-5397606Y13499066D01*
G37*
G36*
X-23177606Y13499066D02*
G01*
X-23026376Y13436424D01*
X-23026374Y13436423D01*
X-22890268Y13345480D01*
X-22774520Y13229732D01*
X-22683577Y13093626D01*
X-22683576Y13093624D01*
X-22620934Y12942394D01*
X-22589000Y12781848D01*
X-22589000Y12618152D01*
X-22620934Y12457606D01*
X-22683576Y12306376D01*
X-22683577Y12306374D01*
X-22774520Y12170268D01*
X-22890268Y12054520D01*
X-23026374Y11963577D01*
X-23026375Y11963576D01*
X-23026376Y11963576D01*
X-23177606Y11900934D01*
X-23338152Y11869000D01*
X-23501848Y11869000D01*
X-23662394Y11900934D01*
X-23813624Y11963576D01*
X-23813625Y11963576D01*
X-23813626Y11963577D01*
X-23949732Y12054520D01*
X-24065480Y12170268D01*
X-24156423Y12306374D01*
X-24156424Y12306376D01*
X-24219066Y12457606D01*
X-24251000Y12618152D01*
X-24251000Y12781848D01*
X-24219066Y12942394D01*
X-24156424Y13093624D01*
X-24156423Y13093626D01*
X-24065480Y13229732D01*
X-23949732Y13345480D01*
X-23813626Y13436423D01*
X-23813624Y13436424D01*
X-23662394Y13499066D01*
X-23501848Y13531000D01*
X-23338152Y13531000D01*
X-23177606Y13499066D01*
X-23177606Y13499066D01*
G37*
G36*
X-20637606Y13499066D02*
G01*
X-20486376Y13436424D01*
X-20486374Y13436423D01*
X-20350268Y13345480D01*
X-20234520Y13229732D01*
X-20143577Y13093626D01*
X-20143576Y13093624D01*
X-20080934Y12942394D01*
X-20049000Y12781848D01*
X-20049000Y12618152D01*
X-20080934Y12457606D01*
X-20143576Y12306376D01*
X-20143577Y12306374D01*
X-20234520Y12170268D01*
X-20350268Y12054520D01*
X-20486374Y11963577D01*
X-20486375Y11963576D01*
X-20486376Y11963576D01*
X-20637606Y11900934D01*
X-20798152Y11869000D01*
X-20961848Y11869000D01*
X-21122394Y11900934D01*
X-21273624Y11963576D01*
X-21273625Y11963576D01*
X-21273626Y11963577D01*
X-21409732Y12054520D01*
X-21525480Y12170268D01*
X-21616423Y12306374D01*
X-21616424Y12306376D01*
X-21679066Y12457606D01*
X-21711000Y12618152D01*
X-21711000Y12781848D01*
X-21679066Y12942394D01*
X-21616424Y13093624D01*
X-21616423Y13093626D01*
X-21525480Y13229732D01*
X-21409732Y13345480D01*
X-21273626Y13436423D01*
X-21273624Y13436424D01*
X-21122394Y13499066D01*
X-20961848Y13531000D01*
X-20798152Y13531000D01*
X-20637606Y13499066D01*
X-20637606Y13499066D01*
G37*
G36*
X-18097606Y13499066D02*
G01*
X-17946376Y13436424D01*
X-17946374Y13436423D01*
X-17810268Y13345480D01*
X-17694520Y13229732D01*
X-17603577Y13093626D01*
X-17603576Y13093624D01*
X-17540934Y12942394D01*
X-17509000Y12781848D01*
X-17509000Y12618152D01*
X-17540934Y12457606D01*
X-17603576Y12306376D01*
X-17603577Y12306374D01*
X-17694520Y12170268D01*
X-17810268Y12054520D01*
X-17946374Y11963577D01*
X-17946375Y11963576D01*
X-17946376Y11963576D01*
X-18097606Y11900934D01*
X-18258152Y11869000D01*
X-18421848Y11869000D01*
X-18582394Y11900934D01*
X-18733624Y11963576D01*
X-18733625Y11963576D01*
X-18733626Y11963577D01*
X-18869732Y12054520D01*
X-18985480Y12170268D01*
X-19076423Y12306374D01*
X-19076424Y12306376D01*
X-19139066Y12457606D01*
X-19171000Y12618152D01*
X-19171000Y12781848D01*
X-19139066Y12942394D01*
X-19076424Y13093624D01*
X-19076423Y13093626D01*
X-18985480Y13229732D01*
X-18869732Y13345480D01*
X-18733626Y13436423D01*
X-18733624Y13436424D01*
X-18582394Y13499066D01*
X-18421848Y13531000D01*
X-18258152Y13531000D01*
X-18097606Y13499066D01*
X-18097606Y13499066D01*
G37*
G36*
X-13017606Y13499066D02*
G01*
X-12866376Y13436424D01*
X-12866374Y13436423D01*
X-12730268Y13345480D01*
X-12614520Y13229732D01*
X-12523577Y13093626D01*
X-12523576Y13093624D01*
X-12460934Y12942394D01*
X-12429000Y12781848D01*
X-12429000Y12618152D01*
X-12460934Y12457606D01*
X-12523576Y12306376D01*
X-12523577Y12306374D01*
X-12614520Y12170268D01*
X-12730268Y12054520D01*
X-12866374Y11963577D01*
X-12866375Y11963576D01*
X-12866376Y11963576D01*
X-13017606Y11900934D01*
X-13178152Y11869000D01*
X-13341848Y11869000D01*
X-13502394Y11900934D01*
X-13653624Y11963576D01*
X-13653625Y11963576D01*
X-13653626Y11963577D01*
X-13789732Y12054520D01*
X-13905480Y12170268D01*
X-13996423Y12306374D01*
X-13996424Y12306376D01*
X-14059066Y12457606D01*
X-14091000Y12618152D01*
X-14091000Y12781848D01*
X-14059066Y12942394D01*
X-13996424Y13093624D01*
X-13996423Y13093626D01*
X-13905480Y13229732D01*
X-13789732Y13345480D01*
X-13653626Y13436423D01*
X-13653624Y13436424D01*
X-13502394Y13499066D01*
X-13341848Y13531000D01*
X-13178152Y13531000D01*
X-13017606Y13499066D01*
X-13017606Y13499066D01*
G37*
G36*
X-10477606Y13499066D02*
G01*
X-10326376Y13436424D01*
X-10326374Y13436423D01*
X-10190268Y13345480D01*
X-10074520Y13229732D01*
X-9983577Y13093626D01*
X-9983576Y13093624D01*
X-9920934Y12942394D01*
X-9889000Y12781848D01*
X-9889000Y12618152D01*
X-9920934Y12457606D01*
X-9983576Y12306376D01*
X-9983577Y12306374D01*
X-10074520Y12170268D01*
X-10190268Y12054520D01*
X-10326374Y11963577D01*
X-10326375Y11963576D01*
X-10326376Y11963576D01*
X-10477606Y11900934D01*
X-10638152Y11869000D01*
X-10801848Y11869000D01*
X-10962394Y11900934D01*
X-11113624Y11963576D01*
X-11113625Y11963576D01*
X-11113626Y11963577D01*
X-11249732Y12054520D01*
X-11365480Y12170268D01*
X-11456423Y12306374D01*
X-11456424Y12306376D01*
X-11519066Y12457606D01*
X-11551000Y12618152D01*
X-11551000Y12781848D01*
X-11519066Y12942394D01*
X-11456424Y13093624D01*
X-11456423Y13093626D01*
X-11365480Y13229732D01*
X-11249732Y13345480D01*
X-11113626Y13436423D01*
X-11113624Y13436424D01*
X-10962394Y13499066D01*
X-10801848Y13531000D01*
X-10638152Y13531000D01*
X-10477606Y13499066D01*
X-10477606Y13499066D01*
G37*
G36*
X-317606Y13499066D02*
G01*
X-166376Y13436424D01*
X-166374Y13436423D01*
X-30268Y13345480D01*
X85480Y13229732D01*
X176423Y13093626D01*
X176424Y13093624D01*
X239066Y12942394D01*
X271000Y12781848D01*
X271000Y12618152D01*
X239066Y12457606D01*
X176424Y12306376D01*
X176423Y12306374D01*
X85480Y12170268D01*
X-30268Y12054520D01*
X-166374Y11963577D01*
X-166375Y11963576D01*
X-166376Y11963576D01*
X-317606Y11900934D01*
X-478152Y11869000D01*
X-641848Y11869000D01*
X-802394Y11900934D01*
X-953624Y11963576D01*
X-953625Y11963576D01*
X-953626Y11963577D01*
X-1089732Y12054520D01*
X-1205480Y12170268D01*
X-1296423Y12306374D01*
X-1296424Y12306376D01*
X-1359066Y12457606D01*
X-1391000Y12618152D01*
X-1391000Y12781848D01*
X-1359066Y12942394D01*
X-1296424Y13093624D01*
X-1296423Y13093626D01*
X-1205480Y13229732D01*
X-1089732Y13345480D01*
X-953626Y13436423D01*
X-953624Y13436424D01*
X-802394Y13499066D01*
X-641848Y13531000D01*
X-478152Y13531000D01*
X-317606Y13499066D01*
X-317606Y13499066D01*
G37*
G36*
X20591000Y11869000D02*
G01*
X18929000Y11869000D01*
X18929000Y13531000D01*
X20591000Y13531000D01*
X20591000Y11869000D01*
X20591000Y11869000D01*
G37*
G36*
X-7937606Y13499066D02*
G01*
X-7786376Y13436424D01*
X-7786374Y13436423D01*
X-7650268Y13345480D01*
X-7534520Y13229732D01*
X-7443577Y13093626D01*
X-7443576Y13093624D01*
X-7380934Y12942394D01*
X-7349000Y12781848D01*
X-7349000Y12618152D01*
X-7380934Y12457606D01*
X-7443576Y12306376D01*
X-7443577Y12306374D01*
X-7534520Y12170268D01*
X-7650268Y12054520D01*
X-7786374Y11963577D01*
X-7786375Y11963576D01*
X-7786376Y11963576D01*
X-7937606Y11900934D01*
X-8098152Y11869000D01*
X-8261848Y11869000D01*
X-8422394Y11900934D01*
X-8573624Y11963576D01*
X-8573625Y11963576D01*
X-8573626Y11963577D01*
X-8709732Y12054520D01*
X-8825480Y12170268D01*
X-8916423Y12306374D01*
X-8916424Y12306376D01*
X-8979066Y12457606D01*
X-9011000Y12618152D01*
X-9011000Y12781848D01*
X-8979066Y12942394D01*
X-8916424Y13093624D01*
X-8916423Y13093626D01*
X-8825480Y13229732D01*
X-8709732Y13345480D01*
X-8573626Y13436423D01*
X-8573624Y13436424D01*
X-8422394Y13499066D01*
X-8261848Y13531000D01*
X-8098152Y13531000D01*
X-7937606Y13499066D01*
X-7937606Y13499066D01*
G37*
G36*
X-21811102Y20029767D02*
G01*
X-21346850Y19837468D01*
X-21346848Y19837467D01*
X-20929032Y19558291D01*
X-20573709Y19202968D01*
X-20294533Y18785152D01*
X-20294532Y18785150D01*
X-20102233Y18320898D01*
X-20004200Y17828053D01*
X-20004200Y17325547D01*
X-20102233Y16832702D01*
X-20294532Y16368450D01*
X-20294533Y16368448D01*
X-20573709Y15950632D01*
X-20929032Y15595309D01*
X-21346848Y15316133D01*
X-21346849Y15316132D01*
X-21346850Y15316132D01*
X-21811102Y15123833D01*
X-22303947Y15025800D01*
X-22806453Y15025800D01*
X-23299298Y15123833D01*
X-23763550Y15316132D01*
X-23763551Y15316132D01*
X-23763552Y15316133D01*
X-24181368Y15595309D01*
X-24536691Y15950632D01*
X-24815867Y16368448D01*
X-24815868Y16368450D01*
X-25008167Y16832702D01*
X-25106200Y17325547D01*
X-25106200Y17828053D01*
X-25008167Y18320898D01*
X-24815868Y18785150D01*
X-24815867Y18785152D01*
X-24536691Y19202968D01*
X-24181368Y19558291D01*
X-23763552Y19837467D01*
X-23763550Y19837468D01*
X-23299298Y20029767D01*
X-22806453Y20127800D01*
X-22303947Y20127800D01*
X-21811102Y20029767D01*
X-21811102Y20029767D01*
G37*
G36*
X18828898Y20029767D02*
G01*
X19293150Y19837468D01*
X19293152Y19837467D01*
X19710968Y19558291D01*
X20066291Y19202968D01*
X20345467Y18785152D01*
X20345468Y18785150D01*
X20537767Y18320898D01*
X20635800Y17828053D01*
X20635800Y17325547D01*
X20537767Y16832702D01*
X20345468Y16368450D01*
X20345467Y16368448D01*
X20066291Y15950632D01*
X19710968Y15595309D01*
X19293152Y15316133D01*
X19293151Y15316132D01*
X19293150Y15316132D01*
X18828898Y15123833D01*
X18336053Y15025800D01*
X17833547Y15025800D01*
X17340702Y15123833D01*
X16876450Y15316132D01*
X16876449Y15316132D01*
X16876448Y15316133D01*
X16458632Y15595309D01*
X16103309Y15950632D01*
X15824133Y16368448D01*
X15824132Y16368450D01*
X15631833Y16832702D01*
X15533800Y17325547D01*
X15533800Y17828053D01*
X15631833Y18320898D01*
X15824132Y18785150D01*
X15824133Y18785152D01*
X16103309Y19202968D01*
X16458632Y19558291D01*
X16876448Y19837467D01*
X16876450Y19837468D01*
X17340702Y20029767D01*
X17833547Y20127800D01*
X18336053Y20127800D01*
X18828898Y20029767D01*
X18828898Y20029767D01*
G37*
M02*
