G04 #@! TF.GenerationSoftware,KiCad,Pcbnew,(5.1.0)-1*
G04 #@! TF.CreationDate,2020-10-21T08:33:28+02:00*
G04 #@! TF.ProjectId,phyphox_CO2_Monitor,70687970-686f-4785-9f43-4f325f4d6f6e,rev?*
G04 #@! TF.SameCoordinates,Original*
G04 #@! TF.FileFunction,Copper,L1,Top*
G04 #@! TF.FilePolarity,Positive*
%FSLAX46Y46*%
G04 Gerber Fmt 4.6, Leading zero omitted, Abs format (unit mm)*
G04 Created by KiCad (PCBNEW (5.1.0)-1) date 2020-10-21 08:33:28*
%MOMM*%
%LPD*%
G04 APERTURE LIST*
%ADD10C,5.000000*%
%ADD11C,1.650000*%
%ADD12R,1.650000X1.650000*%
%ADD13C,1.100000*%
%ADD14C,1.600000*%
%ADD15O,1.600000X1.600000*%
%ADD16C,1.560000*%
%ADD17R,1.560000X1.560000*%
%ADD18C,0.800000*%
%ADD19C,0.400000*%
%ADD20C,0.254000*%
G04 APERTURE END LIST*
D10*
X18084800Y-17983200D03*
X18084800Y17576800D03*
X-22555200Y17576800D03*
X-22555200Y-17983200D03*
D11*
X43424800Y-1063200D03*
X43424800Y-3603200D03*
X43424800Y-6143200D03*
X43424800Y-8683200D03*
X43424800Y-11223200D03*
X43424800Y-13763200D03*
D12*
X43424800Y-16303200D03*
D13*
X-330200Y6781800D03*
X939800Y6781800D03*
X2209800Y6781800D03*
X3479800Y6781800D03*
D14*
X-6200000Y-1490000D03*
D15*
X-21440000Y-1490000D03*
D14*
X-6200000Y-6490000D03*
D15*
X-21440000Y-6490000D03*
X-21440000Y4010000D03*
D14*
X-6200000Y4010000D03*
X7797800Y7922600D03*
D15*
X7797800Y-7317400D03*
X14274800Y-7188200D03*
D14*
X14274800Y8051800D03*
D16*
X-25960000Y-12700000D03*
X-23420000Y-12700000D03*
X-20880000Y-12700000D03*
X-18340000Y-12700000D03*
X-15800000Y-12700000D03*
X-13260000Y-12700000D03*
X-10720000Y-12700000D03*
X-8180000Y-12700000D03*
X-5640000Y-12700000D03*
X-3100000Y-12700000D03*
X-560000Y-12700000D03*
X1980000Y-12700000D03*
X4520000Y-12700000D03*
X7060000Y-12700000D03*
X9600000Y-12700000D03*
X12140000Y-12700000D03*
X14680000Y-12700000D03*
X17220000Y-12700000D03*
X19760000Y-12700000D03*
X-23420000Y12700000D03*
X-20880000Y12700000D03*
X-18340000Y12700000D03*
X-15800000Y12700000D03*
X-13260000Y12700000D03*
X-10720000Y12700000D03*
X-8180000Y12700000D03*
X-5640000Y12700000D03*
X-3100000Y12700000D03*
X-560000Y12700000D03*
X1980000Y12700000D03*
X4520000Y12700000D03*
X7060000Y12700000D03*
X9600000Y12700000D03*
X12140000Y12700000D03*
X14680000Y12700000D03*
X-25960000Y12700000D03*
X17220000Y12700000D03*
D17*
X19760000Y12700000D03*
D18*
X10564800Y-9183200D03*
X2564800Y-9183200D03*
X32564800Y-8183200D03*
X11564800Y9816800D03*
D19*
X-3428200Y6781800D02*
X-6200000Y4010000D01*
X-330200Y6781800D02*
X-3428200Y6781800D01*
X7567000Y8002600D02*
X7487000Y7922600D01*
X15406170Y8051800D02*
X14274800Y8051800D01*
X16291800Y8051800D02*
X15406170Y8051800D01*
X19760000Y11520000D02*
X16291800Y8051800D01*
X19760000Y12700000D02*
X19760000Y11520000D01*
X14145600Y7922600D02*
X14274800Y8051800D01*
X7797800Y7922600D02*
X14145600Y7922600D01*
X939800Y6781800D02*
X939800Y8051800D01*
X939800Y8051800D02*
X1574800Y8686800D01*
X1574800Y8686800D02*
X4114800Y8686800D01*
X4879000Y7922600D02*
X7797800Y7922600D01*
X4114800Y8686800D02*
X4879000Y7922600D01*
X-5068630Y-1490000D02*
X-6200000Y-1490000D01*
X2209800Y5788430D02*
X-5068630Y-1490000D01*
X2209800Y6781800D02*
X2209800Y5788430D01*
X-6200000Y-5438000D02*
X-6200000Y-6490000D01*
X3479800Y4241800D02*
X-6200000Y-5438000D01*
X3479800Y6781800D02*
X3479800Y4241800D01*
X7060000Y-8055200D02*
X7797800Y-7317400D01*
X7060000Y-12700000D02*
X7060000Y-8055200D01*
X8929170Y-7317400D02*
X10963370Y-5283200D01*
X7797800Y-7317400D02*
X8929170Y-7317400D01*
X10963370Y-5283200D02*
X33324800Y-5283200D01*
X36724800Y-8683200D02*
X43424800Y-8683200D01*
X33324800Y-5283200D02*
X36724800Y-8683200D01*
X14274800Y-12294800D02*
X14680000Y-12700000D01*
X14274800Y-7188200D02*
X14274800Y-12294800D01*
X43424800Y-11223200D02*
X27604800Y-11223200D01*
X27604800Y-11223200D02*
X23564800Y-7183200D01*
X23559800Y-7188200D02*
X14274800Y-7188200D01*
X23564800Y-7183200D02*
X23559800Y-7188200D01*
X2844800Y-3378200D02*
X-3100000Y-9323000D01*
X-3100000Y-9323000D02*
X-3100000Y-12700000D01*
X38629800Y-6143200D02*
X35864800Y-3378200D01*
X35864800Y-3378200D02*
X2844800Y-3378200D01*
X43424800Y-6143200D02*
X38629800Y-6143200D01*
X20823200Y-13763200D02*
X19760000Y-12700000D01*
X43424800Y-13763200D02*
X20823200Y-13763200D01*
X-22239999Y-5598401D02*
X-22239999Y-5690001D01*
X-25095200Y-2743200D02*
X-22239999Y-5598401D01*
X-25095200Y7416800D02*
X-25095200Y-2743200D01*
X-21920200Y10591800D02*
X-25095200Y7416800D01*
X-22239999Y-5690001D02*
X-21440000Y-6490000D01*
X-3505200Y10591800D02*
X-21920200Y10591800D01*
X-3100000Y10997000D02*
X-3505200Y10591800D01*
X-3100000Y12700000D02*
X-3100000Y10997000D01*
X1980000Y12700000D02*
X1980000Y11596914D01*
X-21440000Y4010000D02*
X-12627000Y4010000D01*
X-12627000Y4010000D02*
X-8585200Y8051800D01*
X-1565114Y8051800D02*
X-895124Y8721790D01*
X-8585200Y8051800D02*
X-1565114Y8051800D01*
X-895124Y8721790D02*
X1980000Y11596914D01*
X-23825200Y895200D02*
X-21440000Y-1490000D01*
X-23825200Y6781800D02*
X-23825200Y895200D01*
X-21285200Y9321800D02*
X-23825200Y6781800D01*
X-2059800Y9321800D02*
X-21285200Y9321800D01*
X-560000Y10821600D02*
X-2059800Y9321800D01*
X-560000Y12700000D02*
X-560000Y10821600D01*
D20*
G36*
X-24553646Y20011914D02*
G01*
X-24990314Y19575246D01*
X-25333401Y19061779D01*
X-25569724Y18491246D01*
X-25690200Y17885571D01*
X-25690200Y17268029D01*
X-25569724Y16662354D01*
X-25333401Y16091821D01*
X-24990314Y15578354D01*
X-24553646Y15141686D01*
X-24040179Y14798599D01*
X-23469646Y14562276D01*
X-22863971Y14441800D01*
X-22246429Y14441800D01*
X-21640754Y14562276D01*
X-21070221Y14798599D01*
X-20556754Y15141686D01*
X-20120086Y15578354D01*
X-19776999Y16091821D01*
X-19540676Y16662354D01*
X-19420200Y17268029D01*
X-19420200Y17885571D01*
X-19540676Y18491246D01*
X-19776999Y19061779D01*
X-20120086Y19575246D01*
X-20556754Y20011914D01*
X-20773592Y20156800D01*
X16303192Y20156800D01*
X16086354Y20011914D01*
X15649686Y19575246D01*
X15306599Y19061779D01*
X15070276Y18491246D01*
X14949800Y17885571D01*
X14949800Y17268029D01*
X15070276Y16662354D01*
X15306599Y16091821D01*
X15649686Y15578354D01*
X16086354Y15141686D01*
X16599821Y14798599D01*
X17170354Y14562276D01*
X17776029Y14441800D01*
X18393571Y14441800D01*
X18999246Y14562276D01*
X19569779Y14798599D01*
X20083246Y15141686D01*
X20519914Y15578354D01*
X20863001Y16091821D01*
X21099324Y16662354D01*
X21219800Y17268029D01*
X21219800Y17885571D01*
X21099324Y18491246D01*
X20863001Y19061779D01*
X20519914Y19575246D01*
X20083246Y20011914D01*
X19866408Y20156800D01*
X44904800Y20156800D01*
X44904801Y-20523200D01*
X19926273Y-20523200D01*
X20083246Y-20418314D01*
X20519914Y-19981646D01*
X20863001Y-19468179D01*
X21099324Y-18897646D01*
X21219800Y-18291971D01*
X21219800Y-17674429D01*
X21099324Y-17068754D01*
X20863001Y-16498221D01*
X20519914Y-15984754D01*
X20083246Y-15548086D01*
X19978655Y-15478200D01*
X41961728Y-15478200D01*
X41961728Y-17128200D01*
X41973988Y-17252682D01*
X42010298Y-17372380D01*
X42069263Y-17482694D01*
X42148615Y-17579385D01*
X42245306Y-17658737D01*
X42355620Y-17717702D01*
X42475318Y-17754012D01*
X42599800Y-17766272D01*
X44249800Y-17766272D01*
X44374282Y-17754012D01*
X44493980Y-17717702D01*
X44604294Y-17658737D01*
X44700985Y-17579385D01*
X44780337Y-17482694D01*
X44839302Y-17372380D01*
X44875612Y-17252682D01*
X44887872Y-17128200D01*
X44887872Y-15478200D01*
X44875612Y-15353718D01*
X44839302Y-15234020D01*
X44780337Y-15123706D01*
X44700985Y-15027015D01*
X44604294Y-14947663D01*
X44493980Y-14888698D01*
X44374282Y-14852388D01*
X44249800Y-14840128D01*
X44235657Y-14840128D01*
X44255746Y-14773751D01*
X43424800Y-13942805D01*
X42593854Y-14773751D01*
X42613943Y-14840128D01*
X42599800Y-14840128D01*
X42475318Y-14852388D01*
X42355620Y-14888698D01*
X42245306Y-14947663D01*
X42148615Y-15027015D01*
X42069263Y-15123706D01*
X42010298Y-15234020D01*
X41973988Y-15353718D01*
X41961728Y-15478200D01*
X19978655Y-15478200D01*
X19569779Y-15204999D01*
X18999246Y-14968676D01*
X18393571Y-14848200D01*
X17776029Y-14848200D01*
X17170354Y-14968676D01*
X16599821Y-15204999D01*
X16086354Y-15548086D01*
X15649686Y-15984754D01*
X15306599Y-16498221D01*
X15070276Y-17068754D01*
X14949800Y-17674429D01*
X14949800Y-18291971D01*
X15070276Y-18897646D01*
X15306599Y-19468179D01*
X15649686Y-19981646D01*
X16086354Y-20418314D01*
X16243327Y-20523200D01*
X-20713727Y-20523200D01*
X-20556754Y-20418314D01*
X-20120086Y-19981646D01*
X-19776999Y-19468179D01*
X-19540676Y-18897646D01*
X-19420200Y-18291971D01*
X-19420200Y-17674429D01*
X-19540676Y-17068754D01*
X-19776999Y-16498221D01*
X-20120086Y-15984754D01*
X-20556754Y-15548086D01*
X-21070221Y-15204999D01*
X-21640754Y-14968676D01*
X-22246429Y-14848200D01*
X-22863971Y-14848200D01*
X-23469646Y-14968676D01*
X-24040179Y-15204999D01*
X-24553646Y-15548086D01*
X-24990314Y-15984754D01*
X-25333401Y-16498221D01*
X-25569724Y-17068754D01*
X-25690200Y-17674429D01*
X-25690200Y-18291971D01*
X-25569724Y-18897646D01*
X-25333401Y-19468179D01*
X-24990314Y-19981646D01*
X-24553646Y-20418314D01*
X-24396673Y-20523200D01*
X-26775200Y-20523200D01*
X-26775200Y-13857107D01*
X-26630254Y-13953957D01*
X-26372740Y-14060623D01*
X-26099365Y-14115000D01*
X-25820635Y-14115000D01*
X-25547260Y-14060623D01*
X-25289746Y-13953957D01*
X-25057990Y-13799103D01*
X-24860897Y-13602010D01*
X-24706043Y-13370254D01*
X-24690000Y-13331523D01*
X-24673957Y-13370254D01*
X-24519103Y-13602010D01*
X-24322010Y-13799103D01*
X-24090254Y-13953957D01*
X-23832740Y-14060623D01*
X-23559365Y-14115000D01*
X-23280635Y-14115000D01*
X-23007260Y-14060623D01*
X-22749746Y-13953957D01*
X-22517990Y-13799103D01*
X-22320897Y-13602010D01*
X-22166043Y-13370254D01*
X-22150000Y-13331523D01*
X-22133957Y-13370254D01*
X-21979103Y-13602010D01*
X-21782010Y-13799103D01*
X-21550254Y-13953957D01*
X-21292740Y-14060623D01*
X-21019365Y-14115000D01*
X-20740635Y-14115000D01*
X-20467260Y-14060623D01*
X-20209746Y-13953957D01*
X-19977990Y-13799103D01*
X-19780897Y-13602010D01*
X-19626043Y-13370254D01*
X-19610000Y-13331523D01*
X-19593957Y-13370254D01*
X-19439103Y-13602010D01*
X-19242010Y-13799103D01*
X-19010254Y-13953957D01*
X-18752740Y-14060623D01*
X-18479365Y-14115000D01*
X-18200635Y-14115000D01*
X-17927260Y-14060623D01*
X-17669746Y-13953957D01*
X-17437990Y-13799103D01*
X-17240897Y-13602010D01*
X-17086043Y-13370254D01*
X-17070000Y-13331523D01*
X-17053957Y-13370254D01*
X-16899103Y-13602010D01*
X-16702010Y-13799103D01*
X-16470254Y-13953957D01*
X-16212740Y-14060623D01*
X-15939365Y-14115000D01*
X-15660635Y-14115000D01*
X-15387260Y-14060623D01*
X-15129746Y-13953957D01*
X-14897990Y-13799103D01*
X-14700897Y-13602010D01*
X-14546043Y-13370254D01*
X-14530000Y-13331523D01*
X-14513957Y-13370254D01*
X-14359103Y-13602010D01*
X-14162010Y-13799103D01*
X-13930254Y-13953957D01*
X-13672740Y-14060623D01*
X-13399365Y-14115000D01*
X-13120635Y-14115000D01*
X-12847260Y-14060623D01*
X-12589746Y-13953957D01*
X-12357990Y-13799103D01*
X-12160897Y-13602010D01*
X-12006043Y-13370254D01*
X-11990000Y-13331523D01*
X-11973957Y-13370254D01*
X-11819103Y-13602010D01*
X-11622010Y-13799103D01*
X-11390254Y-13953957D01*
X-11132740Y-14060623D01*
X-10859365Y-14115000D01*
X-10580635Y-14115000D01*
X-10307260Y-14060623D01*
X-10049746Y-13953957D01*
X-9817990Y-13799103D01*
X-9620897Y-13602010D01*
X-9466043Y-13370254D01*
X-9450000Y-13331523D01*
X-9433957Y-13370254D01*
X-9279103Y-13602010D01*
X-9082010Y-13799103D01*
X-8850254Y-13953957D01*
X-8592740Y-14060623D01*
X-8319365Y-14115000D01*
X-8040635Y-14115000D01*
X-7767260Y-14060623D01*
X-7509746Y-13953957D01*
X-7277990Y-13799103D01*
X-7080897Y-13602010D01*
X-6926043Y-13370254D01*
X-6910000Y-13331523D01*
X-6893957Y-13370254D01*
X-6739103Y-13602010D01*
X-6542010Y-13799103D01*
X-6310254Y-13953957D01*
X-6052740Y-14060623D01*
X-5779365Y-14115000D01*
X-5500635Y-14115000D01*
X-5227260Y-14060623D01*
X-4969746Y-13953957D01*
X-4737990Y-13799103D01*
X-4540897Y-13602010D01*
X-4386043Y-13370254D01*
X-4370000Y-13331523D01*
X-4353957Y-13370254D01*
X-4199103Y-13602010D01*
X-4002010Y-13799103D01*
X-3770254Y-13953957D01*
X-3512740Y-14060623D01*
X-3239365Y-14115000D01*
X-2960635Y-14115000D01*
X-2687260Y-14060623D01*
X-2429746Y-13953957D01*
X-2197990Y-13799103D01*
X-2000897Y-13602010D01*
X-1846043Y-13370254D01*
X-1830000Y-13331523D01*
X-1813957Y-13370254D01*
X-1659103Y-13602010D01*
X-1462010Y-13799103D01*
X-1230254Y-13953957D01*
X-972740Y-14060623D01*
X-699365Y-14115000D01*
X-420635Y-14115000D01*
X-147260Y-14060623D01*
X110254Y-13953957D01*
X342010Y-13799103D01*
X539103Y-13602010D01*
X693957Y-13370254D01*
X710000Y-13331523D01*
X726043Y-13370254D01*
X880897Y-13602010D01*
X1077990Y-13799103D01*
X1309746Y-13953957D01*
X1567260Y-14060623D01*
X1840635Y-14115000D01*
X2119365Y-14115000D01*
X2392740Y-14060623D01*
X2650254Y-13953957D01*
X2882010Y-13799103D01*
X3079103Y-13602010D01*
X3233957Y-13370254D01*
X3250000Y-13331523D01*
X3266043Y-13370254D01*
X3420897Y-13602010D01*
X3617990Y-13799103D01*
X3849746Y-13953957D01*
X4107260Y-14060623D01*
X4380635Y-14115000D01*
X4659365Y-14115000D01*
X4932740Y-14060623D01*
X5190254Y-13953957D01*
X5422010Y-13799103D01*
X5619103Y-13602010D01*
X5773957Y-13370254D01*
X5790000Y-13331523D01*
X5806043Y-13370254D01*
X5960897Y-13602010D01*
X6157990Y-13799103D01*
X6389746Y-13953957D01*
X6647260Y-14060623D01*
X6920635Y-14115000D01*
X7199365Y-14115000D01*
X7472740Y-14060623D01*
X7730254Y-13953957D01*
X7962010Y-13799103D01*
X8159103Y-13602010D01*
X8313957Y-13370254D01*
X8330000Y-13331523D01*
X8346043Y-13370254D01*
X8500897Y-13602010D01*
X8697990Y-13799103D01*
X8929746Y-13953957D01*
X9187260Y-14060623D01*
X9460635Y-14115000D01*
X9739365Y-14115000D01*
X10012740Y-14060623D01*
X10270254Y-13953957D01*
X10502010Y-13799103D01*
X10699103Y-13602010D01*
X10853957Y-13370254D01*
X10870000Y-13331523D01*
X10886043Y-13370254D01*
X11040897Y-13602010D01*
X11237990Y-13799103D01*
X11469746Y-13953957D01*
X11727260Y-14060623D01*
X12000635Y-14115000D01*
X12279365Y-14115000D01*
X12552740Y-14060623D01*
X12810254Y-13953957D01*
X13042010Y-13799103D01*
X13239103Y-13602010D01*
X13393957Y-13370254D01*
X13410000Y-13331523D01*
X13426043Y-13370254D01*
X13580897Y-13602010D01*
X13777990Y-13799103D01*
X14009746Y-13953957D01*
X14267260Y-14060623D01*
X14540635Y-14115000D01*
X14819365Y-14115000D01*
X15092740Y-14060623D01*
X15350254Y-13953957D01*
X15582010Y-13799103D01*
X15779103Y-13602010D01*
X15933957Y-13370254D01*
X15950000Y-13331523D01*
X15966043Y-13370254D01*
X16120897Y-13602010D01*
X16317990Y-13799103D01*
X16549746Y-13953957D01*
X16807260Y-14060623D01*
X17080635Y-14115000D01*
X17359365Y-14115000D01*
X17632740Y-14060623D01*
X17890254Y-13953957D01*
X18122010Y-13799103D01*
X18242692Y-13678421D01*
X18961184Y-13678421D01*
X19030345Y-13920349D01*
X19282443Y-14039248D01*
X19552894Y-14106681D01*
X19831303Y-14120057D01*
X20106972Y-14078860D01*
X20369308Y-13984675D01*
X20489655Y-13920349D01*
X20514705Y-13832721D01*
X41959383Y-13832721D01*
X42001103Y-14117274D01*
X42097535Y-14388220D01*
X42167727Y-14519537D01*
X42414249Y-14594146D01*
X43245195Y-13763200D01*
X43604405Y-13763200D01*
X44435351Y-14594146D01*
X44681873Y-14519537D01*
X44805273Y-14259761D01*
X44875623Y-13980903D01*
X44890217Y-13693679D01*
X44848497Y-13409126D01*
X44752065Y-13138180D01*
X44681873Y-13006863D01*
X44435351Y-12932254D01*
X43604405Y-13763200D01*
X43245195Y-13763200D01*
X42414249Y-12932254D01*
X42167727Y-13006863D01*
X42044327Y-13266639D01*
X41973977Y-13545497D01*
X41959383Y-13832721D01*
X20514705Y-13832721D01*
X20558816Y-13678421D01*
X19760000Y-12879605D01*
X18961184Y-13678421D01*
X18242692Y-13678421D01*
X18319103Y-13602010D01*
X18473957Y-13370254D01*
X18488777Y-13334475D01*
X18539651Y-13429655D01*
X18781579Y-13498816D01*
X19580395Y-12700000D01*
X19939605Y-12700000D01*
X20738421Y-13498816D01*
X20980349Y-13429655D01*
X21099248Y-13177557D01*
X21166681Y-12907106D01*
X21180057Y-12628697D01*
X21138860Y-12353028D01*
X21044675Y-12090692D01*
X20980349Y-11970345D01*
X20738421Y-11901184D01*
X19939605Y-12700000D01*
X19580395Y-12700000D01*
X18781579Y-11901184D01*
X18539651Y-11970345D01*
X18491575Y-12072279D01*
X18473957Y-12029746D01*
X18319103Y-11797990D01*
X18242692Y-11721579D01*
X18961184Y-11721579D01*
X19760000Y-12520395D01*
X20558816Y-11721579D01*
X20489655Y-11479651D01*
X20237557Y-11360752D01*
X19967106Y-11293319D01*
X19688697Y-11279943D01*
X19413028Y-11321140D01*
X19150692Y-11415325D01*
X19030345Y-11479651D01*
X18961184Y-11721579D01*
X18242692Y-11721579D01*
X18122010Y-11600897D01*
X17890254Y-11446043D01*
X17632740Y-11339377D01*
X17359365Y-11285000D01*
X17080635Y-11285000D01*
X16807260Y-11339377D01*
X16549746Y-11446043D01*
X16317990Y-11600897D01*
X16120897Y-11797990D01*
X15966043Y-12029746D01*
X15950000Y-12068477D01*
X15933957Y-12029746D01*
X15779103Y-11797990D01*
X15582010Y-11600897D01*
X15350254Y-11446043D01*
X15109800Y-11346443D01*
X15109800Y-8359312D01*
X15294408Y-8207808D01*
X15445912Y-8023200D01*
X23223933Y-8023200D01*
X26985363Y-11784632D01*
X27011509Y-11816491D01*
X27043368Y-11842637D01*
X27043370Y-11842639D01*
X27138654Y-11920836D01*
X27283713Y-11998372D01*
X27441111Y-12046118D01*
X27604800Y-12062240D01*
X27645818Y-12058200D01*
X42226802Y-12058200D01*
X42290744Y-12153896D01*
X42494104Y-12357256D01*
X42695376Y-12491741D01*
X42668463Y-12506127D01*
X42593854Y-12752649D01*
X43424800Y-13583595D01*
X44255746Y-12752649D01*
X44181137Y-12506127D01*
X44152823Y-12492677D01*
X44355496Y-12357256D01*
X44558856Y-12153896D01*
X44718635Y-11914769D01*
X44828693Y-11649066D01*
X44884800Y-11366997D01*
X44884800Y-11079403D01*
X44828693Y-10797334D01*
X44718635Y-10531631D01*
X44558856Y-10292504D01*
X44355496Y-10089144D01*
X44152041Y-9953200D01*
X44355496Y-9817256D01*
X44558856Y-9613896D01*
X44718635Y-9374769D01*
X44828693Y-9109066D01*
X44884800Y-8826997D01*
X44884800Y-8539403D01*
X44828693Y-8257334D01*
X44718635Y-7991631D01*
X44558856Y-7752504D01*
X44355496Y-7549144D01*
X44152041Y-7413200D01*
X44355496Y-7277256D01*
X44558856Y-7073896D01*
X44718635Y-6834769D01*
X44828693Y-6569066D01*
X44884800Y-6286997D01*
X44884800Y-5999403D01*
X44828693Y-5717334D01*
X44718635Y-5451631D01*
X44558856Y-5212504D01*
X44355496Y-5009144D01*
X44152041Y-4873200D01*
X44355496Y-4737256D01*
X44558856Y-4533896D01*
X44718635Y-4294769D01*
X44828693Y-4029066D01*
X44884800Y-3746997D01*
X44884800Y-3459403D01*
X44828693Y-3177334D01*
X44718635Y-2911631D01*
X44558856Y-2672504D01*
X44355496Y-2469144D01*
X44154224Y-2334659D01*
X44181137Y-2320273D01*
X44255746Y-2073751D01*
X43424800Y-1242805D01*
X42593854Y-2073751D01*
X42668463Y-2320273D01*
X42696777Y-2333723D01*
X42494104Y-2469144D01*
X42290744Y-2672504D01*
X42130965Y-2911631D01*
X42020907Y-3177334D01*
X41964800Y-3459403D01*
X41964800Y-3746997D01*
X42020907Y-4029066D01*
X42130965Y-4294769D01*
X42290744Y-4533896D01*
X42494104Y-4737256D01*
X42697559Y-4873200D01*
X42494104Y-5009144D01*
X42290744Y-5212504D01*
X42226802Y-5308200D01*
X38975668Y-5308200D01*
X36484246Y-2816779D01*
X36458091Y-2784909D01*
X36330946Y-2680564D01*
X36185887Y-2603028D01*
X36028489Y-2555282D01*
X35905819Y-2543200D01*
X35905818Y-2543200D01*
X35864800Y-2539160D01*
X35823782Y-2543200D01*
X2885818Y-2543200D01*
X2844800Y-2539160D01*
X2803782Y-2543200D01*
X2803781Y-2543200D01*
X2681111Y-2555282D01*
X2523713Y-2603028D01*
X2378654Y-2680564D01*
X2302332Y-2743200D01*
X2251509Y-2784909D01*
X2225363Y-2816768D01*
X-3661421Y-8703554D01*
X-3693291Y-8729709D01*
X-3773132Y-8826997D01*
X-3797636Y-8856855D01*
X-3875172Y-9001914D01*
X-3922918Y-9159312D01*
X-3939040Y-9323000D01*
X-3935000Y-9364019D01*
X-3934999Y-11556122D01*
X-4002010Y-11600897D01*
X-4199103Y-11797990D01*
X-4353957Y-12029746D01*
X-4370000Y-12068477D01*
X-4386043Y-12029746D01*
X-4540897Y-11797990D01*
X-4737990Y-11600897D01*
X-4969746Y-11446043D01*
X-5227260Y-11339377D01*
X-5500635Y-11285000D01*
X-5779365Y-11285000D01*
X-6052740Y-11339377D01*
X-6310254Y-11446043D01*
X-6542010Y-11600897D01*
X-6739103Y-11797990D01*
X-6893957Y-12029746D01*
X-6910000Y-12068477D01*
X-6926043Y-12029746D01*
X-7080897Y-11797990D01*
X-7277990Y-11600897D01*
X-7509746Y-11446043D01*
X-7767260Y-11339377D01*
X-8040635Y-11285000D01*
X-8319365Y-11285000D01*
X-8592740Y-11339377D01*
X-8850254Y-11446043D01*
X-9082010Y-11600897D01*
X-9279103Y-11797990D01*
X-9433957Y-12029746D01*
X-9450000Y-12068477D01*
X-9466043Y-12029746D01*
X-9620897Y-11797990D01*
X-9817990Y-11600897D01*
X-10049746Y-11446043D01*
X-10307260Y-11339377D01*
X-10580635Y-11285000D01*
X-10859365Y-11285000D01*
X-11132740Y-11339377D01*
X-11390254Y-11446043D01*
X-11622010Y-11600897D01*
X-11819103Y-11797990D01*
X-11973957Y-12029746D01*
X-11990000Y-12068477D01*
X-12006043Y-12029746D01*
X-12160897Y-11797990D01*
X-12357990Y-11600897D01*
X-12589746Y-11446043D01*
X-12847260Y-11339377D01*
X-13120635Y-11285000D01*
X-13399365Y-11285000D01*
X-13672740Y-11339377D01*
X-13930254Y-11446043D01*
X-14162010Y-11600897D01*
X-14359103Y-11797990D01*
X-14513957Y-12029746D01*
X-14530000Y-12068477D01*
X-14546043Y-12029746D01*
X-14700897Y-11797990D01*
X-14897990Y-11600897D01*
X-15129746Y-11446043D01*
X-15387260Y-11339377D01*
X-15660635Y-11285000D01*
X-15939365Y-11285000D01*
X-16212740Y-11339377D01*
X-16470254Y-11446043D01*
X-16702010Y-11600897D01*
X-16899103Y-11797990D01*
X-17053957Y-12029746D01*
X-17070000Y-12068477D01*
X-17086043Y-12029746D01*
X-17240897Y-11797990D01*
X-17437990Y-11600897D01*
X-17669746Y-11446043D01*
X-17927260Y-11339377D01*
X-18200635Y-11285000D01*
X-18479365Y-11285000D01*
X-18752740Y-11339377D01*
X-19010254Y-11446043D01*
X-19242010Y-11600897D01*
X-19439103Y-11797990D01*
X-19593957Y-12029746D01*
X-19610000Y-12068477D01*
X-19626043Y-12029746D01*
X-19780897Y-11797990D01*
X-19977990Y-11600897D01*
X-20209746Y-11446043D01*
X-20467260Y-11339377D01*
X-20740635Y-11285000D01*
X-21019365Y-11285000D01*
X-21292740Y-11339377D01*
X-21550254Y-11446043D01*
X-21782010Y-11600897D01*
X-21979103Y-11797990D01*
X-22133957Y-12029746D01*
X-22150000Y-12068477D01*
X-22166043Y-12029746D01*
X-22320897Y-11797990D01*
X-22517990Y-11600897D01*
X-22749746Y-11446043D01*
X-23007260Y-11339377D01*
X-23280635Y-11285000D01*
X-23559365Y-11285000D01*
X-23832740Y-11339377D01*
X-24090254Y-11446043D01*
X-24322010Y-11600897D01*
X-24519103Y-11797990D01*
X-24673957Y-12029746D01*
X-24690000Y-12068477D01*
X-24706043Y-12029746D01*
X-24860897Y-11797990D01*
X-25057990Y-11600897D01*
X-25289746Y-11446043D01*
X-25547260Y-11339377D01*
X-25820635Y-11285000D01*
X-26099365Y-11285000D01*
X-26372740Y-11339377D01*
X-26630254Y-11446043D01*
X-26775200Y-11542893D01*
X-26775200Y11542893D01*
X-26630254Y11446043D01*
X-26372740Y11339377D01*
X-26099365Y11285000D01*
X-25820635Y11285000D01*
X-25547260Y11339377D01*
X-25289746Y11446043D01*
X-25057990Y11600897D01*
X-24860897Y11797990D01*
X-24706043Y12029746D01*
X-24690000Y12068477D01*
X-24673957Y12029746D01*
X-24519103Y11797990D01*
X-24322010Y11600897D01*
X-24090254Y11446043D01*
X-23832740Y11339377D01*
X-23559365Y11285000D01*
X-23280635Y11285000D01*
X-23007260Y11339377D01*
X-22749746Y11446043D01*
X-22517990Y11600897D01*
X-22320897Y11797990D01*
X-22166043Y12029746D01*
X-22150000Y12068477D01*
X-22133957Y12029746D01*
X-21979103Y11797990D01*
X-21782010Y11600897D01*
X-21550254Y11446043D01*
X-21503797Y11426800D01*
X-21879182Y11426800D01*
X-21920201Y11430840D01*
X-21961219Y11426800D01*
X-22083889Y11414718D01*
X-22241287Y11366972D01*
X-22386346Y11289436D01*
X-22513491Y11185091D01*
X-22539639Y11153229D01*
X-25656621Y8036246D01*
X-25688491Y8010091D01*
X-25770251Y7910465D01*
X-25792836Y7882945D01*
X-25870372Y7737886D01*
X-25918118Y7580488D01*
X-25934240Y7416800D01*
X-25930200Y7375781D01*
X-25930199Y-2702171D01*
X-25934240Y-2743200D01*
X-25918118Y-2906888D01*
X-25870372Y-3064286D01*
X-25792836Y-3209345D01*
X-25769293Y-3238032D01*
X-25688490Y-3336491D01*
X-25656626Y-3362641D01*
X-23018215Y-6001053D01*
X-23015171Y-6011088D01*
X-22937635Y-6156147D01*
X-22858552Y-6252510D01*
X-22881943Y-6490000D01*
X-22854236Y-6771309D01*
X-22772182Y-7041808D01*
X-22638932Y-7291101D01*
X-22459608Y-7509608D01*
X-22241101Y-7688932D01*
X-21991808Y-7822182D01*
X-21721309Y-7904236D01*
X-21510492Y-7925000D01*
X-21369508Y-7925000D01*
X-21158691Y-7904236D01*
X-20888192Y-7822182D01*
X-20638899Y-7688932D01*
X-20420392Y-7509608D01*
X-20241068Y-7291101D01*
X-20107818Y-7041808D01*
X-20025764Y-6771309D01*
X-19998057Y-6490000D01*
X-20025764Y-6208691D01*
X-20107818Y-5938192D01*
X-20241068Y-5688899D01*
X-20420392Y-5470392D01*
X-20638899Y-5291068D01*
X-20888192Y-5157818D01*
X-21158691Y-5075764D01*
X-21369508Y-5055000D01*
X-21510492Y-5055000D01*
X-21598639Y-5063682D01*
X-21646708Y-5005110D01*
X-21678571Y-4978961D01*
X-24260200Y-2397333D01*
X-24260200Y149333D01*
X-22858534Y-1252333D01*
X-22881943Y-1490000D01*
X-22854236Y-1771309D01*
X-22772182Y-2041808D01*
X-22638932Y-2291101D01*
X-22459608Y-2509608D01*
X-22241101Y-2688932D01*
X-21991808Y-2822182D01*
X-21721309Y-2904236D01*
X-21510492Y-2925000D01*
X-21369508Y-2925000D01*
X-21158691Y-2904236D01*
X-20888192Y-2822182D01*
X-20638899Y-2688932D01*
X-20420392Y-2509608D01*
X-20241068Y-2291101D01*
X-20107818Y-2041808D01*
X-20025764Y-1771309D01*
X-19998057Y-1490000D01*
X-20025764Y-1208691D01*
X-20107818Y-938192D01*
X-20241068Y-688899D01*
X-20420392Y-470392D01*
X-20638899Y-291068D01*
X-20888192Y-157818D01*
X-21158691Y-75764D01*
X-21369508Y-55000D01*
X-21510492Y-55000D01*
X-21677667Y-71466D01*
X-22990200Y1241067D01*
X-22990200Y6435933D01*
X-20939332Y8486800D01*
X-9331068Y8486800D01*
X-12972867Y4845000D01*
X-20268888Y4845000D01*
X-20420392Y5029608D01*
X-20638899Y5208932D01*
X-20888192Y5342182D01*
X-21158691Y5424236D01*
X-21369508Y5445000D01*
X-21510492Y5445000D01*
X-21721309Y5424236D01*
X-21991808Y5342182D01*
X-22241101Y5208932D01*
X-22459608Y5029608D01*
X-22638932Y4811101D01*
X-22772182Y4561808D01*
X-22854236Y4291309D01*
X-22881943Y4010000D01*
X-22854236Y3728691D01*
X-22772182Y3458192D01*
X-22638932Y3208899D01*
X-22459608Y2990392D01*
X-22241101Y2811068D01*
X-21991808Y2677818D01*
X-21721309Y2595764D01*
X-21510492Y2575000D01*
X-21369508Y2575000D01*
X-21158691Y2595764D01*
X-20888192Y2677818D01*
X-20638899Y2811068D01*
X-20420392Y2990392D01*
X-20268888Y3175000D01*
X-12668018Y3175000D01*
X-12627000Y3170960D01*
X-12585982Y3175000D01*
X-12585981Y3175000D01*
X-12463311Y3187082D01*
X-12305913Y3234828D01*
X-12160854Y3312364D01*
X-12033709Y3416709D01*
X-12007554Y3448579D01*
X-8239332Y7216800D01*
X-4174068Y7216800D01*
X-5964582Y5426285D01*
X-6058665Y5445000D01*
X-6341335Y5445000D01*
X-6618574Y5389853D01*
X-6879727Y5281680D01*
X-7114759Y5124637D01*
X-7314637Y4924759D01*
X-7471680Y4689727D01*
X-7579853Y4428574D01*
X-7635000Y4151335D01*
X-7635000Y3868665D01*
X-7579853Y3591426D01*
X-7471680Y3330273D01*
X-7314637Y3095241D01*
X-7114759Y2895363D01*
X-6879727Y2738320D01*
X-6618574Y2630147D01*
X-6341335Y2575000D01*
X-6058665Y2575000D01*
X-5781426Y2630147D01*
X-5520273Y2738320D01*
X-5285241Y2895363D01*
X-5085363Y3095241D01*
X-4928320Y3330273D01*
X-4820147Y3591426D01*
X-4765000Y3868665D01*
X-4765000Y4151335D01*
X-4783715Y4245418D01*
X-3082332Y5946800D01*
X-1171044Y5946800D01*
X-1085594Y5861350D01*
X-891508Y5731666D01*
X-675852Y5642339D01*
X-446912Y5596800D01*
X-213488Y5596800D01*
X15452Y5642339D01*
X231108Y5731666D01*
X304800Y5780905D01*
X378492Y5731666D01*
X594148Y5642339D01*
X823088Y5596800D01*
X837302Y5596800D01*
X-5210051Y-450553D01*
X-5285241Y-375363D01*
X-5520273Y-218320D01*
X-5781426Y-110147D01*
X-6058665Y-55000D01*
X-6341335Y-55000D01*
X-6618574Y-110147D01*
X-6879727Y-218320D01*
X-7114759Y-375363D01*
X-7314637Y-575241D01*
X-7471680Y-810273D01*
X-7579853Y-1071426D01*
X-7635000Y-1348665D01*
X-7635000Y-1631335D01*
X-7579853Y-1908574D01*
X-7471680Y-2169727D01*
X-7314637Y-2404759D01*
X-7114759Y-2604637D01*
X-6879727Y-2761680D01*
X-6618574Y-2869853D01*
X-6341335Y-2925000D01*
X-6058665Y-2925000D01*
X-5781426Y-2869853D01*
X-5520273Y-2761680D01*
X-5285241Y-2604637D01*
X-5085363Y-2404759D01*
X-5032384Y-2325470D01*
X-5027612Y-2325000D01*
X-5027611Y-2325000D01*
X-4904941Y-2312918D01*
X-4747543Y-2265172D01*
X-4602484Y-2187636D01*
X-4475339Y-2083291D01*
X-4449184Y-2051421D01*
X2644801Y5042563D01*
X2644801Y4587669D01*
X-6761421Y-4818554D01*
X-6793291Y-4844709D01*
X-6850836Y-4914829D01*
X-6897636Y-4971855D01*
X-6975172Y-5116914D01*
X-7022918Y-5274312D01*
X-7027102Y-5316793D01*
X-7114759Y-5375363D01*
X-7314637Y-5575241D01*
X-7471680Y-5810273D01*
X-7579853Y-6071426D01*
X-7635000Y-6348665D01*
X-7635000Y-6631335D01*
X-7579853Y-6908574D01*
X-7471680Y-7169727D01*
X-7314637Y-7404759D01*
X-7114759Y-7604637D01*
X-6879727Y-7761680D01*
X-6618574Y-7869853D01*
X-6341335Y-7925000D01*
X-6058665Y-7925000D01*
X-5781426Y-7869853D01*
X-5520273Y-7761680D01*
X-5285241Y-7604637D01*
X-5085363Y-7404759D01*
X-4928320Y-7169727D01*
X-4820147Y-6908574D01*
X-4765000Y-6631335D01*
X-4765000Y-6348665D01*
X-4820147Y-6071426D01*
X-4928320Y-5810273D01*
X-5085363Y-5575241D01*
X-5120868Y-5539736D01*
X-713853Y-1132721D01*
X41959383Y-1132721D01*
X42001103Y-1417274D01*
X42097535Y-1688220D01*
X42167727Y-1819537D01*
X42414249Y-1894146D01*
X43245195Y-1063200D01*
X43604405Y-1063200D01*
X44435351Y-1894146D01*
X44681873Y-1819537D01*
X44805273Y-1559761D01*
X44875623Y-1280903D01*
X44890217Y-993679D01*
X44848497Y-709126D01*
X44752065Y-438180D01*
X44681873Y-306863D01*
X44435351Y-232254D01*
X43604405Y-1063200D01*
X43245195Y-1063200D01*
X42414249Y-232254D01*
X42167727Y-306863D01*
X42044327Y-566639D01*
X41973977Y-845497D01*
X41959383Y-1132721D01*
X-713853Y-1132721D01*
X366219Y-52649D01*
X42593854Y-52649D01*
X43424800Y-883595D01*
X44255746Y-52649D01*
X44181137Y193873D01*
X43921361Y317273D01*
X43642503Y387623D01*
X43355279Y402217D01*
X43070726Y360497D01*
X42799780Y264065D01*
X42668463Y193873D01*
X42593854Y-52649D01*
X366219Y-52649D01*
X4041227Y3622359D01*
X4073091Y3648509D01*
X4177436Y3775654D01*
X4254972Y3920713D01*
X4302718Y4078111D01*
X4314800Y4200781D01*
X4314800Y4200791D01*
X4318839Y4241799D01*
X4314800Y4282807D01*
X4314800Y5940956D01*
X4400250Y6026406D01*
X4529934Y6220492D01*
X4619261Y6436148D01*
X4664800Y6665088D01*
X4664800Y6898512D01*
X4619261Y7127452D01*
X4618614Y7129015D01*
X4715311Y7099682D01*
X4878999Y7083560D01*
X4920018Y7087600D01*
X6629870Y7087600D01*
X6683163Y7007841D01*
X6883041Y6807963D01*
X7118073Y6650920D01*
X7379226Y6542747D01*
X7656465Y6487600D01*
X7939135Y6487600D01*
X8216374Y6542747D01*
X8477527Y6650920D01*
X8712559Y6807963D01*
X8912437Y7007841D01*
X8965730Y7087600D01*
X13209604Y7087600D01*
X13360041Y6937163D01*
X13595073Y6780120D01*
X13856226Y6671947D01*
X14133465Y6616800D01*
X14416135Y6616800D01*
X14693374Y6671947D01*
X14954527Y6780120D01*
X15189559Y6937163D01*
X15389437Y7137041D01*
X15442730Y7216800D01*
X16250782Y7216800D01*
X16291800Y7212760D01*
X16332818Y7216800D01*
X16332819Y7216800D01*
X16455489Y7228882D01*
X16612887Y7276628D01*
X16757946Y7354164D01*
X16885091Y7458509D01*
X16911246Y7490379D01*
X20321427Y10900559D01*
X20353291Y10926709D01*
X20457636Y11053854D01*
X20535172Y11198913D01*
X20560981Y11283994D01*
X20664482Y11294188D01*
X20784180Y11330498D01*
X20894494Y11389463D01*
X20991185Y11468815D01*
X21070537Y11565506D01*
X21129502Y11675820D01*
X21165812Y11795518D01*
X21178072Y11920000D01*
X21178072Y13480000D01*
X21165812Y13604482D01*
X21129502Y13724180D01*
X21070537Y13834494D01*
X20991185Y13931185D01*
X20894494Y14010537D01*
X20784180Y14069502D01*
X20664482Y14105812D01*
X20540000Y14118072D01*
X18980000Y14118072D01*
X18855518Y14105812D01*
X18735820Y14069502D01*
X18625506Y14010537D01*
X18528815Y13931185D01*
X18449463Y13834494D01*
X18390498Y13724180D01*
X18354188Y13604482D01*
X18349469Y13556564D01*
X18319103Y13602010D01*
X18122010Y13799103D01*
X17890254Y13953957D01*
X17632740Y14060623D01*
X17359365Y14115000D01*
X17080635Y14115000D01*
X16807260Y14060623D01*
X16549746Y13953957D01*
X16317990Y13799103D01*
X16120897Y13602010D01*
X15966043Y13370254D01*
X15950000Y13331523D01*
X15933957Y13370254D01*
X15779103Y13602010D01*
X15582010Y13799103D01*
X15350254Y13953957D01*
X15092740Y14060623D01*
X14819365Y14115000D01*
X14540635Y14115000D01*
X14267260Y14060623D01*
X14009746Y13953957D01*
X13777990Y13799103D01*
X13580897Y13602010D01*
X13426043Y13370254D01*
X13410000Y13331523D01*
X13393957Y13370254D01*
X13239103Y13602010D01*
X13042010Y13799103D01*
X12810254Y13953957D01*
X12552740Y14060623D01*
X12279365Y14115000D01*
X12000635Y14115000D01*
X11727260Y14060623D01*
X11469746Y13953957D01*
X11237990Y13799103D01*
X11040897Y13602010D01*
X10886043Y13370254D01*
X10870000Y13331523D01*
X10853957Y13370254D01*
X10699103Y13602010D01*
X10502010Y13799103D01*
X10270254Y13953957D01*
X10012740Y14060623D01*
X9739365Y14115000D01*
X9460635Y14115000D01*
X9187260Y14060623D01*
X8929746Y13953957D01*
X8697990Y13799103D01*
X8500897Y13602010D01*
X8346043Y13370254D01*
X8330000Y13331523D01*
X8313957Y13370254D01*
X8159103Y13602010D01*
X7962010Y13799103D01*
X7730254Y13953957D01*
X7472740Y14060623D01*
X7199365Y14115000D01*
X6920635Y14115000D01*
X6647260Y14060623D01*
X6389746Y13953957D01*
X6157990Y13799103D01*
X5960897Y13602010D01*
X5806043Y13370254D01*
X5790000Y13331523D01*
X5773957Y13370254D01*
X5619103Y13602010D01*
X5422010Y13799103D01*
X5190254Y13953957D01*
X4932740Y14060623D01*
X4659365Y14115000D01*
X4380635Y14115000D01*
X4107260Y14060623D01*
X3849746Y13953957D01*
X3617990Y13799103D01*
X3420897Y13602010D01*
X3266043Y13370254D01*
X3250000Y13331523D01*
X3233957Y13370254D01*
X3079103Y13602010D01*
X2882010Y13799103D01*
X2650254Y13953957D01*
X2392740Y14060623D01*
X2119365Y14115000D01*
X1840635Y14115000D01*
X1567260Y14060623D01*
X1309746Y13953957D01*
X1077990Y13799103D01*
X880897Y13602010D01*
X726043Y13370254D01*
X710000Y13331523D01*
X693957Y13370254D01*
X539103Y13602010D01*
X342010Y13799103D01*
X110254Y13953957D01*
X-147260Y14060623D01*
X-420635Y14115000D01*
X-699365Y14115000D01*
X-972740Y14060623D01*
X-1230254Y13953957D01*
X-1462010Y13799103D01*
X-1659103Y13602010D01*
X-1813957Y13370254D01*
X-1830000Y13331523D01*
X-1846043Y13370254D01*
X-2000897Y13602010D01*
X-2197990Y13799103D01*
X-2429746Y13953957D01*
X-2687260Y14060623D01*
X-2960635Y14115000D01*
X-3239365Y14115000D01*
X-3512740Y14060623D01*
X-3770254Y13953957D01*
X-4002010Y13799103D01*
X-4199103Y13602010D01*
X-4353957Y13370254D01*
X-4370000Y13331523D01*
X-4386043Y13370254D01*
X-4540897Y13602010D01*
X-4737990Y13799103D01*
X-4969746Y13953957D01*
X-5227260Y14060623D01*
X-5500635Y14115000D01*
X-5779365Y14115000D01*
X-6052740Y14060623D01*
X-6310254Y13953957D01*
X-6542010Y13799103D01*
X-6739103Y13602010D01*
X-6893957Y13370254D01*
X-6910000Y13331523D01*
X-6926043Y13370254D01*
X-7080897Y13602010D01*
X-7277990Y13799103D01*
X-7509746Y13953957D01*
X-7767260Y14060623D01*
X-8040635Y14115000D01*
X-8319365Y14115000D01*
X-8592740Y14060623D01*
X-8850254Y13953957D01*
X-9082010Y13799103D01*
X-9279103Y13602010D01*
X-9433957Y13370254D01*
X-9450000Y13331523D01*
X-9466043Y13370254D01*
X-9620897Y13602010D01*
X-9817990Y13799103D01*
X-10049746Y13953957D01*
X-10307260Y14060623D01*
X-10580635Y14115000D01*
X-10859365Y14115000D01*
X-11132740Y14060623D01*
X-11390254Y13953957D01*
X-11622010Y13799103D01*
X-11819103Y13602010D01*
X-11973957Y13370254D01*
X-11990000Y13331523D01*
X-12006043Y13370254D01*
X-12160897Y13602010D01*
X-12357990Y13799103D01*
X-12589746Y13953957D01*
X-12847260Y14060623D01*
X-13120635Y14115000D01*
X-13399365Y14115000D01*
X-13672740Y14060623D01*
X-13930254Y13953957D01*
X-14162010Y13799103D01*
X-14359103Y13602010D01*
X-14513957Y13370254D01*
X-14530000Y13331523D01*
X-14546043Y13370254D01*
X-14700897Y13602010D01*
X-14897990Y13799103D01*
X-15129746Y13953957D01*
X-15387260Y14060623D01*
X-15660635Y14115000D01*
X-15939365Y14115000D01*
X-16212740Y14060623D01*
X-16470254Y13953957D01*
X-16702010Y13799103D01*
X-16899103Y13602010D01*
X-17053957Y13370254D01*
X-17070000Y13331523D01*
X-17086043Y13370254D01*
X-17240897Y13602010D01*
X-17437990Y13799103D01*
X-17669746Y13953957D01*
X-17927260Y14060623D01*
X-18200635Y14115000D01*
X-18479365Y14115000D01*
X-18752740Y14060623D01*
X-19010254Y13953957D01*
X-19242010Y13799103D01*
X-19439103Y13602010D01*
X-19593957Y13370254D01*
X-19610000Y13331523D01*
X-19626043Y13370254D01*
X-19780897Y13602010D01*
X-19977990Y13799103D01*
X-20209746Y13953957D01*
X-20467260Y14060623D01*
X-20740635Y14115000D01*
X-21019365Y14115000D01*
X-21292740Y14060623D01*
X-21550254Y13953957D01*
X-21782010Y13799103D01*
X-21979103Y13602010D01*
X-22133957Y13370254D01*
X-22150000Y13331523D01*
X-22166043Y13370254D01*
X-22320897Y13602010D01*
X-22517990Y13799103D01*
X-22749746Y13953957D01*
X-23007260Y14060623D01*
X-23280635Y14115000D01*
X-23559365Y14115000D01*
X-23832740Y14060623D01*
X-24090254Y13953957D01*
X-24322010Y13799103D01*
X-24519103Y13602010D01*
X-24673957Y13370254D01*
X-24690000Y13331523D01*
X-24706043Y13370254D01*
X-24860897Y13602010D01*
X-25057990Y13799103D01*
X-25289746Y13953957D01*
X-25547260Y14060623D01*
X-25820635Y14115000D01*
X-26099365Y14115000D01*
X-26372740Y14060623D01*
X-26630254Y13953957D01*
X-26775200Y13857107D01*
X-26775200Y20156800D01*
X-24336808Y20156800D01*
X-24553646Y20011914D01*
X-24553646Y20011914D01*
G37*
X-24553646Y20011914D02*
X-24990314Y19575246D01*
X-25333401Y19061779D01*
X-25569724Y18491246D01*
X-25690200Y17885571D01*
X-25690200Y17268029D01*
X-25569724Y16662354D01*
X-25333401Y16091821D01*
X-24990314Y15578354D01*
X-24553646Y15141686D01*
X-24040179Y14798599D01*
X-23469646Y14562276D01*
X-22863971Y14441800D01*
X-22246429Y14441800D01*
X-21640754Y14562276D01*
X-21070221Y14798599D01*
X-20556754Y15141686D01*
X-20120086Y15578354D01*
X-19776999Y16091821D01*
X-19540676Y16662354D01*
X-19420200Y17268029D01*
X-19420200Y17885571D01*
X-19540676Y18491246D01*
X-19776999Y19061779D01*
X-20120086Y19575246D01*
X-20556754Y20011914D01*
X-20773592Y20156800D01*
X16303192Y20156800D01*
X16086354Y20011914D01*
X15649686Y19575246D01*
X15306599Y19061779D01*
X15070276Y18491246D01*
X14949800Y17885571D01*
X14949800Y17268029D01*
X15070276Y16662354D01*
X15306599Y16091821D01*
X15649686Y15578354D01*
X16086354Y15141686D01*
X16599821Y14798599D01*
X17170354Y14562276D01*
X17776029Y14441800D01*
X18393571Y14441800D01*
X18999246Y14562276D01*
X19569779Y14798599D01*
X20083246Y15141686D01*
X20519914Y15578354D01*
X20863001Y16091821D01*
X21099324Y16662354D01*
X21219800Y17268029D01*
X21219800Y17885571D01*
X21099324Y18491246D01*
X20863001Y19061779D01*
X20519914Y19575246D01*
X20083246Y20011914D01*
X19866408Y20156800D01*
X44904800Y20156800D01*
X44904801Y-20523200D01*
X19926273Y-20523200D01*
X20083246Y-20418314D01*
X20519914Y-19981646D01*
X20863001Y-19468179D01*
X21099324Y-18897646D01*
X21219800Y-18291971D01*
X21219800Y-17674429D01*
X21099324Y-17068754D01*
X20863001Y-16498221D01*
X20519914Y-15984754D01*
X20083246Y-15548086D01*
X19978655Y-15478200D01*
X41961728Y-15478200D01*
X41961728Y-17128200D01*
X41973988Y-17252682D01*
X42010298Y-17372380D01*
X42069263Y-17482694D01*
X42148615Y-17579385D01*
X42245306Y-17658737D01*
X42355620Y-17717702D01*
X42475318Y-17754012D01*
X42599800Y-17766272D01*
X44249800Y-17766272D01*
X44374282Y-17754012D01*
X44493980Y-17717702D01*
X44604294Y-17658737D01*
X44700985Y-17579385D01*
X44780337Y-17482694D01*
X44839302Y-17372380D01*
X44875612Y-17252682D01*
X44887872Y-17128200D01*
X44887872Y-15478200D01*
X44875612Y-15353718D01*
X44839302Y-15234020D01*
X44780337Y-15123706D01*
X44700985Y-15027015D01*
X44604294Y-14947663D01*
X44493980Y-14888698D01*
X44374282Y-14852388D01*
X44249800Y-14840128D01*
X44235657Y-14840128D01*
X44255746Y-14773751D01*
X43424800Y-13942805D01*
X42593854Y-14773751D01*
X42613943Y-14840128D01*
X42599800Y-14840128D01*
X42475318Y-14852388D01*
X42355620Y-14888698D01*
X42245306Y-14947663D01*
X42148615Y-15027015D01*
X42069263Y-15123706D01*
X42010298Y-15234020D01*
X41973988Y-15353718D01*
X41961728Y-15478200D01*
X19978655Y-15478200D01*
X19569779Y-15204999D01*
X18999246Y-14968676D01*
X18393571Y-14848200D01*
X17776029Y-14848200D01*
X17170354Y-14968676D01*
X16599821Y-15204999D01*
X16086354Y-15548086D01*
X15649686Y-15984754D01*
X15306599Y-16498221D01*
X15070276Y-17068754D01*
X14949800Y-17674429D01*
X14949800Y-18291971D01*
X15070276Y-18897646D01*
X15306599Y-19468179D01*
X15649686Y-19981646D01*
X16086354Y-20418314D01*
X16243327Y-20523200D01*
X-20713727Y-20523200D01*
X-20556754Y-20418314D01*
X-20120086Y-19981646D01*
X-19776999Y-19468179D01*
X-19540676Y-18897646D01*
X-19420200Y-18291971D01*
X-19420200Y-17674429D01*
X-19540676Y-17068754D01*
X-19776999Y-16498221D01*
X-20120086Y-15984754D01*
X-20556754Y-15548086D01*
X-21070221Y-15204999D01*
X-21640754Y-14968676D01*
X-22246429Y-14848200D01*
X-22863971Y-14848200D01*
X-23469646Y-14968676D01*
X-24040179Y-15204999D01*
X-24553646Y-15548086D01*
X-24990314Y-15984754D01*
X-25333401Y-16498221D01*
X-25569724Y-17068754D01*
X-25690200Y-17674429D01*
X-25690200Y-18291971D01*
X-25569724Y-18897646D01*
X-25333401Y-19468179D01*
X-24990314Y-19981646D01*
X-24553646Y-20418314D01*
X-24396673Y-20523200D01*
X-26775200Y-20523200D01*
X-26775200Y-13857107D01*
X-26630254Y-13953957D01*
X-26372740Y-14060623D01*
X-26099365Y-14115000D01*
X-25820635Y-14115000D01*
X-25547260Y-14060623D01*
X-25289746Y-13953957D01*
X-25057990Y-13799103D01*
X-24860897Y-13602010D01*
X-24706043Y-13370254D01*
X-24690000Y-13331523D01*
X-24673957Y-13370254D01*
X-24519103Y-13602010D01*
X-24322010Y-13799103D01*
X-24090254Y-13953957D01*
X-23832740Y-14060623D01*
X-23559365Y-14115000D01*
X-23280635Y-14115000D01*
X-23007260Y-14060623D01*
X-22749746Y-13953957D01*
X-22517990Y-13799103D01*
X-22320897Y-13602010D01*
X-22166043Y-13370254D01*
X-22150000Y-13331523D01*
X-22133957Y-13370254D01*
X-21979103Y-13602010D01*
X-21782010Y-13799103D01*
X-21550254Y-13953957D01*
X-21292740Y-14060623D01*
X-21019365Y-14115000D01*
X-20740635Y-14115000D01*
X-20467260Y-14060623D01*
X-20209746Y-13953957D01*
X-19977990Y-13799103D01*
X-19780897Y-13602010D01*
X-19626043Y-13370254D01*
X-19610000Y-13331523D01*
X-19593957Y-13370254D01*
X-19439103Y-13602010D01*
X-19242010Y-13799103D01*
X-19010254Y-13953957D01*
X-18752740Y-14060623D01*
X-18479365Y-14115000D01*
X-18200635Y-14115000D01*
X-17927260Y-14060623D01*
X-17669746Y-13953957D01*
X-17437990Y-13799103D01*
X-17240897Y-13602010D01*
X-17086043Y-13370254D01*
X-17070000Y-13331523D01*
X-17053957Y-13370254D01*
X-16899103Y-13602010D01*
X-16702010Y-13799103D01*
X-16470254Y-13953957D01*
X-16212740Y-14060623D01*
X-15939365Y-14115000D01*
X-15660635Y-14115000D01*
X-15387260Y-14060623D01*
X-15129746Y-13953957D01*
X-14897990Y-13799103D01*
X-14700897Y-13602010D01*
X-14546043Y-13370254D01*
X-14530000Y-13331523D01*
X-14513957Y-13370254D01*
X-14359103Y-13602010D01*
X-14162010Y-13799103D01*
X-13930254Y-13953957D01*
X-13672740Y-14060623D01*
X-13399365Y-14115000D01*
X-13120635Y-14115000D01*
X-12847260Y-14060623D01*
X-12589746Y-13953957D01*
X-12357990Y-13799103D01*
X-12160897Y-13602010D01*
X-12006043Y-13370254D01*
X-11990000Y-13331523D01*
X-11973957Y-13370254D01*
X-11819103Y-13602010D01*
X-11622010Y-13799103D01*
X-11390254Y-13953957D01*
X-11132740Y-14060623D01*
X-10859365Y-14115000D01*
X-10580635Y-14115000D01*
X-10307260Y-14060623D01*
X-10049746Y-13953957D01*
X-9817990Y-13799103D01*
X-9620897Y-13602010D01*
X-9466043Y-13370254D01*
X-9450000Y-13331523D01*
X-9433957Y-13370254D01*
X-9279103Y-13602010D01*
X-9082010Y-13799103D01*
X-8850254Y-13953957D01*
X-8592740Y-14060623D01*
X-8319365Y-14115000D01*
X-8040635Y-14115000D01*
X-7767260Y-14060623D01*
X-7509746Y-13953957D01*
X-7277990Y-13799103D01*
X-7080897Y-13602010D01*
X-6926043Y-13370254D01*
X-6910000Y-13331523D01*
X-6893957Y-13370254D01*
X-6739103Y-13602010D01*
X-6542010Y-13799103D01*
X-6310254Y-13953957D01*
X-6052740Y-14060623D01*
X-5779365Y-14115000D01*
X-5500635Y-14115000D01*
X-5227260Y-14060623D01*
X-4969746Y-13953957D01*
X-4737990Y-13799103D01*
X-4540897Y-13602010D01*
X-4386043Y-13370254D01*
X-4370000Y-13331523D01*
X-4353957Y-13370254D01*
X-4199103Y-13602010D01*
X-4002010Y-13799103D01*
X-3770254Y-13953957D01*
X-3512740Y-14060623D01*
X-3239365Y-14115000D01*
X-2960635Y-14115000D01*
X-2687260Y-14060623D01*
X-2429746Y-13953957D01*
X-2197990Y-13799103D01*
X-2000897Y-13602010D01*
X-1846043Y-13370254D01*
X-1830000Y-13331523D01*
X-1813957Y-13370254D01*
X-1659103Y-13602010D01*
X-1462010Y-13799103D01*
X-1230254Y-13953957D01*
X-972740Y-14060623D01*
X-699365Y-14115000D01*
X-420635Y-14115000D01*
X-147260Y-14060623D01*
X110254Y-13953957D01*
X342010Y-13799103D01*
X539103Y-13602010D01*
X693957Y-13370254D01*
X710000Y-13331523D01*
X726043Y-13370254D01*
X880897Y-13602010D01*
X1077990Y-13799103D01*
X1309746Y-13953957D01*
X1567260Y-14060623D01*
X1840635Y-14115000D01*
X2119365Y-14115000D01*
X2392740Y-14060623D01*
X2650254Y-13953957D01*
X2882010Y-13799103D01*
X3079103Y-13602010D01*
X3233957Y-13370254D01*
X3250000Y-13331523D01*
X3266043Y-13370254D01*
X3420897Y-13602010D01*
X3617990Y-13799103D01*
X3849746Y-13953957D01*
X4107260Y-14060623D01*
X4380635Y-14115000D01*
X4659365Y-14115000D01*
X4932740Y-14060623D01*
X5190254Y-13953957D01*
X5422010Y-13799103D01*
X5619103Y-13602010D01*
X5773957Y-13370254D01*
X5790000Y-13331523D01*
X5806043Y-13370254D01*
X5960897Y-13602010D01*
X6157990Y-13799103D01*
X6389746Y-13953957D01*
X6647260Y-14060623D01*
X6920635Y-14115000D01*
X7199365Y-14115000D01*
X7472740Y-14060623D01*
X7730254Y-13953957D01*
X7962010Y-13799103D01*
X8159103Y-13602010D01*
X8313957Y-13370254D01*
X8330000Y-13331523D01*
X8346043Y-13370254D01*
X8500897Y-13602010D01*
X8697990Y-13799103D01*
X8929746Y-13953957D01*
X9187260Y-14060623D01*
X9460635Y-14115000D01*
X9739365Y-14115000D01*
X10012740Y-14060623D01*
X10270254Y-13953957D01*
X10502010Y-13799103D01*
X10699103Y-13602010D01*
X10853957Y-13370254D01*
X10870000Y-13331523D01*
X10886043Y-13370254D01*
X11040897Y-13602010D01*
X11237990Y-13799103D01*
X11469746Y-13953957D01*
X11727260Y-14060623D01*
X12000635Y-14115000D01*
X12279365Y-14115000D01*
X12552740Y-14060623D01*
X12810254Y-13953957D01*
X13042010Y-13799103D01*
X13239103Y-13602010D01*
X13393957Y-13370254D01*
X13410000Y-13331523D01*
X13426043Y-13370254D01*
X13580897Y-13602010D01*
X13777990Y-13799103D01*
X14009746Y-13953957D01*
X14267260Y-14060623D01*
X14540635Y-14115000D01*
X14819365Y-14115000D01*
X15092740Y-14060623D01*
X15350254Y-13953957D01*
X15582010Y-13799103D01*
X15779103Y-13602010D01*
X15933957Y-13370254D01*
X15950000Y-13331523D01*
X15966043Y-13370254D01*
X16120897Y-13602010D01*
X16317990Y-13799103D01*
X16549746Y-13953957D01*
X16807260Y-14060623D01*
X17080635Y-14115000D01*
X17359365Y-14115000D01*
X17632740Y-14060623D01*
X17890254Y-13953957D01*
X18122010Y-13799103D01*
X18242692Y-13678421D01*
X18961184Y-13678421D01*
X19030345Y-13920349D01*
X19282443Y-14039248D01*
X19552894Y-14106681D01*
X19831303Y-14120057D01*
X20106972Y-14078860D01*
X20369308Y-13984675D01*
X20489655Y-13920349D01*
X20514705Y-13832721D01*
X41959383Y-13832721D01*
X42001103Y-14117274D01*
X42097535Y-14388220D01*
X42167727Y-14519537D01*
X42414249Y-14594146D01*
X43245195Y-13763200D01*
X43604405Y-13763200D01*
X44435351Y-14594146D01*
X44681873Y-14519537D01*
X44805273Y-14259761D01*
X44875623Y-13980903D01*
X44890217Y-13693679D01*
X44848497Y-13409126D01*
X44752065Y-13138180D01*
X44681873Y-13006863D01*
X44435351Y-12932254D01*
X43604405Y-13763200D01*
X43245195Y-13763200D01*
X42414249Y-12932254D01*
X42167727Y-13006863D01*
X42044327Y-13266639D01*
X41973977Y-13545497D01*
X41959383Y-13832721D01*
X20514705Y-13832721D01*
X20558816Y-13678421D01*
X19760000Y-12879605D01*
X18961184Y-13678421D01*
X18242692Y-13678421D01*
X18319103Y-13602010D01*
X18473957Y-13370254D01*
X18488777Y-13334475D01*
X18539651Y-13429655D01*
X18781579Y-13498816D01*
X19580395Y-12700000D01*
X19939605Y-12700000D01*
X20738421Y-13498816D01*
X20980349Y-13429655D01*
X21099248Y-13177557D01*
X21166681Y-12907106D01*
X21180057Y-12628697D01*
X21138860Y-12353028D01*
X21044675Y-12090692D01*
X20980349Y-11970345D01*
X20738421Y-11901184D01*
X19939605Y-12700000D01*
X19580395Y-12700000D01*
X18781579Y-11901184D01*
X18539651Y-11970345D01*
X18491575Y-12072279D01*
X18473957Y-12029746D01*
X18319103Y-11797990D01*
X18242692Y-11721579D01*
X18961184Y-11721579D01*
X19760000Y-12520395D01*
X20558816Y-11721579D01*
X20489655Y-11479651D01*
X20237557Y-11360752D01*
X19967106Y-11293319D01*
X19688697Y-11279943D01*
X19413028Y-11321140D01*
X19150692Y-11415325D01*
X19030345Y-11479651D01*
X18961184Y-11721579D01*
X18242692Y-11721579D01*
X18122010Y-11600897D01*
X17890254Y-11446043D01*
X17632740Y-11339377D01*
X17359365Y-11285000D01*
X17080635Y-11285000D01*
X16807260Y-11339377D01*
X16549746Y-11446043D01*
X16317990Y-11600897D01*
X16120897Y-11797990D01*
X15966043Y-12029746D01*
X15950000Y-12068477D01*
X15933957Y-12029746D01*
X15779103Y-11797990D01*
X15582010Y-11600897D01*
X15350254Y-11446043D01*
X15109800Y-11346443D01*
X15109800Y-8359312D01*
X15294408Y-8207808D01*
X15445912Y-8023200D01*
X23223933Y-8023200D01*
X26985363Y-11784632D01*
X27011509Y-11816491D01*
X27043368Y-11842637D01*
X27043370Y-11842639D01*
X27138654Y-11920836D01*
X27283713Y-11998372D01*
X27441111Y-12046118D01*
X27604800Y-12062240D01*
X27645818Y-12058200D01*
X42226802Y-12058200D01*
X42290744Y-12153896D01*
X42494104Y-12357256D01*
X42695376Y-12491741D01*
X42668463Y-12506127D01*
X42593854Y-12752649D01*
X43424800Y-13583595D01*
X44255746Y-12752649D01*
X44181137Y-12506127D01*
X44152823Y-12492677D01*
X44355496Y-12357256D01*
X44558856Y-12153896D01*
X44718635Y-11914769D01*
X44828693Y-11649066D01*
X44884800Y-11366997D01*
X44884800Y-11079403D01*
X44828693Y-10797334D01*
X44718635Y-10531631D01*
X44558856Y-10292504D01*
X44355496Y-10089144D01*
X44152041Y-9953200D01*
X44355496Y-9817256D01*
X44558856Y-9613896D01*
X44718635Y-9374769D01*
X44828693Y-9109066D01*
X44884800Y-8826997D01*
X44884800Y-8539403D01*
X44828693Y-8257334D01*
X44718635Y-7991631D01*
X44558856Y-7752504D01*
X44355496Y-7549144D01*
X44152041Y-7413200D01*
X44355496Y-7277256D01*
X44558856Y-7073896D01*
X44718635Y-6834769D01*
X44828693Y-6569066D01*
X44884800Y-6286997D01*
X44884800Y-5999403D01*
X44828693Y-5717334D01*
X44718635Y-5451631D01*
X44558856Y-5212504D01*
X44355496Y-5009144D01*
X44152041Y-4873200D01*
X44355496Y-4737256D01*
X44558856Y-4533896D01*
X44718635Y-4294769D01*
X44828693Y-4029066D01*
X44884800Y-3746997D01*
X44884800Y-3459403D01*
X44828693Y-3177334D01*
X44718635Y-2911631D01*
X44558856Y-2672504D01*
X44355496Y-2469144D01*
X44154224Y-2334659D01*
X44181137Y-2320273D01*
X44255746Y-2073751D01*
X43424800Y-1242805D01*
X42593854Y-2073751D01*
X42668463Y-2320273D01*
X42696777Y-2333723D01*
X42494104Y-2469144D01*
X42290744Y-2672504D01*
X42130965Y-2911631D01*
X42020907Y-3177334D01*
X41964800Y-3459403D01*
X41964800Y-3746997D01*
X42020907Y-4029066D01*
X42130965Y-4294769D01*
X42290744Y-4533896D01*
X42494104Y-4737256D01*
X42697559Y-4873200D01*
X42494104Y-5009144D01*
X42290744Y-5212504D01*
X42226802Y-5308200D01*
X38975668Y-5308200D01*
X36484246Y-2816779D01*
X36458091Y-2784909D01*
X36330946Y-2680564D01*
X36185887Y-2603028D01*
X36028489Y-2555282D01*
X35905819Y-2543200D01*
X35905818Y-2543200D01*
X35864800Y-2539160D01*
X35823782Y-2543200D01*
X2885818Y-2543200D01*
X2844800Y-2539160D01*
X2803782Y-2543200D01*
X2803781Y-2543200D01*
X2681111Y-2555282D01*
X2523713Y-2603028D01*
X2378654Y-2680564D01*
X2302332Y-2743200D01*
X2251509Y-2784909D01*
X2225363Y-2816768D01*
X-3661421Y-8703554D01*
X-3693291Y-8729709D01*
X-3773132Y-8826997D01*
X-3797636Y-8856855D01*
X-3875172Y-9001914D01*
X-3922918Y-9159312D01*
X-3939040Y-9323000D01*
X-3935000Y-9364019D01*
X-3934999Y-11556122D01*
X-4002010Y-11600897D01*
X-4199103Y-11797990D01*
X-4353957Y-12029746D01*
X-4370000Y-12068477D01*
X-4386043Y-12029746D01*
X-4540897Y-11797990D01*
X-4737990Y-11600897D01*
X-4969746Y-11446043D01*
X-5227260Y-11339377D01*
X-5500635Y-11285000D01*
X-5779365Y-11285000D01*
X-6052740Y-11339377D01*
X-6310254Y-11446043D01*
X-6542010Y-11600897D01*
X-6739103Y-11797990D01*
X-6893957Y-12029746D01*
X-6910000Y-12068477D01*
X-6926043Y-12029746D01*
X-7080897Y-11797990D01*
X-7277990Y-11600897D01*
X-7509746Y-11446043D01*
X-7767260Y-11339377D01*
X-8040635Y-11285000D01*
X-8319365Y-11285000D01*
X-8592740Y-11339377D01*
X-8850254Y-11446043D01*
X-9082010Y-11600897D01*
X-9279103Y-11797990D01*
X-9433957Y-12029746D01*
X-9450000Y-12068477D01*
X-9466043Y-12029746D01*
X-9620897Y-11797990D01*
X-9817990Y-11600897D01*
X-10049746Y-11446043D01*
X-10307260Y-11339377D01*
X-10580635Y-11285000D01*
X-10859365Y-11285000D01*
X-11132740Y-11339377D01*
X-11390254Y-11446043D01*
X-11622010Y-11600897D01*
X-11819103Y-11797990D01*
X-11973957Y-12029746D01*
X-11990000Y-12068477D01*
X-12006043Y-12029746D01*
X-12160897Y-11797990D01*
X-12357990Y-11600897D01*
X-12589746Y-11446043D01*
X-12847260Y-11339377D01*
X-13120635Y-11285000D01*
X-13399365Y-11285000D01*
X-13672740Y-11339377D01*
X-13930254Y-11446043D01*
X-14162010Y-11600897D01*
X-14359103Y-11797990D01*
X-14513957Y-12029746D01*
X-14530000Y-12068477D01*
X-14546043Y-12029746D01*
X-14700897Y-11797990D01*
X-14897990Y-11600897D01*
X-15129746Y-11446043D01*
X-15387260Y-11339377D01*
X-15660635Y-11285000D01*
X-15939365Y-11285000D01*
X-16212740Y-11339377D01*
X-16470254Y-11446043D01*
X-16702010Y-11600897D01*
X-16899103Y-11797990D01*
X-17053957Y-12029746D01*
X-17070000Y-12068477D01*
X-17086043Y-12029746D01*
X-17240897Y-11797990D01*
X-17437990Y-11600897D01*
X-17669746Y-11446043D01*
X-17927260Y-11339377D01*
X-18200635Y-11285000D01*
X-18479365Y-11285000D01*
X-18752740Y-11339377D01*
X-19010254Y-11446043D01*
X-19242010Y-11600897D01*
X-19439103Y-11797990D01*
X-19593957Y-12029746D01*
X-19610000Y-12068477D01*
X-19626043Y-12029746D01*
X-19780897Y-11797990D01*
X-19977990Y-11600897D01*
X-20209746Y-11446043D01*
X-20467260Y-11339377D01*
X-20740635Y-11285000D01*
X-21019365Y-11285000D01*
X-21292740Y-11339377D01*
X-21550254Y-11446043D01*
X-21782010Y-11600897D01*
X-21979103Y-11797990D01*
X-22133957Y-12029746D01*
X-22150000Y-12068477D01*
X-22166043Y-12029746D01*
X-22320897Y-11797990D01*
X-22517990Y-11600897D01*
X-22749746Y-11446043D01*
X-23007260Y-11339377D01*
X-23280635Y-11285000D01*
X-23559365Y-11285000D01*
X-23832740Y-11339377D01*
X-24090254Y-11446043D01*
X-24322010Y-11600897D01*
X-24519103Y-11797990D01*
X-24673957Y-12029746D01*
X-24690000Y-12068477D01*
X-24706043Y-12029746D01*
X-24860897Y-11797990D01*
X-25057990Y-11600897D01*
X-25289746Y-11446043D01*
X-25547260Y-11339377D01*
X-25820635Y-11285000D01*
X-26099365Y-11285000D01*
X-26372740Y-11339377D01*
X-26630254Y-11446043D01*
X-26775200Y-11542893D01*
X-26775200Y11542893D01*
X-26630254Y11446043D01*
X-26372740Y11339377D01*
X-26099365Y11285000D01*
X-25820635Y11285000D01*
X-25547260Y11339377D01*
X-25289746Y11446043D01*
X-25057990Y11600897D01*
X-24860897Y11797990D01*
X-24706043Y12029746D01*
X-24690000Y12068477D01*
X-24673957Y12029746D01*
X-24519103Y11797990D01*
X-24322010Y11600897D01*
X-24090254Y11446043D01*
X-23832740Y11339377D01*
X-23559365Y11285000D01*
X-23280635Y11285000D01*
X-23007260Y11339377D01*
X-22749746Y11446043D01*
X-22517990Y11600897D01*
X-22320897Y11797990D01*
X-22166043Y12029746D01*
X-22150000Y12068477D01*
X-22133957Y12029746D01*
X-21979103Y11797990D01*
X-21782010Y11600897D01*
X-21550254Y11446043D01*
X-21503797Y11426800D01*
X-21879182Y11426800D01*
X-21920201Y11430840D01*
X-21961219Y11426800D01*
X-22083889Y11414718D01*
X-22241287Y11366972D01*
X-22386346Y11289436D01*
X-22513491Y11185091D01*
X-22539639Y11153229D01*
X-25656621Y8036246D01*
X-25688491Y8010091D01*
X-25770251Y7910465D01*
X-25792836Y7882945D01*
X-25870372Y7737886D01*
X-25918118Y7580488D01*
X-25934240Y7416800D01*
X-25930200Y7375781D01*
X-25930199Y-2702171D01*
X-25934240Y-2743200D01*
X-25918118Y-2906888D01*
X-25870372Y-3064286D01*
X-25792836Y-3209345D01*
X-25769293Y-3238032D01*
X-25688490Y-3336491D01*
X-25656626Y-3362641D01*
X-23018215Y-6001053D01*
X-23015171Y-6011088D01*
X-22937635Y-6156147D01*
X-22858552Y-6252510D01*
X-22881943Y-6490000D01*
X-22854236Y-6771309D01*
X-22772182Y-7041808D01*
X-22638932Y-7291101D01*
X-22459608Y-7509608D01*
X-22241101Y-7688932D01*
X-21991808Y-7822182D01*
X-21721309Y-7904236D01*
X-21510492Y-7925000D01*
X-21369508Y-7925000D01*
X-21158691Y-7904236D01*
X-20888192Y-7822182D01*
X-20638899Y-7688932D01*
X-20420392Y-7509608D01*
X-20241068Y-7291101D01*
X-20107818Y-7041808D01*
X-20025764Y-6771309D01*
X-19998057Y-6490000D01*
X-20025764Y-6208691D01*
X-20107818Y-5938192D01*
X-20241068Y-5688899D01*
X-20420392Y-5470392D01*
X-20638899Y-5291068D01*
X-20888192Y-5157818D01*
X-21158691Y-5075764D01*
X-21369508Y-5055000D01*
X-21510492Y-5055000D01*
X-21598639Y-5063682D01*
X-21646708Y-5005110D01*
X-21678571Y-4978961D01*
X-24260200Y-2397333D01*
X-24260200Y149333D01*
X-22858534Y-1252333D01*
X-22881943Y-1490000D01*
X-22854236Y-1771309D01*
X-22772182Y-2041808D01*
X-22638932Y-2291101D01*
X-22459608Y-2509608D01*
X-22241101Y-2688932D01*
X-21991808Y-2822182D01*
X-21721309Y-2904236D01*
X-21510492Y-2925000D01*
X-21369508Y-2925000D01*
X-21158691Y-2904236D01*
X-20888192Y-2822182D01*
X-20638899Y-2688932D01*
X-20420392Y-2509608D01*
X-20241068Y-2291101D01*
X-20107818Y-2041808D01*
X-20025764Y-1771309D01*
X-19998057Y-1490000D01*
X-20025764Y-1208691D01*
X-20107818Y-938192D01*
X-20241068Y-688899D01*
X-20420392Y-470392D01*
X-20638899Y-291068D01*
X-20888192Y-157818D01*
X-21158691Y-75764D01*
X-21369508Y-55000D01*
X-21510492Y-55000D01*
X-21677667Y-71466D01*
X-22990200Y1241067D01*
X-22990200Y6435933D01*
X-20939332Y8486800D01*
X-9331068Y8486800D01*
X-12972867Y4845000D01*
X-20268888Y4845000D01*
X-20420392Y5029608D01*
X-20638899Y5208932D01*
X-20888192Y5342182D01*
X-21158691Y5424236D01*
X-21369508Y5445000D01*
X-21510492Y5445000D01*
X-21721309Y5424236D01*
X-21991808Y5342182D01*
X-22241101Y5208932D01*
X-22459608Y5029608D01*
X-22638932Y4811101D01*
X-22772182Y4561808D01*
X-22854236Y4291309D01*
X-22881943Y4010000D01*
X-22854236Y3728691D01*
X-22772182Y3458192D01*
X-22638932Y3208899D01*
X-22459608Y2990392D01*
X-22241101Y2811068D01*
X-21991808Y2677818D01*
X-21721309Y2595764D01*
X-21510492Y2575000D01*
X-21369508Y2575000D01*
X-21158691Y2595764D01*
X-20888192Y2677818D01*
X-20638899Y2811068D01*
X-20420392Y2990392D01*
X-20268888Y3175000D01*
X-12668018Y3175000D01*
X-12627000Y3170960D01*
X-12585982Y3175000D01*
X-12585981Y3175000D01*
X-12463311Y3187082D01*
X-12305913Y3234828D01*
X-12160854Y3312364D01*
X-12033709Y3416709D01*
X-12007554Y3448579D01*
X-8239332Y7216800D01*
X-4174068Y7216800D01*
X-5964582Y5426285D01*
X-6058665Y5445000D01*
X-6341335Y5445000D01*
X-6618574Y5389853D01*
X-6879727Y5281680D01*
X-7114759Y5124637D01*
X-7314637Y4924759D01*
X-7471680Y4689727D01*
X-7579853Y4428574D01*
X-7635000Y4151335D01*
X-7635000Y3868665D01*
X-7579853Y3591426D01*
X-7471680Y3330273D01*
X-7314637Y3095241D01*
X-7114759Y2895363D01*
X-6879727Y2738320D01*
X-6618574Y2630147D01*
X-6341335Y2575000D01*
X-6058665Y2575000D01*
X-5781426Y2630147D01*
X-5520273Y2738320D01*
X-5285241Y2895363D01*
X-5085363Y3095241D01*
X-4928320Y3330273D01*
X-4820147Y3591426D01*
X-4765000Y3868665D01*
X-4765000Y4151335D01*
X-4783715Y4245418D01*
X-3082332Y5946800D01*
X-1171044Y5946800D01*
X-1085594Y5861350D01*
X-891508Y5731666D01*
X-675852Y5642339D01*
X-446912Y5596800D01*
X-213488Y5596800D01*
X15452Y5642339D01*
X231108Y5731666D01*
X304800Y5780905D01*
X378492Y5731666D01*
X594148Y5642339D01*
X823088Y5596800D01*
X837302Y5596800D01*
X-5210051Y-450553D01*
X-5285241Y-375363D01*
X-5520273Y-218320D01*
X-5781426Y-110147D01*
X-6058665Y-55000D01*
X-6341335Y-55000D01*
X-6618574Y-110147D01*
X-6879727Y-218320D01*
X-7114759Y-375363D01*
X-7314637Y-575241D01*
X-7471680Y-810273D01*
X-7579853Y-1071426D01*
X-7635000Y-1348665D01*
X-7635000Y-1631335D01*
X-7579853Y-1908574D01*
X-7471680Y-2169727D01*
X-7314637Y-2404759D01*
X-7114759Y-2604637D01*
X-6879727Y-2761680D01*
X-6618574Y-2869853D01*
X-6341335Y-2925000D01*
X-6058665Y-2925000D01*
X-5781426Y-2869853D01*
X-5520273Y-2761680D01*
X-5285241Y-2604637D01*
X-5085363Y-2404759D01*
X-5032384Y-2325470D01*
X-5027612Y-2325000D01*
X-5027611Y-2325000D01*
X-4904941Y-2312918D01*
X-4747543Y-2265172D01*
X-4602484Y-2187636D01*
X-4475339Y-2083291D01*
X-4449184Y-2051421D01*
X2644801Y5042563D01*
X2644801Y4587669D01*
X-6761421Y-4818554D01*
X-6793291Y-4844709D01*
X-6850836Y-4914829D01*
X-6897636Y-4971855D01*
X-6975172Y-5116914D01*
X-7022918Y-5274312D01*
X-7027102Y-5316793D01*
X-7114759Y-5375363D01*
X-7314637Y-5575241D01*
X-7471680Y-5810273D01*
X-7579853Y-6071426D01*
X-7635000Y-6348665D01*
X-7635000Y-6631335D01*
X-7579853Y-6908574D01*
X-7471680Y-7169727D01*
X-7314637Y-7404759D01*
X-7114759Y-7604637D01*
X-6879727Y-7761680D01*
X-6618574Y-7869853D01*
X-6341335Y-7925000D01*
X-6058665Y-7925000D01*
X-5781426Y-7869853D01*
X-5520273Y-7761680D01*
X-5285241Y-7604637D01*
X-5085363Y-7404759D01*
X-4928320Y-7169727D01*
X-4820147Y-6908574D01*
X-4765000Y-6631335D01*
X-4765000Y-6348665D01*
X-4820147Y-6071426D01*
X-4928320Y-5810273D01*
X-5085363Y-5575241D01*
X-5120868Y-5539736D01*
X-713853Y-1132721D01*
X41959383Y-1132721D01*
X42001103Y-1417274D01*
X42097535Y-1688220D01*
X42167727Y-1819537D01*
X42414249Y-1894146D01*
X43245195Y-1063200D01*
X43604405Y-1063200D01*
X44435351Y-1894146D01*
X44681873Y-1819537D01*
X44805273Y-1559761D01*
X44875623Y-1280903D01*
X44890217Y-993679D01*
X44848497Y-709126D01*
X44752065Y-438180D01*
X44681873Y-306863D01*
X44435351Y-232254D01*
X43604405Y-1063200D01*
X43245195Y-1063200D01*
X42414249Y-232254D01*
X42167727Y-306863D01*
X42044327Y-566639D01*
X41973977Y-845497D01*
X41959383Y-1132721D01*
X-713853Y-1132721D01*
X366219Y-52649D01*
X42593854Y-52649D01*
X43424800Y-883595D01*
X44255746Y-52649D01*
X44181137Y193873D01*
X43921361Y317273D01*
X43642503Y387623D01*
X43355279Y402217D01*
X43070726Y360497D01*
X42799780Y264065D01*
X42668463Y193873D01*
X42593854Y-52649D01*
X366219Y-52649D01*
X4041227Y3622359D01*
X4073091Y3648509D01*
X4177436Y3775654D01*
X4254972Y3920713D01*
X4302718Y4078111D01*
X4314800Y4200781D01*
X4314800Y4200791D01*
X4318839Y4241799D01*
X4314800Y4282807D01*
X4314800Y5940956D01*
X4400250Y6026406D01*
X4529934Y6220492D01*
X4619261Y6436148D01*
X4664800Y6665088D01*
X4664800Y6898512D01*
X4619261Y7127452D01*
X4618614Y7129015D01*
X4715311Y7099682D01*
X4878999Y7083560D01*
X4920018Y7087600D01*
X6629870Y7087600D01*
X6683163Y7007841D01*
X6883041Y6807963D01*
X7118073Y6650920D01*
X7379226Y6542747D01*
X7656465Y6487600D01*
X7939135Y6487600D01*
X8216374Y6542747D01*
X8477527Y6650920D01*
X8712559Y6807963D01*
X8912437Y7007841D01*
X8965730Y7087600D01*
X13209604Y7087600D01*
X13360041Y6937163D01*
X13595073Y6780120D01*
X13856226Y6671947D01*
X14133465Y6616800D01*
X14416135Y6616800D01*
X14693374Y6671947D01*
X14954527Y6780120D01*
X15189559Y6937163D01*
X15389437Y7137041D01*
X15442730Y7216800D01*
X16250782Y7216800D01*
X16291800Y7212760D01*
X16332818Y7216800D01*
X16332819Y7216800D01*
X16455489Y7228882D01*
X16612887Y7276628D01*
X16757946Y7354164D01*
X16885091Y7458509D01*
X16911246Y7490379D01*
X20321427Y10900559D01*
X20353291Y10926709D01*
X20457636Y11053854D01*
X20535172Y11198913D01*
X20560981Y11283994D01*
X20664482Y11294188D01*
X20784180Y11330498D01*
X20894494Y11389463D01*
X20991185Y11468815D01*
X21070537Y11565506D01*
X21129502Y11675820D01*
X21165812Y11795518D01*
X21178072Y11920000D01*
X21178072Y13480000D01*
X21165812Y13604482D01*
X21129502Y13724180D01*
X21070537Y13834494D01*
X20991185Y13931185D01*
X20894494Y14010537D01*
X20784180Y14069502D01*
X20664482Y14105812D01*
X20540000Y14118072D01*
X18980000Y14118072D01*
X18855518Y14105812D01*
X18735820Y14069502D01*
X18625506Y14010537D01*
X18528815Y13931185D01*
X18449463Y13834494D01*
X18390498Y13724180D01*
X18354188Y13604482D01*
X18349469Y13556564D01*
X18319103Y13602010D01*
X18122010Y13799103D01*
X17890254Y13953957D01*
X17632740Y14060623D01*
X17359365Y14115000D01*
X17080635Y14115000D01*
X16807260Y14060623D01*
X16549746Y13953957D01*
X16317990Y13799103D01*
X16120897Y13602010D01*
X15966043Y13370254D01*
X15950000Y13331523D01*
X15933957Y13370254D01*
X15779103Y13602010D01*
X15582010Y13799103D01*
X15350254Y13953957D01*
X15092740Y14060623D01*
X14819365Y14115000D01*
X14540635Y14115000D01*
X14267260Y14060623D01*
X14009746Y13953957D01*
X13777990Y13799103D01*
X13580897Y13602010D01*
X13426043Y13370254D01*
X13410000Y13331523D01*
X13393957Y13370254D01*
X13239103Y13602010D01*
X13042010Y13799103D01*
X12810254Y13953957D01*
X12552740Y14060623D01*
X12279365Y14115000D01*
X12000635Y14115000D01*
X11727260Y14060623D01*
X11469746Y13953957D01*
X11237990Y13799103D01*
X11040897Y13602010D01*
X10886043Y13370254D01*
X10870000Y13331523D01*
X10853957Y13370254D01*
X10699103Y13602010D01*
X10502010Y13799103D01*
X10270254Y13953957D01*
X10012740Y14060623D01*
X9739365Y14115000D01*
X9460635Y14115000D01*
X9187260Y14060623D01*
X8929746Y13953957D01*
X8697990Y13799103D01*
X8500897Y13602010D01*
X8346043Y13370254D01*
X8330000Y13331523D01*
X8313957Y13370254D01*
X8159103Y13602010D01*
X7962010Y13799103D01*
X7730254Y13953957D01*
X7472740Y14060623D01*
X7199365Y14115000D01*
X6920635Y14115000D01*
X6647260Y14060623D01*
X6389746Y13953957D01*
X6157990Y13799103D01*
X5960897Y13602010D01*
X5806043Y13370254D01*
X5790000Y13331523D01*
X5773957Y13370254D01*
X5619103Y13602010D01*
X5422010Y13799103D01*
X5190254Y13953957D01*
X4932740Y14060623D01*
X4659365Y14115000D01*
X4380635Y14115000D01*
X4107260Y14060623D01*
X3849746Y13953957D01*
X3617990Y13799103D01*
X3420897Y13602010D01*
X3266043Y13370254D01*
X3250000Y13331523D01*
X3233957Y13370254D01*
X3079103Y13602010D01*
X2882010Y13799103D01*
X2650254Y13953957D01*
X2392740Y14060623D01*
X2119365Y14115000D01*
X1840635Y14115000D01*
X1567260Y14060623D01*
X1309746Y13953957D01*
X1077990Y13799103D01*
X880897Y13602010D01*
X726043Y13370254D01*
X710000Y13331523D01*
X693957Y13370254D01*
X539103Y13602010D01*
X342010Y13799103D01*
X110254Y13953957D01*
X-147260Y14060623D01*
X-420635Y14115000D01*
X-699365Y14115000D01*
X-972740Y14060623D01*
X-1230254Y13953957D01*
X-1462010Y13799103D01*
X-1659103Y13602010D01*
X-1813957Y13370254D01*
X-1830000Y13331523D01*
X-1846043Y13370254D01*
X-2000897Y13602010D01*
X-2197990Y13799103D01*
X-2429746Y13953957D01*
X-2687260Y14060623D01*
X-2960635Y14115000D01*
X-3239365Y14115000D01*
X-3512740Y14060623D01*
X-3770254Y13953957D01*
X-4002010Y13799103D01*
X-4199103Y13602010D01*
X-4353957Y13370254D01*
X-4370000Y13331523D01*
X-4386043Y13370254D01*
X-4540897Y13602010D01*
X-4737990Y13799103D01*
X-4969746Y13953957D01*
X-5227260Y14060623D01*
X-5500635Y14115000D01*
X-5779365Y14115000D01*
X-6052740Y14060623D01*
X-6310254Y13953957D01*
X-6542010Y13799103D01*
X-6739103Y13602010D01*
X-6893957Y13370254D01*
X-6910000Y13331523D01*
X-6926043Y13370254D01*
X-7080897Y13602010D01*
X-7277990Y13799103D01*
X-7509746Y13953957D01*
X-7767260Y14060623D01*
X-8040635Y14115000D01*
X-8319365Y14115000D01*
X-8592740Y14060623D01*
X-8850254Y13953957D01*
X-9082010Y13799103D01*
X-9279103Y13602010D01*
X-9433957Y13370254D01*
X-9450000Y13331523D01*
X-9466043Y13370254D01*
X-9620897Y13602010D01*
X-9817990Y13799103D01*
X-10049746Y13953957D01*
X-10307260Y14060623D01*
X-10580635Y14115000D01*
X-10859365Y14115000D01*
X-11132740Y14060623D01*
X-11390254Y13953957D01*
X-11622010Y13799103D01*
X-11819103Y13602010D01*
X-11973957Y13370254D01*
X-11990000Y13331523D01*
X-12006043Y13370254D01*
X-12160897Y13602010D01*
X-12357990Y13799103D01*
X-12589746Y13953957D01*
X-12847260Y14060623D01*
X-13120635Y14115000D01*
X-13399365Y14115000D01*
X-13672740Y14060623D01*
X-13930254Y13953957D01*
X-14162010Y13799103D01*
X-14359103Y13602010D01*
X-14513957Y13370254D01*
X-14530000Y13331523D01*
X-14546043Y13370254D01*
X-14700897Y13602010D01*
X-14897990Y13799103D01*
X-15129746Y13953957D01*
X-15387260Y14060623D01*
X-15660635Y14115000D01*
X-15939365Y14115000D01*
X-16212740Y14060623D01*
X-16470254Y13953957D01*
X-16702010Y13799103D01*
X-16899103Y13602010D01*
X-17053957Y13370254D01*
X-17070000Y13331523D01*
X-17086043Y13370254D01*
X-17240897Y13602010D01*
X-17437990Y13799103D01*
X-17669746Y13953957D01*
X-17927260Y14060623D01*
X-18200635Y14115000D01*
X-18479365Y14115000D01*
X-18752740Y14060623D01*
X-19010254Y13953957D01*
X-19242010Y13799103D01*
X-19439103Y13602010D01*
X-19593957Y13370254D01*
X-19610000Y13331523D01*
X-19626043Y13370254D01*
X-19780897Y13602010D01*
X-19977990Y13799103D01*
X-20209746Y13953957D01*
X-20467260Y14060623D01*
X-20740635Y14115000D01*
X-21019365Y14115000D01*
X-21292740Y14060623D01*
X-21550254Y13953957D01*
X-21782010Y13799103D01*
X-21979103Y13602010D01*
X-22133957Y13370254D01*
X-22150000Y13331523D01*
X-22166043Y13370254D01*
X-22320897Y13602010D01*
X-22517990Y13799103D01*
X-22749746Y13953957D01*
X-23007260Y14060623D01*
X-23280635Y14115000D01*
X-23559365Y14115000D01*
X-23832740Y14060623D01*
X-24090254Y13953957D01*
X-24322010Y13799103D01*
X-24519103Y13602010D01*
X-24673957Y13370254D01*
X-24690000Y13331523D01*
X-24706043Y13370254D01*
X-24860897Y13602010D01*
X-25057990Y13799103D01*
X-25289746Y13953957D01*
X-25547260Y14060623D01*
X-25820635Y14115000D01*
X-26099365Y14115000D01*
X-26372740Y14060623D01*
X-26630254Y13953957D01*
X-26775200Y13857107D01*
X-26775200Y20156800D01*
X-24336808Y20156800D01*
X-24553646Y20011914D01*
G36*
X13255192Y-6168592D02*
G01*
X13075868Y-6387099D01*
X12942618Y-6636392D01*
X12860564Y-6906891D01*
X12832857Y-7188200D01*
X12860564Y-7469509D01*
X12942618Y-7740008D01*
X13075868Y-7989301D01*
X13255192Y-8207808D01*
X13439800Y-8359312D01*
X13439801Y-12009156D01*
X13426043Y-12029746D01*
X13410000Y-12068477D01*
X13393957Y-12029746D01*
X13239103Y-11797990D01*
X13042010Y-11600897D01*
X12810254Y-11446043D01*
X12552740Y-11339377D01*
X12279365Y-11285000D01*
X12000635Y-11285000D01*
X11727260Y-11339377D01*
X11469746Y-11446043D01*
X11237990Y-11600897D01*
X11040897Y-11797990D01*
X10886043Y-12029746D01*
X10870000Y-12068477D01*
X10853957Y-12029746D01*
X10699103Y-11797990D01*
X10502010Y-11600897D01*
X10270254Y-11446043D01*
X10012740Y-11339377D01*
X9739365Y-11285000D01*
X9460635Y-11285000D01*
X9187260Y-11339377D01*
X8929746Y-11446043D01*
X8697990Y-11600897D01*
X8500897Y-11797990D01*
X8346043Y-12029746D01*
X8330000Y-12068477D01*
X8313957Y-12029746D01*
X8159103Y-11797990D01*
X7962010Y-11600897D01*
X7895000Y-11556122D01*
X7895000Y-8749769D01*
X8079109Y-8731636D01*
X8349608Y-8649582D01*
X8598901Y-8516332D01*
X8817408Y-8337008D01*
X8968800Y-8152537D01*
X8970188Y-8152400D01*
X8970189Y-8152400D01*
X9092859Y-8140318D01*
X9250257Y-8092572D01*
X9395316Y-8015036D01*
X9522461Y-7910691D01*
X9548616Y-7878821D01*
X11309238Y-6118200D01*
X13316595Y-6118200D01*
X13255192Y-6168592D01*
X13255192Y-6168592D01*
G37*
X13255192Y-6168592D02*
X13075868Y-6387099D01*
X12942618Y-6636392D01*
X12860564Y-6906891D01*
X12832857Y-7188200D01*
X12860564Y-7469509D01*
X12942618Y-7740008D01*
X13075868Y-7989301D01*
X13255192Y-8207808D01*
X13439800Y-8359312D01*
X13439801Y-12009156D01*
X13426043Y-12029746D01*
X13410000Y-12068477D01*
X13393957Y-12029746D01*
X13239103Y-11797990D01*
X13042010Y-11600897D01*
X12810254Y-11446043D01*
X12552740Y-11339377D01*
X12279365Y-11285000D01*
X12000635Y-11285000D01*
X11727260Y-11339377D01*
X11469746Y-11446043D01*
X11237990Y-11600897D01*
X11040897Y-11797990D01*
X10886043Y-12029746D01*
X10870000Y-12068477D01*
X10853957Y-12029746D01*
X10699103Y-11797990D01*
X10502010Y-11600897D01*
X10270254Y-11446043D01*
X10012740Y-11339377D01*
X9739365Y-11285000D01*
X9460635Y-11285000D01*
X9187260Y-11339377D01*
X8929746Y-11446043D01*
X8697990Y-11600897D01*
X8500897Y-11797990D01*
X8346043Y-12029746D01*
X8330000Y-12068477D01*
X8313957Y-12029746D01*
X8159103Y-11797990D01*
X7962010Y-11600897D01*
X7895000Y-11556122D01*
X7895000Y-8749769D01*
X8079109Y-8731636D01*
X8349608Y-8649582D01*
X8598901Y-8516332D01*
X8817408Y-8337008D01*
X8968800Y-8152537D01*
X8970188Y-8152400D01*
X8970189Y-8152400D01*
X9092859Y-8140318D01*
X9250257Y-8092572D01*
X9395316Y-8015036D01*
X9522461Y-7910691D01*
X9548616Y-7878821D01*
X11309238Y-6118200D01*
X13316595Y-6118200D01*
X13255192Y-6168592D01*
G36*
X38010359Y-6704627D02*
G01*
X38036509Y-6736491D01*
X38163654Y-6840836D01*
X38308713Y-6918372D01*
X38466111Y-6966118D01*
X38588781Y-6978200D01*
X38588791Y-6978200D01*
X38629799Y-6982239D01*
X38670807Y-6978200D01*
X42226802Y-6978200D01*
X42290744Y-7073896D01*
X42494104Y-7277256D01*
X42697559Y-7413200D01*
X42494104Y-7549144D01*
X42290744Y-7752504D01*
X42226802Y-7848200D01*
X37070668Y-7848200D01*
X33944246Y-4721779D01*
X33918091Y-4689909D01*
X33790946Y-4585564D01*
X33645887Y-4508028D01*
X33488489Y-4460282D01*
X33365819Y-4448200D01*
X33365818Y-4448200D01*
X33324800Y-4444160D01*
X33283782Y-4448200D01*
X11004385Y-4448200D01*
X10963369Y-4444160D01*
X10922353Y-4448200D01*
X10922351Y-4448200D01*
X10799681Y-4460282D01*
X10642283Y-4508028D01*
X10497224Y-4585564D01*
X10370079Y-4689909D01*
X10343929Y-4721773D01*
X8790222Y-6275481D01*
X8598901Y-6118468D01*
X8349608Y-5985218D01*
X8079109Y-5903164D01*
X7868292Y-5882400D01*
X7727308Y-5882400D01*
X7516491Y-5903164D01*
X7245992Y-5985218D01*
X6996699Y-6118468D01*
X6778192Y-6297792D01*
X6598868Y-6516299D01*
X6465618Y-6765592D01*
X6383564Y-7036091D01*
X6355857Y-7317400D01*
X6380443Y-7567025D01*
X6362364Y-7589055D01*
X6284828Y-7734114D01*
X6237082Y-7891512D01*
X6220960Y-8055200D01*
X6225001Y-8096228D01*
X6225000Y-11556122D01*
X6157990Y-11600897D01*
X5960897Y-11797990D01*
X5806043Y-12029746D01*
X5790000Y-12068477D01*
X5773957Y-12029746D01*
X5619103Y-11797990D01*
X5422010Y-11600897D01*
X5190254Y-11446043D01*
X4932740Y-11339377D01*
X4659365Y-11285000D01*
X4380635Y-11285000D01*
X4107260Y-11339377D01*
X3849746Y-11446043D01*
X3617990Y-11600897D01*
X3420897Y-11797990D01*
X3266043Y-12029746D01*
X3250000Y-12068477D01*
X3233957Y-12029746D01*
X3079103Y-11797990D01*
X2882010Y-11600897D01*
X2650254Y-11446043D01*
X2392740Y-11339377D01*
X2119365Y-11285000D01*
X1840635Y-11285000D01*
X1567260Y-11339377D01*
X1309746Y-11446043D01*
X1077990Y-11600897D01*
X880897Y-11797990D01*
X726043Y-12029746D01*
X710000Y-12068477D01*
X693957Y-12029746D01*
X539103Y-11797990D01*
X342010Y-11600897D01*
X110254Y-11446043D01*
X-147260Y-11339377D01*
X-420635Y-11285000D01*
X-699365Y-11285000D01*
X-972740Y-11339377D01*
X-1230254Y-11446043D01*
X-1462010Y-11600897D01*
X-1659103Y-11797990D01*
X-1813957Y-12029746D01*
X-1830000Y-12068477D01*
X-1846043Y-12029746D01*
X-2000897Y-11797990D01*
X-2197990Y-11600897D01*
X-2265000Y-11556122D01*
X-2265000Y-9668867D01*
X3190669Y-4213200D01*
X35518933Y-4213200D01*
X38010359Y-6704627D01*
X38010359Y-6704627D01*
G37*
X38010359Y-6704627D02*
X38036509Y-6736491D01*
X38163654Y-6840836D01*
X38308713Y-6918372D01*
X38466111Y-6966118D01*
X38588781Y-6978200D01*
X38588791Y-6978200D01*
X38629799Y-6982239D01*
X38670807Y-6978200D01*
X42226802Y-6978200D01*
X42290744Y-7073896D01*
X42494104Y-7277256D01*
X42697559Y-7413200D01*
X42494104Y-7549144D01*
X42290744Y-7752504D01*
X42226802Y-7848200D01*
X37070668Y-7848200D01*
X33944246Y-4721779D01*
X33918091Y-4689909D01*
X33790946Y-4585564D01*
X33645887Y-4508028D01*
X33488489Y-4460282D01*
X33365819Y-4448200D01*
X33365818Y-4448200D01*
X33324800Y-4444160D01*
X33283782Y-4448200D01*
X11004385Y-4448200D01*
X10963369Y-4444160D01*
X10922353Y-4448200D01*
X10922351Y-4448200D01*
X10799681Y-4460282D01*
X10642283Y-4508028D01*
X10497224Y-4585564D01*
X10370079Y-4689909D01*
X10343929Y-4721773D01*
X8790222Y-6275481D01*
X8598901Y-6118468D01*
X8349608Y-5985218D01*
X8079109Y-5903164D01*
X7868292Y-5882400D01*
X7727308Y-5882400D01*
X7516491Y-5903164D01*
X7245992Y-5985218D01*
X6996699Y-6118468D01*
X6778192Y-6297792D01*
X6598868Y-6516299D01*
X6465618Y-6765592D01*
X6383564Y-7036091D01*
X6355857Y-7317400D01*
X6380443Y-7567025D01*
X6362364Y-7589055D01*
X6284828Y-7734114D01*
X6237082Y-7891512D01*
X6220960Y-8055200D01*
X6225001Y-8096228D01*
X6225000Y-11556122D01*
X6157990Y-11600897D01*
X5960897Y-11797990D01*
X5806043Y-12029746D01*
X5790000Y-12068477D01*
X5773957Y-12029746D01*
X5619103Y-11797990D01*
X5422010Y-11600897D01*
X5190254Y-11446043D01*
X4932740Y-11339377D01*
X4659365Y-11285000D01*
X4380635Y-11285000D01*
X4107260Y-11339377D01*
X3849746Y-11446043D01*
X3617990Y-11600897D01*
X3420897Y-11797990D01*
X3266043Y-12029746D01*
X3250000Y-12068477D01*
X3233957Y-12029746D01*
X3079103Y-11797990D01*
X2882010Y-11600897D01*
X2650254Y-11446043D01*
X2392740Y-11339377D01*
X2119365Y-11285000D01*
X1840635Y-11285000D01*
X1567260Y-11339377D01*
X1309746Y-11446043D01*
X1077990Y-11600897D01*
X880897Y-11797990D01*
X726043Y-12029746D01*
X710000Y-12068477D01*
X693957Y-12029746D01*
X539103Y-11797990D01*
X342010Y-11600897D01*
X110254Y-11446043D01*
X-147260Y-11339377D01*
X-420635Y-11285000D01*
X-699365Y-11285000D01*
X-972740Y-11339377D01*
X-1230254Y-11446043D01*
X-1462010Y-11600897D01*
X-1659103Y-11797990D01*
X-1813957Y-12029746D01*
X-1830000Y-12068477D01*
X-1846043Y-12029746D01*
X-2000897Y-11797990D01*
X-2197990Y-11600897D01*
X-2265000Y-11556122D01*
X-2265000Y-9668867D01*
X3190669Y-4213200D01*
X35518933Y-4213200D01*
X38010359Y-6704627D01*
G36*
X36105359Y-9244627D02*
G01*
X36131509Y-9276491D01*
X36251261Y-9374769D01*
X36258654Y-9380836D01*
X36403713Y-9458372D01*
X36561111Y-9506118D01*
X36724799Y-9522240D01*
X36765818Y-9518200D01*
X42226802Y-9518200D01*
X42290744Y-9613896D01*
X42494104Y-9817256D01*
X42697559Y-9953200D01*
X42494104Y-10089144D01*
X42290744Y-10292504D01*
X42226802Y-10388200D01*
X27950669Y-10388200D01*
X24184237Y-6621770D01*
X24158090Y-6589910D01*
X24083922Y-6529041D01*
X24030945Y-6485564D01*
X23885886Y-6408028D01*
X23728488Y-6360282D01*
X23564800Y-6344160D01*
X23564799Y-6344160D01*
X23473016Y-6353200D01*
X15445912Y-6353200D01*
X15294408Y-6168592D01*
X15233005Y-6118200D01*
X32978933Y-6118200D01*
X36105359Y-9244627D01*
X36105359Y-9244627D01*
G37*
X36105359Y-9244627D02*
X36131509Y-9276491D01*
X36251261Y-9374769D01*
X36258654Y-9380836D01*
X36403713Y-9458372D01*
X36561111Y-9506118D01*
X36724799Y-9522240D01*
X36765818Y-9518200D01*
X42226802Y-9518200D01*
X42290744Y-9613896D01*
X42494104Y-9817256D01*
X42697559Y-9953200D01*
X42494104Y-10089144D01*
X42290744Y-10292504D01*
X42226802Y-10388200D01*
X27950669Y-10388200D01*
X24184237Y-6621770D01*
X24158090Y-6589910D01*
X24083922Y-6529041D01*
X24030945Y-6485564D01*
X23885886Y-6408028D01*
X23728488Y-6360282D01*
X23564800Y-6344160D01*
X23564799Y-6344160D01*
X23473016Y-6353200D01*
X15445912Y-6353200D01*
X15294408Y-6168592D01*
X15233005Y-6118200D01*
X32978933Y-6118200D01*
X36105359Y-9244627D01*
G36*
X15966043Y12029746D02*
G01*
X16120897Y11797990D01*
X16317990Y11600897D01*
X16549746Y11446043D01*
X16807260Y11339377D01*
X17080635Y11285000D01*
X17359365Y11285000D01*
X17632740Y11339377D01*
X17890254Y11446043D01*
X18122010Y11600897D01*
X18319103Y11797990D01*
X18349469Y11843436D01*
X18354188Y11795518D01*
X18390498Y11675820D01*
X18449463Y11565506D01*
X18528424Y11469292D01*
X15945933Y8886800D01*
X15442730Y8886800D01*
X15389437Y8966559D01*
X15189559Y9166437D01*
X14954527Y9323480D01*
X14693374Y9431653D01*
X14416135Y9486800D01*
X14133465Y9486800D01*
X13856226Y9431653D01*
X13595073Y9323480D01*
X13360041Y9166437D01*
X13160163Y8966559D01*
X13020541Y8757600D01*
X8965730Y8757600D01*
X8912437Y8837359D01*
X8712559Y9037237D01*
X8477527Y9194280D01*
X8216374Y9302453D01*
X7939135Y9357600D01*
X7656465Y9357600D01*
X7379226Y9302453D01*
X7118073Y9194280D01*
X6883041Y9037237D01*
X6683163Y8837359D01*
X6629870Y8757600D01*
X5224868Y8757600D01*
X4734246Y9248221D01*
X4708091Y9280091D01*
X4580946Y9384436D01*
X4435887Y9461972D01*
X4278489Y9509718D01*
X4155819Y9521800D01*
X4155818Y9521800D01*
X4114800Y9525840D01*
X4073782Y9521800D01*
X1615818Y9521800D01*
X1574800Y9525840D01*
X1533782Y9521800D01*
X1533781Y9521800D01*
X1411111Y9509718D01*
X1331232Y9485487D01*
X1253713Y9461972D01*
X1108654Y9384436D01*
X1032332Y9321800D01*
X981509Y9280091D01*
X955362Y9248231D01*
X378373Y8671241D01*
X346510Y8645091D01*
X320362Y8613229D01*
X242164Y8517945D01*
X164628Y8372886D01*
X116882Y8215488D01*
X100760Y8051800D01*
X104801Y8010772D01*
X104801Y7884252D01*
X15452Y7921261D01*
X-213488Y7966800D01*
X-446912Y7966800D01*
X-474791Y7961255D01*
X-275685Y8160360D01*
X-275676Y8160371D01*
X2541427Y10977473D01*
X2573291Y11003623D01*
X2677636Y11130768D01*
X2755172Y11275827D01*
X2802918Y11433225D01*
X2815000Y11555895D01*
X2815000Y11555905D01*
X2815023Y11556138D01*
X2882010Y11600897D01*
X3079103Y11797990D01*
X3233957Y12029746D01*
X3250000Y12068477D01*
X3266043Y12029746D01*
X3420897Y11797990D01*
X3617990Y11600897D01*
X3849746Y11446043D01*
X4107260Y11339377D01*
X4380635Y11285000D01*
X4659365Y11285000D01*
X4932740Y11339377D01*
X5190254Y11446043D01*
X5422010Y11600897D01*
X5619103Y11797990D01*
X5773957Y12029746D01*
X5790000Y12068477D01*
X5806043Y12029746D01*
X5960897Y11797990D01*
X6157990Y11600897D01*
X6389746Y11446043D01*
X6647260Y11339377D01*
X6920635Y11285000D01*
X7199365Y11285000D01*
X7472740Y11339377D01*
X7730254Y11446043D01*
X7962010Y11600897D01*
X8159103Y11797990D01*
X8313957Y12029746D01*
X8330000Y12068477D01*
X8346043Y12029746D01*
X8500897Y11797990D01*
X8697990Y11600897D01*
X8929746Y11446043D01*
X9187260Y11339377D01*
X9460635Y11285000D01*
X9739365Y11285000D01*
X10012740Y11339377D01*
X10270254Y11446043D01*
X10502010Y11600897D01*
X10699103Y11797990D01*
X10853957Y12029746D01*
X10870000Y12068477D01*
X10886043Y12029746D01*
X11040897Y11797990D01*
X11237990Y11600897D01*
X11469746Y11446043D01*
X11727260Y11339377D01*
X12000635Y11285000D01*
X12279365Y11285000D01*
X12552740Y11339377D01*
X12810254Y11446043D01*
X13042010Y11600897D01*
X13239103Y11797990D01*
X13393957Y12029746D01*
X13410000Y12068477D01*
X13426043Y12029746D01*
X13580897Y11797990D01*
X13777990Y11600897D01*
X14009746Y11446043D01*
X14267260Y11339377D01*
X14540635Y11285000D01*
X14819365Y11285000D01*
X15092740Y11339377D01*
X15350254Y11446043D01*
X15582010Y11600897D01*
X15779103Y11797990D01*
X15933957Y12029746D01*
X15950000Y12068477D01*
X15966043Y12029746D01*
X15966043Y12029746D01*
G37*
X15966043Y12029746D02*
X16120897Y11797990D01*
X16317990Y11600897D01*
X16549746Y11446043D01*
X16807260Y11339377D01*
X17080635Y11285000D01*
X17359365Y11285000D01*
X17632740Y11339377D01*
X17890254Y11446043D01*
X18122010Y11600897D01*
X18319103Y11797990D01*
X18349469Y11843436D01*
X18354188Y11795518D01*
X18390498Y11675820D01*
X18449463Y11565506D01*
X18528424Y11469292D01*
X15945933Y8886800D01*
X15442730Y8886800D01*
X15389437Y8966559D01*
X15189559Y9166437D01*
X14954527Y9323480D01*
X14693374Y9431653D01*
X14416135Y9486800D01*
X14133465Y9486800D01*
X13856226Y9431653D01*
X13595073Y9323480D01*
X13360041Y9166437D01*
X13160163Y8966559D01*
X13020541Y8757600D01*
X8965730Y8757600D01*
X8912437Y8837359D01*
X8712559Y9037237D01*
X8477527Y9194280D01*
X8216374Y9302453D01*
X7939135Y9357600D01*
X7656465Y9357600D01*
X7379226Y9302453D01*
X7118073Y9194280D01*
X6883041Y9037237D01*
X6683163Y8837359D01*
X6629870Y8757600D01*
X5224868Y8757600D01*
X4734246Y9248221D01*
X4708091Y9280091D01*
X4580946Y9384436D01*
X4435887Y9461972D01*
X4278489Y9509718D01*
X4155819Y9521800D01*
X4155818Y9521800D01*
X4114800Y9525840D01*
X4073782Y9521800D01*
X1615818Y9521800D01*
X1574800Y9525840D01*
X1533782Y9521800D01*
X1533781Y9521800D01*
X1411111Y9509718D01*
X1331232Y9485487D01*
X1253713Y9461972D01*
X1108654Y9384436D01*
X1032332Y9321800D01*
X981509Y9280091D01*
X955362Y9248231D01*
X378373Y8671241D01*
X346510Y8645091D01*
X320362Y8613229D01*
X242164Y8517945D01*
X164628Y8372886D01*
X116882Y8215488D01*
X100760Y8051800D01*
X104801Y8010772D01*
X104801Y7884252D01*
X15452Y7921261D01*
X-213488Y7966800D01*
X-446912Y7966800D01*
X-474791Y7961255D01*
X-275685Y8160360D01*
X-275676Y8160371D01*
X2541427Y10977473D01*
X2573291Y11003623D01*
X2677636Y11130768D01*
X2755172Y11275827D01*
X2802918Y11433225D01*
X2815000Y11555895D01*
X2815000Y11555905D01*
X2815023Y11556138D01*
X2882010Y11600897D01*
X3079103Y11797990D01*
X3233957Y12029746D01*
X3250000Y12068477D01*
X3266043Y12029746D01*
X3420897Y11797990D01*
X3617990Y11600897D01*
X3849746Y11446043D01*
X4107260Y11339377D01*
X4380635Y11285000D01*
X4659365Y11285000D01*
X4932740Y11339377D01*
X5190254Y11446043D01*
X5422010Y11600897D01*
X5619103Y11797990D01*
X5773957Y12029746D01*
X5790000Y12068477D01*
X5806043Y12029746D01*
X5960897Y11797990D01*
X6157990Y11600897D01*
X6389746Y11446043D01*
X6647260Y11339377D01*
X6920635Y11285000D01*
X7199365Y11285000D01*
X7472740Y11339377D01*
X7730254Y11446043D01*
X7962010Y11600897D01*
X8159103Y11797990D01*
X8313957Y12029746D01*
X8330000Y12068477D01*
X8346043Y12029746D01*
X8500897Y11797990D01*
X8697990Y11600897D01*
X8929746Y11446043D01*
X9187260Y11339377D01*
X9460635Y11285000D01*
X9739365Y11285000D01*
X10012740Y11339377D01*
X10270254Y11446043D01*
X10502010Y11600897D01*
X10699103Y11797990D01*
X10853957Y12029746D01*
X10870000Y12068477D01*
X10886043Y12029746D01*
X11040897Y11797990D01*
X11237990Y11600897D01*
X11469746Y11446043D01*
X11727260Y11339377D01*
X12000635Y11285000D01*
X12279365Y11285000D01*
X12552740Y11339377D01*
X12810254Y11446043D01*
X13042010Y11600897D01*
X13239103Y11797990D01*
X13393957Y12029746D01*
X13410000Y12068477D01*
X13426043Y12029746D01*
X13580897Y11797990D01*
X13777990Y11600897D01*
X14009746Y11446043D01*
X14267260Y11339377D01*
X14540635Y11285000D01*
X14819365Y11285000D01*
X15092740Y11339377D01*
X15350254Y11446043D01*
X15582010Y11600897D01*
X15779103Y11797990D01*
X15933957Y12029746D01*
X15950000Y12068477D01*
X15966043Y12029746D01*
M02*
