M48
; DRILL file {KiCad (5.1.0)-1} date 21.10.2020 08:33:20
; FORMAT={-:-/ absolute / metric / decimal}
; #@! TF.CreationDate,2020-10-21T08:33:20+02:00
; #@! TF.GenerationSoftware,Kicad,Pcbnew,(5.1.0)-1
; #@! TF.FileFunction,Plated,1,2,PTH
FMAT,2
METRIC
T1C0.400
T2C0.700
T3C0.800
T4C1.040
T5C1.100
T6C2.500
%
G90
G05
T1
X2.565Y-9.183
X10.565Y-9.183
X11.565Y9.817
X32.565Y-8.183
T2
X-0.33Y6.782
X0.94Y6.782
X2.21Y6.782
X3.48Y6.782
T3
X-21.44Y-6.49
X-6.2Y-6.49
X-21.44Y-1.49
X-6.2Y-1.49
X-21.44Y4.01
X-6.2Y4.01
X14.275Y8.052
X14.275Y-7.188
X7.798Y7.923
X7.798Y-7.317
T4
X-25.96Y12.7
X-25.96Y-12.7
X-23.42Y12.7
X-23.42Y-12.7
X-20.88Y12.7
X-20.88Y-12.7
X-18.34Y12.7
X-18.34Y-12.7
X-15.8Y12.7
X-15.8Y-12.7
X-13.26Y12.7
X-13.26Y-12.7
X-10.72Y12.7
X-10.72Y-12.7
X-8.18Y12.7
X-8.18Y-12.7
X-5.64Y12.7
X-5.64Y-12.7
X-3.1Y12.7
X-3.1Y-12.7
X-0.56Y12.7
X-0.56Y-12.7
X1.98Y12.7
X1.98Y-12.7
X4.52Y12.7
X4.52Y-12.7
X7.06Y12.7
X7.06Y-12.7
X9.6Y12.7
X9.6Y-12.7
X12.14Y12.7
X12.14Y-12.7
X14.68Y12.7
X14.68Y-12.7
X17.22Y12.7
X17.22Y-12.7
X19.76Y12.7
X19.76Y-12.7
T5
X43.425Y-1.063
X43.425Y-3.603
X43.425Y-6.143
X43.425Y-8.683
X43.425Y-11.223
X43.425Y-13.763
X43.425Y-16.303
T6
X18.085Y17.577
X-22.555Y-17.983
X-22.555Y17.577
X18.085Y-17.983
T0
M30
