G04 #@! TF.GenerationSoftware,KiCad,Pcbnew,(5.1.0)-1*
G04 #@! TF.CreationDate,2020-10-21T08:33:28+02:00*
G04 #@! TF.ProjectId,phyphox_CO2_Monitor,70687970-686f-4785-9f43-4f325f4d6f6e,rev?*
G04 #@! TF.SameCoordinates,Original*
G04 #@! TF.FileFunction,Copper,L2,Bot*
G04 #@! TF.FilePolarity,Positive*
%FSLAX46Y46*%
G04 Gerber Fmt 4.6, Leading zero omitted, Abs format (unit mm)*
G04 Created by KiCad (PCBNEW (5.1.0)-1) date 2020-10-21 08:33:28*
%MOMM*%
%LPD*%
G04 APERTURE LIST*
%ADD10C,5.000000*%
%ADD11C,1.650000*%
%ADD12R,1.650000X1.650000*%
%ADD13C,1.100000*%
%ADD14C,1.600000*%
%ADD15O,1.600000X1.600000*%
%ADD16C,1.560000*%
%ADD17R,1.560000X1.560000*%
%ADD18C,0.800000*%
%ADD19C,0.400000*%
%ADD20C,0.254000*%
G04 APERTURE END LIST*
D10*
X18084800Y-17983200D03*
X18084800Y17576800D03*
X-22555200Y17576800D03*
X-22555200Y-17983200D03*
D11*
X43424800Y-1063200D03*
X43424800Y-3603200D03*
X43424800Y-6143200D03*
X43424800Y-8683200D03*
X43424800Y-11223200D03*
X43424800Y-13763200D03*
D12*
X43424800Y-16303200D03*
D13*
X-330200Y6781800D03*
X939800Y6781800D03*
X2209800Y6781800D03*
X3479800Y6781800D03*
D14*
X-6200000Y-1490000D03*
D15*
X-21440000Y-1490000D03*
D14*
X-6200000Y-6490000D03*
D15*
X-21440000Y-6490000D03*
X-21440000Y4010000D03*
D14*
X-6200000Y4010000D03*
X7797800Y7922600D03*
D15*
X7797800Y-7317400D03*
X14274800Y-7188200D03*
D14*
X14274800Y8051800D03*
D16*
X-25960000Y-12700000D03*
X-23420000Y-12700000D03*
X-20880000Y-12700000D03*
X-18340000Y-12700000D03*
X-15800000Y-12700000D03*
X-13260000Y-12700000D03*
X-10720000Y-12700000D03*
X-8180000Y-12700000D03*
X-5640000Y-12700000D03*
X-3100000Y-12700000D03*
X-560000Y-12700000D03*
X1980000Y-12700000D03*
X4520000Y-12700000D03*
X7060000Y-12700000D03*
X9600000Y-12700000D03*
X12140000Y-12700000D03*
X14680000Y-12700000D03*
X17220000Y-12700000D03*
X19760000Y-12700000D03*
X-23420000Y12700000D03*
X-20880000Y12700000D03*
X-18340000Y12700000D03*
X-15800000Y12700000D03*
X-13260000Y12700000D03*
X-10720000Y12700000D03*
X-8180000Y12700000D03*
X-5640000Y12700000D03*
X-3100000Y12700000D03*
X-560000Y12700000D03*
X1980000Y12700000D03*
X4520000Y12700000D03*
X7060000Y12700000D03*
X9600000Y12700000D03*
X12140000Y12700000D03*
X14680000Y12700000D03*
X-25960000Y12700000D03*
X17220000Y12700000D03*
D17*
X19760000Y12700000D03*
D18*
X10564800Y-9183200D03*
X2564800Y-9183200D03*
X32564800Y-8183200D03*
X11564800Y9816800D03*
D19*
X43424800Y-16303200D02*
X36089800Y-16303200D01*
X36089800Y-16303200D02*
X29514800Y-9728200D01*
X29514800Y-9728200D02*
X29514800Y10591800D01*
X27406600Y12700000D02*
X19760000Y12700000D01*
X29514800Y10591800D02*
X27406600Y12700000D01*
D20*
G36*
X-24553646Y20011914D02*
G01*
X-24990314Y19575246D01*
X-25333401Y19061779D01*
X-25569724Y18491246D01*
X-25690200Y17885571D01*
X-25690200Y17268029D01*
X-25569724Y16662354D01*
X-25333401Y16091821D01*
X-24990314Y15578354D01*
X-24553646Y15141686D01*
X-24040179Y14798599D01*
X-23469646Y14562276D01*
X-22863971Y14441800D01*
X-22246429Y14441800D01*
X-21640754Y14562276D01*
X-21070221Y14798599D01*
X-20556754Y15141686D01*
X-20120086Y15578354D01*
X-19776999Y16091821D01*
X-19540676Y16662354D01*
X-19420200Y17268029D01*
X-19420200Y17885571D01*
X-19540676Y18491246D01*
X-19776999Y19061779D01*
X-20120086Y19575246D01*
X-20556754Y20011914D01*
X-20773592Y20156800D01*
X16303192Y20156800D01*
X16086354Y20011914D01*
X15649686Y19575246D01*
X15306599Y19061779D01*
X15070276Y18491246D01*
X14949800Y17885571D01*
X14949800Y17268029D01*
X15070276Y16662354D01*
X15306599Y16091821D01*
X15649686Y15578354D01*
X16086354Y15141686D01*
X16599821Y14798599D01*
X17170354Y14562276D01*
X17776029Y14441800D01*
X18393571Y14441800D01*
X18999246Y14562276D01*
X19569779Y14798599D01*
X20083246Y15141686D01*
X20519914Y15578354D01*
X20863001Y16091821D01*
X21099324Y16662354D01*
X21219800Y17268029D01*
X21219800Y17885571D01*
X21099324Y18491246D01*
X20863001Y19061779D01*
X20519914Y19575246D01*
X20083246Y20011914D01*
X19866408Y20156800D01*
X44904800Y20156800D01*
X44904801Y-20523200D01*
X19926273Y-20523200D01*
X20083246Y-20418314D01*
X20519914Y-19981646D01*
X20863001Y-19468179D01*
X21099324Y-18897646D01*
X21219800Y-18291971D01*
X21219800Y-17674429D01*
X21099324Y-17068754D01*
X20863001Y-16498221D01*
X20519914Y-15984754D01*
X20083246Y-15548086D01*
X19569779Y-15204999D01*
X18999246Y-14968676D01*
X18393571Y-14848200D01*
X17776029Y-14848200D01*
X17170354Y-14968676D01*
X16599821Y-15204999D01*
X16086354Y-15548086D01*
X15649686Y-15984754D01*
X15306599Y-16498221D01*
X15070276Y-17068754D01*
X14949800Y-17674429D01*
X14949800Y-18291971D01*
X15070276Y-18897646D01*
X15306599Y-19468179D01*
X15649686Y-19981646D01*
X16086354Y-20418314D01*
X16243327Y-20523200D01*
X-20713727Y-20523200D01*
X-20556754Y-20418314D01*
X-20120086Y-19981646D01*
X-19776999Y-19468179D01*
X-19540676Y-18897646D01*
X-19420200Y-18291971D01*
X-19420200Y-17674429D01*
X-19540676Y-17068754D01*
X-19776999Y-16498221D01*
X-20120086Y-15984754D01*
X-20556754Y-15548086D01*
X-21070221Y-15204999D01*
X-21640754Y-14968676D01*
X-22246429Y-14848200D01*
X-22863971Y-14848200D01*
X-23469646Y-14968676D01*
X-24040179Y-15204999D01*
X-24553646Y-15548086D01*
X-24990314Y-15984754D01*
X-25333401Y-16498221D01*
X-25569724Y-17068754D01*
X-25690200Y-17674429D01*
X-25690200Y-18291971D01*
X-25569724Y-18897646D01*
X-25333401Y-19468179D01*
X-24990314Y-19981646D01*
X-24553646Y-20418314D01*
X-24396673Y-20523200D01*
X-26775200Y-20523200D01*
X-26775200Y-13857107D01*
X-26630254Y-13953957D01*
X-26372740Y-14060623D01*
X-26099365Y-14115000D01*
X-25820635Y-14115000D01*
X-25547260Y-14060623D01*
X-25289746Y-13953957D01*
X-25057990Y-13799103D01*
X-24860897Y-13602010D01*
X-24706043Y-13370254D01*
X-24690000Y-13331523D01*
X-24673957Y-13370254D01*
X-24519103Y-13602010D01*
X-24322010Y-13799103D01*
X-24090254Y-13953957D01*
X-23832740Y-14060623D01*
X-23559365Y-14115000D01*
X-23280635Y-14115000D01*
X-23007260Y-14060623D01*
X-22749746Y-13953957D01*
X-22517990Y-13799103D01*
X-22320897Y-13602010D01*
X-22166043Y-13370254D01*
X-22150000Y-13331523D01*
X-22133957Y-13370254D01*
X-21979103Y-13602010D01*
X-21782010Y-13799103D01*
X-21550254Y-13953957D01*
X-21292740Y-14060623D01*
X-21019365Y-14115000D01*
X-20740635Y-14115000D01*
X-20467260Y-14060623D01*
X-20209746Y-13953957D01*
X-19977990Y-13799103D01*
X-19780897Y-13602010D01*
X-19626043Y-13370254D01*
X-19610000Y-13331523D01*
X-19593957Y-13370254D01*
X-19439103Y-13602010D01*
X-19242010Y-13799103D01*
X-19010254Y-13953957D01*
X-18752740Y-14060623D01*
X-18479365Y-14115000D01*
X-18200635Y-14115000D01*
X-17927260Y-14060623D01*
X-17669746Y-13953957D01*
X-17437990Y-13799103D01*
X-17240897Y-13602010D01*
X-17086043Y-13370254D01*
X-17070000Y-13331523D01*
X-17053957Y-13370254D01*
X-16899103Y-13602010D01*
X-16702010Y-13799103D01*
X-16470254Y-13953957D01*
X-16212740Y-14060623D01*
X-15939365Y-14115000D01*
X-15660635Y-14115000D01*
X-15387260Y-14060623D01*
X-15129746Y-13953957D01*
X-14897990Y-13799103D01*
X-14700897Y-13602010D01*
X-14546043Y-13370254D01*
X-14530000Y-13331523D01*
X-14513957Y-13370254D01*
X-14359103Y-13602010D01*
X-14162010Y-13799103D01*
X-13930254Y-13953957D01*
X-13672740Y-14060623D01*
X-13399365Y-14115000D01*
X-13120635Y-14115000D01*
X-12847260Y-14060623D01*
X-12589746Y-13953957D01*
X-12357990Y-13799103D01*
X-12160897Y-13602010D01*
X-12006043Y-13370254D01*
X-11990000Y-13331523D01*
X-11973957Y-13370254D01*
X-11819103Y-13602010D01*
X-11622010Y-13799103D01*
X-11390254Y-13953957D01*
X-11132740Y-14060623D01*
X-10859365Y-14115000D01*
X-10580635Y-14115000D01*
X-10307260Y-14060623D01*
X-10049746Y-13953957D01*
X-9817990Y-13799103D01*
X-9620897Y-13602010D01*
X-9466043Y-13370254D01*
X-9450000Y-13331523D01*
X-9433957Y-13370254D01*
X-9279103Y-13602010D01*
X-9082010Y-13799103D01*
X-8850254Y-13953957D01*
X-8592740Y-14060623D01*
X-8319365Y-14115000D01*
X-8040635Y-14115000D01*
X-7767260Y-14060623D01*
X-7509746Y-13953957D01*
X-7277990Y-13799103D01*
X-7080897Y-13602010D01*
X-6926043Y-13370254D01*
X-6910000Y-13331523D01*
X-6893957Y-13370254D01*
X-6739103Y-13602010D01*
X-6542010Y-13799103D01*
X-6310254Y-13953957D01*
X-6052740Y-14060623D01*
X-5779365Y-14115000D01*
X-5500635Y-14115000D01*
X-5227260Y-14060623D01*
X-4969746Y-13953957D01*
X-4737990Y-13799103D01*
X-4540897Y-13602010D01*
X-4386043Y-13370254D01*
X-4370000Y-13331523D01*
X-4353957Y-13370254D01*
X-4199103Y-13602010D01*
X-4002010Y-13799103D01*
X-3770254Y-13953957D01*
X-3512740Y-14060623D01*
X-3239365Y-14115000D01*
X-2960635Y-14115000D01*
X-2687260Y-14060623D01*
X-2429746Y-13953957D01*
X-2197990Y-13799103D01*
X-2000897Y-13602010D01*
X-1846043Y-13370254D01*
X-1830000Y-13331523D01*
X-1813957Y-13370254D01*
X-1659103Y-13602010D01*
X-1462010Y-13799103D01*
X-1230254Y-13953957D01*
X-972740Y-14060623D01*
X-699365Y-14115000D01*
X-420635Y-14115000D01*
X-147260Y-14060623D01*
X110254Y-13953957D01*
X342010Y-13799103D01*
X539103Y-13602010D01*
X693957Y-13370254D01*
X710000Y-13331523D01*
X726043Y-13370254D01*
X880897Y-13602010D01*
X1077990Y-13799103D01*
X1309746Y-13953957D01*
X1567260Y-14060623D01*
X1840635Y-14115000D01*
X2119365Y-14115000D01*
X2392740Y-14060623D01*
X2650254Y-13953957D01*
X2882010Y-13799103D01*
X3079103Y-13602010D01*
X3233957Y-13370254D01*
X3250000Y-13331523D01*
X3266043Y-13370254D01*
X3420897Y-13602010D01*
X3617990Y-13799103D01*
X3849746Y-13953957D01*
X4107260Y-14060623D01*
X4380635Y-14115000D01*
X4659365Y-14115000D01*
X4932740Y-14060623D01*
X5190254Y-13953957D01*
X5422010Y-13799103D01*
X5619103Y-13602010D01*
X5773957Y-13370254D01*
X5790000Y-13331523D01*
X5806043Y-13370254D01*
X5960897Y-13602010D01*
X6157990Y-13799103D01*
X6389746Y-13953957D01*
X6647260Y-14060623D01*
X6920635Y-14115000D01*
X7199365Y-14115000D01*
X7472740Y-14060623D01*
X7730254Y-13953957D01*
X7962010Y-13799103D01*
X8159103Y-13602010D01*
X8313957Y-13370254D01*
X8330000Y-13331523D01*
X8346043Y-13370254D01*
X8500897Y-13602010D01*
X8697990Y-13799103D01*
X8929746Y-13953957D01*
X9187260Y-14060623D01*
X9460635Y-14115000D01*
X9739365Y-14115000D01*
X10012740Y-14060623D01*
X10270254Y-13953957D01*
X10502010Y-13799103D01*
X10699103Y-13602010D01*
X10853957Y-13370254D01*
X10870000Y-13331523D01*
X10886043Y-13370254D01*
X11040897Y-13602010D01*
X11237990Y-13799103D01*
X11469746Y-13953957D01*
X11727260Y-14060623D01*
X12000635Y-14115000D01*
X12279365Y-14115000D01*
X12552740Y-14060623D01*
X12810254Y-13953957D01*
X13042010Y-13799103D01*
X13239103Y-13602010D01*
X13393957Y-13370254D01*
X13410000Y-13331523D01*
X13426043Y-13370254D01*
X13580897Y-13602010D01*
X13777990Y-13799103D01*
X14009746Y-13953957D01*
X14267260Y-14060623D01*
X14540635Y-14115000D01*
X14819365Y-14115000D01*
X15092740Y-14060623D01*
X15350254Y-13953957D01*
X15582010Y-13799103D01*
X15779103Y-13602010D01*
X15933957Y-13370254D01*
X15950000Y-13331523D01*
X15966043Y-13370254D01*
X16120897Y-13602010D01*
X16317990Y-13799103D01*
X16549746Y-13953957D01*
X16807260Y-14060623D01*
X17080635Y-14115000D01*
X17359365Y-14115000D01*
X17632740Y-14060623D01*
X17890254Y-13953957D01*
X18122010Y-13799103D01*
X18242692Y-13678421D01*
X18961184Y-13678421D01*
X19030345Y-13920349D01*
X19282443Y-14039248D01*
X19552894Y-14106681D01*
X19831303Y-14120057D01*
X20106972Y-14078860D01*
X20369308Y-13984675D01*
X20489655Y-13920349D01*
X20558816Y-13678421D01*
X19760000Y-12879605D01*
X18961184Y-13678421D01*
X18242692Y-13678421D01*
X18319103Y-13602010D01*
X18473957Y-13370254D01*
X18488777Y-13334475D01*
X18539651Y-13429655D01*
X18781579Y-13498816D01*
X19580395Y-12700000D01*
X19939605Y-12700000D01*
X20738421Y-13498816D01*
X20980349Y-13429655D01*
X21099248Y-13177557D01*
X21166681Y-12907106D01*
X21180057Y-12628697D01*
X21138860Y-12353028D01*
X21044675Y-12090692D01*
X20980349Y-11970345D01*
X20738421Y-11901184D01*
X19939605Y-12700000D01*
X19580395Y-12700000D01*
X18781579Y-11901184D01*
X18539651Y-11970345D01*
X18491575Y-12072279D01*
X18473957Y-12029746D01*
X18319103Y-11797990D01*
X18242692Y-11721579D01*
X18961184Y-11721579D01*
X19760000Y-12520395D01*
X20558816Y-11721579D01*
X20489655Y-11479651D01*
X20237557Y-11360752D01*
X19967106Y-11293319D01*
X19688697Y-11279943D01*
X19413028Y-11321140D01*
X19150692Y-11415325D01*
X19030345Y-11479651D01*
X18961184Y-11721579D01*
X18242692Y-11721579D01*
X18122010Y-11600897D01*
X17890254Y-11446043D01*
X17632740Y-11339377D01*
X17359365Y-11285000D01*
X17080635Y-11285000D01*
X16807260Y-11339377D01*
X16549746Y-11446043D01*
X16317990Y-11600897D01*
X16120897Y-11797990D01*
X15966043Y-12029746D01*
X15950000Y-12068477D01*
X15933957Y-12029746D01*
X15779103Y-11797990D01*
X15582010Y-11600897D01*
X15350254Y-11446043D01*
X15092740Y-11339377D01*
X14819365Y-11285000D01*
X14540635Y-11285000D01*
X14267260Y-11339377D01*
X14009746Y-11446043D01*
X13777990Y-11600897D01*
X13580897Y-11797990D01*
X13426043Y-12029746D01*
X13410000Y-12068477D01*
X13393957Y-12029746D01*
X13239103Y-11797990D01*
X13042010Y-11600897D01*
X12810254Y-11446043D01*
X12552740Y-11339377D01*
X12279365Y-11285000D01*
X12000635Y-11285000D01*
X11727260Y-11339377D01*
X11469746Y-11446043D01*
X11237990Y-11600897D01*
X11040897Y-11797990D01*
X10886043Y-12029746D01*
X10870000Y-12068477D01*
X10853957Y-12029746D01*
X10699103Y-11797990D01*
X10502010Y-11600897D01*
X10270254Y-11446043D01*
X10012740Y-11339377D01*
X9739365Y-11285000D01*
X9460635Y-11285000D01*
X9187260Y-11339377D01*
X8929746Y-11446043D01*
X8697990Y-11600897D01*
X8500897Y-11797990D01*
X8346043Y-12029746D01*
X8330000Y-12068477D01*
X8313957Y-12029746D01*
X8159103Y-11797990D01*
X7962010Y-11600897D01*
X7730254Y-11446043D01*
X7472740Y-11339377D01*
X7199365Y-11285000D01*
X6920635Y-11285000D01*
X6647260Y-11339377D01*
X6389746Y-11446043D01*
X6157990Y-11600897D01*
X5960897Y-11797990D01*
X5806043Y-12029746D01*
X5790000Y-12068477D01*
X5773957Y-12029746D01*
X5619103Y-11797990D01*
X5422010Y-11600897D01*
X5190254Y-11446043D01*
X4932740Y-11339377D01*
X4659365Y-11285000D01*
X4380635Y-11285000D01*
X4107260Y-11339377D01*
X3849746Y-11446043D01*
X3617990Y-11600897D01*
X3420897Y-11797990D01*
X3266043Y-12029746D01*
X3250000Y-12068477D01*
X3233957Y-12029746D01*
X3079103Y-11797990D01*
X2882010Y-11600897D01*
X2650254Y-11446043D01*
X2392740Y-11339377D01*
X2119365Y-11285000D01*
X1840635Y-11285000D01*
X1567260Y-11339377D01*
X1309746Y-11446043D01*
X1077990Y-11600897D01*
X880897Y-11797990D01*
X726043Y-12029746D01*
X710000Y-12068477D01*
X693957Y-12029746D01*
X539103Y-11797990D01*
X342010Y-11600897D01*
X110254Y-11446043D01*
X-147260Y-11339377D01*
X-420635Y-11285000D01*
X-699365Y-11285000D01*
X-972740Y-11339377D01*
X-1230254Y-11446043D01*
X-1462010Y-11600897D01*
X-1659103Y-11797990D01*
X-1813957Y-12029746D01*
X-1830000Y-12068477D01*
X-1846043Y-12029746D01*
X-2000897Y-11797990D01*
X-2197990Y-11600897D01*
X-2429746Y-11446043D01*
X-2687260Y-11339377D01*
X-2960635Y-11285000D01*
X-3239365Y-11285000D01*
X-3512740Y-11339377D01*
X-3770254Y-11446043D01*
X-4002010Y-11600897D01*
X-4199103Y-11797990D01*
X-4353957Y-12029746D01*
X-4370000Y-12068477D01*
X-4386043Y-12029746D01*
X-4540897Y-11797990D01*
X-4737990Y-11600897D01*
X-4969746Y-11446043D01*
X-5227260Y-11339377D01*
X-5500635Y-11285000D01*
X-5779365Y-11285000D01*
X-6052740Y-11339377D01*
X-6310254Y-11446043D01*
X-6542010Y-11600897D01*
X-6739103Y-11797990D01*
X-6893957Y-12029746D01*
X-6910000Y-12068477D01*
X-6926043Y-12029746D01*
X-7080897Y-11797990D01*
X-7277990Y-11600897D01*
X-7509746Y-11446043D01*
X-7767260Y-11339377D01*
X-8040635Y-11285000D01*
X-8319365Y-11285000D01*
X-8592740Y-11339377D01*
X-8850254Y-11446043D01*
X-9082010Y-11600897D01*
X-9279103Y-11797990D01*
X-9433957Y-12029746D01*
X-9450000Y-12068477D01*
X-9466043Y-12029746D01*
X-9620897Y-11797990D01*
X-9817990Y-11600897D01*
X-10049746Y-11446043D01*
X-10307260Y-11339377D01*
X-10580635Y-11285000D01*
X-10859365Y-11285000D01*
X-11132740Y-11339377D01*
X-11390254Y-11446043D01*
X-11622010Y-11600897D01*
X-11819103Y-11797990D01*
X-11973957Y-12029746D01*
X-11990000Y-12068477D01*
X-12006043Y-12029746D01*
X-12160897Y-11797990D01*
X-12357990Y-11600897D01*
X-12589746Y-11446043D01*
X-12847260Y-11339377D01*
X-13120635Y-11285000D01*
X-13399365Y-11285000D01*
X-13672740Y-11339377D01*
X-13930254Y-11446043D01*
X-14162010Y-11600897D01*
X-14359103Y-11797990D01*
X-14513957Y-12029746D01*
X-14530000Y-12068477D01*
X-14546043Y-12029746D01*
X-14700897Y-11797990D01*
X-14897990Y-11600897D01*
X-15129746Y-11446043D01*
X-15387260Y-11339377D01*
X-15660635Y-11285000D01*
X-15939365Y-11285000D01*
X-16212740Y-11339377D01*
X-16470254Y-11446043D01*
X-16702010Y-11600897D01*
X-16899103Y-11797990D01*
X-17053957Y-12029746D01*
X-17070000Y-12068477D01*
X-17086043Y-12029746D01*
X-17240897Y-11797990D01*
X-17437990Y-11600897D01*
X-17669746Y-11446043D01*
X-17927260Y-11339377D01*
X-18200635Y-11285000D01*
X-18479365Y-11285000D01*
X-18752740Y-11339377D01*
X-19010254Y-11446043D01*
X-19242010Y-11600897D01*
X-19439103Y-11797990D01*
X-19593957Y-12029746D01*
X-19610000Y-12068477D01*
X-19626043Y-12029746D01*
X-19780897Y-11797990D01*
X-19977990Y-11600897D01*
X-20209746Y-11446043D01*
X-20467260Y-11339377D01*
X-20740635Y-11285000D01*
X-21019365Y-11285000D01*
X-21292740Y-11339377D01*
X-21550254Y-11446043D01*
X-21782010Y-11600897D01*
X-21979103Y-11797990D01*
X-22133957Y-12029746D01*
X-22150000Y-12068477D01*
X-22166043Y-12029746D01*
X-22320897Y-11797990D01*
X-22517990Y-11600897D01*
X-22749746Y-11446043D01*
X-23007260Y-11339377D01*
X-23280635Y-11285000D01*
X-23559365Y-11285000D01*
X-23832740Y-11339377D01*
X-24090254Y-11446043D01*
X-24322010Y-11600897D01*
X-24519103Y-11797990D01*
X-24673957Y-12029746D01*
X-24690000Y-12068477D01*
X-24706043Y-12029746D01*
X-24860897Y-11797990D01*
X-25057990Y-11600897D01*
X-25289746Y-11446043D01*
X-25547260Y-11339377D01*
X-25820635Y-11285000D01*
X-26099365Y-11285000D01*
X-26372740Y-11339377D01*
X-26630254Y-11446043D01*
X-26775200Y-11542893D01*
X-26775200Y-6490000D01*
X-22881943Y-6490000D01*
X-22854236Y-6771309D01*
X-22772182Y-7041808D01*
X-22638932Y-7291101D01*
X-22459608Y-7509608D01*
X-22241101Y-7688932D01*
X-21991808Y-7822182D01*
X-21721309Y-7904236D01*
X-21510492Y-7925000D01*
X-21369508Y-7925000D01*
X-21158691Y-7904236D01*
X-20888192Y-7822182D01*
X-20638899Y-7688932D01*
X-20420392Y-7509608D01*
X-20241068Y-7291101D01*
X-20107818Y-7041808D01*
X-20025764Y-6771309D01*
X-19998057Y-6490000D01*
X-20011977Y-6348665D01*
X-7635000Y-6348665D01*
X-7635000Y-6631335D01*
X-7579853Y-6908574D01*
X-7471680Y-7169727D01*
X-7314637Y-7404759D01*
X-7114759Y-7604637D01*
X-6879727Y-7761680D01*
X-6618574Y-7869853D01*
X-6341335Y-7925000D01*
X-6058665Y-7925000D01*
X-5781426Y-7869853D01*
X-5520273Y-7761680D01*
X-5285241Y-7604637D01*
X-5085363Y-7404759D01*
X-5026992Y-7317400D01*
X6355857Y-7317400D01*
X6383564Y-7598709D01*
X6465618Y-7869208D01*
X6598868Y-8118501D01*
X6778192Y-8337008D01*
X6996699Y-8516332D01*
X7245992Y-8649582D01*
X7516491Y-8731636D01*
X7727308Y-8752400D01*
X7868292Y-8752400D01*
X8079109Y-8731636D01*
X8349608Y-8649582D01*
X8598901Y-8516332D01*
X8817408Y-8337008D01*
X8996732Y-8118501D01*
X9129982Y-7869208D01*
X9212036Y-7598709D01*
X9239743Y-7317400D01*
X9227018Y-7188200D01*
X12832857Y-7188200D01*
X12860564Y-7469509D01*
X12942618Y-7740008D01*
X13075868Y-7989301D01*
X13255192Y-8207808D01*
X13473699Y-8387132D01*
X13722992Y-8520382D01*
X13993491Y-8602436D01*
X14204308Y-8623200D01*
X14345292Y-8623200D01*
X14556109Y-8602436D01*
X14826608Y-8520382D01*
X15075901Y-8387132D01*
X15294408Y-8207808D01*
X15473732Y-7989301D01*
X15606982Y-7740008D01*
X15689036Y-7469509D01*
X15716743Y-7188200D01*
X15689036Y-6906891D01*
X15606982Y-6636392D01*
X15473732Y-6387099D01*
X15294408Y-6168592D01*
X15075901Y-5989268D01*
X14826608Y-5856018D01*
X14556109Y-5773964D01*
X14345292Y-5753200D01*
X14204308Y-5753200D01*
X13993491Y-5773964D01*
X13722992Y-5856018D01*
X13473699Y-5989268D01*
X13255192Y-6168592D01*
X13075868Y-6387099D01*
X12942618Y-6636392D01*
X12860564Y-6906891D01*
X12832857Y-7188200D01*
X9227018Y-7188200D01*
X9212036Y-7036091D01*
X9129982Y-6765592D01*
X8996732Y-6516299D01*
X8817408Y-6297792D01*
X8598901Y-6118468D01*
X8349608Y-5985218D01*
X8079109Y-5903164D01*
X7868292Y-5882400D01*
X7727308Y-5882400D01*
X7516491Y-5903164D01*
X7245992Y-5985218D01*
X6996699Y-6118468D01*
X6778192Y-6297792D01*
X6598868Y-6516299D01*
X6465618Y-6765592D01*
X6383564Y-7036091D01*
X6355857Y-7317400D01*
X-5026992Y-7317400D01*
X-4928320Y-7169727D01*
X-4820147Y-6908574D01*
X-4765000Y-6631335D01*
X-4765000Y-6348665D01*
X-4820147Y-6071426D01*
X-4928320Y-5810273D01*
X-5085363Y-5575241D01*
X-5285241Y-5375363D01*
X-5520273Y-5218320D01*
X-5781426Y-5110147D01*
X-6058665Y-5055000D01*
X-6341335Y-5055000D01*
X-6618574Y-5110147D01*
X-6879727Y-5218320D01*
X-7114759Y-5375363D01*
X-7314637Y-5575241D01*
X-7471680Y-5810273D01*
X-7579853Y-6071426D01*
X-7635000Y-6348665D01*
X-20011977Y-6348665D01*
X-20025764Y-6208691D01*
X-20107818Y-5938192D01*
X-20241068Y-5688899D01*
X-20420392Y-5470392D01*
X-20638899Y-5291068D01*
X-20888192Y-5157818D01*
X-21158691Y-5075764D01*
X-21369508Y-5055000D01*
X-21510492Y-5055000D01*
X-21721309Y-5075764D01*
X-21991808Y-5157818D01*
X-22241101Y-5291068D01*
X-22459608Y-5470392D01*
X-22638932Y-5688899D01*
X-22772182Y-5938192D01*
X-22854236Y-6208691D01*
X-22881943Y-6490000D01*
X-26775200Y-6490000D01*
X-26775200Y-1490000D01*
X-22881943Y-1490000D01*
X-22854236Y-1771309D01*
X-22772182Y-2041808D01*
X-22638932Y-2291101D01*
X-22459608Y-2509608D01*
X-22241101Y-2688932D01*
X-21991808Y-2822182D01*
X-21721309Y-2904236D01*
X-21510492Y-2925000D01*
X-21369508Y-2925000D01*
X-21158691Y-2904236D01*
X-20888192Y-2822182D01*
X-20638899Y-2688932D01*
X-20420392Y-2509608D01*
X-20241068Y-2291101D01*
X-20107818Y-2041808D01*
X-20025764Y-1771309D01*
X-19998057Y-1490000D01*
X-20011977Y-1348665D01*
X-7635000Y-1348665D01*
X-7635000Y-1631335D01*
X-7579853Y-1908574D01*
X-7471680Y-2169727D01*
X-7314637Y-2404759D01*
X-7114759Y-2604637D01*
X-6879727Y-2761680D01*
X-6618574Y-2869853D01*
X-6341335Y-2925000D01*
X-6058665Y-2925000D01*
X-5781426Y-2869853D01*
X-5520273Y-2761680D01*
X-5285241Y-2604637D01*
X-5085363Y-2404759D01*
X-4928320Y-2169727D01*
X-4820147Y-1908574D01*
X-4765000Y-1631335D01*
X-4765000Y-1348665D01*
X-4820147Y-1071426D01*
X-4928320Y-810273D01*
X-5085363Y-575241D01*
X-5285241Y-375363D01*
X-5520273Y-218320D01*
X-5781426Y-110147D01*
X-6058665Y-55000D01*
X-6341335Y-55000D01*
X-6618574Y-110147D01*
X-6879727Y-218320D01*
X-7114759Y-375363D01*
X-7314637Y-575241D01*
X-7471680Y-810273D01*
X-7579853Y-1071426D01*
X-7635000Y-1348665D01*
X-20011977Y-1348665D01*
X-20025764Y-1208691D01*
X-20107818Y-938192D01*
X-20241068Y-688899D01*
X-20420392Y-470392D01*
X-20638899Y-291068D01*
X-20888192Y-157818D01*
X-21158691Y-75764D01*
X-21369508Y-55000D01*
X-21510492Y-55000D01*
X-21721309Y-75764D01*
X-21991808Y-157818D01*
X-22241101Y-291068D01*
X-22459608Y-470392D01*
X-22638932Y-688899D01*
X-22772182Y-938192D01*
X-22854236Y-1208691D01*
X-22881943Y-1490000D01*
X-26775200Y-1490000D01*
X-26775200Y4010000D01*
X-22881943Y4010000D01*
X-22854236Y3728691D01*
X-22772182Y3458192D01*
X-22638932Y3208899D01*
X-22459608Y2990392D01*
X-22241101Y2811068D01*
X-21991808Y2677818D01*
X-21721309Y2595764D01*
X-21510492Y2575000D01*
X-21369508Y2575000D01*
X-21158691Y2595764D01*
X-20888192Y2677818D01*
X-20638899Y2811068D01*
X-20420392Y2990392D01*
X-20241068Y3208899D01*
X-20107818Y3458192D01*
X-20025764Y3728691D01*
X-19998057Y4010000D01*
X-20011977Y4151335D01*
X-7635000Y4151335D01*
X-7635000Y3868665D01*
X-7579853Y3591426D01*
X-7471680Y3330273D01*
X-7314637Y3095241D01*
X-7114759Y2895363D01*
X-6879727Y2738320D01*
X-6618574Y2630147D01*
X-6341335Y2575000D01*
X-6058665Y2575000D01*
X-5781426Y2630147D01*
X-5520273Y2738320D01*
X-5285241Y2895363D01*
X-5085363Y3095241D01*
X-4928320Y3330273D01*
X-4820147Y3591426D01*
X-4765000Y3868665D01*
X-4765000Y4151335D01*
X-4820147Y4428574D01*
X-4928320Y4689727D01*
X-5085363Y4924759D01*
X-5285241Y5124637D01*
X-5520273Y5281680D01*
X-5781426Y5389853D01*
X-6058665Y5445000D01*
X-6341335Y5445000D01*
X-6618574Y5389853D01*
X-6879727Y5281680D01*
X-7114759Y5124637D01*
X-7314637Y4924759D01*
X-7471680Y4689727D01*
X-7579853Y4428574D01*
X-7635000Y4151335D01*
X-20011977Y4151335D01*
X-20025764Y4291309D01*
X-20107818Y4561808D01*
X-20241068Y4811101D01*
X-20420392Y5029608D01*
X-20638899Y5208932D01*
X-20888192Y5342182D01*
X-21158691Y5424236D01*
X-21369508Y5445000D01*
X-21510492Y5445000D01*
X-21721309Y5424236D01*
X-21991808Y5342182D01*
X-22241101Y5208932D01*
X-22459608Y5029608D01*
X-22638932Y4811101D01*
X-22772182Y4561808D01*
X-22854236Y4291309D01*
X-22881943Y4010000D01*
X-26775200Y4010000D01*
X-26775200Y6898512D01*
X-1515200Y6898512D01*
X-1515200Y6665088D01*
X-1469661Y6436148D01*
X-1380334Y6220492D01*
X-1250650Y6026406D01*
X-1085594Y5861350D01*
X-891508Y5731666D01*
X-675852Y5642339D01*
X-446912Y5596800D01*
X-213488Y5596800D01*
X15452Y5642339D01*
X231108Y5731666D01*
X304800Y5780905D01*
X378492Y5731666D01*
X594148Y5642339D01*
X823088Y5596800D01*
X1056512Y5596800D01*
X1285452Y5642339D01*
X1501108Y5731666D01*
X1574800Y5780905D01*
X1648492Y5731666D01*
X1864148Y5642339D01*
X2093088Y5596800D01*
X2326512Y5596800D01*
X2555452Y5642339D01*
X2771108Y5731666D01*
X2844800Y5780905D01*
X2918492Y5731666D01*
X3134148Y5642339D01*
X3363088Y5596800D01*
X3596512Y5596800D01*
X3825452Y5642339D01*
X4041108Y5731666D01*
X4235194Y5861350D01*
X4400250Y6026406D01*
X4529934Y6220492D01*
X4619261Y6436148D01*
X4664800Y6665088D01*
X4664800Y6898512D01*
X4619261Y7127452D01*
X4529934Y7343108D01*
X4400250Y7537194D01*
X4235194Y7702250D01*
X4041108Y7831934D01*
X3825452Y7921261D01*
X3596512Y7966800D01*
X3363088Y7966800D01*
X3134148Y7921261D01*
X2918492Y7831934D01*
X2844800Y7782695D01*
X2771108Y7831934D01*
X2555452Y7921261D01*
X2326512Y7966800D01*
X2093088Y7966800D01*
X1864148Y7921261D01*
X1648492Y7831934D01*
X1574800Y7782695D01*
X1501108Y7831934D01*
X1285452Y7921261D01*
X1056512Y7966800D01*
X823088Y7966800D01*
X594148Y7921261D01*
X378492Y7831934D01*
X304800Y7782695D01*
X231108Y7831934D01*
X15452Y7921261D01*
X-213488Y7966800D01*
X-446912Y7966800D01*
X-675852Y7921261D01*
X-891508Y7831934D01*
X-1085594Y7702250D01*
X-1250650Y7537194D01*
X-1380334Y7343108D01*
X-1469661Y7127452D01*
X-1515200Y6898512D01*
X-26775200Y6898512D01*
X-26775200Y8063935D01*
X6362800Y8063935D01*
X6362800Y7781265D01*
X6417947Y7504026D01*
X6526120Y7242873D01*
X6683163Y7007841D01*
X6883041Y6807963D01*
X7118073Y6650920D01*
X7379226Y6542747D01*
X7656465Y6487600D01*
X7939135Y6487600D01*
X8216374Y6542747D01*
X8477527Y6650920D01*
X8712559Y6807963D01*
X8912437Y7007841D01*
X9069480Y7242873D01*
X9177653Y7504026D01*
X9232800Y7781265D01*
X9232800Y8063935D01*
X9207101Y8193135D01*
X12839800Y8193135D01*
X12839800Y7910465D01*
X12894947Y7633226D01*
X13003120Y7372073D01*
X13160163Y7137041D01*
X13360041Y6937163D01*
X13595073Y6780120D01*
X13856226Y6671947D01*
X14133465Y6616800D01*
X14416135Y6616800D01*
X14693374Y6671947D01*
X14954527Y6780120D01*
X15189559Y6937163D01*
X15389437Y7137041D01*
X15546480Y7372073D01*
X15654653Y7633226D01*
X15709800Y7910465D01*
X15709800Y8193135D01*
X15654653Y8470374D01*
X15546480Y8731527D01*
X15389437Y8966559D01*
X15189559Y9166437D01*
X14954527Y9323480D01*
X14693374Y9431653D01*
X14416135Y9486800D01*
X14133465Y9486800D01*
X13856226Y9431653D01*
X13595073Y9323480D01*
X13360041Y9166437D01*
X13160163Y8966559D01*
X13003120Y8731527D01*
X12894947Y8470374D01*
X12839800Y8193135D01*
X9207101Y8193135D01*
X9177653Y8341174D01*
X9069480Y8602327D01*
X8912437Y8837359D01*
X8712559Y9037237D01*
X8477527Y9194280D01*
X8216374Y9302453D01*
X7939135Y9357600D01*
X7656465Y9357600D01*
X7379226Y9302453D01*
X7118073Y9194280D01*
X6883041Y9037237D01*
X6683163Y8837359D01*
X6526120Y8602327D01*
X6417947Y8341174D01*
X6362800Y8063935D01*
X-26775200Y8063935D01*
X-26775200Y11542893D01*
X-26630254Y11446043D01*
X-26372740Y11339377D01*
X-26099365Y11285000D01*
X-25820635Y11285000D01*
X-25547260Y11339377D01*
X-25289746Y11446043D01*
X-25057990Y11600897D01*
X-24860897Y11797990D01*
X-24706043Y12029746D01*
X-24690000Y12068477D01*
X-24673957Y12029746D01*
X-24519103Y11797990D01*
X-24322010Y11600897D01*
X-24090254Y11446043D01*
X-23832740Y11339377D01*
X-23559365Y11285000D01*
X-23280635Y11285000D01*
X-23007260Y11339377D01*
X-22749746Y11446043D01*
X-22517990Y11600897D01*
X-22320897Y11797990D01*
X-22166043Y12029746D01*
X-22150000Y12068477D01*
X-22133957Y12029746D01*
X-21979103Y11797990D01*
X-21782010Y11600897D01*
X-21550254Y11446043D01*
X-21292740Y11339377D01*
X-21019365Y11285000D01*
X-20740635Y11285000D01*
X-20467260Y11339377D01*
X-20209746Y11446043D01*
X-19977990Y11600897D01*
X-19780897Y11797990D01*
X-19626043Y12029746D01*
X-19610000Y12068477D01*
X-19593957Y12029746D01*
X-19439103Y11797990D01*
X-19242010Y11600897D01*
X-19010254Y11446043D01*
X-18752740Y11339377D01*
X-18479365Y11285000D01*
X-18200635Y11285000D01*
X-17927260Y11339377D01*
X-17669746Y11446043D01*
X-17437990Y11600897D01*
X-17240897Y11797990D01*
X-17086043Y12029746D01*
X-17070000Y12068477D01*
X-17053957Y12029746D01*
X-16899103Y11797990D01*
X-16702010Y11600897D01*
X-16470254Y11446043D01*
X-16212740Y11339377D01*
X-15939365Y11285000D01*
X-15660635Y11285000D01*
X-15387260Y11339377D01*
X-15129746Y11446043D01*
X-14897990Y11600897D01*
X-14700897Y11797990D01*
X-14546043Y12029746D01*
X-14530000Y12068477D01*
X-14513957Y12029746D01*
X-14359103Y11797990D01*
X-14162010Y11600897D01*
X-13930254Y11446043D01*
X-13672740Y11339377D01*
X-13399365Y11285000D01*
X-13120635Y11285000D01*
X-12847260Y11339377D01*
X-12589746Y11446043D01*
X-12357990Y11600897D01*
X-12160897Y11797990D01*
X-12006043Y12029746D01*
X-11990000Y12068477D01*
X-11973957Y12029746D01*
X-11819103Y11797990D01*
X-11622010Y11600897D01*
X-11390254Y11446043D01*
X-11132740Y11339377D01*
X-10859365Y11285000D01*
X-10580635Y11285000D01*
X-10307260Y11339377D01*
X-10049746Y11446043D01*
X-9817990Y11600897D01*
X-9620897Y11797990D01*
X-9466043Y12029746D01*
X-9450000Y12068477D01*
X-9433957Y12029746D01*
X-9279103Y11797990D01*
X-9082010Y11600897D01*
X-8850254Y11446043D01*
X-8592740Y11339377D01*
X-8319365Y11285000D01*
X-8040635Y11285000D01*
X-7767260Y11339377D01*
X-7509746Y11446043D01*
X-7277990Y11600897D01*
X-7080897Y11797990D01*
X-6926043Y12029746D01*
X-6910000Y12068477D01*
X-6893957Y12029746D01*
X-6739103Y11797990D01*
X-6542010Y11600897D01*
X-6310254Y11446043D01*
X-6052740Y11339377D01*
X-5779365Y11285000D01*
X-5500635Y11285000D01*
X-5227260Y11339377D01*
X-4969746Y11446043D01*
X-4737990Y11600897D01*
X-4540897Y11797990D01*
X-4386043Y12029746D01*
X-4370000Y12068477D01*
X-4353957Y12029746D01*
X-4199103Y11797990D01*
X-4002010Y11600897D01*
X-3770254Y11446043D01*
X-3512740Y11339377D01*
X-3239365Y11285000D01*
X-2960635Y11285000D01*
X-2687260Y11339377D01*
X-2429746Y11446043D01*
X-2197990Y11600897D01*
X-2000897Y11797990D01*
X-1846043Y12029746D01*
X-1830000Y12068477D01*
X-1813957Y12029746D01*
X-1659103Y11797990D01*
X-1462010Y11600897D01*
X-1230254Y11446043D01*
X-972740Y11339377D01*
X-699365Y11285000D01*
X-420635Y11285000D01*
X-147260Y11339377D01*
X110254Y11446043D01*
X342010Y11600897D01*
X539103Y11797990D01*
X693957Y12029746D01*
X710000Y12068477D01*
X726043Y12029746D01*
X880897Y11797990D01*
X1077990Y11600897D01*
X1309746Y11446043D01*
X1567260Y11339377D01*
X1840635Y11285000D01*
X2119365Y11285000D01*
X2392740Y11339377D01*
X2650254Y11446043D01*
X2882010Y11600897D01*
X3079103Y11797990D01*
X3233957Y12029746D01*
X3250000Y12068477D01*
X3266043Y12029746D01*
X3420897Y11797990D01*
X3617990Y11600897D01*
X3849746Y11446043D01*
X4107260Y11339377D01*
X4380635Y11285000D01*
X4659365Y11285000D01*
X4932740Y11339377D01*
X5190254Y11446043D01*
X5422010Y11600897D01*
X5619103Y11797990D01*
X5773957Y12029746D01*
X5790000Y12068477D01*
X5806043Y12029746D01*
X5960897Y11797990D01*
X6157990Y11600897D01*
X6389746Y11446043D01*
X6647260Y11339377D01*
X6920635Y11285000D01*
X7199365Y11285000D01*
X7472740Y11339377D01*
X7730254Y11446043D01*
X7962010Y11600897D01*
X8159103Y11797990D01*
X8313957Y12029746D01*
X8330000Y12068477D01*
X8346043Y12029746D01*
X8500897Y11797990D01*
X8697990Y11600897D01*
X8929746Y11446043D01*
X9187260Y11339377D01*
X9460635Y11285000D01*
X9739365Y11285000D01*
X10012740Y11339377D01*
X10270254Y11446043D01*
X10502010Y11600897D01*
X10699103Y11797990D01*
X10853957Y12029746D01*
X10870000Y12068477D01*
X10886043Y12029746D01*
X11040897Y11797990D01*
X11237990Y11600897D01*
X11469746Y11446043D01*
X11727260Y11339377D01*
X12000635Y11285000D01*
X12279365Y11285000D01*
X12552740Y11339377D01*
X12810254Y11446043D01*
X13042010Y11600897D01*
X13239103Y11797990D01*
X13393957Y12029746D01*
X13410000Y12068477D01*
X13426043Y12029746D01*
X13580897Y11797990D01*
X13777990Y11600897D01*
X14009746Y11446043D01*
X14267260Y11339377D01*
X14540635Y11285000D01*
X14819365Y11285000D01*
X15092740Y11339377D01*
X15350254Y11446043D01*
X15582010Y11600897D01*
X15779103Y11797990D01*
X15933957Y12029746D01*
X15950000Y12068477D01*
X15966043Y12029746D01*
X16120897Y11797990D01*
X16317990Y11600897D01*
X16549746Y11446043D01*
X16807260Y11339377D01*
X17080635Y11285000D01*
X17359365Y11285000D01*
X17632740Y11339377D01*
X17890254Y11446043D01*
X18122010Y11600897D01*
X18319103Y11797990D01*
X18349469Y11843436D01*
X18354188Y11795518D01*
X18390498Y11675820D01*
X18449463Y11565506D01*
X18528815Y11468815D01*
X18625506Y11389463D01*
X18735820Y11330498D01*
X18855518Y11294188D01*
X18980000Y11281928D01*
X20540000Y11281928D01*
X20664482Y11294188D01*
X20784180Y11330498D01*
X20894494Y11389463D01*
X20991185Y11468815D01*
X21070537Y11565506D01*
X21129502Y11675820D01*
X21165812Y11795518D01*
X21172655Y11865000D01*
X27060733Y11865000D01*
X28679801Y10245931D01*
X28679800Y-9687182D01*
X28675760Y-9728200D01*
X28679800Y-9769218D01*
X28691882Y-9891888D01*
X28739628Y-10049286D01*
X28817164Y-10194345D01*
X28921509Y-10321491D01*
X28953379Y-10347646D01*
X35470359Y-16864627D01*
X35496509Y-16896491D01*
X35623654Y-17000836D01*
X35768713Y-17078372D01*
X35926111Y-17126118D01*
X36089799Y-17142240D01*
X36130818Y-17138200D01*
X41962713Y-17138200D01*
X41973988Y-17252682D01*
X42010298Y-17372380D01*
X42069263Y-17482694D01*
X42148615Y-17579385D01*
X42245306Y-17658737D01*
X42355620Y-17717702D01*
X42475318Y-17754012D01*
X42599800Y-17766272D01*
X44249800Y-17766272D01*
X44374282Y-17754012D01*
X44493980Y-17717702D01*
X44604294Y-17658737D01*
X44700985Y-17579385D01*
X44780337Y-17482694D01*
X44839302Y-17372380D01*
X44875612Y-17252682D01*
X44887872Y-17128200D01*
X44887872Y-15478200D01*
X44875612Y-15353718D01*
X44839302Y-15234020D01*
X44780337Y-15123706D01*
X44700985Y-15027015D01*
X44604294Y-14947663D01*
X44493980Y-14888698D01*
X44374282Y-14852388D01*
X44249800Y-14840128D01*
X44235657Y-14840128D01*
X44255746Y-14773751D01*
X43424800Y-13942805D01*
X42593854Y-14773751D01*
X42613943Y-14840128D01*
X42599800Y-14840128D01*
X42475318Y-14852388D01*
X42355620Y-14888698D01*
X42245306Y-14947663D01*
X42148615Y-15027015D01*
X42069263Y-15123706D01*
X42010298Y-15234020D01*
X41973988Y-15353718D01*
X41962713Y-15468200D01*
X36435668Y-15468200D01*
X34800189Y-13832721D01*
X41959383Y-13832721D01*
X42001103Y-14117274D01*
X42097535Y-14388220D01*
X42167727Y-14519537D01*
X42414249Y-14594146D01*
X43245195Y-13763200D01*
X43604405Y-13763200D01*
X44435351Y-14594146D01*
X44681873Y-14519537D01*
X44805273Y-14259761D01*
X44875623Y-13980903D01*
X44890217Y-13693679D01*
X44848497Y-13409126D01*
X44752065Y-13138180D01*
X44681873Y-13006863D01*
X44435351Y-12932254D01*
X43604405Y-13763200D01*
X43245195Y-13763200D01*
X42414249Y-12932254D01*
X42167727Y-13006863D01*
X42044327Y-13266639D01*
X41973977Y-13545497D01*
X41959383Y-13832721D01*
X34800189Y-13832721D01*
X30349800Y-9382333D01*
X30349800Y-3459403D01*
X41964800Y-3459403D01*
X41964800Y-3746997D01*
X42020907Y-4029066D01*
X42130965Y-4294769D01*
X42290744Y-4533896D01*
X42494104Y-4737256D01*
X42697559Y-4873200D01*
X42494104Y-5009144D01*
X42290744Y-5212504D01*
X42130965Y-5451631D01*
X42020907Y-5717334D01*
X41964800Y-5999403D01*
X41964800Y-6286997D01*
X42020907Y-6569066D01*
X42130965Y-6834769D01*
X42290744Y-7073896D01*
X42494104Y-7277256D01*
X42697559Y-7413200D01*
X42494104Y-7549144D01*
X42290744Y-7752504D01*
X42130965Y-7991631D01*
X42020907Y-8257334D01*
X41964800Y-8539403D01*
X41964800Y-8826997D01*
X42020907Y-9109066D01*
X42130965Y-9374769D01*
X42290744Y-9613896D01*
X42494104Y-9817256D01*
X42697559Y-9953200D01*
X42494104Y-10089144D01*
X42290744Y-10292504D01*
X42130965Y-10531631D01*
X42020907Y-10797334D01*
X41964800Y-11079403D01*
X41964800Y-11366997D01*
X42020907Y-11649066D01*
X42130965Y-11914769D01*
X42290744Y-12153896D01*
X42494104Y-12357256D01*
X42695376Y-12491741D01*
X42668463Y-12506127D01*
X42593854Y-12752649D01*
X43424800Y-13583595D01*
X44255746Y-12752649D01*
X44181137Y-12506127D01*
X44152823Y-12492677D01*
X44355496Y-12357256D01*
X44558856Y-12153896D01*
X44718635Y-11914769D01*
X44828693Y-11649066D01*
X44884800Y-11366997D01*
X44884800Y-11079403D01*
X44828693Y-10797334D01*
X44718635Y-10531631D01*
X44558856Y-10292504D01*
X44355496Y-10089144D01*
X44152041Y-9953200D01*
X44355496Y-9817256D01*
X44558856Y-9613896D01*
X44718635Y-9374769D01*
X44828693Y-9109066D01*
X44884800Y-8826997D01*
X44884800Y-8539403D01*
X44828693Y-8257334D01*
X44718635Y-7991631D01*
X44558856Y-7752504D01*
X44355496Y-7549144D01*
X44152041Y-7413200D01*
X44355496Y-7277256D01*
X44558856Y-7073896D01*
X44718635Y-6834769D01*
X44828693Y-6569066D01*
X44884800Y-6286997D01*
X44884800Y-5999403D01*
X44828693Y-5717334D01*
X44718635Y-5451631D01*
X44558856Y-5212504D01*
X44355496Y-5009144D01*
X44152041Y-4873200D01*
X44355496Y-4737256D01*
X44558856Y-4533896D01*
X44718635Y-4294769D01*
X44828693Y-4029066D01*
X44884800Y-3746997D01*
X44884800Y-3459403D01*
X44828693Y-3177334D01*
X44718635Y-2911631D01*
X44558856Y-2672504D01*
X44355496Y-2469144D01*
X44154224Y-2334659D01*
X44181137Y-2320273D01*
X44255746Y-2073751D01*
X43424800Y-1242805D01*
X42593854Y-2073751D01*
X42668463Y-2320273D01*
X42696777Y-2333723D01*
X42494104Y-2469144D01*
X42290744Y-2672504D01*
X42130965Y-2911631D01*
X42020907Y-3177334D01*
X41964800Y-3459403D01*
X30349800Y-3459403D01*
X30349800Y-1132721D01*
X41959383Y-1132721D01*
X42001103Y-1417274D01*
X42097535Y-1688220D01*
X42167727Y-1819537D01*
X42414249Y-1894146D01*
X43245195Y-1063200D01*
X43604405Y-1063200D01*
X44435351Y-1894146D01*
X44681873Y-1819537D01*
X44805273Y-1559761D01*
X44875623Y-1280903D01*
X44890217Y-993679D01*
X44848497Y-709126D01*
X44752065Y-438180D01*
X44681873Y-306863D01*
X44435351Y-232254D01*
X43604405Y-1063200D01*
X43245195Y-1063200D01*
X42414249Y-232254D01*
X42167727Y-306863D01*
X42044327Y-566639D01*
X41973977Y-845497D01*
X41959383Y-1132721D01*
X30349800Y-1132721D01*
X30349800Y-52649D01*
X42593854Y-52649D01*
X43424800Y-883595D01*
X44255746Y-52649D01*
X44181137Y193873D01*
X43921361Y317273D01*
X43642503Y387623D01*
X43355279Y402217D01*
X43070726Y360497D01*
X42799780Y264065D01*
X42668463Y193873D01*
X42593854Y-52649D01*
X30349800Y-52649D01*
X30349800Y10550782D01*
X30353840Y10591801D01*
X30337718Y10755489D01*
X30289972Y10912887D01*
X30212436Y11057946D01*
X30108091Y11185091D01*
X30076227Y11211241D01*
X28026046Y13261421D01*
X27999891Y13293291D01*
X27872746Y13397636D01*
X27727687Y13475172D01*
X27570289Y13522918D01*
X27447619Y13535000D01*
X27447618Y13535000D01*
X27406600Y13539040D01*
X27365582Y13535000D01*
X21172655Y13535000D01*
X21165812Y13604482D01*
X21129502Y13724180D01*
X21070537Y13834494D01*
X20991185Y13931185D01*
X20894494Y14010537D01*
X20784180Y14069502D01*
X20664482Y14105812D01*
X20540000Y14118072D01*
X18980000Y14118072D01*
X18855518Y14105812D01*
X18735820Y14069502D01*
X18625506Y14010537D01*
X18528815Y13931185D01*
X18449463Y13834494D01*
X18390498Y13724180D01*
X18354188Y13604482D01*
X18349469Y13556564D01*
X18319103Y13602010D01*
X18122010Y13799103D01*
X17890254Y13953957D01*
X17632740Y14060623D01*
X17359365Y14115000D01*
X17080635Y14115000D01*
X16807260Y14060623D01*
X16549746Y13953957D01*
X16317990Y13799103D01*
X16120897Y13602010D01*
X15966043Y13370254D01*
X15950000Y13331523D01*
X15933957Y13370254D01*
X15779103Y13602010D01*
X15582010Y13799103D01*
X15350254Y13953957D01*
X15092740Y14060623D01*
X14819365Y14115000D01*
X14540635Y14115000D01*
X14267260Y14060623D01*
X14009746Y13953957D01*
X13777990Y13799103D01*
X13580897Y13602010D01*
X13426043Y13370254D01*
X13410000Y13331523D01*
X13393957Y13370254D01*
X13239103Y13602010D01*
X13042010Y13799103D01*
X12810254Y13953957D01*
X12552740Y14060623D01*
X12279365Y14115000D01*
X12000635Y14115000D01*
X11727260Y14060623D01*
X11469746Y13953957D01*
X11237990Y13799103D01*
X11040897Y13602010D01*
X10886043Y13370254D01*
X10870000Y13331523D01*
X10853957Y13370254D01*
X10699103Y13602010D01*
X10502010Y13799103D01*
X10270254Y13953957D01*
X10012740Y14060623D01*
X9739365Y14115000D01*
X9460635Y14115000D01*
X9187260Y14060623D01*
X8929746Y13953957D01*
X8697990Y13799103D01*
X8500897Y13602010D01*
X8346043Y13370254D01*
X8330000Y13331523D01*
X8313957Y13370254D01*
X8159103Y13602010D01*
X7962010Y13799103D01*
X7730254Y13953957D01*
X7472740Y14060623D01*
X7199365Y14115000D01*
X6920635Y14115000D01*
X6647260Y14060623D01*
X6389746Y13953957D01*
X6157990Y13799103D01*
X5960897Y13602010D01*
X5806043Y13370254D01*
X5790000Y13331523D01*
X5773957Y13370254D01*
X5619103Y13602010D01*
X5422010Y13799103D01*
X5190254Y13953957D01*
X4932740Y14060623D01*
X4659365Y14115000D01*
X4380635Y14115000D01*
X4107260Y14060623D01*
X3849746Y13953957D01*
X3617990Y13799103D01*
X3420897Y13602010D01*
X3266043Y13370254D01*
X3250000Y13331523D01*
X3233957Y13370254D01*
X3079103Y13602010D01*
X2882010Y13799103D01*
X2650254Y13953957D01*
X2392740Y14060623D01*
X2119365Y14115000D01*
X1840635Y14115000D01*
X1567260Y14060623D01*
X1309746Y13953957D01*
X1077990Y13799103D01*
X880897Y13602010D01*
X726043Y13370254D01*
X710000Y13331523D01*
X693957Y13370254D01*
X539103Y13602010D01*
X342010Y13799103D01*
X110254Y13953957D01*
X-147260Y14060623D01*
X-420635Y14115000D01*
X-699365Y14115000D01*
X-972740Y14060623D01*
X-1230254Y13953957D01*
X-1462010Y13799103D01*
X-1659103Y13602010D01*
X-1813957Y13370254D01*
X-1830000Y13331523D01*
X-1846043Y13370254D01*
X-2000897Y13602010D01*
X-2197990Y13799103D01*
X-2429746Y13953957D01*
X-2687260Y14060623D01*
X-2960635Y14115000D01*
X-3239365Y14115000D01*
X-3512740Y14060623D01*
X-3770254Y13953957D01*
X-4002010Y13799103D01*
X-4199103Y13602010D01*
X-4353957Y13370254D01*
X-4370000Y13331523D01*
X-4386043Y13370254D01*
X-4540897Y13602010D01*
X-4737990Y13799103D01*
X-4969746Y13953957D01*
X-5227260Y14060623D01*
X-5500635Y14115000D01*
X-5779365Y14115000D01*
X-6052740Y14060623D01*
X-6310254Y13953957D01*
X-6542010Y13799103D01*
X-6739103Y13602010D01*
X-6893957Y13370254D01*
X-6910000Y13331523D01*
X-6926043Y13370254D01*
X-7080897Y13602010D01*
X-7277990Y13799103D01*
X-7509746Y13953957D01*
X-7767260Y14060623D01*
X-8040635Y14115000D01*
X-8319365Y14115000D01*
X-8592740Y14060623D01*
X-8850254Y13953957D01*
X-9082010Y13799103D01*
X-9279103Y13602010D01*
X-9433957Y13370254D01*
X-9450000Y13331523D01*
X-9466043Y13370254D01*
X-9620897Y13602010D01*
X-9817990Y13799103D01*
X-10049746Y13953957D01*
X-10307260Y14060623D01*
X-10580635Y14115000D01*
X-10859365Y14115000D01*
X-11132740Y14060623D01*
X-11390254Y13953957D01*
X-11622010Y13799103D01*
X-11819103Y13602010D01*
X-11973957Y13370254D01*
X-11990000Y13331523D01*
X-12006043Y13370254D01*
X-12160897Y13602010D01*
X-12357990Y13799103D01*
X-12589746Y13953957D01*
X-12847260Y14060623D01*
X-13120635Y14115000D01*
X-13399365Y14115000D01*
X-13672740Y14060623D01*
X-13930254Y13953957D01*
X-14162010Y13799103D01*
X-14359103Y13602010D01*
X-14513957Y13370254D01*
X-14530000Y13331523D01*
X-14546043Y13370254D01*
X-14700897Y13602010D01*
X-14897990Y13799103D01*
X-15129746Y13953957D01*
X-15387260Y14060623D01*
X-15660635Y14115000D01*
X-15939365Y14115000D01*
X-16212740Y14060623D01*
X-16470254Y13953957D01*
X-16702010Y13799103D01*
X-16899103Y13602010D01*
X-17053957Y13370254D01*
X-17070000Y13331523D01*
X-17086043Y13370254D01*
X-17240897Y13602010D01*
X-17437990Y13799103D01*
X-17669746Y13953957D01*
X-17927260Y14060623D01*
X-18200635Y14115000D01*
X-18479365Y14115000D01*
X-18752740Y14060623D01*
X-19010254Y13953957D01*
X-19242010Y13799103D01*
X-19439103Y13602010D01*
X-19593957Y13370254D01*
X-19610000Y13331523D01*
X-19626043Y13370254D01*
X-19780897Y13602010D01*
X-19977990Y13799103D01*
X-20209746Y13953957D01*
X-20467260Y14060623D01*
X-20740635Y14115000D01*
X-21019365Y14115000D01*
X-21292740Y14060623D01*
X-21550254Y13953957D01*
X-21782010Y13799103D01*
X-21979103Y13602010D01*
X-22133957Y13370254D01*
X-22150000Y13331523D01*
X-22166043Y13370254D01*
X-22320897Y13602010D01*
X-22517990Y13799103D01*
X-22749746Y13953957D01*
X-23007260Y14060623D01*
X-23280635Y14115000D01*
X-23559365Y14115000D01*
X-23832740Y14060623D01*
X-24090254Y13953957D01*
X-24322010Y13799103D01*
X-24519103Y13602010D01*
X-24673957Y13370254D01*
X-24690000Y13331523D01*
X-24706043Y13370254D01*
X-24860897Y13602010D01*
X-25057990Y13799103D01*
X-25289746Y13953957D01*
X-25547260Y14060623D01*
X-25820635Y14115000D01*
X-26099365Y14115000D01*
X-26372740Y14060623D01*
X-26630254Y13953957D01*
X-26775200Y13857107D01*
X-26775200Y20156800D01*
X-24336808Y20156800D01*
X-24553646Y20011914D01*
X-24553646Y20011914D01*
G37*
X-24553646Y20011914D02*
X-24990314Y19575246D01*
X-25333401Y19061779D01*
X-25569724Y18491246D01*
X-25690200Y17885571D01*
X-25690200Y17268029D01*
X-25569724Y16662354D01*
X-25333401Y16091821D01*
X-24990314Y15578354D01*
X-24553646Y15141686D01*
X-24040179Y14798599D01*
X-23469646Y14562276D01*
X-22863971Y14441800D01*
X-22246429Y14441800D01*
X-21640754Y14562276D01*
X-21070221Y14798599D01*
X-20556754Y15141686D01*
X-20120086Y15578354D01*
X-19776999Y16091821D01*
X-19540676Y16662354D01*
X-19420200Y17268029D01*
X-19420200Y17885571D01*
X-19540676Y18491246D01*
X-19776999Y19061779D01*
X-20120086Y19575246D01*
X-20556754Y20011914D01*
X-20773592Y20156800D01*
X16303192Y20156800D01*
X16086354Y20011914D01*
X15649686Y19575246D01*
X15306599Y19061779D01*
X15070276Y18491246D01*
X14949800Y17885571D01*
X14949800Y17268029D01*
X15070276Y16662354D01*
X15306599Y16091821D01*
X15649686Y15578354D01*
X16086354Y15141686D01*
X16599821Y14798599D01*
X17170354Y14562276D01*
X17776029Y14441800D01*
X18393571Y14441800D01*
X18999246Y14562276D01*
X19569779Y14798599D01*
X20083246Y15141686D01*
X20519914Y15578354D01*
X20863001Y16091821D01*
X21099324Y16662354D01*
X21219800Y17268029D01*
X21219800Y17885571D01*
X21099324Y18491246D01*
X20863001Y19061779D01*
X20519914Y19575246D01*
X20083246Y20011914D01*
X19866408Y20156800D01*
X44904800Y20156800D01*
X44904801Y-20523200D01*
X19926273Y-20523200D01*
X20083246Y-20418314D01*
X20519914Y-19981646D01*
X20863001Y-19468179D01*
X21099324Y-18897646D01*
X21219800Y-18291971D01*
X21219800Y-17674429D01*
X21099324Y-17068754D01*
X20863001Y-16498221D01*
X20519914Y-15984754D01*
X20083246Y-15548086D01*
X19569779Y-15204999D01*
X18999246Y-14968676D01*
X18393571Y-14848200D01*
X17776029Y-14848200D01*
X17170354Y-14968676D01*
X16599821Y-15204999D01*
X16086354Y-15548086D01*
X15649686Y-15984754D01*
X15306599Y-16498221D01*
X15070276Y-17068754D01*
X14949800Y-17674429D01*
X14949800Y-18291971D01*
X15070276Y-18897646D01*
X15306599Y-19468179D01*
X15649686Y-19981646D01*
X16086354Y-20418314D01*
X16243327Y-20523200D01*
X-20713727Y-20523200D01*
X-20556754Y-20418314D01*
X-20120086Y-19981646D01*
X-19776999Y-19468179D01*
X-19540676Y-18897646D01*
X-19420200Y-18291971D01*
X-19420200Y-17674429D01*
X-19540676Y-17068754D01*
X-19776999Y-16498221D01*
X-20120086Y-15984754D01*
X-20556754Y-15548086D01*
X-21070221Y-15204999D01*
X-21640754Y-14968676D01*
X-22246429Y-14848200D01*
X-22863971Y-14848200D01*
X-23469646Y-14968676D01*
X-24040179Y-15204999D01*
X-24553646Y-15548086D01*
X-24990314Y-15984754D01*
X-25333401Y-16498221D01*
X-25569724Y-17068754D01*
X-25690200Y-17674429D01*
X-25690200Y-18291971D01*
X-25569724Y-18897646D01*
X-25333401Y-19468179D01*
X-24990314Y-19981646D01*
X-24553646Y-20418314D01*
X-24396673Y-20523200D01*
X-26775200Y-20523200D01*
X-26775200Y-13857107D01*
X-26630254Y-13953957D01*
X-26372740Y-14060623D01*
X-26099365Y-14115000D01*
X-25820635Y-14115000D01*
X-25547260Y-14060623D01*
X-25289746Y-13953957D01*
X-25057990Y-13799103D01*
X-24860897Y-13602010D01*
X-24706043Y-13370254D01*
X-24690000Y-13331523D01*
X-24673957Y-13370254D01*
X-24519103Y-13602010D01*
X-24322010Y-13799103D01*
X-24090254Y-13953957D01*
X-23832740Y-14060623D01*
X-23559365Y-14115000D01*
X-23280635Y-14115000D01*
X-23007260Y-14060623D01*
X-22749746Y-13953957D01*
X-22517990Y-13799103D01*
X-22320897Y-13602010D01*
X-22166043Y-13370254D01*
X-22150000Y-13331523D01*
X-22133957Y-13370254D01*
X-21979103Y-13602010D01*
X-21782010Y-13799103D01*
X-21550254Y-13953957D01*
X-21292740Y-14060623D01*
X-21019365Y-14115000D01*
X-20740635Y-14115000D01*
X-20467260Y-14060623D01*
X-20209746Y-13953957D01*
X-19977990Y-13799103D01*
X-19780897Y-13602010D01*
X-19626043Y-13370254D01*
X-19610000Y-13331523D01*
X-19593957Y-13370254D01*
X-19439103Y-13602010D01*
X-19242010Y-13799103D01*
X-19010254Y-13953957D01*
X-18752740Y-14060623D01*
X-18479365Y-14115000D01*
X-18200635Y-14115000D01*
X-17927260Y-14060623D01*
X-17669746Y-13953957D01*
X-17437990Y-13799103D01*
X-17240897Y-13602010D01*
X-17086043Y-13370254D01*
X-17070000Y-13331523D01*
X-17053957Y-13370254D01*
X-16899103Y-13602010D01*
X-16702010Y-13799103D01*
X-16470254Y-13953957D01*
X-16212740Y-14060623D01*
X-15939365Y-14115000D01*
X-15660635Y-14115000D01*
X-15387260Y-14060623D01*
X-15129746Y-13953957D01*
X-14897990Y-13799103D01*
X-14700897Y-13602010D01*
X-14546043Y-13370254D01*
X-14530000Y-13331523D01*
X-14513957Y-13370254D01*
X-14359103Y-13602010D01*
X-14162010Y-13799103D01*
X-13930254Y-13953957D01*
X-13672740Y-14060623D01*
X-13399365Y-14115000D01*
X-13120635Y-14115000D01*
X-12847260Y-14060623D01*
X-12589746Y-13953957D01*
X-12357990Y-13799103D01*
X-12160897Y-13602010D01*
X-12006043Y-13370254D01*
X-11990000Y-13331523D01*
X-11973957Y-13370254D01*
X-11819103Y-13602010D01*
X-11622010Y-13799103D01*
X-11390254Y-13953957D01*
X-11132740Y-14060623D01*
X-10859365Y-14115000D01*
X-10580635Y-14115000D01*
X-10307260Y-14060623D01*
X-10049746Y-13953957D01*
X-9817990Y-13799103D01*
X-9620897Y-13602010D01*
X-9466043Y-13370254D01*
X-9450000Y-13331523D01*
X-9433957Y-13370254D01*
X-9279103Y-13602010D01*
X-9082010Y-13799103D01*
X-8850254Y-13953957D01*
X-8592740Y-14060623D01*
X-8319365Y-14115000D01*
X-8040635Y-14115000D01*
X-7767260Y-14060623D01*
X-7509746Y-13953957D01*
X-7277990Y-13799103D01*
X-7080897Y-13602010D01*
X-6926043Y-13370254D01*
X-6910000Y-13331523D01*
X-6893957Y-13370254D01*
X-6739103Y-13602010D01*
X-6542010Y-13799103D01*
X-6310254Y-13953957D01*
X-6052740Y-14060623D01*
X-5779365Y-14115000D01*
X-5500635Y-14115000D01*
X-5227260Y-14060623D01*
X-4969746Y-13953957D01*
X-4737990Y-13799103D01*
X-4540897Y-13602010D01*
X-4386043Y-13370254D01*
X-4370000Y-13331523D01*
X-4353957Y-13370254D01*
X-4199103Y-13602010D01*
X-4002010Y-13799103D01*
X-3770254Y-13953957D01*
X-3512740Y-14060623D01*
X-3239365Y-14115000D01*
X-2960635Y-14115000D01*
X-2687260Y-14060623D01*
X-2429746Y-13953957D01*
X-2197990Y-13799103D01*
X-2000897Y-13602010D01*
X-1846043Y-13370254D01*
X-1830000Y-13331523D01*
X-1813957Y-13370254D01*
X-1659103Y-13602010D01*
X-1462010Y-13799103D01*
X-1230254Y-13953957D01*
X-972740Y-14060623D01*
X-699365Y-14115000D01*
X-420635Y-14115000D01*
X-147260Y-14060623D01*
X110254Y-13953957D01*
X342010Y-13799103D01*
X539103Y-13602010D01*
X693957Y-13370254D01*
X710000Y-13331523D01*
X726043Y-13370254D01*
X880897Y-13602010D01*
X1077990Y-13799103D01*
X1309746Y-13953957D01*
X1567260Y-14060623D01*
X1840635Y-14115000D01*
X2119365Y-14115000D01*
X2392740Y-14060623D01*
X2650254Y-13953957D01*
X2882010Y-13799103D01*
X3079103Y-13602010D01*
X3233957Y-13370254D01*
X3250000Y-13331523D01*
X3266043Y-13370254D01*
X3420897Y-13602010D01*
X3617990Y-13799103D01*
X3849746Y-13953957D01*
X4107260Y-14060623D01*
X4380635Y-14115000D01*
X4659365Y-14115000D01*
X4932740Y-14060623D01*
X5190254Y-13953957D01*
X5422010Y-13799103D01*
X5619103Y-13602010D01*
X5773957Y-13370254D01*
X5790000Y-13331523D01*
X5806043Y-13370254D01*
X5960897Y-13602010D01*
X6157990Y-13799103D01*
X6389746Y-13953957D01*
X6647260Y-14060623D01*
X6920635Y-14115000D01*
X7199365Y-14115000D01*
X7472740Y-14060623D01*
X7730254Y-13953957D01*
X7962010Y-13799103D01*
X8159103Y-13602010D01*
X8313957Y-13370254D01*
X8330000Y-13331523D01*
X8346043Y-13370254D01*
X8500897Y-13602010D01*
X8697990Y-13799103D01*
X8929746Y-13953957D01*
X9187260Y-14060623D01*
X9460635Y-14115000D01*
X9739365Y-14115000D01*
X10012740Y-14060623D01*
X10270254Y-13953957D01*
X10502010Y-13799103D01*
X10699103Y-13602010D01*
X10853957Y-13370254D01*
X10870000Y-13331523D01*
X10886043Y-13370254D01*
X11040897Y-13602010D01*
X11237990Y-13799103D01*
X11469746Y-13953957D01*
X11727260Y-14060623D01*
X12000635Y-14115000D01*
X12279365Y-14115000D01*
X12552740Y-14060623D01*
X12810254Y-13953957D01*
X13042010Y-13799103D01*
X13239103Y-13602010D01*
X13393957Y-13370254D01*
X13410000Y-13331523D01*
X13426043Y-13370254D01*
X13580897Y-13602010D01*
X13777990Y-13799103D01*
X14009746Y-13953957D01*
X14267260Y-14060623D01*
X14540635Y-14115000D01*
X14819365Y-14115000D01*
X15092740Y-14060623D01*
X15350254Y-13953957D01*
X15582010Y-13799103D01*
X15779103Y-13602010D01*
X15933957Y-13370254D01*
X15950000Y-13331523D01*
X15966043Y-13370254D01*
X16120897Y-13602010D01*
X16317990Y-13799103D01*
X16549746Y-13953957D01*
X16807260Y-14060623D01*
X17080635Y-14115000D01*
X17359365Y-14115000D01*
X17632740Y-14060623D01*
X17890254Y-13953957D01*
X18122010Y-13799103D01*
X18242692Y-13678421D01*
X18961184Y-13678421D01*
X19030345Y-13920349D01*
X19282443Y-14039248D01*
X19552894Y-14106681D01*
X19831303Y-14120057D01*
X20106972Y-14078860D01*
X20369308Y-13984675D01*
X20489655Y-13920349D01*
X20558816Y-13678421D01*
X19760000Y-12879605D01*
X18961184Y-13678421D01*
X18242692Y-13678421D01*
X18319103Y-13602010D01*
X18473957Y-13370254D01*
X18488777Y-13334475D01*
X18539651Y-13429655D01*
X18781579Y-13498816D01*
X19580395Y-12700000D01*
X19939605Y-12700000D01*
X20738421Y-13498816D01*
X20980349Y-13429655D01*
X21099248Y-13177557D01*
X21166681Y-12907106D01*
X21180057Y-12628697D01*
X21138860Y-12353028D01*
X21044675Y-12090692D01*
X20980349Y-11970345D01*
X20738421Y-11901184D01*
X19939605Y-12700000D01*
X19580395Y-12700000D01*
X18781579Y-11901184D01*
X18539651Y-11970345D01*
X18491575Y-12072279D01*
X18473957Y-12029746D01*
X18319103Y-11797990D01*
X18242692Y-11721579D01*
X18961184Y-11721579D01*
X19760000Y-12520395D01*
X20558816Y-11721579D01*
X20489655Y-11479651D01*
X20237557Y-11360752D01*
X19967106Y-11293319D01*
X19688697Y-11279943D01*
X19413028Y-11321140D01*
X19150692Y-11415325D01*
X19030345Y-11479651D01*
X18961184Y-11721579D01*
X18242692Y-11721579D01*
X18122010Y-11600897D01*
X17890254Y-11446043D01*
X17632740Y-11339377D01*
X17359365Y-11285000D01*
X17080635Y-11285000D01*
X16807260Y-11339377D01*
X16549746Y-11446043D01*
X16317990Y-11600897D01*
X16120897Y-11797990D01*
X15966043Y-12029746D01*
X15950000Y-12068477D01*
X15933957Y-12029746D01*
X15779103Y-11797990D01*
X15582010Y-11600897D01*
X15350254Y-11446043D01*
X15092740Y-11339377D01*
X14819365Y-11285000D01*
X14540635Y-11285000D01*
X14267260Y-11339377D01*
X14009746Y-11446043D01*
X13777990Y-11600897D01*
X13580897Y-11797990D01*
X13426043Y-12029746D01*
X13410000Y-12068477D01*
X13393957Y-12029746D01*
X13239103Y-11797990D01*
X13042010Y-11600897D01*
X12810254Y-11446043D01*
X12552740Y-11339377D01*
X12279365Y-11285000D01*
X12000635Y-11285000D01*
X11727260Y-11339377D01*
X11469746Y-11446043D01*
X11237990Y-11600897D01*
X11040897Y-11797990D01*
X10886043Y-12029746D01*
X10870000Y-12068477D01*
X10853957Y-12029746D01*
X10699103Y-11797990D01*
X10502010Y-11600897D01*
X10270254Y-11446043D01*
X10012740Y-11339377D01*
X9739365Y-11285000D01*
X9460635Y-11285000D01*
X9187260Y-11339377D01*
X8929746Y-11446043D01*
X8697990Y-11600897D01*
X8500897Y-11797990D01*
X8346043Y-12029746D01*
X8330000Y-12068477D01*
X8313957Y-12029746D01*
X8159103Y-11797990D01*
X7962010Y-11600897D01*
X7730254Y-11446043D01*
X7472740Y-11339377D01*
X7199365Y-11285000D01*
X6920635Y-11285000D01*
X6647260Y-11339377D01*
X6389746Y-11446043D01*
X6157990Y-11600897D01*
X5960897Y-11797990D01*
X5806043Y-12029746D01*
X5790000Y-12068477D01*
X5773957Y-12029746D01*
X5619103Y-11797990D01*
X5422010Y-11600897D01*
X5190254Y-11446043D01*
X4932740Y-11339377D01*
X4659365Y-11285000D01*
X4380635Y-11285000D01*
X4107260Y-11339377D01*
X3849746Y-11446043D01*
X3617990Y-11600897D01*
X3420897Y-11797990D01*
X3266043Y-12029746D01*
X3250000Y-12068477D01*
X3233957Y-12029746D01*
X3079103Y-11797990D01*
X2882010Y-11600897D01*
X2650254Y-11446043D01*
X2392740Y-11339377D01*
X2119365Y-11285000D01*
X1840635Y-11285000D01*
X1567260Y-11339377D01*
X1309746Y-11446043D01*
X1077990Y-11600897D01*
X880897Y-11797990D01*
X726043Y-12029746D01*
X710000Y-12068477D01*
X693957Y-12029746D01*
X539103Y-11797990D01*
X342010Y-11600897D01*
X110254Y-11446043D01*
X-147260Y-11339377D01*
X-420635Y-11285000D01*
X-699365Y-11285000D01*
X-972740Y-11339377D01*
X-1230254Y-11446043D01*
X-1462010Y-11600897D01*
X-1659103Y-11797990D01*
X-1813957Y-12029746D01*
X-1830000Y-12068477D01*
X-1846043Y-12029746D01*
X-2000897Y-11797990D01*
X-2197990Y-11600897D01*
X-2429746Y-11446043D01*
X-2687260Y-11339377D01*
X-2960635Y-11285000D01*
X-3239365Y-11285000D01*
X-3512740Y-11339377D01*
X-3770254Y-11446043D01*
X-4002010Y-11600897D01*
X-4199103Y-11797990D01*
X-4353957Y-12029746D01*
X-4370000Y-12068477D01*
X-4386043Y-12029746D01*
X-4540897Y-11797990D01*
X-4737990Y-11600897D01*
X-4969746Y-11446043D01*
X-5227260Y-11339377D01*
X-5500635Y-11285000D01*
X-5779365Y-11285000D01*
X-6052740Y-11339377D01*
X-6310254Y-11446043D01*
X-6542010Y-11600897D01*
X-6739103Y-11797990D01*
X-6893957Y-12029746D01*
X-6910000Y-12068477D01*
X-6926043Y-12029746D01*
X-7080897Y-11797990D01*
X-7277990Y-11600897D01*
X-7509746Y-11446043D01*
X-7767260Y-11339377D01*
X-8040635Y-11285000D01*
X-8319365Y-11285000D01*
X-8592740Y-11339377D01*
X-8850254Y-11446043D01*
X-9082010Y-11600897D01*
X-9279103Y-11797990D01*
X-9433957Y-12029746D01*
X-9450000Y-12068477D01*
X-9466043Y-12029746D01*
X-9620897Y-11797990D01*
X-9817990Y-11600897D01*
X-10049746Y-11446043D01*
X-10307260Y-11339377D01*
X-10580635Y-11285000D01*
X-10859365Y-11285000D01*
X-11132740Y-11339377D01*
X-11390254Y-11446043D01*
X-11622010Y-11600897D01*
X-11819103Y-11797990D01*
X-11973957Y-12029746D01*
X-11990000Y-12068477D01*
X-12006043Y-12029746D01*
X-12160897Y-11797990D01*
X-12357990Y-11600897D01*
X-12589746Y-11446043D01*
X-12847260Y-11339377D01*
X-13120635Y-11285000D01*
X-13399365Y-11285000D01*
X-13672740Y-11339377D01*
X-13930254Y-11446043D01*
X-14162010Y-11600897D01*
X-14359103Y-11797990D01*
X-14513957Y-12029746D01*
X-14530000Y-12068477D01*
X-14546043Y-12029746D01*
X-14700897Y-11797990D01*
X-14897990Y-11600897D01*
X-15129746Y-11446043D01*
X-15387260Y-11339377D01*
X-15660635Y-11285000D01*
X-15939365Y-11285000D01*
X-16212740Y-11339377D01*
X-16470254Y-11446043D01*
X-16702010Y-11600897D01*
X-16899103Y-11797990D01*
X-17053957Y-12029746D01*
X-17070000Y-12068477D01*
X-17086043Y-12029746D01*
X-17240897Y-11797990D01*
X-17437990Y-11600897D01*
X-17669746Y-11446043D01*
X-17927260Y-11339377D01*
X-18200635Y-11285000D01*
X-18479365Y-11285000D01*
X-18752740Y-11339377D01*
X-19010254Y-11446043D01*
X-19242010Y-11600897D01*
X-19439103Y-11797990D01*
X-19593957Y-12029746D01*
X-19610000Y-12068477D01*
X-19626043Y-12029746D01*
X-19780897Y-11797990D01*
X-19977990Y-11600897D01*
X-20209746Y-11446043D01*
X-20467260Y-11339377D01*
X-20740635Y-11285000D01*
X-21019365Y-11285000D01*
X-21292740Y-11339377D01*
X-21550254Y-11446043D01*
X-21782010Y-11600897D01*
X-21979103Y-11797990D01*
X-22133957Y-12029746D01*
X-22150000Y-12068477D01*
X-22166043Y-12029746D01*
X-22320897Y-11797990D01*
X-22517990Y-11600897D01*
X-22749746Y-11446043D01*
X-23007260Y-11339377D01*
X-23280635Y-11285000D01*
X-23559365Y-11285000D01*
X-23832740Y-11339377D01*
X-24090254Y-11446043D01*
X-24322010Y-11600897D01*
X-24519103Y-11797990D01*
X-24673957Y-12029746D01*
X-24690000Y-12068477D01*
X-24706043Y-12029746D01*
X-24860897Y-11797990D01*
X-25057990Y-11600897D01*
X-25289746Y-11446043D01*
X-25547260Y-11339377D01*
X-25820635Y-11285000D01*
X-26099365Y-11285000D01*
X-26372740Y-11339377D01*
X-26630254Y-11446043D01*
X-26775200Y-11542893D01*
X-26775200Y-6490000D01*
X-22881943Y-6490000D01*
X-22854236Y-6771309D01*
X-22772182Y-7041808D01*
X-22638932Y-7291101D01*
X-22459608Y-7509608D01*
X-22241101Y-7688932D01*
X-21991808Y-7822182D01*
X-21721309Y-7904236D01*
X-21510492Y-7925000D01*
X-21369508Y-7925000D01*
X-21158691Y-7904236D01*
X-20888192Y-7822182D01*
X-20638899Y-7688932D01*
X-20420392Y-7509608D01*
X-20241068Y-7291101D01*
X-20107818Y-7041808D01*
X-20025764Y-6771309D01*
X-19998057Y-6490000D01*
X-20011977Y-6348665D01*
X-7635000Y-6348665D01*
X-7635000Y-6631335D01*
X-7579853Y-6908574D01*
X-7471680Y-7169727D01*
X-7314637Y-7404759D01*
X-7114759Y-7604637D01*
X-6879727Y-7761680D01*
X-6618574Y-7869853D01*
X-6341335Y-7925000D01*
X-6058665Y-7925000D01*
X-5781426Y-7869853D01*
X-5520273Y-7761680D01*
X-5285241Y-7604637D01*
X-5085363Y-7404759D01*
X-5026992Y-7317400D01*
X6355857Y-7317400D01*
X6383564Y-7598709D01*
X6465618Y-7869208D01*
X6598868Y-8118501D01*
X6778192Y-8337008D01*
X6996699Y-8516332D01*
X7245992Y-8649582D01*
X7516491Y-8731636D01*
X7727308Y-8752400D01*
X7868292Y-8752400D01*
X8079109Y-8731636D01*
X8349608Y-8649582D01*
X8598901Y-8516332D01*
X8817408Y-8337008D01*
X8996732Y-8118501D01*
X9129982Y-7869208D01*
X9212036Y-7598709D01*
X9239743Y-7317400D01*
X9227018Y-7188200D01*
X12832857Y-7188200D01*
X12860564Y-7469509D01*
X12942618Y-7740008D01*
X13075868Y-7989301D01*
X13255192Y-8207808D01*
X13473699Y-8387132D01*
X13722992Y-8520382D01*
X13993491Y-8602436D01*
X14204308Y-8623200D01*
X14345292Y-8623200D01*
X14556109Y-8602436D01*
X14826608Y-8520382D01*
X15075901Y-8387132D01*
X15294408Y-8207808D01*
X15473732Y-7989301D01*
X15606982Y-7740008D01*
X15689036Y-7469509D01*
X15716743Y-7188200D01*
X15689036Y-6906891D01*
X15606982Y-6636392D01*
X15473732Y-6387099D01*
X15294408Y-6168592D01*
X15075901Y-5989268D01*
X14826608Y-5856018D01*
X14556109Y-5773964D01*
X14345292Y-5753200D01*
X14204308Y-5753200D01*
X13993491Y-5773964D01*
X13722992Y-5856018D01*
X13473699Y-5989268D01*
X13255192Y-6168592D01*
X13075868Y-6387099D01*
X12942618Y-6636392D01*
X12860564Y-6906891D01*
X12832857Y-7188200D01*
X9227018Y-7188200D01*
X9212036Y-7036091D01*
X9129982Y-6765592D01*
X8996732Y-6516299D01*
X8817408Y-6297792D01*
X8598901Y-6118468D01*
X8349608Y-5985218D01*
X8079109Y-5903164D01*
X7868292Y-5882400D01*
X7727308Y-5882400D01*
X7516491Y-5903164D01*
X7245992Y-5985218D01*
X6996699Y-6118468D01*
X6778192Y-6297792D01*
X6598868Y-6516299D01*
X6465618Y-6765592D01*
X6383564Y-7036091D01*
X6355857Y-7317400D01*
X-5026992Y-7317400D01*
X-4928320Y-7169727D01*
X-4820147Y-6908574D01*
X-4765000Y-6631335D01*
X-4765000Y-6348665D01*
X-4820147Y-6071426D01*
X-4928320Y-5810273D01*
X-5085363Y-5575241D01*
X-5285241Y-5375363D01*
X-5520273Y-5218320D01*
X-5781426Y-5110147D01*
X-6058665Y-5055000D01*
X-6341335Y-5055000D01*
X-6618574Y-5110147D01*
X-6879727Y-5218320D01*
X-7114759Y-5375363D01*
X-7314637Y-5575241D01*
X-7471680Y-5810273D01*
X-7579853Y-6071426D01*
X-7635000Y-6348665D01*
X-20011977Y-6348665D01*
X-20025764Y-6208691D01*
X-20107818Y-5938192D01*
X-20241068Y-5688899D01*
X-20420392Y-5470392D01*
X-20638899Y-5291068D01*
X-20888192Y-5157818D01*
X-21158691Y-5075764D01*
X-21369508Y-5055000D01*
X-21510492Y-5055000D01*
X-21721309Y-5075764D01*
X-21991808Y-5157818D01*
X-22241101Y-5291068D01*
X-22459608Y-5470392D01*
X-22638932Y-5688899D01*
X-22772182Y-5938192D01*
X-22854236Y-6208691D01*
X-22881943Y-6490000D01*
X-26775200Y-6490000D01*
X-26775200Y-1490000D01*
X-22881943Y-1490000D01*
X-22854236Y-1771309D01*
X-22772182Y-2041808D01*
X-22638932Y-2291101D01*
X-22459608Y-2509608D01*
X-22241101Y-2688932D01*
X-21991808Y-2822182D01*
X-21721309Y-2904236D01*
X-21510492Y-2925000D01*
X-21369508Y-2925000D01*
X-21158691Y-2904236D01*
X-20888192Y-2822182D01*
X-20638899Y-2688932D01*
X-20420392Y-2509608D01*
X-20241068Y-2291101D01*
X-20107818Y-2041808D01*
X-20025764Y-1771309D01*
X-19998057Y-1490000D01*
X-20011977Y-1348665D01*
X-7635000Y-1348665D01*
X-7635000Y-1631335D01*
X-7579853Y-1908574D01*
X-7471680Y-2169727D01*
X-7314637Y-2404759D01*
X-7114759Y-2604637D01*
X-6879727Y-2761680D01*
X-6618574Y-2869853D01*
X-6341335Y-2925000D01*
X-6058665Y-2925000D01*
X-5781426Y-2869853D01*
X-5520273Y-2761680D01*
X-5285241Y-2604637D01*
X-5085363Y-2404759D01*
X-4928320Y-2169727D01*
X-4820147Y-1908574D01*
X-4765000Y-1631335D01*
X-4765000Y-1348665D01*
X-4820147Y-1071426D01*
X-4928320Y-810273D01*
X-5085363Y-575241D01*
X-5285241Y-375363D01*
X-5520273Y-218320D01*
X-5781426Y-110147D01*
X-6058665Y-55000D01*
X-6341335Y-55000D01*
X-6618574Y-110147D01*
X-6879727Y-218320D01*
X-7114759Y-375363D01*
X-7314637Y-575241D01*
X-7471680Y-810273D01*
X-7579853Y-1071426D01*
X-7635000Y-1348665D01*
X-20011977Y-1348665D01*
X-20025764Y-1208691D01*
X-20107818Y-938192D01*
X-20241068Y-688899D01*
X-20420392Y-470392D01*
X-20638899Y-291068D01*
X-20888192Y-157818D01*
X-21158691Y-75764D01*
X-21369508Y-55000D01*
X-21510492Y-55000D01*
X-21721309Y-75764D01*
X-21991808Y-157818D01*
X-22241101Y-291068D01*
X-22459608Y-470392D01*
X-22638932Y-688899D01*
X-22772182Y-938192D01*
X-22854236Y-1208691D01*
X-22881943Y-1490000D01*
X-26775200Y-1490000D01*
X-26775200Y4010000D01*
X-22881943Y4010000D01*
X-22854236Y3728691D01*
X-22772182Y3458192D01*
X-22638932Y3208899D01*
X-22459608Y2990392D01*
X-22241101Y2811068D01*
X-21991808Y2677818D01*
X-21721309Y2595764D01*
X-21510492Y2575000D01*
X-21369508Y2575000D01*
X-21158691Y2595764D01*
X-20888192Y2677818D01*
X-20638899Y2811068D01*
X-20420392Y2990392D01*
X-20241068Y3208899D01*
X-20107818Y3458192D01*
X-20025764Y3728691D01*
X-19998057Y4010000D01*
X-20011977Y4151335D01*
X-7635000Y4151335D01*
X-7635000Y3868665D01*
X-7579853Y3591426D01*
X-7471680Y3330273D01*
X-7314637Y3095241D01*
X-7114759Y2895363D01*
X-6879727Y2738320D01*
X-6618574Y2630147D01*
X-6341335Y2575000D01*
X-6058665Y2575000D01*
X-5781426Y2630147D01*
X-5520273Y2738320D01*
X-5285241Y2895363D01*
X-5085363Y3095241D01*
X-4928320Y3330273D01*
X-4820147Y3591426D01*
X-4765000Y3868665D01*
X-4765000Y4151335D01*
X-4820147Y4428574D01*
X-4928320Y4689727D01*
X-5085363Y4924759D01*
X-5285241Y5124637D01*
X-5520273Y5281680D01*
X-5781426Y5389853D01*
X-6058665Y5445000D01*
X-6341335Y5445000D01*
X-6618574Y5389853D01*
X-6879727Y5281680D01*
X-7114759Y5124637D01*
X-7314637Y4924759D01*
X-7471680Y4689727D01*
X-7579853Y4428574D01*
X-7635000Y4151335D01*
X-20011977Y4151335D01*
X-20025764Y4291309D01*
X-20107818Y4561808D01*
X-20241068Y4811101D01*
X-20420392Y5029608D01*
X-20638899Y5208932D01*
X-20888192Y5342182D01*
X-21158691Y5424236D01*
X-21369508Y5445000D01*
X-21510492Y5445000D01*
X-21721309Y5424236D01*
X-21991808Y5342182D01*
X-22241101Y5208932D01*
X-22459608Y5029608D01*
X-22638932Y4811101D01*
X-22772182Y4561808D01*
X-22854236Y4291309D01*
X-22881943Y4010000D01*
X-26775200Y4010000D01*
X-26775200Y6898512D01*
X-1515200Y6898512D01*
X-1515200Y6665088D01*
X-1469661Y6436148D01*
X-1380334Y6220492D01*
X-1250650Y6026406D01*
X-1085594Y5861350D01*
X-891508Y5731666D01*
X-675852Y5642339D01*
X-446912Y5596800D01*
X-213488Y5596800D01*
X15452Y5642339D01*
X231108Y5731666D01*
X304800Y5780905D01*
X378492Y5731666D01*
X594148Y5642339D01*
X823088Y5596800D01*
X1056512Y5596800D01*
X1285452Y5642339D01*
X1501108Y5731666D01*
X1574800Y5780905D01*
X1648492Y5731666D01*
X1864148Y5642339D01*
X2093088Y5596800D01*
X2326512Y5596800D01*
X2555452Y5642339D01*
X2771108Y5731666D01*
X2844800Y5780905D01*
X2918492Y5731666D01*
X3134148Y5642339D01*
X3363088Y5596800D01*
X3596512Y5596800D01*
X3825452Y5642339D01*
X4041108Y5731666D01*
X4235194Y5861350D01*
X4400250Y6026406D01*
X4529934Y6220492D01*
X4619261Y6436148D01*
X4664800Y6665088D01*
X4664800Y6898512D01*
X4619261Y7127452D01*
X4529934Y7343108D01*
X4400250Y7537194D01*
X4235194Y7702250D01*
X4041108Y7831934D01*
X3825452Y7921261D01*
X3596512Y7966800D01*
X3363088Y7966800D01*
X3134148Y7921261D01*
X2918492Y7831934D01*
X2844800Y7782695D01*
X2771108Y7831934D01*
X2555452Y7921261D01*
X2326512Y7966800D01*
X2093088Y7966800D01*
X1864148Y7921261D01*
X1648492Y7831934D01*
X1574800Y7782695D01*
X1501108Y7831934D01*
X1285452Y7921261D01*
X1056512Y7966800D01*
X823088Y7966800D01*
X594148Y7921261D01*
X378492Y7831934D01*
X304800Y7782695D01*
X231108Y7831934D01*
X15452Y7921261D01*
X-213488Y7966800D01*
X-446912Y7966800D01*
X-675852Y7921261D01*
X-891508Y7831934D01*
X-1085594Y7702250D01*
X-1250650Y7537194D01*
X-1380334Y7343108D01*
X-1469661Y7127452D01*
X-1515200Y6898512D01*
X-26775200Y6898512D01*
X-26775200Y8063935D01*
X6362800Y8063935D01*
X6362800Y7781265D01*
X6417947Y7504026D01*
X6526120Y7242873D01*
X6683163Y7007841D01*
X6883041Y6807963D01*
X7118073Y6650920D01*
X7379226Y6542747D01*
X7656465Y6487600D01*
X7939135Y6487600D01*
X8216374Y6542747D01*
X8477527Y6650920D01*
X8712559Y6807963D01*
X8912437Y7007841D01*
X9069480Y7242873D01*
X9177653Y7504026D01*
X9232800Y7781265D01*
X9232800Y8063935D01*
X9207101Y8193135D01*
X12839800Y8193135D01*
X12839800Y7910465D01*
X12894947Y7633226D01*
X13003120Y7372073D01*
X13160163Y7137041D01*
X13360041Y6937163D01*
X13595073Y6780120D01*
X13856226Y6671947D01*
X14133465Y6616800D01*
X14416135Y6616800D01*
X14693374Y6671947D01*
X14954527Y6780120D01*
X15189559Y6937163D01*
X15389437Y7137041D01*
X15546480Y7372073D01*
X15654653Y7633226D01*
X15709800Y7910465D01*
X15709800Y8193135D01*
X15654653Y8470374D01*
X15546480Y8731527D01*
X15389437Y8966559D01*
X15189559Y9166437D01*
X14954527Y9323480D01*
X14693374Y9431653D01*
X14416135Y9486800D01*
X14133465Y9486800D01*
X13856226Y9431653D01*
X13595073Y9323480D01*
X13360041Y9166437D01*
X13160163Y8966559D01*
X13003120Y8731527D01*
X12894947Y8470374D01*
X12839800Y8193135D01*
X9207101Y8193135D01*
X9177653Y8341174D01*
X9069480Y8602327D01*
X8912437Y8837359D01*
X8712559Y9037237D01*
X8477527Y9194280D01*
X8216374Y9302453D01*
X7939135Y9357600D01*
X7656465Y9357600D01*
X7379226Y9302453D01*
X7118073Y9194280D01*
X6883041Y9037237D01*
X6683163Y8837359D01*
X6526120Y8602327D01*
X6417947Y8341174D01*
X6362800Y8063935D01*
X-26775200Y8063935D01*
X-26775200Y11542893D01*
X-26630254Y11446043D01*
X-26372740Y11339377D01*
X-26099365Y11285000D01*
X-25820635Y11285000D01*
X-25547260Y11339377D01*
X-25289746Y11446043D01*
X-25057990Y11600897D01*
X-24860897Y11797990D01*
X-24706043Y12029746D01*
X-24690000Y12068477D01*
X-24673957Y12029746D01*
X-24519103Y11797990D01*
X-24322010Y11600897D01*
X-24090254Y11446043D01*
X-23832740Y11339377D01*
X-23559365Y11285000D01*
X-23280635Y11285000D01*
X-23007260Y11339377D01*
X-22749746Y11446043D01*
X-22517990Y11600897D01*
X-22320897Y11797990D01*
X-22166043Y12029746D01*
X-22150000Y12068477D01*
X-22133957Y12029746D01*
X-21979103Y11797990D01*
X-21782010Y11600897D01*
X-21550254Y11446043D01*
X-21292740Y11339377D01*
X-21019365Y11285000D01*
X-20740635Y11285000D01*
X-20467260Y11339377D01*
X-20209746Y11446043D01*
X-19977990Y11600897D01*
X-19780897Y11797990D01*
X-19626043Y12029746D01*
X-19610000Y12068477D01*
X-19593957Y12029746D01*
X-19439103Y11797990D01*
X-19242010Y11600897D01*
X-19010254Y11446043D01*
X-18752740Y11339377D01*
X-18479365Y11285000D01*
X-18200635Y11285000D01*
X-17927260Y11339377D01*
X-17669746Y11446043D01*
X-17437990Y11600897D01*
X-17240897Y11797990D01*
X-17086043Y12029746D01*
X-17070000Y12068477D01*
X-17053957Y12029746D01*
X-16899103Y11797990D01*
X-16702010Y11600897D01*
X-16470254Y11446043D01*
X-16212740Y11339377D01*
X-15939365Y11285000D01*
X-15660635Y11285000D01*
X-15387260Y11339377D01*
X-15129746Y11446043D01*
X-14897990Y11600897D01*
X-14700897Y11797990D01*
X-14546043Y12029746D01*
X-14530000Y12068477D01*
X-14513957Y12029746D01*
X-14359103Y11797990D01*
X-14162010Y11600897D01*
X-13930254Y11446043D01*
X-13672740Y11339377D01*
X-13399365Y11285000D01*
X-13120635Y11285000D01*
X-12847260Y11339377D01*
X-12589746Y11446043D01*
X-12357990Y11600897D01*
X-12160897Y11797990D01*
X-12006043Y12029746D01*
X-11990000Y12068477D01*
X-11973957Y12029746D01*
X-11819103Y11797990D01*
X-11622010Y11600897D01*
X-11390254Y11446043D01*
X-11132740Y11339377D01*
X-10859365Y11285000D01*
X-10580635Y11285000D01*
X-10307260Y11339377D01*
X-10049746Y11446043D01*
X-9817990Y11600897D01*
X-9620897Y11797990D01*
X-9466043Y12029746D01*
X-9450000Y12068477D01*
X-9433957Y12029746D01*
X-9279103Y11797990D01*
X-9082010Y11600897D01*
X-8850254Y11446043D01*
X-8592740Y11339377D01*
X-8319365Y11285000D01*
X-8040635Y11285000D01*
X-7767260Y11339377D01*
X-7509746Y11446043D01*
X-7277990Y11600897D01*
X-7080897Y11797990D01*
X-6926043Y12029746D01*
X-6910000Y12068477D01*
X-6893957Y12029746D01*
X-6739103Y11797990D01*
X-6542010Y11600897D01*
X-6310254Y11446043D01*
X-6052740Y11339377D01*
X-5779365Y11285000D01*
X-5500635Y11285000D01*
X-5227260Y11339377D01*
X-4969746Y11446043D01*
X-4737990Y11600897D01*
X-4540897Y11797990D01*
X-4386043Y12029746D01*
X-4370000Y12068477D01*
X-4353957Y12029746D01*
X-4199103Y11797990D01*
X-4002010Y11600897D01*
X-3770254Y11446043D01*
X-3512740Y11339377D01*
X-3239365Y11285000D01*
X-2960635Y11285000D01*
X-2687260Y11339377D01*
X-2429746Y11446043D01*
X-2197990Y11600897D01*
X-2000897Y11797990D01*
X-1846043Y12029746D01*
X-1830000Y12068477D01*
X-1813957Y12029746D01*
X-1659103Y11797990D01*
X-1462010Y11600897D01*
X-1230254Y11446043D01*
X-972740Y11339377D01*
X-699365Y11285000D01*
X-420635Y11285000D01*
X-147260Y11339377D01*
X110254Y11446043D01*
X342010Y11600897D01*
X539103Y11797990D01*
X693957Y12029746D01*
X710000Y12068477D01*
X726043Y12029746D01*
X880897Y11797990D01*
X1077990Y11600897D01*
X1309746Y11446043D01*
X1567260Y11339377D01*
X1840635Y11285000D01*
X2119365Y11285000D01*
X2392740Y11339377D01*
X2650254Y11446043D01*
X2882010Y11600897D01*
X3079103Y11797990D01*
X3233957Y12029746D01*
X3250000Y12068477D01*
X3266043Y12029746D01*
X3420897Y11797990D01*
X3617990Y11600897D01*
X3849746Y11446043D01*
X4107260Y11339377D01*
X4380635Y11285000D01*
X4659365Y11285000D01*
X4932740Y11339377D01*
X5190254Y11446043D01*
X5422010Y11600897D01*
X5619103Y11797990D01*
X5773957Y12029746D01*
X5790000Y12068477D01*
X5806043Y12029746D01*
X5960897Y11797990D01*
X6157990Y11600897D01*
X6389746Y11446043D01*
X6647260Y11339377D01*
X6920635Y11285000D01*
X7199365Y11285000D01*
X7472740Y11339377D01*
X7730254Y11446043D01*
X7962010Y11600897D01*
X8159103Y11797990D01*
X8313957Y12029746D01*
X8330000Y12068477D01*
X8346043Y12029746D01*
X8500897Y11797990D01*
X8697990Y11600897D01*
X8929746Y11446043D01*
X9187260Y11339377D01*
X9460635Y11285000D01*
X9739365Y11285000D01*
X10012740Y11339377D01*
X10270254Y11446043D01*
X10502010Y11600897D01*
X10699103Y11797990D01*
X10853957Y12029746D01*
X10870000Y12068477D01*
X10886043Y12029746D01*
X11040897Y11797990D01*
X11237990Y11600897D01*
X11469746Y11446043D01*
X11727260Y11339377D01*
X12000635Y11285000D01*
X12279365Y11285000D01*
X12552740Y11339377D01*
X12810254Y11446043D01*
X13042010Y11600897D01*
X13239103Y11797990D01*
X13393957Y12029746D01*
X13410000Y12068477D01*
X13426043Y12029746D01*
X13580897Y11797990D01*
X13777990Y11600897D01*
X14009746Y11446043D01*
X14267260Y11339377D01*
X14540635Y11285000D01*
X14819365Y11285000D01*
X15092740Y11339377D01*
X15350254Y11446043D01*
X15582010Y11600897D01*
X15779103Y11797990D01*
X15933957Y12029746D01*
X15950000Y12068477D01*
X15966043Y12029746D01*
X16120897Y11797990D01*
X16317990Y11600897D01*
X16549746Y11446043D01*
X16807260Y11339377D01*
X17080635Y11285000D01*
X17359365Y11285000D01*
X17632740Y11339377D01*
X17890254Y11446043D01*
X18122010Y11600897D01*
X18319103Y11797990D01*
X18349469Y11843436D01*
X18354188Y11795518D01*
X18390498Y11675820D01*
X18449463Y11565506D01*
X18528815Y11468815D01*
X18625506Y11389463D01*
X18735820Y11330498D01*
X18855518Y11294188D01*
X18980000Y11281928D01*
X20540000Y11281928D01*
X20664482Y11294188D01*
X20784180Y11330498D01*
X20894494Y11389463D01*
X20991185Y11468815D01*
X21070537Y11565506D01*
X21129502Y11675820D01*
X21165812Y11795518D01*
X21172655Y11865000D01*
X27060733Y11865000D01*
X28679801Y10245931D01*
X28679800Y-9687182D01*
X28675760Y-9728200D01*
X28679800Y-9769218D01*
X28691882Y-9891888D01*
X28739628Y-10049286D01*
X28817164Y-10194345D01*
X28921509Y-10321491D01*
X28953379Y-10347646D01*
X35470359Y-16864627D01*
X35496509Y-16896491D01*
X35623654Y-17000836D01*
X35768713Y-17078372D01*
X35926111Y-17126118D01*
X36089799Y-17142240D01*
X36130818Y-17138200D01*
X41962713Y-17138200D01*
X41973988Y-17252682D01*
X42010298Y-17372380D01*
X42069263Y-17482694D01*
X42148615Y-17579385D01*
X42245306Y-17658737D01*
X42355620Y-17717702D01*
X42475318Y-17754012D01*
X42599800Y-17766272D01*
X44249800Y-17766272D01*
X44374282Y-17754012D01*
X44493980Y-17717702D01*
X44604294Y-17658737D01*
X44700985Y-17579385D01*
X44780337Y-17482694D01*
X44839302Y-17372380D01*
X44875612Y-17252682D01*
X44887872Y-17128200D01*
X44887872Y-15478200D01*
X44875612Y-15353718D01*
X44839302Y-15234020D01*
X44780337Y-15123706D01*
X44700985Y-15027015D01*
X44604294Y-14947663D01*
X44493980Y-14888698D01*
X44374282Y-14852388D01*
X44249800Y-14840128D01*
X44235657Y-14840128D01*
X44255746Y-14773751D01*
X43424800Y-13942805D01*
X42593854Y-14773751D01*
X42613943Y-14840128D01*
X42599800Y-14840128D01*
X42475318Y-14852388D01*
X42355620Y-14888698D01*
X42245306Y-14947663D01*
X42148615Y-15027015D01*
X42069263Y-15123706D01*
X42010298Y-15234020D01*
X41973988Y-15353718D01*
X41962713Y-15468200D01*
X36435668Y-15468200D01*
X34800189Y-13832721D01*
X41959383Y-13832721D01*
X42001103Y-14117274D01*
X42097535Y-14388220D01*
X42167727Y-14519537D01*
X42414249Y-14594146D01*
X43245195Y-13763200D01*
X43604405Y-13763200D01*
X44435351Y-14594146D01*
X44681873Y-14519537D01*
X44805273Y-14259761D01*
X44875623Y-13980903D01*
X44890217Y-13693679D01*
X44848497Y-13409126D01*
X44752065Y-13138180D01*
X44681873Y-13006863D01*
X44435351Y-12932254D01*
X43604405Y-13763200D01*
X43245195Y-13763200D01*
X42414249Y-12932254D01*
X42167727Y-13006863D01*
X42044327Y-13266639D01*
X41973977Y-13545497D01*
X41959383Y-13832721D01*
X34800189Y-13832721D01*
X30349800Y-9382333D01*
X30349800Y-3459403D01*
X41964800Y-3459403D01*
X41964800Y-3746997D01*
X42020907Y-4029066D01*
X42130965Y-4294769D01*
X42290744Y-4533896D01*
X42494104Y-4737256D01*
X42697559Y-4873200D01*
X42494104Y-5009144D01*
X42290744Y-5212504D01*
X42130965Y-5451631D01*
X42020907Y-5717334D01*
X41964800Y-5999403D01*
X41964800Y-6286997D01*
X42020907Y-6569066D01*
X42130965Y-6834769D01*
X42290744Y-7073896D01*
X42494104Y-7277256D01*
X42697559Y-7413200D01*
X42494104Y-7549144D01*
X42290744Y-7752504D01*
X42130965Y-7991631D01*
X42020907Y-8257334D01*
X41964800Y-8539403D01*
X41964800Y-8826997D01*
X42020907Y-9109066D01*
X42130965Y-9374769D01*
X42290744Y-9613896D01*
X42494104Y-9817256D01*
X42697559Y-9953200D01*
X42494104Y-10089144D01*
X42290744Y-10292504D01*
X42130965Y-10531631D01*
X42020907Y-10797334D01*
X41964800Y-11079403D01*
X41964800Y-11366997D01*
X42020907Y-11649066D01*
X42130965Y-11914769D01*
X42290744Y-12153896D01*
X42494104Y-12357256D01*
X42695376Y-12491741D01*
X42668463Y-12506127D01*
X42593854Y-12752649D01*
X43424800Y-13583595D01*
X44255746Y-12752649D01*
X44181137Y-12506127D01*
X44152823Y-12492677D01*
X44355496Y-12357256D01*
X44558856Y-12153896D01*
X44718635Y-11914769D01*
X44828693Y-11649066D01*
X44884800Y-11366997D01*
X44884800Y-11079403D01*
X44828693Y-10797334D01*
X44718635Y-10531631D01*
X44558856Y-10292504D01*
X44355496Y-10089144D01*
X44152041Y-9953200D01*
X44355496Y-9817256D01*
X44558856Y-9613896D01*
X44718635Y-9374769D01*
X44828693Y-9109066D01*
X44884800Y-8826997D01*
X44884800Y-8539403D01*
X44828693Y-8257334D01*
X44718635Y-7991631D01*
X44558856Y-7752504D01*
X44355496Y-7549144D01*
X44152041Y-7413200D01*
X44355496Y-7277256D01*
X44558856Y-7073896D01*
X44718635Y-6834769D01*
X44828693Y-6569066D01*
X44884800Y-6286997D01*
X44884800Y-5999403D01*
X44828693Y-5717334D01*
X44718635Y-5451631D01*
X44558856Y-5212504D01*
X44355496Y-5009144D01*
X44152041Y-4873200D01*
X44355496Y-4737256D01*
X44558856Y-4533896D01*
X44718635Y-4294769D01*
X44828693Y-4029066D01*
X44884800Y-3746997D01*
X44884800Y-3459403D01*
X44828693Y-3177334D01*
X44718635Y-2911631D01*
X44558856Y-2672504D01*
X44355496Y-2469144D01*
X44154224Y-2334659D01*
X44181137Y-2320273D01*
X44255746Y-2073751D01*
X43424800Y-1242805D01*
X42593854Y-2073751D01*
X42668463Y-2320273D01*
X42696777Y-2333723D01*
X42494104Y-2469144D01*
X42290744Y-2672504D01*
X42130965Y-2911631D01*
X42020907Y-3177334D01*
X41964800Y-3459403D01*
X30349800Y-3459403D01*
X30349800Y-1132721D01*
X41959383Y-1132721D01*
X42001103Y-1417274D01*
X42097535Y-1688220D01*
X42167727Y-1819537D01*
X42414249Y-1894146D01*
X43245195Y-1063200D01*
X43604405Y-1063200D01*
X44435351Y-1894146D01*
X44681873Y-1819537D01*
X44805273Y-1559761D01*
X44875623Y-1280903D01*
X44890217Y-993679D01*
X44848497Y-709126D01*
X44752065Y-438180D01*
X44681873Y-306863D01*
X44435351Y-232254D01*
X43604405Y-1063200D01*
X43245195Y-1063200D01*
X42414249Y-232254D01*
X42167727Y-306863D01*
X42044327Y-566639D01*
X41973977Y-845497D01*
X41959383Y-1132721D01*
X30349800Y-1132721D01*
X30349800Y-52649D01*
X42593854Y-52649D01*
X43424800Y-883595D01*
X44255746Y-52649D01*
X44181137Y193873D01*
X43921361Y317273D01*
X43642503Y387623D01*
X43355279Y402217D01*
X43070726Y360497D01*
X42799780Y264065D01*
X42668463Y193873D01*
X42593854Y-52649D01*
X30349800Y-52649D01*
X30349800Y10550782D01*
X30353840Y10591801D01*
X30337718Y10755489D01*
X30289972Y10912887D01*
X30212436Y11057946D01*
X30108091Y11185091D01*
X30076227Y11211241D01*
X28026046Y13261421D01*
X27999891Y13293291D01*
X27872746Y13397636D01*
X27727687Y13475172D01*
X27570289Y13522918D01*
X27447619Y13535000D01*
X27447618Y13535000D01*
X27406600Y13539040D01*
X27365582Y13535000D01*
X21172655Y13535000D01*
X21165812Y13604482D01*
X21129502Y13724180D01*
X21070537Y13834494D01*
X20991185Y13931185D01*
X20894494Y14010537D01*
X20784180Y14069502D01*
X20664482Y14105812D01*
X20540000Y14118072D01*
X18980000Y14118072D01*
X18855518Y14105812D01*
X18735820Y14069502D01*
X18625506Y14010537D01*
X18528815Y13931185D01*
X18449463Y13834494D01*
X18390498Y13724180D01*
X18354188Y13604482D01*
X18349469Y13556564D01*
X18319103Y13602010D01*
X18122010Y13799103D01*
X17890254Y13953957D01*
X17632740Y14060623D01*
X17359365Y14115000D01*
X17080635Y14115000D01*
X16807260Y14060623D01*
X16549746Y13953957D01*
X16317990Y13799103D01*
X16120897Y13602010D01*
X15966043Y13370254D01*
X15950000Y13331523D01*
X15933957Y13370254D01*
X15779103Y13602010D01*
X15582010Y13799103D01*
X15350254Y13953957D01*
X15092740Y14060623D01*
X14819365Y14115000D01*
X14540635Y14115000D01*
X14267260Y14060623D01*
X14009746Y13953957D01*
X13777990Y13799103D01*
X13580897Y13602010D01*
X13426043Y13370254D01*
X13410000Y13331523D01*
X13393957Y13370254D01*
X13239103Y13602010D01*
X13042010Y13799103D01*
X12810254Y13953957D01*
X12552740Y14060623D01*
X12279365Y14115000D01*
X12000635Y14115000D01*
X11727260Y14060623D01*
X11469746Y13953957D01*
X11237990Y13799103D01*
X11040897Y13602010D01*
X10886043Y13370254D01*
X10870000Y13331523D01*
X10853957Y13370254D01*
X10699103Y13602010D01*
X10502010Y13799103D01*
X10270254Y13953957D01*
X10012740Y14060623D01*
X9739365Y14115000D01*
X9460635Y14115000D01*
X9187260Y14060623D01*
X8929746Y13953957D01*
X8697990Y13799103D01*
X8500897Y13602010D01*
X8346043Y13370254D01*
X8330000Y13331523D01*
X8313957Y13370254D01*
X8159103Y13602010D01*
X7962010Y13799103D01*
X7730254Y13953957D01*
X7472740Y14060623D01*
X7199365Y14115000D01*
X6920635Y14115000D01*
X6647260Y14060623D01*
X6389746Y13953957D01*
X6157990Y13799103D01*
X5960897Y13602010D01*
X5806043Y13370254D01*
X5790000Y13331523D01*
X5773957Y13370254D01*
X5619103Y13602010D01*
X5422010Y13799103D01*
X5190254Y13953957D01*
X4932740Y14060623D01*
X4659365Y14115000D01*
X4380635Y14115000D01*
X4107260Y14060623D01*
X3849746Y13953957D01*
X3617990Y13799103D01*
X3420897Y13602010D01*
X3266043Y13370254D01*
X3250000Y13331523D01*
X3233957Y13370254D01*
X3079103Y13602010D01*
X2882010Y13799103D01*
X2650254Y13953957D01*
X2392740Y14060623D01*
X2119365Y14115000D01*
X1840635Y14115000D01*
X1567260Y14060623D01*
X1309746Y13953957D01*
X1077990Y13799103D01*
X880897Y13602010D01*
X726043Y13370254D01*
X710000Y13331523D01*
X693957Y13370254D01*
X539103Y13602010D01*
X342010Y13799103D01*
X110254Y13953957D01*
X-147260Y14060623D01*
X-420635Y14115000D01*
X-699365Y14115000D01*
X-972740Y14060623D01*
X-1230254Y13953957D01*
X-1462010Y13799103D01*
X-1659103Y13602010D01*
X-1813957Y13370254D01*
X-1830000Y13331523D01*
X-1846043Y13370254D01*
X-2000897Y13602010D01*
X-2197990Y13799103D01*
X-2429746Y13953957D01*
X-2687260Y14060623D01*
X-2960635Y14115000D01*
X-3239365Y14115000D01*
X-3512740Y14060623D01*
X-3770254Y13953957D01*
X-4002010Y13799103D01*
X-4199103Y13602010D01*
X-4353957Y13370254D01*
X-4370000Y13331523D01*
X-4386043Y13370254D01*
X-4540897Y13602010D01*
X-4737990Y13799103D01*
X-4969746Y13953957D01*
X-5227260Y14060623D01*
X-5500635Y14115000D01*
X-5779365Y14115000D01*
X-6052740Y14060623D01*
X-6310254Y13953957D01*
X-6542010Y13799103D01*
X-6739103Y13602010D01*
X-6893957Y13370254D01*
X-6910000Y13331523D01*
X-6926043Y13370254D01*
X-7080897Y13602010D01*
X-7277990Y13799103D01*
X-7509746Y13953957D01*
X-7767260Y14060623D01*
X-8040635Y14115000D01*
X-8319365Y14115000D01*
X-8592740Y14060623D01*
X-8850254Y13953957D01*
X-9082010Y13799103D01*
X-9279103Y13602010D01*
X-9433957Y13370254D01*
X-9450000Y13331523D01*
X-9466043Y13370254D01*
X-9620897Y13602010D01*
X-9817990Y13799103D01*
X-10049746Y13953957D01*
X-10307260Y14060623D01*
X-10580635Y14115000D01*
X-10859365Y14115000D01*
X-11132740Y14060623D01*
X-11390254Y13953957D01*
X-11622010Y13799103D01*
X-11819103Y13602010D01*
X-11973957Y13370254D01*
X-11990000Y13331523D01*
X-12006043Y13370254D01*
X-12160897Y13602010D01*
X-12357990Y13799103D01*
X-12589746Y13953957D01*
X-12847260Y14060623D01*
X-13120635Y14115000D01*
X-13399365Y14115000D01*
X-13672740Y14060623D01*
X-13930254Y13953957D01*
X-14162010Y13799103D01*
X-14359103Y13602010D01*
X-14513957Y13370254D01*
X-14530000Y13331523D01*
X-14546043Y13370254D01*
X-14700897Y13602010D01*
X-14897990Y13799103D01*
X-15129746Y13953957D01*
X-15387260Y14060623D01*
X-15660635Y14115000D01*
X-15939365Y14115000D01*
X-16212740Y14060623D01*
X-16470254Y13953957D01*
X-16702010Y13799103D01*
X-16899103Y13602010D01*
X-17053957Y13370254D01*
X-17070000Y13331523D01*
X-17086043Y13370254D01*
X-17240897Y13602010D01*
X-17437990Y13799103D01*
X-17669746Y13953957D01*
X-17927260Y14060623D01*
X-18200635Y14115000D01*
X-18479365Y14115000D01*
X-18752740Y14060623D01*
X-19010254Y13953957D01*
X-19242010Y13799103D01*
X-19439103Y13602010D01*
X-19593957Y13370254D01*
X-19610000Y13331523D01*
X-19626043Y13370254D01*
X-19780897Y13602010D01*
X-19977990Y13799103D01*
X-20209746Y13953957D01*
X-20467260Y14060623D01*
X-20740635Y14115000D01*
X-21019365Y14115000D01*
X-21292740Y14060623D01*
X-21550254Y13953957D01*
X-21782010Y13799103D01*
X-21979103Y13602010D01*
X-22133957Y13370254D01*
X-22150000Y13331523D01*
X-22166043Y13370254D01*
X-22320897Y13602010D01*
X-22517990Y13799103D01*
X-22749746Y13953957D01*
X-23007260Y14060623D01*
X-23280635Y14115000D01*
X-23559365Y14115000D01*
X-23832740Y14060623D01*
X-24090254Y13953957D01*
X-24322010Y13799103D01*
X-24519103Y13602010D01*
X-24673957Y13370254D01*
X-24690000Y13331523D01*
X-24706043Y13370254D01*
X-24860897Y13602010D01*
X-25057990Y13799103D01*
X-25289746Y13953957D01*
X-25547260Y14060623D01*
X-25820635Y14115000D01*
X-26099365Y14115000D01*
X-26372740Y14060623D01*
X-26630254Y13953957D01*
X-26775200Y13857107D01*
X-26775200Y20156800D01*
X-24336808Y20156800D01*
X-24553646Y20011914D01*
M02*
