<?xml version="1.0" encoding="UTF-8" standalone="no"?>
<!-- Created with Inkscape (http://www.inkscape.org/) -->

<svg
   width="262.94006mm"
   height="143.94006mm"
   viewBox="0 0 262.94006 143.94006"
   version="1.1"
   id="svg2294"
   inkscape:version="1.1 (c68e22c387, 2021-05-23)"
   sodipodi:docname="Lasercut_co2Monitor_4mm_ungetestet.svg"
   xmlns:inkscape="http://www.inkscape.org/namespaces/inkscape"
   xmlns:sodipodi="http://sodipodi.sourceforge.net/DTD/sodipodi-0.dtd"
   xmlns="http://www.w3.org/2000/svg"
   xmlns:svg="http://www.w3.org/2000/svg">
  <sodipodi:namedview
     id="namedview2296"
     pagecolor="#ffffff"
     bordercolor="#666666"
     borderopacity="1.0"
     inkscape:pageshadow="2"
     inkscape:pageopacity="0.0"
     inkscape:pagecheckerboard="0"
     inkscape:document-units="mm"
     showgrid="false"
     fit-margin-top="0"
     fit-margin-left="0"
     fit-margin-right="0"
     fit-margin-bottom="0"
     inkscape:zoom="0.76435185"
     inkscape:cx="431.08419"
     inkscape:cy="240.07268"
     inkscape:window-width="1920"
     inkscape:window-height="1017"
     inkscape:window-x="-8"
     inkscape:window-y="-8"
     inkscape:window-maximized="1"
     inkscape:current-layer="layer1" />
  <defs
     id="defs2291" />
  <g
     inkscape:label="Ebene 1"
     inkscape:groupmode="layer"
     id="layer1"
     transform="translate(8.9317379,-85.183939)">
    <ellipse
       style="fill:none;stroke:#ff0000;stroke-width:0.0694749mm;fill-opacity:1;stroke-opacity:1"
       cx="213.02037"
       cy="109.706"
       id="circle1636"
       rx="3.4286058"
       ry="3.4412131" />
    <ellipse
       style="fill:none;stroke:#ff0000;stroke-width:0.0694749mm;fill-opacity:1;stroke-opacity:1"
       rx="1.4401604"
       ry="1.4399337"
       cx="204.16338"
       cy="118.58899"
       id="ellipse1638" />
    <ellipse
       style="fill:none;stroke:#ff0000;stroke-width:0.0694749mm;fill-opacity:1;stroke-opacity:1"
       rx="1.4401604"
       ry="1.4399337"
       cx="186.44836"
       cy="136.35399"
       id="ellipse1640" />
    <ellipse
       style="fill:none;stroke:#ff0000;stroke-width:0.0694749mm;fill-opacity:1;stroke-opacity:1"
       cx="195.30637"
       cy="145.23599"
       id="circle1642"
       rx="3.4286058"
       ry="3.4412131" />
    <ellipse
       style="fill:none;stroke:#ff0000;stroke-width:0.0694749mm;fill-opacity:1;stroke-opacity:1"
       cx="204.16338"
       cy="118.58899"
       id="circle1644"
       rx="3.4286058"
       ry="3.4412131" />
    <ellipse
       style="fill:none;stroke:#ff0000;stroke-width:0.0694749mm;fill-opacity:1;stroke-opacity:1"
       rx="1.4401604"
       ry="1.4399337"
       cx="186.44839"
       cy="100.824"
       id="ellipse1646" />
    <ellipse
       style="fill:none;stroke:#ff0000;stroke-width:0.0694749mm;fill-opacity:1;stroke-opacity:1"
       cx="195.3064"
       cy="100.824"
       id="circle1648"
       rx="3.4286058"
       ry="3.4412131" />
    <ellipse
       style="fill:none;stroke:#ff0000;stroke-width:0.0694749mm;fill-opacity:1;stroke-opacity:1"
       cx="204.16338"
       cy="109.70599"
       id="circle1650"
       rx="3.4286058"
       ry="3.4412131" />
    <ellipse
       style="fill:none;stroke:#ff0000;stroke-width:0.0694749mm;fill-opacity:1;stroke-opacity:1"
       cx="204.16336"
       cy="145.23599"
       id="circle1652"
       rx="3.4286058"
       ry="3.4412131" />
    <ellipse
       style="fill:none;stroke:#ff0000;stroke-width:0.0694749mm;fill-opacity:1;stroke-opacity:1"
       cx="204.16338"
       cy="127.47099"
       id="circle1654"
       rx="3.4286058"
       ry="3.4412131" />
    <ellipse
       style="fill:none;stroke:#ff0000;stroke-width:0.0694749mm;fill-opacity:1;stroke-opacity:1"
       cx="204.16336"
       cy="136.354"
       id="circle1656"
       rx="3.4286058"
       ry="3.4412131" />
    <ellipse
       style="fill:none;stroke:#ff0000;stroke-width:0.0694749mm;fill-opacity:1;stroke-opacity:1"
       cx="195.30638"
       cy="118.58898"
       id="circle1658"
       rx="3.4286058"
       ry="3.4412131" />
    <ellipse
       style="fill:none;stroke:#ff0000;stroke-width:0.0694749mm;fill-opacity:1;stroke-opacity:1"
       cx="221.87737"
       cy="109.70601"
       id="circle1660"
       rx="3.4286058"
       ry="3.4412131" />
    <ellipse
       style="fill:none;stroke:#ff0000;stroke-width:0.0694749mm;fill-opacity:1;stroke-opacity:1"
       rx="1.4401604"
       ry="1.4399337"
       cx="213.02036"
       cy="136.35402"
       id="ellipse1662" />
    <ellipse
       style="fill:none;stroke:#ff0000;stroke-width:0.0694749mm;fill-opacity:1;stroke-opacity:1"
       cx="186.44838"
       cy="118.58897"
       id="circle1664"
       rx="3.4286058"
       ry="3.4412131" />
    <ellipse
       style="fill:none;stroke:#ff0000;stroke-width:0.0694749mm;fill-opacity:1;stroke-opacity:1"
       rx="1.4401604"
       ry="1.4399337"
       cx="221.87737"
       cy="109.70601"
       id="ellipse1666" />
    <ellipse
       style="fill:none;stroke:#ff0000;stroke-width:0.0694749mm;fill-opacity:1;stroke-opacity:1"
       rx="1.4401604"
       ry="1.4399337"
       cx="186.44836"
       cy="127.47098"
       id="ellipse1668" />
    <ellipse
       style="fill:none;stroke:#ff0000;stroke-width:0.0694749mm;fill-opacity:1;stroke-opacity:1"
       cx="213.02036"
       cy="127.47099"
       id="circle1670"
       rx="3.4286058"
       ry="3.4412131" />
    <ellipse
       style="fill:none;stroke:#ff0000;stroke-width:0.0694749mm;fill-opacity:1;stroke-opacity:1"
       cx="221.87737"
       cy="127.471"
       id="circle1672"
       rx="3.4286058"
       ry="3.4412131" />
    <rect
       transform="scale(-1,1)"
       style="fill:none;stroke:#ff0000;stroke-width:0.05mm;fill-opacity:1;stroke-opacity:1"
       x="-253.91385"
       y="85.278427"
       width="262.7511"
       height="143.75108"
       id="rect1674" />
    <ellipse
       style="fill:none;stroke:#ff0000;stroke-width:0.0694749mm;fill-opacity:1;stroke-opacity:1"
       cx="186.44836"
       cy="136.35399"
       id="circle1676"
       rx="3.4286058"
       ry="3.4412131" />
    <ellipse
       style="fill:none;stroke:#ff0000;stroke-width:0.0694749mm;fill-opacity:1;stroke-opacity:1"
       cx="221.87738"
       cy="100.82402"
       id="circle1678"
       rx="3.4286058"
       ry="3.4412131" />
    <ellipse
       style="fill:none;stroke:#ff0000;stroke-width:0.0694749mm;fill-opacity:1;stroke-opacity:1"
       rx="1.4401604"
       ry="1.4399337"
       cx="213.02036"
       cy="127.47099"
       id="ellipse1680" />
    <ellipse
       style="fill:none;stroke:#ff0000;stroke-width:0.0694749mm;fill-opacity:1;stroke-opacity:1"
       cx="186.44839"
       cy="100.824"
       id="circle1682"
       rx="3.4286058"
       ry="3.4412131" />
    <ellipse
       style="fill:none;stroke:#ff0000;stroke-width:0.0694749mm;fill-opacity:1;stroke-opacity:1"
       cx="213.02037"
       cy="118.589"
       id="circle1684"
       rx="3.4286058"
       ry="3.4412131" />
    <ellipse
       style="fill:none;stroke:#ff0000;stroke-width:0.0694749mm;fill-opacity:1;stroke-opacity:1"
       cx="186.44836"
       cy="127.47098"
       id="circle1686"
       rx="3.4286058"
       ry="3.4412131" />
    <ellipse
       style="fill:none;stroke:#ff0000;stroke-width:0.0694749mm;fill-opacity:1;stroke-opacity:1"
       cx="195.30637"
       cy="136.354"
       id="circle1688"
       rx="3.4286058"
       ry="3.4412131" />
    <ellipse
       style="fill:none;stroke:#ff0000;stroke-width:0.0694749mm;fill-opacity:1;stroke-opacity:1"
       cx="186.44835"
       cy="145.23598"
       id="circle1690"
       rx="3.4286058"
       ry="3.4412131" />
    <ellipse
       style="fill:none;stroke:#ff0000;stroke-width:0.0694749mm;fill-opacity:1;stroke-opacity:1"
       cx="221.87735"
       cy="136.35402"
       id="circle1692"
       rx="3.4286058"
       ry="3.4412131" />
    <ellipse
       style="fill:none;stroke:#ff0000;stroke-width:0.0694749mm;fill-opacity:1;stroke-opacity:1"
       rx="1.4401604"
       ry="1.4399337"
       cx="195.30637"
       cy="145.23599"
       id="ellipse1694" />
    <ellipse
       style="fill:none;stroke:#ff0000;stroke-width:0.0694749mm;fill-opacity:1;stroke-opacity:1"
       cx="186.44838"
       cy="109.70599"
       id="circle1696"
       rx="3.4286058"
       ry="3.4412131" />
    <ellipse
       style="fill:none;stroke:#ff0000;stroke-width:0.0694749mm;fill-opacity:1;stroke-opacity:1"
       cx="195.30638"
       cy="127.47098"
       id="circle1698"
       rx="3.4286058"
       ry="3.4412131" />
    <ellipse
       style="fill:none;stroke:#ff0000;stroke-width:0.0694749mm;fill-opacity:1;stroke-opacity:1"
       cx="204.16339"
       cy="100.82401"
       id="circle1700"
       rx="3.4286058"
       ry="3.4412131" />
    <ellipse
       style="fill:none;stroke:#ff0000;stroke-width:0.0694749mm;fill-opacity:1;stroke-opacity:1"
       cx="213.02037"
       cy="100.82401"
       id="circle1702"
       rx="3.4286058"
       ry="3.4412131" />
    <ellipse
       style="fill:none;stroke:#ff0000;stroke-width:0.0694749mm;fill-opacity:1;stroke-opacity:1"
       rx="1.4401604"
       ry="1.4399337"
       cx="195.30638"
       cy="127.47098"
       id="ellipse1704" />
    <ellipse
       style="fill:none;stroke:#ff0000;stroke-width:0.0694749mm;fill-opacity:1;stroke-opacity:1"
       rx="1.4401604"
       ry="1.4399337"
       cx="221.87737"
       cy="118.589"
       id="ellipse1706" />
    <ellipse
       style="fill:none;stroke:#ff0000;stroke-width:0.0694749mm;fill-opacity:1;stroke-opacity:1"
       rx="1.4401604"
       ry="1.4399337"
       cx="221.87738"
       cy="100.82402"
       id="ellipse1708" />
    <ellipse
       style="fill:none;stroke:#ff0000;stroke-width:0.0694749mm;fill-opacity:1;stroke-opacity:1"
       rx="1.4401604"
       ry="1.4399337"
       cx="204.16336"
       cy="145.23599"
       id="ellipse1710" />
    <ellipse
       style="fill:none;stroke:#ff0000;stroke-width:0.0694749mm;fill-opacity:1;stroke-opacity:1"
       cx="221.87735"
       cy="145.23599"
       id="circle1712"
       rx="3.4286058"
       ry="3.4412131" />
    <ellipse
       style="fill:none;stroke:#ff0000;stroke-width:0.0694749mm;fill-opacity:1;stroke-opacity:1"
       rx="1.4401604"
       ry="1.4399337"
       cx="195.3064"
       cy="100.824"
       id="ellipse1714" />
    <circle
       transform="rotate(-90)"
       style="fill:none;stroke:#ff0000;stroke-width:0.05mm;fill-opacity:1;stroke-opacity:1"
       r="1.439292"
       cx="-105.17256"
       cy="135.67566"
       id="circle1716" />
    <circle
       transform="rotate(-90)"
       style="fill:none;stroke:#ff0000;stroke-width:0.05mm;fill-opacity:1;stroke-opacity:1"
       r="1.439292"
       cx="-105.16953"
       cy="94.719658"
       id="circle1718" />
    <circle
       transform="rotate(-90)"
       style="fill:none;stroke:#ff0000;stroke-width:0.05mm;fill-opacity:1;stroke-opacity:1"
       r="1.439292"
       cx="-140.27451"
       cy="94.977699"
       id="circle1720" />
    <circle
       transform="rotate(-90)"
       style="fill:none;stroke:#ff0000;stroke-width:0.05mm;fill-opacity:1;stroke-opacity:1"
       r="1.439292"
       cx="-140.09055"
       cy="135.62364"
       id="circle1722" />
    <ellipse
       style="fill:none;stroke:#ff0000;stroke-width:0.0694749mm;fill-opacity:1;stroke-opacity:1"
       rx="1.4401604"
       ry="1.4399337"
       cx="213.02037"
       cy="100.82401"
       id="ellipse1724" />
    <path
       style="fill:none;stroke:#ff0000;stroke-width:0.05mm;fill-opacity:1;stroke-opacity:1"
       d="m 130.79881,199.38494 4.8412,-4.19426 0.029,2.16608 -2.5412,2.02818 z"
       id="path1726" />
    <path
       style="fill:none;stroke:#ff0000;stroke-width:0.05mm;fill-opacity:1;stroke-opacity:1"
       d="m 116.82381,199.38496 18.77919,-16.91269 0.01,2.24284 -16.45989,14.66984 z"
       id="path1728" />
    <path
       style="fill:none;stroke:#ff0000;stroke-width:0.05mm;fill-opacity:1;stroke-opacity:1"
       d="m 182.42921,196.36577 c -1.3973,0 -2.0838,-0.14349 -3.3655,-0.50729 -1.2815,-0.37206 -2.3977,-0.96737 -3.3486,-1.78593 -0.9425,-0.82682 -1.6123,-1.74459 -2.0091,-2.75332 -0.3969,-1.00872 -0.59541,-2.12908 -0.59541,-3.36104 0,-1.81073 0.4176,-3.39822 1.2527,-4.76248 0.8434,-1.21935 1.6652,-2.52247 3.65629,-3.59632 1.4232,-0.65372 2.5921,-0.84615 4.3136,-0.88456 l 0.065,4.09799 c -1.522,0.1511 -2.7539,1.14652 -3.3738,2.36604 -0.4135,0.82682 -0.5433,1.75407 -0.5433,2.70492 0,0.87643 0.186,1.67843 0.55811,2.40605 0.3803,0.7276 1.435,2.0663 3.3563,2.28767 z"
       id="path1730" />
    <path
       style="fill:none;stroke:#ff0000;stroke-width:0.05mm;fill-opacity:1;stroke-opacity:1"
       d="m 103.8589,186.08268 v 2.03538 l 21.23118,-18.89951 h -2.3292 z"
       id="path1732" />
    <path
       style="fill:none;stroke:#ff0000;stroke-width:0.05mm;fill-opacity:1;stroke-opacity:1"
       d="m 121.48211,199.38495 14.12349,-12.6656 0.032,2.20342 -11.82629,10.46218 z"
       id="path1734" />
    <path
       style="fill:none;stroke:#ff0000;stroke-width:0.05mm;fill-opacity:1;stroke-opacity:1"
       d="m 103.89091,192.29876 25.85747,-23.08021 h -2.3292 l -23.53938,21.01891 c 0.011,0.0698 0.011,1.37731 0.011,2.0613 z"
       id="path1736" />
    <path
       style="fill:none;stroke:#ff0000;stroke-width:0.05mm;fill-opacity:1;stroke-opacity:1"
       d="m 103.84671,194.47103 v 2.42125 l 30.56017,-27.67374 h -2.3292 z"
       id="path1738" />
    <path
       style="fill:none;stroke:#ff0000;stroke-width:0.05mm;fill-opacity:1;stroke-opacity:1"
       d="m 103.8786,181.9435 v 2.01464 l 16.55308,-14.73958 h -2.3293 z"
       id="path1740" />
    <rect
       style="fill:none;stroke:#ff0000;stroke-width:0.05mm;fill-opacity:1;stroke-opacity:1"
       x="114.10589"
       y="203.94528"
       width="12.163127"
       height="9.1631269"
       rx="1.0736459"
       id="rect1742" />
    <path
       style="fill:none;stroke:#ff0000;stroke-width:0.05mm;fill-opacity:1;stroke-opacity:1"
       d="m 107.50701,199.38497 28.12348,-24.84703 v 2.05833 l -25.79428,22.78869 z"
       id="path1744" />
    <path
       style="fill:none;stroke:#ff0000;stroke-width:0.05mm;fill-opacity:1;stroke-opacity:1"
       d="m 126.14051,199.38495 9.4994,-8.48908 0.029,2.33 -7.1997,6.15907 z"
       id="path1746" />
    <path
       style="fill:none;stroke:#ff0000;stroke-width:0.05mm;fill-opacity:1;stroke-opacity:1"
       d="m 108.78578,169.21857 -4.87529,4.32001 v 2.00423 l 7.20439,-6.32424 z"
       id="path1748" />
    <path
       style="fill:none;stroke:#ff0000;stroke-width:0.05mm;fill-opacity:1;stroke-opacity:1"
       d="m 112.16531,199.38496 23.48448,-21.0913 0.01,2.19513 -21.16509,18.89617 z"
       id="path1750" />
    <path
       style="fill:none;stroke:#ff0000;stroke-width:0.05mm;fill-opacity:1;stroke-opacity:1"
       d="m 171.07671,191.95175 c -0.099,0.48782 -0.2191,1.16995 -0.3598,2.04639 -0.1405,0.86816 -0.2356,1.54202 -0.2851,2.02157 -1.7694,0.25632 -3.3486,0.38449 -4.7377,0.38449 -1.3395,0 -2.588,-0.16536 -3.7456,-0.4961 -1.1493,-0.339 -2.2075,-0.88883 -3.1749,-1.6495 -0.9591,-0.76894 -1.6454,-1.67017 -2.0589,-2.70371 -0.4133,-1.03352 -0.62011,-2.19107 -0.62011,-3.47266 0,-1.49655 0.277,-2.84012 0.831,-4.03076 0.5622,-1.19889 1.3642,-2.19521 2.4061,-2.98896 1.04999,-0.80203 2.19929,-1.37253 3.44789,-1.71152 1.2484,-0.34728 2.5383,-0.52091 3.8695,-0.52091 1.2236,0 2.7367,0.15709 4.5392,0.47128 l 0.025,1.04181 c 0.017,0.45474 0.041,0.95497 0.074,1.50067 l 0.087,1.41388 c -0.9674,-0.23152 -1.7528,-0.38861 -2.3565,-0.4713 -0.5953,-0.0827 -1.1492,-0.12402 -1.6618,-0.12402 -1.1162,0 -2.1209,0.22326 -3.0138,0.66973 -0.893,0.44649 -1.5957,1.09555 -2.1084,1.94718 -0.5126,0.85162 -0.7689,1.79418 -0.7689,2.82772 0,0.94258 0.2149,1.75287 0.64491,2.43087 0.4299,0.66972 1.0088,1.19062 1.7363,1.56269 0.7358,0.3638 1.6412,0.5457 2.7161,0.5457 0.5871,0 1.2237,-0.0455 1.91,-0.13643 0.6944,-0.0992 1.5626,-0.28525 2.6045,-0.55811 z"
       id="path1752" />
    <path
       style="fill:none;stroke:#ff0000;stroke-width:0.05mm;fill-opacity:1;stroke-opacity:1"
       d="m 103.86879,177.75242 -0.01,2.12045 11.91439,-10.65431 h -2.3292 z"
       id="path1754" />
    <path
       style="fill:none;stroke:#ff0000;stroke-width:0.05mm;fill-opacity:1;stroke-opacity:1"
       d="m 105.43251,197.46096 30.16108,-27.16149 -0.015,2.15714 -29.98728,26.88211 -1.7221,0.0187 v -0.50409 z"
       id="path1756" />
    <path
       style="fill:none;stroke:#ff0000;stroke-width:0.05mm;fill-opacity:1;stroke-opacity:1"
       d="m 195.71222,201.23853 c 0,0 0.058,-1.09329 0.074,-1.72995 0.025,-0.64492 -0.023,-0.99496 0.01,-1.66468 1.3862,-1.37085 2.8216,-2.80153 3.9714,-3.9971 1.2031,-1.23242 2.7561,-2.67502 2.01879,-3.96274 -1.1859,-1.82557 -4.219,-0.0282 -5.66539,0.7346 0.18719,-1.4091 0.16349,-3.13248 0.20319,-4.1656 3.5206,-0.85272 5.3748,-1.80935 7.9365,-0.2337 1.3737,0.99634 1.8351,2.55054 1.8468,3.67593 -0.065,1.61176 -0.80319,2.69297 -1.69549,3.81591 -1.6731,2.06562 -2.0788,2.33523 -4.0607,4.10667 l 2.094,0.0124 c 1.7592,-0.0332 1.8857,-0.042 3.6702,-0.22443 -0.025,0.39687 -0.066,0.89296 -0.1241,1.48829 -0.05,0.5953 -0.10329,1.3229 -0.16119,2.1828 -2.0587,-0.0165 -1.5239,-0.14002 -3.7729,-0.14002 -2.712,0 -6.3455,0.1016 -6.3455,0.1016 z"
       id="path1758" />
    <path
       style="fill:none;stroke:#ff0000;stroke-width:0.05mm;fill-opacity:1;stroke-opacity:1"
       d="m 184.26251,192.62828 c 1.2977,-0.0613 2.1206,-0.58517 2.8644,-1.33017 0.7936,-0.79493 1.34549,-1.93747 1.41429,-3.05863 0.09,-1.46445 -0.3545,-3.10899 -1.3455,-4.19088 -0.7142,-0.77969 -1.6492,-1.2099 -2.9238,-1.23019 l -0.057,-4.08435 c 1.3229,0 2.2894,0.0755 3.359,0.43726 1.1917,0.40303 2.3392,1.03789 3.26981,1.88436 0.8197,0.7456 1.4696,1.69354 1.9243,2.71052 0.4548,1.01698 0.6822,2.18695 0.6822,3.50987 0,1.38905 -0.2522,2.6665 -0.75659,3.83231 -0.4961,1.15756 -1.2154,2.14148 -2.158,2.95176 -0.4712,0.40514 -1.8113,1.35735 -2.8946,1.784 -1.168,0.46 -2.4759,0.61839 -3.3595,0.57809 z"
       id="path1760" />
    <ellipse
       style="fill:none;stroke:#ff0000;stroke-width:0.0694749mm;fill-opacity:1;stroke-opacity:1"
       cx="221.87737"
       cy="118.589"
       id="circle1762"
       rx="3.4286058"
       ry="3.4412131" />
    <ellipse
       style="fill:none;stroke:#ff0000;stroke-width:0.0694749mm;fill-opacity:1;stroke-opacity:1"
       rx="1.4401604"
       ry="1.4399337"
       cx="221.87735"
       cy="145.23599"
       id="ellipse1764" />
    <ellipse
       style="fill:none;stroke:#ff0000;stroke-width:0.0694749mm;fill-opacity:1;stroke-opacity:1"
       rx="1.4401604"
       ry="1.4399337"
       cx="213.02037"
       cy="118.589"
       id="ellipse1766" />
    <ellipse
       style="fill:none;stroke:#ff0000;stroke-width:0.0694749mm;fill-opacity:1;stroke-opacity:1"
       rx="1.4401604"
       ry="1.4399337"
       cx="186.44838"
       cy="109.70599"
       id="ellipse1768" />
    <ellipse
       style="fill:none;stroke:#ff0000;stroke-width:0.0694749mm;fill-opacity:1;stroke-opacity:1"
       cx="213.02036"
       cy="136.35402"
       id="circle1770"
       rx="3.4286058"
       ry="3.4412131" />
    <ellipse
       style="fill:none;stroke:#ff0000;stroke-width:0.0694749mm;fill-opacity:1;stroke-opacity:1"
       rx="1.4401604"
       ry="1.4399337"
       cx="195.30638"
       cy="118.58898"
       id="ellipse1772" />
    <ellipse
       style="fill:none;stroke:#ff0000;stroke-width:0.0694749mm;fill-opacity:1;stroke-opacity:1"
       rx="1.4401604"
       ry="1.4399337"
       cx="204.16338"
       cy="127.47099"
       id="ellipse1774" />
    <ellipse
       style="fill:none;stroke:#ff0000;stroke-width:0.0694749mm;fill-opacity:1;stroke-opacity:1"
       rx="1.4401604"
       ry="1.4399337"
       cx="213.02037"
       cy="109.706"
       id="ellipse1776" />
    <ellipse
       style="fill:none;stroke:#ff0000;stroke-width:0.0694749mm;fill-opacity:1;stroke-opacity:1"
       rx="1.4401604"
       ry="1.4399337"
       cx="204.16339"
       cy="100.82401"
       id="ellipse1778" />
    <ellipse
       style="fill:none;stroke:#ff0000;stroke-width:0.0694749mm;fill-opacity:1;stroke-opacity:1"
       cx="213.02034"
       cy="145.23601"
       id="circle1780"
       rx="3.4286058"
       ry="3.4412131" />
    <ellipse
       style="fill:none;stroke:#ff0000;stroke-width:0.0694749mm;fill-opacity:1;stroke-opacity:1"
       rx="1.4401604"
       ry="1.4399337"
       cx="195.30637"
       cy="136.354"
       id="ellipse1782" />
    <ellipse
       style="fill:none;stroke:#ff0000;stroke-width:0.0694749mm;fill-opacity:1;stroke-opacity:1"
       rx="1.4401604"
       ry="1.4399337"
       cx="195.3064"
       cy="109.70599"
       id="ellipse1784" />
    <ellipse
       style="fill:none;stroke:#ff0000;stroke-width:0.0694749mm;fill-opacity:1;stroke-opacity:1"
       rx="1.4401604"
       ry="1.4399337"
       cx="213.02034"
       cy="145.23601"
       id="ellipse1786" />
    <ellipse
       style="fill:none;stroke:#ff0000;stroke-width:0.0694749mm;fill-opacity:1;stroke-opacity:1"
       cx="195.3064"
       cy="109.70599"
       id="circle1788"
       rx="3.4286058"
       ry="3.4412131" />
    <ellipse
       style="fill:none;stroke:#ff0000;stroke-width:0.0694749mm;fill-opacity:1;stroke-opacity:1"
       rx="1.4401604"
       ry="1.4399337"
       cx="221.87737"
       cy="127.471"
       id="ellipse1790" />
    <ellipse
       style="fill:none;stroke:#ff0000;stroke-width:0.0694749mm;fill-opacity:1;stroke-opacity:1"
       rx="1.4401604"
       ry="1.4399337"
       cx="221.87735"
       cy="136.35402"
       id="ellipse1792" />
    <ellipse
       style="fill:none;stroke:#ff0000;stroke-width:0.0694749mm;fill-opacity:1;stroke-opacity:1"
       rx="1.4401604"
       ry="1.4399337"
       cx="204.16338"
       cy="109.70599"
       id="ellipse1794" />
    <ellipse
       style="fill:none;stroke:#ff0000;stroke-width:0.0694749mm;fill-opacity:1;stroke-opacity:1"
       rx="1.4401604"
       ry="1.4399337"
       cx="186.44835"
       cy="145.23598"
       id="ellipse1796" />
    <ellipse
       style="fill:none;stroke:#ff0000;stroke-width:0.0694749mm;fill-opacity:1;stroke-opacity:1"
       rx="1.4401604"
       ry="1.4399337"
       cx="186.44838"
       cy="118.58897"
       id="ellipse1798" />
    <ellipse
       style="fill:none;stroke:#ff0000;stroke-width:0.0694749mm;fill-opacity:1;stroke-opacity:1"
       rx="1.4401604"
       ry="1.4399337"
       cx="204.16336"
       cy="136.354"
       id="ellipse1800" />
    <path
       style="fill:none;stroke:#ff0000;stroke-width:0.05mm;fill-opacity:1;stroke-opacity:1"
       d="m -3.0510661,219.14659 6.6999,-1e-5 c 0.055,0 0.1,-0.045 0.1,-0.1 l -3.9e-6,-3.9 c -10e-8,-0.1 -0.1,0 0,0 l 5.4,-1e-5 c 0.1,0 -10e-8,-0.1 0,0 l 7.9e-6,7.9776 c 10e-8,0.055 0.045,0.10001 0.1000001,0.10001 h 6.7001 l 15.1098,-2e-5 h 3.9002 c 0.055,0 0.1,-0.045 0.1,-0.10001 l -8e-6,-7.97763 c 0,-0.1 -0.1,0 0,0 l 5.4002,-1e-5 c 0.1,0 0,-0.1 0,0 l 4e-6,3.9 c 0,0.055 0.044,0.1 0.1,0.1 h 4.8001 c 0.055,0 0.1,-0.045 0.1,-0.1 l -4e-6,-3.9 c 0,-0.1 -0.1,0 0,0 l 5.4,-1e-5 c 0.1,0 0,-0.1 0,0 l 4e-6,3.9 c 0,0.055 0.044,0.1 0.1,0.1 h 4.7999 c 0.055,0 0.1001,-0.045 0.1001,-0.1 l -4e-6,-3.9 c 0,-0.1 -0.1001,0 0,0 l 5.3999,-1e-5 c 0.1001,0 0,-0.1 0,0 l 4e-6,3.9 c 0,0.055 0.044,0.1 0.1001,0.1 h 4.7999 c 0.055,0 0.1,-0.045 0.1,-0.1 l -4e-6,-3.9 c 0,-0.1 -0.1,0 0,0 l 5.4,-1e-5 c 0.1,0 0,-0.1 0,0 l 4e-6,3.9 c 0,0.055 0.044,0.1 0.1,0.1 h 4.8 c 0.055,0 0.1,-0.045 0.1,-0.1 l -4e-6,-3.9 c 0,-0.1 -0.1,0 0,0 l 5.4001,-1e-5 c 0.1,0 0,-0.1 0,0 l 8e-6,7.97763 c 0,0.055 0.044,0.10001 0.1,0.10001 h 3.9001 l 15.108902,-2e-5 h 5.8001 c 0.055,0 0.1,-0.045 0.1,-0.10001 l -1e-5,-7.97763 c 0,-0.1 -0.1,0 0,0 l 5.4001,-10e-6 c 0.1,0 0,-0.1 0,0 v 3.9 c 0,0.055 0.045,0.1 0.1,0.1 h 4.8001 c 0.055,0 0.1,-0.045 0.1,-0.1 v -3.9 c 0,-0.1 -0.1,0 0,0 l 5.4,-1e-5 c 0.1,0 0,-0.1 0,0 v 3.9 c 0,0.055 0.045,0.1 0.1,0.1 h 4.8 c 0.055,0 0.1,-0.045 0.1,-0.1 v -3.9 c 0,-0.1 -0.1,0 0,0 l 5.3999,-1e-5 c 0.1,0 0,-0.1 0,0 l 1e-5,7.97763 c 0,0.055 0.045,0.10001 0.1,0.10001 l 5.8,-1e-5 15.11,-1e-5 3.9,-1e-5 c 0.055,0 0.1,-0.045 0.1,-0.10001 l -1e-5,-7.97763 c 0,-0.1 -0.1,0 0,0 h 5.4 c 0.1,0 0,-0.1 0,0 v 3.9 c 0,0.055 0.044,0.1 0.1,0.1 l 4.7999,-1e-5 c 0.055,0 0.1001,-0.045 0.1001,-0.1 v -3.9 c 0,-0.1 -0.1001,0 0,0 h 5.3999 c 0.1001,0 0,-0.1 0,0 v 3.9 c 0,0.055 0.044,0.1 0.1001,0.1 l 4.8,-1e-5 c 0.055,0 0.1,-0.045 0.1,-0.1 v -3.9 c 0,-0.1 -0.1,0 0,0 h 5.4001 c 0.1,0 0,-0.1 0,0 v 3.9 c 0,0.055 0.044,0.1 0.1,0.1 l 4.8001,-1e-5 c 0.055,0 0.1,-0.045 0.1,-0.1 v -3.9 c 0,-0.1 -0.1,0 0,0 h 5.4 c 0.1,0 0,-0.1 0,0 v 3.9 c 0,0.055 0.044,0.1 0.1,0.1 l 4.8,-10e-6 c 0.055,0 0.1,-0.045 0.1,-0.1 v -3.9 c 0,-0.1 -0.1,0 0,0 h 5.4 c 0.1,0 0,-0.1 0,0 l 1e-5,7.97763 c 0,0.055 0.044,0.10001 0.1,0.10001 l 3.9,-10e-6 15.10896,-1e-5 6.70001,-1e-5 c 0.055,0 0.1,-0.045 0.1,-0.10001 l -1e-5,-7.97763 c 0,-0.1 -0.1,0 0,0 h 5.40003 c 0.1,0 0,-0.1 0,0 v 3.9 c 0,0.055 0.045,0.1 0.1,0.1 l 6.70008,-1e-5 c 0.0549,0 0.1,-0.045 0.1,-0.1 v -4 l -1e-5,-8.37699 c 0,-0.144 0.044,-0.284 0.12702,-0.402 0.082,-0.117 0.19903,-0.207 0.33404,-0.25599 0.13501,-0.049 0.28198,-0.056 0.41999,-0.018 0.13897,0.037 0.263,0.116 0.35504,0.226 l 3.17492,3.783 c 0.11902,0.141 0.27808,0.24299 0.45607,0.29099 0.17895,0.047 0.36798,0.039 0.54094,-0.024 0.17401,-0.063 0.32404,-0.17799 0.42902,-0.33 0.10596,-0.151 0.16296,-0.33099 0.16296,-0.51601 l -1e-5,-14.75398 c 0,-0.185 -0.057,-0.365 -0.16296,-0.516 -0.10504,-0.152 -0.25501,-0.267 -0.42902,-0.33001 -0.17303,-0.063 -0.362,-0.071 -0.54095,-0.024 -0.17804,0.048 -0.33704,0.15 -0.45606,0.29101 l -3.17492,3.78301 c -0.092,0.11 -0.21607,0.18899 -0.35504,0.22599 -0.13801,0.038 -0.28498,0.031 -0.41999,-0.018 -0.13501,-0.049 -0.25207,-0.13901 -0.33404,-0.256 -0.083,-0.11799 -0.12702,-0.25799 -0.12702,-0.40199 l -10e-6,-14.75401 c 0,-0.144 0.044,-0.284 0.12702,-0.40199 0.082,-0.11701 0.19903,-0.207 0.33404,-0.256 0.13501,-0.049 0.28198,-0.056 0.41999,-0.018 0.13897,0.037 0.263,0.116 0.35504,0.226 l 3.17492,3.78301 c 0.11902,0.141 0.27808,0.24299 0.45606,0.29099 0.17895,0.047 0.36798,0.039 0.54095,-0.024 0.17401,-0.063 0.32404,-0.178 0.42902,-0.33 0.10596,-0.15101 0.16296,-0.331 0.16296,-0.51601 l -1e-5,-14.754 c 0,-0.185 -0.057,-0.36501 -0.16297,-0.51601 -0.10504,-0.15199 -0.25501,-0.267 -0.42902,-0.33 -0.17303,-0.063 -0.362,-0.071 -0.54095,-0.024 -0.17804,0.048 -0.33704,0.14999 -0.45606,0.291 l -3.17491,3.78301 c -0.092,0.11 -0.21607,0.18899 -0.35504,0.22599 -0.13801,0.038 -0.28498,0.031 -0.41999,-0.018 -0.13501,-0.049 -0.25207,-0.139 -0.33404,-0.25599 -0.083,-0.118 -0.12702,-0.258 -0.12702,-0.40199 l -1e-5,-8.377 v -4 c 0,-0.055 -0.045,-0.10001 -0.1,-0.10001 l -6.70008,1e-5 c -0.0549,0 -0.1,0.045 -0.1,0.1 v 3.9 c 0,0.1 0.1,0 0,0 h -5.40003 c -0.1,0 0,0.10001 0,0 v -3.89999 c 0,-0.055 -0.045,-0.1 -0.1,-0.1 h -6.70001 l -15.10896,2e-5 h -3.9 c -0.056,0 -0.1,0.045 -0.1,0.10001 v 3.89999 c 0,0.10001 0.1,0 0,0 l -5.4,1e-5 c -0.1,0 0,0.1 0,0 v -3.9 c 0,-0.055 -0.045,-0.1 -0.1,-0.1 h -4.8 c -0.056,0 -0.1,0.045 -0.1,0.10001 v 3.89999 c 0,0.10001 0.1,0 0,0 l -5.4,1e-5 c -0.1,0 0,0.1 0,0 v -3.9 c 0,-0.055 -0.045,-0.1 -0.1,-0.1 h -4.8001 c -0.056,0 -0.1,0.045 -0.1,0.10001 v 3.89999 c 0,0.10001 0.1,0 0,0 l -5.4001,1e-5 c -0.1,0 0,0.1 0,0 v -3.9 c 0,-0.055 -0.045,-0.1 -0.1,-0.1 h -4.8 c -0.056,0 -0.1001,0.045 -0.1001,0.10001 v 3.89999 c 0,0.10001 0.1001,0 0,0 l -5.3999,10e-6 c -0.1001,0 0,0.1 0,0 v -3.9 c 0,-0.055 -0.045,-0.1 -0.1001,-0.1 h -4.7999 c -0.056,0 -0.1,0.045 -0.1,0.10001 v 3.89999 c 0,0.10001 0.1,0 0,0 l -5.4,1e-5 c -0.1,0 0,0.1 0,0 v -3.9 c 0,-0.055 -0.045,-0.1 -0.1,-0.1 h -3.9 l -15.11,2e-5 h -5.8 c -0.055,0 -0.1,0.045 -0.1,0.10001 v 3.89999 c 0,0.10001 0.1,0 0,0 l -5.3999,1e-5 c -0.1,0 0,0.10001 0,0 v -3.89999 c 0,-0.055 -0.045,-0.10001 -0.1,-0.10001 h -4.8 c -0.055,0 -0.1,0.045 -0.1,0.10001 v 3.89999 c 0,0.10001 0.1,0 0,0 l -5.4,1e-5 c -0.1,0 0,0.10001 0,0 v -3.89999 c 0,-0.055 -0.045,-0.10001 -0.1,-0.10001 h -4.8001 c -0.055,0 -0.1,0.045 -0.1,0.10001 v 3.89999 c 0,0.10001 0.1,0 0,0 l -5.4001,1e-5 c -0.1,0 0,0.10001 0,0 v -3.89999 c 0,-0.055 -0.045,-0.10001 -0.1,-0.10001 l -5.8001,1e-5 -15.108904,1e-5 h -3.9001 c -0.056,0 -0.1,0.045 -0.1,0.10001 l 4e-6,3.89999 c 0,0.10001 0.1,0 0,0 l -5.4001,10e-6 c -0.1,0 0,0.10001 0,0 l -4e-6,-3.89999 c 0,-0.055 -0.045,-0.10001 -0.1,-0.10001 l -4.8,1e-5 c -0.056,0 -0.1,0.045 -0.1,0.1 l 4e-6,3.9 c 0,0.1 0.1,0 0,0 h -5.4 c -0.1,0 0,0.10001 0,0 l -4e-6,-3.89999 c 0,-0.055 -0.045,-0.10001 -0.1,-0.10001 l -4.7999,1e-5 c -0.056,0 -0.1001,0.045 -0.1001,0.1 l 4e-6,3.9 c 0,0.1 0.1001,0 0,0 h -5.3999 c -0.1001,0 0,0.10001 0,0 l -4e-6,-3.89999 c 0,-0.055 -0.045,-0.10001 -0.1001,-0.10001 l -4.7999,1e-5 c -0.056,0 -0.1,0.045 -0.1,0.1 l 4e-6,3.9 c 0,0.1 0.1,0 0,0 h -5.4 c -0.1,0 0,0.10001 0,0 l -4e-6,-3.89999 c 0,-0.055 -0.045,-0.10001 -0.1,-0.10001 l -4.8001,1e-5 c -0.056,0 -0.1,0.045 -0.1,0.1 l 4e-6,3.9 c 0,0.1 0.1,0 0,0 h -5.4002 c -0.1,0 0,0.10001 0,0 l -4e-6,-3.89999 c 0,-0.055 -0.045,-0.10001 -0.1,-0.10001 l -3.9002,1e-5 -15.1098,1e-5 -6.7001002,1e-5 c -0.055,0 -0.1,0.045 -0.1,0.1 l 3.9e-6,3.9 c 10e-8,0.1 0.1,0 0,0 h -5.4 c -0.1,0 10e-8,0.10001 0,0 l -3.9e-6,-3.89999 c -1e-7,-0.055 -0.045,-0.10001 -0.1000001,-0.10001 l -6.6999,1e-5 c -0.055,0 -0.1,0.045 -0.1,0.10001 l 4e-6,4 8.3e-6,8.377 c 2e-7,0.18499 0.057,0.365 0.1630006,0.516 0.1060001,0.15199 0.2561002,0.267 0.4290003,0.33 0.1740001,0.063 0.3630001,0.071 0.5411,0.024 0.1779,-0.048 0.3379999,-0.14999 0.4558997,-0.291 l 3.1749962,-3.78301 c 0.092,-0.11 0.2160999,-0.18899 0.3549998,-0.22599 0.1389,-0.038 0.2849,-0.031 0.4199,0.018 0.1350001,0.049 0.2521002,0.139 0.3340003,0.25599 0.083,0.118 0.1271002,0.258 0.1271004,0.402 l 1.47e-5,14.75399 c 2e-7,0.144 -0.044,0.284 -0.1270996,0.40199 -0.082,0.11701 -0.1989997,0.207 -0.3339997,0.256 -0.1349999,0.049 -0.2809999,0.056 -0.4199,0.018 -0.1389,-0.037 -0.2629001,-0.11599 -0.3550002,-0.22599 l -3.1750038,-3.783 c -0.1179001,-0.14101 -0.2780002,-0.243 -0.4559003,-0.291 -0.178,-0.047 -0.3671,-0.039 -0.5411,0.024 -0.1728999,0.063 -0.3229998,0.17799 -0.4289996,0.33 -0.1059999,0.151 -0.1629997,0.331 -0.1629995,0.51601 l 1.47e-5,14.754 c 2e-7,0.185 0.057,0.365 0.1630006,0.51601 0.1060001,0.15199 0.2561002,0.26699 0.4290003,0.33 0.1740001,0.063 0.3630001,0.071 0.5411,0.024 0.1779,-0.048 0.3379999,-0.14999 0.4558997,-0.291 l 3.1749962,-3.78301 c 0.092,-0.11 0.2160999,-0.18899 0.3549998,-0.22599 0.1389,-0.038 0.2849,-0.031 0.4199,0.018 0.1350001,0.049 0.2521002,0.13901 0.3340003,0.256 0.083,0.118 0.1271002,0.25799 0.1271004,0.40199 l 1.47e-5,14.75398 c 2e-7,0.144 -0.044,0.284 -0.1270996,0.402 -0.082,0.117 -0.1989997,0.207 -0.3339997,0.25599 -0.1349999,0.049 -0.2809999,0.056 -0.4199,0.018 -0.1389,-0.037 -0.2629001,-0.116 -0.3550002,-0.226 l -3.1750038,-3.783 c -0.1179001,-0.14101 -0.2780002,-0.243 -0.4559003,-0.291 -0.178,-0.047 -0.3671,-0.039 -0.5411,0.024 -0.1728999,0.063 -0.3229998,0.17799 -0.4289996,0.33 -0.1059999,0.151 -0.1629997,0.33099 -0.1629995,0.51601 l 8.4e-6,8.37699 4e-6,4 c 0,0.055 0.045,0.1 0.1000001,0.1 z"
       id="path1802" />
    <path
       style="fill:none;stroke:#ff0000;stroke-width:0.05mm;fill-opacity:1;stroke-opacity:1"
       d="m 3.0828186,103.89622 6.8e-6,6.79999 c 1e-7,0.1 0.1,0 0,0 l -3.89999998,1e-5 c -0.055,0 -0.1,0.045 -0.0999999,0.1 l 5.2e-6,5.19999 c 5e-8,0.055 0.0450001,0.1 0.1000001,0.1 H 3.0828308 c 0.1,0 -10e-8,-0.1 0,0 l 6.8e-6,6.8 6.8e-6,6.8 c 1e-7,0.1 0.1,0 0,0 h -3.89999998 c -0.055,0 -0.1,0.045 -0.0999999,0.1 l 5.2e-6,5.2 c 5e-8,0.055 0.0450001,0.1 0.1000001,0.1 H 3.0828498 c 0.1,0 -10e-8,-0.1 0,0 l 6.8e-6,6.80001 c 1.8e-6,1.77299 0.4669035,3.515 1.3529051,5.05 0.8871015,1.535 2.1620028,2.80999 3.6970037,3.697 1.5351009,0.886 3.2770016,1.35299 5.0501016,1.35299 h 4 c 0.1,0 0,-0.10001 0,0 l 4e-6,3.89999 c 0,0.055 0.045,0.10001 0.1,0.10001 l 5.1999,-1e-5 c 0.055,0 0.1001,-0.045 0.1001,-0.1 l -4e-6,-3.9 c 0,-0.1 -0.1001,0 0,0 h 5 c 0.1,0 0,-0.10001 0,0 l 4e-6,3.89999 c 0,0.055 0.045,0.10001 0.1,0.10001 l 5.1999,-10e-6 c 0.055,0 0.1,-0.045 0.1,-0.1 l -4e-6,-3.9 c 0,-0.1 -0.1,0 0,0 h 5 c 0.1,0 0,-0.10001 0,0 l 4e-6,3.89999 c 0,0.055 0.045,0.10001 0.1,0.10001 l 5.2001,-1e-5 c 0.055,0 0.1,-0.045 0.1,-0.1 l -4e-6,-3.9 c 0,-0.1 -0.1,0 0,0 h 5 c 0.1,0 0,-0.10001 0,0 l 4e-6,3.89999 c 0,0.055 0.045,0.10001 0.1,0.10001 l 5.2001,-1e-5 c 0.055,0 0.1,-0.045 0.1,-0.1 l -4e-6,-3.9 c 0,-0.1 -0.1,0 0,0 h 5 c 0.1,0 0,-0.10001 0,0 l 4e-6,3.89999 c 0,0.055 0.045,0.10001 0.1,0.10001 l 5.2,-1e-5 c 0.055,0 0.1,-0.045 0.1,-0.10001 l -4e-6,-3.89999 c 0,-0.10001 -0.1,0 0,0 h 4 c 1.773,-1e-5 3.514999,-0.467 5.049998,-1.353 1.534999,-0.887 2.810098,-2.16201 3.696997,-3.69702 0.885998,-1.535 1.353096,-3.27699 1.353095,-5.05 l -6e-6,-5.9 c 0,-0.1 -0.1001,0 0,0 h 3.8999 c 0.055,0 0.1001,-0.045 0.1001,-0.1 l -6e-6,-5.2 c 0,-0.055 -0.045,-0.1 -0.1001,-0.1 h -3.8999 c -0.1001,0 0,0.1 0,0 l -5e-6,-4.99999 c 0,-0.1 -0.1001,0 0,0 h 3.8999 c 0.055,0 0.1001,-0.045 0.1001,-0.1 l -5e-6,-5.2 c 0,-0.055 -0.045,-0.1 -0.1001,-0.1 h -3.8999 c -0.1001,0 0,0.1 0,0 l -5e-6,-5 c 0,-0.1 -0.1001,0 0,0 h 3.8999 c 0.055,0 0.1001,-0.045 0.1001,-0.1 l -5e-6,-5.2 c 0,-0.055 -0.045,-0.1 -0.1001,-0.1 l -3.8999,1e-5 c -0.1001,0 0,0.1 0,0 l -6e-6,-5.9 c -2e-6,-1.773 -0.467104,-3.515 -1.353105,-5.049999 -0.886902,-1.535003 -2.162003,-2.809996 -3.697004,-3.696995 -1.535001,-0.886 -3.277001,-1.352994 -5.050001,-1.352992 l -4,-3e-6 c -0.1,0 0,0.1 0,0 l -4e-6,-3.899999 c 0,-0.055 -0.045,-0.1 -0.1,-0.1 l -5.2,5e-6 c -0.055,0 -0.1,0.045 -0.1,0.1 l 4e-6,3.900002 c 0,0.1 0.1,0 0,0 l -5,5e-6 c -0.1,0 0,0.1 0,0 l -4e-6,-3.900002 c 0,-0.055 -0.045,-0.1 -0.1,-0.1 l -5.2001,5e-6 c -0.055,0 -0.1,0.045 -0.1,0.1 l 4e-6,3.900002 c 0,0.1 0.1,-10e-7 0,0 l -5,5e-6 c -0.1,0 0,0.1 0,0 l -4e-6,-3.900002 c 0,-0.055 -0.045,-0.1 -0.1,-0.1 l -5.2,5e-6 c -0.055,0 -0.1001,0.045 -0.1001,0.1 l 4e-6,3.900002 c 0,0.1 0.1001,0 0,0 l -5,5e-6 c -0.1,0 0,0.1 0,0 l -4e-6,-3.900002 c 0,-0.055 -0.045,-0.1 -0.1,-0.1 l -5.1999,5e-6 c -0.055,0 -0.1,0.045 -0.1,0.1 l 4e-6,3.900002 c 0,0.1 0.1,0 0,0 l -5,5e-6 c -0.1001,0 0,0.1 0,0 l -4e-6,-3.900002 c 0,-0.055 -0.045,-0.1 -0.1001,-0.1 l -5.1999,6e-6 c -0.055,0 -0.1,0.045 -0.1,0.1 l 4e-6,3.900002 c 0,0.1 0.1,0 0,0 l -4,4e-6 c -1.7731,2e-6 -3.515,0.467006 -5.0500991,1.353002 -1.5349991,0.887002 -2.8098979,2.162005 -3.6969963,3.697001 -0.8859985,1.535003 -1.3528968,3.277003 -1.352895,5.050003 z"
       id="path1804" />
    <path
       style="fill:none;stroke:#ff0000;stroke-width:0.0433011mm;fill-opacity:1;stroke-opacity:1"
       d="m 27.377493,165.24292 v 53.5461"
       id="path1808" />
    <path
       style="fill:none;stroke:#ff0000;stroke-width:0.0433011mm;fill-opacity:1;stroke-opacity:1"
       d="m 24.377517,165.24292 v 53.54611"
       id="path1810" />
    <path
       style="fill:none;stroke:#ff0000;stroke-width:0.0433011mm;fill-opacity:1;stroke-opacity:1"
       d="m 21.377541,165.24293 v 53.5461"
       id="path1812" />
    <path
       style="fill:none;stroke:#ff0000;stroke-width:0.0433011mm;fill-opacity:1;stroke-opacity:1"
       d="M 25.877505,223.05566 V 194.1493"
       id="path1814" />
    <path
       style="fill:none;stroke:#ff0000;stroke-width:0.0433011mm;fill-opacity:1;stroke-opacity:1"
       d="M 19.877553,189.88267 V 160.9763"
       id="path1816" />
    <path
       style="fill:none;stroke:#ff0000;stroke-width:0.0433011mm;fill-opacity:1;stroke-opacity:1"
       d="m 28.877481,160.97629 v 28.9372"
       id="path1818" />
    <path
       style="fill:none;stroke:#ff0000;stroke-width:0.0433011mm;fill-opacity:1;stroke-opacity:1"
       d="m 28.877481,194.18467 v 28.93721"
       id="path1820" />
    <path
       style="fill:none;stroke:#ff0000;stroke-width:0.0433011mm;fill-opacity:1;stroke-opacity:1"
       d="M 25.877505,189.88267 V 160.97629"
       id="path1822" />
    <path
       style="fill:none;stroke:#ff0000;stroke-width:0.0433011mm;fill-opacity:1;stroke-opacity:1"
       d="M 22.877529,223.05566 V 194.1493"
       id="path1824" />
    <path
       style="fill:none;stroke:#ff0000;stroke-width:0.0433011mm;fill-opacity:1;stroke-opacity:1"
       d="M 19.877553,223.05566 V 194.1493"
       id="path1826" />
    <path
       style="fill:none;stroke:#ff0000;stroke-width:0.0433011mm;fill-opacity:1;stroke-opacity:1"
       d="M 22.877529,189.88267 V 160.97629"
       id="path1828" />
    <path
       style="fill:none;stroke:#ff0000;stroke-width:0.0433011mm;fill-opacity:1;stroke-opacity:1"
       d="m 18.377541,165.24293 v 53.5461"
       id="path1830" />
    <path
       style="fill:none;stroke:#ff0000;stroke-width:0.0433011mm;fill-opacity:1;stroke-opacity:1"
       d="M 16.877553,189.88267 V 160.9763"
       id="path1832" />
    <path
       style="fill:none;stroke:#ff0000;stroke-width:0.0433011mm;fill-opacity:1;stroke-opacity:1"
       d="M 16.877553,223.05566 V 194.1493"
       id="path1834" />
    <path
       style="fill:none;stroke:#ff0000;stroke-width:0.0433011mm;fill-opacity:1;stroke-opacity:1"
       d="M 19.877529,223.05566 V 194.1493"
       id="path1836" />
    <path
       style="fill:none;stroke:#ff0000;stroke-width:0.0433011mm;fill-opacity:1;stroke-opacity:1"
       d="M 19.877529,189.88267 V 160.97629"
       id="path1838" />
    <path
       style="fill:none;stroke:#ff0000;stroke-width:0.0433011mm;fill-opacity:1;stroke-opacity:1"
       d="m 89.692421,165.2394 v 53.5461"
       id="path1840" />
    <path
       style="fill:none;stroke:#ff0000;stroke-width:0.0433011mm;fill-opacity:1;stroke-opacity:1"
       d="M 97.192385,223.05212 V 194.14576"
       id="path1842" />
    <path
       style="fill:none;stroke:#ff0000;stroke-width:0.0433011mm;fill-opacity:1;stroke-opacity:1"
       d="M 95.692397,165.23939 V 218.7855"
       id="path1844" />
    <path
       style="fill:none;stroke:#ff0000;stroke-width:0.0433011mm;fill-opacity:1;stroke-opacity:1"
       d="m 92.692421,165.2394 v 53.5461"
       id="path1846" />
    <path
       style="fill:none;stroke:#ff0000;stroke-width:0.0433011mm;fill-opacity:1;stroke-opacity:1"
       d="m 98.692373,165.23939 v 53.5461"
       id="path1848" />
    <path
       style="fill:none;stroke:#ff0000;stroke-width:0.0433011mm;fill-opacity:1;stroke-opacity:1"
       d="M 88.192433,223.05213 V 194.14577"
       id="path1850" />
    <path
       style="fill:none;stroke:#ff0000;stroke-width:0.0433011mm;fill-opacity:1;stroke-opacity:1"
       d="M 91.192409,223.05213 V 194.14577"
       id="path1852" />
    <path
       style="fill:none;stroke:#ff0000;stroke-width:0.0433011mm;fill-opacity:1;stroke-opacity:1"
       d="M 91.192409,189.87914 V 160.97276"
       id="path1854" />
    <path
       style="fill:none;stroke:#ff0000;stroke-width:0.0433011mm;fill-opacity:1;stroke-opacity:1"
       d="M 88.192433,189.87914 V 160.97277"
       id="path1856" />
    <path
       style="fill:none;stroke:#ff0000;stroke-width:0.0433011mm;fill-opacity:1;stroke-opacity:1"
       d="M 91.192433,189.87914 V 160.97277"
       id="path1858" />
    <path
       style="fill:none;stroke:#ff0000;stroke-width:0.0433011mm;fill-opacity:1;stroke-opacity:1"
       d="m 100.19236,160.97275 v 28.93721"
       id="path1860" />
    <path
       style="fill:none;stroke:#ff0000;stroke-width:0.0433011mm;fill-opacity:1;stroke-opacity:1"
       d="m 100.19236,194.18114 v 28.93721"
       id="path1862" />
    <path
       style="fill:none;stroke:#ff0000;stroke-width:0.0433011mm;fill-opacity:1;stroke-opacity:1"
       d="M 94.192409,223.05213 V 194.14577"
       id="path1864" />
    <path
       style="fill:none;stroke:#ff0000;stroke-width:0.0433011mm;fill-opacity:1;stroke-opacity:1"
       d="M 97.192385,189.87913 V 160.97276"
       id="path1866" />
    <path
       style="fill:none;stroke:#ff0000;stroke-width:0.0433011mm;fill-opacity:1;stroke-opacity:1"
       d="M 91.192433,223.05213 V 194.14577"
       id="path1868" />
    <path
       style="fill:none;stroke:#ff0000;stroke-width:0.0433011mm;fill-opacity:1;stroke-opacity:1"
       d="M 94.192409,189.87914 V 160.97276"
       id="path1870" />
    <path
       style="fill:none;stroke:#ff0000;stroke-width:0.0433011mm;fill-opacity:1;stroke-opacity:1"
       d="M 220.44454,223.04486 V 194.1385"
       id="path1872" />
    <path
       style="fill:none;stroke:#ff0000;stroke-width:0.0433011mm;fill-opacity:1;stroke-opacity:1"
       d="M 214.44458,189.87188 V 160.9655"
       id="path1874" />
    <path
       style="fill:none;stroke:#ff0000;stroke-width:0.0433011mm;fill-opacity:1;stroke-opacity:1"
       d="M 211.44458,189.87188 V 160.9655"
       id="path1876" />
    <path
       style="fill:none;stroke:#ff0000;stroke-width:0.0433011mm;fill-opacity:1;stroke-opacity:1"
       d="m 212.94457,165.23213 v 53.54611"
       id="path1878" />
    <path
       style="fill:none;stroke:#ff0000;stroke-width:0.0433011mm;fill-opacity:1;stroke-opacity:1"
       d="M 217.44456,189.87187 V 160.9655"
       id="path1880" />
    <path
       style="fill:none;stroke:#ff0000;stroke-width:0.0433011mm;fill-opacity:1;stroke-opacity:1"
       d="M 211.44458,223.04487 V 194.13851"
       id="path1882" />
    <path
       style="fill:none;stroke:#ff0000;stroke-width:0.0433011mm;fill-opacity:1;stroke-opacity:1"
       d="M 223.44451,160.96549 V 189.9027"
       id="path1884" />
    <path
       style="fill:none;stroke:#ff0000;stroke-width:0.0433011mm;fill-opacity:1;stroke-opacity:1"
       d="M 214.44456,223.04486 V 194.1385"
       id="path1886" />
    <path
       style="fill:none;stroke:#ff0000;stroke-width:0.0433011mm;fill-opacity:1;stroke-opacity:1"
       d="M 217.44456,223.04486 V 194.1385"
       id="path1888" />
    <path
       style="fill:none;stroke:#ff0000;stroke-width:0.0433011mm;fill-opacity:1;stroke-opacity:1"
       d="M 214.44458,223.04487 V 194.13851"
       id="path1890" />
    <path
       style="fill:none;stroke:#ff0000;stroke-width:0.0433011mm;fill-opacity:1;stroke-opacity:1"
       d="m 215.94457,165.23213 v 53.54611"
       id="path1892" />
    <path
       style="fill:none;stroke:#ff0000;stroke-width:0.0433011mm;fill-opacity:1;stroke-opacity:1"
       d="M 214.44456,189.87187 V 160.9655"
       id="path1894" />
    <path
       style="fill:none;stroke:#ff0000;stroke-width:0.0433011mm;fill-opacity:1;stroke-opacity:1"
       d="m 218.94455,165.23213 v 53.5461"
       id="path1896" />
    <path
       style="fill:none;stroke:#ff0000;stroke-width:0.0433011mm;fill-opacity:1;stroke-opacity:1"
       d="M 220.44454,189.87187 V 160.96549"
       id="path1898" />
    <path
       style="fill:none;stroke:#ff0000;stroke-width:0.0433011mm;fill-opacity:1;stroke-opacity:1"
       d="m 223.44451,194.17388 v 28.93721"
       id="path1900" />
    <path
       style="fill:none;stroke:#ff0000;stroke-width:0.0433011mm;fill-opacity:1;stroke-opacity:1"
       d="m 221.94452,165.23212 v 53.54611"
       id="path1902" />
    <path
       style="fill:none;stroke:#ff0000;stroke-width:0.0433011mm;fill-opacity:1;stroke-opacity:1"
       d="M 146.18206,223.01746 V 194.1111"
       id="path1904" />
    <path
       style="fill:none;stroke:#ff0000;stroke-width:0.0433011mm;fill-opacity:1;stroke-opacity:1"
       d="m 152.18201,160.93809 v 28.9372"
       id="path1906" />
    <path
       style="fill:none;stroke:#ff0000;stroke-width:0.0433011mm;fill-opacity:1;stroke-opacity:1"
       d="m 141.68207,165.20473 v 53.5461"
       id="path1908" />
    <path
       style="fill:none;stroke:#ff0000;stroke-width:0.0433011mm;fill-opacity:1;stroke-opacity:1"
       d="M 146.18206,189.84447 V 160.93809"
       id="path1910" />
    <path
       style="fill:none;stroke:#ff0000;stroke-width:0.0433011mm;fill-opacity:1;stroke-opacity:1"
       d="M 140.18208,189.84447 V 160.9381"
       id="path1912" />
    <path
       style="fill:none;stroke:#ff0000;stroke-width:0.0433011mm;fill-opacity:1;stroke-opacity:1"
       d="M 143.18208,223.01746 V 194.1111"
       id="path1914" />
    <path
       style="fill:none;stroke:#ff0000;stroke-width:0.0433011mm;fill-opacity:1;stroke-opacity:1"
       d="M 149.18204,189.84447 V 160.93809"
       id="path1916" />
    <path
       style="fill:none;stroke:#ff0000;stroke-width:0.0433011mm;fill-opacity:1;stroke-opacity:1"
       d="M 143.18206,189.84447 V 160.93809"
       id="path1918" />
    <path
       style="fill:none;stroke:#ff0000;stroke-width:0.0433011mm;fill-opacity:1;stroke-opacity:1"
       d="m 147.68205,165.20472 v 53.54611"
       id="path1920" />
    <path
       style="fill:none;stroke:#ff0000;stroke-width:0.0433011mm;fill-opacity:1;stroke-opacity:1"
       d="m 144.68207,165.20473 v 53.5461"
       id="path1922" />
    <path
       style="fill:none;stroke:#ff0000;stroke-width:0.0433011mm;fill-opacity:1;stroke-opacity:1"
       d="m 152.18201,194.14647 v 28.93721"
       id="path1924" />
    <path
       style="fill:none;stroke:#ff0000;stroke-width:0.0433011mm;fill-opacity:1;stroke-opacity:1"
       d="M 149.18204,223.01746 V 194.1111"
       id="path1926" />
    <path
       style="fill:none;stroke:#ff0000;stroke-width:0.0433011mm;fill-opacity:1;stroke-opacity:1"
       d="M 143.18208,189.84447 V 160.9381"
       id="path1928" />
    <path
       style="fill:none;stroke:#ff0000;stroke-width:0.0433011mm;fill-opacity:1;stroke-opacity:1"
       d="m 150.68202,165.20472 v 53.5461"
       id="path1930" />
    <path
       style="fill:none;stroke:#ff0000;stroke-width:0.0433011mm;fill-opacity:1;stroke-opacity:1"
       d="M 140.18208,223.01746 V 194.1111"
       id="path1932" />
    <path
       style="fill:none;stroke:#ff0000;stroke-width:0.0433011mm;fill-opacity:1;stroke-opacity:1"
       d="M 143.18206,223.01746 V 194.1111"
       id="path1934" />
    <path
       style="fill:#808080;fill-rule:evenodd;stroke:none"
       d="m 55.71998,175.36999 0.35193,2.50403 -2.40369,0.33781 c -1.2345,0.1735 -2.25818,0.64473 -2.89282,1.487 -0.63477,0.84227 -0.80542,1.95656 -0.63196,3.19104 l 2.38196,16.9485 c 0.17358,1.23446 0.6449,2.25815 1.48706,2.89284 0.84228,0.63469 1.95618,0.8055 3.19067,0.63202 l 6.026,-0.84692 c 1.23438,-0.1735 2.25806,-0.64472 2.89283,-1.48697 0.63476,-0.84226 0.80542,-1.95615 0.63195,-3.19063 l -2.38208,-16.94853 c -0.17346,-1.23447 -0.64477,-2.25855 -1.48706,-2.89322 -0.84216,-0.63471 -1.95605,-0.80551 -3.19055,-0.63202 l -2.43152,0.3417 -0.3518,-2.50402 -1.19092,0.16737 m 2.55273,23.59489 2.80738,-0.39456 0.20153,1.43247 -2.80749,0.39456 -0.20142,-1.43247 m -2.20068,-21.09008 1.19092,-0.16736 0.29956,2.1326 4.28943,-0.60282 c 0.0216,0.0146 0.0453,0.0278 0.0659,0.0434 0.41442,0.31229 0.72643,0.86392 0.86267,1.83319 l 2.02807,14.43012 -11.04577,1.55236 -2.02796,-14.43011 c -0.13623,-0.96925 0.0115,-1.58551 0.32385,-1.99997 0.0155,-0.0207 0.0345,-0.0398 0.0514,-0.0599 l 4.26172,-0.59892 -0.2998,-2.1326 m -0.0288,4.49241 c -0.01,2e-4 -0.0198,7.2e-4 -0.03,0.001 v -6e-5 c -0.0153,10e-4 -0.0305,0.003 -0.0457,0.006 -0.22071,0.04 -0.33057,0.18218 -0.39319,0.2815 -0.0626,0.0993 -0.0966,0.19178 -0.12842,0.29284 -0.0637,0.20214 -0.10828,0.43962 -0.15027,0.72094 -0.084,0.56262 -0.1488,1.29147 -0.21631,2.05905 -0.0676,0.76758 -0.1372,1.57223 -0.22473,2.26481 -0.0742,0.58733 -0.17273,1.01123 -0.26623,1.31612 -0.43714,0.0588 -0.85938,0.11568 -1.28614,0.17314 l 0.12622,0.89771 c 0.52637,-0.0709 1.04566,-0.1408 1.59217,-0.21433 0.16076,-0.0216 0.29785,-0.12749 0.35925,-0.27769 0.18384,-0.4495 0.2832,-1.06162 0.37427,-1.78144 0.0909,-0.71978 0.16089,-1.5326 0.22827,-2.29905 0.0593,-0.6735 0.11938,-1.26604 0.18469,-1.76134 0.0576,0.16778 0.10523,0.27411 0.1676,0.47798 0.28663,0.93636 0.61573,2.20815 0.94031,3.4803 0.32459,1.27219 0.6449,2.54495 0.92163,3.50421 0.13843,0.47965 0.26429,0.87848 0.38318,1.17665 0.0594,0.1491 0.1134,0.27111 0.18823,0.38686 0.0374,0.0579 0.0775,0.11604 0.15723,0.18112 0.0649,0.0531 0.19226,0.10465 0.33814,0.10631 0.13452,-0.002 0.26928,-0.0482 0.33947,-0.1078 0.0787,-0.0669 0.1156,-0.12809 0.14515,-0.18256 0.0592,-0.10898 0.0865,-0.20459 0.11474,-0.31537 0.0564,-0.22159 0.0983,-0.49628 0.13831,-0.82448 0.0802,-0.65635 0.14611,-1.51493 0.21386,-2.37434 0.0678,-0.85941 0.13733,-1.71988 0.2201,-2.35303 0.002,-0.0193 0.005,-0.026 0.008,-0.0449 0.0599,0.13664 0.11194,0.24326 0.17468,0.38992 0.14539,0.33915 0.2926,0.68326 0.43762,0.96207 0.0725,0.13941 0.14221,0.2616 0.22962,0.37442 0.0437,0.0564 0.0908,0.11148 0.16503,0.16785 0.0745,0.0564 0.19129,0.12646 0.36109,0.12057 0.0149,-6.1e-4 0.03,-0.002 0.0449,-0.004 0.47937,-0.0645 0.94714,-0.12741 1.42041,-0.1911 l -0.12622,-0.89788 c -0.40039,0.0539 -0.79639,0.10714 -1.20068,0.16156 -0.0281,-0.0445 -0.052,-0.0775 -0.0896,-0.14972 -0.1189,-0.22864 -0.26392,-0.56308 -0.40882,-0.90094 -0.14477,-0.33786 -0.28942,-0.67957 -0.42846,-0.95414 -0.0696,-0.13729 -0.13477,-0.25634 -0.21741,-0.36726 -0.0414,-0.0555 -0.0856,-0.11015 -0.16003,-0.16823 -0.0745,-0.0581 -0.20252,-0.13733 -0.38855,-0.11877 -0.004,4.9e-4 -0.008,9.7e-4 -0.0122,0.002 -0.27576,0.0351 -0.37573,0.21532 -0.43408,0.32331 -0.0581,0.10797 -0.0903,0.20962 -0.12146,0.32557 -0.0623,0.23192 -0.10926,0.51706 -0.15296,0.85311 -0.0878,0.67209 -0.15686,1.5386 -0.22473,2.39908 -0.0574,0.72784 -0.11584,1.3941 -0.17761,1.97546 -0.024,-0.0804 -0.0408,-0.11591 -0.0657,-0.2023 -0.26917,-0.93277 -0.58899,-2.20264 -0.91407,-3.47662 -0.32495,-1.27402 -0.65478,-2.55204 -0.95178,-3.52213 -0.14856,-0.48502 -0.28662,-0.89066 -0.42273,-1.19852 -0.0681,-0.15393 -0.13257,-0.2825 -0.21997,-0.40194 -0.0437,-0.0597 -0.0924,-0.11898 -0.17261,-0.17807 -0.0751,-0.0554 -0.19507,-0.11612 -0.34326,-0.11309"
       id="path1936" />
    <path
       style="fill:#808080;fill-rule:evenodd;stroke:none"
       d="m 48.14796,186.42674 c -0.0149,4.9e-4 -0.0304,0.002 -0.0464,0.003 -0.012,10e-4 -0.0237,0.003 -0.0354,0.005 -0.27368,0.0504 -0.35791,0.23436 -0.40662,0.33925 -0.0487,0.10488 -0.0726,0.19957 -0.0951,0.30676 -0.045,0.21435 -0.0734,0.47336 -0.0981,0.7783 -0.0498,0.60991 -0.0789,1.3935 -0.11597,2.17221 -0.0371,0.77871 -0.0832,1.55371 -0.16028,2.11251 -0.0222,0.16086 -0.0489,0.24557 -0.0751,0.36165 -0.0591,-0.0911 -0.11206,-0.15957 -0.17896,-0.28637 -0.22558,-0.42869 -0.46582,-0.99639 -0.75134,-1.45861 -0.13171,-0.21305 -0.41113,-0.27903 -0.62414,-0.14736 -0.21302,0.13167 -0.27906,0.4111 -0.14734,0.62413 0.22619,0.36618 0.46765,0.92433 0.72033,1.40418 0.12622,0.23993 0.25379,0.46171 0.41602,0.65136 0.16235,0.18969 0.40381,0.39692 0.74756,0.36884 10e-4,-1.2e-4 0.002,-2.4e-4 0.003,-3.7e-4 0.20581,-0.0181 0.35889,-0.14592 0.44312,-0.25515 0.0842,-0.10927 0.13012,-0.21708 0.17077,-0.33197 0.0813,-0.22983 0.13123,-0.49619 0.17395,-0.80657 0.0857,-0.62076 0.13062,-1.40806 0.16797,-2.19316 0.0312,-0.65628 0.0602,-1.25751 0.0951,-1.79016 0.0824,0.21046 0.15809,0.38834 0.24231,0.61221 0.17322,0.45951 0.3418,0.91379 0.48316,1.25087 0.0707,0.16854 0.13025,0.30303 0.20093,0.42265 0.0354,0.0598 0.0547,0.11477 0.17016,0.20565 0.0576,0.0454 0.16699,0.12159 0.34644,0.10435 0.0153,-0.002 0.0251,-0.0132 0.0398,-0.0163 0.27637,-0.0372 0.53528,-0.0721 0.80542,-0.10841 l -0.1261,-0.89755 c -0.18103,0.0243 -0.35522,0.0478 -0.53845,0.0724 -0.023,-0.0496 -0.0348,-0.068 -0.0621,-0.13334 -0.12805,-0.30544 -0.29663,-0.75821 -0.47058,-1.22005 -0.17408,-0.46184 -0.35364,-0.93347 -0.51636,-1.30263 -0.0813,-0.18458 -0.15588,-0.34138 -0.23755,-0.47561 -0.041,-0.0671 -0.0811,-0.12842 -0.1477,-0.19686 -0.0625,-0.0641 -0.16871,-0.18261 -0.39258,-0.1754 z"
       id="path1938" />
    <path
       style="fill:#808080;fill-rule:evenodd;stroke:none"
       d="m 68.72266,184.53205 c -0.0289,3.1e-4 -0.0596,0.003 -0.0922,0.009 -0.009,0.002 -0.0172,0.003 -0.0256,0.005 -0.19446,0.0452 -0.28089,0.1659 -0.32886,0.24207 -0.048,0.0761 -0.0704,0.1383 -0.0905,0.20096 -0.0403,0.1253 -0.0642,0.25393 -0.0867,0.40094 -0.0449,0.29406 -0.0764,0.65255 -0.10669,1.00656 -0.0303,0.354 -0.0591,0.70337 -0.0917,0.94833 -0.006,0.046 -0.0109,0.0601 -0.0171,0.0975 -0.6543,0.0881 -1.29846,0.17469 -1.94446,0.2616 l 0.12622,0.89783 c 0.73108,-0.0984 1.45972,-0.19641 2.20313,-0.29648 0.2417,-0.0279 0.33704,-0.18362 0.38135,-0.26141 0.0444,-0.0778 0.0613,-0.13581 0.0779,-0.19516 0.0332,-0.11875 0.053,-0.24152 0.072,-0.38413 0.0378,-0.28519 0.0662,-0.63913 0.0962,-0.99081 9.8e-4,-0.0111 0.002,-0.0188 0.003,-0.0299 0.063,0.16953 0.11694,0.30344 0.18249,0.48123 0.16614,0.4502 0.3346,0.90033 0.49256,1.25012 0.079,0.17487 0.15112,0.32242 0.24243,0.45478 0.0458,0.0661 0.0925,0.13064 0.18542,0.20065 0.0922,0.0695 0.3003,0.15546 0.50366,0.0789 0.11561,-0.0433 0.2389,-0.13172 0.31861,-0.22722 0.0809,-0.097 0.13391,-0.19469 0.19226,-0.31213 0.1167,-0.2349 0.25268,-0.56423 0.49817,-1.11521 0.10193,-0.22871 -7.3e-4,-0.49681 -0.22949,-0.59878 -0.22876,-0.10199 -0.49683,7.1e-4 -0.59876,0.22947 -0.17761,0.39856 -0.25464,0.57288 -0.3435,0.77057 -0.12549,-0.29315 -0.26575,-0.65283 -0.41065,-1.04532 -0.16504,-0.44732 -0.32922,-0.90045 -0.47705,-1.25399 -0.074,-0.17676 -0.1416,-0.32676 -0.21729,-0.45664 -0.038,-0.0649 -0.0742,-0.1246 -0.14135,-0.19443 -0.0587,-0.0611 -0.172,-0.17623 -0.37403,-0.17395 z"
       id="path1940" />
    <path
       style="fill:none;stroke:#ff0000;stroke-width:0.05mm;fill-opacity:1;stroke-opacity:1"
       d="m 165.8394,142.0015 -1e-5,-6.79999 c 0,-0.1 -0.1,0 0,0 l 3.9,-1e-5 c 0.055,0 0.1,-0.045 0.1,-0.1 v -5.19999 c 0,-0.055 -0.045,-0.1 -0.1,-0.1 h -3.9 c -0.1,0 0,0.1 0,0 l -1e-5,-6.8 v -6.80001 c 0,-0.1 -0.1,0 0,0 h 3.9 c 0.055,0 0.1,-0.045 0.1,-0.1 l -1e-5,-5.2 c 0,-0.055 -0.045,-0.1 -0.1,-0.1 l -3.9,10e-6 c -0.1,0 0,0.1 0,0 l -1e-5,-6.80002 c 0,-1.77299 -0.4669,-3.51499 -1.3529,-5.049999 -0.8871,-1.535 -2.1621,-2.80999 -3.69701,-3.697 -1.5351,-0.886 -3.277,-1.35299 -5.0501,-1.35299 h -4 c -0.1,0 0,0.10001 0,0 v -3.89999 c 0,-0.055 -0.045,-0.10001 -0.1,-0.10001 l -5.2,1e-5 c -0.055,0 -0.1001,0.045 -0.1001,0.1 v 3.9 c 0,0.10001 0.1001,0 0,0 l -5,1e-5 c -0.1,0 0,0.1 0,0 v -3.9 c 0,-0.055 -0.045,-0.1 -0.1,-0.1 h -5.1999 c -0.055,0 -0.1,0.045 -0.1,0.10001 v 3.89999 c 0,0.10001 0.1,0 0,0 l -5,1e-5 c -0.1,0 0,0.10001 0,0 v -3.89999 c 0,-0.055 -0.045,-0.10001 -0.1,-0.10001 h -5.2 c -0.055,0 -0.1,0.045 -0.1,0.10001 v 3.89999 c 0,0.10001 0.1,0 0,0 l -5,10e-6 c -0.1,0 0,0.10001 0,0 v -3.89999 c 0,-0.055 -0.045,-0.10001 -0.1,-0.10001 h -5.2001 c -0.055,0 -0.1,0.045 -0.1,0.10001 v 3.89999 c 0,0.10001 0.1,0 0,0 l -5,1e-5 c -0.1,0 0,0.10001 0,0 v -3.89999 c 0,-0.055 -0.045,-0.10001 -0.1,-0.10001 l -5.2,1e-5 c -0.055,0 -0.1,0.045 -0.1,0.1 v 3.9 c 0,0.1 0.1,0 0,0 h -4 c -1.7731,0 -3.5151,0.467 -5.0501,1.353 -1.53499,0.887 -2.81009,2.16201 -3.69699,3.69701 -0.886,1.535009 -1.353,3.276999 -1.353,5.050009 l 10e-6,5.9 c 0,0.1 0.1001,0 0,0 h -3.8999 c -0.055,0 -0.1001,0.045 -0.1001,0.1 v 5.2 c 0,0.055 0.045,0.1 0.1001,0.1 l 3.8999,-1e-5 c 0.1001,0 0,-0.1 0,0 l 1e-5,5 c 0,0.1 0.1001,0 0,0 h -3.8999 c -0.055,0 -0.1001,0.045 -0.1001,0.1 v 5.20001 c 0,0.055 0.045,0.1 0.1001,0.1 l 3.8999,-1e-5 c 0.1001,0 0,-0.1 0,0 l 1e-5,5 c 0,0.1 0.1001,0 0,0 l -3.8999,1e-5 c -0.055,0 -0.1001,0.045 -0.1001,0.1 l 1e-5,5.19999 c 0,0.055 0.045,0.1 0.1001,0.1 h 3.8999 c 0.1001,0 0,-0.1 0,0 v 5.89999 c 0,1.77301 0.467,3.515 1.35301,5.05001 0.8869,1.535 2.162,2.80999 3.697,3.69699 1.535,0.886 3.277,1.35299 5.0499,1.35299 l 4,1e-5 c 0.1001,0 0,-0.1 0,0 l 1e-5,3.89999 c 0,0.055 0.045,0.1 0.1001,0.1 l 5.2,-1e-5 c 0.055,0 0.1,-0.045 0.1,-0.1 l -10e-6,-3.9 c 0,-0.1 -0.1,0 0,0 h 5 c 0.1,0 0,-0.1 0,0 l 10e-6,3.9 c 0,0.055 0.045,0.1 0.1,0.1 l 5.2001,-1e-5 c 0.055,0 0.1,-0.045 0.1,-0.1 l -1e-5,-3.9 c 0,-0.1 -0.1,0 0,0 h 5 c 0.1,0 0,-0.1 0,0 l 1e-5,3.9 c 0,0.055 0.045,0.1 0.1,0.1 l 5.2,-1e-5 c 0.055,0 0.1,-0.045 0.1,-0.1 l -1e-5,-3.9 c 0,-0.1 -0.1,0 0,0 h 5 c 0.1,0 0,-0.1 0,0 l 1e-5,3.9 c 0,0.055 0.045,0.1 0.1,0.1 l 5.1999,-1e-5 c 0.055,0 0.1,-0.045 0.1,-0.1 l -1e-5,-3.9 c 0,-0.1 -0.1,0 0,0 h 5 c 0.1001,0 0,-0.1 0,0 l 1e-5,3.9 c 0,0.055 0.045,0.1 0.1001,0.1 l 5.2,-1e-5 c 0.055,0 0.1,-0.045 0.1,-0.1 l -1e-5,-3.9 c 0,-0.1 -0.1,0 0,0 h 4 c 1.7731,0 3.515,-0.46701 5.0501,-1.353 1.535,-0.88701 2.8099,-2.16201 3.697,-3.69701 0.88599,-1.535 1.35289,-3.277 1.35289,-5.05 z"
       id="path1806-4" />
  </g>
</svg>
