M48
; DRILL file {KiCad (5.1.0)-1} date 05.02.2021 09:11:46
; FORMAT={-:-/ absolute / metric / decimal}
; #@! TF.CreationDate,2021-02-05T09:11:46+01:00
; #@! TF.GenerationSoftware,Kicad,Pcbnew,(5.1.0)-1
; #@! TF.FileFunction,Plated,1,2,PTH
FMAT,2
METRIC
T1C0.400
T2C0.700
T3C0.800
T4C1.000
T5C1.040
T6C1.100
T7C3.200
%
G90
G05
T1
X117.265Y-71.199
X129.265Y-88.949
X130.765Y-75.699
X140.765Y-76.699
X146.765Y-89.699
X148.765Y-83.699
X152.858Y-87.199
T2
X139.584Y-85.097
X141.584Y-85.097
X143.584Y-85.097
X145.584Y-85.097
T3
X134.597Y-70.635
X134.597Y-85.875
X155.525Y-70.624
X155.525Y-85.864
X150.318Y-70.624
X150.318Y-85.864
T4
X115.545Y-114.699
X118.085Y-114.699
X120.625Y-114.699
X123.165Y-114.699
X125.705Y-114.699
X128.245Y-114.699
X130.785Y-114.699
X133.325Y-114.699
X135.865Y-114.699
X138.405Y-114.699
X140.945Y-114.699
X143.485Y-114.699
X146.025Y-114.699
X148.565Y-114.699
X151.105Y-114.699
X153.645Y-114.699
X156.185Y-114.699
X158.725Y-114.699
X161.265Y-114.699
X115.125Y-40.333
X117.665Y-40.333
X120.205Y-40.333
X122.745Y-40.333
X125.285Y-40.333
X127.825Y-40.333
X130.365Y-40.333
X132.905Y-40.333
X135.445Y-40.333
X137.985Y-40.333
X140.525Y-40.333
X143.065Y-40.333
X145.605Y-40.333
X148.145Y-40.333
X150.685Y-40.333
X153.225Y-40.333
X155.765Y-40.333
X158.305Y-40.333
X160.845Y-40.333
X123.485Y-73.619
X123.485Y-76.159
X123.485Y-78.699
X123.485Y-81.239
X123.485Y-83.779
T5
X115.305Y-65.999
X115.305Y-91.399
X117.845Y-65.999
X117.845Y-91.399
X120.385Y-65.999
X120.385Y-91.399
X122.925Y-65.999
X122.925Y-91.399
X125.465Y-65.999
X125.465Y-91.399
X128.005Y-65.999
X128.005Y-91.399
X130.545Y-65.999
X130.545Y-91.399
X133.085Y-65.999
X133.085Y-91.399
X135.625Y-65.999
X135.625Y-91.399
X138.165Y-65.999
X138.165Y-91.399
X140.705Y-65.999
X140.705Y-91.399
X143.245Y-65.999
X143.245Y-91.399
X145.785Y-65.999
X145.785Y-91.399
X148.325Y-65.999
X148.325Y-91.399
X150.865Y-65.999
X150.865Y-91.399
X153.405Y-65.999
X153.405Y-91.399
X155.945Y-65.999
X155.945Y-91.399
X158.485Y-65.999
X158.485Y-91.399
X161.025Y-65.999
X161.025Y-91.399
T6
X184.585Y-79.389
X184.585Y-81.929
X184.585Y-84.469
X184.585Y-87.009
X184.585Y-89.549
X184.585Y-92.089
X184.585Y-94.629
T7
X158.265Y-96.199
X117.265Y-61.199
X117.265Y-96.199
X158.265Y-61.199
T0
M30
