G04 #@! TF.GenerationSoftware,KiCad,Pcbnew,(5.1.0)-1*
G04 #@! TF.CreationDate,2021-02-05T09:11:41+01:00*
G04 #@! TF.ProjectId,phyphox_CO2_Monitor,70687970-686f-4785-9f43-4f325f4d6f6e,rev?*
G04 #@! TF.SameCoordinates,Original*
G04 #@! TF.FileFunction,Copper,L2,Bot*
G04 #@! TF.FilePolarity,Positive*
%FSLAX46Y46*%
G04 Gerber Fmt 4.6, Leading zero omitted, Abs format (unit mm)*
G04 Created by KiCad (PCBNEW (5.1.0)-1) date 2021-02-05 09:11:41*
%MOMM*%
%LPD*%
G04 APERTURE LIST*
%ADD10O,1.100000X1.600000*%
%ADD11C,5.000000*%
%ADD12O,1.700000X1.700000*%
%ADD13R,1.700000X1.700000*%
%ADD14R,1.560000X1.560000*%
%ADD15C,1.560000*%
%ADD16R,1.650000X1.650000*%
%ADD17C,1.650000*%
%ADD18C,1.600000*%
%ADD19O,1.600000X1.600000*%
%ADD20C,0.800000*%
%ADD21C,0.400000*%
%ADD22C,0.254000*%
G04 APERTURE END LIST*
D10*
X139583640Y-85097460D03*
X141583640Y-85097460D03*
X143583640Y-85097460D03*
X145583640Y-85097460D03*
D11*
X158264800Y-61199200D03*
X158264800Y-96199200D03*
X117264800Y-61199200D03*
X117264800Y-96199200D03*
D12*
X123484800Y-83779200D03*
X123484800Y-81239200D03*
X123484800Y-78699200D03*
X123484800Y-76159200D03*
D13*
X123484800Y-73619200D03*
D14*
X161024800Y-65999200D03*
D15*
X158484800Y-65999200D03*
X115304800Y-65999200D03*
X155944800Y-65999200D03*
X153404800Y-65999200D03*
X150864800Y-65999200D03*
X148324800Y-65999200D03*
X145784800Y-65999200D03*
X143244800Y-65999200D03*
X140704800Y-65999200D03*
X138164800Y-65999200D03*
X135624800Y-65999200D03*
X133084800Y-65999200D03*
X130544800Y-65999200D03*
X128004800Y-65999200D03*
X125464800Y-65999200D03*
X122924800Y-65999200D03*
X120384800Y-65999200D03*
X117844800Y-65999200D03*
X161024800Y-91399200D03*
X158484800Y-91399200D03*
X155944800Y-91399200D03*
X153404800Y-91399200D03*
X150864800Y-91399200D03*
X148324800Y-91399200D03*
X145784800Y-91399200D03*
X143244800Y-91399200D03*
X140704800Y-91399200D03*
X138164800Y-91399200D03*
X135624800Y-91399200D03*
X133084800Y-91399200D03*
X130544800Y-91399200D03*
X128004800Y-91399200D03*
X125464800Y-91399200D03*
X122924800Y-91399200D03*
X120384800Y-91399200D03*
X117844800Y-91399200D03*
X115304800Y-91399200D03*
D16*
X184584800Y-94629200D03*
D17*
X184584800Y-92089200D03*
X184584800Y-89549200D03*
X184584800Y-87009200D03*
X184584800Y-84469200D03*
X184584800Y-81929200D03*
X184584800Y-79389200D03*
D12*
X115544800Y-114699200D03*
X118084800Y-114699200D03*
X120624800Y-114699200D03*
X123164800Y-114699200D03*
X125704800Y-114699200D03*
X128244800Y-114699200D03*
X130784800Y-114699200D03*
X133324800Y-114699200D03*
X135864800Y-114699200D03*
X138404800Y-114699200D03*
X140944800Y-114699200D03*
X143484800Y-114699200D03*
X146024800Y-114699200D03*
X148564800Y-114699200D03*
X151104800Y-114699200D03*
X153644800Y-114699200D03*
X156184800Y-114699200D03*
X158724800Y-114699200D03*
D13*
X161264800Y-114699200D03*
D12*
X115124800Y-40333200D03*
X117664800Y-40333200D03*
X120204800Y-40333200D03*
X122744800Y-40333200D03*
X125284800Y-40333200D03*
X127824800Y-40333200D03*
X130364800Y-40333200D03*
X132904800Y-40333200D03*
X135444800Y-40333200D03*
X137984800Y-40333200D03*
X140524800Y-40333200D03*
X143064800Y-40333200D03*
X145604800Y-40333200D03*
X148144800Y-40333200D03*
X150684800Y-40333200D03*
X153224800Y-40333200D03*
X155764800Y-40333200D03*
X158304800Y-40333200D03*
D13*
X160844800Y-40333200D03*
D18*
X134597300Y-85874700D03*
D19*
X134597300Y-70634700D03*
D18*
X150317800Y-70624200D03*
D19*
X150317800Y-85864200D03*
X155524800Y-85864200D03*
D18*
X155524800Y-70624200D03*
D20*
X129264800Y-88949200D03*
X130764800Y-75699200D03*
X146764800Y-89699200D03*
X152857800Y-87199200D03*
X148764800Y-83699200D03*
X140764800Y-76699200D03*
X117264800Y-71199200D03*
D21*
X150317800Y-70624200D02*
X155524800Y-70624200D01*
X155524800Y-70624200D02*
X159499800Y-70624200D01*
X161024800Y-69099200D02*
X161024800Y-65999200D01*
X159499800Y-70624200D02*
X161024800Y-69099200D01*
X161024800Y-69023200D02*
X161024800Y-65999200D01*
X176444800Y-84443200D02*
X161024800Y-69023200D01*
X184584800Y-96173200D02*
X183304800Y-97453200D01*
X184584800Y-94629200D02*
X184584800Y-96173200D01*
X176444800Y-93201202D02*
X176444800Y-84443200D01*
X183304800Y-97453200D02*
X177754800Y-97453200D01*
X177754800Y-97453200D02*
X176434800Y-96133200D01*
X176434800Y-96133200D02*
X176434800Y-93211202D01*
X176434800Y-93211202D02*
X176444800Y-93201202D01*
X123484800Y-73619200D02*
X139232800Y-73619200D01*
X142227800Y-70624200D02*
X150317800Y-70624200D01*
X139232800Y-73619200D02*
X142227800Y-70624200D01*
X143583640Y-77358360D02*
X143583640Y-85097460D01*
X150317800Y-70624200D02*
X143583640Y-77358360D01*
X149354800Y-86827200D02*
X150317800Y-85864200D01*
X123484800Y-83779200D02*
X135344800Y-83779200D01*
X135344800Y-83779200D02*
X138392800Y-86827200D01*
X138392800Y-86827200D02*
X149354800Y-86827200D01*
X121724800Y-81239200D02*
X123484800Y-81239200D01*
X121264800Y-81699200D02*
X121724800Y-81239200D01*
X121264800Y-84699200D02*
X121264800Y-81699200D01*
X155944800Y-89950200D02*
X154817801Y-88823201D01*
X155944800Y-91399200D02*
X155944800Y-89950200D01*
X154817801Y-88823201D02*
X133608801Y-88823201D01*
X133608801Y-88823201D02*
X132184799Y-87399199D01*
X132184799Y-87399199D02*
X123964799Y-87399199D01*
X123964799Y-87399199D02*
X121264800Y-84699200D01*
X135397299Y-69834701D02*
X140129299Y-69834701D01*
X134597300Y-70634700D02*
X135397299Y-69834701D01*
X142464801Y-67499199D02*
X140129299Y-69834701D01*
X142464801Y-66779199D02*
X142464801Y-67499199D01*
X143244800Y-65999200D02*
X142464801Y-66779199D01*
X121804800Y-76159200D02*
X123484800Y-76159200D01*
X120264800Y-77699200D02*
X121804800Y-76159200D01*
X120264800Y-85096114D02*
X120264800Y-77699200D01*
X125464800Y-91399200D02*
X125464800Y-90296114D01*
X125464800Y-90296114D02*
X120264800Y-85096114D01*
D22*
G36*
X156779821Y-58420999D02*
G01*
X156266354Y-58764086D01*
X155829686Y-59200754D01*
X155486599Y-59714221D01*
X155250276Y-60284754D01*
X155129800Y-60890429D01*
X155129800Y-61507971D01*
X155250276Y-62113646D01*
X155486599Y-62684179D01*
X155829686Y-63197646D01*
X156266354Y-63634314D01*
X156779821Y-63977401D01*
X157350354Y-64213724D01*
X157956029Y-64334200D01*
X158573571Y-64334200D01*
X159179246Y-64213724D01*
X159749779Y-63977401D01*
X160263246Y-63634314D01*
X160699914Y-63197646D01*
X161043001Y-62684179D01*
X161165613Y-62388167D01*
X162879800Y-62388167D01*
X162879800Y-62710233D01*
X162942632Y-63026112D01*
X163065882Y-63323663D01*
X163244813Y-63591452D01*
X163472548Y-63819187D01*
X163740337Y-63998118D01*
X164037888Y-64121368D01*
X164353767Y-64184200D01*
X164675833Y-64184200D01*
X164991712Y-64121368D01*
X165289263Y-63998118D01*
X165557052Y-63819187D01*
X165784787Y-63591452D01*
X165963718Y-63323663D01*
X166086968Y-63026112D01*
X166149800Y-62710233D01*
X166149800Y-62388167D01*
X166086968Y-62072288D01*
X165963718Y-61774737D01*
X165784787Y-61506948D01*
X165557052Y-61279213D01*
X165289263Y-61100282D01*
X164991712Y-60977032D01*
X164675833Y-60914200D01*
X164353767Y-60914200D01*
X164037888Y-60977032D01*
X163740337Y-61100282D01*
X163472548Y-61279213D01*
X163244813Y-61506948D01*
X163065882Y-61774737D01*
X162942632Y-62072288D01*
X162879800Y-62388167D01*
X161165613Y-62388167D01*
X161279324Y-62113646D01*
X161399800Y-61507971D01*
X161399800Y-60890429D01*
X161279324Y-60284754D01*
X161043001Y-59714221D01*
X160699914Y-59200754D01*
X160263246Y-58764086D01*
X159749779Y-58420999D01*
X159600583Y-58359200D01*
X183732521Y-58359200D01*
X184218693Y-58406870D01*
X184655298Y-58538689D01*
X185057985Y-58752800D01*
X185411412Y-59041048D01*
X185702127Y-59392461D01*
X185919042Y-59793639D01*
X186053906Y-60229313D01*
X186104800Y-60713544D01*
X186104801Y-96666911D01*
X186057130Y-97153094D01*
X185925312Y-97589697D01*
X185711199Y-97992386D01*
X185422950Y-98345813D01*
X185071539Y-98636527D01*
X184670364Y-98853440D01*
X184234686Y-98988306D01*
X183750464Y-99039200D01*
X159600583Y-99039200D01*
X159749779Y-98977401D01*
X160263246Y-98634314D01*
X160699914Y-98197646D01*
X161043001Y-97684179D01*
X161279324Y-97113646D01*
X161399800Y-96507971D01*
X161399800Y-95890429D01*
X161279324Y-95284754D01*
X161043001Y-94714221D01*
X160699914Y-94200754D01*
X160263246Y-93764086D01*
X159749779Y-93420999D01*
X159179246Y-93184676D01*
X158573571Y-93064200D01*
X157956029Y-93064200D01*
X157350354Y-93184676D01*
X156779821Y-93420999D01*
X156266354Y-93764086D01*
X155829686Y-94200754D01*
X155486599Y-94714221D01*
X155250276Y-95284754D01*
X155129800Y-95890429D01*
X155129800Y-96507971D01*
X155250276Y-97113646D01*
X155486599Y-97684179D01*
X155829686Y-98197646D01*
X156266354Y-98634314D01*
X156779821Y-98977401D01*
X156929017Y-99039200D01*
X118600583Y-99039200D01*
X118749779Y-98977401D01*
X119263246Y-98634314D01*
X119699914Y-98197646D01*
X120043001Y-97684179D01*
X120279324Y-97113646D01*
X120399800Y-96507971D01*
X120399800Y-95890429D01*
X120279324Y-95284754D01*
X120043001Y-94714221D01*
X119699914Y-94200754D01*
X119263246Y-93764086D01*
X118749779Y-93420999D01*
X118179246Y-93184676D01*
X117573571Y-93064200D01*
X116956029Y-93064200D01*
X116350354Y-93184676D01*
X115779821Y-93420999D01*
X115266354Y-93764086D01*
X114829686Y-94200754D01*
X114486599Y-94714221D01*
X114424800Y-94863417D01*
X114424800Y-92513010D01*
X114634546Y-92653157D01*
X114892060Y-92759823D01*
X115165435Y-92814200D01*
X115444165Y-92814200D01*
X115717540Y-92759823D01*
X115975054Y-92653157D01*
X116206810Y-92498303D01*
X116403903Y-92301210D01*
X116558757Y-92069454D01*
X116574800Y-92030723D01*
X116590843Y-92069454D01*
X116745697Y-92301210D01*
X116942790Y-92498303D01*
X117174546Y-92653157D01*
X117432060Y-92759823D01*
X117705435Y-92814200D01*
X117984165Y-92814200D01*
X118257540Y-92759823D01*
X118515054Y-92653157D01*
X118746810Y-92498303D01*
X118943903Y-92301210D01*
X119098757Y-92069454D01*
X119114800Y-92030723D01*
X119130843Y-92069454D01*
X119285697Y-92301210D01*
X119482790Y-92498303D01*
X119714546Y-92653157D01*
X119972060Y-92759823D01*
X120245435Y-92814200D01*
X120524165Y-92814200D01*
X120797540Y-92759823D01*
X121055054Y-92653157D01*
X121286810Y-92498303D01*
X121483903Y-92301210D01*
X121638757Y-92069454D01*
X121654800Y-92030723D01*
X121670843Y-92069454D01*
X121825697Y-92301210D01*
X122022790Y-92498303D01*
X122254546Y-92653157D01*
X122512060Y-92759823D01*
X122785435Y-92814200D01*
X123064165Y-92814200D01*
X123337540Y-92759823D01*
X123595054Y-92653157D01*
X123826810Y-92498303D01*
X124023903Y-92301210D01*
X124178757Y-92069454D01*
X124194800Y-92030723D01*
X124210843Y-92069454D01*
X124365697Y-92301210D01*
X124562790Y-92498303D01*
X124794546Y-92653157D01*
X125052060Y-92759823D01*
X125325435Y-92814200D01*
X125604165Y-92814200D01*
X125877540Y-92759823D01*
X126135054Y-92653157D01*
X126366810Y-92498303D01*
X126563903Y-92301210D01*
X126718757Y-92069454D01*
X126734800Y-92030723D01*
X126750843Y-92069454D01*
X126905697Y-92301210D01*
X127102790Y-92498303D01*
X127334546Y-92653157D01*
X127592060Y-92759823D01*
X127865435Y-92814200D01*
X128144165Y-92814200D01*
X128417540Y-92759823D01*
X128675054Y-92653157D01*
X128906810Y-92498303D01*
X129103903Y-92301210D01*
X129258757Y-92069454D01*
X129274800Y-92030723D01*
X129290843Y-92069454D01*
X129445697Y-92301210D01*
X129642790Y-92498303D01*
X129874546Y-92653157D01*
X130132060Y-92759823D01*
X130405435Y-92814200D01*
X130684165Y-92814200D01*
X130957540Y-92759823D01*
X131215054Y-92653157D01*
X131446810Y-92498303D01*
X131643903Y-92301210D01*
X131798757Y-92069454D01*
X131814800Y-92030723D01*
X131830843Y-92069454D01*
X131985697Y-92301210D01*
X132182790Y-92498303D01*
X132414546Y-92653157D01*
X132672060Y-92759823D01*
X132945435Y-92814200D01*
X133224165Y-92814200D01*
X133497540Y-92759823D01*
X133755054Y-92653157D01*
X133986810Y-92498303D01*
X134183903Y-92301210D01*
X134338757Y-92069454D01*
X134354800Y-92030723D01*
X134370843Y-92069454D01*
X134525697Y-92301210D01*
X134722790Y-92498303D01*
X134954546Y-92653157D01*
X135212060Y-92759823D01*
X135485435Y-92814200D01*
X135764165Y-92814200D01*
X136037540Y-92759823D01*
X136295054Y-92653157D01*
X136526810Y-92498303D01*
X136723903Y-92301210D01*
X136878757Y-92069454D01*
X136894800Y-92030723D01*
X136910843Y-92069454D01*
X137065697Y-92301210D01*
X137262790Y-92498303D01*
X137494546Y-92653157D01*
X137752060Y-92759823D01*
X138025435Y-92814200D01*
X138304165Y-92814200D01*
X138577540Y-92759823D01*
X138835054Y-92653157D01*
X139066810Y-92498303D01*
X139263903Y-92301210D01*
X139418757Y-92069454D01*
X139434800Y-92030723D01*
X139450843Y-92069454D01*
X139605697Y-92301210D01*
X139802790Y-92498303D01*
X140034546Y-92653157D01*
X140292060Y-92759823D01*
X140565435Y-92814200D01*
X140844165Y-92814200D01*
X141117540Y-92759823D01*
X141375054Y-92653157D01*
X141606810Y-92498303D01*
X141803903Y-92301210D01*
X141958757Y-92069454D01*
X141974800Y-92030723D01*
X141990843Y-92069454D01*
X142145697Y-92301210D01*
X142342790Y-92498303D01*
X142574546Y-92653157D01*
X142832060Y-92759823D01*
X143105435Y-92814200D01*
X143384165Y-92814200D01*
X143657540Y-92759823D01*
X143915054Y-92653157D01*
X144146810Y-92498303D01*
X144343903Y-92301210D01*
X144498757Y-92069454D01*
X144514800Y-92030723D01*
X144530843Y-92069454D01*
X144685697Y-92301210D01*
X144882790Y-92498303D01*
X145114546Y-92653157D01*
X145372060Y-92759823D01*
X145645435Y-92814200D01*
X145924165Y-92814200D01*
X146197540Y-92759823D01*
X146455054Y-92653157D01*
X146686810Y-92498303D01*
X146883903Y-92301210D01*
X147038757Y-92069454D01*
X147054800Y-92030723D01*
X147070843Y-92069454D01*
X147225697Y-92301210D01*
X147422790Y-92498303D01*
X147654546Y-92653157D01*
X147912060Y-92759823D01*
X148185435Y-92814200D01*
X148464165Y-92814200D01*
X148737540Y-92759823D01*
X148995054Y-92653157D01*
X149226810Y-92498303D01*
X149423903Y-92301210D01*
X149578757Y-92069454D01*
X149594800Y-92030723D01*
X149610843Y-92069454D01*
X149765697Y-92301210D01*
X149962790Y-92498303D01*
X150194546Y-92653157D01*
X150452060Y-92759823D01*
X150725435Y-92814200D01*
X151004165Y-92814200D01*
X151277540Y-92759823D01*
X151535054Y-92653157D01*
X151766810Y-92498303D01*
X151963903Y-92301210D01*
X152118757Y-92069454D01*
X152134800Y-92030723D01*
X152150843Y-92069454D01*
X152305697Y-92301210D01*
X152502790Y-92498303D01*
X152734546Y-92653157D01*
X152992060Y-92759823D01*
X153265435Y-92814200D01*
X153544165Y-92814200D01*
X153817540Y-92759823D01*
X154075054Y-92653157D01*
X154306810Y-92498303D01*
X154503903Y-92301210D01*
X154658757Y-92069454D01*
X154674800Y-92030723D01*
X154690843Y-92069454D01*
X154845697Y-92301210D01*
X155042790Y-92498303D01*
X155274546Y-92653157D01*
X155532060Y-92759823D01*
X155805435Y-92814200D01*
X156084165Y-92814200D01*
X156357540Y-92759823D01*
X156615054Y-92653157D01*
X156846810Y-92498303D01*
X157043903Y-92301210D01*
X157198757Y-92069454D01*
X157214800Y-92030723D01*
X157230843Y-92069454D01*
X157385697Y-92301210D01*
X157582790Y-92498303D01*
X157814546Y-92653157D01*
X158072060Y-92759823D01*
X158345435Y-92814200D01*
X158624165Y-92814200D01*
X158897540Y-92759823D01*
X159155054Y-92653157D01*
X159386810Y-92498303D01*
X159507492Y-92377621D01*
X160225984Y-92377621D01*
X160295145Y-92619549D01*
X160547243Y-92738448D01*
X160817694Y-92805881D01*
X161096103Y-92819257D01*
X161371772Y-92778060D01*
X161634108Y-92683875D01*
X161754455Y-92619549D01*
X161823616Y-92377621D01*
X161024800Y-91578805D01*
X160225984Y-92377621D01*
X159507492Y-92377621D01*
X159583903Y-92301210D01*
X159738757Y-92069454D01*
X159753577Y-92033675D01*
X159804451Y-92128855D01*
X160046379Y-92198016D01*
X160845195Y-91399200D01*
X161204405Y-91399200D01*
X162003221Y-92198016D01*
X162245149Y-92128855D01*
X162364048Y-91876757D01*
X162431481Y-91606306D01*
X162444857Y-91327897D01*
X162403660Y-91052228D01*
X162309475Y-90789892D01*
X162245149Y-90669545D01*
X162003221Y-90600384D01*
X161204405Y-91399200D01*
X160845195Y-91399200D01*
X160046379Y-90600384D01*
X159804451Y-90669545D01*
X159756375Y-90771479D01*
X159738757Y-90728946D01*
X159583903Y-90497190D01*
X159507492Y-90420779D01*
X160225984Y-90420779D01*
X161024800Y-91219595D01*
X161823616Y-90420779D01*
X161754455Y-90178851D01*
X161502357Y-90059952D01*
X161231906Y-89992519D01*
X160953497Y-89979143D01*
X160677828Y-90020340D01*
X160415492Y-90114525D01*
X160295145Y-90178851D01*
X160225984Y-90420779D01*
X159507492Y-90420779D01*
X159386810Y-90300097D01*
X159155054Y-90145243D01*
X158897540Y-90038577D01*
X158624165Y-89984200D01*
X158345435Y-89984200D01*
X158072060Y-90038577D01*
X157814546Y-90145243D01*
X157582790Y-90300097D01*
X157385697Y-90497190D01*
X157230843Y-90728946D01*
X157214800Y-90767677D01*
X157198757Y-90728946D01*
X157043903Y-90497190D01*
X156846810Y-90300097D01*
X156779800Y-90255322D01*
X156779800Y-89991207D01*
X156783839Y-89950199D01*
X156779800Y-89909191D01*
X156779800Y-89909181D01*
X156767718Y-89786511D01*
X156719972Y-89629113D01*
X156642436Y-89484054D01*
X156538091Y-89356909D01*
X156506226Y-89330758D01*
X155437247Y-88261780D01*
X155411092Y-88229910D01*
X155283947Y-88125565D01*
X155138888Y-88048029D01*
X154981490Y-88000283D01*
X154858820Y-87988201D01*
X154858819Y-87988201D01*
X154817801Y-87984161D01*
X154776783Y-87988201D01*
X133954670Y-87988201D01*
X132804245Y-86837777D01*
X132778090Y-86805908D01*
X132650945Y-86701563D01*
X132505886Y-86624027D01*
X132348488Y-86576281D01*
X132225818Y-86564199D01*
X132225817Y-86564199D01*
X132184799Y-86560159D01*
X132143781Y-86564199D01*
X124310667Y-86564199D01*
X122893358Y-85146891D01*
X122913766Y-85157799D01*
X123193689Y-85242713D01*
X123411850Y-85264200D01*
X123557750Y-85264200D01*
X123775911Y-85242713D01*
X124055834Y-85157799D01*
X124313814Y-85019906D01*
X124539934Y-84834334D01*
X124720593Y-84614200D01*
X133900841Y-84614200D01*
X133682541Y-84760063D01*
X133482663Y-84959941D01*
X133325620Y-85194973D01*
X133217447Y-85456126D01*
X133162300Y-85733365D01*
X133162300Y-86016035D01*
X133217447Y-86293274D01*
X133325620Y-86554427D01*
X133482663Y-86789459D01*
X133682541Y-86989337D01*
X133917573Y-87146380D01*
X134178726Y-87254553D01*
X134455965Y-87309700D01*
X134738635Y-87309700D01*
X135015874Y-87254553D01*
X135277027Y-87146380D01*
X135512059Y-86989337D01*
X135711937Y-86789459D01*
X135868980Y-86554427D01*
X135977153Y-86293274D01*
X136032300Y-86016035D01*
X136032300Y-85733365D01*
X136010996Y-85626264D01*
X137773363Y-87388632D01*
X137799509Y-87420491D01*
X137831368Y-87446637D01*
X137831370Y-87446639D01*
X137926654Y-87524836D01*
X138071713Y-87602372D01*
X138229111Y-87650118D01*
X138392800Y-87666240D01*
X138433818Y-87662200D01*
X149313782Y-87662200D01*
X149354800Y-87666240D01*
X149395818Y-87662200D01*
X149395819Y-87662200D01*
X149518489Y-87650118D01*
X149675887Y-87602372D01*
X149820946Y-87524836D01*
X149948091Y-87420491D01*
X149974245Y-87388622D01*
X150080133Y-87282734D01*
X150247308Y-87299200D01*
X150388292Y-87299200D01*
X150599109Y-87278436D01*
X150869608Y-87196382D01*
X151118901Y-87063132D01*
X151337408Y-86883808D01*
X151516732Y-86665301D01*
X151649982Y-86416008D01*
X151732036Y-86145509D01*
X151759743Y-85864200D01*
X154082857Y-85864200D01*
X154110564Y-86145509D01*
X154192618Y-86416008D01*
X154325868Y-86665301D01*
X154505192Y-86883808D01*
X154723699Y-87063132D01*
X154972992Y-87196382D01*
X155243491Y-87278436D01*
X155454308Y-87299200D01*
X155595292Y-87299200D01*
X155806109Y-87278436D01*
X156076608Y-87196382D01*
X156325901Y-87063132D01*
X156544408Y-86883808D01*
X156723732Y-86665301D01*
X156856982Y-86416008D01*
X156939036Y-86145509D01*
X156966743Y-85864200D01*
X156939036Y-85582891D01*
X156856982Y-85312392D01*
X156723732Y-85063099D01*
X156544408Y-84844592D01*
X156325901Y-84665268D01*
X156076608Y-84532018D01*
X155806109Y-84449964D01*
X155595292Y-84429200D01*
X155454308Y-84429200D01*
X155243491Y-84449964D01*
X154972992Y-84532018D01*
X154723699Y-84665268D01*
X154505192Y-84844592D01*
X154325868Y-85063099D01*
X154192618Y-85312392D01*
X154110564Y-85582891D01*
X154082857Y-85864200D01*
X151759743Y-85864200D01*
X151732036Y-85582891D01*
X151649982Y-85312392D01*
X151516732Y-85063099D01*
X151337408Y-84844592D01*
X151118901Y-84665268D01*
X150869608Y-84532018D01*
X150599109Y-84449964D01*
X150388292Y-84429200D01*
X150247308Y-84429200D01*
X150036491Y-84449964D01*
X149765992Y-84532018D01*
X149516699Y-84665268D01*
X149298192Y-84844592D01*
X149118868Y-85063099D01*
X148985618Y-85312392D01*
X148903564Y-85582891D01*
X148875857Y-85864200D01*
X148888464Y-85992200D01*
X146582676Y-85992200D01*
X146683734Y-85803133D01*
X146751493Y-85579759D01*
X146768640Y-85405666D01*
X146768640Y-84789253D01*
X146751493Y-84615160D01*
X146683734Y-84391786D01*
X146573698Y-84185924D01*
X146425615Y-84005485D01*
X146245175Y-83857402D01*
X146039313Y-83747366D01*
X145815939Y-83679607D01*
X145583640Y-83656727D01*
X145351340Y-83679607D01*
X145127966Y-83747366D01*
X144922104Y-83857402D01*
X144741665Y-84005485D01*
X144593582Y-84185925D01*
X144583640Y-84204525D01*
X144573698Y-84185924D01*
X144425615Y-84005485D01*
X144418640Y-83999761D01*
X144418640Y-77704227D01*
X150082382Y-72040486D01*
X150176465Y-72059200D01*
X150459135Y-72059200D01*
X150736374Y-72004053D01*
X150997527Y-71895880D01*
X151232559Y-71738837D01*
X151432437Y-71538959D01*
X151485730Y-71459200D01*
X154356870Y-71459200D01*
X154410163Y-71538959D01*
X154610041Y-71738837D01*
X154845073Y-71895880D01*
X155106226Y-72004053D01*
X155383465Y-72059200D01*
X155666135Y-72059200D01*
X155943374Y-72004053D01*
X156204527Y-71895880D01*
X156439559Y-71738837D01*
X156639437Y-71538959D01*
X156692730Y-71459200D01*
X159458782Y-71459200D01*
X159499800Y-71463240D01*
X159540818Y-71459200D01*
X159540819Y-71459200D01*
X159663489Y-71447118D01*
X159820887Y-71399372D01*
X159965946Y-71321836D01*
X160093091Y-71217491D01*
X160119246Y-71185622D01*
X161062801Y-70242068D01*
X175609801Y-84789069D01*
X175609800Y-93068653D01*
X175595760Y-93211202D01*
X175599801Y-93252230D01*
X175599800Y-96092181D01*
X175595760Y-96133200D01*
X175599800Y-96174218D01*
X175611882Y-96296888D01*
X175659628Y-96454286D01*
X175737164Y-96599345D01*
X175841509Y-96726491D01*
X175873378Y-96752646D01*
X177135363Y-98014632D01*
X177161509Y-98046491D01*
X177193368Y-98072637D01*
X177193370Y-98072639D01*
X177288654Y-98150836D01*
X177433713Y-98228372D01*
X177591111Y-98276118D01*
X177754800Y-98292240D01*
X177795818Y-98288200D01*
X183263782Y-98288200D01*
X183304800Y-98292240D01*
X183345818Y-98288200D01*
X183345819Y-98288200D01*
X183468489Y-98276118D01*
X183625887Y-98228372D01*
X183770946Y-98150836D01*
X183898091Y-98046491D01*
X183924246Y-98014621D01*
X185146226Y-96792642D01*
X185178091Y-96766491D01*
X185282436Y-96639346D01*
X185359972Y-96494287D01*
X185407718Y-96336889D01*
X185419800Y-96214219D01*
X185419800Y-96214209D01*
X185423839Y-96173201D01*
X185419800Y-96132193D01*
X185419800Y-96091287D01*
X185534282Y-96080012D01*
X185653980Y-96043702D01*
X185764294Y-95984737D01*
X185860985Y-95905385D01*
X185940337Y-95808694D01*
X185999302Y-95698380D01*
X186035612Y-95578682D01*
X186047872Y-95454200D01*
X186047872Y-93804200D01*
X186035612Y-93679718D01*
X185999302Y-93560020D01*
X185940337Y-93449706D01*
X185860985Y-93353015D01*
X185764294Y-93273663D01*
X185653980Y-93214698D01*
X185534282Y-93178388D01*
X185409800Y-93166128D01*
X185395657Y-93166128D01*
X185415746Y-93099751D01*
X184584800Y-92268805D01*
X183753854Y-93099751D01*
X183773943Y-93166128D01*
X183759800Y-93166128D01*
X183635318Y-93178388D01*
X183515620Y-93214698D01*
X183405306Y-93273663D01*
X183308615Y-93353015D01*
X183229263Y-93449706D01*
X183170298Y-93560020D01*
X183133988Y-93679718D01*
X183121728Y-93804200D01*
X183121728Y-95454200D01*
X183133988Y-95578682D01*
X183170298Y-95698380D01*
X183229263Y-95808694D01*
X183308615Y-95905385D01*
X183405306Y-95984737D01*
X183515620Y-96043702D01*
X183529285Y-96047847D01*
X182958933Y-96618200D01*
X178100669Y-96618200D01*
X177269800Y-95787333D01*
X177269800Y-94388167D01*
X179079800Y-94388167D01*
X179079800Y-94710233D01*
X179142632Y-95026112D01*
X179265882Y-95323663D01*
X179444813Y-95591452D01*
X179672548Y-95819187D01*
X179940337Y-95998118D01*
X180237888Y-96121368D01*
X180553767Y-96184200D01*
X180875833Y-96184200D01*
X181191712Y-96121368D01*
X181489263Y-95998118D01*
X181757052Y-95819187D01*
X181984787Y-95591452D01*
X182163718Y-95323663D01*
X182286968Y-95026112D01*
X182349800Y-94710233D01*
X182349800Y-94388167D01*
X182286968Y-94072288D01*
X182163718Y-93774737D01*
X181984787Y-93506948D01*
X181757052Y-93279213D01*
X181489263Y-93100282D01*
X181191712Y-92977032D01*
X180875833Y-92914200D01*
X180553767Y-92914200D01*
X180237888Y-92977032D01*
X179940337Y-93100282D01*
X179672548Y-93279213D01*
X179444813Y-93506948D01*
X179265882Y-93774737D01*
X179142632Y-94072288D01*
X179079800Y-94388167D01*
X177269800Y-94388167D01*
X177269800Y-93343752D01*
X177279800Y-93242221D01*
X177279800Y-93242220D01*
X177283840Y-93201203D01*
X177279800Y-93160184D01*
X177279800Y-92158721D01*
X183119383Y-92158721D01*
X183161103Y-92443274D01*
X183257535Y-92714220D01*
X183327727Y-92845537D01*
X183574249Y-92920146D01*
X184405195Y-92089200D01*
X184764405Y-92089200D01*
X185595351Y-92920146D01*
X185841873Y-92845537D01*
X185965273Y-92585761D01*
X186035623Y-92306903D01*
X186050217Y-92019679D01*
X186008497Y-91735126D01*
X185912065Y-91464180D01*
X185841873Y-91332863D01*
X185595351Y-91258254D01*
X184764405Y-92089200D01*
X184405195Y-92089200D01*
X183574249Y-91258254D01*
X183327727Y-91332863D01*
X183204327Y-91592639D01*
X183133977Y-91871497D01*
X183119383Y-92158721D01*
X177279800Y-92158721D01*
X177279800Y-84484218D01*
X177283840Y-84443199D01*
X177267718Y-84279511D01*
X177219972Y-84122113D01*
X177142436Y-83977054D01*
X177038091Y-83849909D01*
X177006227Y-83823759D01*
X174967871Y-81785403D01*
X183124800Y-81785403D01*
X183124800Y-82072997D01*
X183180907Y-82355066D01*
X183290965Y-82620769D01*
X183450744Y-82859896D01*
X183654104Y-83063256D01*
X183857559Y-83199200D01*
X183654104Y-83335144D01*
X183450744Y-83538504D01*
X183290965Y-83777631D01*
X183180907Y-84043334D01*
X183124800Y-84325403D01*
X183124800Y-84612997D01*
X183180907Y-84895066D01*
X183290965Y-85160769D01*
X183450744Y-85399896D01*
X183654104Y-85603256D01*
X183857559Y-85739200D01*
X183654104Y-85875144D01*
X183450744Y-86078504D01*
X183290965Y-86317631D01*
X183180907Y-86583334D01*
X183124800Y-86865403D01*
X183124800Y-87152997D01*
X183180907Y-87435066D01*
X183290965Y-87700769D01*
X183450744Y-87939896D01*
X183654104Y-88143256D01*
X183857559Y-88279200D01*
X183654104Y-88415144D01*
X183450744Y-88618504D01*
X183290965Y-88857631D01*
X183180907Y-89123334D01*
X183124800Y-89405403D01*
X183124800Y-89692997D01*
X183180907Y-89975066D01*
X183290965Y-90240769D01*
X183450744Y-90479896D01*
X183654104Y-90683256D01*
X183855376Y-90817741D01*
X183828463Y-90832127D01*
X183753854Y-91078649D01*
X184584800Y-91909595D01*
X185415746Y-91078649D01*
X185341137Y-90832127D01*
X185312823Y-90818677D01*
X185515496Y-90683256D01*
X185718856Y-90479896D01*
X185878635Y-90240769D01*
X185988693Y-89975066D01*
X186044800Y-89692997D01*
X186044800Y-89405403D01*
X185988693Y-89123334D01*
X185878635Y-88857631D01*
X185718856Y-88618504D01*
X185515496Y-88415144D01*
X185312041Y-88279200D01*
X185515496Y-88143256D01*
X185718856Y-87939896D01*
X185878635Y-87700769D01*
X185988693Y-87435066D01*
X186044800Y-87152997D01*
X186044800Y-86865403D01*
X185988693Y-86583334D01*
X185878635Y-86317631D01*
X185718856Y-86078504D01*
X185515496Y-85875144D01*
X185312041Y-85739200D01*
X185515496Y-85603256D01*
X185718856Y-85399896D01*
X185878635Y-85160769D01*
X185988693Y-84895066D01*
X186044800Y-84612997D01*
X186044800Y-84325403D01*
X185988693Y-84043334D01*
X185878635Y-83777631D01*
X185718856Y-83538504D01*
X185515496Y-83335144D01*
X185312041Y-83199200D01*
X185515496Y-83063256D01*
X185718856Y-82859896D01*
X185878635Y-82620769D01*
X185988693Y-82355066D01*
X186044800Y-82072997D01*
X186044800Y-81785403D01*
X185988693Y-81503334D01*
X185878635Y-81237631D01*
X185718856Y-80998504D01*
X185515496Y-80795144D01*
X185314224Y-80660659D01*
X185341137Y-80646273D01*
X185415746Y-80399751D01*
X184584800Y-79568805D01*
X183753854Y-80399751D01*
X183828463Y-80646273D01*
X183856777Y-80659723D01*
X183654104Y-80795144D01*
X183450744Y-80998504D01*
X183290965Y-81237631D01*
X183180907Y-81503334D01*
X183124800Y-81785403D01*
X174967871Y-81785403D01*
X172641189Y-79458721D01*
X183119383Y-79458721D01*
X183161103Y-79743274D01*
X183257535Y-80014220D01*
X183327727Y-80145537D01*
X183574249Y-80220146D01*
X184405195Y-79389200D01*
X184764405Y-79389200D01*
X185595351Y-80220146D01*
X185841873Y-80145537D01*
X185965273Y-79885761D01*
X186035623Y-79606903D01*
X186050217Y-79319679D01*
X186008497Y-79035126D01*
X185912065Y-78764180D01*
X185841873Y-78632863D01*
X185595351Y-78558254D01*
X184764405Y-79389200D01*
X184405195Y-79389200D01*
X183574249Y-78558254D01*
X183327727Y-78632863D01*
X183204327Y-78892639D01*
X183133977Y-79171497D01*
X183119383Y-79458721D01*
X172641189Y-79458721D01*
X171561117Y-78378649D01*
X183753854Y-78378649D01*
X184584800Y-79209595D01*
X185415746Y-78378649D01*
X185341137Y-78132127D01*
X185081361Y-78008727D01*
X184802503Y-77938377D01*
X184515279Y-77923783D01*
X184230726Y-77965503D01*
X183959780Y-78061935D01*
X183828463Y-78132127D01*
X183753854Y-78378649D01*
X171561117Y-78378649D01*
X161859800Y-68677333D01*
X161859800Y-67411855D01*
X161929282Y-67405012D01*
X162048980Y-67368702D01*
X162159294Y-67309737D01*
X162255985Y-67230385D01*
X162335337Y-67133694D01*
X162394302Y-67023380D01*
X162430612Y-66903682D01*
X162442872Y-66779200D01*
X162442872Y-65219200D01*
X162430612Y-65094718D01*
X162394302Y-64975020D01*
X162335337Y-64864706D01*
X162255985Y-64768015D01*
X162159294Y-64688663D01*
X162048980Y-64629698D01*
X161929282Y-64593388D01*
X161804800Y-64581128D01*
X160244800Y-64581128D01*
X160120318Y-64593388D01*
X160000620Y-64629698D01*
X159890306Y-64688663D01*
X159793615Y-64768015D01*
X159714263Y-64864706D01*
X159655298Y-64975020D01*
X159618988Y-65094718D01*
X159614269Y-65142636D01*
X159583903Y-65097190D01*
X159386810Y-64900097D01*
X159155054Y-64745243D01*
X158897540Y-64638577D01*
X158624165Y-64584200D01*
X158345435Y-64584200D01*
X158072060Y-64638577D01*
X157814546Y-64745243D01*
X157582790Y-64900097D01*
X157385697Y-65097190D01*
X157230843Y-65328946D01*
X157214800Y-65367677D01*
X157198757Y-65328946D01*
X157043903Y-65097190D01*
X156846810Y-64900097D01*
X156615054Y-64745243D01*
X156357540Y-64638577D01*
X156084165Y-64584200D01*
X155805435Y-64584200D01*
X155532060Y-64638577D01*
X155274546Y-64745243D01*
X155042790Y-64900097D01*
X154845697Y-65097190D01*
X154690843Y-65328946D01*
X154674800Y-65367677D01*
X154658757Y-65328946D01*
X154503903Y-65097190D01*
X154306810Y-64900097D01*
X154075054Y-64745243D01*
X153817540Y-64638577D01*
X153544165Y-64584200D01*
X153265435Y-64584200D01*
X152992060Y-64638577D01*
X152734546Y-64745243D01*
X152502790Y-64900097D01*
X152305697Y-65097190D01*
X152150843Y-65328946D01*
X152134800Y-65367677D01*
X152118757Y-65328946D01*
X151963903Y-65097190D01*
X151766810Y-64900097D01*
X151535054Y-64745243D01*
X151277540Y-64638577D01*
X151004165Y-64584200D01*
X150725435Y-64584200D01*
X150452060Y-64638577D01*
X150194546Y-64745243D01*
X149962790Y-64900097D01*
X149765697Y-65097190D01*
X149610843Y-65328946D01*
X149594800Y-65367677D01*
X149578757Y-65328946D01*
X149423903Y-65097190D01*
X149226810Y-64900097D01*
X148995054Y-64745243D01*
X148737540Y-64638577D01*
X148464165Y-64584200D01*
X148185435Y-64584200D01*
X147912060Y-64638577D01*
X147654546Y-64745243D01*
X147422790Y-64900097D01*
X147225697Y-65097190D01*
X147070843Y-65328946D01*
X147054800Y-65367677D01*
X147038757Y-65328946D01*
X146883903Y-65097190D01*
X146686810Y-64900097D01*
X146455054Y-64745243D01*
X146197540Y-64638577D01*
X145924165Y-64584200D01*
X145645435Y-64584200D01*
X145372060Y-64638577D01*
X145114546Y-64745243D01*
X144882790Y-64900097D01*
X144685697Y-65097190D01*
X144530843Y-65328946D01*
X144514800Y-65367677D01*
X144498757Y-65328946D01*
X144343903Y-65097190D01*
X144146810Y-64900097D01*
X143915054Y-64745243D01*
X143657540Y-64638577D01*
X143384165Y-64584200D01*
X143105435Y-64584200D01*
X142832060Y-64638577D01*
X142574546Y-64745243D01*
X142342790Y-64900097D01*
X142145697Y-65097190D01*
X141990843Y-65328946D01*
X141974800Y-65367677D01*
X141958757Y-65328946D01*
X141803903Y-65097190D01*
X141606810Y-64900097D01*
X141375054Y-64745243D01*
X141117540Y-64638577D01*
X140844165Y-64584200D01*
X140565435Y-64584200D01*
X140292060Y-64638577D01*
X140034546Y-64745243D01*
X139802790Y-64900097D01*
X139605697Y-65097190D01*
X139450843Y-65328946D01*
X139434800Y-65367677D01*
X139418757Y-65328946D01*
X139263903Y-65097190D01*
X139066810Y-64900097D01*
X138835054Y-64745243D01*
X138577540Y-64638577D01*
X138304165Y-64584200D01*
X138025435Y-64584200D01*
X137752060Y-64638577D01*
X137494546Y-64745243D01*
X137262790Y-64900097D01*
X137065697Y-65097190D01*
X136910843Y-65328946D01*
X136894800Y-65367677D01*
X136878757Y-65328946D01*
X136723903Y-65097190D01*
X136526810Y-64900097D01*
X136295054Y-64745243D01*
X136037540Y-64638577D01*
X135764165Y-64584200D01*
X135485435Y-64584200D01*
X135212060Y-64638577D01*
X134954546Y-64745243D01*
X134722790Y-64900097D01*
X134525697Y-65097190D01*
X134370843Y-65328946D01*
X134354800Y-65367677D01*
X134338757Y-65328946D01*
X134183903Y-65097190D01*
X133986810Y-64900097D01*
X133755054Y-64745243D01*
X133497540Y-64638577D01*
X133224165Y-64584200D01*
X132945435Y-64584200D01*
X132672060Y-64638577D01*
X132414546Y-64745243D01*
X132182790Y-64900097D01*
X131985697Y-65097190D01*
X131830843Y-65328946D01*
X131814800Y-65367677D01*
X131798757Y-65328946D01*
X131643903Y-65097190D01*
X131446810Y-64900097D01*
X131215054Y-64745243D01*
X130957540Y-64638577D01*
X130684165Y-64584200D01*
X130405435Y-64584200D01*
X130132060Y-64638577D01*
X129874546Y-64745243D01*
X129642790Y-64900097D01*
X129445697Y-65097190D01*
X129290843Y-65328946D01*
X129274800Y-65367677D01*
X129258757Y-65328946D01*
X129103903Y-65097190D01*
X128906810Y-64900097D01*
X128675054Y-64745243D01*
X128417540Y-64638577D01*
X128144165Y-64584200D01*
X127865435Y-64584200D01*
X127592060Y-64638577D01*
X127334546Y-64745243D01*
X127102790Y-64900097D01*
X126905697Y-65097190D01*
X126750843Y-65328946D01*
X126734800Y-65367677D01*
X126718757Y-65328946D01*
X126563903Y-65097190D01*
X126366810Y-64900097D01*
X126135054Y-64745243D01*
X125877540Y-64638577D01*
X125604165Y-64584200D01*
X125325435Y-64584200D01*
X125052060Y-64638577D01*
X124794546Y-64745243D01*
X124562790Y-64900097D01*
X124365697Y-65097190D01*
X124210843Y-65328946D01*
X124194800Y-65367677D01*
X124178757Y-65328946D01*
X124023903Y-65097190D01*
X123826810Y-64900097D01*
X123595054Y-64745243D01*
X123337540Y-64638577D01*
X123064165Y-64584200D01*
X122785435Y-64584200D01*
X122512060Y-64638577D01*
X122254546Y-64745243D01*
X122022790Y-64900097D01*
X121825697Y-65097190D01*
X121670843Y-65328946D01*
X121654800Y-65367677D01*
X121638757Y-65328946D01*
X121483903Y-65097190D01*
X121286810Y-64900097D01*
X121055054Y-64745243D01*
X120797540Y-64638577D01*
X120524165Y-64584200D01*
X120245435Y-64584200D01*
X119972060Y-64638577D01*
X119714546Y-64745243D01*
X119482790Y-64900097D01*
X119285697Y-65097190D01*
X119130843Y-65328946D01*
X119114800Y-65367677D01*
X119098757Y-65328946D01*
X118943903Y-65097190D01*
X118746810Y-64900097D01*
X118515054Y-64745243D01*
X118257540Y-64638577D01*
X117984165Y-64584200D01*
X117705435Y-64584200D01*
X117432060Y-64638577D01*
X117174546Y-64745243D01*
X116942790Y-64900097D01*
X116745697Y-65097190D01*
X116590843Y-65328946D01*
X116574800Y-65367677D01*
X116558757Y-65328946D01*
X116403903Y-65097190D01*
X116206810Y-64900097D01*
X115975054Y-64745243D01*
X115717540Y-64638577D01*
X115444165Y-64584200D01*
X115165435Y-64584200D01*
X114892060Y-64638577D01*
X114634546Y-64745243D01*
X114424800Y-64885390D01*
X114424800Y-62534983D01*
X114486599Y-62684179D01*
X114829686Y-63197646D01*
X115266354Y-63634314D01*
X115779821Y-63977401D01*
X116350354Y-64213724D01*
X116956029Y-64334200D01*
X117573571Y-64334200D01*
X118179246Y-64213724D01*
X118749779Y-63977401D01*
X119263246Y-63634314D01*
X119699914Y-63197646D01*
X120043001Y-62684179D01*
X120279324Y-62113646D01*
X120399800Y-61507971D01*
X120399800Y-60890429D01*
X120279324Y-60284754D01*
X120043001Y-59714221D01*
X119699914Y-59200754D01*
X119263246Y-58764086D01*
X118749779Y-58420999D01*
X118600583Y-58359200D01*
X156929017Y-58359200D01*
X156779821Y-58420999D01*
X156779821Y-58420999D01*
G37*
X156779821Y-58420999D02*
X156266354Y-58764086D01*
X155829686Y-59200754D01*
X155486599Y-59714221D01*
X155250276Y-60284754D01*
X155129800Y-60890429D01*
X155129800Y-61507971D01*
X155250276Y-62113646D01*
X155486599Y-62684179D01*
X155829686Y-63197646D01*
X156266354Y-63634314D01*
X156779821Y-63977401D01*
X157350354Y-64213724D01*
X157956029Y-64334200D01*
X158573571Y-64334200D01*
X159179246Y-64213724D01*
X159749779Y-63977401D01*
X160263246Y-63634314D01*
X160699914Y-63197646D01*
X161043001Y-62684179D01*
X161165613Y-62388167D01*
X162879800Y-62388167D01*
X162879800Y-62710233D01*
X162942632Y-63026112D01*
X163065882Y-63323663D01*
X163244813Y-63591452D01*
X163472548Y-63819187D01*
X163740337Y-63998118D01*
X164037888Y-64121368D01*
X164353767Y-64184200D01*
X164675833Y-64184200D01*
X164991712Y-64121368D01*
X165289263Y-63998118D01*
X165557052Y-63819187D01*
X165784787Y-63591452D01*
X165963718Y-63323663D01*
X166086968Y-63026112D01*
X166149800Y-62710233D01*
X166149800Y-62388167D01*
X166086968Y-62072288D01*
X165963718Y-61774737D01*
X165784787Y-61506948D01*
X165557052Y-61279213D01*
X165289263Y-61100282D01*
X164991712Y-60977032D01*
X164675833Y-60914200D01*
X164353767Y-60914200D01*
X164037888Y-60977032D01*
X163740337Y-61100282D01*
X163472548Y-61279213D01*
X163244813Y-61506948D01*
X163065882Y-61774737D01*
X162942632Y-62072288D01*
X162879800Y-62388167D01*
X161165613Y-62388167D01*
X161279324Y-62113646D01*
X161399800Y-61507971D01*
X161399800Y-60890429D01*
X161279324Y-60284754D01*
X161043001Y-59714221D01*
X160699914Y-59200754D01*
X160263246Y-58764086D01*
X159749779Y-58420999D01*
X159600583Y-58359200D01*
X183732521Y-58359200D01*
X184218693Y-58406870D01*
X184655298Y-58538689D01*
X185057985Y-58752800D01*
X185411412Y-59041048D01*
X185702127Y-59392461D01*
X185919042Y-59793639D01*
X186053906Y-60229313D01*
X186104800Y-60713544D01*
X186104801Y-96666911D01*
X186057130Y-97153094D01*
X185925312Y-97589697D01*
X185711199Y-97992386D01*
X185422950Y-98345813D01*
X185071539Y-98636527D01*
X184670364Y-98853440D01*
X184234686Y-98988306D01*
X183750464Y-99039200D01*
X159600583Y-99039200D01*
X159749779Y-98977401D01*
X160263246Y-98634314D01*
X160699914Y-98197646D01*
X161043001Y-97684179D01*
X161279324Y-97113646D01*
X161399800Y-96507971D01*
X161399800Y-95890429D01*
X161279324Y-95284754D01*
X161043001Y-94714221D01*
X160699914Y-94200754D01*
X160263246Y-93764086D01*
X159749779Y-93420999D01*
X159179246Y-93184676D01*
X158573571Y-93064200D01*
X157956029Y-93064200D01*
X157350354Y-93184676D01*
X156779821Y-93420999D01*
X156266354Y-93764086D01*
X155829686Y-94200754D01*
X155486599Y-94714221D01*
X155250276Y-95284754D01*
X155129800Y-95890429D01*
X155129800Y-96507971D01*
X155250276Y-97113646D01*
X155486599Y-97684179D01*
X155829686Y-98197646D01*
X156266354Y-98634314D01*
X156779821Y-98977401D01*
X156929017Y-99039200D01*
X118600583Y-99039200D01*
X118749779Y-98977401D01*
X119263246Y-98634314D01*
X119699914Y-98197646D01*
X120043001Y-97684179D01*
X120279324Y-97113646D01*
X120399800Y-96507971D01*
X120399800Y-95890429D01*
X120279324Y-95284754D01*
X120043001Y-94714221D01*
X119699914Y-94200754D01*
X119263246Y-93764086D01*
X118749779Y-93420999D01*
X118179246Y-93184676D01*
X117573571Y-93064200D01*
X116956029Y-93064200D01*
X116350354Y-93184676D01*
X115779821Y-93420999D01*
X115266354Y-93764086D01*
X114829686Y-94200754D01*
X114486599Y-94714221D01*
X114424800Y-94863417D01*
X114424800Y-92513010D01*
X114634546Y-92653157D01*
X114892060Y-92759823D01*
X115165435Y-92814200D01*
X115444165Y-92814200D01*
X115717540Y-92759823D01*
X115975054Y-92653157D01*
X116206810Y-92498303D01*
X116403903Y-92301210D01*
X116558757Y-92069454D01*
X116574800Y-92030723D01*
X116590843Y-92069454D01*
X116745697Y-92301210D01*
X116942790Y-92498303D01*
X117174546Y-92653157D01*
X117432060Y-92759823D01*
X117705435Y-92814200D01*
X117984165Y-92814200D01*
X118257540Y-92759823D01*
X118515054Y-92653157D01*
X118746810Y-92498303D01*
X118943903Y-92301210D01*
X119098757Y-92069454D01*
X119114800Y-92030723D01*
X119130843Y-92069454D01*
X119285697Y-92301210D01*
X119482790Y-92498303D01*
X119714546Y-92653157D01*
X119972060Y-92759823D01*
X120245435Y-92814200D01*
X120524165Y-92814200D01*
X120797540Y-92759823D01*
X121055054Y-92653157D01*
X121286810Y-92498303D01*
X121483903Y-92301210D01*
X121638757Y-92069454D01*
X121654800Y-92030723D01*
X121670843Y-92069454D01*
X121825697Y-92301210D01*
X122022790Y-92498303D01*
X122254546Y-92653157D01*
X122512060Y-92759823D01*
X122785435Y-92814200D01*
X123064165Y-92814200D01*
X123337540Y-92759823D01*
X123595054Y-92653157D01*
X123826810Y-92498303D01*
X124023903Y-92301210D01*
X124178757Y-92069454D01*
X124194800Y-92030723D01*
X124210843Y-92069454D01*
X124365697Y-92301210D01*
X124562790Y-92498303D01*
X124794546Y-92653157D01*
X125052060Y-92759823D01*
X125325435Y-92814200D01*
X125604165Y-92814200D01*
X125877540Y-92759823D01*
X126135054Y-92653157D01*
X126366810Y-92498303D01*
X126563903Y-92301210D01*
X126718757Y-92069454D01*
X126734800Y-92030723D01*
X126750843Y-92069454D01*
X126905697Y-92301210D01*
X127102790Y-92498303D01*
X127334546Y-92653157D01*
X127592060Y-92759823D01*
X127865435Y-92814200D01*
X128144165Y-92814200D01*
X128417540Y-92759823D01*
X128675054Y-92653157D01*
X128906810Y-92498303D01*
X129103903Y-92301210D01*
X129258757Y-92069454D01*
X129274800Y-92030723D01*
X129290843Y-92069454D01*
X129445697Y-92301210D01*
X129642790Y-92498303D01*
X129874546Y-92653157D01*
X130132060Y-92759823D01*
X130405435Y-92814200D01*
X130684165Y-92814200D01*
X130957540Y-92759823D01*
X131215054Y-92653157D01*
X131446810Y-92498303D01*
X131643903Y-92301210D01*
X131798757Y-92069454D01*
X131814800Y-92030723D01*
X131830843Y-92069454D01*
X131985697Y-92301210D01*
X132182790Y-92498303D01*
X132414546Y-92653157D01*
X132672060Y-92759823D01*
X132945435Y-92814200D01*
X133224165Y-92814200D01*
X133497540Y-92759823D01*
X133755054Y-92653157D01*
X133986810Y-92498303D01*
X134183903Y-92301210D01*
X134338757Y-92069454D01*
X134354800Y-92030723D01*
X134370843Y-92069454D01*
X134525697Y-92301210D01*
X134722790Y-92498303D01*
X134954546Y-92653157D01*
X135212060Y-92759823D01*
X135485435Y-92814200D01*
X135764165Y-92814200D01*
X136037540Y-92759823D01*
X136295054Y-92653157D01*
X136526810Y-92498303D01*
X136723903Y-92301210D01*
X136878757Y-92069454D01*
X136894800Y-92030723D01*
X136910843Y-92069454D01*
X137065697Y-92301210D01*
X137262790Y-92498303D01*
X137494546Y-92653157D01*
X137752060Y-92759823D01*
X138025435Y-92814200D01*
X138304165Y-92814200D01*
X138577540Y-92759823D01*
X138835054Y-92653157D01*
X139066810Y-92498303D01*
X139263903Y-92301210D01*
X139418757Y-92069454D01*
X139434800Y-92030723D01*
X139450843Y-92069454D01*
X139605697Y-92301210D01*
X139802790Y-92498303D01*
X140034546Y-92653157D01*
X140292060Y-92759823D01*
X140565435Y-92814200D01*
X140844165Y-92814200D01*
X141117540Y-92759823D01*
X141375054Y-92653157D01*
X141606810Y-92498303D01*
X141803903Y-92301210D01*
X141958757Y-92069454D01*
X141974800Y-92030723D01*
X141990843Y-92069454D01*
X142145697Y-92301210D01*
X142342790Y-92498303D01*
X142574546Y-92653157D01*
X142832060Y-92759823D01*
X143105435Y-92814200D01*
X143384165Y-92814200D01*
X143657540Y-92759823D01*
X143915054Y-92653157D01*
X144146810Y-92498303D01*
X144343903Y-92301210D01*
X144498757Y-92069454D01*
X144514800Y-92030723D01*
X144530843Y-92069454D01*
X144685697Y-92301210D01*
X144882790Y-92498303D01*
X145114546Y-92653157D01*
X145372060Y-92759823D01*
X145645435Y-92814200D01*
X145924165Y-92814200D01*
X146197540Y-92759823D01*
X146455054Y-92653157D01*
X146686810Y-92498303D01*
X146883903Y-92301210D01*
X147038757Y-92069454D01*
X147054800Y-92030723D01*
X147070843Y-92069454D01*
X147225697Y-92301210D01*
X147422790Y-92498303D01*
X147654546Y-92653157D01*
X147912060Y-92759823D01*
X148185435Y-92814200D01*
X148464165Y-92814200D01*
X148737540Y-92759823D01*
X148995054Y-92653157D01*
X149226810Y-92498303D01*
X149423903Y-92301210D01*
X149578757Y-92069454D01*
X149594800Y-92030723D01*
X149610843Y-92069454D01*
X149765697Y-92301210D01*
X149962790Y-92498303D01*
X150194546Y-92653157D01*
X150452060Y-92759823D01*
X150725435Y-92814200D01*
X151004165Y-92814200D01*
X151277540Y-92759823D01*
X151535054Y-92653157D01*
X151766810Y-92498303D01*
X151963903Y-92301210D01*
X152118757Y-92069454D01*
X152134800Y-92030723D01*
X152150843Y-92069454D01*
X152305697Y-92301210D01*
X152502790Y-92498303D01*
X152734546Y-92653157D01*
X152992060Y-92759823D01*
X153265435Y-92814200D01*
X153544165Y-92814200D01*
X153817540Y-92759823D01*
X154075054Y-92653157D01*
X154306810Y-92498303D01*
X154503903Y-92301210D01*
X154658757Y-92069454D01*
X154674800Y-92030723D01*
X154690843Y-92069454D01*
X154845697Y-92301210D01*
X155042790Y-92498303D01*
X155274546Y-92653157D01*
X155532060Y-92759823D01*
X155805435Y-92814200D01*
X156084165Y-92814200D01*
X156357540Y-92759823D01*
X156615054Y-92653157D01*
X156846810Y-92498303D01*
X157043903Y-92301210D01*
X157198757Y-92069454D01*
X157214800Y-92030723D01*
X157230843Y-92069454D01*
X157385697Y-92301210D01*
X157582790Y-92498303D01*
X157814546Y-92653157D01*
X158072060Y-92759823D01*
X158345435Y-92814200D01*
X158624165Y-92814200D01*
X158897540Y-92759823D01*
X159155054Y-92653157D01*
X159386810Y-92498303D01*
X159507492Y-92377621D01*
X160225984Y-92377621D01*
X160295145Y-92619549D01*
X160547243Y-92738448D01*
X160817694Y-92805881D01*
X161096103Y-92819257D01*
X161371772Y-92778060D01*
X161634108Y-92683875D01*
X161754455Y-92619549D01*
X161823616Y-92377621D01*
X161024800Y-91578805D01*
X160225984Y-92377621D01*
X159507492Y-92377621D01*
X159583903Y-92301210D01*
X159738757Y-92069454D01*
X159753577Y-92033675D01*
X159804451Y-92128855D01*
X160046379Y-92198016D01*
X160845195Y-91399200D01*
X161204405Y-91399200D01*
X162003221Y-92198016D01*
X162245149Y-92128855D01*
X162364048Y-91876757D01*
X162431481Y-91606306D01*
X162444857Y-91327897D01*
X162403660Y-91052228D01*
X162309475Y-90789892D01*
X162245149Y-90669545D01*
X162003221Y-90600384D01*
X161204405Y-91399200D01*
X160845195Y-91399200D01*
X160046379Y-90600384D01*
X159804451Y-90669545D01*
X159756375Y-90771479D01*
X159738757Y-90728946D01*
X159583903Y-90497190D01*
X159507492Y-90420779D01*
X160225984Y-90420779D01*
X161024800Y-91219595D01*
X161823616Y-90420779D01*
X161754455Y-90178851D01*
X161502357Y-90059952D01*
X161231906Y-89992519D01*
X160953497Y-89979143D01*
X160677828Y-90020340D01*
X160415492Y-90114525D01*
X160295145Y-90178851D01*
X160225984Y-90420779D01*
X159507492Y-90420779D01*
X159386810Y-90300097D01*
X159155054Y-90145243D01*
X158897540Y-90038577D01*
X158624165Y-89984200D01*
X158345435Y-89984200D01*
X158072060Y-90038577D01*
X157814546Y-90145243D01*
X157582790Y-90300097D01*
X157385697Y-90497190D01*
X157230843Y-90728946D01*
X157214800Y-90767677D01*
X157198757Y-90728946D01*
X157043903Y-90497190D01*
X156846810Y-90300097D01*
X156779800Y-90255322D01*
X156779800Y-89991207D01*
X156783839Y-89950199D01*
X156779800Y-89909191D01*
X156779800Y-89909181D01*
X156767718Y-89786511D01*
X156719972Y-89629113D01*
X156642436Y-89484054D01*
X156538091Y-89356909D01*
X156506226Y-89330758D01*
X155437247Y-88261780D01*
X155411092Y-88229910D01*
X155283947Y-88125565D01*
X155138888Y-88048029D01*
X154981490Y-88000283D01*
X154858820Y-87988201D01*
X154858819Y-87988201D01*
X154817801Y-87984161D01*
X154776783Y-87988201D01*
X133954670Y-87988201D01*
X132804245Y-86837777D01*
X132778090Y-86805908D01*
X132650945Y-86701563D01*
X132505886Y-86624027D01*
X132348488Y-86576281D01*
X132225818Y-86564199D01*
X132225817Y-86564199D01*
X132184799Y-86560159D01*
X132143781Y-86564199D01*
X124310667Y-86564199D01*
X122893358Y-85146891D01*
X122913766Y-85157799D01*
X123193689Y-85242713D01*
X123411850Y-85264200D01*
X123557750Y-85264200D01*
X123775911Y-85242713D01*
X124055834Y-85157799D01*
X124313814Y-85019906D01*
X124539934Y-84834334D01*
X124720593Y-84614200D01*
X133900841Y-84614200D01*
X133682541Y-84760063D01*
X133482663Y-84959941D01*
X133325620Y-85194973D01*
X133217447Y-85456126D01*
X133162300Y-85733365D01*
X133162300Y-86016035D01*
X133217447Y-86293274D01*
X133325620Y-86554427D01*
X133482663Y-86789459D01*
X133682541Y-86989337D01*
X133917573Y-87146380D01*
X134178726Y-87254553D01*
X134455965Y-87309700D01*
X134738635Y-87309700D01*
X135015874Y-87254553D01*
X135277027Y-87146380D01*
X135512059Y-86989337D01*
X135711937Y-86789459D01*
X135868980Y-86554427D01*
X135977153Y-86293274D01*
X136032300Y-86016035D01*
X136032300Y-85733365D01*
X136010996Y-85626264D01*
X137773363Y-87388632D01*
X137799509Y-87420491D01*
X137831368Y-87446637D01*
X137831370Y-87446639D01*
X137926654Y-87524836D01*
X138071713Y-87602372D01*
X138229111Y-87650118D01*
X138392800Y-87666240D01*
X138433818Y-87662200D01*
X149313782Y-87662200D01*
X149354800Y-87666240D01*
X149395818Y-87662200D01*
X149395819Y-87662200D01*
X149518489Y-87650118D01*
X149675887Y-87602372D01*
X149820946Y-87524836D01*
X149948091Y-87420491D01*
X149974245Y-87388622D01*
X150080133Y-87282734D01*
X150247308Y-87299200D01*
X150388292Y-87299200D01*
X150599109Y-87278436D01*
X150869608Y-87196382D01*
X151118901Y-87063132D01*
X151337408Y-86883808D01*
X151516732Y-86665301D01*
X151649982Y-86416008D01*
X151732036Y-86145509D01*
X151759743Y-85864200D01*
X154082857Y-85864200D01*
X154110564Y-86145509D01*
X154192618Y-86416008D01*
X154325868Y-86665301D01*
X154505192Y-86883808D01*
X154723699Y-87063132D01*
X154972992Y-87196382D01*
X155243491Y-87278436D01*
X155454308Y-87299200D01*
X155595292Y-87299200D01*
X155806109Y-87278436D01*
X156076608Y-87196382D01*
X156325901Y-87063132D01*
X156544408Y-86883808D01*
X156723732Y-86665301D01*
X156856982Y-86416008D01*
X156939036Y-86145509D01*
X156966743Y-85864200D01*
X156939036Y-85582891D01*
X156856982Y-85312392D01*
X156723732Y-85063099D01*
X156544408Y-84844592D01*
X156325901Y-84665268D01*
X156076608Y-84532018D01*
X155806109Y-84449964D01*
X155595292Y-84429200D01*
X155454308Y-84429200D01*
X155243491Y-84449964D01*
X154972992Y-84532018D01*
X154723699Y-84665268D01*
X154505192Y-84844592D01*
X154325868Y-85063099D01*
X154192618Y-85312392D01*
X154110564Y-85582891D01*
X154082857Y-85864200D01*
X151759743Y-85864200D01*
X151732036Y-85582891D01*
X151649982Y-85312392D01*
X151516732Y-85063099D01*
X151337408Y-84844592D01*
X151118901Y-84665268D01*
X150869608Y-84532018D01*
X150599109Y-84449964D01*
X150388292Y-84429200D01*
X150247308Y-84429200D01*
X150036491Y-84449964D01*
X149765992Y-84532018D01*
X149516699Y-84665268D01*
X149298192Y-84844592D01*
X149118868Y-85063099D01*
X148985618Y-85312392D01*
X148903564Y-85582891D01*
X148875857Y-85864200D01*
X148888464Y-85992200D01*
X146582676Y-85992200D01*
X146683734Y-85803133D01*
X146751493Y-85579759D01*
X146768640Y-85405666D01*
X146768640Y-84789253D01*
X146751493Y-84615160D01*
X146683734Y-84391786D01*
X146573698Y-84185924D01*
X146425615Y-84005485D01*
X146245175Y-83857402D01*
X146039313Y-83747366D01*
X145815939Y-83679607D01*
X145583640Y-83656727D01*
X145351340Y-83679607D01*
X145127966Y-83747366D01*
X144922104Y-83857402D01*
X144741665Y-84005485D01*
X144593582Y-84185925D01*
X144583640Y-84204525D01*
X144573698Y-84185924D01*
X144425615Y-84005485D01*
X144418640Y-83999761D01*
X144418640Y-77704227D01*
X150082382Y-72040486D01*
X150176465Y-72059200D01*
X150459135Y-72059200D01*
X150736374Y-72004053D01*
X150997527Y-71895880D01*
X151232559Y-71738837D01*
X151432437Y-71538959D01*
X151485730Y-71459200D01*
X154356870Y-71459200D01*
X154410163Y-71538959D01*
X154610041Y-71738837D01*
X154845073Y-71895880D01*
X155106226Y-72004053D01*
X155383465Y-72059200D01*
X155666135Y-72059200D01*
X155943374Y-72004053D01*
X156204527Y-71895880D01*
X156439559Y-71738837D01*
X156639437Y-71538959D01*
X156692730Y-71459200D01*
X159458782Y-71459200D01*
X159499800Y-71463240D01*
X159540818Y-71459200D01*
X159540819Y-71459200D01*
X159663489Y-71447118D01*
X159820887Y-71399372D01*
X159965946Y-71321836D01*
X160093091Y-71217491D01*
X160119246Y-71185622D01*
X161062801Y-70242068D01*
X175609801Y-84789069D01*
X175609800Y-93068653D01*
X175595760Y-93211202D01*
X175599801Y-93252230D01*
X175599800Y-96092181D01*
X175595760Y-96133200D01*
X175599800Y-96174218D01*
X175611882Y-96296888D01*
X175659628Y-96454286D01*
X175737164Y-96599345D01*
X175841509Y-96726491D01*
X175873378Y-96752646D01*
X177135363Y-98014632D01*
X177161509Y-98046491D01*
X177193368Y-98072637D01*
X177193370Y-98072639D01*
X177288654Y-98150836D01*
X177433713Y-98228372D01*
X177591111Y-98276118D01*
X177754800Y-98292240D01*
X177795818Y-98288200D01*
X183263782Y-98288200D01*
X183304800Y-98292240D01*
X183345818Y-98288200D01*
X183345819Y-98288200D01*
X183468489Y-98276118D01*
X183625887Y-98228372D01*
X183770946Y-98150836D01*
X183898091Y-98046491D01*
X183924246Y-98014621D01*
X185146226Y-96792642D01*
X185178091Y-96766491D01*
X185282436Y-96639346D01*
X185359972Y-96494287D01*
X185407718Y-96336889D01*
X185419800Y-96214219D01*
X185419800Y-96214209D01*
X185423839Y-96173201D01*
X185419800Y-96132193D01*
X185419800Y-96091287D01*
X185534282Y-96080012D01*
X185653980Y-96043702D01*
X185764294Y-95984737D01*
X185860985Y-95905385D01*
X185940337Y-95808694D01*
X185999302Y-95698380D01*
X186035612Y-95578682D01*
X186047872Y-95454200D01*
X186047872Y-93804200D01*
X186035612Y-93679718D01*
X185999302Y-93560020D01*
X185940337Y-93449706D01*
X185860985Y-93353015D01*
X185764294Y-93273663D01*
X185653980Y-93214698D01*
X185534282Y-93178388D01*
X185409800Y-93166128D01*
X185395657Y-93166128D01*
X185415746Y-93099751D01*
X184584800Y-92268805D01*
X183753854Y-93099751D01*
X183773943Y-93166128D01*
X183759800Y-93166128D01*
X183635318Y-93178388D01*
X183515620Y-93214698D01*
X183405306Y-93273663D01*
X183308615Y-93353015D01*
X183229263Y-93449706D01*
X183170298Y-93560020D01*
X183133988Y-93679718D01*
X183121728Y-93804200D01*
X183121728Y-95454200D01*
X183133988Y-95578682D01*
X183170298Y-95698380D01*
X183229263Y-95808694D01*
X183308615Y-95905385D01*
X183405306Y-95984737D01*
X183515620Y-96043702D01*
X183529285Y-96047847D01*
X182958933Y-96618200D01*
X178100669Y-96618200D01*
X177269800Y-95787333D01*
X177269800Y-94388167D01*
X179079800Y-94388167D01*
X179079800Y-94710233D01*
X179142632Y-95026112D01*
X179265882Y-95323663D01*
X179444813Y-95591452D01*
X179672548Y-95819187D01*
X179940337Y-95998118D01*
X180237888Y-96121368D01*
X180553767Y-96184200D01*
X180875833Y-96184200D01*
X181191712Y-96121368D01*
X181489263Y-95998118D01*
X181757052Y-95819187D01*
X181984787Y-95591452D01*
X182163718Y-95323663D01*
X182286968Y-95026112D01*
X182349800Y-94710233D01*
X182349800Y-94388167D01*
X182286968Y-94072288D01*
X182163718Y-93774737D01*
X181984787Y-93506948D01*
X181757052Y-93279213D01*
X181489263Y-93100282D01*
X181191712Y-92977032D01*
X180875833Y-92914200D01*
X180553767Y-92914200D01*
X180237888Y-92977032D01*
X179940337Y-93100282D01*
X179672548Y-93279213D01*
X179444813Y-93506948D01*
X179265882Y-93774737D01*
X179142632Y-94072288D01*
X179079800Y-94388167D01*
X177269800Y-94388167D01*
X177269800Y-93343752D01*
X177279800Y-93242221D01*
X177279800Y-93242220D01*
X177283840Y-93201203D01*
X177279800Y-93160184D01*
X177279800Y-92158721D01*
X183119383Y-92158721D01*
X183161103Y-92443274D01*
X183257535Y-92714220D01*
X183327727Y-92845537D01*
X183574249Y-92920146D01*
X184405195Y-92089200D01*
X184764405Y-92089200D01*
X185595351Y-92920146D01*
X185841873Y-92845537D01*
X185965273Y-92585761D01*
X186035623Y-92306903D01*
X186050217Y-92019679D01*
X186008497Y-91735126D01*
X185912065Y-91464180D01*
X185841873Y-91332863D01*
X185595351Y-91258254D01*
X184764405Y-92089200D01*
X184405195Y-92089200D01*
X183574249Y-91258254D01*
X183327727Y-91332863D01*
X183204327Y-91592639D01*
X183133977Y-91871497D01*
X183119383Y-92158721D01*
X177279800Y-92158721D01*
X177279800Y-84484218D01*
X177283840Y-84443199D01*
X177267718Y-84279511D01*
X177219972Y-84122113D01*
X177142436Y-83977054D01*
X177038091Y-83849909D01*
X177006227Y-83823759D01*
X174967871Y-81785403D01*
X183124800Y-81785403D01*
X183124800Y-82072997D01*
X183180907Y-82355066D01*
X183290965Y-82620769D01*
X183450744Y-82859896D01*
X183654104Y-83063256D01*
X183857559Y-83199200D01*
X183654104Y-83335144D01*
X183450744Y-83538504D01*
X183290965Y-83777631D01*
X183180907Y-84043334D01*
X183124800Y-84325403D01*
X183124800Y-84612997D01*
X183180907Y-84895066D01*
X183290965Y-85160769D01*
X183450744Y-85399896D01*
X183654104Y-85603256D01*
X183857559Y-85739200D01*
X183654104Y-85875144D01*
X183450744Y-86078504D01*
X183290965Y-86317631D01*
X183180907Y-86583334D01*
X183124800Y-86865403D01*
X183124800Y-87152997D01*
X183180907Y-87435066D01*
X183290965Y-87700769D01*
X183450744Y-87939896D01*
X183654104Y-88143256D01*
X183857559Y-88279200D01*
X183654104Y-88415144D01*
X183450744Y-88618504D01*
X183290965Y-88857631D01*
X183180907Y-89123334D01*
X183124800Y-89405403D01*
X183124800Y-89692997D01*
X183180907Y-89975066D01*
X183290965Y-90240769D01*
X183450744Y-90479896D01*
X183654104Y-90683256D01*
X183855376Y-90817741D01*
X183828463Y-90832127D01*
X183753854Y-91078649D01*
X184584800Y-91909595D01*
X185415746Y-91078649D01*
X185341137Y-90832127D01*
X185312823Y-90818677D01*
X185515496Y-90683256D01*
X185718856Y-90479896D01*
X185878635Y-90240769D01*
X185988693Y-89975066D01*
X186044800Y-89692997D01*
X186044800Y-89405403D01*
X185988693Y-89123334D01*
X185878635Y-88857631D01*
X185718856Y-88618504D01*
X185515496Y-88415144D01*
X185312041Y-88279200D01*
X185515496Y-88143256D01*
X185718856Y-87939896D01*
X185878635Y-87700769D01*
X185988693Y-87435066D01*
X186044800Y-87152997D01*
X186044800Y-86865403D01*
X185988693Y-86583334D01*
X185878635Y-86317631D01*
X185718856Y-86078504D01*
X185515496Y-85875144D01*
X185312041Y-85739200D01*
X185515496Y-85603256D01*
X185718856Y-85399896D01*
X185878635Y-85160769D01*
X185988693Y-84895066D01*
X186044800Y-84612997D01*
X186044800Y-84325403D01*
X185988693Y-84043334D01*
X185878635Y-83777631D01*
X185718856Y-83538504D01*
X185515496Y-83335144D01*
X185312041Y-83199200D01*
X185515496Y-83063256D01*
X185718856Y-82859896D01*
X185878635Y-82620769D01*
X185988693Y-82355066D01*
X186044800Y-82072997D01*
X186044800Y-81785403D01*
X185988693Y-81503334D01*
X185878635Y-81237631D01*
X185718856Y-80998504D01*
X185515496Y-80795144D01*
X185314224Y-80660659D01*
X185341137Y-80646273D01*
X185415746Y-80399751D01*
X184584800Y-79568805D01*
X183753854Y-80399751D01*
X183828463Y-80646273D01*
X183856777Y-80659723D01*
X183654104Y-80795144D01*
X183450744Y-80998504D01*
X183290965Y-81237631D01*
X183180907Y-81503334D01*
X183124800Y-81785403D01*
X174967871Y-81785403D01*
X172641189Y-79458721D01*
X183119383Y-79458721D01*
X183161103Y-79743274D01*
X183257535Y-80014220D01*
X183327727Y-80145537D01*
X183574249Y-80220146D01*
X184405195Y-79389200D01*
X184764405Y-79389200D01*
X185595351Y-80220146D01*
X185841873Y-80145537D01*
X185965273Y-79885761D01*
X186035623Y-79606903D01*
X186050217Y-79319679D01*
X186008497Y-79035126D01*
X185912065Y-78764180D01*
X185841873Y-78632863D01*
X185595351Y-78558254D01*
X184764405Y-79389200D01*
X184405195Y-79389200D01*
X183574249Y-78558254D01*
X183327727Y-78632863D01*
X183204327Y-78892639D01*
X183133977Y-79171497D01*
X183119383Y-79458721D01*
X172641189Y-79458721D01*
X171561117Y-78378649D01*
X183753854Y-78378649D01*
X184584800Y-79209595D01*
X185415746Y-78378649D01*
X185341137Y-78132127D01*
X185081361Y-78008727D01*
X184802503Y-77938377D01*
X184515279Y-77923783D01*
X184230726Y-77965503D01*
X183959780Y-78061935D01*
X183828463Y-78132127D01*
X183753854Y-78378649D01*
X171561117Y-78378649D01*
X161859800Y-68677333D01*
X161859800Y-67411855D01*
X161929282Y-67405012D01*
X162048980Y-67368702D01*
X162159294Y-67309737D01*
X162255985Y-67230385D01*
X162335337Y-67133694D01*
X162394302Y-67023380D01*
X162430612Y-66903682D01*
X162442872Y-66779200D01*
X162442872Y-65219200D01*
X162430612Y-65094718D01*
X162394302Y-64975020D01*
X162335337Y-64864706D01*
X162255985Y-64768015D01*
X162159294Y-64688663D01*
X162048980Y-64629698D01*
X161929282Y-64593388D01*
X161804800Y-64581128D01*
X160244800Y-64581128D01*
X160120318Y-64593388D01*
X160000620Y-64629698D01*
X159890306Y-64688663D01*
X159793615Y-64768015D01*
X159714263Y-64864706D01*
X159655298Y-64975020D01*
X159618988Y-65094718D01*
X159614269Y-65142636D01*
X159583903Y-65097190D01*
X159386810Y-64900097D01*
X159155054Y-64745243D01*
X158897540Y-64638577D01*
X158624165Y-64584200D01*
X158345435Y-64584200D01*
X158072060Y-64638577D01*
X157814546Y-64745243D01*
X157582790Y-64900097D01*
X157385697Y-65097190D01*
X157230843Y-65328946D01*
X157214800Y-65367677D01*
X157198757Y-65328946D01*
X157043903Y-65097190D01*
X156846810Y-64900097D01*
X156615054Y-64745243D01*
X156357540Y-64638577D01*
X156084165Y-64584200D01*
X155805435Y-64584200D01*
X155532060Y-64638577D01*
X155274546Y-64745243D01*
X155042790Y-64900097D01*
X154845697Y-65097190D01*
X154690843Y-65328946D01*
X154674800Y-65367677D01*
X154658757Y-65328946D01*
X154503903Y-65097190D01*
X154306810Y-64900097D01*
X154075054Y-64745243D01*
X153817540Y-64638577D01*
X153544165Y-64584200D01*
X153265435Y-64584200D01*
X152992060Y-64638577D01*
X152734546Y-64745243D01*
X152502790Y-64900097D01*
X152305697Y-65097190D01*
X152150843Y-65328946D01*
X152134800Y-65367677D01*
X152118757Y-65328946D01*
X151963903Y-65097190D01*
X151766810Y-64900097D01*
X151535054Y-64745243D01*
X151277540Y-64638577D01*
X151004165Y-64584200D01*
X150725435Y-64584200D01*
X150452060Y-64638577D01*
X150194546Y-64745243D01*
X149962790Y-64900097D01*
X149765697Y-65097190D01*
X149610843Y-65328946D01*
X149594800Y-65367677D01*
X149578757Y-65328946D01*
X149423903Y-65097190D01*
X149226810Y-64900097D01*
X148995054Y-64745243D01*
X148737540Y-64638577D01*
X148464165Y-64584200D01*
X148185435Y-64584200D01*
X147912060Y-64638577D01*
X147654546Y-64745243D01*
X147422790Y-64900097D01*
X147225697Y-65097190D01*
X147070843Y-65328946D01*
X147054800Y-65367677D01*
X147038757Y-65328946D01*
X146883903Y-65097190D01*
X146686810Y-64900097D01*
X146455054Y-64745243D01*
X146197540Y-64638577D01*
X145924165Y-64584200D01*
X145645435Y-64584200D01*
X145372060Y-64638577D01*
X145114546Y-64745243D01*
X144882790Y-64900097D01*
X144685697Y-65097190D01*
X144530843Y-65328946D01*
X144514800Y-65367677D01*
X144498757Y-65328946D01*
X144343903Y-65097190D01*
X144146810Y-64900097D01*
X143915054Y-64745243D01*
X143657540Y-64638577D01*
X143384165Y-64584200D01*
X143105435Y-64584200D01*
X142832060Y-64638577D01*
X142574546Y-64745243D01*
X142342790Y-64900097D01*
X142145697Y-65097190D01*
X141990843Y-65328946D01*
X141974800Y-65367677D01*
X141958757Y-65328946D01*
X141803903Y-65097190D01*
X141606810Y-64900097D01*
X141375054Y-64745243D01*
X141117540Y-64638577D01*
X140844165Y-64584200D01*
X140565435Y-64584200D01*
X140292060Y-64638577D01*
X140034546Y-64745243D01*
X139802790Y-64900097D01*
X139605697Y-65097190D01*
X139450843Y-65328946D01*
X139434800Y-65367677D01*
X139418757Y-65328946D01*
X139263903Y-65097190D01*
X139066810Y-64900097D01*
X138835054Y-64745243D01*
X138577540Y-64638577D01*
X138304165Y-64584200D01*
X138025435Y-64584200D01*
X137752060Y-64638577D01*
X137494546Y-64745243D01*
X137262790Y-64900097D01*
X137065697Y-65097190D01*
X136910843Y-65328946D01*
X136894800Y-65367677D01*
X136878757Y-65328946D01*
X136723903Y-65097190D01*
X136526810Y-64900097D01*
X136295054Y-64745243D01*
X136037540Y-64638577D01*
X135764165Y-64584200D01*
X135485435Y-64584200D01*
X135212060Y-64638577D01*
X134954546Y-64745243D01*
X134722790Y-64900097D01*
X134525697Y-65097190D01*
X134370843Y-65328946D01*
X134354800Y-65367677D01*
X134338757Y-65328946D01*
X134183903Y-65097190D01*
X133986810Y-64900097D01*
X133755054Y-64745243D01*
X133497540Y-64638577D01*
X133224165Y-64584200D01*
X132945435Y-64584200D01*
X132672060Y-64638577D01*
X132414546Y-64745243D01*
X132182790Y-64900097D01*
X131985697Y-65097190D01*
X131830843Y-65328946D01*
X131814800Y-65367677D01*
X131798757Y-65328946D01*
X131643903Y-65097190D01*
X131446810Y-64900097D01*
X131215054Y-64745243D01*
X130957540Y-64638577D01*
X130684165Y-64584200D01*
X130405435Y-64584200D01*
X130132060Y-64638577D01*
X129874546Y-64745243D01*
X129642790Y-64900097D01*
X129445697Y-65097190D01*
X129290843Y-65328946D01*
X129274800Y-65367677D01*
X129258757Y-65328946D01*
X129103903Y-65097190D01*
X128906810Y-64900097D01*
X128675054Y-64745243D01*
X128417540Y-64638577D01*
X128144165Y-64584200D01*
X127865435Y-64584200D01*
X127592060Y-64638577D01*
X127334546Y-64745243D01*
X127102790Y-64900097D01*
X126905697Y-65097190D01*
X126750843Y-65328946D01*
X126734800Y-65367677D01*
X126718757Y-65328946D01*
X126563903Y-65097190D01*
X126366810Y-64900097D01*
X126135054Y-64745243D01*
X125877540Y-64638577D01*
X125604165Y-64584200D01*
X125325435Y-64584200D01*
X125052060Y-64638577D01*
X124794546Y-64745243D01*
X124562790Y-64900097D01*
X124365697Y-65097190D01*
X124210843Y-65328946D01*
X124194800Y-65367677D01*
X124178757Y-65328946D01*
X124023903Y-65097190D01*
X123826810Y-64900097D01*
X123595054Y-64745243D01*
X123337540Y-64638577D01*
X123064165Y-64584200D01*
X122785435Y-64584200D01*
X122512060Y-64638577D01*
X122254546Y-64745243D01*
X122022790Y-64900097D01*
X121825697Y-65097190D01*
X121670843Y-65328946D01*
X121654800Y-65367677D01*
X121638757Y-65328946D01*
X121483903Y-65097190D01*
X121286810Y-64900097D01*
X121055054Y-64745243D01*
X120797540Y-64638577D01*
X120524165Y-64584200D01*
X120245435Y-64584200D01*
X119972060Y-64638577D01*
X119714546Y-64745243D01*
X119482790Y-64900097D01*
X119285697Y-65097190D01*
X119130843Y-65328946D01*
X119114800Y-65367677D01*
X119098757Y-65328946D01*
X118943903Y-65097190D01*
X118746810Y-64900097D01*
X118515054Y-64745243D01*
X118257540Y-64638577D01*
X117984165Y-64584200D01*
X117705435Y-64584200D01*
X117432060Y-64638577D01*
X117174546Y-64745243D01*
X116942790Y-64900097D01*
X116745697Y-65097190D01*
X116590843Y-65328946D01*
X116574800Y-65367677D01*
X116558757Y-65328946D01*
X116403903Y-65097190D01*
X116206810Y-64900097D01*
X115975054Y-64745243D01*
X115717540Y-64638577D01*
X115444165Y-64584200D01*
X115165435Y-64584200D01*
X114892060Y-64638577D01*
X114634546Y-64745243D01*
X114424800Y-64885390D01*
X114424800Y-62534983D01*
X114486599Y-62684179D01*
X114829686Y-63197646D01*
X115266354Y-63634314D01*
X115779821Y-63977401D01*
X116350354Y-64213724D01*
X116956029Y-64334200D01*
X117573571Y-64334200D01*
X118179246Y-64213724D01*
X118749779Y-63977401D01*
X119263246Y-63634314D01*
X119699914Y-63197646D01*
X120043001Y-62684179D01*
X120279324Y-62113646D01*
X120399800Y-61507971D01*
X120399800Y-60890429D01*
X120279324Y-60284754D01*
X120043001Y-59714221D01*
X119699914Y-59200754D01*
X119263246Y-58764086D01*
X118749779Y-58420999D01*
X118600583Y-58359200D01*
X156929017Y-58359200D01*
X156779821Y-58420999D01*
G36*
X157230843Y-66669454D02*
G01*
X157385697Y-66901210D01*
X157582790Y-67098303D01*
X157814546Y-67253157D01*
X158072060Y-67359823D01*
X158345435Y-67414200D01*
X158624165Y-67414200D01*
X158897540Y-67359823D01*
X159155054Y-67253157D01*
X159386810Y-67098303D01*
X159583903Y-66901210D01*
X159614269Y-66855764D01*
X159618988Y-66903682D01*
X159655298Y-67023380D01*
X159714263Y-67133694D01*
X159793615Y-67230385D01*
X159890306Y-67309737D01*
X160000620Y-67368702D01*
X160120318Y-67405012D01*
X160189801Y-67411855D01*
X160189801Y-67540218D01*
X160189800Y-68753331D01*
X159153933Y-69789200D01*
X156692730Y-69789200D01*
X156639437Y-69709441D01*
X156439559Y-69509563D01*
X156204527Y-69352520D01*
X155943374Y-69244347D01*
X155666135Y-69189200D01*
X155383465Y-69189200D01*
X155106226Y-69244347D01*
X154845073Y-69352520D01*
X154610041Y-69509563D01*
X154410163Y-69709441D01*
X154356870Y-69789200D01*
X151485730Y-69789200D01*
X151432437Y-69709441D01*
X151232559Y-69509563D01*
X150997527Y-69352520D01*
X150736374Y-69244347D01*
X150459135Y-69189200D01*
X150176465Y-69189200D01*
X149899226Y-69244347D01*
X149638073Y-69352520D01*
X149403041Y-69509563D01*
X149203163Y-69709441D01*
X149149870Y-69789200D01*
X142268818Y-69789200D01*
X142227800Y-69785160D01*
X142186782Y-69789200D01*
X142186781Y-69789200D01*
X142064111Y-69801282D01*
X141957576Y-69833599D01*
X141906713Y-69849028D01*
X141761654Y-69926564D01*
X141674134Y-69998390D01*
X141634509Y-70030909D01*
X141608363Y-70062768D01*
X138886933Y-72784200D01*
X124972872Y-72784200D01*
X124972872Y-72769200D01*
X124960612Y-72644718D01*
X124924302Y-72525020D01*
X124865337Y-72414706D01*
X124785985Y-72318015D01*
X124689294Y-72238663D01*
X124578980Y-72179698D01*
X124459282Y-72143388D01*
X124334800Y-72131128D01*
X122634800Y-72131128D01*
X122510318Y-72143388D01*
X122390620Y-72179698D01*
X122280306Y-72238663D01*
X122183615Y-72318015D01*
X122104263Y-72414706D01*
X122045298Y-72525020D01*
X122008988Y-72644718D01*
X121996728Y-72769200D01*
X121996728Y-74469200D01*
X122008988Y-74593682D01*
X122045298Y-74713380D01*
X122104263Y-74823694D01*
X122183615Y-74920385D01*
X122280306Y-74999737D01*
X122390620Y-75058702D01*
X122459487Y-75079593D01*
X122429666Y-75104066D01*
X122249007Y-75324200D01*
X121845818Y-75324200D01*
X121804800Y-75320160D01*
X121763781Y-75324200D01*
X121641111Y-75336282D01*
X121483713Y-75384028D01*
X121338654Y-75461564D01*
X121211509Y-75565909D01*
X121185363Y-75597768D01*
X119703374Y-77079759D01*
X119671510Y-77105909D01*
X119645362Y-77137771D01*
X119567164Y-77233055D01*
X119489628Y-77378114D01*
X119441882Y-77535512D01*
X119425760Y-77699200D01*
X119429801Y-77740228D01*
X119429800Y-85055095D01*
X119425760Y-85096114D01*
X119432128Y-85160769D01*
X119441882Y-85259802D01*
X119489628Y-85417200D01*
X119567164Y-85562259D01*
X119671509Y-85689405D01*
X119703379Y-85715560D01*
X124425352Y-90437535D01*
X124365697Y-90497190D01*
X124210843Y-90728946D01*
X124194800Y-90767677D01*
X124178757Y-90728946D01*
X124023903Y-90497190D01*
X123826810Y-90300097D01*
X123595054Y-90145243D01*
X123337540Y-90038577D01*
X123064165Y-89984200D01*
X122785435Y-89984200D01*
X122512060Y-90038577D01*
X122254546Y-90145243D01*
X122022790Y-90300097D01*
X121825697Y-90497190D01*
X121670843Y-90728946D01*
X121654800Y-90767677D01*
X121638757Y-90728946D01*
X121483903Y-90497190D01*
X121286810Y-90300097D01*
X121055054Y-90145243D01*
X120797540Y-90038577D01*
X120524165Y-89984200D01*
X120245435Y-89984200D01*
X119972060Y-90038577D01*
X119714546Y-90145243D01*
X119482790Y-90300097D01*
X119285697Y-90497190D01*
X119130843Y-90728946D01*
X119114800Y-90767677D01*
X119098757Y-90728946D01*
X118943903Y-90497190D01*
X118746810Y-90300097D01*
X118515054Y-90145243D01*
X118257540Y-90038577D01*
X117984165Y-89984200D01*
X117705435Y-89984200D01*
X117432060Y-90038577D01*
X117174546Y-90145243D01*
X116942790Y-90300097D01*
X116745697Y-90497190D01*
X116590843Y-90728946D01*
X116574800Y-90767677D01*
X116558757Y-90728946D01*
X116403903Y-90497190D01*
X116206810Y-90300097D01*
X115975054Y-90145243D01*
X115717540Y-90038577D01*
X115444165Y-89984200D01*
X115165435Y-89984200D01*
X114892060Y-90038577D01*
X114634546Y-90145243D01*
X114424800Y-90285390D01*
X114424800Y-67113010D01*
X114634546Y-67253157D01*
X114892060Y-67359823D01*
X115165435Y-67414200D01*
X115444165Y-67414200D01*
X115717540Y-67359823D01*
X115975054Y-67253157D01*
X116206810Y-67098303D01*
X116403903Y-66901210D01*
X116558757Y-66669454D01*
X116574800Y-66630723D01*
X116590843Y-66669454D01*
X116745697Y-66901210D01*
X116942790Y-67098303D01*
X117174546Y-67253157D01*
X117432060Y-67359823D01*
X117705435Y-67414200D01*
X117984165Y-67414200D01*
X118257540Y-67359823D01*
X118515054Y-67253157D01*
X118746810Y-67098303D01*
X118943903Y-66901210D01*
X119098757Y-66669454D01*
X119114800Y-66630723D01*
X119130843Y-66669454D01*
X119285697Y-66901210D01*
X119482790Y-67098303D01*
X119714546Y-67253157D01*
X119972060Y-67359823D01*
X120245435Y-67414200D01*
X120524165Y-67414200D01*
X120797540Y-67359823D01*
X121055054Y-67253157D01*
X121286810Y-67098303D01*
X121483903Y-66901210D01*
X121638757Y-66669454D01*
X121654800Y-66630723D01*
X121670843Y-66669454D01*
X121825697Y-66901210D01*
X122022790Y-67098303D01*
X122254546Y-67253157D01*
X122512060Y-67359823D01*
X122785435Y-67414200D01*
X123064165Y-67414200D01*
X123337540Y-67359823D01*
X123595054Y-67253157D01*
X123826810Y-67098303D01*
X124023903Y-66901210D01*
X124178757Y-66669454D01*
X124194800Y-66630723D01*
X124210843Y-66669454D01*
X124365697Y-66901210D01*
X124562790Y-67098303D01*
X124794546Y-67253157D01*
X125052060Y-67359823D01*
X125325435Y-67414200D01*
X125604165Y-67414200D01*
X125877540Y-67359823D01*
X126135054Y-67253157D01*
X126366810Y-67098303D01*
X126563903Y-66901210D01*
X126718757Y-66669454D01*
X126734800Y-66630723D01*
X126750843Y-66669454D01*
X126905697Y-66901210D01*
X127102790Y-67098303D01*
X127334546Y-67253157D01*
X127592060Y-67359823D01*
X127865435Y-67414200D01*
X128144165Y-67414200D01*
X128417540Y-67359823D01*
X128675054Y-67253157D01*
X128906810Y-67098303D01*
X129103903Y-66901210D01*
X129258757Y-66669454D01*
X129274800Y-66630723D01*
X129290843Y-66669454D01*
X129445697Y-66901210D01*
X129642790Y-67098303D01*
X129874546Y-67253157D01*
X130132060Y-67359823D01*
X130405435Y-67414200D01*
X130684165Y-67414200D01*
X130957540Y-67359823D01*
X131215054Y-67253157D01*
X131446810Y-67098303D01*
X131643903Y-66901210D01*
X131798757Y-66669454D01*
X131814800Y-66630723D01*
X131830843Y-66669454D01*
X131985697Y-66901210D01*
X132182790Y-67098303D01*
X132414546Y-67253157D01*
X132672060Y-67359823D01*
X132945435Y-67414200D01*
X133224165Y-67414200D01*
X133497540Y-67359823D01*
X133755054Y-67253157D01*
X133986810Y-67098303D01*
X134183903Y-66901210D01*
X134338757Y-66669454D01*
X134354800Y-66630723D01*
X134370843Y-66669454D01*
X134525697Y-66901210D01*
X134722790Y-67098303D01*
X134954546Y-67253157D01*
X135212060Y-67359823D01*
X135485435Y-67414200D01*
X135764165Y-67414200D01*
X136037540Y-67359823D01*
X136295054Y-67253157D01*
X136526810Y-67098303D01*
X136723903Y-66901210D01*
X136878757Y-66669454D01*
X136894800Y-66630723D01*
X136910843Y-66669454D01*
X137065697Y-66901210D01*
X137262790Y-67098303D01*
X137494546Y-67253157D01*
X137752060Y-67359823D01*
X138025435Y-67414200D01*
X138304165Y-67414200D01*
X138577540Y-67359823D01*
X138835054Y-67253157D01*
X139066810Y-67098303D01*
X139263903Y-66901210D01*
X139418757Y-66669454D01*
X139434800Y-66630723D01*
X139450843Y-66669454D01*
X139605697Y-66901210D01*
X139802790Y-67098303D01*
X140034546Y-67253157D01*
X140292060Y-67359823D01*
X140565435Y-67414200D01*
X140844165Y-67414200D01*
X141117540Y-67359823D01*
X141375054Y-67253157D01*
X141606810Y-67098303D01*
X141629801Y-67075312D01*
X141629801Y-67153330D01*
X139783432Y-68999701D01*
X135438306Y-68999701D01*
X135397298Y-68995662D01*
X135356290Y-68999701D01*
X135356280Y-68999701D01*
X135233610Y-69011783D01*
X135076212Y-69059529D01*
X134931153Y-69137065D01*
X134834790Y-69216148D01*
X134667792Y-69199700D01*
X134526808Y-69199700D01*
X134315991Y-69220464D01*
X134045492Y-69302518D01*
X133796199Y-69435768D01*
X133577692Y-69615092D01*
X133398368Y-69833599D01*
X133265118Y-70082892D01*
X133183064Y-70353391D01*
X133155357Y-70634700D01*
X133183064Y-70916009D01*
X133265118Y-71186508D01*
X133398368Y-71435801D01*
X133577692Y-71654308D01*
X133796199Y-71833632D01*
X134045492Y-71966882D01*
X134315991Y-72048936D01*
X134526808Y-72069700D01*
X134667792Y-72069700D01*
X134878609Y-72048936D01*
X135149108Y-71966882D01*
X135398401Y-71833632D01*
X135616908Y-71654308D01*
X135796232Y-71435801D01*
X135929482Y-71186508D01*
X136011536Y-70916009D01*
X136035796Y-70669701D01*
X140088281Y-70669701D01*
X140129299Y-70673741D01*
X140170317Y-70669701D01*
X140170318Y-70669701D01*
X140292988Y-70657619D01*
X140450386Y-70609873D01*
X140595445Y-70532337D01*
X140722590Y-70427992D01*
X140748745Y-70396122D01*
X143026233Y-68118636D01*
X143058092Y-68092490D01*
X143162437Y-67965345D01*
X143239973Y-67820286D01*
X143287719Y-67662888D01*
X143299801Y-67540218D01*
X143299801Y-67540217D01*
X143303841Y-67499199D01*
X143299801Y-67458181D01*
X143299801Y-67414200D01*
X143384165Y-67414200D01*
X143657540Y-67359823D01*
X143915054Y-67253157D01*
X144146810Y-67098303D01*
X144343903Y-66901210D01*
X144498757Y-66669454D01*
X144514800Y-66630723D01*
X144530843Y-66669454D01*
X144685697Y-66901210D01*
X144882790Y-67098303D01*
X145114546Y-67253157D01*
X145372060Y-67359823D01*
X145645435Y-67414200D01*
X145924165Y-67414200D01*
X146197540Y-67359823D01*
X146455054Y-67253157D01*
X146686810Y-67098303D01*
X146883903Y-66901210D01*
X147038757Y-66669454D01*
X147054800Y-66630723D01*
X147070843Y-66669454D01*
X147225697Y-66901210D01*
X147422790Y-67098303D01*
X147654546Y-67253157D01*
X147912060Y-67359823D01*
X148185435Y-67414200D01*
X148464165Y-67414200D01*
X148737540Y-67359823D01*
X148995054Y-67253157D01*
X149226810Y-67098303D01*
X149423903Y-66901210D01*
X149578757Y-66669454D01*
X149594800Y-66630723D01*
X149610843Y-66669454D01*
X149765697Y-66901210D01*
X149962790Y-67098303D01*
X150194546Y-67253157D01*
X150452060Y-67359823D01*
X150725435Y-67414200D01*
X151004165Y-67414200D01*
X151277540Y-67359823D01*
X151535054Y-67253157D01*
X151766810Y-67098303D01*
X151963903Y-66901210D01*
X152118757Y-66669454D01*
X152134800Y-66630723D01*
X152150843Y-66669454D01*
X152305697Y-66901210D01*
X152502790Y-67098303D01*
X152734546Y-67253157D01*
X152992060Y-67359823D01*
X153265435Y-67414200D01*
X153544165Y-67414200D01*
X153817540Y-67359823D01*
X154075054Y-67253157D01*
X154306810Y-67098303D01*
X154503903Y-66901210D01*
X154658757Y-66669454D01*
X154674800Y-66630723D01*
X154690843Y-66669454D01*
X154845697Y-66901210D01*
X155042790Y-67098303D01*
X155274546Y-67253157D01*
X155532060Y-67359823D01*
X155805435Y-67414200D01*
X156084165Y-67414200D01*
X156357540Y-67359823D01*
X156615054Y-67253157D01*
X156846810Y-67098303D01*
X157043903Y-66901210D01*
X157198757Y-66669454D01*
X157214800Y-66630723D01*
X157230843Y-66669454D01*
X157230843Y-66669454D01*
G37*
X157230843Y-66669454D02*
X157385697Y-66901210D01*
X157582790Y-67098303D01*
X157814546Y-67253157D01*
X158072060Y-67359823D01*
X158345435Y-67414200D01*
X158624165Y-67414200D01*
X158897540Y-67359823D01*
X159155054Y-67253157D01*
X159386810Y-67098303D01*
X159583903Y-66901210D01*
X159614269Y-66855764D01*
X159618988Y-66903682D01*
X159655298Y-67023380D01*
X159714263Y-67133694D01*
X159793615Y-67230385D01*
X159890306Y-67309737D01*
X160000620Y-67368702D01*
X160120318Y-67405012D01*
X160189801Y-67411855D01*
X160189801Y-67540218D01*
X160189800Y-68753331D01*
X159153933Y-69789200D01*
X156692730Y-69789200D01*
X156639437Y-69709441D01*
X156439559Y-69509563D01*
X156204527Y-69352520D01*
X155943374Y-69244347D01*
X155666135Y-69189200D01*
X155383465Y-69189200D01*
X155106226Y-69244347D01*
X154845073Y-69352520D01*
X154610041Y-69509563D01*
X154410163Y-69709441D01*
X154356870Y-69789200D01*
X151485730Y-69789200D01*
X151432437Y-69709441D01*
X151232559Y-69509563D01*
X150997527Y-69352520D01*
X150736374Y-69244347D01*
X150459135Y-69189200D01*
X150176465Y-69189200D01*
X149899226Y-69244347D01*
X149638073Y-69352520D01*
X149403041Y-69509563D01*
X149203163Y-69709441D01*
X149149870Y-69789200D01*
X142268818Y-69789200D01*
X142227800Y-69785160D01*
X142186782Y-69789200D01*
X142186781Y-69789200D01*
X142064111Y-69801282D01*
X141957576Y-69833599D01*
X141906713Y-69849028D01*
X141761654Y-69926564D01*
X141674134Y-69998390D01*
X141634509Y-70030909D01*
X141608363Y-70062768D01*
X138886933Y-72784200D01*
X124972872Y-72784200D01*
X124972872Y-72769200D01*
X124960612Y-72644718D01*
X124924302Y-72525020D01*
X124865337Y-72414706D01*
X124785985Y-72318015D01*
X124689294Y-72238663D01*
X124578980Y-72179698D01*
X124459282Y-72143388D01*
X124334800Y-72131128D01*
X122634800Y-72131128D01*
X122510318Y-72143388D01*
X122390620Y-72179698D01*
X122280306Y-72238663D01*
X122183615Y-72318015D01*
X122104263Y-72414706D01*
X122045298Y-72525020D01*
X122008988Y-72644718D01*
X121996728Y-72769200D01*
X121996728Y-74469200D01*
X122008988Y-74593682D01*
X122045298Y-74713380D01*
X122104263Y-74823694D01*
X122183615Y-74920385D01*
X122280306Y-74999737D01*
X122390620Y-75058702D01*
X122459487Y-75079593D01*
X122429666Y-75104066D01*
X122249007Y-75324200D01*
X121845818Y-75324200D01*
X121804800Y-75320160D01*
X121763781Y-75324200D01*
X121641111Y-75336282D01*
X121483713Y-75384028D01*
X121338654Y-75461564D01*
X121211509Y-75565909D01*
X121185363Y-75597768D01*
X119703374Y-77079759D01*
X119671510Y-77105909D01*
X119645362Y-77137771D01*
X119567164Y-77233055D01*
X119489628Y-77378114D01*
X119441882Y-77535512D01*
X119425760Y-77699200D01*
X119429801Y-77740228D01*
X119429800Y-85055095D01*
X119425760Y-85096114D01*
X119432128Y-85160769D01*
X119441882Y-85259802D01*
X119489628Y-85417200D01*
X119567164Y-85562259D01*
X119671509Y-85689405D01*
X119703379Y-85715560D01*
X124425352Y-90437535D01*
X124365697Y-90497190D01*
X124210843Y-90728946D01*
X124194800Y-90767677D01*
X124178757Y-90728946D01*
X124023903Y-90497190D01*
X123826810Y-90300097D01*
X123595054Y-90145243D01*
X123337540Y-90038577D01*
X123064165Y-89984200D01*
X122785435Y-89984200D01*
X122512060Y-90038577D01*
X122254546Y-90145243D01*
X122022790Y-90300097D01*
X121825697Y-90497190D01*
X121670843Y-90728946D01*
X121654800Y-90767677D01*
X121638757Y-90728946D01*
X121483903Y-90497190D01*
X121286810Y-90300097D01*
X121055054Y-90145243D01*
X120797540Y-90038577D01*
X120524165Y-89984200D01*
X120245435Y-89984200D01*
X119972060Y-90038577D01*
X119714546Y-90145243D01*
X119482790Y-90300097D01*
X119285697Y-90497190D01*
X119130843Y-90728946D01*
X119114800Y-90767677D01*
X119098757Y-90728946D01*
X118943903Y-90497190D01*
X118746810Y-90300097D01*
X118515054Y-90145243D01*
X118257540Y-90038577D01*
X117984165Y-89984200D01*
X117705435Y-89984200D01*
X117432060Y-90038577D01*
X117174546Y-90145243D01*
X116942790Y-90300097D01*
X116745697Y-90497190D01*
X116590843Y-90728946D01*
X116574800Y-90767677D01*
X116558757Y-90728946D01*
X116403903Y-90497190D01*
X116206810Y-90300097D01*
X115975054Y-90145243D01*
X115717540Y-90038577D01*
X115444165Y-89984200D01*
X115165435Y-89984200D01*
X114892060Y-90038577D01*
X114634546Y-90145243D01*
X114424800Y-90285390D01*
X114424800Y-67113010D01*
X114634546Y-67253157D01*
X114892060Y-67359823D01*
X115165435Y-67414200D01*
X115444165Y-67414200D01*
X115717540Y-67359823D01*
X115975054Y-67253157D01*
X116206810Y-67098303D01*
X116403903Y-66901210D01*
X116558757Y-66669454D01*
X116574800Y-66630723D01*
X116590843Y-66669454D01*
X116745697Y-66901210D01*
X116942790Y-67098303D01*
X117174546Y-67253157D01*
X117432060Y-67359823D01*
X117705435Y-67414200D01*
X117984165Y-67414200D01*
X118257540Y-67359823D01*
X118515054Y-67253157D01*
X118746810Y-67098303D01*
X118943903Y-66901210D01*
X119098757Y-66669454D01*
X119114800Y-66630723D01*
X119130843Y-66669454D01*
X119285697Y-66901210D01*
X119482790Y-67098303D01*
X119714546Y-67253157D01*
X119972060Y-67359823D01*
X120245435Y-67414200D01*
X120524165Y-67414200D01*
X120797540Y-67359823D01*
X121055054Y-67253157D01*
X121286810Y-67098303D01*
X121483903Y-66901210D01*
X121638757Y-66669454D01*
X121654800Y-66630723D01*
X121670843Y-66669454D01*
X121825697Y-66901210D01*
X122022790Y-67098303D01*
X122254546Y-67253157D01*
X122512060Y-67359823D01*
X122785435Y-67414200D01*
X123064165Y-67414200D01*
X123337540Y-67359823D01*
X123595054Y-67253157D01*
X123826810Y-67098303D01*
X124023903Y-66901210D01*
X124178757Y-66669454D01*
X124194800Y-66630723D01*
X124210843Y-66669454D01*
X124365697Y-66901210D01*
X124562790Y-67098303D01*
X124794546Y-67253157D01*
X125052060Y-67359823D01*
X125325435Y-67414200D01*
X125604165Y-67414200D01*
X125877540Y-67359823D01*
X126135054Y-67253157D01*
X126366810Y-67098303D01*
X126563903Y-66901210D01*
X126718757Y-66669454D01*
X126734800Y-66630723D01*
X126750843Y-66669454D01*
X126905697Y-66901210D01*
X127102790Y-67098303D01*
X127334546Y-67253157D01*
X127592060Y-67359823D01*
X127865435Y-67414200D01*
X128144165Y-67414200D01*
X128417540Y-67359823D01*
X128675054Y-67253157D01*
X128906810Y-67098303D01*
X129103903Y-66901210D01*
X129258757Y-66669454D01*
X129274800Y-66630723D01*
X129290843Y-66669454D01*
X129445697Y-66901210D01*
X129642790Y-67098303D01*
X129874546Y-67253157D01*
X130132060Y-67359823D01*
X130405435Y-67414200D01*
X130684165Y-67414200D01*
X130957540Y-67359823D01*
X131215054Y-67253157D01*
X131446810Y-67098303D01*
X131643903Y-66901210D01*
X131798757Y-66669454D01*
X131814800Y-66630723D01*
X131830843Y-66669454D01*
X131985697Y-66901210D01*
X132182790Y-67098303D01*
X132414546Y-67253157D01*
X132672060Y-67359823D01*
X132945435Y-67414200D01*
X133224165Y-67414200D01*
X133497540Y-67359823D01*
X133755054Y-67253157D01*
X133986810Y-67098303D01*
X134183903Y-66901210D01*
X134338757Y-66669454D01*
X134354800Y-66630723D01*
X134370843Y-66669454D01*
X134525697Y-66901210D01*
X134722790Y-67098303D01*
X134954546Y-67253157D01*
X135212060Y-67359823D01*
X135485435Y-67414200D01*
X135764165Y-67414200D01*
X136037540Y-67359823D01*
X136295054Y-67253157D01*
X136526810Y-67098303D01*
X136723903Y-66901210D01*
X136878757Y-66669454D01*
X136894800Y-66630723D01*
X136910843Y-66669454D01*
X137065697Y-66901210D01*
X137262790Y-67098303D01*
X137494546Y-67253157D01*
X137752060Y-67359823D01*
X138025435Y-67414200D01*
X138304165Y-67414200D01*
X138577540Y-67359823D01*
X138835054Y-67253157D01*
X139066810Y-67098303D01*
X139263903Y-66901210D01*
X139418757Y-66669454D01*
X139434800Y-66630723D01*
X139450843Y-66669454D01*
X139605697Y-66901210D01*
X139802790Y-67098303D01*
X140034546Y-67253157D01*
X140292060Y-67359823D01*
X140565435Y-67414200D01*
X140844165Y-67414200D01*
X141117540Y-67359823D01*
X141375054Y-67253157D01*
X141606810Y-67098303D01*
X141629801Y-67075312D01*
X141629801Y-67153330D01*
X139783432Y-68999701D01*
X135438306Y-68999701D01*
X135397298Y-68995662D01*
X135356290Y-68999701D01*
X135356280Y-68999701D01*
X135233610Y-69011783D01*
X135076212Y-69059529D01*
X134931153Y-69137065D01*
X134834790Y-69216148D01*
X134667792Y-69199700D01*
X134526808Y-69199700D01*
X134315991Y-69220464D01*
X134045492Y-69302518D01*
X133796199Y-69435768D01*
X133577692Y-69615092D01*
X133398368Y-69833599D01*
X133265118Y-70082892D01*
X133183064Y-70353391D01*
X133155357Y-70634700D01*
X133183064Y-70916009D01*
X133265118Y-71186508D01*
X133398368Y-71435801D01*
X133577692Y-71654308D01*
X133796199Y-71833632D01*
X134045492Y-71966882D01*
X134315991Y-72048936D01*
X134526808Y-72069700D01*
X134667792Y-72069700D01*
X134878609Y-72048936D01*
X135149108Y-71966882D01*
X135398401Y-71833632D01*
X135616908Y-71654308D01*
X135796232Y-71435801D01*
X135929482Y-71186508D01*
X136011536Y-70916009D01*
X136035796Y-70669701D01*
X140088281Y-70669701D01*
X140129299Y-70673741D01*
X140170317Y-70669701D01*
X140170318Y-70669701D01*
X140292988Y-70657619D01*
X140450386Y-70609873D01*
X140595445Y-70532337D01*
X140722590Y-70427992D01*
X140748745Y-70396122D01*
X143026233Y-68118636D01*
X143058092Y-68092490D01*
X143162437Y-67965345D01*
X143239973Y-67820286D01*
X143287719Y-67662888D01*
X143299801Y-67540218D01*
X143299801Y-67540217D01*
X143303841Y-67499199D01*
X143299801Y-67458181D01*
X143299801Y-67414200D01*
X143384165Y-67414200D01*
X143657540Y-67359823D01*
X143915054Y-67253157D01*
X144146810Y-67098303D01*
X144343903Y-66901210D01*
X144498757Y-66669454D01*
X144514800Y-66630723D01*
X144530843Y-66669454D01*
X144685697Y-66901210D01*
X144882790Y-67098303D01*
X145114546Y-67253157D01*
X145372060Y-67359823D01*
X145645435Y-67414200D01*
X145924165Y-67414200D01*
X146197540Y-67359823D01*
X146455054Y-67253157D01*
X146686810Y-67098303D01*
X146883903Y-66901210D01*
X147038757Y-66669454D01*
X147054800Y-66630723D01*
X147070843Y-66669454D01*
X147225697Y-66901210D01*
X147422790Y-67098303D01*
X147654546Y-67253157D01*
X147912060Y-67359823D01*
X148185435Y-67414200D01*
X148464165Y-67414200D01*
X148737540Y-67359823D01*
X148995054Y-67253157D01*
X149226810Y-67098303D01*
X149423903Y-66901210D01*
X149578757Y-66669454D01*
X149594800Y-66630723D01*
X149610843Y-66669454D01*
X149765697Y-66901210D01*
X149962790Y-67098303D01*
X150194546Y-67253157D01*
X150452060Y-67359823D01*
X150725435Y-67414200D01*
X151004165Y-67414200D01*
X151277540Y-67359823D01*
X151535054Y-67253157D01*
X151766810Y-67098303D01*
X151963903Y-66901210D01*
X152118757Y-66669454D01*
X152134800Y-66630723D01*
X152150843Y-66669454D01*
X152305697Y-66901210D01*
X152502790Y-67098303D01*
X152734546Y-67253157D01*
X152992060Y-67359823D01*
X153265435Y-67414200D01*
X153544165Y-67414200D01*
X153817540Y-67359823D01*
X154075054Y-67253157D01*
X154306810Y-67098303D01*
X154503903Y-66901210D01*
X154658757Y-66669454D01*
X154674800Y-66630723D01*
X154690843Y-66669454D01*
X154845697Y-66901210D01*
X155042790Y-67098303D01*
X155274546Y-67253157D01*
X155532060Y-67359823D01*
X155805435Y-67414200D01*
X156084165Y-67414200D01*
X156357540Y-67359823D01*
X156615054Y-67253157D01*
X156846810Y-67098303D01*
X157043903Y-66901210D01*
X157198757Y-66669454D01*
X157214800Y-66630723D01*
X157230843Y-66669454D01*
G36*
X132989364Y-89384633D02*
G01*
X133015510Y-89416492D01*
X133047369Y-89442638D01*
X133047371Y-89442640D01*
X133142655Y-89520837D01*
X133287714Y-89598373D01*
X133445112Y-89646119D01*
X133608801Y-89662241D01*
X133649819Y-89658201D01*
X154471934Y-89658201D01*
X155085375Y-90271643D01*
X155042790Y-90300097D01*
X154845697Y-90497190D01*
X154690843Y-90728946D01*
X154674800Y-90767677D01*
X154658757Y-90728946D01*
X154503903Y-90497190D01*
X154306810Y-90300097D01*
X154075054Y-90145243D01*
X153817540Y-90038577D01*
X153544165Y-89984200D01*
X153265435Y-89984200D01*
X152992060Y-90038577D01*
X152734546Y-90145243D01*
X152502790Y-90300097D01*
X152305697Y-90497190D01*
X152150843Y-90728946D01*
X152134800Y-90767677D01*
X152118757Y-90728946D01*
X151963903Y-90497190D01*
X151766810Y-90300097D01*
X151535054Y-90145243D01*
X151277540Y-90038577D01*
X151004165Y-89984200D01*
X150725435Y-89984200D01*
X150452060Y-90038577D01*
X150194546Y-90145243D01*
X149962790Y-90300097D01*
X149765697Y-90497190D01*
X149610843Y-90728946D01*
X149594800Y-90767677D01*
X149578757Y-90728946D01*
X149423903Y-90497190D01*
X149226810Y-90300097D01*
X148995054Y-90145243D01*
X148737540Y-90038577D01*
X148464165Y-89984200D01*
X148185435Y-89984200D01*
X147912060Y-90038577D01*
X147654546Y-90145243D01*
X147422790Y-90300097D01*
X147225697Y-90497190D01*
X147070843Y-90728946D01*
X147054800Y-90767677D01*
X147038757Y-90728946D01*
X146883903Y-90497190D01*
X146686810Y-90300097D01*
X146455054Y-90145243D01*
X146197540Y-90038577D01*
X145924165Y-89984200D01*
X145645435Y-89984200D01*
X145372060Y-90038577D01*
X145114546Y-90145243D01*
X144882790Y-90300097D01*
X144685697Y-90497190D01*
X144530843Y-90728946D01*
X144514800Y-90767677D01*
X144498757Y-90728946D01*
X144343903Y-90497190D01*
X144146810Y-90300097D01*
X143915054Y-90145243D01*
X143657540Y-90038577D01*
X143384165Y-89984200D01*
X143105435Y-89984200D01*
X142832060Y-90038577D01*
X142574546Y-90145243D01*
X142342790Y-90300097D01*
X142145697Y-90497190D01*
X141990843Y-90728946D01*
X141974800Y-90767677D01*
X141958757Y-90728946D01*
X141803903Y-90497190D01*
X141606810Y-90300097D01*
X141375054Y-90145243D01*
X141117540Y-90038577D01*
X140844165Y-89984200D01*
X140565435Y-89984200D01*
X140292060Y-90038577D01*
X140034546Y-90145243D01*
X139802790Y-90300097D01*
X139605697Y-90497190D01*
X139450843Y-90728946D01*
X139434800Y-90767677D01*
X139418757Y-90728946D01*
X139263903Y-90497190D01*
X139066810Y-90300097D01*
X138835054Y-90145243D01*
X138577540Y-90038577D01*
X138304165Y-89984200D01*
X138025435Y-89984200D01*
X137752060Y-90038577D01*
X137494546Y-90145243D01*
X137262790Y-90300097D01*
X137065697Y-90497190D01*
X136910843Y-90728946D01*
X136894800Y-90767677D01*
X136878757Y-90728946D01*
X136723903Y-90497190D01*
X136526810Y-90300097D01*
X136295054Y-90145243D01*
X136037540Y-90038577D01*
X135764165Y-89984200D01*
X135485435Y-89984200D01*
X135212060Y-90038577D01*
X134954546Y-90145243D01*
X134722790Y-90300097D01*
X134525697Y-90497190D01*
X134370843Y-90728946D01*
X134354800Y-90767677D01*
X134338757Y-90728946D01*
X134183903Y-90497190D01*
X133986810Y-90300097D01*
X133755054Y-90145243D01*
X133497540Y-90038577D01*
X133224165Y-89984200D01*
X132945435Y-89984200D01*
X132672060Y-90038577D01*
X132414546Y-90145243D01*
X132182790Y-90300097D01*
X131985697Y-90497190D01*
X131830843Y-90728946D01*
X131814800Y-90767677D01*
X131798757Y-90728946D01*
X131643903Y-90497190D01*
X131446810Y-90300097D01*
X131215054Y-90145243D01*
X130957540Y-90038577D01*
X130684165Y-89984200D01*
X130405435Y-89984200D01*
X130132060Y-90038577D01*
X129874546Y-90145243D01*
X129642790Y-90300097D01*
X129445697Y-90497190D01*
X129290843Y-90728946D01*
X129274800Y-90767677D01*
X129258757Y-90728946D01*
X129103903Y-90497190D01*
X128906810Y-90300097D01*
X128675054Y-90145243D01*
X128417540Y-90038577D01*
X128144165Y-89984200D01*
X127865435Y-89984200D01*
X127592060Y-90038577D01*
X127334546Y-90145243D01*
X127102790Y-90300097D01*
X126905697Y-90497190D01*
X126750843Y-90728946D01*
X126734800Y-90767677D01*
X126718757Y-90728946D01*
X126563903Y-90497190D01*
X126366810Y-90300097D01*
X126299824Y-90255338D01*
X126287718Y-90132426D01*
X126282095Y-90113887D01*
X126239972Y-89975027D01*
X126162436Y-89829968D01*
X126058091Y-89702823D01*
X126026232Y-89676677D01*
X124583753Y-88234199D01*
X131838932Y-88234199D01*
X132989364Y-89384633D01*
X132989364Y-89384633D01*
G37*
X132989364Y-89384633D02*
X133015510Y-89416492D01*
X133047369Y-89442638D01*
X133047371Y-89442640D01*
X133142655Y-89520837D01*
X133287714Y-89598373D01*
X133445112Y-89646119D01*
X133608801Y-89662241D01*
X133649819Y-89658201D01*
X154471934Y-89658201D01*
X155085375Y-90271643D01*
X155042790Y-90300097D01*
X154845697Y-90497190D01*
X154690843Y-90728946D01*
X154674800Y-90767677D01*
X154658757Y-90728946D01*
X154503903Y-90497190D01*
X154306810Y-90300097D01*
X154075054Y-90145243D01*
X153817540Y-90038577D01*
X153544165Y-89984200D01*
X153265435Y-89984200D01*
X152992060Y-90038577D01*
X152734546Y-90145243D01*
X152502790Y-90300097D01*
X152305697Y-90497190D01*
X152150843Y-90728946D01*
X152134800Y-90767677D01*
X152118757Y-90728946D01*
X151963903Y-90497190D01*
X151766810Y-90300097D01*
X151535054Y-90145243D01*
X151277540Y-90038577D01*
X151004165Y-89984200D01*
X150725435Y-89984200D01*
X150452060Y-90038577D01*
X150194546Y-90145243D01*
X149962790Y-90300097D01*
X149765697Y-90497190D01*
X149610843Y-90728946D01*
X149594800Y-90767677D01*
X149578757Y-90728946D01*
X149423903Y-90497190D01*
X149226810Y-90300097D01*
X148995054Y-90145243D01*
X148737540Y-90038577D01*
X148464165Y-89984200D01*
X148185435Y-89984200D01*
X147912060Y-90038577D01*
X147654546Y-90145243D01*
X147422790Y-90300097D01*
X147225697Y-90497190D01*
X147070843Y-90728946D01*
X147054800Y-90767677D01*
X147038757Y-90728946D01*
X146883903Y-90497190D01*
X146686810Y-90300097D01*
X146455054Y-90145243D01*
X146197540Y-90038577D01*
X145924165Y-89984200D01*
X145645435Y-89984200D01*
X145372060Y-90038577D01*
X145114546Y-90145243D01*
X144882790Y-90300097D01*
X144685697Y-90497190D01*
X144530843Y-90728946D01*
X144514800Y-90767677D01*
X144498757Y-90728946D01*
X144343903Y-90497190D01*
X144146810Y-90300097D01*
X143915054Y-90145243D01*
X143657540Y-90038577D01*
X143384165Y-89984200D01*
X143105435Y-89984200D01*
X142832060Y-90038577D01*
X142574546Y-90145243D01*
X142342790Y-90300097D01*
X142145697Y-90497190D01*
X141990843Y-90728946D01*
X141974800Y-90767677D01*
X141958757Y-90728946D01*
X141803903Y-90497190D01*
X141606810Y-90300097D01*
X141375054Y-90145243D01*
X141117540Y-90038577D01*
X140844165Y-89984200D01*
X140565435Y-89984200D01*
X140292060Y-90038577D01*
X140034546Y-90145243D01*
X139802790Y-90300097D01*
X139605697Y-90497190D01*
X139450843Y-90728946D01*
X139434800Y-90767677D01*
X139418757Y-90728946D01*
X139263903Y-90497190D01*
X139066810Y-90300097D01*
X138835054Y-90145243D01*
X138577540Y-90038577D01*
X138304165Y-89984200D01*
X138025435Y-89984200D01*
X137752060Y-90038577D01*
X137494546Y-90145243D01*
X137262790Y-90300097D01*
X137065697Y-90497190D01*
X136910843Y-90728946D01*
X136894800Y-90767677D01*
X136878757Y-90728946D01*
X136723903Y-90497190D01*
X136526810Y-90300097D01*
X136295054Y-90145243D01*
X136037540Y-90038577D01*
X135764165Y-89984200D01*
X135485435Y-89984200D01*
X135212060Y-90038577D01*
X134954546Y-90145243D01*
X134722790Y-90300097D01*
X134525697Y-90497190D01*
X134370843Y-90728946D01*
X134354800Y-90767677D01*
X134338757Y-90728946D01*
X134183903Y-90497190D01*
X133986810Y-90300097D01*
X133755054Y-90145243D01*
X133497540Y-90038577D01*
X133224165Y-89984200D01*
X132945435Y-89984200D01*
X132672060Y-90038577D01*
X132414546Y-90145243D01*
X132182790Y-90300097D01*
X131985697Y-90497190D01*
X131830843Y-90728946D01*
X131814800Y-90767677D01*
X131798757Y-90728946D01*
X131643903Y-90497190D01*
X131446810Y-90300097D01*
X131215054Y-90145243D01*
X130957540Y-90038577D01*
X130684165Y-89984200D01*
X130405435Y-89984200D01*
X130132060Y-90038577D01*
X129874546Y-90145243D01*
X129642790Y-90300097D01*
X129445697Y-90497190D01*
X129290843Y-90728946D01*
X129274800Y-90767677D01*
X129258757Y-90728946D01*
X129103903Y-90497190D01*
X128906810Y-90300097D01*
X128675054Y-90145243D01*
X128417540Y-90038577D01*
X128144165Y-89984200D01*
X127865435Y-89984200D01*
X127592060Y-90038577D01*
X127334546Y-90145243D01*
X127102790Y-90300097D01*
X126905697Y-90497190D01*
X126750843Y-90728946D01*
X126734800Y-90767677D01*
X126718757Y-90728946D01*
X126563903Y-90497190D01*
X126366810Y-90300097D01*
X126299824Y-90255338D01*
X126287718Y-90132426D01*
X126282095Y-90113887D01*
X126239972Y-89975027D01*
X126162436Y-89829968D01*
X126058091Y-89702823D01*
X126026232Y-89676677D01*
X124583753Y-88234199D01*
X131838932Y-88234199D01*
X132989364Y-89384633D01*
G36*
X143022219Y-76738914D02*
G01*
X142990349Y-76765069D01*
X142915039Y-76856836D01*
X142886004Y-76892215D01*
X142808468Y-77037274D01*
X142760722Y-77194672D01*
X142744600Y-77358360D01*
X142748640Y-77399379D01*
X142748641Y-83999760D01*
X142741665Y-84005485D01*
X142593582Y-84185925D01*
X142583640Y-84204525D01*
X142573698Y-84185924D01*
X142425615Y-84005485D01*
X142245175Y-83857402D01*
X142039313Y-83747366D01*
X141815939Y-83679607D01*
X141583640Y-83656727D01*
X141351340Y-83679607D01*
X141127966Y-83747366D01*
X140922104Y-83857402D01*
X140741665Y-84005485D01*
X140593582Y-84185925D01*
X140583640Y-84204525D01*
X140573698Y-84185924D01*
X140425615Y-84005485D01*
X140245175Y-83857402D01*
X140039313Y-83747366D01*
X139815939Y-83679607D01*
X139583640Y-83656727D01*
X139351340Y-83679607D01*
X139127966Y-83747366D01*
X138922104Y-83857402D01*
X138741665Y-84005485D01*
X138593582Y-84185925D01*
X138483546Y-84391787D01*
X138415787Y-84615161D01*
X138398640Y-84789254D01*
X138398640Y-85405667D01*
X138415787Y-85579760D01*
X138454783Y-85708315D01*
X135964246Y-83217779D01*
X135938091Y-83185909D01*
X135810946Y-83081564D01*
X135665887Y-83004028D01*
X135508489Y-82956282D01*
X135385819Y-82944200D01*
X135385818Y-82944200D01*
X135344800Y-82940160D01*
X135303782Y-82944200D01*
X124720593Y-82944200D01*
X124539934Y-82724066D01*
X124313814Y-82538494D01*
X124259009Y-82509200D01*
X124313814Y-82479906D01*
X124539934Y-82294334D01*
X124725506Y-82068214D01*
X124863399Y-81810234D01*
X124948313Y-81530311D01*
X124976985Y-81239200D01*
X124948313Y-80948089D01*
X124863399Y-80668166D01*
X124725506Y-80410186D01*
X124539934Y-80184066D01*
X124313814Y-79998494D01*
X124249277Y-79963999D01*
X124366155Y-79894378D01*
X124582388Y-79699469D01*
X124756441Y-79466120D01*
X124881625Y-79203299D01*
X124926276Y-79056090D01*
X124804955Y-78826200D01*
X123611800Y-78826200D01*
X123611800Y-78846200D01*
X123357800Y-78846200D01*
X123357800Y-78826200D01*
X122164645Y-78826200D01*
X122043324Y-79056090D01*
X122087975Y-79203299D01*
X122213159Y-79466120D01*
X122387212Y-79699469D01*
X122603445Y-79894378D01*
X122720323Y-79963999D01*
X122655786Y-79998494D01*
X122429666Y-80184066D01*
X122249007Y-80404200D01*
X121765815Y-80404200D01*
X121724799Y-80400160D01*
X121683783Y-80404200D01*
X121683781Y-80404200D01*
X121561111Y-80416282D01*
X121403713Y-80464028D01*
X121258654Y-80541564D01*
X121131509Y-80645909D01*
X121105354Y-80677779D01*
X121099800Y-80683333D01*
X121099800Y-78045067D01*
X122150669Y-76994200D01*
X122249007Y-76994200D01*
X122429666Y-77214334D01*
X122655786Y-77399906D01*
X122720323Y-77434401D01*
X122603445Y-77504022D01*
X122387212Y-77698931D01*
X122213159Y-77932280D01*
X122087975Y-78195101D01*
X122043324Y-78342310D01*
X122164645Y-78572200D01*
X123357800Y-78572200D01*
X123357800Y-78552200D01*
X123611800Y-78552200D01*
X123611800Y-78572200D01*
X124804955Y-78572200D01*
X124926276Y-78342310D01*
X124881625Y-78195101D01*
X124756441Y-77932280D01*
X124582388Y-77698931D01*
X124366155Y-77504022D01*
X124249277Y-77434401D01*
X124313814Y-77399906D01*
X124539934Y-77214334D01*
X124725506Y-76988214D01*
X124863399Y-76730234D01*
X124948313Y-76450311D01*
X124976985Y-76159200D01*
X124948313Y-75868089D01*
X124863399Y-75588166D01*
X124725506Y-75330186D01*
X124539934Y-75104066D01*
X124510113Y-75079593D01*
X124578980Y-75058702D01*
X124689294Y-74999737D01*
X124785985Y-74920385D01*
X124865337Y-74823694D01*
X124924302Y-74713380D01*
X124960612Y-74593682D01*
X124972872Y-74469200D01*
X124972872Y-74454200D01*
X139191782Y-74454200D01*
X139232800Y-74458240D01*
X139273818Y-74454200D01*
X139273819Y-74454200D01*
X139396489Y-74442118D01*
X139553887Y-74394372D01*
X139698946Y-74316836D01*
X139826091Y-74212491D01*
X139852246Y-74180621D01*
X142573669Y-71459200D01*
X148301932Y-71459200D01*
X143022219Y-76738914D01*
X143022219Y-76738914D01*
G37*
X143022219Y-76738914D02*
X142990349Y-76765069D01*
X142915039Y-76856836D01*
X142886004Y-76892215D01*
X142808468Y-77037274D01*
X142760722Y-77194672D01*
X142744600Y-77358360D01*
X142748640Y-77399379D01*
X142748641Y-83999760D01*
X142741665Y-84005485D01*
X142593582Y-84185925D01*
X142583640Y-84204525D01*
X142573698Y-84185924D01*
X142425615Y-84005485D01*
X142245175Y-83857402D01*
X142039313Y-83747366D01*
X141815939Y-83679607D01*
X141583640Y-83656727D01*
X141351340Y-83679607D01*
X141127966Y-83747366D01*
X140922104Y-83857402D01*
X140741665Y-84005485D01*
X140593582Y-84185925D01*
X140583640Y-84204525D01*
X140573698Y-84185924D01*
X140425615Y-84005485D01*
X140245175Y-83857402D01*
X140039313Y-83747366D01*
X139815939Y-83679607D01*
X139583640Y-83656727D01*
X139351340Y-83679607D01*
X139127966Y-83747366D01*
X138922104Y-83857402D01*
X138741665Y-84005485D01*
X138593582Y-84185925D01*
X138483546Y-84391787D01*
X138415787Y-84615161D01*
X138398640Y-84789254D01*
X138398640Y-85405667D01*
X138415787Y-85579760D01*
X138454783Y-85708315D01*
X135964246Y-83217779D01*
X135938091Y-83185909D01*
X135810946Y-83081564D01*
X135665887Y-83004028D01*
X135508489Y-82956282D01*
X135385819Y-82944200D01*
X135385818Y-82944200D01*
X135344800Y-82940160D01*
X135303782Y-82944200D01*
X124720593Y-82944200D01*
X124539934Y-82724066D01*
X124313814Y-82538494D01*
X124259009Y-82509200D01*
X124313814Y-82479906D01*
X124539934Y-82294334D01*
X124725506Y-82068214D01*
X124863399Y-81810234D01*
X124948313Y-81530311D01*
X124976985Y-81239200D01*
X124948313Y-80948089D01*
X124863399Y-80668166D01*
X124725506Y-80410186D01*
X124539934Y-80184066D01*
X124313814Y-79998494D01*
X124249277Y-79963999D01*
X124366155Y-79894378D01*
X124582388Y-79699469D01*
X124756441Y-79466120D01*
X124881625Y-79203299D01*
X124926276Y-79056090D01*
X124804955Y-78826200D01*
X123611800Y-78826200D01*
X123611800Y-78846200D01*
X123357800Y-78846200D01*
X123357800Y-78826200D01*
X122164645Y-78826200D01*
X122043324Y-79056090D01*
X122087975Y-79203299D01*
X122213159Y-79466120D01*
X122387212Y-79699469D01*
X122603445Y-79894378D01*
X122720323Y-79963999D01*
X122655786Y-79998494D01*
X122429666Y-80184066D01*
X122249007Y-80404200D01*
X121765815Y-80404200D01*
X121724799Y-80400160D01*
X121683783Y-80404200D01*
X121683781Y-80404200D01*
X121561111Y-80416282D01*
X121403713Y-80464028D01*
X121258654Y-80541564D01*
X121131509Y-80645909D01*
X121105354Y-80677779D01*
X121099800Y-80683333D01*
X121099800Y-78045067D01*
X122150669Y-76994200D01*
X122249007Y-76994200D01*
X122429666Y-77214334D01*
X122655786Y-77399906D01*
X122720323Y-77434401D01*
X122603445Y-77504022D01*
X122387212Y-77698931D01*
X122213159Y-77932280D01*
X122087975Y-78195101D01*
X122043324Y-78342310D01*
X122164645Y-78572200D01*
X123357800Y-78572200D01*
X123357800Y-78552200D01*
X123611800Y-78552200D01*
X123611800Y-78572200D01*
X124804955Y-78572200D01*
X124926276Y-78342310D01*
X124881625Y-78195101D01*
X124756441Y-77932280D01*
X124582388Y-77698931D01*
X124366155Y-77504022D01*
X124249277Y-77434401D01*
X124313814Y-77399906D01*
X124539934Y-77214334D01*
X124725506Y-76988214D01*
X124863399Y-76730234D01*
X124948313Y-76450311D01*
X124976985Y-76159200D01*
X124948313Y-75868089D01*
X124863399Y-75588166D01*
X124725506Y-75330186D01*
X124539934Y-75104066D01*
X124510113Y-75079593D01*
X124578980Y-75058702D01*
X124689294Y-74999737D01*
X124785985Y-74920385D01*
X124865337Y-74823694D01*
X124924302Y-74713380D01*
X124960612Y-74593682D01*
X124972872Y-74469200D01*
X124972872Y-74454200D01*
X139191782Y-74454200D01*
X139232800Y-74458240D01*
X139273818Y-74454200D01*
X139273819Y-74454200D01*
X139396489Y-74442118D01*
X139553887Y-74394372D01*
X139698946Y-74316836D01*
X139826091Y-74212491D01*
X139852246Y-74180621D01*
X142573669Y-71459200D01*
X148301932Y-71459200D01*
X143022219Y-76738914D01*
M02*
