M48
; DRILL file {KiCad (5.1.0)-1} date 30.10.2020 15:15:28
; FORMAT={-:-/ absolute / metric / decimal}
; #@! TF.CreationDate,2020-10-30T15:15:28+01:00
; #@! TF.GenerationSoftware,Kicad,Pcbnew,(5.1.0)-1
; #@! TF.FileFunction,Plated,1,2,PTH
FMAT,2
METRIC
T1C0.400
T2C0.700
T3C0.800
T4C1.000
T5C1.040
T6C1.100
T7C1.800
T8C2.500
%
G90
G05
T1
X147.651Y-88.023
X152.858Y-88.023
T2
X142.235Y-78.149
X143.505Y-78.149
X144.775Y-78.149
X146.045Y-78.149
T3
X127.839Y-71.005
X127.839Y-86.245
X155.525Y-70.624
X155.525Y-85.864
X137.999Y-70.878
X137.999Y-86.118
X150.318Y-70.624
X150.318Y-85.864
X132.792Y-70.878
X132.792Y-86.118
T4
X115.125Y-40.333
X117.665Y-40.333
X120.205Y-40.333
X122.745Y-40.333
X125.285Y-40.333
X127.825Y-40.333
X130.365Y-40.333
X132.905Y-40.333
X135.445Y-40.333
X137.985Y-40.333
X140.525Y-40.333
X143.065Y-40.333
X145.605Y-40.333
X148.145Y-40.333
X150.685Y-40.333
X153.225Y-40.333
X155.765Y-40.333
X158.305Y-40.333
X160.845Y-40.333
X115.285Y-109.923
X117.825Y-109.923
X120.365Y-109.923
X122.905Y-109.923
X125.445Y-109.923
X127.985Y-109.923
X130.525Y-109.923
X133.065Y-109.923
X135.605Y-109.923
X138.145Y-109.923
X140.685Y-109.923
X143.225Y-109.923
X145.765Y-109.923
X148.305Y-109.923
X150.845Y-109.923
X153.385Y-109.923
X155.925Y-109.923
X158.465Y-109.923
X161.005Y-109.923
T5
X115.305Y-65.999
X115.305Y-91.399
X117.845Y-65.999
X117.845Y-91.399
X120.385Y-65.999
X120.385Y-91.399
X122.925Y-65.999
X122.925Y-91.399
X125.465Y-65.999
X125.465Y-91.399
X128.005Y-65.999
X128.005Y-91.399
X130.545Y-65.999
X130.545Y-91.399
X133.085Y-65.999
X133.085Y-91.399
X135.625Y-65.999
X135.625Y-91.399
X138.165Y-65.999
X138.165Y-91.399
X140.705Y-65.999
X140.705Y-91.399
X143.245Y-65.999
X143.245Y-91.399
X145.785Y-65.999
X145.785Y-91.399
X148.325Y-65.999
X148.325Y-91.399
X150.865Y-65.999
X150.865Y-91.399
X153.405Y-65.999
X153.405Y-91.399
X155.945Y-65.999
X155.945Y-91.399
X158.485Y-65.999
X158.485Y-91.399
X161.025Y-65.999
X161.025Y-91.399
T6
X184.585Y-79.389
X184.585Y-81.929
X184.585Y-84.469
X184.585Y-87.009
X184.585Y-89.549
X184.585Y-92.089
X184.585Y-94.629
T7
X180.675Y-94.619
X164.585Y-62.619
T8
X118.695Y-61.099
X118.695Y-96.659
X159.335Y-61.099
X159.335Y-96.659
T0
M30
