G04 #@! TF.GenerationSoftware,KiCad,Pcbnew,(5.1.0)-1*
G04 #@! TF.CreationDate,2020-12-07T10:04:22+01:00*
G04 #@! TF.ProjectId,phyphox_CO2_Monitor,70687970-686f-4785-9f43-4f325f4d6f6e,rev?*
G04 #@! TF.SameCoordinates,Original*
G04 #@! TF.FileFunction,Copper,L1,Top*
G04 #@! TF.FilePolarity,Positive*
%FSLAX46Y46*%
G04 Gerber Fmt 4.6, Leading zero omitted, Abs format (unit mm)*
G04 Created by KiCad (PCBNEW (5.1.0)-1) date 2020-12-07 10:04:22*
%MOMM*%
%LPD*%
G04 APERTURE LIST*
%ADD10C,5.000000*%
%ADD11O,1.700000X1.700000*%
%ADD12R,1.700000X1.700000*%
%ADD13R,1.560000X1.560000*%
%ADD14C,1.560000*%
%ADD15R,1.650000X1.650000*%
%ADD16C,1.650000*%
%ADD17C,1.100000*%
%ADD18C,1.600000*%
%ADD19O,1.600000X1.600000*%
%ADD20C,0.800000*%
%ADD21C,0.400000*%
%ADD22C,0.254000*%
G04 APERTURE END LIST*
D10*
X158264800Y-61199200D03*
X158264800Y-96199200D03*
X117264800Y-61199200D03*
X117264800Y-96199200D03*
D11*
X123484800Y-83779200D03*
X123484800Y-81239200D03*
X123484800Y-78699200D03*
X123484800Y-76159200D03*
D12*
X123484800Y-73619200D03*
D13*
X161024800Y-65999200D03*
D14*
X158484800Y-65999200D03*
X115304800Y-65999200D03*
X155944800Y-65999200D03*
X153404800Y-65999200D03*
X150864800Y-65999200D03*
X148324800Y-65999200D03*
X145784800Y-65999200D03*
X143244800Y-65999200D03*
X140704800Y-65999200D03*
X138164800Y-65999200D03*
X135624800Y-65999200D03*
X133084800Y-65999200D03*
X130544800Y-65999200D03*
X128004800Y-65999200D03*
X125464800Y-65999200D03*
X122924800Y-65999200D03*
X120384800Y-65999200D03*
X117844800Y-65999200D03*
X161024800Y-91399200D03*
X158484800Y-91399200D03*
X155944800Y-91399200D03*
X153404800Y-91399200D03*
X150864800Y-91399200D03*
X148324800Y-91399200D03*
X145784800Y-91399200D03*
X143244800Y-91399200D03*
X140704800Y-91399200D03*
X138164800Y-91399200D03*
X135624800Y-91399200D03*
X133084800Y-91399200D03*
X130544800Y-91399200D03*
X128004800Y-91399200D03*
X125464800Y-91399200D03*
X122924800Y-91399200D03*
X120384800Y-91399200D03*
X117844800Y-91399200D03*
X115304800Y-91399200D03*
D15*
X184584800Y-94629200D03*
D16*
X184584800Y-92089200D03*
X184584800Y-89549200D03*
X184584800Y-87009200D03*
X184584800Y-84469200D03*
X184584800Y-81929200D03*
X184584800Y-79389200D03*
D17*
X141304800Y-85199200D03*
X142574800Y-85199200D03*
X143844800Y-85199200D03*
X145114800Y-85199200D03*
D11*
X115544800Y-114699200D03*
X118084800Y-114699200D03*
X120624800Y-114699200D03*
X123164800Y-114699200D03*
X125704800Y-114699200D03*
X128244800Y-114699200D03*
X130784800Y-114699200D03*
X133324800Y-114699200D03*
X135864800Y-114699200D03*
X138404800Y-114699200D03*
X140944800Y-114699200D03*
X143484800Y-114699200D03*
X146024800Y-114699200D03*
X148564800Y-114699200D03*
X151104800Y-114699200D03*
X153644800Y-114699200D03*
X156184800Y-114699200D03*
X158724800Y-114699200D03*
D12*
X161264800Y-114699200D03*
D11*
X115124800Y-40333200D03*
X117664800Y-40333200D03*
X120204800Y-40333200D03*
X122744800Y-40333200D03*
X125284800Y-40333200D03*
X127824800Y-40333200D03*
X130364800Y-40333200D03*
X132904800Y-40333200D03*
X135444800Y-40333200D03*
X137984800Y-40333200D03*
X140524800Y-40333200D03*
X143064800Y-40333200D03*
X145604800Y-40333200D03*
X148144800Y-40333200D03*
X150684800Y-40333200D03*
X153224800Y-40333200D03*
X155764800Y-40333200D03*
X158304800Y-40333200D03*
D12*
X160844800Y-40333200D03*
D18*
X134597300Y-85874700D03*
D19*
X134597300Y-70634700D03*
D18*
X150317800Y-70624200D03*
D19*
X150317800Y-85864200D03*
X155524800Y-85864200D03*
D18*
X155524800Y-70624200D03*
D20*
X129264800Y-88949200D03*
X130764800Y-75699200D03*
X146764800Y-89699200D03*
X152857800Y-87199200D03*
X148764800Y-83699200D03*
X141264800Y-76699200D03*
X117264800Y-71199200D03*
D21*
X135728670Y-85874700D02*
X136803170Y-86949200D01*
X134597300Y-85874700D02*
X135728670Y-85874700D01*
X136803170Y-86949200D02*
X144764800Y-86949200D01*
X145114800Y-86599200D02*
X145114800Y-85199200D01*
X144764800Y-86949200D02*
X145114800Y-86599200D01*
X150317800Y-88023200D02*
X150317800Y-85864200D01*
X148310000Y-91376000D02*
X148310000Y-90031000D01*
X148310000Y-90031000D02*
X150317800Y-88023200D01*
X150317800Y-84467200D02*
X150317800Y-85864200D01*
X152095800Y-82689200D02*
X150317800Y-84467200D01*
X165430800Y-82689200D02*
X152095800Y-82689200D01*
X168925801Y-86184201D02*
X165430800Y-82689200D01*
X183759801Y-86184201D02*
X168925801Y-86184201D01*
X184584800Y-87009200D02*
X183759801Y-86184201D01*
X155524800Y-85864200D02*
X155524800Y-87261200D01*
X155930000Y-87666400D02*
X155930000Y-91376000D01*
X155524800Y-87261200D02*
X155930000Y-87666400D01*
X164668800Y-85864200D02*
X155524800Y-85864200D01*
X167528801Y-88724201D02*
X164668800Y-85864200D01*
X183759801Y-88724201D02*
X167528801Y-88724201D01*
X184584800Y-89549200D02*
X183759801Y-88724201D01*
X139864800Y-89699200D02*
X138164800Y-91399200D01*
X144264800Y-89699200D02*
X139864800Y-89699200D01*
X147269800Y-86694200D02*
X144264800Y-89699200D01*
X183759801Y-83644201D02*
X174931801Y-83644201D01*
X184584800Y-84469200D02*
X183759801Y-83644201D01*
X174931801Y-83644201D02*
X171309800Y-80022200D01*
X171309800Y-80022200D02*
X150063800Y-80022200D01*
X150063800Y-80022200D02*
X147269800Y-82816200D01*
X147269800Y-82816200D02*
X147269800Y-86694200D01*
X140754801Y-84649201D02*
X141304800Y-85199200D01*
X139264800Y-83159200D02*
X140754801Y-84649201D01*
X139264800Y-68202286D02*
X139264800Y-83159200D01*
X138164800Y-65999200D02*
X138164800Y-67102286D01*
X138164800Y-67102286D02*
X139264800Y-68202286D01*
X142574800Y-85199200D02*
X142574800Y-74759200D01*
X140704800Y-72889200D02*
X140704800Y-65999200D01*
X142574800Y-74759200D02*
X140704800Y-72889200D01*
X143205800Y-66000200D02*
X143230000Y-65976000D01*
D22*
G36*
X156779821Y-58420999D02*
G01*
X156266354Y-58764086D01*
X155829686Y-59200754D01*
X155486599Y-59714221D01*
X155250276Y-60284754D01*
X155129800Y-60890429D01*
X155129800Y-61507971D01*
X155250276Y-62113646D01*
X155486599Y-62684179D01*
X155829686Y-63197646D01*
X156266354Y-63634314D01*
X156779821Y-63977401D01*
X157350354Y-64213724D01*
X157956029Y-64334200D01*
X158573571Y-64334200D01*
X159179246Y-64213724D01*
X159749779Y-63977401D01*
X160263246Y-63634314D01*
X160699914Y-63197646D01*
X161043001Y-62684179D01*
X161165613Y-62388167D01*
X162879800Y-62388167D01*
X162879800Y-62710233D01*
X162942632Y-63026112D01*
X163065882Y-63323663D01*
X163244813Y-63591452D01*
X163472548Y-63819187D01*
X163740337Y-63998118D01*
X164037888Y-64121368D01*
X164353767Y-64184200D01*
X164675833Y-64184200D01*
X164991712Y-64121368D01*
X165289263Y-63998118D01*
X165557052Y-63819187D01*
X165784787Y-63591452D01*
X165963718Y-63323663D01*
X166086968Y-63026112D01*
X166149800Y-62710233D01*
X166149800Y-62388167D01*
X166086968Y-62072288D01*
X165963718Y-61774737D01*
X165784787Y-61506948D01*
X165557052Y-61279213D01*
X165289263Y-61100282D01*
X164991712Y-60977032D01*
X164675833Y-60914200D01*
X164353767Y-60914200D01*
X164037888Y-60977032D01*
X163740337Y-61100282D01*
X163472548Y-61279213D01*
X163244813Y-61506948D01*
X163065882Y-61774737D01*
X162942632Y-62072288D01*
X162879800Y-62388167D01*
X161165613Y-62388167D01*
X161279324Y-62113646D01*
X161399800Y-61507971D01*
X161399800Y-60890429D01*
X161279324Y-60284754D01*
X161043001Y-59714221D01*
X160699914Y-59200754D01*
X160263246Y-58764086D01*
X159749779Y-58420999D01*
X159600583Y-58359200D01*
X183732521Y-58359200D01*
X184218693Y-58406870D01*
X184655298Y-58538689D01*
X185057985Y-58752800D01*
X185411412Y-59041048D01*
X185702127Y-59392461D01*
X185919042Y-59793639D01*
X186053906Y-60229313D01*
X186104800Y-60713544D01*
X186104801Y-96666911D01*
X186057130Y-97153094D01*
X185925312Y-97589697D01*
X185711199Y-97992386D01*
X185422950Y-98345813D01*
X185071539Y-98636527D01*
X184670364Y-98853440D01*
X184234686Y-98988306D01*
X183750464Y-99039200D01*
X159600583Y-99039200D01*
X159749779Y-98977401D01*
X160263246Y-98634314D01*
X160699914Y-98197646D01*
X161043001Y-97684179D01*
X161279324Y-97113646D01*
X161399800Y-96507971D01*
X161399800Y-95890429D01*
X161279324Y-95284754D01*
X161043001Y-94714221D01*
X160825140Y-94388167D01*
X179079800Y-94388167D01*
X179079800Y-94710233D01*
X179142632Y-95026112D01*
X179265882Y-95323663D01*
X179444813Y-95591452D01*
X179672548Y-95819187D01*
X179940337Y-95998118D01*
X180237888Y-96121368D01*
X180553767Y-96184200D01*
X180875833Y-96184200D01*
X181191712Y-96121368D01*
X181489263Y-95998118D01*
X181757052Y-95819187D01*
X181984787Y-95591452D01*
X182163718Y-95323663D01*
X182286968Y-95026112D01*
X182349800Y-94710233D01*
X182349800Y-94388167D01*
X182286968Y-94072288D01*
X182175923Y-93804200D01*
X183121728Y-93804200D01*
X183121728Y-95454200D01*
X183133988Y-95578682D01*
X183170298Y-95698380D01*
X183229263Y-95808694D01*
X183308615Y-95905385D01*
X183405306Y-95984737D01*
X183515620Y-96043702D01*
X183635318Y-96080012D01*
X183759800Y-96092272D01*
X185409800Y-96092272D01*
X185534282Y-96080012D01*
X185653980Y-96043702D01*
X185764294Y-95984737D01*
X185860985Y-95905385D01*
X185940337Y-95808694D01*
X185999302Y-95698380D01*
X186035612Y-95578682D01*
X186047872Y-95454200D01*
X186047872Y-93804200D01*
X186035612Y-93679718D01*
X185999302Y-93560020D01*
X185940337Y-93449706D01*
X185860985Y-93353015D01*
X185764294Y-93273663D01*
X185653980Y-93214698D01*
X185534282Y-93178388D01*
X185409800Y-93166128D01*
X185395657Y-93166128D01*
X185415746Y-93099751D01*
X184584800Y-92268805D01*
X183753854Y-93099751D01*
X183773943Y-93166128D01*
X183759800Y-93166128D01*
X183635318Y-93178388D01*
X183515620Y-93214698D01*
X183405306Y-93273663D01*
X183308615Y-93353015D01*
X183229263Y-93449706D01*
X183170298Y-93560020D01*
X183133988Y-93679718D01*
X183121728Y-93804200D01*
X182175923Y-93804200D01*
X182163718Y-93774737D01*
X181984787Y-93506948D01*
X181757052Y-93279213D01*
X181489263Y-93100282D01*
X181191712Y-92977032D01*
X180875833Y-92914200D01*
X180553767Y-92914200D01*
X180237888Y-92977032D01*
X179940337Y-93100282D01*
X179672548Y-93279213D01*
X179444813Y-93506948D01*
X179265882Y-93774737D01*
X179142632Y-94072288D01*
X179079800Y-94388167D01*
X160825140Y-94388167D01*
X160699914Y-94200754D01*
X160263246Y-93764086D01*
X159749779Y-93420999D01*
X159179246Y-93184676D01*
X158573571Y-93064200D01*
X157956029Y-93064200D01*
X157350354Y-93184676D01*
X156779821Y-93420999D01*
X156266354Y-93764086D01*
X155829686Y-94200754D01*
X155486599Y-94714221D01*
X155250276Y-95284754D01*
X155129800Y-95890429D01*
X155129800Y-96507971D01*
X155250276Y-97113646D01*
X155486599Y-97684179D01*
X155829686Y-98197646D01*
X156266354Y-98634314D01*
X156779821Y-98977401D01*
X156929017Y-99039200D01*
X118600583Y-99039200D01*
X118749779Y-98977401D01*
X119263246Y-98634314D01*
X119699914Y-98197646D01*
X120043001Y-97684179D01*
X120279324Y-97113646D01*
X120399800Y-96507971D01*
X120399800Y-95890429D01*
X120279324Y-95284754D01*
X120043001Y-94714221D01*
X119699914Y-94200754D01*
X119263246Y-93764086D01*
X118749779Y-93420999D01*
X118179246Y-93184676D01*
X117573571Y-93064200D01*
X116956029Y-93064200D01*
X116350354Y-93184676D01*
X115779821Y-93420999D01*
X115266354Y-93764086D01*
X114829686Y-94200754D01*
X114486599Y-94714221D01*
X114424800Y-94863417D01*
X114424800Y-92513010D01*
X114634546Y-92653157D01*
X114892060Y-92759823D01*
X115165435Y-92814200D01*
X115444165Y-92814200D01*
X115717540Y-92759823D01*
X115975054Y-92653157D01*
X116206810Y-92498303D01*
X116403903Y-92301210D01*
X116558757Y-92069454D01*
X116574800Y-92030723D01*
X116590843Y-92069454D01*
X116745697Y-92301210D01*
X116942790Y-92498303D01*
X117174546Y-92653157D01*
X117432060Y-92759823D01*
X117705435Y-92814200D01*
X117984165Y-92814200D01*
X118257540Y-92759823D01*
X118515054Y-92653157D01*
X118746810Y-92498303D01*
X118943903Y-92301210D01*
X119098757Y-92069454D01*
X119114800Y-92030723D01*
X119130843Y-92069454D01*
X119285697Y-92301210D01*
X119482790Y-92498303D01*
X119714546Y-92653157D01*
X119972060Y-92759823D01*
X120245435Y-92814200D01*
X120524165Y-92814200D01*
X120797540Y-92759823D01*
X121055054Y-92653157D01*
X121286810Y-92498303D01*
X121483903Y-92301210D01*
X121638757Y-92069454D01*
X121654800Y-92030723D01*
X121670843Y-92069454D01*
X121825697Y-92301210D01*
X122022790Y-92498303D01*
X122254546Y-92653157D01*
X122512060Y-92759823D01*
X122785435Y-92814200D01*
X123064165Y-92814200D01*
X123337540Y-92759823D01*
X123595054Y-92653157D01*
X123826810Y-92498303D01*
X124023903Y-92301210D01*
X124178757Y-92069454D01*
X124194800Y-92030723D01*
X124210843Y-92069454D01*
X124365697Y-92301210D01*
X124562790Y-92498303D01*
X124794546Y-92653157D01*
X125052060Y-92759823D01*
X125325435Y-92814200D01*
X125604165Y-92814200D01*
X125877540Y-92759823D01*
X126135054Y-92653157D01*
X126366810Y-92498303D01*
X126563903Y-92301210D01*
X126718757Y-92069454D01*
X126734800Y-92030723D01*
X126750843Y-92069454D01*
X126905697Y-92301210D01*
X127102790Y-92498303D01*
X127334546Y-92653157D01*
X127592060Y-92759823D01*
X127865435Y-92814200D01*
X128144165Y-92814200D01*
X128417540Y-92759823D01*
X128675054Y-92653157D01*
X128906810Y-92498303D01*
X129103903Y-92301210D01*
X129258757Y-92069454D01*
X129274800Y-92030723D01*
X129290843Y-92069454D01*
X129445697Y-92301210D01*
X129642790Y-92498303D01*
X129874546Y-92653157D01*
X130132060Y-92759823D01*
X130405435Y-92814200D01*
X130684165Y-92814200D01*
X130957540Y-92759823D01*
X131215054Y-92653157D01*
X131446810Y-92498303D01*
X131643903Y-92301210D01*
X131798757Y-92069454D01*
X131814800Y-92030723D01*
X131830843Y-92069454D01*
X131985697Y-92301210D01*
X132182790Y-92498303D01*
X132414546Y-92653157D01*
X132672060Y-92759823D01*
X132945435Y-92814200D01*
X133224165Y-92814200D01*
X133497540Y-92759823D01*
X133755054Y-92653157D01*
X133986810Y-92498303D01*
X134183903Y-92301210D01*
X134338757Y-92069454D01*
X134354800Y-92030723D01*
X134370843Y-92069454D01*
X134525697Y-92301210D01*
X134722790Y-92498303D01*
X134954546Y-92653157D01*
X135212060Y-92759823D01*
X135485435Y-92814200D01*
X135764165Y-92814200D01*
X136037540Y-92759823D01*
X136295054Y-92653157D01*
X136526810Y-92498303D01*
X136723903Y-92301210D01*
X136878757Y-92069454D01*
X136894800Y-92030723D01*
X136910843Y-92069454D01*
X137065697Y-92301210D01*
X137262790Y-92498303D01*
X137494546Y-92653157D01*
X137752060Y-92759823D01*
X138025435Y-92814200D01*
X138304165Y-92814200D01*
X138577540Y-92759823D01*
X138835054Y-92653157D01*
X139066810Y-92498303D01*
X139263903Y-92301210D01*
X139418757Y-92069454D01*
X139434800Y-92030723D01*
X139450843Y-92069454D01*
X139605697Y-92301210D01*
X139802790Y-92498303D01*
X140034546Y-92653157D01*
X140292060Y-92759823D01*
X140565435Y-92814200D01*
X140844165Y-92814200D01*
X141117540Y-92759823D01*
X141375054Y-92653157D01*
X141606810Y-92498303D01*
X141803903Y-92301210D01*
X141958757Y-92069454D01*
X141974800Y-92030723D01*
X141990843Y-92069454D01*
X142145697Y-92301210D01*
X142342790Y-92498303D01*
X142574546Y-92653157D01*
X142832060Y-92759823D01*
X143105435Y-92814200D01*
X143384165Y-92814200D01*
X143657540Y-92759823D01*
X143915054Y-92653157D01*
X144146810Y-92498303D01*
X144343903Y-92301210D01*
X144498757Y-92069454D01*
X144514800Y-92030723D01*
X144530843Y-92069454D01*
X144685697Y-92301210D01*
X144882790Y-92498303D01*
X145114546Y-92653157D01*
X145372060Y-92759823D01*
X145645435Y-92814200D01*
X145924165Y-92814200D01*
X146197540Y-92759823D01*
X146455054Y-92653157D01*
X146686810Y-92498303D01*
X146883903Y-92301210D01*
X147038757Y-92069454D01*
X147054800Y-92030723D01*
X147070843Y-92069454D01*
X147225697Y-92301210D01*
X147422790Y-92498303D01*
X147654546Y-92653157D01*
X147912060Y-92759823D01*
X148185435Y-92814200D01*
X148464165Y-92814200D01*
X148737540Y-92759823D01*
X148995054Y-92653157D01*
X149226810Y-92498303D01*
X149423903Y-92301210D01*
X149578757Y-92069454D01*
X149594800Y-92030723D01*
X149610843Y-92069454D01*
X149765697Y-92301210D01*
X149962790Y-92498303D01*
X150194546Y-92653157D01*
X150452060Y-92759823D01*
X150725435Y-92814200D01*
X151004165Y-92814200D01*
X151277540Y-92759823D01*
X151535054Y-92653157D01*
X151766810Y-92498303D01*
X151963903Y-92301210D01*
X152118757Y-92069454D01*
X152134800Y-92030723D01*
X152150843Y-92069454D01*
X152305697Y-92301210D01*
X152502790Y-92498303D01*
X152734546Y-92653157D01*
X152992060Y-92759823D01*
X153265435Y-92814200D01*
X153544165Y-92814200D01*
X153817540Y-92759823D01*
X154075054Y-92653157D01*
X154306810Y-92498303D01*
X154503903Y-92301210D01*
X154658757Y-92069454D01*
X154674800Y-92030723D01*
X154690843Y-92069454D01*
X154845697Y-92301210D01*
X155042790Y-92498303D01*
X155274546Y-92653157D01*
X155532060Y-92759823D01*
X155805435Y-92814200D01*
X156084165Y-92814200D01*
X156357540Y-92759823D01*
X156615054Y-92653157D01*
X156846810Y-92498303D01*
X157043903Y-92301210D01*
X157198757Y-92069454D01*
X157214800Y-92030723D01*
X157230843Y-92069454D01*
X157385697Y-92301210D01*
X157582790Y-92498303D01*
X157814546Y-92653157D01*
X158072060Y-92759823D01*
X158345435Y-92814200D01*
X158624165Y-92814200D01*
X158897540Y-92759823D01*
X159155054Y-92653157D01*
X159386810Y-92498303D01*
X159507492Y-92377621D01*
X160225984Y-92377621D01*
X160295145Y-92619549D01*
X160547243Y-92738448D01*
X160817694Y-92805881D01*
X161096103Y-92819257D01*
X161371772Y-92778060D01*
X161634108Y-92683875D01*
X161754455Y-92619549D01*
X161823616Y-92377621D01*
X161024800Y-91578805D01*
X160225984Y-92377621D01*
X159507492Y-92377621D01*
X159583903Y-92301210D01*
X159738757Y-92069454D01*
X159753577Y-92033675D01*
X159804451Y-92128855D01*
X160046379Y-92198016D01*
X160845195Y-91399200D01*
X161204405Y-91399200D01*
X162003221Y-92198016D01*
X162140676Y-92158721D01*
X183119383Y-92158721D01*
X183161103Y-92443274D01*
X183257535Y-92714220D01*
X183327727Y-92845537D01*
X183574249Y-92920146D01*
X184405195Y-92089200D01*
X184764405Y-92089200D01*
X185595351Y-92920146D01*
X185841873Y-92845537D01*
X185965273Y-92585761D01*
X186035623Y-92306903D01*
X186050217Y-92019679D01*
X186008497Y-91735126D01*
X185912065Y-91464180D01*
X185841873Y-91332863D01*
X185595351Y-91258254D01*
X184764405Y-92089200D01*
X184405195Y-92089200D01*
X183574249Y-91258254D01*
X183327727Y-91332863D01*
X183204327Y-91592639D01*
X183133977Y-91871497D01*
X183119383Y-92158721D01*
X162140676Y-92158721D01*
X162245149Y-92128855D01*
X162364048Y-91876757D01*
X162431481Y-91606306D01*
X162444857Y-91327897D01*
X162403660Y-91052228D01*
X162309475Y-90789892D01*
X162245149Y-90669545D01*
X162003221Y-90600384D01*
X161204405Y-91399200D01*
X160845195Y-91399200D01*
X160046379Y-90600384D01*
X159804451Y-90669545D01*
X159756375Y-90771479D01*
X159738757Y-90728946D01*
X159583903Y-90497190D01*
X159507492Y-90420779D01*
X160225984Y-90420779D01*
X161024800Y-91219595D01*
X161823616Y-90420779D01*
X161754455Y-90178851D01*
X161502357Y-90059952D01*
X161231906Y-89992519D01*
X160953497Y-89979143D01*
X160677828Y-90020340D01*
X160415492Y-90114525D01*
X160295145Y-90178851D01*
X160225984Y-90420779D01*
X159507492Y-90420779D01*
X159386810Y-90300097D01*
X159155054Y-90145243D01*
X158897540Y-90038577D01*
X158624165Y-89984200D01*
X158345435Y-89984200D01*
X158072060Y-90038577D01*
X157814546Y-90145243D01*
X157582790Y-90300097D01*
X157385697Y-90497190D01*
X157230843Y-90728946D01*
X157214800Y-90767677D01*
X157198757Y-90728946D01*
X157043903Y-90497190D01*
X156846810Y-90300097D01*
X156765000Y-90245433D01*
X156765000Y-87707407D01*
X156769039Y-87666399D01*
X156765000Y-87625391D01*
X156765000Y-87625381D01*
X156752918Y-87502711D01*
X156705172Y-87345313D01*
X156627636Y-87200254D01*
X156523291Y-87073109D01*
X156491422Y-87046955D01*
X156425698Y-86981231D01*
X156544408Y-86883808D01*
X156695912Y-86699200D01*
X164322933Y-86699200D01*
X166909360Y-89285628D01*
X166935510Y-89317492D01*
X167018393Y-89385512D01*
X167062655Y-89421837D01*
X167207714Y-89499373D01*
X167365112Y-89547119D01*
X167528800Y-89563241D01*
X167569819Y-89559201D01*
X183124800Y-89559201D01*
X183124800Y-89692997D01*
X183180907Y-89975066D01*
X183290965Y-90240769D01*
X183450744Y-90479896D01*
X183654104Y-90683256D01*
X183855376Y-90817741D01*
X183828463Y-90832127D01*
X183753854Y-91078649D01*
X184584800Y-91909595D01*
X185415746Y-91078649D01*
X185341137Y-90832127D01*
X185312823Y-90818677D01*
X185515496Y-90683256D01*
X185718856Y-90479896D01*
X185878635Y-90240769D01*
X185988693Y-89975066D01*
X186044800Y-89692997D01*
X186044800Y-89405403D01*
X185988693Y-89123334D01*
X185878635Y-88857631D01*
X185718856Y-88618504D01*
X185515496Y-88415144D01*
X185312041Y-88279200D01*
X185515496Y-88143256D01*
X185718856Y-87939896D01*
X185878635Y-87700769D01*
X185988693Y-87435066D01*
X186044800Y-87152997D01*
X186044800Y-86865403D01*
X185988693Y-86583334D01*
X185878635Y-86317631D01*
X185718856Y-86078504D01*
X185515496Y-85875144D01*
X185312041Y-85739200D01*
X185515496Y-85603256D01*
X185718856Y-85399896D01*
X185878635Y-85160769D01*
X185988693Y-84895066D01*
X186044800Y-84612997D01*
X186044800Y-84325403D01*
X185988693Y-84043334D01*
X185878635Y-83777631D01*
X185718856Y-83538504D01*
X185515496Y-83335144D01*
X185312041Y-83199200D01*
X185515496Y-83063256D01*
X185718856Y-82859896D01*
X185878635Y-82620769D01*
X185988693Y-82355066D01*
X186044800Y-82072997D01*
X186044800Y-81785403D01*
X185988693Y-81503334D01*
X185878635Y-81237631D01*
X185718856Y-80998504D01*
X185515496Y-80795144D01*
X185314224Y-80660659D01*
X185341137Y-80646273D01*
X185415746Y-80399751D01*
X184584800Y-79568805D01*
X183753854Y-80399751D01*
X183828463Y-80646273D01*
X183856777Y-80659723D01*
X183654104Y-80795144D01*
X183450744Y-80998504D01*
X183290965Y-81237631D01*
X183180907Y-81503334D01*
X183124800Y-81785403D01*
X183124800Y-82072997D01*
X183180907Y-82355066D01*
X183290965Y-82620769D01*
X183416871Y-82809201D01*
X175277670Y-82809201D01*
X171929246Y-79460779D01*
X171927558Y-79458721D01*
X183119383Y-79458721D01*
X183161103Y-79743274D01*
X183257535Y-80014220D01*
X183327727Y-80145537D01*
X183574249Y-80220146D01*
X184405195Y-79389200D01*
X184764405Y-79389200D01*
X185595351Y-80220146D01*
X185841873Y-80145537D01*
X185965273Y-79885761D01*
X186035623Y-79606903D01*
X186050217Y-79319679D01*
X186008497Y-79035126D01*
X185912065Y-78764180D01*
X185841873Y-78632863D01*
X185595351Y-78558254D01*
X184764405Y-79389200D01*
X184405195Y-79389200D01*
X183574249Y-78558254D01*
X183327727Y-78632863D01*
X183204327Y-78892639D01*
X183133977Y-79171497D01*
X183119383Y-79458721D01*
X171927558Y-79458721D01*
X171903091Y-79428909D01*
X171775946Y-79324564D01*
X171630887Y-79247028D01*
X171473489Y-79199282D01*
X171350819Y-79187200D01*
X171350818Y-79187200D01*
X171309800Y-79183160D01*
X171268782Y-79187200D01*
X150104818Y-79187200D01*
X150063800Y-79183160D01*
X150022782Y-79187200D01*
X150022781Y-79187200D01*
X149900111Y-79199282D01*
X149742713Y-79247028D01*
X149597654Y-79324564D01*
X149518895Y-79389200D01*
X149470509Y-79428909D01*
X149444363Y-79460768D01*
X146708379Y-82196754D01*
X146676509Y-82222909D01*
X146618003Y-82294200D01*
X146572164Y-82350055D01*
X146494628Y-82495114D01*
X146446882Y-82652512D01*
X146430760Y-82816200D01*
X146434800Y-82857219D01*
X146434801Y-86348330D01*
X145901784Y-86881347D01*
X145937718Y-86762889D01*
X145949800Y-86640219D01*
X145949800Y-86640218D01*
X145953840Y-86599200D01*
X145949800Y-86558182D01*
X145949800Y-86040044D01*
X146035250Y-85954594D01*
X146164934Y-85760508D01*
X146254261Y-85544852D01*
X146299800Y-85315912D01*
X146299800Y-85082488D01*
X146254261Y-84853548D01*
X146164934Y-84637892D01*
X146035250Y-84443806D01*
X145870194Y-84278750D01*
X145676108Y-84149066D01*
X145460452Y-84059739D01*
X145231512Y-84014200D01*
X144998088Y-84014200D01*
X144769148Y-84059739D01*
X144553492Y-84149066D01*
X144479800Y-84198305D01*
X144406108Y-84149066D01*
X144190452Y-84059739D01*
X143961512Y-84014200D01*
X143728088Y-84014200D01*
X143499148Y-84059739D01*
X143409800Y-84096748D01*
X143409800Y-78378649D01*
X183753854Y-78378649D01*
X184584800Y-79209595D01*
X185415746Y-78378649D01*
X185341137Y-78132127D01*
X185081361Y-78008727D01*
X184802503Y-77938377D01*
X184515279Y-77923783D01*
X184230726Y-77965503D01*
X183959780Y-78061935D01*
X183828463Y-78132127D01*
X183753854Y-78378649D01*
X143409800Y-78378649D01*
X143409800Y-74800207D01*
X143413839Y-74759199D01*
X143409800Y-74718191D01*
X143409800Y-74718181D01*
X143397718Y-74595511D01*
X143349972Y-74438113D01*
X143272436Y-74293054D01*
X143168091Y-74165909D01*
X143136227Y-74139759D01*
X141539800Y-72543333D01*
X141539800Y-70482865D01*
X148882800Y-70482865D01*
X148882800Y-70765535D01*
X148937947Y-71042774D01*
X149046120Y-71303927D01*
X149203163Y-71538959D01*
X149403041Y-71738837D01*
X149638073Y-71895880D01*
X149899226Y-72004053D01*
X150176465Y-72059200D01*
X150459135Y-72059200D01*
X150736374Y-72004053D01*
X150997527Y-71895880D01*
X151232559Y-71738837D01*
X151432437Y-71538959D01*
X151589480Y-71303927D01*
X151697653Y-71042774D01*
X151752800Y-70765535D01*
X151752800Y-70482865D01*
X154089800Y-70482865D01*
X154089800Y-70765535D01*
X154144947Y-71042774D01*
X154253120Y-71303927D01*
X154410163Y-71538959D01*
X154610041Y-71738837D01*
X154845073Y-71895880D01*
X155106226Y-72004053D01*
X155383465Y-72059200D01*
X155666135Y-72059200D01*
X155943374Y-72004053D01*
X156204527Y-71895880D01*
X156439559Y-71738837D01*
X156639437Y-71538959D01*
X156796480Y-71303927D01*
X156904653Y-71042774D01*
X156959800Y-70765535D01*
X156959800Y-70482865D01*
X156904653Y-70205626D01*
X156796480Y-69944473D01*
X156639437Y-69709441D01*
X156439559Y-69509563D01*
X156204527Y-69352520D01*
X155943374Y-69244347D01*
X155666135Y-69189200D01*
X155383465Y-69189200D01*
X155106226Y-69244347D01*
X154845073Y-69352520D01*
X154610041Y-69509563D01*
X154410163Y-69709441D01*
X154253120Y-69944473D01*
X154144947Y-70205626D01*
X154089800Y-70482865D01*
X151752800Y-70482865D01*
X151697653Y-70205626D01*
X151589480Y-69944473D01*
X151432437Y-69709441D01*
X151232559Y-69509563D01*
X150997527Y-69352520D01*
X150736374Y-69244347D01*
X150459135Y-69189200D01*
X150176465Y-69189200D01*
X149899226Y-69244347D01*
X149638073Y-69352520D01*
X149403041Y-69509563D01*
X149203163Y-69709441D01*
X149046120Y-69944473D01*
X148937947Y-70205626D01*
X148882800Y-70482865D01*
X141539800Y-70482865D01*
X141539800Y-67143078D01*
X141606810Y-67098303D01*
X141803903Y-66901210D01*
X141958757Y-66669454D01*
X141974800Y-66630723D01*
X141990843Y-66669454D01*
X142145697Y-66901210D01*
X142342790Y-67098303D01*
X142574546Y-67253157D01*
X142832060Y-67359823D01*
X143105435Y-67414200D01*
X143384165Y-67414200D01*
X143657540Y-67359823D01*
X143915054Y-67253157D01*
X144146810Y-67098303D01*
X144343903Y-66901210D01*
X144498757Y-66669454D01*
X144514800Y-66630723D01*
X144530843Y-66669454D01*
X144685697Y-66901210D01*
X144882790Y-67098303D01*
X145114546Y-67253157D01*
X145372060Y-67359823D01*
X145645435Y-67414200D01*
X145924165Y-67414200D01*
X146197540Y-67359823D01*
X146455054Y-67253157D01*
X146686810Y-67098303D01*
X146883903Y-66901210D01*
X147038757Y-66669454D01*
X147054800Y-66630723D01*
X147070843Y-66669454D01*
X147225697Y-66901210D01*
X147422790Y-67098303D01*
X147654546Y-67253157D01*
X147912060Y-67359823D01*
X148185435Y-67414200D01*
X148464165Y-67414200D01*
X148737540Y-67359823D01*
X148995054Y-67253157D01*
X149226810Y-67098303D01*
X149423903Y-66901210D01*
X149578757Y-66669454D01*
X149594800Y-66630723D01*
X149610843Y-66669454D01*
X149765697Y-66901210D01*
X149962790Y-67098303D01*
X150194546Y-67253157D01*
X150452060Y-67359823D01*
X150725435Y-67414200D01*
X151004165Y-67414200D01*
X151277540Y-67359823D01*
X151535054Y-67253157D01*
X151766810Y-67098303D01*
X151963903Y-66901210D01*
X152118757Y-66669454D01*
X152134800Y-66630723D01*
X152150843Y-66669454D01*
X152305697Y-66901210D01*
X152502790Y-67098303D01*
X152734546Y-67253157D01*
X152992060Y-67359823D01*
X153265435Y-67414200D01*
X153544165Y-67414200D01*
X153817540Y-67359823D01*
X154075054Y-67253157D01*
X154306810Y-67098303D01*
X154503903Y-66901210D01*
X154658757Y-66669454D01*
X154674800Y-66630723D01*
X154690843Y-66669454D01*
X154845697Y-66901210D01*
X155042790Y-67098303D01*
X155274546Y-67253157D01*
X155532060Y-67359823D01*
X155805435Y-67414200D01*
X156084165Y-67414200D01*
X156357540Y-67359823D01*
X156615054Y-67253157D01*
X156846810Y-67098303D01*
X157043903Y-66901210D01*
X157198757Y-66669454D01*
X157214800Y-66630723D01*
X157230843Y-66669454D01*
X157385697Y-66901210D01*
X157582790Y-67098303D01*
X157814546Y-67253157D01*
X158072060Y-67359823D01*
X158345435Y-67414200D01*
X158624165Y-67414200D01*
X158897540Y-67359823D01*
X159155054Y-67253157D01*
X159386810Y-67098303D01*
X159583903Y-66901210D01*
X159614269Y-66855764D01*
X159618988Y-66903682D01*
X159655298Y-67023380D01*
X159714263Y-67133694D01*
X159793615Y-67230385D01*
X159890306Y-67309737D01*
X160000620Y-67368702D01*
X160120318Y-67405012D01*
X160244800Y-67417272D01*
X161804800Y-67417272D01*
X161929282Y-67405012D01*
X162048980Y-67368702D01*
X162159294Y-67309737D01*
X162255985Y-67230385D01*
X162335337Y-67133694D01*
X162394302Y-67023380D01*
X162430612Y-66903682D01*
X162442872Y-66779200D01*
X162442872Y-65219200D01*
X162430612Y-65094718D01*
X162394302Y-64975020D01*
X162335337Y-64864706D01*
X162255985Y-64768015D01*
X162159294Y-64688663D01*
X162048980Y-64629698D01*
X161929282Y-64593388D01*
X161804800Y-64581128D01*
X160244800Y-64581128D01*
X160120318Y-64593388D01*
X160000620Y-64629698D01*
X159890306Y-64688663D01*
X159793615Y-64768015D01*
X159714263Y-64864706D01*
X159655298Y-64975020D01*
X159618988Y-65094718D01*
X159614269Y-65142636D01*
X159583903Y-65097190D01*
X159386810Y-64900097D01*
X159155054Y-64745243D01*
X158897540Y-64638577D01*
X158624165Y-64584200D01*
X158345435Y-64584200D01*
X158072060Y-64638577D01*
X157814546Y-64745243D01*
X157582790Y-64900097D01*
X157385697Y-65097190D01*
X157230843Y-65328946D01*
X157214800Y-65367677D01*
X157198757Y-65328946D01*
X157043903Y-65097190D01*
X156846810Y-64900097D01*
X156615054Y-64745243D01*
X156357540Y-64638577D01*
X156084165Y-64584200D01*
X155805435Y-64584200D01*
X155532060Y-64638577D01*
X155274546Y-64745243D01*
X155042790Y-64900097D01*
X154845697Y-65097190D01*
X154690843Y-65328946D01*
X154674800Y-65367677D01*
X154658757Y-65328946D01*
X154503903Y-65097190D01*
X154306810Y-64900097D01*
X154075054Y-64745243D01*
X153817540Y-64638577D01*
X153544165Y-64584200D01*
X153265435Y-64584200D01*
X152992060Y-64638577D01*
X152734546Y-64745243D01*
X152502790Y-64900097D01*
X152305697Y-65097190D01*
X152150843Y-65328946D01*
X152134800Y-65367677D01*
X152118757Y-65328946D01*
X151963903Y-65097190D01*
X151766810Y-64900097D01*
X151535054Y-64745243D01*
X151277540Y-64638577D01*
X151004165Y-64584200D01*
X150725435Y-64584200D01*
X150452060Y-64638577D01*
X150194546Y-64745243D01*
X149962790Y-64900097D01*
X149765697Y-65097190D01*
X149610843Y-65328946D01*
X149594800Y-65367677D01*
X149578757Y-65328946D01*
X149423903Y-65097190D01*
X149226810Y-64900097D01*
X148995054Y-64745243D01*
X148737540Y-64638577D01*
X148464165Y-64584200D01*
X148185435Y-64584200D01*
X147912060Y-64638577D01*
X147654546Y-64745243D01*
X147422790Y-64900097D01*
X147225697Y-65097190D01*
X147070843Y-65328946D01*
X147054800Y-65367677D01*
X147038757Y-65328946D01*
X146883903Y-65097190D01*
X146686810Y-64900097D01*
X146455054Y-64745243D01*
X146197540Y-64638577D01*
X145924165Y-64584200D01*
X145645435Y-64584200D01*
X145372060Y-64638577D01*
X145114546Y-64745243D01*
X144882790Y-64900097D01*
X144685697Y-65097190D01*
X144530843Y-65328946D01*
X144514800Y-65367677D01*
X144498757Y-65328946D01*
X144343903Y-65097190D01*
X144146810Y-64900097D01*
X143915054Y-64745243D01*
X143657540Y-64638577D01*
X143384165Y-64584200D01*
X143105435Y-64584200D01*
X142832060Y-64638577D01*
X142574546Y-64745243D01*
X142342790Y-64900097D01*
X142145697Y-65097190D01*
X141990843Y-65328946D01*
X141974800Y-65367677D01*
X141958757Y-65328946D01*
X141803903Y-65097190D01*
X141606810Y-64900097D01*
X141375054Y-64745243D01*
X141117540Y-64638577D01*
X140844165Y-64584200D01*
X140565435Y-64584200D01*
X140292060Y-64638577D01*
X140034546Y-64745243D01*
X139802790Y-64900097D01*
X139605697Y-65097190D01*
X139450843Y-65328946D01*
X139434800Y-65367677D01*
X139418757Y-65328946D01*
X139263903Y-65097190D01*
X139066810Y-64900097D01*
X138835054Y-64745243D01*
X138577540Y-64638577D01*
X138304165Y-64584200D01*
X138025435Y-64584200D01*
X137752060Y-64638577D01*
X137494546Y-64745243D01*
X137262790Y-64900097D01*
X137065697Y-65097190D01*
X136910843Y-65328946D01*
X136894800Y-65367677D01*
X136878757Y-65328946D01*
X136723903Y-65097190D01*
X136526810Y-64900097D01*
X136295054Y-64745243D01*
X136037540Y-64638577D01*
X135764165Y-64584200D01*
X135485435Y-64584200D01*
X135212060Y-64638577D01*
X134954546Y-64745243D01*
X134722790Y-64900097D01*
X134525697Y-65097190D01*
X134370843Y-65328946D01*
X134354800Y-65367677D01*
X134338757Y-65328946D01*
X134183903Y-65097190D01*
X133986810Y-64900097D01*
X133755054Y-64745243D01*
X133497540Y-64638577D01*
X133224165Y-64584200D01*
X132945435Y-64584200D01*
X132672060Y-64638577D01*
X132414546Y-64745243D01*
X132182790Y-64900097D01*
X131985697Y-65097190D01*
X131830843Y-65328946D01*
X131814800Y-65367677D01*
X131798757Y-65328946D01*
X131643903Y-65097190D01*
X131446810Y-64900097D01*
X131215054Y-64745243D01*
X130957540Y-64638577D01*
X130684165Y-64584200D01*
X130405435Y-64584200D01*
X130132060Y-64638577D01*
X129874546Y-64745243D01*
X129642790Y-64900097D01*
X129445697Y-65097190D01*
X129290843Y-65328946D01*
X129274800Y-65367677D01*
X129258757Y-65328946D01*
X129103903Y-65097190D01*
X128906810Y-64900097D01*
X128675054Y-64745243D01*
X128417540Y-64638577D01*
X128144165Y-64584200D01*
X127865435Y-64584200D01*
X127592060Y-64638577D01*
X127334546Y-64745243D01*
X127102790Y-64900097D01*
X126905697Y-65097190D01*
X126750843Y-65328946D01*
X126734800Y-65367677D01*
X126718757Y-65328946D01*
X126563903Y-65097190D01*
X126366810Y-64900097D01*
X126135054Y-64745243D01*
X125877540Y-64638577D01*
X125604165Y-64584200D01*
X125325435Y-64584200D01*
X125052060Y-64638577D01*
X124794546Y-64745243D01*
X124562790Y-64900097D01*
X124365697Y-65097190D01*
X124210843Y-65328946D01*
X124194800Y-65367677D01*
X124178757Y-65328946D01*
X124023903Y-65097190D01*
X123826810Y-64900097D01*
X123595054Y-64745243D01*
X123337540Y-64638577D01*
X123064165Y-64584200D01*
X122785435Y-64584200D01*
X122512060Y-64638577D01*
X122254546Y-64745243D01*
X122022790Y-64900097D01*
X121825697Y-65097190D01*
X121670843Y-65328946D01*
X121654800Y-65367677D01*
X121638757Y-65328946D01*
X121483903Y-65097190D01*
X121286810Y-64900097D01*
X121055054Y-64745243D01*
X120797540Y-64638577D01*
X120524165Y-64584200D01*
X120245435Y-64584200D01*
X119972060Y-64638577D01*
X119714546Y-64745243D01*
X119482790Y-64900097D01*
X119285697Y-65097190D01*
X119130843Y-65328946D01*
X119114800Y-65367677D01*
X119098757Y-65328946D01*
X118943903Y-65097190D01*
X118746810Y-64900097D01*
X118515054Y-64745243D01*
X118257540Y-64638577D01*
X117984165Y-64584200D01*
X117705435Y-64584200D01*
X117432060Y-64638577D01*
X117174546Y-64745243D01*
X116942790Y-64900097D01*
X116745697Y-65097190D01*
X116590843Y-65328946D01*
X116574800Y-65367677D01*
X116558757Y-65328946D01*
X116403903Y-65097190D01*
X116206810Y-64900097D01*
X115975054Y-64745243D01*
X115717540Y-64638577D01*
X115444165Y-64584200D01*
X115165435Y-64584200D01*
X114892060Y-64638577D01*
X114634546Y-64745243D01*
X114424800Y-64885390D01*
X114424800Y-62534983D01*
X114486599Y-62684179D01*
X114829686Y-63197646D01*
X115266354Y-63634314D01*
X115779821Y-63977401D01*
X116350354Y-64213724D01*
X116956029Y-64334200D01*
X117573571Y-64334200D01*
X118179246Y-64213724D01*
X118749779Y-63977401D01*
X119263246Y-63634314D01*
X119699914Y-63197646D01*
X120043001Y-62684179D01*
X120279324Y-62113646D01*
X120399800Y-61507971D01*
X120399800Y-60890429D01*
X120279324Y-60284754D01*
X120043001Y-59714221D01*
X119699914Y-59200754D01*
X119263246Y-58764086D01*
X118749779Y-58420999D01*
X118600583Y-58359200D01*
X156929017Y-58359200D01*
X156779821Y-58420999D01*
X156779821Y-58420999D01*
G37*
X156779821Y-58420999D02*
X156266354Y-58764086D01*
X155829686Y-59200754D01*
X155486599Y-59714221D01*
X155250276Y-60284754D01*
X155129800Y-60890429D01*
X155129800Y-61507971D01*
X155250276Y-62113646D01*
X155486599Y-62684179D01*
X155829686Y-63197646D01*
X156266354Y-63634314D01*
X156779821Y-63977401D01*
X157350354Y-64213724D01*
X157956029Y-64334200D01*
X158573571Y-64334200D01*
X159179246Y-64213724D01*
X159749779Y-63977401D01*
X160263246Y-63634314D01*
X160699914Y-63197646D01*
X161043001Y-62684179D01*
X161165613Y-62388167D01*
X162879800Y-62388167D01*
X162879800Y-62710233D01*
X162942632Y-63026112D01*
X163065882Y-63323663D01*
X163244813Y-63591452D01*
X163472548Y-63819187D01*
X163740337Y-63998118D01*
X164037888Y-64121368D01*
X164353767Y-64184200D01*
X164675833Y-64184200D01*
X164991712Y-64121368D01*
X165289263Y-63998118D01*
X165557052Y-63819187D01*
X165784787Y-63591452D01*
X165963718Y-63323663D01*
X166086968Y-63026112D01*
X166149800Y-62710233D01*
X166149800Y-62388167D01*
X166086968Y-62072288D01*
X165963718Y-61774737D01*
X165784787Y-61506948D01*
X165557052Y-61279213D01*
X165289263Y-61100282D01*
X164991712Y-60977032D01*
X164675833Y-60914200D01*
X164353767Y-60914200D01*
X164037888Y-60977032D01*
X163740337Y-61100282D01*
X163472548Y-61279213D01*
X163244813Y-61506948D01*
X163065882Y-61774737D01*
X162942632Y-62072288D01*
X162879800Y-62388167D01*
X161165613Y-62388167D01*
X161279324Y-62113646D01*
X161399800Y-61507971D01*
X161399800Y-60890429D01*
X161279324Y-60284754D01*
X161043001Y-59714221D01*
X160699914Y-59200754D01*
X160263246Y-58764086D01*
X159749779Y-58420999D01*
X159600583Y-58359200D01*
X183732521Y-58359200D01*
X184218693Y-58406870D01*
X184655298Y-58538689D01*
X185057985Y-58752800D01*
X185411412Y-59041048D01*
X185702127Y-59392461D01*
X185919042Y-59793639D01*
X186053906Y-60229313D01*
X186104800Y-60713544D01*
X186104801Y-96666911D01*
X186057130Y-97153094D01*
X185925312Y-97589697D01*
X185711199Y-97992386D01*
X185422950Y-98345813D01*
X185071539Y-98636527D01*
X184670364Y-98853440D01*
X184234686Y-98988306D01*
X183750464Y-99039200D01*
X159600583Y-99039200D01*
X159749779Y-98977401D01*
X160263246Y-98634314D01*
X160699914Y-98197646D01*
X161043001Y-97684179D01*
X161279324Y-97113646D01*
X161399800Y-96507971D01*
X161399800Y-95890429D01*
X161279324Y-95284754D01*
X161043001Y-94714221D01*
X160825140Y-94388167D01*
X179079800Y-94388167D01*
X179079800Y-94710233D01*
X179142632Y-95026112D01*
X179265882Y-95323663D01*
X179444813Y-95591452D01*
X179672548Y-95819187D01*
X179940337Y-95998118D01*
X180237888Y-96121368D01*
X180553767Y-96184200D01*
X180875833Y-96184200D01*
X181191712Y-96121368D01*
X181489263Y-95998118D01*
X181757052Y-95819187D01*
X181984787Y-95591452D01*
X182163718Y-95323663D01*
X182286968Y-95026112D01*
X182349800Y-94710233D01*
X182349800Y-94388167D01*
X182286968Y-94072288D01*
X182175923Y-93804200D01*
X183121728Y-93804200D01*
X183121728Y-95454200D01*
X183133988Y-95578682D01*
X183170298Y-95698380D01*
X183229263Y-95808694D01*
X183308615Y-95905385D01*
X183405306Y-95984737D01*
X183515620Y-96043702D01*
X183635318Y-96080012D01*
X183759800Y-96092272D01*
X185409800Y-96092272D01*
X185534282Y-96080012D01*
X185653980Y-96043702D01*
X185764294Y-95984737D01*
X185860985Y-95905385D01*
X185940337Y-95808694D01*
X185999302Y-95698380D01*
X186035612Y-95578682D01*
X186047872Y-95454200D01*
X186047872Y-93804200D01*
X186035612Y-93679718D01*
X185999302Y-93560020D01*
X185940337Y-93449706D01*
X185860985Y-93353015D01*
X185764294Y-93273663D01*
X185653980Y-93214698D01*
X185534282Y-93178388D01*
X185409800Y-93166128D01*
X185395657Y-93166128D01*
X185415746Y-93099751D01*
X184584800Y-92268805D01*
X183753854Y-93099751D01*
X183773943Y-93166128D01*
X183759800Y-93166128D01*
X183635318Y-93178388D01*
X183515620Y-93214698D01*
X183405306Y-93273663D01*
X183308615Y-93353015D01*
X183229263Y-93449706D01*
X183170298Y-93560020D01*
X183133988Y-93679718D01*
X183121728Y-93804200D01*
X182175923Y-93804200D01*
X182163718Y-93774737D01*
X181984787Y-93506948D01*
X181757052Y-93279213D01*
X181489263Y-93100282D01*
X181191712Y-92977032D01*
X180875833Y-92914200D01*
X180553767Y-92914200D01*
X180237888Y-92977032D01*
X179940337Y-93100282D01*
X179672548Y-93279213D01*
X179444813Y-93506948D01*
X179265882Y-93774737D01*
X179142632Y-94072288D01*
X179079800Y-94388167D01*
X160825140Y-94388167D01*
X160699914Y-94200754D01*
X160263246Y-93764086D01*
X159749779Y-93420999D01*
X159179246Y-93184676D01*
X158573571Y-93064200D01*
X157956029Y-93064200D01*
X157350354Y-93184676D01*
X156779821Y-93420999D01*
X156266354Y-93764086D01*
X155829686Y-94200754D01*
X155486599Y-94714221D01*
X155250276Y-95284754D01*
X155129800Y-95890429D01*
X155129800Y-96507971D01*
X155250276Y-97113646D01*
X155486599Y-97684179D01*
X155829686Y-98197646D01*
X156266354Y-98634314D01*
X156779821Y-98977401D01*
X156929017Y-99039200D01*
X118600583Y-99039200D01*
X118749779Y-98977401D01*
X119263246Y-98634314D01*
X119699914Y-98197646D01*
X120043001Y-97684179D01*
X120279324Y-97113646D01*
X120399800Y-96507971D01*
X120399800Y-95890429D01*
X120279324Y-95284754D01*
X120043001Y-94714221D01*
X119699914Y-94200754D01*
X119263246Y-93764086D01*
X118749779Y-93420999D01*
X118179246Y-93184676D01*
X117573571Y-93064200D01*
X116956029Y-93064200D01*
X116350354Y-93184676D01*
X115779821Y-93420999D01*
X115266354Y-93764086D01*
X114829686Y-94200754D01*
X114486599Y-94714221D01*
X114424800Y-94863417D01*
X114424800Y-92513010D01*
X114634546Y-92653157D01*
X114892060Y-92759823D01*
X115165435Y-92814200D01*
X115444165Y-92814200D01*
X115717540Y-92759823D01*
X115975054Y-92653157D01*
X116206810Y-92498303D01*
X116403903Y-92301210D01*
X116558757Y-92069454D01*
X116574800Y-92030723D01*
X116590843Y-92069454D01*
X116745697Y-92301210D01*
X116942790Y-92498303D01*
X117174546Y-92653157D01*
X117432060Y-92759823D01*
X117705435Y-92814200D01*
X117984165Y-92814200D01*
X118257540Y-92759823D01*
X118515054Y-92653157D01*
X118746810Y-92498303D01*
X118943903Y-92301210D01*
X119098757Y-92069454D01*
X119114800Y-92030723D01*
X119130843Y-92069454D01*
X119285697Y-92301210D01*
X119482790Y-92498303D01*
X119714546Y-92653157D01*
X119972060Y-92759823D01*
X120245435Y-92814200D01*
X120524165Y-92814200D01*
X120797540Y-92759823D01*
X121055054Y-92653157D01*
X121286810Y-92498303D01*
X121483903Y-92301210D01*
X121638757Y-92069454D01*
X121654800Y-92030723D01*
X121670843Y-92069454D01*
X121825697Y-92301210D01*
X122022790Y-92498303D01*
X122254546Y-92653157D01*
X122512060Y-92759823D01*
X122785435Y-92814200D01*
X123064165Y-92814200D01*
X123337540Y-92759823D01*
X123595054Y-92653157D01*
X123826810Y-92498303D01*
X124023903Y-92301210D01*
X124178757Y-92069454D01*
X124194800Y-92030723D01*
X124210843Y-92069454D01*
X124365697Y-92301210D01*
X124562790Y-92498303D01*
X124794546Y-92653157D01*
X125052060Y-92759823D01*
X125325435Y-92814200D01*
X125604165Y-92814200D01*
X125877540Y-92759823D01*
X126135054Y-92653157D01*
X126366810Y-92498303D01*
X126563903Y-92301210D01*
X126718757Y-92069454D01*
X126734800Y-92030723D01*
X126750843Y-92069454D01*
X126905697Y-92301210D01*
X127102790Y-92498303D01*
X127334546Y-92653157D01*
X127592060Y-92759823D01*
X127865435Y-92814200D01*
X128144165Y-92814200D01*
X128417540Y-92759823D01*
X128675054Y-92653157D01*
X128906810Y-92498303D01*
X129103903Y-92301210D01*
X129258757Y-92069454D01*
X129274800Y-92030723D01*
X129290843Y-92069454D01*
X129445697Y-92301210D01*
X129642790Y-92498303D01*
X129874546Y-92653157D01*
X130132060Y-92759823D01*
X130405435Y-92814200D01*
X130684165Y-92814200D01*
X130957540Y-92759823D01*
X131215054Y-92653157D01*
X131446810Y-92498303D01*
X131643903Y-92301210D01*
X131798757Y-92069454D01*
X131814800Y-92030723D01*
X131830843Y-92069454D01*
X131985697Y-92301210D01*
X132182790Y-92498303D01*
X132414546Y-92653157D01*
X132672060Y-92759823D01*
X132945435Y-92814200D01*
X133224165Y-92814200D01*
X133497540Y-92759823D01*
X133755054Y-92653157D01*
X133986810Y-92498303D01*
X134183903Y-92301210D01*
X134338757Y-92069454D01*
X134354800Y-92030723D01*
X134370843Y-92069454D01*
X134525697Y-92301210D01*
X134722790Y-92498303D01*
X134954546Y-92653157D01*
X135212060Y-92759823D01*
X135485435Y-92814200D01*
X135764165Y-92814200D01*
X136037540Y-92759823D01*
X136295054Y-92653157D01*
X136526810Y-92498303D01*
X136723903Y-92301210D01*
X136878757Y-92069454D01*
X136894800Y-92030723D01*
X136910843Y-92069454D01*
X137065697Y-92301210D01*
X137262790Y-92498303D01*
X137494546Y-92653157D01*
X137752060Y-92759823D01*
X138025435Y-92814200D01*
X138304165Y-92814200D01*
X138577540Y-92759823D01*
X138835054Y-92653157D01*
X139066810Y-92498303D01*
X139263903Y-92301210D01*
X139418757Y-92069454D01*
X139434800Y-92030723D01*
X139450843Y-92069454D01*
X139605697Y-92301210D01*
X139802790Y-92498303D01*
X140034546Y-92653157D01*
X140292060Y-92759823D01*
X140565435Y-92814200D01*
X140844165Y-92814200D01*
X141117540Y-92759823D01*
X141375054Y-92653157D01*
X141606810Y-92498303D01*
X141803903Y-92301210D01*
X141958757Y-92069454D01*
X141974800Y-92030723D01*
X141990843Y-92069454D01*
X142145697Y-92301210D01*
X142342790Y-92498303D01*
X142574546Y-92653157D01*
X142832060Y-92759823D01*
X143105435Y-92814200D01*
X143384165Y-92814200D01*
X143657540Y-92759823D01*
X143915054Y-92653157D01*
X144146810Y-92498303D01*
X144343903Y-92301210D01*
X144498757Y-92069454D01*
X144514800Y-92030723D01*
X144530843Y-92069454D01*
X144685697Y-92301210D01*
X144882790Y-92498303D01*
X145114546Y-92653157D01*
X145372060Y-92759823D01*
X145645435Y-92814200D01*
X145924165Y-92814200D01*
X146197540Y-92759823D01*
X146455054Y-92653157D01*
X146686810Y-92498303D01*
X146883903Y-92301210D01*
X147038757Y-92069454D01*
X147054800Y-92030723D01*
X147070843Y-92069454D01*
X147225697Y-92301210D01*
X147422790Y-92498303D01*
X147654546Y-92653157D01*
X147912060Y-92759823D01*
X148185435Y-92814200D01*
X148464165Y-92814200D01*
X148737540Y-92759823D01*
X148995054Y-92653157D01*
X149226810Y-92498303D01*
X149423903Y-92301210D01*
X149578757Y-92069454D01*
X149594800Y-92030723D01*
X149610843Y-92069454D01*
X149765697Y-92301210D01*
X149962790Y-92498303D01*
X150194546Y-92653157D01*
X150452060Y-92759823D01*
X150725435Y-92814200D01*
X151004165Y-92814200D01*
X151277540Y-92759823D01*
X151535054Y-92653157D01*
X151766810Y-92498303D01*
X151963903Y-92301210D01*
X152118757Y-92069454D01*
X152134800Y-92030723D01*
X152150843Y-92069454D01*
X152305697Y-92301210D01*
X152502790Y-92498303D01*
X152734546Y-92653157D01*
X152992060Y-92759823D01*
X153265435Y-92814200D01*
X153544165Y-92814200D01*
X153817540Y-92759823D01*
X154075054Y-92653157D01*
X154306810Y-92498303D01*
X154503903Y-92301210D01*
X154658757Y-92069454D01*
X154674800Y-92030723D01*
X154690843Y-92069454D01*
X154845697Y-92301210D01*
X155042790Y-92498303D01*
X155274546Y-92653157D01*
X155532060Y-92759823D01*
X155805435Y-92814200D01*
X156084165Y-92814200D01*
X156357540Y-92759823D01*
X156615054Y-92653157D01*
X156846810Y-92498303D01*
X157043903Y-92301210D01*
X157198757Y-92069454D01*
X157214800Y-92030723D01*
X157230843Y-92069454D01*
X157385697Y-92301210D01*
X157582790Y-92498303D01*
X157814546Y-92653157D01*
X158072060Y-92759823D01*
X158345435Y-92814200D01*
X158624165Y-92814200D01*
X158897540Y-92759823D01*
X159155054Y-92653157D01*
X159386810Y-92498303D01*
X159507492Y-92377621D01*
X160225984Y-92377621D01*
X160295145Y-92619549D01*
X160547243Y-92738448D01*
X160817694Y-92805881D01*
X161096103Y-92819257D01*
X161371772Y-92778060D01*
X161634108Y-92683875D01*
X161754455Y-92619549D01*
X161823616Y-92377621D01*
X161024800Y-91578805D01*
X160225984Y-92377621D01*
X159507492Y-92377621D01*
X159583903Y-92301210D01*
X159738757Y-92069454D01*
X159753577Y-92033675D01*
X159804451Y-92128855D01*
X160046379Y-92198016D01*
X160845195Y-91399200D01*
X161204405Y-91399200D01*
X162003221Y-92198016D01*
X162140676Y-92158721D01*
X183119383Y-92158721D01*
X183161103Y-92443274D01*
X183257535Y-92714220D01*
X183327727Y-92845537D01*
X183574249Y-92920146D01*
X184405195Y-92089200D01*
X184764405Y-92089200D01*
X185595351Y-92920146D01*
X185841873Y-92845537D01*
X185965273Y-92585761D01*
X186035623Y-92306903D01*
X186050217Y-92019679D01*
X186008497Y-91735126D01*
X185912065Y-91464180D01*
X185841873Y-91332863D01*
X185595351Y-91258254D01*
X184764405Y-92089200D01*
X184405195Y-92089200D01*
X183574249Y-91258254D01*
X183327727Y-91332863D01*
X183204327Y-91592639D01*
X183133977Y-91871497D01*
X183119383Y-92158721D01*
X162140676Y-92158721D01*
X162245149Y-92128855D01*
X162364048Y-91876757D01*
X162431481Y-91606306D01*
X162444857Y-91327897D01*
X162403660Y-91052228D01*
X162309475Y-90789892D01*
X162245149Y-90669545D01*
X162003221Y-90600384D01*
X161204405Y-91399200D01*
X160845195Y-91399200D01*
X160046379Y-90600384D01*
X159804451Y-90669545D01*
X159756375Y-90771479D01*
X159738757Y-90728946D01*
X159583903Y-90497190D01*
X159507492Y-90420779D01*
X160225984Y-90420779D01*
X161024800Y-91219595D01*
X161823616Y-90420779D01*
X161754455Y-90178851D01*
X161502357Y-90059952D01*
X161231906Y-89992519D01*
X160953497Y-89979143D01*
X160677828Y-90020340D01*
X160415492Y-90114525D01*
X160295145Y-90178851D01*
X160225984Y-90420779D01*
X159507492Y-90420779D01*
X159386810Y-90300097D01*
X159155054Y-90145243D01*
X158897540Y-90038577D01*
X158624165Y-89984200D01*
X158345435Y-89984200D01*
X158072060Y-90038577D01*
X157814546Y-90145243D01*
X157582790Y-90300097D01*
X157385697Y-90497190D01*
X157230843Y-90728946D01*
X157214800Y-90767677D01*
X157198757Y-90728946D01*
X157043903Y-90497190D01*
X156846810Y-90300097D01*
X156765000Y-90245433D01*
X156765000Y-87707407D01*
X156769039Y-87666399D01*
X156765000Y-87625391D01*
X156765000Y-87625381D01*
X156752918Y-87502711D01*
X156705172Y-87345313D01*
X156627636Y-87200254D01*
X156523291Y-87073109D01*
X156491422Y-87046955D01*
X156425698Y-86981231D01*
X156544408Y-86883808D01*
X156695912Y-86699200D01*
X164322933Y-86699200D01*
X166909360Y-89285628D01*
X166935510Y-89317492D01*
X167018393Y-89385512D01*
X167062655Y-89421837D01*
X167207714Y-89499373D01*
X167365112Y-89547119D01*
X167528800Y-89563241D01*
X167569819Y-89559201D01*
X183124800Y-89559201D01*
X183124800Y-89692997D01*
X183180907Y-89975066D01*
X183290965Y-90240769D01*
X183450744Y-90479896D01*
X183654104Y-90683256D01*
X183855376Y-90817741D01*
X183828463Y-90832127D01*
X183753854Y-91078649D01*
X184584800Y-91909595D01*
X185415746Y-91078649D01*
X185341137Y-90832127D01*
X185312823Y-90818677D01*
X185515496Y-90683256D01*
X185718856Y-90479896D01*
X185878635Y-90240769D01*
X185988693Y-89975066D01*
X186044800Y-89692997D01*
X186044800Y-89405403D01*
X185988693Y-89123334D01*
X185878635Y-88857631D01*
X185718856Y-88618504D01*
X185515496Y-88415144D01*
X185312041Y-88279200D01*
X185515496Y-88143256D01*
X185718856Y-87939896D01*
X185878635Y-87700769D01*
X185988693Y-87435066D01*
X186044800Y-87152997D01*
X186044800Y-86865403D01*
X185988693Y-86583334D01*
X185878635Y-86317631D01*
X185718856Y-86078504D01*
X185515496Y-85875144D01*
X185312041Y-85739200D01*
X185515496Y-85603256D01*
X185718856Y-85399896D01*
X185878635Y-85160769D01*
X185988693Y-84895066D01*
X186044800Y-84612997D01*
X186044800Y-84325403D01*
X185988693Y-84043334D01*
X185878635Y-83777631D01*
X185718856Y-83538504D01*
X185515496Y-83335144D01*
X185312041Y-83199200D01*
X185515496Y-83063256D01*
X185718856Y-82859896D01*
X185878635Y-82620769D01*
X185988693Y-82355066D01*
X186044800Y-82072997D01*
X186044800Y-81785403D01*
X185988693Y-81503334D01*
X185878635Y-81237631D01*
X185718856Y-80998504D01*
X185515496Y-80795144D01*
X185314224Y-80660659D01*
X185341137Y-80646273D01*
X185415746Y-80399751D01*
X184584800Y-79568805D01*
X183753854Y-80399751D01*
X183828463Y-80646273D01*
X183856777Y-80659723D01*
X183654104Y-80795144D01*
X183450744Y-80998504D01*
X183290965Y-81237631D01*
X183180907Y-81503334D01*
X183124800Y-81785403D01*
X183124800Y-82072997D01*
X183180907Y-82355066D01*
X183290965Y-82620769D01*
X183416871Y-82809201D01*
X175277670Y-82809201D01*
X171929246Y-79460779D01*
X171927558Y-79458721D01*
X183119383Y-79458721D01*
X183161103Y-79743274D01*
X183257535Y-80014220D01*
X183327727Y-80145537D01*
X183574249Y-80220146D01*
X184405195Y-79389200D01*
X184764405Y-79389200D01*
X185595351Y-80220146D01*
X185841873Y-80145537D01*
X185965273Y-79885761D01*
X186035623Y-79606903D01*
X186050217Y-79319679D01*
X186008497Y-79035126D01*
X185912065Y-78764180D01*
X185841873Y-78632863D01*
X185595351Y-78558254D01*
X184764405Y-79389200D01*
X184405195Y-79389200D01*
X183574249Y-78558254D01*
X183327727Y-78632863D01*
X183204327Y-78892639D01*
X183133977Y-79171497D01*
X183119383Y-79458721D01*
X171927558Y-79458721D01*
X171903091Y-79428909D01*
X171775946Y-79324564D01*
X171630887Y-79247028D01*
X171473489Y-79199282D01*
X171350819Y-79187200D01*
X171350818Y-79187200D01*
X171309800Y-79183160D01*
X171268782Y-79187200D01*
X150104818Y-79187200D01*
X150063800Y-79183160D01*
X150022782Y-79187200D01*
X150022781Y-79187200D01*
X149900111Y-79199282D01*
X149742713Y-79247028D01*
X149597654Y-79324564D01*
X149518895Y-79389200D01*
X149470509Y-79428909D01*
X149444363Y-79460768D01*
X146708379Y-82196754D01*
X146676509Y-82222909D01*
X146618003Y-82294200D01*
X146572164Y-82350055D01*
X146494628Y-82495114D01*
X146446882Y-82652512D01*
X146430760Y-82816200D01*
X146434800Y-82857219D01*
X146434801Y-86348330D01*
X145901784Y-86881347D01*
X145937718Y-86762889D01*
X145949800Y-86640219D01*
X145949800Y-86640218D01*
X145953840Y-86599200D01*
X145949800Y-86558182D01*
X145949800Y-86040044D01*
X146035250Y-85954594D01*
X146164934Y-85760508D01*
X146254261Y-85544852D01*
X146299800Y-85315912D01*
X146299800Y-85082488D01*
X146254261Y-84853548D01*
X146164934Y-84637892D01*
X146035250Y-84443806D01*
X145870194Y-84278750D01*
X145676108Y-84149066D01*
X145460452Y-84059739D01*
X145231512Y-84014200D01*
X144998088Y-84014200D01*
X144769148Y-84059739D01*
X144553492Y-84149066D01*
X144479800Y-84198305D01*
X144406108Y-84149066D01*
X144190452Y-84059739D01*
X143961512Y-84014200D01*
X143728088Y-84014200D01*
X143499148Y-84059739D01*
X143409800Y-84096748D01*
X143409800Y-78378649D01*
X183753854Y-78378649D01*
X184584800Y-79209595D01*
X185415746Y-78378649D01*
X185341137Y-78132127D01*
X185081361Y-78008727D01*
X184802503Y-77938377D01*
X184515279Y-77923783D01*
X184230726Y-77965503D01*
X183959780Y-78061935D01*
X183828463Y-78132127D01*
X183753854Y-78378649D01*
X143409800Y-78378649D01*
X143409800Y-74800207D01*
X143413839Y-74759199D01*
X143409800Y-74718191D01*
X143409800Y-74718181D01*
X143397718Y-74595511D01*
X143349972Y-74438113D01*
X143272436Y-74293054D01*
X143168091Y-74165909D01*
X143136227Y-74139759D01*
X141539800Y-72543333D01*
X141539800Y-70482865D01*
X148882800Y-70482865D01*
X148882800Y-70765535D01*
X148937947Y-71042774D01*
X149046120Y-71303927D01*
X149203163Y-71538959D01*
X149403041Y-71738837D01*
X149638073Y-71895880D01*
X149899226Y-72004053D01*
X150176465Y-72059200D01*
X150459135Y-72059200D01*
X150736374Y-72004053D01*
X150997527Y-71895880D01*
X151232559Y-71738837D01*
X151432437Y-71538959D01*
X151589480Y-71303927D01*
X151697653Y-71042774D01*
X151752800Y-70765535D01*
X151752800Y-70482865D01*
X154089800Y-70482865D01*
X154089800Y-70765535D01*
X154144947Y-71042774D01*
X154253120Y-71303927D01*
X154410163Y-71538959D01*
X154610041Y-71738837D01*
X154845073Y-71895880D01*
X155106226Y-72004053D01*
X155383465Y-72059200D01*
X155666135Y-72059200D01*
X155943374Y-72004053D01*
X156204527Y-71895880D01*
X156439559Y-71738837D01*
X156639437Y-71538959D01*
X156796480Y-71303927D01*
X156904653Y-71042774D01*
X156959800Y-70765535D01*
X156959800Y-70482865D01*
X156904653Y-70205626D01*
X156796480Y-69944473D01*
X156639437Y-69709441D01*
X156439559Y-69509563D01*
X156204527Y-69352520D01*
X155943374Y-69244347D01*
X155666135Y-69189200D01*
X155383465Y-69189200D01*
X155106226Y-69244347D01*
X154845073Y-69352520D01*
X154610041Y-69509563D01*
X154410163Y-69709441D01*
X154253120Y-69944473D01*
X154144947Y-70205626D01*
X154089800Y-70482865D01*
X151752800Y-70482865D01*
X151697653Y-70205626D01*
X151589480Y-69944473D01*
X151432437Y-69709441D01*
X151232559Y-69509563D01*
X150997527Y-69352520D01*
X150736374Y-69244347D01*
X150459135Y-69189200D01*
X150176465Y-69189200D01*
X149899226Y-69244347D01*
X149638073Y-69352520D01*
X149403041Y-69509563D01*
X149203163Y-69709441D01*
X149046120Y-69944473D01*
X148937947Y-70205626D01*
X148882800Y-70482865D01*
X141539800Y-70482865D01*
X141539800Y-67143078D01*
X141606810Y-67098303D01*
X141803903Y-66901210D01*
X141958757Y-66669454D01*
X141974800Y-66630723D01*
X141990843Y-66669454D01*
X142145697Y-66901210D01*
X142342790Y-67098303D01*
X142574546Y-67253157D01*
X142832060Y-67359823D01*
X143105435Y-67414200D01*
X143384165Y-67414200D01*
X143657540Y-67359823D01*
X143915054Y-67253157D01*
X144146810Y-67098303D01*
X144343903Y-66901210D01*
X144498757Y-66669454D01*
X144514800Y-66630723D01*
X144530843Y-66669454D01*
X144685697Y-66901210D01*
X144882790Y-67098303D01*
X145114546Y-67253157D01*
X145372060Y-67359823D01*
X145645435Y-67414200D01*
X145924165Y-67414200D01*
X146197540Y-67359823D01*
X146455054Y-67253157D01*
X146686810Y-67098303D01*
X146883903Y-66901210D01*
X147038757Y-66669454D01*
X147054800Y-66630723D01*
X147070843Y-66669454D01*
X147225697Y-66901210D01*
X147422790Y-67098303D01*
X147654546Y-67253157D01*
X147912060Y-67359823D01*
X148185435Y-67414200D01*
X148464165Y-67414200D01*
X148737540Y-67359823D01*
X148995054Y-67253157D01*
X149226810Y-67098303D01*
X149423903Y-66901210D01*
X149578757Y-66669454D01*
X149594800Y-66630723D01*
X149610843Y-66669454D01*
X149765697Y-66901210D01*
X149962790Y-67098303D01*
X150194546Y-67253157D01*
X150452060Y-67359823D01*
X150725435Y-67414200D01*
X151004165Y-67414200D01*
X151277540Y-67359823D01*
X151535054Y-67253157D01*
X151766810Y-67098303D01*
X151963903Y-66901210D01*
X152118757Y-66669454D01*
X152134800Y-66630723D01*
X152150843Y-66669454D01*
X152305697Y-66901210D01*
X152502790Y-67098303D01*
X152734546Y-67253157D01*
X152992060Y-67359823D01*
X153265435Y-67414200D01*
X153544165Y-67414200D01*
X153817540Y-67359823D01*
X154075054Y-67253157D01*
X154306810Y-67098303D01*
X154503903Y-66901210D01*
X154658757Y-66669454D01*
X154674800Y-66630723D01*
X154690843Y-66669454D01*
X154845697Y-66901210D01*
X155042790Y-67098303D01*
X155274546Y-67253157D01*
X155532060Y-67359823D01*
X155805435Y-67414200D01*
X156084165Y-67414200D01*
X156357540Y-67359823D01*
X156615054Y-67253157D01*
X156846810Y-67098303D01*
X157043903Y-66901210D01*
X157198757Y-66669454D01*
X157214800Y-66630723D01*
X157230843Y-66669454D01*
X157385697Y-66901210D01*
X157582790Y-67098303D01*
X157814546Y-67253157D01*
X158072060Y-67359823D01*
X158345435Y-67414200D01*
X158624165Y-67414200D01*
X158897540Y-67359823D01*
X159155054Y-67253157D01*
X159386810Y-67098303D01*
X159583903Y-66901210D01*
X159614269Y-66855764D01*
X159618988Y-66903682D01*
X159655298Y-67023380D01*
X159714263Y-67133694D01*
X159793615Y-67230385D01*
X159890306Y-67309737D01*
X160000620Y-67368702D01*
X160120318Y-67405012D01*
X160244800Y-67417272D01*
X161804800Y-67417272D01*
X161929282Y-67405012D01*
X162048980Y-67368702D01*
X162159294Y-67309737D01*
X162255985Y-67230385D01*
X162335337Y-67133694D01*
X162394302Y-67023380D01*
X162430612Y-66903682D01*
X162442872Y-66779200D01*
X162442872Y-65219200D01*
X162430612Y-65094718D01*
X162394302Y-64975020D01*
X162335337Y-64864706D01*
X162255985Y-64768015D01*
X162159294Y-64688663D01*
X162048980Y-64629698D01*
X161929282Y-64593388D01*
X161804800Y-64581128D01*
X160244800Y-64581128D01*
X160120318Y-64593388D01*
X160000620Y-64629698D01*
X159890306Y-64688663D01*
X159793615Y-64768015D01*
X159714263Y-64864706D01*
X159655298Y-64975020D01*
X159618988Y-65094718D01*
X159614269Y-65142636D01*
X159583903Y-65097190D01*
X159386810Y-64900097D01*
X159155054Y-64745243D01*
X158897540Y-64638577D01*
X158624165Y-64584200D01*
X158345435Y-64584200D01*
X158072060Y-64638577D01*
X157814546Y-64745243D01*
X157582790Y-64900097D01*
X157385697Y-65097190D01*
X157230843Y-65328946D01*
X157214800Y-65367677D01*
X157198757Y-65328946D01*
X157043903Y-65097190D01*
X156846810Y-64900097D01*
X156615054Y-64745243D01*
X156357540Y-64638577D01*
X156084165Y-64584200D01*
X155805435Y-64584200D01*
X155532060Y-64638577D01*
X155274546Y-64745243D01*
X155042790Y-64900097D01*
X154845697Y-65097190D01*
X154690843Y-65328946D01*
X154674800Y-65367677D01*
X154658757Y-65328946D01*
X154503903Y-65097190D01*
X154306810Y-64900097D01*
X154075054Y-64745243D01*
X153817540Y-64638577D01*
X153544165Y-64584200D01*
X153265435Y-64584200D01*
X152992060Y-64638577D01*
X152734546Y-64745243D01*
X152502790Y-64900097D01*
X152305697Y-65097190D01*
X152150843Y-65328946D01*
X152134800Y-65367677D01*
X152118757Y-65328946D01*
X151963903Y-65097190D01*
X151766810Y-64900097D01*
X151535054Y-64745243D01*
X151277540Y-64638577D01*
X151004165Y-64584200D01*
X150725435Y-64584200D01*
X150452060Y-64638577D01*
X150194546Y-64745243D01*
X149962790Y-64900097D01*
X149765697Y-65097190D01*
X149610843Y-65328946D01*
X149594800Y-65367677D01*
X149578757Y-65328946D01*
X149423903Y-65097190D01*
X149226810Y-64900097D01*
X148995054Y-64745243D01*
X148737540Y-64638577D01*
X148464165Y-64584200D01*
X148185435Y-64584200D01*
X147912060Y-64638577D01*
X147654546Y-64745243D01*
X147422790Y-64900097D01*
X147225697Y-65097190D01*
X147070843Y-65328946D01*
X147054800Y-65367677D01*
X147038757Y-65328946D01*
X146883903Y-65097190D01*
X146686810Y-64900097D01*
X146455054Y-64745243D01*
X146197540Y-64638577D01*
X145924165Y-64584200D01*
X145645435Y-64584200D01*
X145372060Y-64638577D01*
X145114546Y-64745243D01*
X144882790Y-64900097D01*
X144685697Y-65097190D01*
X144530843Y-65328946D01*
X144514800Y-65367677D01*
X144498757Y-65328946D01*
X144343903Y-65097190D01*
X144146810Y-64900097D01*
X143915054Y-64745243D01*
X143657540Y-64638577D01*
X143384165Y-64584200D01*
X143105435Y-64584200D01*
X142832060Y-64638577D01*
X142574546Y-64745243D01*
X142342790Y-64900097D01*
X142145697Y-65097190D01*
X141990843Y-65328946D01*
X141974800Y-65367677D01*
X141958757Y-65328946D01*
X141803903Y-65097190D01*
X141606810Y-64900097D01*
X141375054Y-64745243D01*
X141117540Y-64638577D01*
X140844165Y-64584200D01*
X140565435Y-64584200D01*
X140292060Y-64638577D01*
X140034546Y-64745243D01*
X139802790Y-64900097D01*
X139605697Y-65097190D01*
X139450843Y-65328946D01*
X139434800Y-65367677D01*
X139418757Y-65328946D01*
X139263903Y-65097190D01*
X139066810Y-64900097D01*
X138835054Y-64745243D01*
X138577540Y-64638577D01*
X138304165Y-64584200D01*
X138025435Y-64584200D01*
X137752060Y-64638577D01*
X137494546Y-64745243D01*
X137262790Y-64900097D01*
X137065697Y-65097190D01*
X136910843Y-65328946D01*
X136894800Y-65367677D01*
X136878757Y-65328946D01*
X136723903Y-65097190D01*
X136526810Y-64900097D01*
X136295054Y-64745243D01*
X136037540Y-64638577D01*
X135764165Y-64584200D01*
X135485435Y-64584200D01*
X135212060Y-64638577D01*
X134954546Y-64745243D01*
X134722790Y-64900097D01*
X134525697Y-65097190D01*
X134370843Y-65328946D01*
X134354800Y-65367677D01*
X134338757Y-65328946D01*
X134183903Y-65097190D01*
X133986810Y-64900097D01*
X133755054Y-64745243D01*
X133497540Y-64638577D01*
X133224165Y-64584200D01*
X132945435Y-64584200D01*
X132672060Y-64638577D01*
X132414546Y-64745243D01*
X132182790Y-64900097D01*
X131985697Y-65097190D01*
X131830843Y-65328946D01*
X131814800Y-65367677D01*
X131798757Y-65328946D01*
X131643903Y-65097190D01*
X131446810Y-64900097D01*
X131215054Y-64745243D01*
X130957540Y-64638577D01*
X130684165Y-64584200D01*
X130405435Y-64584200D01*
X130132060Y-64638577D01*
X129874546Y-64745243D01*
X129642790Y-64900097D01*
X129445697Y-65097190D01*
X129290843Y-65328946D01*
X129274800Y-65367677D01*
X129258757Y-65328946D01*
X129103903Y-65097190D01*
X128906810Y-64900097D01*
X128675054Y-64745243D01*
X128417540Y-64638577D01*
X128144165Y-64584200D01*
X127865435Y-64584200D01*
X127592060Y-64638577D01*
X127334546Y-64745243D01*
X127102790Y-64900097D01*
X126905697Y-65097190D01*
X126750843Y-65328946D01*
X126734800Y-65367677D01*
X126718757Y-65328946D01*
X126563903Y-65097190D01*
X126366810Y-64900097D01*
X126135054Y-64745243D01*
X125877540Y-64638577D01*
X125604165Y-64584200D01*
X125325435Y-64584200D01*
X125052060Y-64638577D01*
X124794546Y-64745243D01*
X124562790Y-64900097D01*
X124365697Y-65097190D01*
X124210843Y-65328946D01*
X124194800Y-65367677D01*
X124178757Y-65328946D01*
X124023903Y-65097190D01*
X123826810Y-64900097D01*
X123595054Y-64745243D01*
X123337540Y-64638577D01*
X123064165Y-64584200D01*
X122785435Y-64584200D01*
X122512060Y-64638577D01*
X122254546Y-64745243D01*
X122022790Y-64900097D01*
X121825697Y-65097190D01*
X121670843Y-65328946D01*
X121654800Y-65367677D01*
X121638757Y-65328946D01*
X121483903Y-65097190D01*
X121286810Y-64900097D01*
X121055054Y-64745243D01*
X120797540Y-64638577D01*
X120524165Y-64584200D01*
X120245435Y-64584200D01*
X119972060Y-64638577D01*
X119714546Y-64745243D01*
X119482790Y-64900097D01*
X119285697Y-65097190D01*
X119130843Y-65328946D01*
X119114800Y-65367677D01*
X119098757Y-65328946D01*
X118943903Y-65097190D01*
X118746810Y-64900097D01*
X118515054Y-64745243D01*
X118257540Y-64638577D01*
X117984165Y-64584200D01*
X117705435Y-64584200D01*
X117432060Y-64638577D01*
X117174546Y-64745243D01*
X116942790Y-64900097D01*
X116745697Y-65097190D01*
X116590843Y-65328946D01*
X116574800Y-65367677D01*
X116558757Y-65328946D01*
X116403903Y-65097190D01*
X116206810Y-64900097D01*
X115975054Y-64745243D01*
X115717540Y-64638577D01*
X115444165Y-64584200D01*
X115165435Y-64584200D01*
X114892060Y-64638577D01*
X114634546Y-64745243D01*
X114424800Y-64885390D01*
X114424800Y-62534983D01*
X114486599Y-62684179D01*
X114829686Y-63197646D01*
X115266354Y-63634314D01*
X115779821Y-63977401D01*
X116350354Y-64213724D01*
X116956029Y-64334200D01*
X117573571Y-64334200D01*
X118179246Y-64213724D01*
X118749779Y-63977401D01*
X119263246Y-63634314D01*
X119699914Y-63197646D01*
X120043001Y-62684179D01*
X120279324Y-62113646D01*
X120399800Y-61507971D01*
X120399800Y-60890429D01*
X120279324Y-60284754D01*
X120043001Y-59714221D01*
X119699914Y-59200754D01*
X119263246Y-58764086D01*
X118749779Y-58420999D01*
X118600583Y-58359200D01*
X156929017Y-58359200D01*
X156779821Y-58420999D01*
G36*
X136910843Y-66669454D02*
G01*
X137065697Y-66901210D01*
X137262790Y-67098303D01*
X137329776Y-67143062D01*
X137341882Y-67265974D01*
X137389628Y-67423372D01*
X137467164Y-67568431D01*
X137467165Y-67568432D01*
X137571510Y-67695577D01*
X137603374Y-67721727D01*
X138429800Y-68548155D01*
X138429801Y-83118171D01*
X138425760Y-83159200D01*
X138441882Y-83322888D01*
X138489628Y-83480286D01*
X138549005Y-83591372D01*
X138567165Y-83625346D01*
X138671510Y-83752491D01*
X138703374Y-83778641D01*
X140119800Y-85195069D01*
X140119800Y-85315912D01*
X140165339Y-85544852D01*
X140254666Y-85760508D01*
X140384350Y-85954594D01*
X140543956Y-86114200D01*
X137149038Y-86114200D01*
X136348116Y-85313279D01*
X136321961Y-85281409D01*
X136194816Y-85177064D01*
X136049757Y-85099528D01*
X135892359Y-85051782D01*
X135769689Y-85039700D01*
X135769688Y-85039700D01*
X135764916Y-85039230D01*
X135711937Y-84959941D01*
X135512059Y-84760063D01*
X135277027Y-84603020D01*
X135015874Y-84494847D01*
X134738635Y-84439700D01*
X134455965Y-84439700D01*
X134178726Y-84494847D01*
X133917573Y-84603020D01*
X133682541Y-84760063D01*
X133482663Y-84959941D01*
X133325620Y-85194973D01*
X133217447Y-85456126D01*
X133162300Y-85733365D01*
X133162300Y-86016035D01*
X133217447Y-86293274D01*
X133325620Y-86554427D01*
X133482663Y-86789459D01*
X133682541Y-86989337D01*
X133917573Y-87146380D01*
X134178726Y-87254553D01*
X134455965Y-87309700D01*
X134738635Y-87309700D01*
X135015874Y-87254553D01*
X135277027Y-87146380D01*
X135512059Y-86989337D01*
X135587249Y-86914147D01*
X136183728Y-87510626D01*
X136209879Y-87542491D01*
X136337024Y-87646836D01*
X136482083Y-87724372D01*
X136639481Y-87772118D01*
X136762151Y-87784200D01*
X136762161Y-87784200D01*
X136803169Y-87788239D01*
X136844177Y-87784200D01*
X144723782Y-87784200D01*
X144764800Y-87788240D01*
X144805818Y-87784200D01*
X144805819Y-87784200D01*
X144928489Y-87772118D01*
X145046948Y-87736184D01*
X143918933Y-88864200D01*
X139905818Y-88864200D01*
X139864799Y-88860160D01*
X139823781Y-88864200D01*
X139701111Y-88876282D01*
X139543713Y-88924028D01*
X139398654Y-89001564D01*
X139271509Y-89105909D01*
X139245361Y-89137771D01*
X138383210Y-89999923D01*
X138304165Y-89984200D01*
X138025435Y-89984200D01*
X137752060Y-90038577D01*
X137494546Y-90145243D01*
X137262790Y-90300097D01*
X137065697Y-90497190D01*
X136910843Y-90728946D01*
X136894800Y-90767677D01*
X136878757Y-90728946D01*
X136723903Y-90497190D01*
X136526810Y-90300097D01*
X136295054Y-90145243D01*
X136037540Y-90038577D01*
X135764165Y-89984200D01*
X135485435Y-89984200D01*
X135212060Y-90038577D01*
X134954546Y-90145243D01*
X134722790Y-90300097D01*
X134525697Y-90497190D01*
X134370843Y-90728946D01*
X134354800Y-90767677D01*
X134338757Y-90728946D01*
X134183903Y-90497190D01*
X133986810Y-90300097D01*
X133755054Y-90145243D01*
X133497540Y-90038577D01*
X133224165Y-89984200D01*
X132945435Y-89984200D01*
X132672060Y-90038577D01*
X132414546Y-90145243D01*
X132182790Y-90300097D01*
X131985697Y-90497190D01*
X131830843Y-90728946D01*
X131814800Y-90767677D01*
X131798757Y-90728946D01*
X131643903Y-90497190D01*
X131446810Y-90300097D01*
X131215054Y-90145243D01*
X130957540Y-90038577D01*
X130684165Y-89984200D01*
X130405435Y-89984200D01*
X130132060Y-90038577D01*
X129874546Y-90145243D01*
X129642790Y-90300097D01*
X129445697Y-90497190D01*
X129290843Y-90728946D01*
X129274800Y-90767677D01*
X129258757Y-90728946D01*
X129103903Y-90497190D01*
X128906810Y-90300097D01*
X128675054Y-90145243D01*
X128417540Y-90038577D01*
X128144165Y-89984200D01*
X127865435Y-89984200D01*
X127592060Y-90038577D01*
X127334546Y-90145243D01*
X127102790Y-90300097D01*
X126905697Y-90497190D01*
X126750843Y-90728946D01*
X126734800Y-90767677D01*
X126718757Y-90728946D01*
X126563903Y-90497190D01*
X126366810Y-90300097D01*
X126135054Y-90145243D01*
X125877540Y-90038577D01*
X125604165Y-89984200D01*
X125325435Y-89984200D01*
X125052060Y-90038577D01*
X124794546Y-90145243D01*
X124562790Y-90300097D01*
X124365697Y-90497190D01*
X124210843Y-90728946D01*
X124194800Y-90767677D01*
X124178757Y-90728946D01*
X124023903Y-90497190D01*
X123826810Y-90300097D01*
X123595054Y-90145243D01*
X123337540Y-90038577D01*
X123064165Y-89984200D01*
X122785435Y-89984200D01*
X122512060Y-90038577D01*
X122254546Y-90145243D01*
X122022790Y-90300097D01*
X121825697Y-90497190D01*
X121670843Y-90728946D01*
X121654800Y-90767677D01*
X121638757Y-90728946D01*
X121483903Y-90497190D01*
X121286810Y-90300097D01*
X121055054Y-90145243D01*
X120797540Y-90038577D01*
X120524165Y-89984200D01*
X120245435Y-89984200D01*
X119972060Y-90038577D01*
X119714546Y-90145243D01*
X119482790Y-90300097D01*
X119285697Y-90497190D01*
X119130843Y-90728946D01*
X119114800Y-90767677D01*
X119098757Y-90728946D01*
X118943903Y-90497190D01*
X118746810Y-90300097D01*
X118515054Y-90145243D01*
X118257540Y-90038577D01*
X117984165Y-89984200D01*
X117705435Y-89984200D01*
X117432060Y-90038577D01*
X117174546Y-90145243D01*
X116942790Y-90300097D01*
X116745697Y-90497190D01*
X116590843Y-90728946D01*
X116574800Y-90767677D01*
X116558757Y-90728946D01*
X116403903Y-90497190D01*
X116206810Y-90300097D01*
X115975054Y-90145243D01*
X115717540Y-90038577D01*
X115444165Y-89984200D01*
X115165435Y-89984200D01*
X114892060Y-90038577D01*
X114634546Y-90145243D01*
X114424800Y-90285390D01*
X114424800Y-81239200D01*
X121992615Y-81239200D01*
X122021287Y-81530311D01*
X122106201Y-81810234D01*
X122244094Y-82068214D01*
X122429666Y-82294334D01*
X122655786Y-82479906D01*
X122710591Y-82509200D01*
X122655786Y-82538494D01*
X122429666Y-82724066D01*
X122244094Y-82950186D01*
X122106201Y-83208166D01*
X122021287Y-83488089D01*
X121992615Y-83779200D01*
X122021287Y-84070311D01*
X122106201Y-84350234D01*
X122244094Y-84608214D01*
X122429666Y-84834334D01*
X122655786Y-85019906D01*
X122913766Y-85157799D01*
X123193689Y-85242713D01*
X123411850Y-85264200D01*
X123557750Y-85264200D01*
X123775911Y-85242713D01*
X124055834Y-85157799D01*
X124313814Y-85019906D01*
X124539934Y-84834334D01*
X124725506Y-84608214D01*
X124863399Y-84350234D01*
X124948313Y-84070311D01*
X124976985Y-83779200D01*
X124948313Y-83488089D01*
X124863399Y-83208166D01*
X124725506Y-82950186D01*
X124539934Y-82724066D01*
X124313814Y-82538494D01*
X124259009Y-82509200D01*
X124313814Y-82479906D01*
X124539934Y-82294334D01*
X124725506Y-82068214D01*
X124863399Y-81810234D01*
X124948313Y-81530311D01*
X124976985Y-81239200D01*
X124948313Y-80948089D01*
X124863399Y-80668166D01*
X124725506Y-80410186D01*
X124539934Y-80184066D01*
X124313814Y-79998494D01*
X124249277Y-79963999D01*
X124366155Y-79894378D01*
X124582388Y-79699469D01*
X124756441Y-79466120D01*
X124881625Y-79203299D01*
X124926276Y-79056090D01*
X124804955Y-78826200D01*
X123611800Y-78826200D01*
X123611800Y-78846200D01*
X123357800Y-78846200D01*
X123357800Y-78826200D01*
X122164645Y-78826200D01*
X122043324Y-79056090D01*
X122087975Y-79203299D01*
X122213159Y-79466120D01*
X122387212Y-79699469D01*
X122603445Y-79894378D01*
X122720323Y-79963999D01*
X122655786Y-79998494D01*
X122429666Y-80184066D01*
X122244094Y-80410186D01*
X122106201Y-80668166D01*
X122021287Y-80948089D01*
X121992615Y-81239200D01*
X114424800Y-81239200D01*
X114424800Y-76159200D01*
X121992615Y-76159200D01*
X122021287Y-76450311D01*
X122106201Y-76730234D01*
X122244094Y-76988214D01*
X122429666Y-77214334D01*
X122655786Y-77399906D01*
X122720323Y-77434401D01*
X122603445Y-77504022D01*
X122387212Y-77698931D01*
X122213159Y-77932280D01*
X122087975Y-78195101D01*
X122043324Y-78342310D01*
X122164645Y-78572200D01*
X123357800Y-78572200D01*
X123357800Y-78552200D01*
X123611800Y-78552200D01*
X123611800Y-78572200D01*
X124804955Y-78572200D01*
X124926276Y-78342310D01*
X124881625Y-78195101D01*
X124756441Y-77932280D01*
X124582388Y-77698931D01*
X124366155Y-77504022D01*
X124249277Y-77434401D01*
X124313814Y-77399906D01*
X124539934Y-77214334D01*
X124725506Y-76988214D01*
X124863399Y-76730234D01*
X124948313Y-76450311D01*
X124976985Y-76159200D01*
X124948313Y-75868089D01*
X124863399Y-75588166D01*
X124725506Y-75330186D01*
X124539934Y-75104066D01*
X124510113Y-75079593D01*
X124578980Y-75058702D01*
X124689294Y-74999737D01*
X124785985Y-74920385D01*
X124865337Y-74823694D01*
X124924302Y-74713380D01*
X124960612Y-74593682D01*
X124972872Y-74469200D01*
X124972872Y-72769200D01*
X124960612Y-72644718D01*
X124924302Y-72525020D01*
X124865337Y-72414706D01*
X124785985Y-72318015D01*
X124689294Y-72238663D01*
X124578980Y-72179698D01*
X124459282Y-72143388D01*
X124334800Y-72131128D01*
X122634800Y-72131128D01*
X122510318Y-72143388D01*
X122390620Y-72179698D01*
X122280306Y-72238663D01*
X122183615Y-72318015D01*
X122104263Y-72414706D01*
X122045298Y-72525020D01*
X122008988Y-72644718D01*
X121996728Y-72769200D01*
X121996728Y-74469200D01*
X122008988Y-74593682D01*
X122045298Y-74713380D01*
X122104263Y-74823694D01*
X122183615Y-74920385D01*
X122280306Y-74999737D01*
X122390620Y-75058702D01*
X122459487Y-75079593D01*
X122429666Y-75104066D01*
X122244094Y-75330186D01*
X122106201Y-75588166D01*
X122021287Y-75868089D01*
X121992615Y-76159200D01*
X114424800Y-76159200D01*
X114424800Y-70634700D01*
X133155357Y-70634700D01*
X133183064Y-70916009D01*
X133265118Y-71186508D01*
X133398368Y-71435801D01*
X133577692Y-71654308D01*
X133796199Y-71833632D01*
X134045492Y-71966882D01*
X134315991Y-72048936D01*
X134526808Y-72069700D01*
X134667792Y-72069700D01*
X134878609Y-72048936D01*
X135149108Y-71966882D01*
X135398401Y-71833632D01*
X135616908Y-71654308D01*
X135796232Y-71435801D01*
X135929482Y-71186508D01*
X136011536Y-70916009D01*
X136039243Y-70634700D01*
X136011536Y-70353391D01*
X135929482Y-70082892D01*
X135796232Y-69833599D01*
X135616908Y-69615092D01*
X135398401Y-69435768D01*
X135149108Y-69302518D01*
X134878609Y-69220464D01*
X134667792Y-69199700D01*
X134526808Y-69199700D01*
X134315991Y-69220464D01*
X134045492Y-69302518D01*
X133796199Y-69435768D01*
X133577692Y-69615092D01*
X133398368Y-69833599D01*
X133265118Y-70082892D01*
X133183064Y-70353391D01*
X133155357Y-70634700D01*
X114424800Y-70634700D01*
X114424800Y-67113010D01*
X114634546Y-67253157D01*
X114892060Y-67359823D01*
X115165435Y-67414200D01*
X115444165Y-67414200D01*
X115717540Y-67359823D01*
X115975054Y-67253157D01*
X116206810Y-67098303D01*
X116403903Y-66901210D01*
X116558757Y-66669454D01*
X116574800Y-66630723D01*
X116590843Y-66669454D01*
X116745697Y-66901210D01*
X116942790Y-67098303D01*
X117174546Y-67253157D01*
X117432060Y-67359823D01*
X117705435Y-67414200D01*
X117984165Y-67414200D01*
X118257540Y-67359823D01*
X118515054Y-67253157D01*
X118746810Y-67098303D01*
X118943903Y-66901210D01*
X119098757Y-66669454D01*
X119114800Y-66630723D01*
X119130843Y-66669454D01*
X119285697Y-66901210D01*
X119482790Y-67098303D01*
X119714546Y-67253157D01*
X119972060Y-67359823D01*
X120245435Y-67414200D01*
X120524165Y-67414200D01*
X120797540Y-67359823D01*
X121055054Y-67253157D01*
X121286810Y-67098303D01*
X121483903Y-66901210D01*
X121638757Y-66669454D01*
X121654800Y-66630723D01*
X121670843Y-66669454D01*
X121825697Y-66901210D01*
X122022790Y-67098303D01*
X122254546Y-67253157D01*
X122512060Y-67359823D01*
X122785435Y-67414200D01*
X123064165Y-67414200D01*
X123337540Y-67359823D01*
X123595054Y-67253157D01*
X123826810Y-67098303D01*
X124023903Y-66901210D01*
X124178757Y-66669454D01*
X124194800Y-66630723D01*
X124210843Y-66669454D01*
X124365697Y-66901210D01*
X124562790Y-67098303D01*
X124794546Y-67253157D01*
X125052060Y-67359823D01*
X125325435Y-67414200D01*
X125604165Y-67414200D01*
X125877540Y-67359823D01*
X126135054Y-67253157D01*
X126366810Y-67098303D01*
X126563903Y-66901210D01*
X126718757Y-66669454D01*
X126734800Y-66630723D01*
X126750843Y-66669454D01*
X126905697Y-66901210D01*
X127102790Y-67098303D01*
X127334546Y-67253157D01*
X127592060Y-67359823D01*
X127865435Y-67414200D01*
X128144165Y-67414200D01*
X128417540Y-67359823D01*
X128675054Y-67253157D01*
X128906810Y-67098303D01*
X129103903Y-66901210D01*
X129258757Y-66669454D01*
X129274800Y-66630723D01*
X129290843Y-66669454D01*
X129445697Y-66901210D01*
X129642790Y-67098303D01*
X129874546Y-67253157D01*
X130132060Y-67359823D01*
X130405435Y-67414200D01*
X130684165Y-67414200D01*
X130957540Y-67359823D01*
X131215054Y-67253157D01*
X131446810Y-67098303D01*
X131643903Y-66901210D01*
X131798757Y-66669454D01*
X131814800Y-66630723D01*
X131830843Y-66669454D01*
X131985697Y-66901210D01*
X132182790Y-67098303D01*
X132414546Y-67253157D01*
X132672060Y-67359823D01*
X132945435Y-67414200D01*
X133224165Y-67414200D01*
X133497540Y-67359823D01*
X133755054Y-67253157D01*
X133986810Y-67098303D01*
X134183903Y-66901210D01*
X134338757Y-66669454D01*
X134354800Y-66630723D01*
X134370843Y-66669454D01*
X134525697Y-66901210D01*
X134722790Y-67098303D01*
X134954546Y-67253157D01*
X135212060Y-67359823D01*
X135485435Y-67414200D01*
X135764165Y-67414200D01*
X136037540Y-67359823D01*
X136295054Y-67253157D01*
X136526810Y-67098303D01*
X136723903Y-66901210D01*
X136878757Y-66669454D01*
X136894800Y-66630723D01*
X136910843Y-66669454D01*
X136910843Y-66669454D01*
G37*
X136910843Y-66669454D02*
X137065697Y-66901210D01*
X137262790Y-67098303D01*
X137329776Y-67143062D01*
X137341882Y-67265974D01*
X137389628Y-67423372D01*
X137467164Y-67568431D01*
X137467165Y-67568432D01*
X137571510Y-67695577D01*
X137603374Y-67721727D01*
X138429800Y-68548155D01*
X138429801Y-83118171D01*
X138425760Y-83159200D01*
X138441882Y-83322888D01*
X138489628Y-83480286D01*
X138549005Y-83591372D01*
X138567165Y-83625346D01*
X138671510Y-83752491D01*
X138703374Y-83778641D01*
X140119800Y-85195069D01*
X140119800Y-85315912D01*
X140165339Y-85544852D01*
X140254666Y-85760508D01*
X140384350Y-85954594D01*
X140543956Y-86114200D01*
X137149038Y-86114200D01*
X136348116Y-85313279D01*
X136321961Y-85281409D01*
X136194816Y-85177064D01*
X136049757Y-85099528D01*
X135892359Y-85051782D01*
X135769689Y-85039700D01*
X135769688Y-85039700D01*
X135764916Y-85039230D01*
X135711937Y-84959941D01*
X135512059Y-84760063D01*
X135277027Y-84603020D01*
X135015874Y-84494847D01*
X134738635Y-84439700D01*
X134455965Y-84439700D01*
X134178726Y-84494847D01*
X133917573Y-84603020D01*
X133682541Y-84760063D01*
X133482663Y-84959941D01*
X133325620Y-85194973D01*
X133217447Y-85456126D01*
X133162300Y-85733365D01*
X133162300Y-86016035D01*
X133217447Y-86293274D01*
X133325620Y-86554427D01*
X133482663Y-86789459D01*
X133682541Y-86989337D01*
X133917573Y-87146380D01*
X134178726Y-87254553D01*
X134455965Y-87309700D01*
X134738635Y-87309700D01*
X135015874Y-87254553D01*
X135277027Y-87146380D01*
X135512059Y-86989337D01*
X135587249Y-86914147D01*
X136183728Y-87510626D01*
X136209879Y-87542491D01*
X136337024Y-87646836D01*
X136482083Y-87724372D01*
X136639481Y-87772118D01*
X136762151Y-87784200D01*
X136762161Y-87784200D01*
X136803169Y-87788239D01*
X136844177Y-87784200D01*
X144723782Y-87784200D01*
X144764800Y-87788240D01*
X144805818Y-87784200D01*
X144805819Y-87784200D01*
X144928489Y-87772118D01*
X145046948Y-87736184D01*
X143918933Y-88864200D01*
X139905818Y-88864200D01*
X139864799Y-88860160D01*
X139823781Y-88864200D01*
X139701111Y-88876282D01*
X139543713Y-88924028D01*
X139398654Y-89001564D01*
X139271509Y-89105909D01*
X139245361Y-89137771D01*
X138383210Y-89999923D01*
X138304165Y-89984200D01*
X138025435Y-89984200D01*
X137752060Y-90038577D01*
X137494546Y-90145243D01*
X137262790Y-90300097D01*
X137065697Y-90497190D01*
X136910843Y-90728946D01*
X136894800Y-90767677D01*
X136878757Y-90728946D01*
X136723903Y-90497190D01*
X136526810Y-90300097D01*
X136295054Y-90145243D01*
X136037540Y-90038577D01*
X135764165Y-89984200D01*
X135485435Y-89984200D01*
X135212060Y-90038577D01*
X134954546Y-90145243D01*
X134722790Y-90300097D01*
X134525697Y-90497190D01*
X134370843Y-90728946D01*
X134354800Y-90767677D01*
X134338757Y-90728946D01*
X134183903Y-90497190D01*
X133986810Y-90300097D01*
X133755054Y-90145243D01*
X133497540Y-90038577D01*
X133224165Y-89984200D01*
X132945435Y-89984200D01*
X132672060Y-90038577D01*
X132414546Y-90145243D01*
X132182790Y-90300097D01*
X131985697Y-90497190D01*
X131830843Y-90728946D01*
X131814800Y-90767677D01*
X131798757Y-90728946D01*
X131643903Y-90497190D01*
X131446810Y-90300097D01*
X131215054Y-90145243D01*
X130957540Y-90038577D01*
X130684165Y-89984200D01*
X130405435Y-89984200D01*
X130132060Y-90038577D01*
X129874546Y-90145243D01*
X129642790Y-90300097D01*
X129445697Y-90497190D01*
X129290843Y-90728946D01*
X129274800Y-90767677D01*
X129258757Y-90728946D01*
X129103903Y-90497190D01*
X128906810Y-90300097D01*
X128675054Y-90145243D01*
X128417540Y-90038577D01*
X128144165Y-89984200D01*
X127865435Y-89984200D01*
X127592060Y-90038577D01*
X127334546Y-90145243D01*
X127102790Y-90300097D01*
X126905697Y-90497190D01*
X126750843Y-90728946D01*
X126734800Y-90767677D01*
X126718757Y-90728946D01*
X126563903Y-90497190D01*
X126366810Y-90300097D01*
X126135054Y-90145243D01*
X125877540Y-90038577D01*
X125604165Y-89984200D01*
X125325435Y-89984200D01*
X125052060Y-90038577D01*
X124794546Y-90145243D01*
X124562790Y-90300097D01*
X124365697Y-90497190D01*
X124210843Y-90728946D01*
X124194800Y-90767677D01*
X124178757Y-90728946D01*
X124023903Y-90497190D01*
X123826810Y-90300097D01*
X123595054Y-90145243D01*
X123337540Y-90038577D01*
X123064165Y-89984200D01*
X122785435Y-89984200D01*
X122512060Y-90038577D01*
X122254546Y-90145243D01*
X122022790Y-90300097D01*
X121825697Y-90497190D01*
X121670843Y-90728946D01*
X121654800Y-90767677D01*
X121638757Y-90728946D01*
X121483903Y-90497190D01*
X121286810Y-90300097D01*
X121055054Y-90145243D01*
X120797540Y-90038577D01*
X120524165Y-89984200D01*
X120245435Y-89984200D01*
X119972060Y-90038577D01*
X119714546Y-90145243D01*
X119482790Y-90300097D01*
X119285697Y-90497190D01*
X119130843Y-90728946D01*
X119114800Y-90767677D01*
X119098757Y-90728946D01*
X118943903Y-90497190D01*
X118746810Y-90300097D01*
X118515054Y-90145243D01*
X118257540Y-90038577D01*
X117984165Y-89984200D01*
X117705435Y-89984200D01*
X117432060Y-90038577D01*
X117174546Y-90145243D01*
X116942790Y-90300097D01*
X116745697Y-90497190D01*
X116590843Y-90728946D01*
X116574800Y-90767677D01*
X116558757Y-90728946D01*
X116403903Y-90497190D01*
X116206810Y-90300097D01*
X115975054Y-90145243D01*
X115717540Y-90038577D01*
X115444165Y-89984200D01*
X115165435Y-89984200D01*
X114892060Y-90038577D01*
X114634546Y-90145243D01*
X114424800Y-90285390D01*
X114424800Y-81239200D01*
X121992615Y-81239200D01*
X122021287Y-81530311D01*
X122106201Y-81810234D01*
X122244094Y-82068214D01*
X122429666Y-82294334D01*
X122655786Y-82479906D01*
X122710591Y-82509200D01*
X122655786Y-82538494D01*
X122429666Y-82724066D01*
X122244094Y-82950186D01*
X122106201Y-83208166D01*
X122021287Y-83488089D01*
X121992615Y-83779200D01*
X122021287Y-84070311D01*
X122106201Y-84350234D01*
X122244094Y-84608214D01*
X122429666Y-84834334D01*
X122655786Y-85019906D01*
X122913766Y-85157799D01*
X123193689Y-85242713D01*
X123411850Y-85264200D01*
X123557750Y-85264200D01*
X123775911Y-85242713D01*
X124055834Y-85157799D01*
X124313814Y-85019906D01*
X124539934Y-84834334D01*
X124725506Y-84608214D01*
X124863399Y-84350234D01*
X124948313Y-84070311D01*
X124976985Y-83779200D01*
X124948313Y-83488089D01*
X124863399Y-83208166D01*
X124725506Y-82950186D01*
X124539934Y-82724066D01*
X124313814Y-82538494D01*
X124259009Y-82509200D01*
X124313814Y-82479906D01*
X124539934Y-82294334D01*
X124725506Y-82068214D01*
X124863399Y-81810234D01*
X124948313Y-81530311D01*
X124976985Y-81239200D01*
X124948313Y-80948089D01*
X124863399Y-80668166D01*
X124725506Y-80410186D01*
X124539934Y-80184066D01*
X124313814Y-79998494D01*
X124249277Y-79963999D01*
X124366155Y-79894378D01*
X124582388Y-79699469D01*
X124756441Y-79466120D01*
X124881625Y-79203299D01*
X124926276Y-79056090D01*
X124804955Y-78826200D01*
X123611800Y-78826200D01*
X123611800Y-78846200D01*
X123357800Y-78846200D01*
X123357800Y-78826200D01*
X122164645Y-78826200D01*
X122043324Y-79056090D01*
X122087975Y-79203299D01*
X122213159Y-79466120D01*
X122387212Y-79699469D01*
X122603445Y-79894378D01*
X122720323Y-79963999D01*
X122655786Y-79998494D01*
X122429666Y-80184066D01*
X122244094Y-80410186D01*
X122106201Y-80668166D01*
X122021287Y-80948089D01*
X121992615Y-81239200D01*
X114424800Y-81239200D01*
X114424800Y-76159200D01*
X121992615Y-76159200D01*
X122021287Y-76450311D01*
X122106201Y-76730234D01*
X122244094Y-76988214D01*
X122429666Y-77214334D01*
X122655786Y-77399906D01*
X122720323Y-77434401D01*
X122603445Y-77504022D01*
X122387212Y-77698931D01*
X122213159Y-77932280D01*
X122087975Y-78195101D01*
X122043324Y-78342310D01*
X122164645Y-78572200D01*
X123357800Y-78572200D01*
X123357800Y-78552200D01*
X123611800Y-78552200D01*
X123611800Y-78572200D01*
X124804955Y-78572200D01*
X124926276Y-78342310D01*
X124881625Y-78195101D01*
X124756441Y-77932280D01*
X124582388Y-77698931D01*
X124366155Y-77504022D01*
X124249277Y-77434401D01*
X124313814Y-77399906D01*
X124539934Y-77214334D01*
X124725506Y-76988214D01*
X124863399Y-76730234D01*
X124948313Y-76450311D01*
X124976985Y-76159200D01*
X124948313Y-75868089D01*
X124863399Y-75588166D01*
X124725506Y-75330186D01*
X124539934Y-75104066D01*
X124510113Y-75079593D01*
X124578980Y-75058702D01*
X124689294Y-74999737D01*
X124785985Y-74920385D01*
X124865337Y-74823694D01*
X124924302Y-74713380D01*
X124960612Y-74593682D01*
X124972872Y-74469200D01*
X124972872Y-72769200D01*
X124960612Y-72644718D01*
X124924302Y-72525020D01*
X124865337Y-72414706D01*
X124785985Y-72318015D01*
X124689294Y-72238663D01*
X124578980Y-72179698D01*
X124459282Y-72143388D01*
X124334800Y-72131128D01*
X122634800Y-72131128D01*
X122510318Y-72143388D01*
X122390620Y-72179698D01*
X122280306Y-72238663D01*
X122183615Y-72318015D01*
X122104263Y-72414706D01*
X122045298Y-72525020D01*
X122008988Y-72644718D01*
X121996728Y-72769200D01*
X121996728Y-74469200D01*
X122008988Y-74593682D01*
X122045298Y-74713380D01*
X122104263Y-74823694D01*
X122183615Y-74920385D01*
X122280306Y-74999737D01*
X122390620Y-75058702D01*
X122459487Y-75079593D01*
X122429666Y-75104066D01*
X122244094Y-75330186D01*
X122106201Y-75588166D01*
X122021287Y-75868089D01*
X121992615Y-76159200D01*
X114424800Y-76159200D01*
X114424800Y-70634700D01*
X133155357Y-70634700D01*
X133183064Y-70916009D01*
X133265118Y-71186508D01*
X133398368Y-71435801D01*
X133577692Y-71654308D01*
X133796199Y-71833632D01*
X134045492Y-71966882D01*
X134315991Y-72048936D01*
X134526808Y-72069700D01*
X134667792Y-72069700D01*
X134878609Y-72048936D01*
X135149108Y-71966882D01*
X135398401Y-71833632D01*
X135616908Y-71654308D01*
X135796232Y-71435801D01*
X135929482Y-71186508D01*
X136011536Y-70916009D01*
X136039243Y-70634700D01*
X136011536Y-70353391D01*
X135929482Y-70082892D01*
X135796232Y-69833599D01*
X135616908Y-69615092D01*
X135398401Y-69435768D01*
X135149108Y-69302518D01*
X134878609Y-69220464D01*
X134667792Y-69199700D01*
X134526808Y-69199700D01*
X134315991Y-69220464D01*
X134045492Y-69302518D01*
X133796199Y-69435768D01*
X133577692Y-69615092D01*
X133398368Y-69833599D01*
X133265118Y-70082892D01*
X133183064Y-70353391D01*
X133155357Y-70634700D01*
X114424800Y-70634700D01*
X114424800Y-67113010D01*
X114634546Y-67253157D01*
X114892060Y-67359823D01*
X115165435Y-67414200D01*
X115444165Y-67414200D01*
X115717540Y-67359823D01*
X115975054Y-67253157D01*
X116206810Y-67098303D01*
X116403903Y-66901210D01*
X116558757Y-66669454D01*
X116574800Y-66630723D01*
X116590843Y-66669454D01*
X116745697Y-66901210D01*
X116942790Y-67098303D01*
X117174546Y-67253157D01*
X117432060Y-67359823D01*
X117705435Y-67414200D01*
X117984165Y-67414200D01*
X118257540Y-67359823D01*
X118515054Y-67253157D01*
X118746810Y-67098303D01*
X118943903Y-66901210D01*
X119098757Y-66669454D01*
X119114800Y-66630723D01*
X119130843Y-66669454D01*
X119285697Y-66901210D01*
X119482790Y-67098303D01*
X119714546Y-67253157D01*
X119972060Y-67359823D01*
X120245435Y-67414200D01*
X120524165Y-67414200D01*
X120797540Y-67359823D01*
X121055054Y-67253157D01*
X121286810Y-67098303D01*
X121483903Y-66901210D01*
X121638757Y-66669454D01*
X121654800Y-66630723D01*
X121670843Y-66669454D01*
X121825697Y-66901210D01*
X122022790Y-67098303D01*
X122254546Y-67253157D01*
X122512060Y-67359823D01*
X122785435Y-67414200D01*
X123064165Y-67414200D01*
X123337540Y-67359823D01*
X123595054Y-67253157D01*
X123826810Y-67098303D01*
X124023903Y-66901210D01*
X124178757Y-66669454D01*
X124194800Y-66630723D01*
X124210843Y-66669454D01*
X124365697Y-66901210D01*
X124562790Y-67098303D01*
X124794546Y-67253157D01*
X125052060Y-67359823D01*
X125325435Y-67414200D01*
X125604165Y-67414200D01*
X125877540Y-67359823D01*
X126135054Y-67253157D01*
X126366810Y-67098303D01*
X126563903Y-66901210D01*
X126718757Y-66669454D01*
X126734800Y-66630723D01*
X126750843Y-66669454D01*
X126905697Y-66901210D01*
X127102790Y-67098303D01*
X127334546Y-67253157D01*
X127592060Y-67359823D01*
X127865435Y-67414200D01*
X128144165Y-67414200D01*
X128417540Y-67359823D01*
X128675054Y-67253157D01*
X128906810Y-67098303D01*
X129103903Y-66901210D01*
X129258757Y-66669454D01*
X129274800Y-66630723D01*
X129290843Y-66669454D01*
X129445697Y-66901210D01*
X129642790Y-67098303D01*
X129874546Y-67253157D01*
X130132060Y-67359823D01*
X130405435Y-67414200D01*
X130684165Y-67414200D01*
X130957540Y-67359823D01*
X131215054Y-67253157D01*
X131446810Y-67098303D01*
X131643903Y-66901210D01*
X131798757Y-66669454D01*
X131814800Y-66630723D01*
X131830843Y-66669454D01*
X131985697Y-66901210D01*
X132182790Y-67098303D01*
X132414546Y-67253157D01*
X132672060Y-67359823D01*
X132945435Y-67414200D01*
X133224165Y-67414200D01*
X133497540Y-67359823D01*
X133755054Y-67253157D01*
X133986810Y-67098303D01*
X134183903Y-66901210D01*
X134338757Y-66669454D01*
X134354800Y-66630723D01*
X134370843Y-66669454D01*
X134525697Y-66901210D01*
X134722790Y-67098303D01*
X134954546Y-67253157D01*
X135212060Y-67359823D01*
X135485435Y-67414200D01*
X135764165Y-67414200D01*
X136037540Y-67359823D01*
X136295054Y-67253157D01*
X136526810Y-67098303D01*
X136723903Y-66901210D01*
X136878757Y-66669454D01*
X136894800Y-66630723D01*
X136910843Y-66669454D01*
G36*
X174312364Y-84205633D02*
G01*
X174338510Y-84237492D01*
X174370369Y-84263638D01*
X174370371Y-84263640D01*
X174465655Y-84341837D01*
X174610714Y-84419373D01*
X174768112Y-84467119D01*
X174931801Y-84483241D01*
X174972819Y-84479201D01*
X183124800Y-84479201D01*
X183124800Y-84612997D01*
X183180907Y-84895066D01*
X183290965Y-85160769D01*
X183416871Y-85349201D01*
X169271670Y-85349201D01*
X166050246Y-82127779D01*
X166024091Y-82095909D01*
X165896946Y-81991564D01*
X165751887Y-81914028D01*
X165594489Y-81866282D01*
X165471819Y-81854200D01*
X165471818Y-81854200D01*
X165430800Y-81850160D01*
X165389782Y-81854200D01*
X152136818Y-81854200D01*
X152095800Y-81850160D01*
X152054782Y-81854200D01*
X152054781Y-81854200D01*
X151932111Y-81866282D01*
X151774713Y-81914028D01*
X151629654Y-81991564D01*
X151536256Y-82068214D01*
X151502509Y-82095909D01*
X151476363Y-82127768D01*
X149756379Y-83847754D01*
X149724509Y-83873909D01*
X149649518Y-83965287D01*
X149620164Y-84001055D01*
X149542628Y-84146114D01*
X149494882Y-84303512D01*
X149478760Y-84467200D01*
X149482800Y-84508219D01*
X149482800Y-84693088D01*
X149298192Y-84844592D01*
X149118868Y-85063099D01*
X148985618Y-85312392D01*
X148903564Y-85582891D01*
X148875857Y-85864200D01*
X148903564Y-86145509D01*
X148985618Y-86416008D01*
X149118868Y-86665301D01*
X149298192Y-86883808D01*
X149482800Y-87035312D01*
X149482800Y-87677332D01*
X147748574Y-89411559D01*
X147716710Y-89437709D01*
X147690562Y-89469571D01*
X147612364Y-89564855D01*
X147534828Y-89709914D01*
X147487082Y-89867312D01*
X147470960Y-90031000D01*
X147475001Y-90072028D01*
X147475001Y-90265211D01*
X147422790Y-90300097D01*
X147225697Y-90497190D01*
X147070843Y-90728946D01*
X147054800Y-90767677D01*
X147038757Y-90728946D01*
X146883903Y-90497190D01*
X146686810Y-90300097D01*
X146455054Y-90145243D01*
X146197540Y-90038577D01*
X145924165Y-89984200D01*
X145645435Y-89984200D01*
X145372060Y-90038577D01*
X145114546Y-90145243D01*
X144882790Y-90300097D01*
X144685697Y-90497190D01*
X144530843Y-90728946D01*
X144514800Y-90767677D01*
X144498757Y-90728946D01*
X144364754Y-90528395D01*
X144428489Y-90522118D01*
X144585887Y-90474372D01*
X144730946Y-90396836D01*
X144858091Y-90292491D01*
X144884246Y-90260621D01*
X147831232Y-87313637D01*
X147863091Y-87287491D01*
X147890123Y-87254553D01*
X147967436Y-87160346D01*
X148044972Y-87015287D01*
X148052844Y-86989337D01*
X148092718Y-86857889D01*
X148104800Y-86735219D01*
X148104800Y-86735218D01*
X148108840Y-86694200D01*
X148104800Y-86653182D01*
X148104800Y-83162067D01*
X150409669Y-80857200D01*
X170963933Y-80857200D01*
X174312364Y-84205633D01*
X174312364Y-84205633D01*
G37*
X174312364Y-84205633D02*
X174338510Y-84237492D01*
X174370369Y-84263638D01*
X174370371Y-84263640D01*
X174465655Y-84341837D01*
X174610714Y-84419373D01*
X174768112Y-84467119D01*
X174931801Y-84483241D01*
X174972819Y-84479201D01*
X183124800Y-84479201D01*
X183124800Y-84612997D01*
X183180907Y-84895066D01*
X183290965Y-85160769D01*
X183416871Y-85349201D01*
X169271670Y-85349201D01*
X166050246Y-82127779D01*
X166024091Y-82095909D01*
X165896946Y-81991564D01*
X165751887Y-81914028D01*
X165594489Y-81866282D01*
X165471819Y-81854200D01*
X165471818Y-81854200D01*
X165430800Y-81850160D01*
X165389782Y-81854200D01*
X152136818Y-81854200D01*
X152095800Y-81850160D01*
X152054782Y-81854200D01*
X152054781Y-81854200D01*
X151932111Y-81866282D01*
X151774713Y-81914028D01*
X151629654Y-81991564D01*
X151536256Y-82068214D01*
X151502509Y-82095909D01*
X151476363Y-82127768D01*
X149756379Y-83847754D01*
X149724509Y-83873909D01*
X149649518Y-83965287D01*
X149620164Y-84001055D01*
X149542628Y-84146114D01*
X149494882Y-84303512D01*
X149478760Y-84467200D01*
X149482800Y-84508219D01*
X149482800Y-84693088D01*
X149298192Y-84844592D01*
X149118868Y-85063099D01*
X148985618Y-85312392D01*
X148903564Y-85582891D01*
X148875857Y-85864200D01*
X148903564Y-86145509D01*
X148985618Y-86416008D01*
X149118868Y-86665301D01*
X149298192Y-86883808D01*
X149482800Y-87035312D01*
X149482800Y-87677332D01*
X147748574Y-89411559D01*
X147716710Y-89437709D01*
X147690562Y-89469571D01*
X147612364Y-89564855D01*
X147534828Y-89709914D01*
X147487082Y-89867312D01*
X147470960Y-90031000D01*
X147475001Y-90072028D01*
X147475001Y-90265211D01*
X147422790Y-90300097D01*
X147225697Y-90497190D01*
X147070843Y-90728946D01*
X147054800Y-90767677D01*
X147038757Y-90728946D01*
X146883903Y-90497190D01*
X146686810Y-90300097D01*
X146455054Y-90145243D01*
X146197540Y-90038577D01*
X145924165Y-89984200D01*
X145645435Y-89984200D01*
X145372060Y-90038577D01*
X145114546Y-90145243D01*
X144882790Y-90300097D01*
X144685697Y-90497190D01*
X144530843Y-90728946D01*
X144514800Y-90767677D01*
X144498757Y-90728946D01*
X144364754Y-90528395D01*
X144428489Y-90522118D01*
X144585887Y-90474372D01*
X144730946Y-90396836D01*
X144858091Y-90292491D01*
X144884246Y-90260621D01*
X147831232Y-87313637D01*
X147863091Y-87287491D01*
X147890123Y-87254553D01*
X147967436Y-87160346D01*
X148044972Y-87015287D01*
X148052844Y-86989337D01*
X148092718Y-86857889D01*
X148104800Y-86735219D01*
X148104800Y-86735218D01*
X148108840Y-86694200D01*
X148104800Y-86653182D01*
X148104800Y-83162067D01*
X150409669Y-80857200D01*
X170963933Y-80857200D01*
X174312364Y-84205633D01*
G36*
X168306364Y-86745633D02*
G01*
X168332510Y-86777492D01*
X168364369Y-86803638D01*
X168364371Y-86803640D01*
X168459655Y-86881837D01*
X168604714Y-86959373D01*
X168762112Y-87007119D01*
X168925801Y-87023241D01*
X168966819Y-87019201D01*
X183124800Y-87019201D01*
X183124800Y-87152997D01*
X183180907Y-87435066D01*
X183290965Y-87700769D01*
X183416871Y-87889201D01*
X167874669Y-87889201D01*
X165288246Y-85302779D01*
X165262091Y-85270909D01*
X165134946Y-85166564D01*
X164989887Y-85089028D01*
X164832489Y-85041282D01*
X164709819Y-85029200D01*
X164709818Y-85029200D01*
X164668800Y-85025160D01*
X164627782Y-85029200D01*
X156695912Y-85029200D01*
X156544408Y-84844592D01*
X156325901Y-84665268D01*
X156076608Y-84532018D01*
X155806109Y-84449964D01*
X155595292Y-84429200D01*
X155454308Y-84429200D01*
X155243491Y-84449964D01*
X154972992Y-84532018D01*
X154723699Y-84665268D01*
X154505192Y-84844592D01*
X154325868Y-85063099D01*
X154192618Y-85312392D01*
X154110564Y-85582891D01*
X154082857Y-85864200D01*
X154110564Y-86145509D01*
X154192618Y-86416008D01*
X154325868Y-86665301D01*
X154505192Y-86883808D01*
X154689801Y-87035312D01*
X154689801Y-87220172D01*
X154685760Y-87261200D01*
X154701882Y-87424888D01*
X154749628Y-87582286D01*
X154825575Y-87724372D01*
X154827165Y-87727346D01*
X154931510Y-87854491D01*
X154963374Y-87880641D01*
X155095000Y-88012267D01*
X155095001Y-90265211D01*
X155042790Y-90300097D01*
X154845697Y-90497190D01*
X154690843Y-90728946D01*
X154674800Y-90767677D01*
X154658757Y-90728946D01*
X154503903Y-90497190D01*
X154306810Y-90300097D01*
X154075054Y-90145243D01*
X153817540Y-90038577D01*
X153544165Y-89984200D01*
X153265435Y-89984200D01*
X152992060Y-90038577D01*
X152734546Y-90145243D01*
X152502790Y-90300097D01*
X152305697Y-90497190D01*
X152150843Y-90728946D01*
X152134800Y-90767677D01*
X152118757Y-90728946D01*
X151963903Y-90497190D01*
X151766810Y-90300097D01*
X151535054Y-90145243D01*
X151277540Y-90038577D01*
X151004165Y-89984200D01*
X150725435Y-89984200D01*
X150452060Y-90038577D01*
X150194546Y-90145243D01*
X149962790Y-90300097D01*
X149765697Y-90497190D01*
X149610843Y-90728946D01*
X149594800Y-90767677D01*
X149578757Y-90728946D01*
X149423903Y-90497190D01*
X149226810Y-90300097D01*
X149223789Y-90298078D01*
X150879228Y-88642640D01*
X150911091Y-88616491D01*
X151015436Y-88489346D01*
X151092972Y-88344287D01*
X151140718Y-88186889D01*
X151152800Y-88064219D01*
X151152800Y-88064218D01*
X151156840Y-88023200D01*
X151152800Y-87982182D01*
X151152800Y-87035312D01*
X151337408Y-86883808D01*
X151516732Y-86665301D01*
X151649982Y-86416008D01*
X151732036Y-86145509D01*
X151759743Y-85864200D01*
X151732036Y-85582891D01*
X151649982Y-85312392D01*
X151516732Y-85063099D01*
X151337408Y-84844592D01*
X151218698Y-84747169D01*
X152441669Y-83524200D01*
X165084933Y-83524200D01*
X168306364Y-86745633D01*
X168306364Y-86745633D01*
G37*
X168306364Y-86745633D02*
X168332510Y-86777492D01*
X168364369Y-86803638D01*
X168364371Y-86803640D01*
X168459655Y-86881837D01*
X168604714Y-86959373D01*
X168762112Y-87007119D01*
X168925801Y-87023241D01*
X168966819Y-87019201D01*
X183124800Y-87019201D01*
X183124800Y-87152997D01*
X183180907Y-87435066D01*
X183290965Y-87700769D01*
X183416871Y-87889201D01*
X167874669Y-87889201D01*
X165288246Y-85302779D01*
X165262091Y-85270909D01*
X165134946Y-85166564D01*
X164989887Y-85089028D01*
X164832489Y-85041282D01*
X164709819Y-85029200D01*
X164709818Y-85029200D01*
X164668800Y-85025160D01*
X164627782Y-85029200D01*
X156695912Y-85029200D01*
X156544408Y-84844592D01*
X156325901Y-84665268D01*
X156076608Y-84532018D01*
X155806109Y-84449964D01*
X155595292Y-84429200D01*
X155454308Y-84429200D01*
X155243491Y-84449964D01*
X154972992Y-84532018D01*
X154723699Y-84665268D01*
X154505192Y-84844592D01*
X154325868Y-85063099D01*
X154192618Y-85312392D01*
X154110564Y-85582891D01*
X154082857Y-85864200D01*
X154110564Y-86145509D01*
X154192618Y-86416008D01*
X154325868Y-86665301D01*
X154505192Y-86883808D01*
X154689801Y-87035312D01*
X154689801Y-87220172D01*
X154685760Y-87261200D01*
X154701882Y-87424888D01*
X154749628Y-87582286D01*
X154825575Y-87724372D01*
X154827165Y-87727346D01*
X154931510Y-87854491D01*
X154963374Y-87880641D01*
X155095000Y-88012267D01*
X155095001Y-90265211D01*
X155042790Y-90300097D01*
X154845697Y-90497190D01*
X154690843Y-90728946D01*
X154674800Y-90767677D01*
X154658757Y-90728946D01*
X154503903Y-90497190D01*
X154306810Y-90300097D01*
X154075054Y-90145243D01*
X153817540Y-90038577D01*
X153544165Y-89984200D01*
X153265435Y-89984200D01*
X152992060Y-90038577D01*
X152734546Y-90145243D01*
X152502790Y-90300097D01*
X152305697Y-90497190D01*
X152150843Y-90728946D01*
X152134800Y-90767677D01*
X152118757Y-90728946D01*
X151963903Y-90497190D01*
X151766810Y-90300097D01*
X151535054Y-90145243D01*
X151277540Y-90038577D01*
X151004165Y-89984200D01*
X150725435Y-89984200D01*
X150452060Y-90038577D01*
X150194546Y-90145243D01*
X149962790Y-90300097D01*
X149765697Y-90497190D01*
X149610843Y-90728946D01*
X149594800Y-90767677D01*
X149578757Y-90728946D01*
X149423903Y-90497190D01*
X149226810Y-90300097D01*
X149223789Y-90298078D01*
X150879228Y-88642640D01*
X150911091Y-88616491D01*
X151015436Y-88489346D01*
X151092972Y-88344287D01*
X151140718Y-88186889D01*
X151152800Y-88064219D01*
X151152800Y-88064218D01*
X151156840Y-88023200D01*
X151152800Y-87982182D01*
X151152800Y-87035312D01*
X151337408Y-86883808D01*
X151516732Y-86665301D01*
X151649982Y-86416008D01*
X151732036Y-86145509D01*
X151759743Y-85864200D01*
X151732036Y-85582891D01*
X151649982Y-85312392D01*
X151516732Y-85063099D01*
X151337408Y-84844592D01*
X151218698Y-84747169D01*
X152441669Y-83524200D01*
X165084933Y-83524200D01*
X168306364Y-86745633D01*
G36*
X140111509Y-73482491D02*
G01*
X140143379Y-73508646D01*
X141739801Y-75105069D01*
X141739800Y-84096748D01*
X141650452Y-84059739D01*
X141421512Y-84014200D01*
X141300669Y-84014200D01*
X140099800Y-82813333D01*
X140099800Y-73468223D01*
X140111509Y-73482491D01*
X140111509Y-73482491D01*
G37*
X140111509Y-73482491D02*
X140143379Y-73508646D01*
X141739801Y-75105069D01*
X141739800Y-84096748D01*
X141650452Y-84059739D01*
X141421512Y-84014200D01*
X141300669Y-84014200D01*
X140099800Y-82813333D01*
X140099800Y-73468223D01*
X140111509Y-73482491D01*
M02*
