G04 #@! TF.GenerationSoftware,KiCad,Pcbnew,(5.1.0)-1*
G04 #@! TF.CreationDate,2021-02-10T11:26:08+01:00*
G04 #@! TF.ProjectId,L_thilfeV1,4cf67468-696c-4666-9556-312e6b696361,rev?*
G04 #@! TF.SameCoordinates,Original*
G04 #@! TF.FileFunction,Copper,L2,Bot*
G04 #@! TF.FilePolarity,Positive*
%FSLAX46Y46*%
G04 Gerber Fmt 4.6, Leading zero omitted, Abs format (unit mm)*
G04 Created by KiCad (PCBNEW (5.1.0)-1) date 2021-02-10 11:26:08*
%MOMM*%
%LPD*%
G04 APERTURE LIST*
%ADD10C,2.800000*%
%ADD11O,1.700000X1.700000*%
%ADD12R,1.700000X1.700000*%
%ADD13O,2.400000X2.400000*%
%ADD14C,2.400000*%
%ADD15C,1.800000*%
%ADD16R,1.800000X1.800000*%
%ADD17R,1.050000X1.500000*%
%ADD18C,0.100000*%
%ADD19C,1.050000*%
%ADD20C,1.600000*%
%ADD21O,1.600000X1.600000*%
%ADD22C,0.254000*%
G04 APERTURE END LIST*
D10*
X153500000Y-56500000D03*
X117000000Y-55500000D03*
X113500000Y-31500000D03*
X117500000Y-45500000D03*
X133000000Y-37000000D03*
X158000000Y-65500000D03*
X129250000Y-65500000D03*
X155500000Y-45500000D03*
X168000000Y-31500000D03*
D11*
X142540000Y-31500000D03*
D12*
X140000000Y-31500000D03*
D13*
X124600000Y-45500000D03*
D14*
X150000000Y-45500000D03*
D15*
X124040000Y-37000000D03*
D16*
X121500000Y-37000000D03*
D17*
X111000000Y-60500000D03*
D18*
G36*
X108748229Y-59751264D02*
G01*
X108773711Y-59755044D01*
X108798700Y-59761303D01*
X108822954Y-59769982D01*
X108846242Y-59780996D01*
X108868337Y-59794239D01*
X108889028Y-59809585D01*
X108908116Y-59826884D01*
X108925415Y-59845972D01*
X108940761Y-59866663D01*
X108954004Y-59888758D01*
X108965018Y-59912046D01*
X108973697Y-59936300D01*
X108979956Y-59961289D01*
X108983736Y-59986771D01*
X108985000Y-60012500D01*
X108985000Y-60987500D01*
X108983736Y-61013229D01*
X108979956Y-61038711D01*
X108973697Y-61063700D01*
X108965018Y-61087954D01*
X108954004Y-61111242D01*
X108940761Y-61133337D01*
X108925415Y-61154028D01*
X108908116Y-61173116D01*
X108889028Y-61190415D01*
X108868337Y-61205761D01*
X108846242Y-61219004D01*
X108822954Y-61230018D01*
X108798700Y-61238697D01*
X108773711Y-61244956D01*
X108748229Y-61248736D01*
X108722500Y-61250000D01*
X108197500Y-61250000D01*
X108171771Y-61248736D01*
X108146289Y-61244956D01*
X108121300Y-61238697D01*
X108097046Y-61230018D01*
X108073758Y-61219004D01*
X108051663Y-61205761D01*
X108030972Y-61190415D01*
X108011884Y-61173116D01*
X107994585Y-61154028D01*
X107979239Y-61133337D01*
X107965996Y-61111242D01*
X107954982Y-61087954D01*
X107946303Y-61063700D01*
X107940044Y-61038711D01*
X107936264Y-61013229D01*
X107935000Y-60987500D01*
X107935000Y-60012500D01*
X107936264Y-59986771D01*
X107940044Y-59961289D01*
X107946303Y-59936300D01*
X107954982Y-59912046D01*
X107965996Y-59888758D01*
X107979239Y-59866663D01*
X107994585Y-59845972D01*
X108011884Y-59826884D01*
X108030972Y-59809585D01*
X108051663Y-59794239D01*
X108073758Y-59780996D01*
X108097046Y-59769982D01*
X108121300Y-59761303D01*
X108146289Y-59755044D01*
X108171771Y-59751264D01*
X108197500Y-59750000D01*
X108722500Y-59750000D01*
X108748229Y-59751264D01*
X108748229Y-59751264D01*
G37*
D19*
X108460000Y-60500000D03*
D18*
G36*
X110018229Y-59751264D02*
G01*
X110043711Y-59755044D01*
X110068700Y-59761303D01*
X110092954Y-59769982D01*
X110116242Y-59780996D01*
X110138337Y-59794239D01*
X110159028Y-59809585D01*
X110178116Y-59826884D01*
X110195415Y-59845972D01*
X110210761Y-59866663D01*
X110224004Y-59888758D01*
X110235018Y-59912046D01*
X110243697Y-59936300D01*
X110249956Y-59961289D01*
X110253736Y-59986771D01*
X110255000Y-60012500D01*
X110255000Y-60987500D01*
X110253736Y-61013229D01*
X110249956Y-61038711D01*
X110243697Y-61063700D01*
X110235018Y-61087954D01*
X110224004Y-61111242D01*
X110210761Y-61133337D01*
X110195415Y-61154028D01*
X110178116Y-61173116D01*
X110159028Y-61190415D01*
X110138337Y-61205761D01*
X110116242Y-61219004D01*
X110092954Y-61230018D01*
X110068700Y-61238697D01*
X110043711Y-61244956D01*
X110018229Y-61248736D01*
X109992500Y-61250000D01*
X109467500Y-61250000D01*
X109441771Y-61248736D01*
X109416289Y-61244956D01*
X109391300Y-61238697D01*
X109367046Y-61230018D01*
X109343758Y-61219004D01*
X109321663Y-61205761D01*
X109300972Y-61190415D01*
X109281884Y-61173116D01*
X109264585Y-61154028D01*
X109249239Y-61133337D01*
X109235996Y-61111242D01*
X109224982Y-61087954D01*
X109216303Y-61063700D01*
X109210044Y-61038711D01*
X109206264Y-61013229D01*
X109205000Y-60987500D01*
X109205000Y-60012500D01*
X109206264Y-59986771D01*
X109210044Y-59961289D01*
X109216303Y-59936300D01*
X109224982Y-59912046D01*
X109235996Y-59888758D01*
X109249239Y-59866663D01*
X109264585Y-59845972D01*
X109281884Y-59826884D01*
X109300972Y-59809585D01*
X109321663Y-59794239D01*
X109343758Y-59780996D01*
X109367046Y-59769982D01*
X109391300Y-59761303D01*
X109416289Y-59755044D01*
X109441771Y-59751264D01*
X109467500Y-59750000D01*
X109992500Y-59750000D01*
X110018229Y-59751264D01*
X110018229Y-59751264D01*
G37*
D19*
X109730000Y-60500000D03*
D20*
X143000000Y-56500000D03*
X146500000Y-56500000D03*
D21*
X175240000Y-56500000D03*
D20*
X160000000Y-56500000D03*
D21*
X155740000Y-37000000D03*
D20*
X140500000Y-37000000D03*
D21*
X176240000Y-45500000D03*
D20*
X161000000Y-45500000D03*
D12*
X127000000Y-55500000D03*
X160000000Y-52000000D03*
D15*
X109540000Y-45500000D03*
D16*
X107000000Y-45500000D03*
D22*
G36*
X179259659Y-28688625D02*
G01*
X179509429Y-28764035D01*
X179739792Y-28886522D01*
X179941980Y-29051422D01*
X180108286Y-29252450D01*
X180232378Y-29481954D01*
X180309531Y-29731195D01*
X180340000Y-30021089D01*
X180340001Y-34467572D01*
X180340000Y-34467582D01*
X180340001Y-67967711D01*
X180311375Y-68259660D01*
X180235965Y-68509429D01*
X180113477Y-68739794D01*
X179948579Y-68941979D01*
X179747546Y-69108288D01*
X179518046Y-69232378D01*
X179268805Y-69309531D01*
X178978911Y-69340000D01*
X101032279Y-69340000D01*
X100740340Y-69311375D01*
X100490571Y-69235965D01*
X100260206Y-69113477D01*
X100058021Y-68948579D01*
X99891712Y-68747546D01*
X99767622Y-68518046D01*
X99690469Y-68268805D01*
X99660000Y-67978911D01*
X99660000Y-65299570D01*
X127215000Y-65299570D01*
X127215000Y-65700430D01*
X127293204Y-66093587D01*
X127446607Y-66463934D01*
X127669313Y-66797237D01*
X127952763Y-67080687D01*
X128286066Y-67303393D01*
X128656413Y-67456796D01*
X129049570Y-67535000D01*
X129450430Y-67535000D01*
X129843587Y-67456796D01*
X130213934Y-67303393D01*
X130547237Y-67080687D01*
X130830687Y-66797237D01*
X131053393Y-66463934D01*
X131206796Y-66093587D01*
X131285000Y-65700430D01*
X131285000Y-65299570D01*
X155965000Y-65299570D01*
X155965000Y-65700430D01*
X156043204Y-66093587D01*
X156196607Y-66463934D01*
X156419313Y-66797237D01*
X156702763Y-67080687D01*
X157036066Y-67303393D01*
X157406413Y-67456796D01*
X157799570Y-67535000D01*
X158200430Y-67535000D01*
X158593587Y-67456796D01*
X158963934Y-67303393D01*
X159297237Y-67080687D01*
X159580687Y-66797237D01*
X159803393Y-66463934D01*
X159956796Y-66093587D01*
X160035000Y-65700430D01*
X160035000Y-65299570D01*
X159956796Y-64906413D01*
X159803393Y-64536066D01*
X159580687Y-64202763D01*
X159297237Y-63919313D01*
X158963934Y-63696607D01*
X158593587Y-63543204D01*
X158200430Y-63465000D01*
X157799570Y-63465000D01*
X157406413Y-63543204D01*
X157036066Y-63696607D01*
X156702763Y-63919313D01*
X156419313Y-64202763D01*
X156196607Y-64536066D01*
X156043204Y-64906413D01*
X155965000Y-65299570D01*
X131285000Y-65299570D01*
X131206796Y-64906413D01*
X131053393Y-64536066D01*
X130830687Y-64202763D01*
X130547237Y-63919313D01*
X130213934Y-63696607D01*
X129843587Y-63543204D01*
X129450430Y-63465000D01*
X129049570Y-63465000D01*
X128656413Y-63543204D01*
X128286066Y-63696607D01*
X127952763Y-63919313D01*
X127669313Y-64202763D01*
X127446607Y-64536066D01*
X127293204Y-64906413D01*
X127215000Y-65299570D01*
X99660000Y-65299570D01*
X99660000Y-61250000D01*
X107296928Y-61250000D01*
X107309188Y-61374482D01*
X107345498Y-61494180D01*
X107404463Y-61604494D01*
X107483815Y-61701185D01*
X107580506Y-61780537D01*
X107690820Y-61839502D01*
X107810518Y-61875812D01*
X107935000Y-61888072D01*
X108174250Y-61885000D01*
X108333000Y-61726250D01*
X108333000Y-60627000D01*
X107458750Y-60627000D01*
X107300000Y-60785750D01*
X107296928Y-61250000D01*
X99660000Y-61250000D01*
X99660000Y-59750000D01*
X107296928Y-59750000D01*
X107300000Y-60214250D01*
X107458750Y-60373000D01*
X108333000Y-60373000D01*
X108333000Y-60012500D01*
X108566928Y-60012500D01*
X108566928Y-60987500D01*
X108584232Y-61163193D01*
X108587000Y-61172318D01*
X108587000Y-61726250D01*
X108745750Y-61885000D01*
X108985000Y-61888072D01*
X109109482Y-61875812D01*
X109208959Y-61845636D01*
X109291807Y-61870768D01*
X109467500Y-61888072D01*
X109992500Y-61888072D01*
X110168193Y-61870768D01*
X110251041Y-61845636D01*
X110350518Y-61875812D01*
X110475000Y-61888072D01*
X111525000Y-61888072D01*
X111649482Y-61875812D01*
X111769180Y-61839502D01*
X111879494Y-61780537D01*
X111976185Y-61701185D01*
X112055537Y-61604494D01*
X112114502Y-61494180D01*
X112150812Y-61374482D01*
X112163072Y-61250000D01*
X112163072Y-59750000D01*
X112150812Y-59625518D01*
X112114502Y-59505820D01*
X112055537Y-59395506D01*
X111976185Y-59298815D01*
X111879494Y-59219463D01*
X111769180Y-59160498D01*
X111649482Y-59124188D01*
X111525000Y-59111928D01*
X110475000Y-59111928D01*
X110350518Y-59124188D01*
X110251041Y-59154364D01*
X110168193Y-59129232D01*
X109992500Y-59111928D01*
X109467500Y-59111928D01*
X109291807Y-59129232D01*
X109208959Y-59154364D01*
X109109482Y-59124188D01*
X108985000Y-59111928D01*
X108745750Y-59115000D01*
X108587000Y-59273750D01*
X108587000Y-59827682D01*
X108584232Y-59836807D01*
X108566928Y-60012500D01*
X108333000Y-60012500D01*
X108333000Y-59273750D01*
X108174250Y-59115000D01*
X107935000Y-59111928D01*
X107810518Y-59124188D01*
X107690820Y-59160498D01*
X107580506Y-59219463D01*
X107483815Y-59298815D01*
X107404463Y-59395506D01*
X107345498Y-59505820D01*
X107309188Y-59625518D01*
X107296928Y-59750000D01*
X99660000Y-59750000D01*
X99660000Y-55299570D01*
X114965000Y-55299570D01*
X114965000Y-55700430D01*
X115043204Y-56093587D01*
X115196607Y-56463934D01*
X115419313Y-56797237D01*
X115702763Y-57080687D01*
X116036066Y-57303393D01*
X116406413Y-57456796D01*
X116799570Y-57535000D01*
X117200430Y-57535000D01*
X117413075Y-57492702D01*
X142186903Y-57492702D01*
X142258486Y-57736671D01*
X142513996Y-57857571D01*
X142788184Y-57926300D01*
X143070512Y-57940217D01*
X143350130Y-57898787D01*
X143616292Y-57803603D01*
X143741514Y-57736671D01*
X143813097Y-57492702D01*
X143000000Y-56679605D01*
X142186903Y-57492702D01*
X117413075Y-57492702D01*
X117593587Y-57456796D01*
X117963934Y-57303393D01*
X118297237Y-57080687D01*
X118580687Y-56797237D01*
X118803393Y-56463934D01*
X118956796Y-56093587D01*
X119035000Y-55700430D01*
X119035000Y-55299570D01*
X118956796Y-54906413D01*
X118850587Y-54650000D01*
X125511928Y-54650000D01*
X125511928Y-56350000D01*
X125524188Y-56474482D01*
X125560498Y-56594180D01*
X125619463Y-56704494D01*
X125698815Y-56801185D01*
X125795506Y-56880537D01*
X125905820Y-56939502D01*
X126025518Y-56975812D01*
X126150000Y-56988072D01*
X127850000Y-56988072D01*
X127974482Y-56975812D01*
X128094180Y-56939502D01*
X128204494Y-56880537D01*
X128301185Y-56801185D01*
X128380537Y-56704494D01*
X128439502Y-56594180D01*
X128446681Y-56570512D01*
X141559783Y-56570512D01*
X141601213Y-56850130D01*
X141696397Y-57116292D01*
X141763329Y-57241514D01*
X142007298Y-57313097D01*
X142820395Y-56500000D01*
X143179605Y-56500000D01*
X143992702Y-57313097D01*
X144236671Y-57241514D01*
X144357571Y-56986004D01*
X144426300Y-56711816D01*
X144440217Y-56429488D01*
X144429724Y-56358665D01*
X145065000Y-56358665D01*
X145065000Y-56641335D01*
X145120147Y-56918574D01*
X145228320Y-57179727D01*
X145385363Y-57414759D01*
X145585241Y-57614637D01*
X145820273Y-57771680D01*
X146081426Y-57879853D01*
X146358665Y-57935000D01*
X146641335Y-57935000D01*
X146918574Y-57879853D01*
X147179727Y-57771680D01*
X147414759Y-57614637D01*
X147614637Y-57414759D01*
X147771680Y-57179727D01*
X147879853Y-56918574D01*
X147935000Y-56641335D01*
X147935000Y-56358665D01*
X147923246Y-56299570D01*
X151465000Y-56299570D01*
X151465000Y-56700430D01*
X151543204Y-57093587D01*
X151696607Y-57463934D01*
X151919313Y-57797237D01*
X152202763Y-58080687D01*
X152536066Y-58303393D01*
X152906413Y-58456796D01*
X153299570Y-58535000D01*
X153700430Y-58535000D01*
X154093587Y-58456796D01*
X154463934Y-58303393D01*
X154797237Y-58080687D01*
X155080687Y-57797237D01*
X155303393Y-57463934D01*
X155456796Y-57093587D01*
X155535000Y-56700430D01*
X155535000Y-56358665D01*
X158565000Y-56358665D01*
X158565000Y-56641335D01*
X158620147Y-56918574D01*
X158728320Y-57179727D01*
X158885363Y-57414759D01*
X159085241Y-57614637D01*
X159320273Y-57771680D01*
X159581426Y-57879853D01*
X159858665Y-57935000D01*
X160141335Y-57935000D01*
X160418574Y-57879853D01*
X160679727Y-57771680D01*
X160914759Y-57614637D01*
X161114637Y-57414759D01*
X161271680Y-57179727D01*
X161379853Y-56918574D01*
X161435000Y-56641335D01*
X161435000Y-56500000D01*
X173798057Y-56500000D01*
X173825764Y-56781309D01*
X173907818Y-57051808D01*
X174041068Y-57301101D01*
X174220392Y-57519608D01*
X174438899Y-57698932D01*
X174688192Y-57832182D01*
X174958691Y-57914236D01*
X175169508Y-57935000D01*
X175310492Y-57935000D01*
X175521309Y-57914236D01*
X175791808Y-57832182D01*
X176041101Y-57698932D01*
X176259608Y-57519608D01*
X176438932Y-57301101D01*
X176572182Y-57051808D01*
X176654236Y-56781309D01*
X176681943Y-56500000D01*
X176654236Y-56218691D01*
X176572182Y-55948192D01*
X176438932Y-55698899D01*
X176259608Y-55480392D01*
X176041101Y-55301068D01*
X175791808Y-55167818D01*
X175521309Y-55085764D01*
X175310492Y-55065000D01*
X175169508Y-55065000D01*
X174958691Y-55085764D01*
X174688192Y-55167818D01*
X174438899Y-55301068D01*
X174220392Y-55480392D01*
X174041068Y-55698899D01*
X173907818Y-55948192D01*
X173825764Y-56218691D01*
X173798057Y-56500000D01*
X161435000Y-56500000D01*
X161435000Y-56358665D01*
X161379853Y-56081426D01*
X161271680Y-55820273D01*
X161114637Y-55585241D01*
X160914759Y-55385363D01*
X160679727Y-55228320D01*
X160418574Y-55120147D01*
X160141335Y-55065000D01*
X159858665Y-55065000D01*
X159581426Y-55120147D01*
X159320273Y-55228320D01*
X159085241Y-55385363D01*
X158885363Y-55585241D01*
X158728320Y-55820273D01*
X158620147Y-56081426D01*
X158565000Y-56358665D01*
X155535000Y-56358665D01*
X155535000Y-56299570D01*
X155456796Y-55906413D01*
X155303393Y-55536066D01*
X155080687Y-55202763D01*
X154797237Y-54919313D01*
X154463934Y-54696607D01*
X154093587Y-54543204D01*
X153700430Y-54465000D01*
X153299570Y-54465000D01*
X152906413Y-54543204D01*
X152536066Y-54696607D01*
X152202763Y-54919313D01*
X151919313Y-55202763D01*
X151696607Y-55536066D01*
X151543204Y-55906413D01*
X151465000Y-56299570D01*
X147923246Y-56299570D01*
X147879853Y-56081426D01*
X147771680Y-55820273D01*
X147614637Y-55585241D01*
X147414759Y-55385363D01*
X147179727Y-55228320D01*
X146918574Y-55120147D01*
X146641335Y-55065000D01*
X146358665Y-55065000D01*
X146081426Y-55120147D01*
X145820273Y-55228320D01*
X145585241Y-55385363D01*
X145385363Y-55585241D01*
X145228320Y-55820273D01*
X145120147Y-56081426D01*
X145065000Y-56358665D01*
X144429724Y-56358665D01*
X144398787Y-56149870D01*
X144303603Y-55883708D01*
X144236671Y-55758486D01*
X143992702Y-55686903D01*
X143179605Y-56500000D01*
X142820395Y-56500000D01*
X142007298Y-55686903D01*
X141763329Y-55758486D01*
X141642429Y-56013996D01*
X141573700Y-56288184D01*
X141559783Y-56570512D01*
X128446681Y-56570512D01*
X128475812Y-56474482D01*
X128488072Y-56350000D01*
X128488072Y-55507298D01*
X142186903Y-55507298D01*
X143000000Y-56320395D01*
X143813097Y-55507298D01*
X143741514Y-55263329D01*
X143486004Y-55142429D01*
X143211816Y-55073700D01*
X142929488Y-55059783D01*
X142649870Y-55101213D01*
X142383708Y-55196397D01*
X142258486Y-55263329D01*
X142186903Y-55507298D01*
X128488072Y-55507298D01*
X128488072Y-54650000D01*
X128475812Y-54525518D01*
X128439502Y-54405820D01*
X128380537Y-54295506D01*
X128301185Y-54198815D01*
X128204494Y-54119463D01*
X128094180Y-54060498D01*
X127974482Y-54024188D01*
X127850000Y-54011928D01*
X126150000Y-54011928D01*
X126025518Y-54024188D01*
X125905820Y-54060498D01*
X125795506Y-54119463D01*
X125698815Y-54198815D01*
X125619463Y-54295506D01*
X125560498Y-54405820D01*
X125524188Y-54525518D01*
X125511928Y-54650000D01*
X118850587Y-54650000D01*
X118803393Y-54536066D01*
X118580687Y-54202763D01*
X118297237Y-53919313D01*
X117963934Y-53696607D01*
X117593587Y-53543204D01*
X117200430Y-53465000D01*
X116799570Y-53465000D01*
X116406413Y-53543204D01*
X116036066Y-53696607D01*
X115702763Y-53919313D01*
X115419313Y-54202763D01*
X115196607Y-54536066D01*
X115043204Y-54906413D01*
X114965000Y-55299570D01*
X99660000Y-55299570D01*
X99660000Y-51150000D01*
X158511928Y-51150000D01*
X158511928Y-52850000D01*
X158524188Y-52974482D01*
X158560498Y-53094180D01*
X158619463Y-53204494D01*
X158698815Y-53301185D01*
X158795506Y-53380537D01*
X158905820Y-53439502D01*
X159025518Y-53475812D01*
X159150000Y-53488072D01*
X160850000Y-53488072D01*
X160974482Y-53475812D01*
X161094180Y-53439502D01*
X161204494Y-53380537D01*
X161301185Y-53301185D01*
X161380537Y-53204494D01*
X161439502Y-53094180D01*
X161475812Y-52974482D01*
X161488072Y-52850000D01*
X161488072Y-51150000D01*
X161475812Y-51025518D01*
X161439502Y-50905820D01*
X161380537Y-50795506D01*
X161301185Y-50698815D01*
X161204494Y-50619463D01*
X161094180Y-50560498D01*
X160974482Y-50524188D01*
X160850000Y-50511928D01*
X159150000Y-50511928D01*
X159025518Y-50524188D01*
X158905820Y-50560498D01*
X158795506Y-50619463D01*
X158698815Y-50698815D01*
X158619463Y-50795506D01*
X158560498Y-50905820D01*
X158524188Y-51025518D01*
X158511928Y-51150000D01*
X99660000Y-51150000D01*
X99660000Y-46400000D01*
X105461928Y-46400000D01*
X105474188Y-46524482D01*
X105510498Y-46644180D01*
X105569463Y-46754494D01*
X105648815Y-46851185D01*
X105745506Y-46930537D01*
X105855820Y-46989502D01*
X105975518Y-47025812D01*
X106100000Y-47038072D01*
X106714250Y-47035000D01*
X106873000Y-46876250D01*
X106873000Y-45627000D01*
X105623750Y-45627000D01*
X105465000Y-45785750D01*
X105461928Y-46400000D01*
X99660000Y-46400000D01*
X99660000Y-44600000D01*
X105461928Y-44600000D01*
X105465000Y-45214250D01*
X105623750Y-45373000D01*
X106873000Y-45373000D01*
X106873000Y-44123750D01*
X107127000Y-44123750D01*
X107127000Y-45373000D01*
X107147000Y-45373000D01*
X107147000Y-45627000D01*
X107127000Y-45627000D01*
X107127000Y-46876250D01*
X107285750Y-47035000D01*
X107900000Y-47038072D01*
X108024482Y-47025812D01*
X108144180Y-46989502D01*
X108254494Y-46930537D01*
X108351185Y-46851185D01*
X108430537Y-46754494D01*
X108489502Y-46644180D01*
X108495056Y-46625873D01*
X108561495Y-46692312D01*
X108812905Y-46860299D01*
X109092257Y-46976011D01*
X109388816Y-47035000D01*
X109691184Y-47035000D01*
X109987743Y-46976011D01*
X110267095Y-46860299D01*
X110518505Y-46692312D01*
X110732312Y-46478505D01*
X110900299Y-46227095D01*
X111016011Y-45947743D01*
X111075000Y-45651184D01*
X111075000Y-45348816D01*
X111065205Y-45299570D01*
X115465000Y-45299570D01*
X115465000Y-45700430D01*
X115543204Y-46093587D01*
X115696607Y-46463934D01*
X115919313Y-46797237D01*
X116202763Y-47080687D01*
X116536066Y-47303393D01*
X116906413Y-47456796D01*
X117299570Y-47535000D01*
X117700430Y-47535000D01*
X118093587Y-47456796D01*
X118463934Y-47303393D01*
X118797237Y-47080687D01*
X119080687Y-46797237D01*
X119303393Y-46463934D01*
X119456796Y-46093587D01*
X119535000Y-45700430D01*
X119535000Y-45500000D01*
X122756122Y-45500000D01*
X122791552Y-45859723D01*
X122896479Y-46205622D01*
X123066871Y-46524404D01*
X123296181Y-46803819D01*
X123575596Y-47033129D01*
X123894378Y-47203521D01*
X124240277Y-47308448D01*
X124509861Y-47335000D01*
X124690139Y-47335000D01*
X124959723Y-47308448D01*
X125305622Y-47203521D01*
X125624404Y-47033129D01*
X125903819Y-46803819D01*
X126133129Y-46524404D01*
X126303521Y-46205622D01*
X126408448Y-45859723D01*
X126443878Y-45500000D01*
X126426078Y-45319268D01*
X148165000Y-45319268D01*
X148165000Y-45680732D01*
X148235518Y-46035250D01*
X148373844Y-46369199D01*
X148574662Y-46669744D01*
X148830256Y-46925338D01*
X149130801Y-47126156D01*
X149464750Y-47264482D01*
X149819268Y-47335000D01*
X150180732Y-47335000D01*
X150535250Y-47264482D01*
X150869199Y-47126156D01*
X151169744Y-46925338D01*
X151425338Y-46669744D01*
X151626156Y-46369199D01*
X151764482Y-46035250D01*
X151835000Y-45680732D01*
X151835000Y-45319268D01*
X151831082Y-45299570D01*
X153465000Y-45299570D01*
X153465000Y-45700430D01*
X153543204Y-46093587D01*
X153696607Y-46463934D01*
X153919313Y-46797237D01*
X154202763Y-47080687D01*
X154536066Y-47303393D01*
X154906413Y-47456796D01*
X155299570Y-47535000D01*
X155700430Y-47535000D01*
X156093587Y-47456796D01*
X156463934Y-47303393D01*
X156797237Y-47080687D01*
X157080687Y-46797237D01*
X157303393Y-46463934D01*
X157456796Y-46093587D01*
X157535000Y-45700430D01*
X157535000Y-45358665D01*
X159565000Y-45358665D01*
X159565000Y-45641335D01*
X159620147Y-45918574D01*
X159728320Y-46179727D01*
X159885363Y-46414759D01*
X160085241Y-46614637D01*
X160320273Y-46771680D01*
X160581426Y-46879853D01*
X160858665Y-46935000D01*
X161141335Y-46935000D01*
X161418574Y-46879853D01*
X161679727Y-46771680D01*
X161914759Y-46614637D01*
X162114637Y-46414759D01*
X162271680Y-46179727D01*
X162379853Y-45918574D01*
X162435000Y-45641335D01*
X162435000Y-45500000D01*
X174798057Y-45500000D01*
X174825764Y-45781309D01*
X174907818Y-46051808D01*
X175041068Y-46301101D01*
X175220392Y-46519608D01*
X175438899Y-46698932D01*
X175688192Y-46832182D01*
X175958691Y-46914236D01*
X176169508Y-46935000D01*
X176310492Y-46935000D01*
X176521309Y-46914236D01*
X176791808Y-46832182D01*
X177041101Y-46698932D01*
X177259608Y-46519608D01*
X177438932Y-46301101D01*
X177572182Y-46051808D01*
X177654236Y-45781309D01*
X177681943Y-45500000D01*
X177654236Y-45218691D01*
X177572182Y-44948192D01*
X177438932Y-44698899D01*
X177259608Y-44480392D01*
X177041101Y-44301068D01*
X176791808Y-44167818D01*
X176521309Y-44085764D01*
X176310492Y-44065000D01*
X176169508Y-44065000D01*
X175958691Y-44085764D01*
X175688192Y-44167818D01*
X175438899Y-44301068D01*
X175220392Y-44480392D01*
X175041068Y-44698899D01*
X174907818Y-44948192D01*
X174825764Y-45218691D01*
X174798057Y-45500000D01*
X162435000Y-45500000D01*
X162435000Y-45358665D01*
X162379853Y-45081426D01*
X162271680Y-44820273D01*
X162114637Y-44585241D01*
X161914759Y-44385363D01*
X161679727Y-44228320D01*
X161418574Y-44120147D01*
X161141335Y-44065000D01*
X160858665Y-44065000D01*
X160581426Y-44120147D01*
X160320273Y-44228320D01*
X160085241Y-44385363D01*
X159885363Y-44585241D01*
X159728320Y-44820273D01*
X159620147Y-45081426D01*
X159565000Y-45358665D01*
X157535000Y-45358665D01*
X157535000Y-45299570D01*
X157456796Y-44906413D01*
X157303393Y-44536066D01*
X157080687Y-44202763D01*
X156797237Y-43919313D01*
X156463934Y-43696607D01*
X156093587Y-43543204D01*
X155700430Y-43465000D01*
X155299570Y-43465000D01*
X154906413Y-43543204D01*
X154536066Y-43696607D01*
X154202763Y-43919313D01*
X153919313Y-44202763D01*
X153696607Y-44536066D01*
X153543204Y-44906413D01*
X153465000Y-45299570D01*
X151831082Y-45299570D01*
X151764482Y-44964750D01*
X151626156Y-44630801D01*
X151425338Y-44330256D01*
X151169744Y-44074662D01*
X150869199Y-43873844D01*
X150535250Y-43735518D01*
X150180732Y-43665000D01*
X149819268Y-43665000D01*
X149464750Y-43735518D01*
X149130801Y-43873844D01*
X148830256Y-44074662D01*
X148574662Y-44330256D01*
X148373844Y-44630801D01*
X148235518Y-44964750D01*
X148165000Y-45319268D01*
X126426078Y-45319268D01*
X126408448Y-45140277D01*
X126303521Y-44794378D01*
X126133129Y-44475596D01*
X125903819Y-44196181D01*
X125624404Y-43966871D01*
X125305622Y-43796479D01*
X124959723Y-43691552D01*
X124690139Y-43665000D01*
X124509861Y-43665000D01*
X124240277Y-43691552D01*
X123894378Y-43796479D01*
X123575596Y-43966871D01*
X123296181Y-44196181D01*
X123066871Y-44475596D01*
X122896479Y-44794378D01*
X122791552Y-45140277D01*
X122756122Y-45500000D01*
X119535000Y-45500000D01*
X119535000Y-45299570D01*
X119456796Y-44906413D01*
X119303393Y-44536066D01*
X119080687Y-44202763D01*
X118797237Y-43919313D01*
X118463934Y-43696607D01*
X118093587Y-43543204D01*
X117700430Y-43465000D01*
X117299570Y-43465000D01*
X116906413Y-43543204D01*
X116536066Y-43696607D01*
X116202763Y-43919313D01*
X115919313Y-44202763D01*
X115696607Y-44536066D01*
X115543204Y-44906413D01*
X115465000Y-45299570D01*
X111065205Y-45299570D01*
X111016011Y-45052257D01*
X110900299Y-44772905D01*
X110732312Y-44521495D01*
X110518505Y-44307688D01*
X110267095Y-44139701D01*
X109987743Y-44023989D01*
X109691184Y-43965000D01*
X109388816Y-43965000D01*
X109092257Y-44023989D01*
X108812905Y-44139701D01*
X108561495Y-44307688D01*
X108495056Y-44374127D01*
X108489502Y-44355820D01*
X108430537Y-44245506D01*
X108351185Y-44148815D01*
X108254494Y-44069463D01*
X108144180Y-44010498D01*
X108024482Y-43974188D01*
X107900000Y-43961928D01*
X107285750Y-43965000D01*
X107127000Y-44123750D01*
X106873000Y-44123750D01*
X106714250Y-43965000D01*
X106100000Y-43961928D01*
X105975518Y-43974188D01*
X105855820Y-44010498D01*
X105745506Y-44069463D01*
X105648815Y-44148815D01*
X105569463Y-44245506D01*
X105510498Y-44355820D01*
X105474188Y-44475518D01*
X105461928Y-44600000D01*
X99660000Y-44600000D01*
X99660000Y-37900000D01*
X119961928Y-37900000D01*
X119974188Y-38024482D01*
X120010498Y-38144180D01*
X120069463Y-38254494D01*
X120148815Y-38351185D01*
X120245506Y-38430537D01*
X120355820Y-38489502D01*
X120475518Y-38525812D01*
X120600000Y-38538072D01*
X121214250Y-38535000D01*
X121373000Y-38376250D01*
X121373000Y-37127000D01*
X120123750Y-37127000D01*
X119965000Y-37285750D01*
X119961928Y-37900000D01*
X99660000Y-37900000D01*
X99660000Y-36100000D01*
X119961928Y-36100000D01*
X119965000Y-36714250D01*
X120123750Y-36873000D01*
X121373000Y-36873000D01*
X121373000Y-35623750D01*
X121627000Y-35623750D01*
X121627000Y-36873000D01*
X121647000Y-36873000D01*
X121647000Y-37127000D01*
X121627000Y-37127000D01*
X121627000Y-38376250D01*
X121785750Y-38535000D01*
X122400000Y-38538072D01*
X122524482Y-38525812D01*
X122644180Y-38489502D01*
X122754494Y-38430537D01*
X122851185Y-38351185D01*
X122930537Y-38254494D01*
X122989502Y-38144180D01*
X122995056Y-38125873D01*
X123061495Y-38192312D01*
X123312905Y-38360299D01*
X123592257Y-38476011D01*
X123888816Y-38535000D01*
X124191184Y-38535000D01*
X124487743Y-38476011D01*
X124767095Y-38360299D01*
X125018505Y-38192312D01*
X125232312Y-37978505D01*
X125400299Y-37727095D01*
X125516011Y-37447743D01*
X125575000Y-37151184D01*
X125575000Y-36848816D01*
X125565205Y-36799570D01*
X130965000Y-36799570D01*
X130965000Y-37200430D01*
X131043204Y-37593587D01*
X131196607Y-37963934D01*
X131419313Y-38297237D01*
X131702763Y-38580687D01*
X132036066Y-38803393D01*
X132406413Y-38956796D01*
X132799570Y-39035000D01*
X133200430Y-39035000D01*
X133593587Y-38956796D01*
X133963934Y-38803393D01*
X134297237Y-38580687D01*
X134580687Y-38297237D01*
X134803393Y-37963934D01*
X134956796Y-37593587D01*
X135035000Y-37200430D01*
X135035000Y-36858665D01*
X139065000Y-36858665D01*
X139065000Y-37141335D01*
X139120147Y-37418574D01*
X139228320Y-37679727D01*
X139385363Y-37914759D01*
X139585241Y-38114637D01*
X139820273Y-38271680D01*
X140081426Y-38379853D01*
X140358665Y-38435000D01*
X140641335Y-38435000D01*
X140918574Y-38379853D01*
X141179727Y-38271680D01*
X141414759Y-38114637D01*
X141614637Y-37914759D01*
X141771680Y-37679727D01*
X141879853Y-37418574D01*
X141935000Y-37141335D01*
X141935000Y-37000000D01*
X154298057Y-37000000D01*
X154325764Y-37281309D01*
X154407818Y-37551808D01*
X154541068Y-37801101D01*
X154720392Y-38019608D01*
X154938899Y-38198932D01*
X155188192Y-38332182D01*
X155458691Y-38414236D01*
X155669508Y-38435000D01*
X155810492Y-38435000D01*
X156021309Y-38414236D01*
X156291808Y-38332182D01*
X156541101Y-38198932D01*
X156759608Y-38019608D01*
X156938932Y-37801101D01*
X157072182Y-37551808D01*
X157154236Y-37281309D01*
X157181943Y-37000000D01*
X157154236Y-36718691D01*
X157072182Y-36448192D01*
X156938932Y-36198899D01*
X156759608Y-35980392D01*
X156541101Y-35801068D01*
X156291808Y-35667818D01*
X156021309Y-35585764D01*
X155810492Y-35565000D01*
X155669508Y-35565000D01*
X155458691Y-35585764D01*
X155188192Y-35667818D01*
X154938899Y-35801068D01*
X154720392Y-35980392D01*
X154541068Y-36198899D01*
X154407818Y-36448192D01*
X154325764Y-36718691D01*
X154298057Y-37000000D01*
X141935000Y-37000000D01*
X141935000Y-36858665D01*
X141879853Y-36581426D01*
X141771680Y-36320273D01*
X141614637Y-36085241D01*
X141414759Y-35885363D01*
X141179727Y-35728320D01*
X140918574Y-35620147D01*
X140641335Y-35565000D01*
X140358665Y-35565000D01*
X140081426Y-35620147D01*
X139820273Y-35728320D01*
X139585241Y-35885363D01*
X139385363Y-36085241D01*
X139228320Y-36320273D01*
X139120147Y-36581426D01*
X139065000Y-36858665D01*
X135035000Y-36858665D01*
X135035000Y-36799570D01*
X134956796Y-36406413D01*
X134803393Y-36036066D01*
X134580687Y-35702763D01*
X134297237Y-35419313D01*
X133963934Y-35196607D01*
X133593587Y-35043204D01*
X133200430Y-34965000D01*
X132799570Y-34965000D01*
X132406413Y-35043204D01*
X132036066Y-35196607D01*
X131702763Y-35419313D01*
X131419313Y-35702763D01*
X131196607Y-36036066D01*
X131043204Y-36406413D01*
X130965000Y-36799570D01*
X125565205Y-36799570D01*
X125516011Y-36552257D01*
X125400299Y-36272905D01*
X125232312Y-36021495D01*
X125018505Y-35807688D01*
X124767095Y-35639701D01*
X124487743Y-35523989D01*
X124191184Y-35465000D01*
X123888816Y-35465000D01*
X123592257Y-35523989D01*
X123312905Y-35639701D01*
X123061495Y-35807688D01*
X122995056Y-35874127D01*
X122989502Y-35855820D01*
X122930537Y-35745506D01*
X122851185Y-35648815D01*
X122754494Y-35569463D01*
X122644180Y-35510498D01*
X122524482Y-35474188D01*
X122400000Y-35461928D01*
X121785750Y-35465000D01*
X121627000Y-35623750D01*
X121373000Y-35623750D01*
X121214250Y-35465000D01*
X120600000Y-35461928D01*
X120475518Y-35474188D01*
X120355820Y-35510498D01*
X120245506Y-35569463D01*
X120148815Y-35648815D01*
X120069463Y-35745506D01*
X120010498Y-35855820D01*
X119974188Y-35975518D01*
X119961928Y-36100000D01*
X99660000Y-36100000D01*
X99660000Y-32920447D01*
X112259158Y-32920447D01*
X112403135Y-33225770D01*
X112760892Y-33406597D01*
X113147053Y-33514155D01*
X113546777Y-33544310D01*
X113944704Y-33495904D01*
X114325540Y-33370795D01*
X114596865Y-33225770D01*
X114740842Y-32920447D01*
X113500000Y-31679605D01*
X112259158Y-32920447D01*
X99660000Y-32920447D01*
X99660000Y-31546777D01*
X111455690Y-31546777D01*
X111504096Y-31944704D01*
X111629205Y-32325540D01*
X111774230Y-32596865D01*
X112079553Y-32740842D01*
X113320395Y-31500000D01*
X113679605Y-31500000D01*
X114920447Y-32740842D01*
X115225770Y-32596865D01*
X115350547Y-32350000D01*
X138511928Y-32350000D01*
X138524188Y-32474482D01*
X138560498Y-32594180D01*
X138619463Y-32704494D01*
X138698815Y-32801185D01*
X138795506Y-32880537D01*
X138905820Y-32939502D01*
X139025518Y-32975812D01*
X139150000Y-32988072D01*
X139714250Y-32985000D01*
X139873000Y-32826250D01*
X139873000Y-31627000D01*
X138673750Y-31627000D01*
X138515000Y-31785750D01*
X138511928Y-32350000D01*
X115350547Y-32350000D01*
X115406597Y-32239108D01*
X115514155Y-31852947D01*
X115544310Y-31453223D01*
X115495904Y-31055296D01*
X115370795Y-30674460D01*
X115357721Y-30650000D01*
X138511928Y-30650000D01*
X138515000Y-31214250D01*
X138673750Y-31373000D01*
X139873000Y-31373000D01*
X139873000Y-30173750D01*
X140127000Y-30173750D01*
X140127000Y-31373000D01*
X140147000Y-31373000D01*
X140147000Y-31627000D01*
X140127000Y-31627000D01*
X140127000Y-32826250D01*
X140285750Y-32985000D01*
X140850000Y-32988072D01*
X140974482Y-32975812D01*
X141094180Y-32939502D01*
X141204494Y-32880537D01*
X141301185Y-32801185D01*
X141380537Y-32704494D01*
X141439502Y-32594180D01*
X141460393Y-32525313D01*
X141484866Y-32555134D01*
X141710986Y-32740706D01*
X141968966Y-32878599D01*
X142248889Y-32963513D01*
X142467050Y-32985000D01*
X142612950Y-32985000D01*
X142831111Y-32963513D01*
X143111034Y-32878599D01*
X143369014Y-32740706D01*
X143595134Y-32555134D01*
X143780706Y-32329014D01*
X143918599Y-32071034D01*
X144003513Y-31791111D01*
X144032185Y-31500000D01*
X144012445Y-31299570D01*
X165965000Y-31299570D01*
X165965000Y-31700430D01*
X166043204Y-32093587D01*
X166196607Y-32463934D01*
X166419313Y-32797237D01*
X166702763Y-33080687D01*
X167036066Y-33303393D01*
X167406413Y-33456796D01*
X167799570Y-33535000D01*
X168200430Y-33535000D01*
X168593587Y-33456796D01*
X168963934Y-33303393D01*
X169297237Y-33080687D01*
X169580687Y-32797237D01*
X169803393Y-32463934D01*
X169956796Y-32093587D01*
X170035000Y-31700430D01*
X170035000Y-31299570D01*
X169956796Y-30906413D01*
X169803393Y-30536066D01*
X169580687Y-30202763D01*
X169297237Y-29919313D01*
X168963934Y-29696607D01*
X168593587Y-29543204D01*
X168200430Y-29465000D01*
X167799570Y-29465000D01*
X167406413Y-29543204D01*
X167036066Y-29696607D01*
X166702763Y-29919313D01*
X166419313Y-30202763D01*
X166196607Y-30536066D01*
X166043204Y-30906413D01*
X165965000Y-31299570D01*
X144012445Y-31299570D01*
X144003513Y-31208889D01*
X143918599Y-30928966D01*
X143780706Y-30670986D01*
X143595134Y-30444866D01*
X143369014Y-30259294D01*
X143111034Y-30121401D01*
X142831111Y-30036487D01*
X142612950Y-30015000D01*
X142467050Y-30015000D01*
X142248889Y-30036487D01*
X141968966Y-30121401D01*
X141710986Y-30259294D01*
X141484866Y-30444866D01*
X141460393Y-30474687D01*
X141439502Y-30405820D01*
X141380537Y-30295506D01*
X141301185Y-30198815D01*
X141204494Y-30119463D01*
X141094180Y-30060498D01*
X140974482Y-30024188D01*
X140850000Y-30011928D01*
X140285750Y-30015000D01*
X140127000Y-30173750D01*
X139873000Y-30173750D01*
X139714250Y-30015000D01*
X139150000Y-30011928D01*
X139025518Y-30024188D01*
X138905820Y-30060498D01*
X138795506Y-30119463D01*
X138698815Y-30198815D01*
X138619463Y-30295506D01*
X138560498Y-30405820D01*
X138524188Y-30525518D01*
X138511928Y-30650000D01*
X115357721Y-30650000D01*
X115225770Y-30403135D01*
X114920447Y-30259158D01*
X113679605Y-31500000D01*
X113320395Y-31500000D01*
X112079553Y-30259158D01*
X111774230Y-30403135D01*
X111593403Y-30760892D01*
X111485845Y-31147053D01*
X111455690Y-31546777D01*
X99660000Y-31546777D01*
X99660000Y-30079553D01*
X112259158Y-30079553D01*
X113500000Y-31320395D01*
X114740842Y-30079553D01*
X114596865Y-29774230D01*
X114239108Y-29593403D01*
X113852947Y-29485845D01*
X113453223Y-29455690D01*
X113055296Y-29504096D01*
X112674460Y-29629205D01*
X112403135Y-29774230D01*
X112259158Y-30079553D01*
X99660000Y-30079553D01*
X99660000Y-30032279D01*
X99688625Y-29740341D01*
X99764035Y-29490571D01*
X99886522Y-29260208D01*
X100051422Y-29058020D01*
X100252450Y-28891714D01*
X100481954Y-28767622D01*
X100731195Y-28690469D01*
X101021088Y-28660000D01*
X178967721Y-28660000D01*
X179259659Y-28688625D01*
X179259659Y-28688625D01*
G37*
X179259659Y-28688625D02*
X179509429Y-28764035D01*
X179739792Y-28886522D01*
X179941980Y-29051422D01*
X180108286Y-29252450D01*
X180232378Y-29481954D01*
X180309531Y-29731195D01*
X180340000Y-30021089D01*
X180340001Y-34467572D01*
X180340000Y-34467582D01*
X180340001Y-67967711D01*
X180311375Y-68259660D01*
X180235965Y-68509429D01*
X180113477Y-68739794D01*
X179948579Y-68941979D01*
X179747546Y-69108288D01*
X179518046Y-69232378D01*
X179268805Y-69309531D01*
X178978911Y-69340000D01*
X101032279Y-69340000D01*
X100740340Y-69311375D01*
X100490571Y-69235965D01*
X100260206Y-69113477D01*
X100058021Y-68948579D01*
X99891712Y-68747546D01*
X99767622Y-68518046D01*
X99690469Y-68268805D01*
X99660000Y-67978911D01*
X99660000Y-65299570D01*
X127215000Y-65299570D01*
X127215000Y-65700430D01*
X127293204Y-66093587D01*
X127446607Y-66463934D01*
X127669313Y-66797237D01*
X127952763Y-67080687D01*
X128286066Y-67303393D01*
X128656413Y-67456796D01*
X129049570Y-67535000D01*
X129450430Y-67535000D01*
X129843587Y-67456796D01*
X130213934Y-67303393D01*
X130547237Y-67080687D01*
X130830687Y-66797237D01*
X131053393Y-66463934D01*
X131206796Y-66093587D01*
X131285000Y-65700430D01*
X131285000Y-65299570D01*
X155965000Y-65299570D01*
X155965000Y-65700430D01*
X156043204Y-66093587D01*
X156196607Y-66463934D01*
X156419313Y-66797237D01*
X156702763Y-67080687D01*
X157036066Y-67303393D01*
X157406413Y-67456796D01*
X157799570Y-67535000D01*
X158200430Y-67535000D01*
X158593587Y-67456796D01*
X158963934Y-67303393D01*
X159297237Y-67080687D01*
X159580687Y-66797237D01*
X159803393Y-66463934D01*
X159956796Y-66093587D01*
X160035000Y-65700430D01*
X160035000Y-65299570D01*
X159956796Y-64906413D01*
X159803393Y-64536066D01*
X159580687Y-64202763D01*
X159297237Y-63919313D01*
X158963934Y-63696607D01*
X158593587Y-63543204D01*
X158200430Y-63465000D01*
X157799570Y-63465000D01*
X157406413Y-63543204D01*
X157036066Y-63696607D01*
X156702763Y-63919313D01*
X156419313Y-64202763D01*
X156196607Y-64536066D01*
X156043204Y-64906413D01*
X155965000Y-65299570D01*
X131285000Y-65299570D01*
X131206796Y-64906413D01*
X131053393Y-64536066D01*
X130830687Y-64202763D01*
X130547237Y-63919313D01*
X130213934Y-63696607D01*
X129843587Y-63543204D01*
X129450430Y-63465000D01*
X129049570Y-63465000D01*
X128656413Y-63543204D01*
X128286066Y-63696607D01*
X127952763Y-63919313D01*
X127669313Y-64202763D01*
X127446607Y-64536066D01*
X127293204Y-64906413D01*
X127215000Y-65299570D01*
X99660000Y-65299570D01*
X99660000Y-61250000D01*
X107296928Y-61250000D01*
X107309188Y-61374482D01*
X107345498Y-61494180D01*
X107404463Y-61604494D01*
X107483815Y-61701185D01*
X107580506Y-61780537D01*
X107690820Y-61839502D01*
X107810518Y-61875812D01*
X107935000Y-61888072D01*
X108174250Y-61885000D01*
X108333000Y-61726250D01*
X108333000Y-60627000D01*
X107458750Y-60627000D01*
X107300000Y-60785750D01*
X107296928Y-61250000D01*
X99660000Y-61250000D01*
X99660000Y-59750000D01*
X107296928Y-59750000D01*
X107300000Y-60214250D01*
X107458750Y-60373000D01*
X108333000Y-60373000D01*
X108333000Y-60012500D01*
X108566928Y-60012500D01*
X108566928Y-60987500D01*
X108584232Y-61163193D01*
X108587000Y-61172318D01*
X108587000Y-61726250D01*
X108745750Y-61885000D01*
X108985000Y-61888072D01*
X109109482Y-61875812D01*
X109208959Y-61845636D01*
X109291807Y-61870768D01*
X109467500Y-61888072D01*
X109992500Y-61888072D01*
X110168193Y-61870768D01*
X110251041Y-61845636D01*
X110350518Y-61875812D01*
X110475000Y-61888072D01*
X111525000Y-61888072D01*
X111649482Y-61875812D01*
X111769180Y-61839502D01*
X111879494Y-61780537D01*
X111976185Y-61701185D01*
X112055537Y-61604494D01*
X112114502Y-61494180D01*
X112150812Y-61374482D01*
X112163072Y-61250000D01*
X112163072Y-59750000D01*
X112150812Y-59625518D01*
X112114502Y-59505820D01*
X112055537Y-59395506D01*
X111976185Y-59298815D01*
X111879494Y-59219463D01*
X111769180Y-59160498D01*
X111649482Y-59124188D01*
X111525000Y-59111928D01*
X110475000Y-59111928D01*
X110350518Y-59124188D01*
X110251041Y-59154364D01*
X110168193Y-59129232D01*
X109992500Y-59111928D01*
X109467500Y-59111928D01*
X109291807Y-59129232D01*
X109208959Y-59154364D01*
X109109482Y-59124188D01*
X108985000Y-59111928D01*
X108745750Y-59115000D01*
X108587000Y-59273750D01*
X108587000Y-59827682D01*
X108584232Y-59836807D01*
X108566928Y-60012500D01*
X108333000Y-60012500D01*
X108333000Y-59273750D01*
X108174250Y-59115000D01*
X107935000Y-59111928D01*
X107810518Y-59124188D01*
X107690820Y-59160498D01*
X107580506Y-59219463D01*
X107483815Y-59298815D01*
X107404463Y-59395506D01*
X107345498Y-59505820D01*
X107309188Y-59625518D01*
X107296928Y-59750000D01*
X99660000Y-59750000D01*
X99660000Y-55299570D01*
X114965000Y-55299570D01*
X114965000Y-55700430D01*
X115043204Y-56093587D01*
X115196607Y-56463934D01*
X115419313Y-56797237D01*
X115702763Y-57080687D01*
X116036066Y-57303393D01*
X116406413Y-57456796D01*
X116799570Y-57535000D01*
X117200430Y-57535000D01*
X117413075Y-57492702D01*
X142186903Y-57492702D01*
X142258486Y-57736671D01*
X142513996Y-57857571D01*
X142788184Y-57926300D01*
X143070512Y-57940217D01*
X143350130Y-57898787D01*
X143616292Y-57803603D01*
X143741514Y-57736671D01*
X143813097Y-57492702D01*
X143000000Y-56679605D01*
X142186903Y-57492702D01*
X117413075Y-57492702D01*
X117593587Y-57456796D01*
X117963934Y-57303393D01*
X118297237Y-57080687D01*
X118580687Y-56797237D01*
X118803393Y-56463934D01*
X118956796Y-56093587D01*
X119035000Y-55700430D01*
X119035000Y-55299570D01*
X118956796Y-54906413D01*
X118850587Y-54650000D01*
X125511928Y-54650000D01*
X125511928Y-56350000D01*
X125524188Y-56474482D01*
X125560498Y-56594180D01*
X125619463Y-56704494D01*
X125698815Y-56801185D01*
X125795506Y-56880537D01*
X125905820Y-56939502D01*
X126025518Y-56975812D01*
X126150000Y-56988072D01*
X127850000Y-56988072D01*
X127974482Y-56975812D01*
X128094180Y-56939502D01*
X128204494Y-56880537D01*
X128301185Y-56801185D01*
X128380537Y-56704494D01*
X128439502Y-56594180D01*
X128446681Y-56570512D01*
X141559783Y-56570512D01*
X141601213Y-56850130D01*
X141696397Y-57116292D01*
X141763329Y-57241514D01*
X142007298Y-57313097D01*
X142820395Y-56500000D01*
X143179605Y-56500000D01*
X143992702Y-57313097D01*
X144236671Y-57241514D01*
X144357571Y-56986004D01*
X144426300Y-56711816D01*
X144440217Y-56429488D01*
X144429724Y-56358665D01*
X145065000Y-56358665D01*
X145065000Y-56641335D01*
X145120147Y-56918574D01*
X145228320Y-57179727D01*
X145385363Y-57414759D01*
X145585241Y-57614637D01*
X145820273Y-57771680D01*
X146081426Y-57879853D01*
X146358665Y-57935000D01*
X146641335Y-57935000D01*
X146918574Y-57879853D01*
X147179727Y-57771680D01*
X147414759Y-57614637D01*
X147614637Y-57414759D01*
X147771680Y-57179727D01*
X147879853Y-56918574D01*
X147935000Y-56641335D01*
X147935000Y-56358665D01*
X147923246Y-56299570D01*
X151465000Y-56299570D01*
X151465000Y-56700430D01*
X151543204Y-57093587D01*
X151696607Y-57463934D01*
X151919313Y-57797237D01*
X152202763Y-58080687D01*
X152536066Y-58303393D01*
X152906413Y-58456796D01*
X153299570Y-58535000D01*
X153700430Y-58535000D01*
X154093587Y-58456796D01*
X154463934Y-58303393D01*
X154797237Y-58080687D01*
X155080687Y-57797237D01*
X155303393Y-57463934D01*
X155456796Y-57093587D01*
X155535000Y-56700430D01*
X155535000Y-56358665D01*
X158565000Y-56358665D01*
X158565000Y-56641335D01*
X158620147Y-56918574D01*
X158728320Y-57179727D01*
X158885363Y-57414759D01*
X159085241Y-57614637D01*
X159320273Y-57771680D01*
X159581426Y-57879853D01*
X159858665Y-57935000D01*
X160141335Y-57935000D01*
X160418574Y-57879853D01*
X160679727Y-57771680D01*
X160914759Y-57614637D01*
X161114637Y-57414759D01*
X161271680Y-57179727D01*
X161379853Y-56918574D01*
X161435000Y-56641335D01*
X161435000Y-56500000D01*
X173798057Y-56500000D01*
X173825764Y-56781309D01*
X173907818Y-57051808D01*
X174041068Y-57301101D01*
X174220392Y-57519608D01*
X174438899Y-57698932D01*
X174688192Y-57832182D01*
X174958691Y-57914236D01*
X175169508Y-57935000D01*
X175310492Y-57935000D01*
X175521309Y-57914236D01*
X175791808Y-57832182D01*
X176041101Y-57698932D01*
X176259608Y-57519608D01*
X176438932Y-57301101D01*
X176572182Y-57051808D01*
X176654236Y-56781309D01*
X176681943Y-56500000D01*
X176654236Y-56218691D01*
X176572182Y-55948192D01*
X176438932Y-55698899D01*
X176259608Y-55480392D01*
X176041101Y-55301068D01*
X175791808Y-55167818D01*
X175521309Y-55085764D01*
X175310492Y-55065000D01*
X175169508Y-55065000D01*
X174958691Y-55085764D01*
X174688192Y-55167818D01*
X174438899Y-55301068D01*
X174220392Y-55480392D01*
X174041068Y-55698899D01*
X173907818Y-55948192D01*
X173825764Y-56218691D01*
X173798057Y-56500000D01*
X161435000Y-56500000D01*
X161435000Y-56358665D01*
X161379853Y-56081426D01*
X161271680Y-55820273D01*
X161114637Y-55585241D01*
X160914759Y-55385363D01*
X160679727Y-55228320D01*
X160418574Y-55120147D01*
X160141335Y-55065000D01*
X159858665Y-55065000D01*
X159581426Y-55120147D01*
X159320273Y-55228320D01*
X159085241Y-55385363D01*
X158885363Y-55585241D01*
X158728320Y-55820273D01*
X158620147Y-56081426D01*
X158565000Y-56358665D01*
X155535000Y-56358665D01*
X155535000Y-56299570D01*
X155456796Y-55906413D01*
X155303393Y-55536066D01*
X155080687Y-55202763D01*
X154797237Y-54919313D01*
X154463934Y-54696607D01*
X154093587Y-54543204D01*
X153700430Y-54465000D01*
X153299570Y-54465000D01*
X152906413Y-54543204D01*
X152536066Y-54696607D01*
X152202763Y-54919313D01*
X151919313Y-55202763D01*
X151696607Y-55536066D01*
X151543204Y-55906413D01*
X151465000Y-56299570D01*
X147923246Y-56299570D01*
X147879853Y-56081426D01*
X147771680Y-55820273D01*
X147614637Y-55585241D01*
X147414759Y-55385363D01*
X147179727Y-55228320D01*
X146918574Y-55120147D01*
X146641335Y-55065000D01*
X146358665Y-55065000D01*
X146081426Y-55120147D01*
X145820273Y-55228320D01*
X145585241Y-55385363D01*
X145385363Y-55585241D01*
X145228320Y-55820273D01*
X145120147Y-56081426D01*
X145065000Y-56358665D01*
X144429724Y-56358665D01*
X144398787Y-56149870D01*
X144303603Y-55883708D01*
X144236671Y-55758486D01*
X143992702Y-55686903D01*
X143179605Y-56500000D01*
X142820395Y-56500000D01*
X142007298Y-55686903D01*
X141763329Y-55758486D01*
X141642429Y-56013996D01*
X141573700Y-56288184D01*
X141559783Y-56570512D01*
X128446681Y-56570512D01*
X128475812Y-56474482D01*
X128488072Y-56350000D01*
X128488072Y-55507298D01*
X142186903Y-55507298D01*
X143000000Y-56320395D01*
X143813097Y-55507298D01*
X143741514Y-55263329D01*
X143486004Y-55142429D01*
X143211816Y-55073700D01*
X142929488Y-55059783D01*
X142649870Y-55101213D01*
X142383708Y-55196397D01*
X142258486Y-55263329D01*
X142186903Y-55507298D01*
X128488072Y-55507298D01*
X128488072Y-54650000D01*
X128475812Y-54525518D01*
X128439502Y-54405820D01*
X128380537Y-54295506D01*
X128301185Y-54198815D01*
X128204494Y-54119463D01*
X128094180Y-54060498D01*
X127974482Y-54024188D01*
X127850000Y-54011928D01*
X126150000Y-54011928D01*
X126025518Y-54024188D01*
X125905820Y-54060498D01*
X125795506Y-54119463D01*
X125698815Y-54198815D01*
X125619463Y-54295506D01*
X125560498Y-54405820D01*
X125524188Y-54525518D01*
X125511928Y-54650000D01*
X118850587Y-54650000D01*
X118803393Y-54536066D01*
X118580687Y-54202763D01*
X118297237Y-53919313D01*
X117963934Y-53696607D01*
X117593587Y-53543204D01*
X117200430Y-53465000D01*
X116799570Y-53465000D01*
X116406413Y-53543204D01*
X116036066Y-53696607D01*
X115702763Y-53919313D01*
X115419313Y-54202763D01*
X115196607Y-54536066D01*
X115043204Y-54906413D01*
X114965000Y-55299570D01*
X99660000Y-55299570D01*
X99660000Y-51150000D01*
X158511928Y-51150000D01*
X158511928Y-52850000D01*
X158524188Y-52974482D01*
X158560498Y-53094180D01*
X158619463Y-53204494D01*
X158698815Y-53301185D01*
X158795506Y-53380537D01*
X158905820Y-53439502D01*
X159025518Y-53475812D01*
X159150000Y-53488072D01*
X160850000Y-53488072D01*
X160974482Y-53475812D01*
X161094180Y-53439502D01*
X161204494Y-53380537D01*
X161301185Y-53301185D01*
X161380537Y-53204494D01*
X161439502Y-53094180D01*
X161475812Y-52974482D01*
X161488072Y-52850000D01*
X161488072Y-51150000D01*
X161475812Y-51025518D01*
X161439502Y-50905820D01*
X161380537Y-50795506D01*
X161301185Y-50698815D01*
X161204494Y-50619463D01*
X161094180Y-50560498D01*
X160974482Y-50524188D01*
X160850000Y-50511928D01*
X159150000Y-50511928D01*
X159025518Y-50524188D01*
X158905820Y-50560498D01*
X158795506Y-50619463D01*
X158698815Y-50698815D01*
X158619463Y-50795506D01*
X158560498Y-50905820D01*
X158524188Y-51025518D01*
X158511928Y-51150000D01*
X99660000Y-51150000D01*
X99660000Y-46400000D01*
X105461928Y-46400000D01*
X105474188Y-46524482D01*
X105510498Y-46644180D01*
X105569463Y-46754494D01*
X105648815Y-46851185D01*
X105745506Y-46930537D01*
X105855820Y-46989502D01*
X105975518Y-47025812D01*
X106100000Y-47038072D01*
X106714250Y-47035000D01*
X106873000Y-46876250D01*
X106873000Y-45627000D01*
X105623750Y-45627000D01*
X105465000Y-45785750D01*
X105461928Y-46400000D01*
X99660000Y-46400000D01*
X99660000Y-44600000D01*
X105461928Y-44600000D01*
X105465000Y-45214250D01*
X105623750Y-45373000D01*
X106873000Y-45373000D01*
X106873000Y-44123750D01*
X107127000Y-44123750D01*
X107127000Y-45373000D01*
X107147000Y-45373000D01*
X107147000Y-45627000D01*
X107127000Y-45627000D01*
X107127000Y-46876250D01*
X107285750Y-47035000D01*
X107900000Y-47038072D01*
X108024482Y-47025812D01*
X108144180Y-46989502D01*
X108254494Y-46930537D01*
X108351185Y-46851185D01*
X108430537Y-46754494D01*
X108489502Y-46644180D01*
X108495056Y-46625873D01*
X108561495Y-46692312D01*
X108812905Y-46860299D01*
X109092257Y-46976011D01*
X109388816Y-47035000D01*
X109691184Y-47035000D01*
X109987743Y-46976011D01*
X110267095Y-46860299D01*
X110518505Y-46692312D01*
X110732312Y-46478505D01*
X110900299Y-46227095D01*
X111016011Y-45947743D01*
X111075000Y-45651184D01*
X111075000Y-45348816D01*
X111065205Y-45299570D01*
X115465000Y-45299570D01*
X115465000Y-45700430D01*
X115543204Y-46093587D01*
X115696607Y-46463934D01*
X115919313Y-46797237D01*
X116202763Y-47080687D01*
X116536066Y-47303393D01*
X116906413Y-47456796D01*
X117299570Y-47535000D01*
X117700430Y-47535000D01*
X118093587Y-47456796D01*
X118463934Y-47303393D01*
X118797237Y-47080687D01*
X119080687Y-46797237D01*
X119303393Y-46463934D01*
X119456796Y-46093587D01*
X119535000Y-45700430D01*
X119535000Y-45500000D01*
X122756122Y-45500000D01*
X122791552Y-45859723D01*
X122896479Y-46205622D01*
X123066871Y-46524404D01*
X123296181Y-46803819D01*
X123575596Y-47033129D01*
X123894378Y-47203521D01*
X124240277Y-47308448D01*
X124509861Y-47335000D01*
X124690139Y-47335000D01*
X124959723Y-47308448D01*
X125305622Y-47203521D01*
X125624404Y-47033129D01*
X125903819Y-46803819D01*
X126133129Y-46524404D01*
X126303521Y-46205622D01*
X126408448Y-45859723D01*
X126443878Y-45500000D01*
X126426078Y-45319268D01*
X148165000Y-45319268D01*
X148165000Y-45680732D01*
X148235518Y-46035250D01*
X148373844Y-46369199D01*
X148574662Y-46669744D01*
X148830256Y-46925338D01*
X149130801Y-47126156D01*
X149464750Y-47264482D01*
X149819268Y-47335000D01*
X150180732Y-47335000D01*
X150535250Y-47264482D01*
X150869199Y-47126156D01*
X151169744Y-46925338D01*
X151425338Y-46669744D01*
X151626156Y-46369199D01*
X151764482Y-46035250D01*
X151835000Y-45680732D01*
X151835000Y-45319268D01*
X151831082Y-45299570D01*
X153465000Y-45299570D01*
X153465000Y-45700430D01*
X153543204Y-46093587D01*
X153696607Y-46463934D01*
X153919313Y-46797237D01*
X154202763Y-47080687D01*
X154536066Y-47303393D01*
X154906413Y-47456796D01*
X155299570Y-47535000D01*
X155700430Y-47535000D01*
X156093587Y-47456796D01*
X156463934Y-47303393D01*
X156797237Y-47080687D01*
X157080687Y-46797237D01*
X157303393Y-46463934D01*
X157456796Y-46093587D01*
X157535000Y-45700430D01*
X157535000Y-45358665D01*
X159565000Y-45358665D01*
X159565000Y-45641335D01*
X159620147Y-45918574D01*
X159728320Y-46179727D01*
X159885363Y-46414759D01*
X160085241Y-46614637D01*
X160320273Y-46771680D01*
X160581426Y-46879853D01*
X160858665Y-46935000D01*
X161141335Y-46935000D01*
X161418574Y-46879853D01*
X161679727Y-46771680D01*
X161914759Y-46614637D01*
X162114637Y-46414759D01*
X162271680Y-46179727D01*
X162379853Y-45918574D01*
X162435000Y-45641335D01*
X162435000Y-45500000D01*
X174798057Y-45500000D01*
X174825764Y-45781309D01*
X174907818Y-46051808D01*
X175041068Y-46301101D01*
X175220392Y-46519608D01*
X175438899Y-46698932D01*
X175688192Y-46832182D01*
X175958691Y-46914236D01*
X176169508Y-46935000D01*
X176310492Y-46935000D01*
X176521309Y-46914236D01*
X176791808Y-46832182D01*
X177041101Y-46698932D01*
X177259608Y-46519608D01*
X177438932Y-46301101D01*
X177572182Y-46051808D01*
X177654236Y-45781309D01*
X177681943Y-45500000D01*
X177654236Y-45218691D01*
X177572182Y-44948192D01*
X177438932Y-44698899D01*
X177259608Y-44480392D01*
X177041101Y-44301068D01*
X176791808Y-44167818D01*
X176521309Y-44085764D01*
X176310492Y-44065000D01*
X176169508Y-44065000D01*
X175958691Y-44085764D01*
X175688192Y-44167818D01*
X175438899Y-44301068D01*
X175220392Y-44480392D01*
X175041068Y-44698899D01*
X174907818Y-44948192D01*
X174825764Y-45218691D01*
X174798057Y-45500000D01*
X162435000Y-45500000D01*
X162435000Y-45358665D01*
X162379853Y-45081426D01*
X162271680Y-44820273D01*
X162114637Y-44585241D01*
X161914759Y-44385363D01*
X161679727Y-44228320D01*
X161418574Y-44120147D01*
X161141335Y-44065000D01*
X160858665Y-44065000D01*
X160581426Y-44120147D01*
X160320273Y-44228320D01*
X160085241Y-44385363D01*
X159885363Y-44585241D01*
X159728320Y-44820273D01*
X159620147Y-45081426D01*
X159565000Y-45358665D01*
X157535000Y-45358665D01*
X157535000Y-45299570D01*
X157456796Y-44906413D01*
X157303393Y-44536066D01*
X157080687Y-44202763D01*
X156797237Y-43919313D01*
X156463934Y-43696607D01*
X156093587Y-43543204D01*
X155700430Y-43465000D01*
X155299570Y-43465000D01*
X154906413Y-43543204D01*
X154536066Y-43696607D01*
X154202763Y-43919313D01*
X153919313Y-44202763D01*
X153696607Y-44536066D01*
X153543204Y-44906413D01*
X153465000Y-45299570D01*
X151831082Y-45299570D01*
X151764482Y-44964750D01*
X151626156Y-44630801D01*
X151425338Y-44330256D01*
X151169744Y-44074662D01*
X150869199Y-43873844D01*
X150535250Y-43735518D01*
X150180732Y-43665000D01*
X149819268Y-43665000D01*
X149464750Y-43735518D01*
X149130801Y-43873844D01*
X148830256Y-44074662D01*
X148574662Y-44330256D01*
X148373844Y-44630801D01*
X148235518Y-44964750D01*
X148165000Y-45319268D01*
X126426078Y-45319268D01*
X126408448Y-45140277D01*
X126303521Y-44794378D01*
X126133129Y-44475596D01*
X125903819Y-44196181D01*
X125624404Y-43966871D01*
X125305622Y-43796479D01*
X124959723Y-43691552D01*
X124690139Y-43665000D01*
X124509861Y-43665000D01*
X124240277Y-43691552D01*
X123894378Y-43796479D01*
X123575596Y-43966871D01*
X123296181Y-44196181D01*
X123066871Y-44475596D01*
X122896479Y-44794378D01*
X122791552Y-45140277D01*
X122756122Y-45500000D01*
X119535000Y-45500000D01*
X119535000Y-45299570D01*
X119456796Y-44906413D01*
X119303393Y-44536066D01*
X119080687Y-44202763D01*
X118797237Y-43919313D01*
X118463934Y-43696607D01*
X118093587Y-43543204D01*
X117700430Y-43465000D01*
X117299570Y-43465000D01*
X116906413Y-43543204D01*
X116536066Y-43696607D01*
X116202763Y-43919313D01*
X115919313Y-44202763D01*
X115696607Y-44536066D01*
X115543204Y-44906413D01*
X115465000Y-45299570D01*
X111065205Y-45299570D01*
X111016011Y-45052257D01*
X110900299Y-44772905D01*
X110732312Y-44521495D01*
X110518505Y-44307688D01*
X110267095Y-44139701D01*
X109987743Y-44023989D01*
X109691184Y-43965000D01*
X109388816Y-43965000D01*
X109092257Y-44023989D01*
X108812905Y-44139701D01*
X108561495Y-44307688D01*
X108495056Y-44374127D01*
X108489502Y-44355820D01*
X108430537Y-44245506D01*
X108351185Y-44148815D01*
X108254494Y-44069463D01*
X108144180Y-44010498D01*
X108024482Y-43974188D01*
X107900000Y-43961928D01*
X107285750Y-43965000D01*
X107127000Y-44123750D01*
X106873000Y-44123750D01*
X106714250Y-43965000D01*
X106100000Y-43961928D01*
X105975518Y-43974188D01*
X105855820Y-44010498D01*
X105745506Y-44069463D01*
X105648815Y-44148815D01*
X105569463Y-44245506D01*
X105510498Y-44355820D01*
X105474188Y-44475518D01*
X105461928Y-44600000D01*
X99660000Y-44600000D01*
X99660000Y-37900000D01*
X119961928Y-37900000D01*
X119974188Y-38024482D01*
X120010498Y-38144180D01*
X120069463Y-38254494D01*
X120148815Y-38351185D01*
X120245506Y-38430537D01*
X120355820Y-38489502D01*
X120475518Y-38525812D01*
X120600000Y-38538072D01*
X121214250Y-38535000D01*
X121373000Y-38376250D01*
X121373000Y-37127000D01*
X120123750Y-37127000D01*
X119965000Y-37285750D01*
X119961928Y-37900000D01*
X99660000Y-37900000D01*
X99660000Y-36100000D01*
X119961928Y-36100000D01*
X119965000Y-36714250D01*
X120123750Y-36873000D01*
X121373000Y-36873000D01*
X121373000Y-35623750D01*
X121627000Y-35623750D01*
X121627000Y-36873000D01*
X121647000Y-36873000D01*
X121647000Y-37127000D01*
X121627000Y-37127000D01*
X121627000Y-38376250D01*
X121785750Y-38535000D01*
X122400000Y-38538072D01*
X122524482Y-38525812D01*
X122644180Y-38489502D01*
X122754494Y-38430537D01*
X122851185Y-38351185D01*
X122930537Y-38254494D01*
X122989502Y-38144180D01*
X122995056Y-38125873D01*
X123061495Y-38192312D01*
X123312905Y-38360299D01*
X123592257Y-38476011D01*
X123888816Y-38535000D01*
X124191184Y-38535000D01*
X124487743Y-38476011D01*
X124767095Y-38360299D01*
X125018505Y-38192312D01*
X125232312Y-37978505D01*
X125400299Y-37727095D01*
X125516011Y-37447743D01*
X125575000Y-37151184D01*
X125575000Y-36848816D01*
X125565205Y-36799570D01*
X130965000Y-36799570D01*
X130965000Y-37200430D01*
X131043204Y-37593587D01*
X131196607Y-37963934D01*
X131419313Y-38297237D01*
X131702763Y-38580687D01*
X132036066Y-38803393D01*
X132406413Y-38956796D01*
X132799570Y-39035000D01*
X133200430Y-39035000D01*
X133593587Y-38956796D01*
X133963934Y-38803393D01*
X134297237Y-38580687D01*
X134580687Y-38297237D01*
X134803393Y-37963934D01*
X134956796Y-37593587D01*
X135035000Y-37200430D01*
X135035000Y-36858665D01*
X139065000Y-36858665D01*
X139065000Y-37141335D01*
X139120147Y-37418574D01*
X139228320Y-37679727D01*
X139385363Y-37914759D01*
X139585241Y-38114637D01*
X139820273Y-38271680D01*
X140081426Y-38379853D01*
X140358665Y-38435000D01*
X140641335Y-38435000D01*
X140918574Y-38379853D01*
X141179727Y-38271680D01*
X141414759Y-38114637D01*
X141614637Y-37914759D01*
X141771680Y-37679727D01*
X141879853Y-37418574D01*
X141935000Y-37141335D01*
X141935000Y-37000000D01*
X154298057Y-37000000D01*
X154325764Y-37281309D01*
X154407818Y-37551808D01*
X154541068Y-37801101D01*
X154720392Y-38019608D01*
X154938899Y-38198932D01*
X155188192Y-38332182D01*
X155458691Y-38414236D01*
X155669508Y-38435000D01*
X155810492Y-38435000D01*
X156021309Y-38414236D01*
X156291808Y-38332182D01*
X156541101Y-38198932D01*
X156759608Y-38019608D01*
X156938932Y-37801101D01*
X157072182Y-37551808D01*
X157154236Y-37281309D01*
X157181943Y-37000000D01*
X157154236Y-36718691D01*
X157072182Y-36448192D01*
X156938932Y-36198899D01*
X156759608Y-35980392D01*
X156541101Y-35801068D01*
X156291808Y-35667818D01*
X156021309Y-35585764D01*
X155810492Y-35565000D01*
X155669508Y-35565000D01*
X155458691Y-35585764D01*
X155188192Y-35667818D01*
X154938899Y-35801068D01*
X154720392Y-35980392D01*
X154541068Y-36198899D01*
X154407818Y-36448192D01*
X154325764Y-36718691D01*
X154298057Y-37000000D01*
X141935000Y-37000000D01*
X141935000Y-36858665D01*
X141879853Y-36581426D01*
X141771680Y-36320273D01*
X141614637Y-36085241D01*
X141414759Y-35885363D01*
X141179727Y-35728320D01*
X140918574Y-35620147D01*
X140641335Y-35565000D01*
X140358665Y-35565000D01*
X140081426Y-35620147D01*
X139820273Y-35728320D01*
X139585241Y-35885363D01*
X139385363Y-36085241D01*
X139228320Y-36320273D01*
X139120147Y-36581426D01*
X139065000Y-36858665D01*
X135035000Y-36858665D01*
X135035000Y-36799570D01*
X134956796Y-36406413D01*
X134803393Y-36036066D01*
X134580687Y-35702763D01*
X134297237Y-35419313D01*
X133963934Y-35196607D01*
X133593587Y-35043204D01*
X133200430Y-34965000D01*
X132799570Y-34965000D01*
X132406413Y-35043204D01*
X132036066Y-35196607D01*
X131702763Y-35419313D01*
X131419313Y-35702763D01*
X131196607Y-36036066D01*
X131043204Y-36406413D01*
X130965000Y-36799570D01*
X125565205Y-36799570D01*
X125516011Y-36552257D01*
X125400299Y-36272905D01*
X125232312Y-36021495D01*
X125018505Y-35807688D01*
X124767095Y-35639701D01*
X124487743Y-35523989D01*
X124191184Y-35465000D01*
X123888816Y-35465000D01*
X123592257Y-35523989D01*
X123312905Y-35639701D01*
X123061495Y-35807688D01*
X122995056Y-35874127D01*
X122989502Y-35855820D01*
X122930537Y-35745506D01*
X122851185Y-35648815D01*
X122754494Y-35569463D01*
X122644180Y-35510498D01*
X122524482Y-35474188D01*
X122400000Y-35461928D01*
X121785750Y-35465000D01*
X121627000Y-35623750D01*
X121373000Y-35623750D01*
X121214250Y-35465000D01*
X120600000Y-35461928D01*
X120475518Y-35474188D01*
X120355820Y-35510498D01*
X120245506Y-35569463D01*
X120148815Y-35648815D01*
X120069463Y-35745506D01*
X120010498Y-35855820D01*
X119974188Y-35975518D01*
X119961928Y-36100000D01*
X99660000Y-36100000D01*
X99660000Y-32920447D01*
X112259158Y-32920447D01*
X112403135Y-33225770D01*
X112760892Y-33406597D01*
X113147053Y-33514155D01*
X113546777Y-33544310D01*
X113944704Y-33495904D01*
X114325540Y-33370795D01*
X114596865Y-33225770D01*
X114740842Y-32920447D01*
X113500000Y-31679605D01*
X112259158Y-32920447D01*
X99660000Y-32920447D01*
X99660000Y-31546777D01*
X111455690Y-31546777D01*
X111504096Y-31944704D01*
X111629205Y-32325540D01*
X111774230Y-32596865D01*
X112079553Y-32740842D01*
X113320395Y-31500000D01*
X113679605Y-31500000D01*
X114920447Y-32740842D01*
X115225770Y-32596865D01*
X115350547Y-32350000D01*
X138511928Y-32350000D01*
X138524188Y-32474482D01*
X138560498Y-32594180D01*
X138619463Y-32704494D01*
X138698815Y-32801185D01*
X138795506Y-32880537D01*
X138905820Y-32939502D01*
X139025518Y-32975812D01*
X139150000Y-32988072D01*
X139714250Y-32985000D01*
X139873000Y-32826250D01*
X139873000Y-31627000D01*
X138673750Y-31627000D01*
X138515000Y-31785750D01*
X138511928Y-32350000D01*
X115350547Y-32350000D01*
X115406597Y-32239108D01*
X115514155Y-31852947D01*
X115544310Y-31453223D01*
X115495904Y-31055296D01*
X115370795Y-30674460D01*
X115357721Y-30650000D01*
X138511928Y-30650000D01*
X138515000Y-31214250D01*
X138673750Y-31373000D01*
X139873000Y-31373000D01*
X139873000Y-30173750D01*
X140127000Y-30173750D01*
X140127000Y-31373000D01*
X140147000Y-31373000D01*
X140147000Y-31627000D01*
X140127000Y-31627000D01*
X140127000Y-32826250D01*
X140285750Y-32985000D01*
X140850000Y-32988072D01*
X140974482Y-32975812D01*
X141094180Y-32939502D01*
X141204494Y-32880537D01*
X141301185Y-32801185D01*
X141380537Y-32704494D01*
X141439502Y-32594180D01*
X141460393Y-32525313D01*
X141484866Y-32555134D01*
X141710986Y-32740706D01*
X141968966Y-32878599D01*
X142248889Y-32963513D01*
X142467050Y-32985000D01*
X142612950Y-32985000D01*
X142831111Y-32963513D01*
X143111034Y-32878599D01*
X143369014Y-32740706D01*
X143595134Y-32555134D01*
X143780706Y-32329014D01*
X143918599Y-32071034D01*
X144003513Y-31791111D01*
X144032185Y-31500000D01*
X144012445Y-31299570D01*
X165965000Y-31299570D01*
X165965000Y-31700430D01*
X166043204Y-32093587D01*
X166196607Y-32463934D01*
X166419313Y-32797237D01*
X166702763Y-33080687D01*
X167036066Y-33303393D01*
X167406413Y-33456796D01*
X167799570Y-33535000D01*
X168200430Y-33535000D01*
X168593587Y-33456796D01*
X168963934Y-33303393D01*
X169297237Y-33080687D01*
X169580687Y-32797237D01*
X169803393Y-32463934D01*
X169956796Y-32093587D01*
X170035000Y-31700430D01*
X170035000Y-31299570D01*
X169956796Y-30906413D01*
X169803393Y-30536066D01*
X169580687Y-30202763D01*
X169297237Y-29919313D01*
X168963934Y-29696607D01*
X168593587Y-29543204D01*
X168200430Y-29465000D01*
X167799570Y-29465000D01*
X167406413Y-29543204D01*
X167036066Y-29696607D01*
X166702763Y-29919313D01*
X166419313Y-30202763D01*
X166196607Y-30536066D01*
X166043204Y-30906413D01*
X165965000Y-31299570D01*
X144012445Y-31299570D01*
X144003513Y-31208889D01*
X143918599Y-30928966D01*
X143780706Y-30670986D01*
X143595134Y-30444866D01*
X143369014Y-30259294D01*
X143111034Y-30121401D01*
X142831111Y-30036487D01*
X142612950Y-30015000D01*
X142467050Y-30015000D01*
X142248889Y-30036487D01*
X141968966Y-30121401D01*
X141710986Y-30259294D01*
X141484866Y-30444866D01*
X141460393Y-30474687D01*
X141439502Y-30405820D01*
X141380537Y-30295506D01*
X141301185Y-30198815D01*
X141204494Y-30119463D01*
X141094180Y-30060498D01*
X140974482Y-30024188D01*
X140850000Y-30011928D01*
X140285750Y-30015000D01*
X140127000Y-30173750D01*
X139873000Y-30173750D01*
X139714250Y-30015000D01*
X139150000Y-30011928D01*
X139025518Y-30024188D01*
X138905820Y-30060498D01*
X138795506Y-30119463D01*
X138698815Y-30198815D01*
X138619463Y-30295506D01*
X138560498Y-30405820D01*
X138524188Y-30525518D01*
X138511928Y-30650000D01*
X115357721Y-30650000D01*
X115225770Y-30403135D01*
X114920447Y-30259158D01*
X113679605Y-31500000D01*
X113320395Y-31500000D01*
X112079553Y-30259158D01*
X111774230Y-30403135D01*
X111593403Y-30760892D01*
X111485845Y-31147053D01*
X111455690Y-31546777D01*
X99660000Y-31546777D01*
X99660000Y-30079553D01*
X112259158Y-30079553D01*
X113500000Y-31320395D01*
X114740842Y-30079553D01*
X114596865Y-29774230D01*
X114239108Y-29593403D01*
X113852947Y-29485845D01*
X113453223Y-29455690D01*
X113055296Y-29504096D01*
X112674460Y-29629205D01*
X112403135Y-29774230D01*
X112259158Y-30079553D01*
X99660000Y-30079553D01*
X99660000Y-30032279D01*
X99688625Y-29740341D01*
X99764035Y-29490571D01*
X99886522Y-29260208D01*
X100051422Y-29058020D01*
X100252450Y-28891714D01*
X100481954Y-28767622D01*
X100731195Y-28690469D01*
X101021088Y-28660000D01*
X178967721Y-28660000D01*
X179259659Y-28688625D01*
M02*
