M48
; DRILL file {KiCad (5.1.0)-1} date 10.02.2021 11:26:11
; FORMAT={-:-/ absolute / metric / decimal}
; #@! TF.CreationDate,2021-02-10T11:26:11+01:00
; #@! TF.GenerationSoftware,Kicad,Pcbnew,(5.1.0)-1
; #@! TF.FileFunction,Plated,1,2,PTH
FMAT,2
METRIC
T1C0.750
T2C0.800
T3C0.900
T4C1.000
T5C1.200
T6C1.400
%
G90
G05
T1
X108.46Y-60.5
X109.73Y-60.5
X111.0Y-60.5
T2
X140.5Y-37.0
X155.74Y-37.0
X160.0Y-56.5
X175.24Y-56.5
X143.0Y-56.5
X146.5Y-56.5
X161.0Y-45.5
X176.24Y-45.5
T3
X107.0Y-45.5
X109.54Y-45.5
X121.5Y-37.0
X124.04Y-37.0
T4
X127.0Y-55.5
X160.0Y-52.0
X140.0Y-31.5
X142.54Y-31.5
T5
X124.6Y-45.5
X150.0Y-45.5
T6
X117.0Y-55.5
X158.0Y-65.5
X129.25Y-65.5
X153.5Y-56.5
X133.0Y-37.0
X113.5Y-31.5
X117.5Y-45.5
X168.0Y-31.5
X155.5Y-45.5
T0
M30
