G04 #@! TF.GenerationSoftware,KiCad,Pcbnew,(5.1.0)-1*
G04 #@! TF.CreationDate,2021-02-10T11:26:08+01:00*
G04 #@! TF.ProjectId,L_thilfeV1,4cf67468-696c-4666-9556-312e6b696361,rev?*
G04 #@! TF.SameCoordinates,Original*
G04 #@! TF.FileFunction,Soldermask,Top*
G04 #@! TF.FilePolarity,Negative*
%FSLAX46Y46*%
G04 Gerber Fmt 4.6, Leading zero omitted, Abs format (unit mm)*
G04 Created by KiCad (PCBNEW (5.1.0)-1) date 2021-02-10 11:26:08*
%MOMM*%
%LPD*%
G04 APERTURE LIST*
%ADD10C,0.100000*%
G04 APERTURE END LIST*
D10*
G36*
X158423241Y-64104760D02*
G01*
X158687305Y-64214139D01*
X158924958Y-64372934D01*
X159127066Y-64575042D01*
X159285861Y-64812695D01*
X159395240Y-65076759D01*
X159451000Y-65357088D01*
X159451000Y-65642912D01*
X159395240Y-65923241D01*
X159285861Y-66187305D01*
X159127066Y-66424958D01*
X158924958Y-66627066D01*
X158687305Y-66785861D01*
X158423241Y-66895240D01*
X158142912Y-66951000D01*
X157857088Y-66951000D01*
X157576759Y-66895240D01*
X157312695Y-66785861D01*
X157075042Y-66627066D01*
X156872934Y-66424958D01*
X156714139Y-66187305D01*
X156604760Y-65923241D01*
X156549000Y-65642912D01*
X156549000Y-65357088D01*
X156604760Y-65076759D01*
X156714139Y-64812695D01*
X156872934Y-64575042D01*
X157075042Y-64372934D01*
X157312695Y-64214139D01*
X157576759Y-64104760D01*
X157857088Y-64049000D01*
X158142912Y-64049000D01*
X158423241Y-64104760D01*
X158423241Y-64104760D01*
G37*
G36*
X129673241Y-64104760D02*
G01*
X129937305Y-64214139D01*
X130174958Y-64372934D01*
X130377066Y-64575042D01*
X130535861Y-64812695D01*
X130645240Y-65076759D01*
X130701000Y-65357088D01*
X130701000Y-65642912D01*
X130645240Y-65923241D01*
X130535861Y-66187305D01*
X130377066Y-66424958D01*
X130174958Y-66627066D01*
X129937305Y-66785861D01*
X129673241Y-66895240D01*
X129392912Y-66951000D01*
X129107088Y-66951000D01*
X128826759Y-66895240D01*
X128562695Y-66785861D01*
X128325042Y-66627066D01*
X128122934Y-66424958D01*
X127964139Y-66187305D01*
X127854760Y-65923241D01*
X127799000Y-65642912D01*
X127799000Y-65357088D01*
X127854760Y-65076759D01*
X127964139Y-64812695D01*
X128122934Y-64575042D01*
X128325042Y-64372934D01*
X128562695Y-64214139D01*
X128826759Y-64104760D01*
X129107088Y-64049000D01*
X129392912Y-64049000D01*
X129673241Y-64104760D01*
X129673241Y-64104760D01*
G37*
G36*
X123100562Y-64578181D02*
G01*
X123135481Y-64588774D01*
X123167663Y-64605976D01*
X123195873Y-64629127D01*
X123219024Y-64657337D01*
X123236226Y-64689519D01*
X123246819Y-64724438D01*
X123251000Y-64766895D01*
X123251000Y-66233105D01*
X123246819Y-66275562D01*
X123236226Y-66310481D01*
X123219024Y-66342663D01*
X123195873Y-66370873D01*
X123167663Y-66394024D01*
X123135481Y-66411226D01*
X123100562Y-66421819D01*
X123058105Y-66426000D01*
X121916895Y-66426000D01*
X121874438Y-66421819D01*
X121839519Y-66411226D01*
X121807337Y-66394024D01*
X121779127Y-66370873D01*
X121755976Y-66342663D01*
X121738774Y-66310481D01*
X121728181Y-66275562D01*
X121724000Y-66233105D01*
X121724000Y-64766895D01*
X121728181Y-64724438D01*
X121738774Y-64689519D01*
X121755976Y-64657337D01*
X121779127Y-64629127D01*
X121807337Y-64605976D01*
X121839519Y-64588774D01*
X121874438Y-64578181D01*
X121916895Y-64574000D01*
X123058105Y-64574000D01*
X123100562Y-64578181D01*
X123100562Y-64578181D01*
G37*
G36*
X138125562Y-64578181D02*
G01*
X138160481Y-64588774D01*
X138192663Y-64605976D01*
X138220873Y-64629127D01*
X138244024Y-64657337D01*
X138261226Y-64689519D01*
X138271819Y-64724438D01*
X138276000Y-64766895D01*
X138276000Y-66233105D01*
X138271819Y-66275562D01*
X138261226Y-66310481D01*
X138244024Y-66342663D01*
X138220873Y-66370873D01*
X138192663Y-66394024D01*
X138160481Y-66411226D01*
X138125562Y-66421819D01*
X138083105Y-66426000D01*
X136941895Y-66426000D01*
X136899438Y-66421819D01*
X136864519Y-66411226D01*
X136832337Y-66394024D01*
X136804127Y-66370873D01*
X136780976Y-66342663D01*
X136763774Y-66310481D01*
X136753181Y-66275562D01*
X136749000Y-66233105D01*
X136749000Y-64766895D01*
X136753181Y-64724438D01*
X136763774Y-64689519D01*
X136780976Y-64657337D01*
X136804127Y-64629127D01*
X136832337Y-64605976D01*
X136864519Y-64588774D01*
X136899438Y-64578181D01*
X136941895Y-64574000D01*
X138083105Y-64574000D01*
X138125562Y-64578181D01*
X138125562Y-64578181D01*
G37*
G36*
X141100562Y-64578181D02*
G01*
X141135481Y-64588774D01*
X141167663Y-64605976D01*
X141195873Y-64629127D01*
X141219024Y-64657337D01*
X141236226Y-64689519D01*
X141246819Y-64724438D01*
X141251000Y-64766895D01*
X141251000Y-66233105D01*
X141246819Y-66275562D01*
X141236226Y-66310481D01*
X141219024Y-66342663D01*
X141195873Y-66370873D01*
X141167663Y-66394024D01*
X141135481Y-66411226D01*
X141100562Y-66421819D01*
X141058105Y-66426000D01*
X139916895Y-66426000D01*
X139874438Y-66421819D01*
X139839519Y-66411226D01*
X139807337Y-66394024D01*
X139779127Y-66370873D01*
X139755976Y-66342663D01*
X139738774Y-66310481D01*
X139728181Y-66275562D01*
X139724000Y-66233105D01*
X139724000Y-64766895D01*
X139728181Y-64724438D01*
X139738774Y-64689519D01*
X139755976Y-64657337D01*
X139779127Y-64629127D01*
X139807337Y-64605976D01*
X139839519Y-64588774D01*
X139874438Y-64578181D01*
X139916895Y-64574000D01*
X141058105Y-64574000D01*
X141100562Y-64578181D01*
X141100562Y-64578181D01*
G37*
G36*
X120125562Y-64578181D02*
G01*
X120160481Y-64588774D01*
X120192663Y-64605976D01*
X120220873Y-64629127D01*
X120244024Y-64657337D01*
X120261226Y-64689519D01*
X120271819Y-64724438D01*
X120276000Y-64766895D01*
X120276000Y-66233105D01*
X120271819Y-66275562D01*
X120261226Y-66310481D01*
X120244024Y-66342663D01*
X120220873Y-66370873D01*
X120192663Y-66394024D01*
X120160481Y-66411226D01*
X120125562Y-66421819D01*
X120083105Y-66426000D01*
X118941895Y-66426000D01*
X118899438Y-66421819D01*
X118864519Y-66411226D01*
X118832337Y-66394024D01*
X118804127Y-66370873D01*
X118780976Y-66342663D01*
X118763774Y-66310481D01*
X118753181Y-66275562D01*
X118749000Y-66233105D01*
X118749000Y-64766895D01*
X118753181Y-64724438D01*
X118763774Y-64689519D01*
X118780976Y-64657337D01*
X118804127Y-64629127D01*
X118832337Y-64605976D01*
X118864519Y-64588774D01*
X118899438Y-64578181D01*
X118941895Y-64574000D01*
X120083105Y-64574000D01*
X120125562Y-64578181D01*
X120125562Y-64578181D01*
G37*
G36*
X149938674Y-64753465D02*
G01*
X149976367Y-64764899D01*
X150011103Y-64783466D01*
X150041548Y-64808452D01*
X150066534Y-64838897D01*
X150085101Y-64873633D01*
X150096535Y-64911326D01*
X150101000Y-64956661D01*
X150101000Y-66043339D01*
X150096535Y-66088674D01*
X150085101Y-66126367D01*
X150066534Y-66161103D01*
X150041548Y-66191548D01*
X150011103Y-66216534D01*
X149976367Y-66235101D01*
X149938674Y-66246535D01*
X149893339Y-66251000D01*
X149056661Y-66251000D01*
X149011326Y-66246535D01*
X148973633Y-66235101D01*
X148938897Y-66216534D01*
X148908452Y-66191548D01*
X148883466Y-66161103D01*
X148864899Y-66126367D01*
X148853465Y-66088674D01*
X148849000Y-66043339D01*
X148849000Y-64956661D01*
X148853465Y-64911326D01*
X148864899Y-64873633D01*
X148883466Y-64838897D01*
X148908452Y-64808452D01*
X148938897Y-64783466D01*
X148973633Y-64764899D01*
X149011326Y-64753465D01*
X149056661Y-64749000D01*
X149893339Y-64749000D01*
X149938674Y-64753465D01*
X149938674Y-64753465D01*
G37*
G36*
X151988674Y-64753465D02*
G01*
X152026367Y-64764899D01*
X152061103Y-64783466D01*
X152091548Y-64808452D01*
X152116534Y-64838897D01*
X152135101Y-64873633D01*
X152146535Y-64911326D01*
X152151000Y-64956661D01*
X152151000Y-66043339D01*
X152146535Y-66088674D01*
X152135101Y-66126367D01*
X152116534Y-66161103D01*
X152091548Y-66191548D01*
X152061103Y-66216534D01*
X152026367Y-66235101D01*
X151988674Y-66246535D01*
X151943339Y-66251000D01*
X151106661Y-66251000D01*
X151061326Y-66246535D01*
X151023633Y-66235101D01*
X150988897Y-66216534D01*
X150958452Y-66191548D01*
X150933466Y-66161103D01*
X150914899Y-66126367D01*
X150903465Y-66088674D01*
X150899000Y-66043339D01*
X150899000Y-64956661D01*
X150903465Y-64911326D01*
X150914899Y-64873633D01*
X150933466Y-64838897D01*
X150958452Y-64808452D01*
X150988897Y-64783466D01*
X151023633Y-64764899D01*
X151061326Y-64753465D01*
X151106661Y-64749000D01*
X151943339Y-64749000D01*
X151988674Y-64753465D01*
X151988674Y-64753465D01*
G37*
G36*
X165938674Y-64753465D02*
G01*
X165976367Y-64764899D01*
X166011103Y-64783466D01*
X166041548Y-64808452D01*
X166066534Y-64838897D01*
X166085101Y-64873633D01*
X166096535Y-64911326D01*
X166101000Y-64956661D01*
X166101000Y-66043339D01*
X166096535Y-66088674D01*
X166085101Y-66126367D01*
X166066534Y-66161103D01*
X166041548Y-66191548D01*
X166011103Y-66216534D01*
X165976367Y-66235101D01*
X165938674Y-66246535D01*
X165893339Y-66251000D01*
X165056661Y-66251000D01*
X165011326Y-66246535D01*
X164973633Y-66235101D01*
X164938897Y-66216534D01*
X164908452Y-66191548D01*
X164883466Y-66161103D01*
X164864899Y-66126367D01*
X164853465Y-66088674D01*
X164849000Y-66043339D01*
X164849000Y-64956661D01*
X164853465Y-64911326D01*
X164864899Y-64873633D01*
X164883466Y-64838897D01*
X164908452Y-64808452D01*
X164938897Y-64783466D01*
X164973633Y-64764899D01*
X165011326Y-64753465D01*
X165056661Y-64749000D01*
X165893339Y-64749000D01*
X165938674Y-64753465D01*
X165938674Y-64753465D01*
G37*
G36*
X167988674Y-64753465D02*
G01*
X168026367Y-64764899D01*
X168061103Y-64783466D01*
X168091548Y-64808452D01*
X168116534Y-64838897D01*
X168135101Y-64873633D01*
X168146535Y-64911326D01*
X168151000Y-64956661D01*
X168151000Y-66043339D01*
X168146535Y-66088674D01*
X168135101Y-66126367D01*
X168116534Y-66161103D01*
X168091548Y-66191548D01*
X168061103Y-66216534D01*
X168026367Y-66235101D01*
X167988674Y-66246535D01*
X167943339Y-66251000D01*
X167106661Y-66251000D01*
X167061326Y-66246535D01*
X167023633Y-66235101D01*
X166988897Y-66216534D01*
X166958452Y-66191548D01*
X166933466Y-66161103D01*
X166914899Y-66126367D01*
X166903465Y-66088674D01*
X166899000Y-66043339D01*
X166899000Y-64956661D01*
X166903465Y-64911326D01*
X166914899Y-64873633D01*
X166933466Y-64838897D01*
X166958452Y-64808452D01*
X166988897Y-64783466D01*
X167023633Y-64764899D01*
X167061326Y-64753465D01*
X167106661Y-64749000D01*
X167943339Y-64749000D01*
X167988674Y-64753465D01*
X167988674Y-64753465D01*
G37*
G36*
X108854373Y-59703926D02*
G01*
X108896566Y-59716725D01*
X108935444Y-59737506D01*
X108969525Y-59765475D01*
X108998375Y-59800629D01*
X109015702Y-59817956D01*
X109036076Y-59831569D01*
X109058715Y-59840947D01*
X109082748Y-59845727D01*
X109107253Y-59845727D01*
X109131286Y-59840946D01*
X109153925Y-59831569D01*
X109174299Y-59817955D01*
X109191625Y-59800629D01*
X109220475Y-59765475D01*
X109254556Y-59737506D01*
X109293434Y-59716725D01*
X109335627Y-59703926D01*
X109385641Y-59699000D01*
X110074359Y-59699000D01*
X110124373Y-59703926D01*
X110166566Y-59716725D01*
X110205444Y-59737506D01*
X110219702Y-59749207D01*
X110240076Y-59762821D01*
X110262715Y-59772198D01*
X110286748Y-59776979D01*
X110311252Y-59776979D01*
X110335286Y-59772199D01*
X110357925Y-59762822D01*
X110378299Y-59749208D01*
X110395626Y-59731881D01*
X110409240Y-59711507D01*
X110414420Y-59699000D01*
X111576000Y-59699000D01*
X111576000Y-61301000D01*
X110414915Y-61301000D01*
X110414485Y-61299583D01*
X110402934Y-61277972D01*
X110387389Y-61259030D01*
X110368447Y-61243485D01*
X110346836Y-61231934D01*
X110323387Y-61224821D01*
X110299001Y-61222419D01*
X110274615Y-61224821D01*
X110251166Y-61231934D01*
X110229555Y-61243485D01*
X110219702Y-61250793D01*
X110205444Y-61262494D01*
X110166566Y-61283275D01*
X110124373Y-61296074D01*
X110074359Y-61301000D01*
X109385641Y-61301000D01*
X109335627Y-61296074D01*
X109293434Y-61283275D01*
X109254556Y-61262494D01*
X109220475Y-61234525D01*
X109191625Y-61199371D01*
X109174298Y-61182044D01*
X109153924Y-61168431D01*
X109131285Y-61159053D01*
X109107252Y-61154273D01*
X109082747Y-61154273D01*
X109058714Y-61159054D01*
X109036075Y-61168431D01*
X109015701Y-61182045D01*
X108998375Y-61199371D01*
X108969525Y-61234525D01*
X108935444Y-61262494D01*
X108896566Y-61283275D01*
X108854373Y-61296074D01*
X108804359Y-61301000D01*
X108115641Y-61301000D01*
X108065627Y-61296074D01*
X108023434Y-61283275D01*
X107984556Y-61262494D01*
X107950475Y-61234525D01*
X107922506Y-61200444D01*
X107901725Y-61161566D01*
X107888926Y-61119373D01*
X107884000Y-61069359D01*
X107884000Y-59930641D01*
X107888926Y-59880627D01*
X107901725Y-59838434D01*
X107922506Y-59799556D01*
X107950475Y-59765475D01*
X107984556Y-59737506D01*
X108023434Y-59716725D01*
X108065627Y-59703926D01*
X108115641Y-59699000D01*
X108804359Y-59699000D01*
X108854373Y-59703926D01*
X108854373Y-59703926D01*
G37*
G36*
X153923241Y-55104760D02*
G01*
X154187305Y-55214139D01*
X154424958Y-55372934D01*
X154627066Y-55575042D01*
X154785861Y-55812695D01*
X154895240Y-56076759D01*
X154951000Y-56357088D01*
X154951000Y-56642912D01*
X154895240Y-56923241D01*
X154785861Y-57187305D01*
X154627066Y-57424958D01*
X154424958Y-57627066D01*
X154187305Y-57785861D01*
X153923241Y-57895240D01*
X153642912Y-57951000D01*
X153357088Y-57951000D01*
X153076759Y-57895240D01*
X152812695Y-57785861D01*
X152575042Y-57627066D01*
X152372934Y-57424958D01*
X152214139Y-57187305D01*
X152104760Y-56923241D01*
X152049000Y-56642912D01*
X152049000Y-56357088D01*
X152104760Y-56076759D01*
X152214139Y-55812695D01*
X152372934Y-55575042D01*
X152575042Y-55372934D01*
X152812695Y-55214139D01*
X153076759Y-55104760D01*
X153357088Y-55049000D01*
X153642912Y-55049000D01*
X153923241Y-55104760D01*
X153923241Y-55104760D01*
G37*
G36*
X143248228Y-55681703D02*
G01*
X143403100Y-55745853D01*
X143542481Y-55838985D01*
X143661015Y-55957519D01*
X143754147Y-56096900D01*
X143818297Y-56251772D01*
X143851000Y-56416184D01*
X143851000Y-56583816D01*
X143818297Y-56748228D01*
X143754147Y-56903100D01*
X143661015Y-57042481D01*
X143542481Y-57161015D01*
X143403100Y-57254147D01*
X143248228Y-57318297D01*
X143083816Y-57351000D01*
X142916184Y-57351000D01*
X142751772Y-57318297D01*
X142596900Y-57254147D01*
X142457519Y-57161015D01*
X142338985Y-57042481D01*
X142245853Y-56903100D01*
X142181703Y-56748228D01*
X142149000Y-56583816D01*
X142149000Y-56416184D01*
X142181703Y-56251772D01*
X142245853Y-56096900D01*
X142338985Y-55957519D01*
X142457519Y-55838985D01*
X142596900Y-55745853D01*
X142751772Y-55681703D01*
X142916184Y-55649000D01*
X143083816Y-55649000D01*
X143248228Y-55681703D01*
X143248228Y-55681703D01*
G37*
G36*
X175406823Y-55661313D02*
G01*
X175567242Y-55709976D01*
X175634361Y-55745852D01*
X175715078Y-55788996D01*
X175844659Y-55895341D01*
X175951004Y-56024922D01*
X175951005Y-56024924D01*
X176030024Y-56172758D01*
X176078687Y-56333177D01*
X176095117Y-56500000D01*
X176078687Y-56666823D01*
X176030024Y-56827242D01*
X175989477Y-56903100D01*
X175951004Y-56975078D01*
X175844659Y-57104659D01*
X175715078Y-57211004D01*
X175715076Y-57211005D01*
X175567242Y-57290024D01*
X175406823Y-57338687D01*
X175281804Y-57351000D01*
X175198196Y-57351000D01*
X175073177Y-57338687D01*
X174912758Y-57290024D01*
X174764924Y-57211005D01*
X174764922Y-57211004D01*
X174635341Y-57104659D01*
X174528996Y-56975078D01*
X174490523Y-56903100D01*
X174449976Y-56827242D01*
X174401313Y-56666823D01*
X174384883Y-56500000D01*
X174401313Y-56333177D01*
X174449976Y-56172758D01*
X174528995Y-56024924D01*
X174528996Y-56024922D01*
X174635341Y-55895341D01*
X174764922Y-55788996D01*
X174845639Y-55745852D01*
X174912758Y-55709976D01*
X175073177Y-55661313D01*
X175198196Y-55649000D01*
X175281804Y-55649000D01*
X175406823Y-55661313D01*
X175406823Y-55661313D01*
G37*
G36*
X146748228Y-55681703D02*
G01*
X146903100Y-55745853D01*
X147042481Y-55838985D01*
X147161015Y-55957519D01*
X147254147Y-56096900D01*
X147318297Y-56251772D01*
X147351000Y-56416184D01*
X147351000Y-56583816D01*
X147318297Y-56748228D01*
X147254147Y-56903100D01*
X147161015Y-57042481D01*
X147042481Y-57161015D01*
X146903100Y-57254147D01*
X146748228Y-57318297D01*
X146583816Y-57351000D01*
X146416184Y-57351000D01*
X146251772Y-57318297D01*
X146096900Y-57254147D01*
X145957519Y-57161015D01*
X145838985Y-57042481D01*
X145745853Y-56903100D01*
X145681703Y-56748228D01*
X145649000Y-56583816D01*
X145649000Y-56416184D01*
X145681703Y-56251772D01*
X145745853Y-56096900D01*
X145838985Y-55957519D01*
X145957519Y-55838985D01*
X146096900Y-55745853D01*
X146251772Y-55681703D01*
X146416184Y-55649000D01*
X146583816Y-55649000D01*
X146748228Y-55681703D01*
X146748228Y-55681703D01*
G37*
G36*
X160248228Y-55681703D02*
G01*
X160403100Y-55745853D01*
X160542481Y-55838985D01*
X160661015Y-55957519D01*
X160754147Y-56096900D01*
X160818297Y-56251772D01*
X160851000Y-56416184D01*
X160851000Y-56583816D01*
X160818297Y-56748228D01*
X160754147Y-56903100D01*
X160661015Y-57042481D01*
X160542481Y-57161015D01*
X160403100Y-57254147D01*
X160248228Y-57318297D01*
X160083816Y-57351000D01*
X159916184Y-57351000D01*
X159751772Y-57318297D01*
X159596900Y-57254147D01*
X159457519Y-57161015D01*
X159338985Y-57042481D01*
X159245853Y-56903100D01*
X159181703Y-56748228D01*
X159149000Y-56583816D01*
X159149000Y-56416184D01*
X159181703Y-56251772D01*
X159245853Y-56096900D01*
X159338985Y-55957519D01*
X159457519Y-55838985D01*
X159596900Y-55745853D01*
X159751772Y-55681703D01*
X159916184Y-55649000D01*
X160083816Y-55649000D01*
X160248228Y-55681703D01*
X160248228Y-55681703D01*
G37*
G36*
X117423241Y-54104760D02*
G01*
X117687305Y-54214139D01*
X117924958Y-54372934D01*
X118127066Y-54575042D01*
X118285861Y-54812695D01*
X118395240Y-55076759D01*
X118451000Y-55357088D01*
X118451000Y-55642912D01*
X118395240Y-55923241D01*
X118285861Y-56187305D01*
X118127066Y-56424958D01*
X117924958Y-56627066D01*
X117687305Y-56785861D01*
X117423241Y-56895240D01*
X117142912Y-56951000D01*
X116857088Y-56951000D01*
X116576759Y-56895240D01*
X116312695Y-56785861D01*
X116075042Y-56627066D01*
X115872934Y-56424958D01*
X115714139Y-56187305D01*
X115604760Y-55923241D01*
X115549000Y-55642912D01*
X115549000Y-55357088D01*
X115604760Y-55076759D01*
X115714139Y-54812695D01*
X115872934Y-54575042D01*
X116075042Y-54372934D01*
X116312695Y-54214139D01*
X116576759Y-54104760D01*
X116857088Y-54049000D01*
X117142912Y-54049000D01*
X117423241Y-54104760D01*
X117423241Y-54104760D01*
G37*
G36*
X127901000Y-56401000D02*
G01*
X126099000Y-56401000D01*
X126099000Y-54599000D01*
X127901000Y-54599000D01*
X127901000Y-56401000D01*
X127901000Y-56401000D01*
G37*
G36*
X160901000Y-52901000D02*
G01*
X159099000Y-52901000D01*
X159099000Y-51099000D01*
X160901000Y-51099000D01*
X160901000Y-52901000D01*
X160901000Y-52901000D01*
G37*
G36*
X117923241Y-44104760D02*
G01*
X118187305Y-44214139D01*
X118424958Y-44372934D01*
X118627066Y-44575042D01*
X118785861Y-44812695D01*
X118895240Y-45076759D01*
X118951000Y-45357088D01*
X118951000Y-45642912D01*
X118895240Y-45923241D01*
X118785861Y-46187305D01*
X118627066Y-46424958D01*
X118424958Y-46627066D01*
X118187305Y-46785861D01*
X117923241Y-46895240D01*
X117642912Y-46951000D01*
X117357088Y-46951000D01*
X117076759Y-46895240D01*
X116812695Y-46785861D01*
X116575042Y-46627066D01*
X116372934Y-46424958D01*
X116214139Y-46187305D01*
X116104760Y-45923241D01*
X116049000Y-45642912D01*
X116049000Y-45357088D01*
X116104760Y-45076759D01*
X116214139Y-44812695D01*
X116372934Y-44575042D01*
X116575042Y-44372934D01*
X116812695Y-44214139D01*
X117076759Y-44104760D01*
X117357088Y-44049000D01*
X117642912Y-44049000D01*
X117923241Y-44104760D01*
X117923241Y-44104760D01*
G37*
G36*
X155923241Y-44104760D02*
G01*
X156187305Y-44214139D01*
X156424958Y-44372934D01*
X156627066Y-44575042D01*
X156785861Y-44812695D01*
X156895240Y-45076759D01*
X156951000Y-45357088D01*
X156951000Y-45642912D01*
X156895240Y-45923241D01*
X156785861Y-46187305D01*
X156627066Y-46424958D01*
X156424958Y-46627066D01*
X156187305Y-46785861D01*
X155923241Y-46895240D01*
X155642912Y-46951000D01*
X155357088Y-46951000D01*
X155076759Y-46895240D01*
X154812695Y-46785861D01*
X154575042Y-46627066D01*
X154372934Y-46424958D01*
X154214139Y-46187305D01*
X154104760Y-45923241D01*
X154049000Y-45642912D01*
X154049000Y-45357088D01*
X154104760Y-45076759D01*
X154214139Y-44812695D01*
X154372934Y-44575042D01*
X154575042Y-44372934D01*
X154812695Y-44214139D01*
X155076759Y-44104760D01*
X155357088Y-44049000D01*
X155642912Y-44049000D01*
X155923241Y-44104760D01*
X155923241Y-44104760D01*
G37*
G36*
X150364903Y-44297075D02*
G01*
X150465236Y-44338634D01*
X150592571Y-44391378D01*
X150797466Y-44528285D01*
X150971715Y-44702534D01*
X151100545Y-44895341D01*
X151108623Y-44907431D01*
X151202925Y-45135097D01*
X151251000Y-45376786D01*
X151251000Y-45623214D01*
X151242325Y-45666825D01*
X151202925Y-45864903D01*
X151108622Y-46092571D01*
X150971715Y-46297466D01*
X150797466Y-46471715D01*
X150592571Y-46608622D01*
X150592570Y-46608623D01*
X150592569Y-46608623D01*
X150364903Y-46702925D01*
X150123214Y-46751000D01*
X149876786Y-46751000D01*
X149635097Y-46702925D01*
X149407431Y-46608623D01*
X149407430Y-46608623D01*
X149407429Y-46608622D01*
X149202534Y-46471715D01*
X149028285Y-46297466D01*
X148891378Y-46092571D01*
X148797075Y-45864903D01*
X148757675Y-45666825D01*
X148749000Y-45623214D01*
X148749000Y-45376786D01*
X148797075Y-45135097D01*
X148891377Y-44907431D01*
X148899455Y-44895341D01*
X149028285Y-44702534D01*
X149202534Y-44528285D01*
X149407429Y-44391378D01*
X149534765Y-44338634D01*
X149635097Y-44297075D01*
X149876786Y-44249000D01*
X150123214Y-44249000D01*
X150364903Y-44297075D01*
X150364903Y-44297075D01*
G37*
G36*
X124845239Y-44267101D02*
G01*
X125081053Y-44338634D01*
X125298381Y-44454799D01*
X125488871Y-44611129D01*
X125645201Y-44801619D01*
X125761366Y-45018947D01*
X125832899Y-45254761D01*
X125857053Y-45500000D01*
X125832899Y-45745239D01*
X125761366Y-45981053D01*
X125645201Y-46198381D01*
X125488871Y-46388871D01*
X125298381Y-46545201D01*
X125081053Y-46661366D01*
X124845239Y-46732899D01*
X124661457Y-46751000D01*
X124538543Y-46751000D01*
X124354761Y-46732899D01*
X124118947Y-46661366D01*
X123901619Y-46545201D01*
X123711129Y-46388871D01*
X123554799Y-46198381D01*
X123438634Y-45981053D01*
X123367101Y-45745239D01*
X123342947Y-45500000D01*
X123367101Y-45254761D01*
X123438634Y-45018947D01*
X123554799Y-44801619D01*
X123711129Y-44611129D01*
X123901619Y-44454799D01*
X124118947Y-44338634D01*
X124354761Y-44267101D01*
X124538543Y-44249000D01*
X124661457Y-44249000D01*
X124845239Y-44267101D01*
X124845239Y-44267101D01*
G37*
G36*
X109817395Y-44585546D02*
G01*
X109990466Y-44657234D01*
X109996572Y-44661314D01*
X110146227Y-44761310D01*
X110278690Y-44893773D01*
X110321284Y-44957520D01*
X110382766Y-45049534D01*
X110454454Y-45222605D01*
X110491000Y-45406333D01*
X110491000Y-45593667D01*
X110454454Y-45777395D01*
X110382766Y-45950466D01*
X110382765Y-45950467D01*
X110278690Y-46106227D01*
X110146227Y-46238690D01*
X110123092Y-46254148D01*
X109990466Y-46342766D01*
X109817395Y-46414454D01*
X109633667Y-46451000D01*
X109446333Y-46451000D01*
X109262605Y-46414454D01*
X109089534Y-46342766D01*
X108956908Y-46254148D01*
X108933773Y-46238690D01*
X108801310Y-46106227D01*
X108697235Y-45950467D01*
X108697234Y-45950466D01*
X108625546Y-45777395D01*
X108589000Y-45593667D01*
X108589000Y-45406333D01*
X108625546Y-45222605D01*
X108697234Y-45049534D01*
X108758716Y-44957520D01*
X108801310Y-44893773D01*
X108933773Y-44761310D01*
X109083428Y-44661314D01*
X109089534Y-44657234D01*
X109262605Y-44585546D01*
X109446333Y-44549000D01*
X109633667Y-44549000D01*
X109817395Y-44585546D01*
X109817395Y-44585546D01*
G37*
G36*
X107951000Y-46451000D02*
G01*
X106049000Y-46451000D01*
X106049000Y-44549000D01*
X107951000Y-44549000D01*
X107951000Y-46451000D01*
X107951000Y-46451000D01*
G37*
G36*
X176406823Y-44661313D02*
G01*
X176567242Y-44709976D01*
X176634361Y-44745852D01*
X176715078Y-44788996D01*
X176844659Y-44895341D01*
X176951004Y-45024922D01*
X176951005Y-45024924D01*
X177030024Y-45172758D01*
X177078687Y-45333177D01*
X177095117Y-45500000D01*
X177078687Y-45666823D01*
X177030024Y-45827242D01*
X176989477Y-45903100D01*
X176951004Y-45975078D01*
X176844659Y-46104659D01*
X176715078Y-46211004D01*
X176715076Y-46211005D01*
X176567242Y-46290024D01*
X176406823Y-46338687D01*
X176281804Y-46351000D01*
X176198196Y-46351000D01*
X176073177Y-46338687D01*
X175912758Y-46290024D01*
X175764924Y-46211005D01*
X175764922Y-46211004D01*
X175635341Y-46104659D01*
X175528996Y-45975078D01*
X175490523Y-45903100D01*
X175449976Y-45827242D01*
X175401313Y-45666823D01*
X175384883Y-45500000D01*
X175401313Y-45333177D01*
X175449976Y-45172758D01*
X175528995Y-45024924D01*
X175528996Y-45024922D01*
X175635341Y-44895341D01*
X175764922Y-44788996D01*
X175845639Y-44745852D01*
X175912758Y-44709976D01*
X176073177Y-44661313D01*
X176198196Y-44649000D01*
X176281804Y-44649000D01*
X176406823Y-44661313D01*
X176406823Y-44661313D01*
G37*
G36*
X161248228Y-44681703D02*
G01*
X161403100Y-44745853D01*
X161542481Y-44838985D01*
X161661015Y-44957519D01*
X161754147Y-45096900D01*
X161818297Y-45251772D01*
X161851000Y-45416184D01*
X161851000Y-45583816D01*
X161818297Y-45748228D01*
X161754147Y-45903100D01*
X161661015Y-46042481D01*
X161542481Y-46161015D01*
X161403100Y-46254147D01*
X161248228Y-46318297D01*
X161083816Y-46351000D01*
X160916184Y-46351000D01*
X160751772Y-46318297D01*
X160596900Y-46254147D01*
X160457519Y-46161015D01*
X160338985Y-46042481D01*
X160245853Y-45903100D01*
X160181703Y-45748228D01*
X160149000Y-45583816D01*
X160149000Y-45416184D01*
X160181703Y-45251772D01*
X160245853Y-45096900D01*
X160338985Y-44957519D01*
X160457519Y-44838985D01*
X160596900Y-44745853D01*
X160751772Y-44681703D01*
X160916184Y-44649000D01*
X161083816Y-44649000D01*
X161248228Y-44681703D01*
X161248228Y-44681703D01*
G37*
G36*
X133423241Y-35604760D02*
G01*
X133687305Y-35714139D01*
X133924958Y-35872934D01*
X134127066Y-36075042D01*
X134285861Y-36312695D01*
X134395240Y-36576759D01*
X134451000Y-36857088D01*
X134451000Y-37142912D01*
X134395240Y-37423241D01*
X134285861Y-37687305D01*
X134127066Y-37924958D01*
X133924958Y-38127066D01*
X133687305Y-38285861D01*
X133423241Y-38395240D01*
X133142912Y-38451000D01*
X132857088Y-38451000D01*
X132576759Y-38395240D01*
X132312695Y-38285861D01*
X132075042Y-38127066D01*
X131872934Y-37924958D01*
X131714139Y-37687305D01*
X131604760Y-37423241D01*
X131549000Y-37142912D01*
X131549000Y-36857088D01*
X131604760Y-36576759D01*
X131714139Y-36312695D01*
X131872934Y-36075042D01*
X132075042Y-35872934D01*
X132312695Y-35714139D01*
X132576759Y-35604760D01*
X132857088Y-35549000D01*
X133142912Y-35549000D01*
X133423241Y-35604760D01*
X133423241Y-35604760D01*
G37*
G36*
X122451000Y-37951000D02*
G01*
X120549000Y-37951000D01*
X120549000Y-36049000D01*
X122451000Y-36049000D01*
X122451000Y-37951000D01*
X122451000Y-37951000D01*
G37*
G36*
X124317395Y-36085546D02*
G01*
X124490466Y-36157234D01*
X124496572Y-36161314D01*
X124646227Y-36261310D01*
X124778690Y-36393773D01*
X124821284Y-36457520D01*
X124882766Y-36549534D01*
X124954454Y-36722605D01*
X124991000Y-36906333D01*
X124991000Y-37093667D01*
X124954454Y-37277395D01*
X124882766Y-37450466D01*
X124882765Y-37450467D01*
X124778690Y-37606227D01*
X124646227Y-37738690D01*
X124623092Y-37754148D01*
X124490466Y-37842766D01*
X124317395Y-37914454D01*
X124133667Y-37951000D01*
X123946333Y-37951000D01*
X123762605Y-37914454D01*
X123589534Y-37842766D01*
X123456908Y-37754148D01*
X123433773Y-37738690D01*
X123301310Y-37606227D01*
X123197235Y-37450467D01*
X123197234Y-37450466D01*
X123125546Y-37277395D01*
X123089000Y-37093667D01*
X123089000Y-36906333D01*
X123125546Y-36722605D01*
X123197234Y-36549534D01*
X123258716Y-36457520D01*
X123301310Y-36393773D01*
X123433773Y-36261310D01*
X123583428Y-36161314D01*
X123589534Y-36157234D01*
X123762605Y-36085546D01*
X123946333Y-36049000D01*
X124133667Y-36049000D01*
X124317395Y-36085546D01*
X124317395Y-36085546D01*
G37*
G36*
X155906823Y-36161313D02*
G01*
X156067242Y-36209976D01*
X156134361Y-36245852D01*
X156215078Y-36288996D01*
X156344659Y-36395341D01*
X156451004Y-36524922D01*
X156451005Y-36524924D01*
X156530024Y-36672758D01*
X156578687Y-36833177D01*
X156595117Y-37000000D01*
X156578687Y-37166823D01*
X156530024Y-37327242D01*
X156489477Y-37403100D01*
X156451004Y-37475078D01*
X156344659Y-37604659D01*
X156215078Y-37711004D01*
X156215076Y-37711005D01*
X156067242Y-37790024D01*
X155906823Y-37838687D01*
X155781804Y-37851000D01*
X155698196Y-37851000D01*
X155573177Y-37838687D01*
X155412758Y-37790024D01*
X155264924Y-37711005D01*
X155264922Y-37711004D01*
X155135341Y-37604659D01*
X155028996Y-37475078D01*
X154990523Y-37403100D01*
X154949976Y-37327242D01*
X154901313Y-37166823D01*
X154884883Y-37000000D01*
X154901313Y-36833177D01*
X154949976Y-36672758D01*
X155028995Y-36524924D01*
X155028996Y-36524922D01*
X155135341Y-36395341D01*
X155264922Y-36288996D01*
X155345639Y-36245852D01*
X155412758Y-36209976D01*
X155573177Y-36161313D01*
X155698196Y-36149000D01*
X155781804Y-36149000D01*
X155906823Y-36161313D01*
X155906823Y-36161313D01*
G37*
G36*
X140748228Y-36181703D02*
G01*
X140903100Y-36245853D01*
X141042481Y-36338985D01*
X141161015Y-36457519D01*
X141254147Y-36596900D01*
X141318297Y-36751772D01*
X141351000Y-36916184D01*
X141351000Y-37083816D01*
X141318297Y-37248228D01*
X141254147Y-37403100D01*
X141161015Y-37542481D01*
X141042481Y-37661015D01*
X140903100Y-37754147D01*
X140748228Y-37818297D01*
X140583816Y-37851000D01*
X140416184Y-37851000D01*
X140251772Y-37818297D01*
X140096900Y-37754147D01*
X139957519Y-37661015D01*
X139838985Y-37542481D01*
X139745853Y-37403100D01*
X139681703Y-37248228D01*
X139649000Y-37083816D01*
X139649000Y-36916184D01*
X139681703Y-36751772D01*
X139745853Y-36596900D01*
X139838985Y-36457519D01*
X139957519Y-36338985D01*
X140096900Y-36245853D01*
X140251772Y-36181703D01*
X140416184Y-36149000D01*
X140583816Y-36149000D01*
X140748228Y-36181703D01*
X140748228Y-36181703D01*
G37*
G36*
X113923241Y-30104760D02*
G01*
X114187305Y-30214139D01*
X114424958Y-30372934D01*
X114627066Y-30575042D01*
X114785861Y-30812695D01*
X114895240Y-31076759D01*
X114951000Y-31357088D01*
X114951000Y-31642912D01*
X114895240Y-31923241D01*
X114785861Y-32187305D01*
X114627066Y-32424958D01*
X114424958Y-32627066D01*
X114187305Y-32785861D01*
X113923241Y-32895240D01*
X113642912Y-32951000D01*
X113357088Y-32951000D01*
X113076759Y-32895240D01*
X112812695Y-32785861D01*
X112575042Y-32627066D01*
X112372934Y-32424958D01*
X112214139Y-32187305D01*
X112104760Y-31923241D01*
X112049000Y-31642912D01*
X112049000Y-31357088D01*
X112104760Y-31076759D01*
X112214139Y-30812695D01*
X112372934Y-30575042D01*
X112575042Y-30372934D01*
X112812695Y-30214139D01*
X113076759Y-30104760D01*
X113357088Y-30049000D01*
X113642912Y-30049000D01*
X113923241Y-30104760D01*
X113923241Y-30104760D01*
G37*
G36*
X168423241Y-30104760D02*
G01*
X168687305Y-30214139D01*
X168924958Y-30372934D01*
X169127066Y-30575042D01*
X169285861Y-30812695D01*
X169395240Y-31076759D01*
X169451000Y-31357088D01*
X169451000Y-31642912D01*
X169395240Y-31923241D01*
X169285861Y-32187305D01*
X169127066Y-32424958D01*
X168924958Y-32627066D01*
X168687305Y-32785861D01*
X168423241Y-32895240D01*
X168142912Y-32951000D01*
X167857088Y-32951000D01*
X167576759Y-32895240D01*
X167312695Y-32785861D01*
X167075042Y-32627066D01*
X166872934Y-32424958D01*
X166714139Y-32187305D01*
X166604760Y-31923241D01*
X166549000Y-31642912D01*
X166549000Y-31357088D01*
X166604760Y-31076759D01*
X166714139Y-30812695D01*
X166872934Y-30575042D01*
X167075042Y-30372934D01*
X167312695Y-30214139D01*
X167576759Y-30104760D01*
X167857088Y-30049000D01*
X168142912Y-30049000D01*
X168423241Y-30104760D01*
X168423241Y-30104760D01*
G37*
G36*
X142650442Y-30605518D02*
G01*
X142716627Y-30612037D01*
X142886466Y-30663557D01*
X143042991Y-30747222D01*
X143078729Y-30776552D01*
X143180186Y-30859814D01*
X143263448Y-30961271D01*
X143292778Y-30997009D01*
X143376443Y-31153534D01*
X143427963Y-31323373D01*
X143445359Y-31500000D01*
X143427963Y-31676627D01*
X143376443Y-31846466D01*
X143292778Y-32002991D01*
X143263448Y-32038729D01*
X143180186Y-32140186D01*
X143078729Y-32223448D01*
X143042991Y-32252778D01*
X142886466Y-32336443D01*
X142716627Y-32387963D01*
X142650442Y-32394482D01*
X142584260Y-32401000D01*
X142495740Y-32401000D01*
X142429558Y-32394482D01*
X142363373Y-32387963D01*
X142193534Y-32336443D01*
X142037009Y-32252778D01*
X142001271Y-32223448D01*
X141899814Y-32140186D01*
X141816552Y-32038729D01*
X141787222Y-32002991D01*
X141703557Y-31846466D01*
X141652037Y-31676627D01*
X141634641Y-31500000D01*
X141652037Y-31323373D01*
X141703557Y-31153534D01*
X141787222Y-30997009D01*
X141816552Y-30961271D01*
X141899814Y-30859814D01*
X142001271Y-30776552D01*
X142037009Y-30747222D01*
X142193534Y-30663557D01*
X142363373Y-30612037D01*
X142429558Y-30605518D01*
X142495740Y-30599000D01*
X142584260Y-30599000D01*
X142650442Y-30605518D01*
X142650442Y-30605518D01*
G37*
G36*
X140901000Y-32401000D02*
G01*
X139099000Y-32401000D01*
X139099000Y-30599000D01*
X140901000Y-30599000D01*
X140901000Y-32401000D01*
X140901000Y-32401000D01*
G37*
M02*
